<svg width="36" height="36" viewBox="0 0 36 36" fill="none" xmlns="http://www.w3.org/2000/svg">
    <g clip-path="url(#clip0_60_300)">
        <path d="M25.875 18.125H24.75C24.75 18.7454 24.2454 19.25 23.625 19.25C23.0046 19.25 22.5 18.7454 22.5 18.125H21.375C21.375 19.3659 22.3841 20.375 23.625 20.375C24.8659 20.375 25.875 19.3659 25.875 18.125Z" fill="#A1A1A1"/>
        <path d="M32.7454 25.2603L27 23.3444V22.1789C28.2431 21.3661 29.1735 20.1185 29.5813 18.6537C30.9746 18.4878 32.0625 17.3122 32.0625 15.875V11.375C32.0625 6.72256 28.2774 2.9375 23.625 2.9375C19.719 2.9375 16.434 5.60881 15.4772 9.21838C15.3771 9.10531 15.2826 8.98719 15.1757 8.88031L11.9841 5.68869L14.3106 2.43238C14.5164 2.1455 14.625 1.80631 14.625 1.45194V1.25C14.625 0.319625 13.8679 -0.4375 12.9375 -0.4375C12.1894 -0.4375 11.7923 0.017 11.529 0.317375C11.2838 0.596938 11.1859 0.6875 10.9671 0.6875C10.7477 0.6875 10.6504 0.596938 10.4046 0.316813C10.1413 0.0164376 9.74419 -0.4375 8.99662 -0.4375C8.24963 -0.4375 7.8525 0.017 7.58925 0.317375C7.34512 0.596938 7.24725 0.6875 7.029 0.6875C6.81075 0.6875 6.71344 0.596938 6.46931 0.317375C6.20662 0.017 5.8095 -0.4375 5.0625 -0.4375C4.13212 -0.4375 3.375 0.319625 3.375 1.25V1.45194C3.375 1.80631 3.48356 2.14494 3.68944 2.43238L6.01594 5.68869L2.82431 8.88031C1.36575 10.3389 0.5625 12.2778 0.5625 14.3405C0.5625 18.5986 4.02637 22.0625 8.2845 22.0625H9.71606C12.4914 22.0625 15.039 20.5623 16.407 18.188C16.7738 18.4417 17.2057 18.5986 17.6693 18.6537C18.0765 20.1191 19.0074 21.3661 20.2506 22.1789V23.3444L14.5052 25.2597C12.8948 25.7964 11.8125 27.2977 11.8125 28.9948V34.4375H35.4375V28.9948C35.4375 27.2977 34.3553 25.7964 32.7454 25.2603ZM29.7889 17.4663C29.8007 17.3116 29.8125 17.1575 29.8125 17V14.291C30.4656 14.5239 30.9375 15.1426 30.9375 15.875C30.9375 16.6158 30.4543 17.2402 29.7889 17.4663ZM23.625 4.0625C27.657 4.0625 30.9375 7.343 30.9375 11.375V13.6396C30.609 13.391 30.2304 13.2048 29.8125 13.1199V11.9375H28.125C26.5404 11.9375 25.0262 11.1804 24.075 9.91194L23.625 9.31287L23.175 9.91194C22.2238 11.1804 20.7096 11.9375 19.125 11.9375H17.4375V13.1193C17.0196 13.2048 16.641 13.3904 16.3125 13.6391V11.375C16.3125 7.343 19.593 4.0625 23.625 4.0625ZM4.5 1.45194V1.25C4.5 0.9395 4.752 0.6875 5.0625 0.6875C5.28075 0.6875 5.37806 0.778062 5.62219 1.05763C5.88487 1.358 6.282 1.8125 7.029 1.8125C7.776 1.8125 8.17313 1.358 8.43638 1.05763C8.68106 0.778062 8.77838 0.6875 8.99662 0.6875C9.21544 0.6875 9.31275 0.778062 9.55856 1.05763C9.82181 1.358 10.2189 1.8125 10.9671 1.8125C11.7146 1.8125 12.1117 1.35856 12.375 1.05819C12.6208 0.778062 12.7181 0.6875 12.9375 0.6875C13.248 0.6875 13.5 0.9395 13.5 1.25V1.45194C13.5 1.57006 13.464 1.68313 13.3954 1.77875L10.9609 5.1875H7.03912L4.60462 1.77875C4.536 1.68369 4.5 1.57006 4.5 1.45194ZM9.7155 20.9375H8.28394C4.64681 20.9375 1.6875 17.9782 1.6875 14.3405C1.6875 12.5782 2.37375 10.9216 3.61969 9.67569L6.98287 6.3125H11.0171L14.3803 9.67569C14.6964 9.99181 14.9749 10.3451 15.2207 10.7186C15.2038 10.9357 15.1875 11.1534 15.1875 11.375V15.875C15.1875 16.4049 15.3433 16.8954 15.5992 17.3189C14.4804 19.5251 12.2051 20.9375 9.7155 20.9375ZM16.3125 15.875C16.3125 15.1426 16.7844 14.5239 17.4375 14.291V17C17.4375 17.1575 17.4493 17.3116 17.4611 17.4663C16.7957 17.2402 16.3125 16.6158 16.3125 15.875ZM18.5625 17V13.0625H19.125C20.8283 13.0625 22.4646 12.3476 23.625 11.1208C24.7854 12.3476 26.4217 13.0625 28.125 13.0625H28.6875V17C28.6875 19.7917 26.4167 22.0625 23.625 22.0625C20.8333 22.0625 18.5625 19.7917 18.5625 17ZM23.625 23.1875C24.4193 23.1875 25.1764 23.0317 25.875 22.7577V23.5171L23.625 25.7671L21.375 23.5171V22.7577C22.0736 23.0317 22.8307 23.1875 23.625 23.1875ZM28.6875 31.0625H27.5625C26.2046 31.0625 25.0684 32.0306 24.8068 33.3125H22.4432C22.1816 32.0306 21.0459 31.0625 19.6875 31.0625H18.5625V27.6875H28.6875V31.0625ZM12.9375 28.9948C12.9375 27.7826 13.7104 26.7099 14.8607 26.3268L20.6606 24.3935L22.8296 26.5625H17.4375V31.0625H16.3125V28.8125H15.1875V32.1875H19.6875C20.4199 32.1875 21.0386 32.6594 21.2715 33.3125H12.9375V28.9948ZM34.3125 33.3125H25.9785C26.2114 32.6594 26.8301 32.1875 27.5625 32.1875H32.0625V28.8125H30.9375V31.0625H29.8125V26.5625H24.4204L26.5894 24.3935L32.3893 26.3268C33.5396 26.7104 34.3125 27.7826 34.3125 28.9948V33.3125Z" fill="#A1A1A1"/>
        <path d="M20.8125 15.3125C21.1232 15.3125 21.375 15.0607 21.375 14.75C21.375 14.4393 21.1232 14.1875 20.8125 14.1875C20.5018 14.1875 20.25 14.4393 20.25 14.75C20.25 15.0607 20.5018 15.3125 20.8125 15.3125Z" fill="#A1A1A1"/>
        <path d="M26.4375 15.3125C26.7482 15.3125 27 15.0607 27 14.75C27 14.4393 26.7482 14.1875 26.4375 14.1875C26.1268 14.1875 25.875 14.4393 25.875 14.75C25.875 15.0607 26.1268 15.3125 26.4375 15.3125Z" fill="#A1A1A1"/>
        <path d="M5.21034 11.267L5.82965 10.6477L5.03428 9.85231L4.41496 10.4716C4.23946 10.6471 4.07465 10.8361 3.92334 11.0347L4.81884 11.7159C4.93865 11.5572 5.07084 11.4065 5.21034 11.267Z" fill="#A1A1A1"/>
        <path d="M3.9375 14.3405C3.9375 13.7741 4.04325 13.2262 4.25194 12.7109L3.20906 12.2891C2.94581 12.9387 2.8125 13.6295 2.8125 14.3405C2.8125 16.9359 4.65806 19.1921 7.20169 19.7045L7.42387 18.6014C5.40337 18.1948 3.9375 16.4026 3.9375 14.3405Z" fill="#A1A1A1"/>
        <path d="M9 10.8125C9.62044 10.8125 10.125 11.3171 10.125 11.9375H11.25C11.25 10.8918 10.5306 10.0188 9.5625 9.76738V8.5625H8.4375V9.76738C7.46944 10.0188 6.75 10.8918 6.75 11.9375C6.75 13.1784 7.75912 14.1875 9 14.1875C9.62044 14.1875 10.125 14.6921 10.125 15.3125C10.125 15.9329 9.62044 16.4375 9 16.4375C8.37956 16.4375 7.875 15.9329 7.875 15.3125H6.75C6.75 16.3582 7.46944 17.2312 8.4375 17.4826V18.6875H9.5625V17.4826C10.5306 17.2312 11.25 16.3582 11.25 15.3125C11.25 14.0716 10.2409 13.0625 9 13.0625C8.37956 13.0625 7.875 12.5579 7.875 11.9375C7.875 11.3171 8.37956 10.8125 9 10.8125Z" fill="#A1A1A1"/>
    </g>
    <defs>
        <clipPath id="clip0_60_300">
            <rect width="36" height="36" fill="white"/>
        </clipPath>
    </defs>
</svg>
