<svg width="36" height="34" viewBox="0 0 36 34" fill="none" xmlns="http://www.w3.org/2000/svg">
    <path d="M31.582 8.17758V9.49123C31.582 9.88875 31.5617 13.3835 31.519 14.012C31.4418 15.2067 31.2771 16.3915 31.0293 17.5305C28.6529 28.4896 19.4626 32.0497 19.0729 32.1954L18.4618 32.4244C18.4062 32.4451 18.3487 32.4561 18.2897 32.4561C18.2322 32.4561 18.1742 32.4451 18.1192 32.4244L17.508 32.1954C17.1174 32.0497 7.9275 28.4866 5.55063 17.5305C5.30379 16.3915 5.13873 15.2087 5.06043 14.012C5.01972 13.3815 5 9.88875 5 9.49123V8.17758C5 7.96044 5.14325 7.76812 5.35239 7.70861L6.61547 7.3467C9.15241 6.62103 11.0768 5.38174 12.7736 4.2872C14.6786 3.05985 16.3233 2 18.2897 2C20.2567 2 21.9014 3.05985 23.8059 4.28523C25.5047 5.38174 27.4285 6.62092 29.966 7.3467L31.2285 7.70861C31.4378 7.76823 31.582 7.96055 31.582 8.17758Z" fill="url(#paint0_linear_885_1475)"/>
    <path d="M30.6067 8.54448L29.6966 8.28279C27.0217 7.51838 25.0329 6.23651 23.2782 5.10625C21.5035 3.96323 19.9703 2.97576 18.2894 2.97576C16.6095 2.97576 15.0768 3.96323 13.3011 5.10532C11.5473 6.23651 9.55901 7.51838 6.88322 8.28279L5.97266 8.54448V9.49123C5.97266 9.96612 5.99539 13.3806 6.03205 13.9496C6.10686 15.0967 6.26554 16.2319 6.50252 17.3244C8.76838 27.7669 17.4799 31.1456 17.8492 31.2824L18.2894 31.449L18.7306 31.2824C19.1004 31.1456 27.8108 27.7689 30.0773 17.3244C30.3137 16.2319 30.4719 15.0967 30.5467 13.9496C30.5844 13.3816 30.6067 9.96716 30.6067 9.49123V8.54448Z" fill="url(#paint1_linear_885_1475)"/>
    <path d="M18.2901 13.8683V17.0576H7.73117C7.51507 16.0632 7.36092 15.0015 7.28749 13.8683C7.25327 13.3508 7.22949 10.0376 7.22949 9.49123C12.76 7.90801 15.583 4.23187 18.2901 4.23187V13.8683ZM18.2901 17.0577V30.1076C18.2901 30.1076 26.7032 26.9569 28.8506 17.0577H18.2901Z" fill="url(#paint2_linear_885_1475)"/>
    <defs>
        <linearGradient id="paint0_linear_885_1475" x1="5" y1="17.2282" x2="31.5821" y2="17.2282" gradientUnits="userSpaceOnUse">
            <stop offset="0.5" stop-color="white"/>
        </linearGradient>
        <linearGradient id="paint1_linear_885_1475" x1="5.97275" y1="17.2123" x2="30.6067" y2="17.2123" gradientUnits="userSpaceOnUse">
            <stop offset="0.5" stop-color="#946800"/>
        </linearGradient>
        <linearGradient id="paint2_linear_885_1475" x1="7.22958" y1="17.1697" x2="28.8507" y2="17.1697" gradientUnits="userSpaceOnUse">
            <stop offset="1" stop-color="white"/>
        </linearGradient>
    </defs>
</svg>
