<svg xmlns="http://www.w3.org/2000/svg" xmlns:xlink="http://www.w3.org/1999/xlink" version="1.1" width="256" height="256" viewBox="0 0 256 256" xml:space="preserve">

<defs>
</defs>
<g style="stroke: none; stroke-width: 0; stroke-dasharray: none; stroke-linecap: butt; stroke-linejoin: miter; stroke-miterlimit: 10; fill: none; fill-rule: nonzero; opacity: 1;" transform="translate(1.4065934065934016 1.4065934065934016) scale(2.81 2.81)" >
	<path d="M 45 90 c -0.115 0 -0.231 -0.02 -0.345 -0.062 C 19.856 80.829 6.138 57.733 3.879 21.292 c -0.03 -0.487 0.296 -0.925 0.771 -1.036 c 11.337 -2.636 21.375 -6.772 29.833 -12.294 c 0.463 -0.302 1.082 -0.172 1.384 0.291 c 0.302 0.463 0.172 1.083 -0.291 1.384 c -8.448 5.515 -18.419 9.676 -29.647 12.372 c 2.384 35.576 15.282 57.188 39.415 66.053 c 0.519 0.19 0.784 0.765 0.594 1.283 C 45.79 89.749 45.407 90 45 90 z" style="stroke: none; stroke-width: 1; stroke-dasharray: none; stroke-linecap: butt; stroke-linejoin: miter; stroke-miterlimit: 10; fill: rgb(0,0,0); fill-rule: nonzero; opacity: 1;" transform=" matrix(1 0 0 1 0 0) " stroke-linecap="round" />
	<path d="M 45 90 c -0.202 0 -0.402 -0.062 -0.572 -0.18 C 44.16 89.633 44 89.327 44 89 V 64.826 c 0 -0.553 0.448 -1 1 -1 s 1 0.447 1 1 V 87.55 c 23.267 -9.168 35.731 -30.633 38.07 -65.541 C 68.798 18.343 56.007 12.041 46 3.256 v 13.707 c 0 0.552 -0.448 1 -1 1 s -1 -0.448 -1 -1 V 1 c 0 -0.398 0.236 -0.759 0.602 -0.917 s 0.791 -0.085 1.081 0.188 c 10.155 9.503 23.5 16.228 39.667 19.986 c 0.476 0.111 0.802 0.549 0.771 1.036 C 83.862 57.733 70.144 80.83 45.345 89.938 C 45.233 89.979 45.116 90 45 90 z" style="stroke: none; stroke-width: 1; stroke-dasharray: none; stroke-linecap: butt; stroke-linejoin: miter; stroke-miterlimit: 10; fill: rgb(0,0,0); fill-rule: nonzero; opacity: 1;" transform=" matrix(1 0 0 1 0 0) " stroke-linecap="round" />
	<path d="M 45 65.826 c -4.888 0 -9.64 -1.726 -13.383 -4.858 c -0.423 -0.354 -0.479 -0.985 -0.125 -1.408 c 0.354 -0.424 0.984 -0.481 1.409 -0.125 c 3.383 2.832 7.68 4.392 12.099 4.392 c 10.398 0 18.857 -8.459 18.857 -18.857 S 55.398 26.111 45 26.111 S 26.142 34.57 26.142 44.969 c 0 0.552 -0.448 1 -1 1 s -1 -0.448 -1 -1 c 0 -11.501 9.357 -20.858 20.858 -20.858 s 20.857 9.357 20.857 20.858 S 56.501 65.826 45 65.826 z" style="stroke: none; stroke-width: 1; stroke-dasharray: none; stroke-linecap: butt; stroke-linejoin: miter; stroke-miterlimit: 10; fill: rgb(0,0,0); fill-rule: nonzero; opacity: 1;" transform=" matrix(1 0 0 1 0 0) " stroke-linecap="round" />
	<path d="M 43.719 52.669 c -0.287 0 -0.561 -0.124 -0.75 -0.339 l -6.502 -7.389 c -0.365 -0.415 -0.325 -1.046 0.09 -1.411 c 0.415 -0.366 1.047 -0.324 1.411 0.09 l 5.746 6.528 l 10.962 -12.667 c 0.36 -0.418 0.993 -0.462 1.41 -0.102 c 0.418 0.362 0.463 0.993 0.102 1.411 L 44.475 52.323 c -0.189 0.219 -0.463 0.345 -0.752 0.346 C 43.722 52.669 43.72 52.669 43.719 52.669 z" style="stroke: none; stroke-width: 1; stroke-dasharray: none; stroke-linecap: butt; stroke-linejoin: miter; stroke-miterlimit: 10; fill: rgb(0,0,0); fill-rule: nonzero; opacity: 1;" transform=" matrix(1 0 0 1 0 0) " stroke-linecap="round" />
</g>
</svg>