<svg width="37" height="25" viewBox="0 0 37 25" fill="none" xmlns="http://www.w3.org/2000/svg">
    <path d="M16.2297 7.52609C16.0329 7.4458 15.2094 7.09593 14.1452 6.36916L14.1442 6.36847C13.8144 6.13922 13.5155 6.00843 13.2881 5.95006C13.1739 5.92077 13.0821 5.91081 13.0157 5.91342C12.9702 5.9152 12.9456 5.9224 12.9343 5.92681C12.9343 5.92833 12.9342 5.93007 12.9342 5.93206C12.9342 5.95551 12.9416 5.99793 12.9686 6.06208C13.0224 6.18982 13.1407 6.37211 13.3509 6.60337L13.3558 6.60878L13.3556 6.60889L13.5716 6.87116L13.7623 7.10272L13.4627 7.11636L13.1027 7.13276L13.0958 7.13307V7.13291H13.0778C12.9793 7.13291 12.8474 7.10518 12.6975 7.06371C12.5437 7.02115 12.3567 6.95994 12.1418 6.88477C11.8249 6.77388 11.4412 6.63039 11.0057 6.46753C10.8513 6.40977 10.6904 6.34958 10.5236 6.28753L10.5206 6.28644L10.5206 6.28641C10.3473 6.21779 10.1832 6.1491 10.0403 6.08927C10.0111 6.07706 9.98286 6.06523 9.95557 6.05384C9.79086 5.98509 9.66838 5.93536 9.59628 5.91347L9.59531 5.91318C8.53792 5.58438 7.64472 5.84525 7.00138 6.20229C6.37054 6.55239 5.9867 6.99171 5.93929 7.04598L16.2297 7.52609ZM16.2297 7.52609C16.6626 7.81492 16.8391 8.3437 16.6609 8.90445C16.514 9.36516 16.0396 9.91538 15.2544 9.93091H15.1118H14.9975L14.9672 10.0412L14.9328 10.1664L14.9319 10.169L14.928 10.1814L14.9169 10.2169C14.9077 10.2465 14.8944 10.2889 14.8765 10.3423C14.8408 10.4491 14.7872 10.6005 14.7134 10.7813C14.5656 11.1436 14.3379 11.6222 14.0136 12.0987C13.3639 13.0534 12.3417 13.9796 10.8098 13.9796C9.29563 13.9796 8.29615 13.0735 7.66485 12.1401C7.34962 11.674 7.12982 11.2057 6.98766 10.8513C6.91667 10.6743 6.86526 10.5263 6.8311 10.4217C6.81403 10.3694 6.80125 10.3279 6.79242 10.2989L6.78184 10.264L6.77797 10.2516L6.77559 10.2447L6.74097 10.1344L6.72483 10.0829L6.67963 10.0535L6.55363 9.97156L6.52359 9.95202L6.48796 9.94817C6.0213 9.89775 5.66564 9.58416 5.42813 9.16125C5.19012 8.73744 5.0844 8.22527 5.10957 7.82837L5.1097 7.82546C5.11807 7.63485 5.15982 7.46644 5.23141 7.35073C5.29882 7.24176 5.38924 7.18209 5.51785 7.18209H5.58985C5.63573 7.18209 5.69535 7.17702 5.75505 7.15985C5.81256 7.14331 5.88437 7.1114 5.93792 7.04755L16.2297 7.52609ZM17.3051 9.09881L17.3051 9.09884L17.3065 9.09454C17.5504 8.34298 17.3419 7.5799 16.7579 7.1076C16.7694 6.4811 16.6866 4.2958 15.1264 2.79383C14.1552 1.84168 12.7995 1.37453 11.1158 1.37453C9.23638 1.37453 7.75312 1.87334 6.72649 2.89299C5.36243 4.23098 5.21875 6.02688 5.22187 6.70894C4.78965 6.87247 4.5403 7.33394 4.50438 7.92026C4.44776 8.40211 4.55351 9.00916 4.83736 9.52613C5.11074 10.024 5.55651 10.4498 6.19327 10.5881C6.32136 10.9888 6.66581 11.9226 7.33418 12.7871C8.05881 13.7244 9.17386 14.5911 10.8098 14.5911C12.4463 14.5911 13.579 13.7116 14.3232 12.7612C15.0075 11.8873 15.3725 10.9428 15.5118 10.5315C16.3363 10.4278 17.0262 9.87748 17.3051 9.09881ZM7.1707 3.32012L7.17095 3.31988C8.05218 2.45445 9.35896 2.00236 11.0798 2.00236C12.6004 2.00236 13.7828 2.42045 14.6115 3.22231L14.612 3.22272C15.7676 4.332 16.0011 5.96312 16.0364 6.76346C15.6777 6.59187 15.1374 6.299 14.5129 5.87584C14.1142 5.59735 13.709 5.41104 13.3516 5.33626C13 5.26272 12.6606 5.29137 12.4369 5.49512L12.4366 5.49487L12.4297 5.50209C12.3482 5.58692 12.2588 5.72312 12.2529 5.92542C12.2496 6.04019 12.2734 6.16899 12.3329 6.31425C11.956 6.18675 11.5115 6.02283 11.1296 5.88201C10.9943 5.83214 10.8669 5.78517 10.7532 5.74374C10.6498 5.70608 10.5513 5.66984 10.4587 5.63577C10.1569 5.52471 9.91738 5.43656 9.77289 5.39672C7.97008 4.81198 6.54434 5.62698 5.86235 6.1889C5.91956 5.4757 6.17778 4.2908 7.1707 3.32012Z" fill="#716F6F" stroke="#716F6F" stroke-width="0.3"/>
    <mask id="path-2-outside-1_885_1476" maskUnits="userSpaceOnUse" x="0" y="0" width="37" height="25" fill="black">
        <rect fill="white" width="37" height="25"/>
        <path d="M34.498 17.7849C35.38 15.3262 33.49 13.851 33.04 13.5559C33.094 13.097 33.184 11.1955 31.294 9.63834C32.014 8.9499 32.32 6.96652 31.672 5.03232C31.168 3.5243 29.692 1 25.57 1C23.59 1 22.06 1.55731 21.034 2.65555C19.234 4.57336 19.558 7.49105 19.648 8.08115C19.486 8.21228 19.126 8.50733 18.82 9.01546C18.46 9.60556 18.118 10.6054 18.514 11.9987C17.038 13.0478 16.354 14.2935 16.498 15.7196C15.472 15.277 14.644 15.0803 14.554 15.0639L14.5 14.982L14.122 14.3919L13.906 14.0641L13.582 14.2608C13.096 14.6378 12.556 14.9164 12.016 15.0803H11.782H10.108H9.874C9.334 14.9164 8.794 14.6378 8.308 14.2608L7.984 14.0313L7.768 14.3755L7.39 14.9656L7.354 15.0148C6.418 15.2606 1 16.8998 1 20.7846C1 20.8829 1.072 20.9485 1.18 20.9485C1.288 20.9485 1.36 20.8829 1.36 20.7846C1.36 17.1948 6.382 15.6213 7.408 15.3426C7.624 15.6868 8.47 16.949 9.334 17.0637L9.64 17.1129L9.73 16.8342L9.892 16.3425C9.946 16.4572 10.018 16.572 10.108 16.6703L9.55 21.7681L9.532 21.8828L9.604 21.9812L10.63 23.4564L10.936 23.899L11.242 23.44L12.214 21.9648L12.268 21.8664L12.25 21.7517L11.728 16.6539C11.818 16.5556 11.89 16.4408 11.944 16.3261L12.106 16.8178L12.196 17.0965L12.502 17.0473C13.33 16.9326 14.176 15.7196 14.41 15.3426C14.68 15.4082 20.512 16.867 20.512 20.7682C20.512 20.8665 20.584 20.9321 20.692 20.9321C20.8 20.9321 20.872 20.8665 20.872 20.7682C20.872 18.6701 19.324 17.2604 17.758 16.3425C18.172 16.2277 18.604 16.1294 19.018 16.031C19.954 15.818 20.818 15.6049 21.538 15.2279C21.718 15.5229 23.05 17.6046 24.31 17.7849L24.616 17.8341L24.706 17.5555L25.354 15.5885L25.39 15.4901L25.426 15.5885L26.074 17.5555L26.164 17.8341L26.47 17.7849C27.622 17.621 28.864 15.8343 29.188 15.3262C29.206 15.3262 29.224 15.3426 29.242 15.3426C29.296 15.359 35.362 16.7851 35.362 20.7682C35.362 20.8665 35.434 20.9321 35.542 20.9321C35.65 20.9321 35.722 20.8665 35.722 20.7682C35.758 19.5716 35.236 18.5881 34.498 17.7849ZM9.712 15.7032L9.37 16.7523C8.668 16.6539 7.84 15.3918 7.696 15.1787C7.696 15.1623 7.696 15.1295 7.696 15.1131L8.056 14.5558C8.56 14.9492 9.118 15.1459 9.73 15.3098C9.712 15.3918 9.712 15.5557 9.712 15.6376C9.694 15.654 9.712 15.6704 9.712 15.7032ZM11.386 16.5556L11.926 21.7845L10.954 23.2597L9.928 21.7845L10.468 16.5556C10.252 16.3753 10.108 16.0802 10.09 15.736L10.162 15.4573L10.198 15.3918H11.692L11.728 15.4573L11.8 15.7032C11.746 16.0474 11.602 16.3753 11.386 16.5556ZM12.484 16.7523L12.142 15.7032C12.142 15.6868 12.142 15.6704 12.142 15.6376C12.142 15.5557 12.142 15.4901 12.124 15.4082C12.718 15.2442 13.276 14.9492 13.798 14.5558L14.176 15.1459C14.176 15.1459 13.24 16.6375 12.484 16.7523ZM24.4 17.4735C23.266 17.3096 21.88 15.0803 21.88 15.0803L22.456 14.1952C23.248 14.8017 24.13 15.2606 25.066 15.5065L24.4 17.4735ZM26.47 17.4735L25.822 15.5065C26.758 15.2606 27.64 14.8181 28.432 14.1952L29.008 15.0803C28.99 15.0639 27.604 17.3096 26.47 17.4735ZM34.21 17.5063C32.428 15.8343 29.692 15.1295 29.386 15.0476L29.296 14.9L28.72 14.0149L28.504 13.6871L28.18 13.9329C27.406 14.523 26.578 14.9492 25.714 15.1787L25.444 15.2442L25.174 15.1787C24.31 14.9492 23.482 14.523 22.708 13.9329L22.384 13.6871L22.168 14.0149L21.592 14.9C21.556 14.9 21.52 14.9 21.484 14.9164C20.8 15.2934 19.918 15.5065 18.982 15.7196C18.46 15.8343 17.92 15.9655 17.416 16.1294C17.236 16.031 17.056 15.9491 16.894 15.8671C16.678 14.4247 17.326 13.2281 18.856 12.179L18.91 12.1135L18.874 11.9987C18.118 9.44164 19.864 8.31063 19.936 8.26145L20.026 8.19589L20.008 8.09754C20.008 8.06475 19.45 4.81923 21.304 2.83585C22.258 1.81958 23.698 1.29505 25.57 1.29505C29.476 1.29505 30.862 3.68821 31.33 5.09789C31.96 6.98291 31.618 9.03186 30.916 9.47443L30.718 9.58917L30.898 9.73669C33.022 11.3922 32.662 13.5559 32.662 13.5723L32.644 13.6707L32.734 13.7362C32.842 13.8182 34.948 15.0967 34.21 17.5063Z"/>
    </mask>
    <path d="M34.498 17.7849C35.38 15.3262 33.49 13.851 33.04 13.5559C33.094 13.097 33.184 11.1955 31.294 9.63834C32.014 8.9499 32.32 6.96652 31.672 5.03232C31.168 3.5243 29.692 1 25.57 1C23.59 1 22.06 1.55731 21.034 2.65555C19.234 4.57336 19.558 7.49105 19.648 8.08115C19.486 8.21228 19.126 8.50733 18.82 9.01546C18.46 9.60556 18.118 10.6054 18.514 11.9987C17.038 13.0478 16.354 14.2935 16.498 15.7196C15.472 15.277 14.644 15.0803 14.554 15.0639L14.5 14.982L14.122 14.3919L13.906 14.0641L13.582 14.2608C13.096 14.6378 12.556 14.9164 12.016 15.0803H11.782H10.108H9.874C9.334 14.9164 8.794 14.6378 8.308 14.2608L7.984 14.0313L7.768 14.3755L7.39 14.9656L7.354 15.0148C6.418 15.2606 1 16.8998 1 20.7846C1 20.8829 1.072 20.9485 1.18 20.9485C1.288 20.9485 1.36 20.8829 1.36 20.7846C1.36 17.1948 6.382 15.6213 7.408 15.3426C7.624 15.6868 8.47 16.949 9.334 17.0637L9.64 17.1129L9.73 16.8342L9.892 16.3425C9.946 16.4572 10.018 16.572 10.108 16.6703L9.55 21.7681L9.532 21.8828L9.604 21.9812L10.63 23.4564L10.936 23.899L11.242 23.44L12.214 21.9648L12.268 21.8664L12.25 21.7517L11.728 16.6539C11.818 16.5556 11.89 16.4408 11.944 16.3261L12.106 16.8178L12.196 17.0965L12.502 17.0473C13.33 16.9326 14.176 15.7196 14.41 15.3426C14.68 15.4082 20.512 16.867 20.512 20.7682C20.512 20.8665 20.584 20.9321 20.692 20.9321C20.8 20.9321 20.872 20.8665 20.872 20.7682C20.872 18.6701 19.324 17.2604 17.758 16.3425C18.172 16.2277 18.604 16.1294 19.018 16.031C19.954 15.818 20.818 15.6049 21.538 15.2279C21.718 15.5229 23.05 17.6046 24.31 17.7849L24.616 17.8341L24.706 17.5555L25.354 15.5885L25.39 15.4901L25.426 15.5885L26.074 17.5555L26.164 17.8341L26.47 17.7849C27.622 17.621 28.864 15.8343 29.188 15.3262C29.206 15.3262 29.224 15.3426 29.242 15.3426C29.296 15.359 35.362 16.7851 35.362 20.7682C35.362 20.8665 35.434 20.9321 35.542 20.9321C35.65 20.9321 35.722 20.8665 35.722 20.7682C35.758 19.5716 35.236 18.5881 34.498 17.7849ZM9.712 15.7032L9.37 16.7523C8.668 16.6539 7.84 15.3918 7.696 15.1787C7.696 15.1623 7.696 15.1295 7.696 15.1131L8.056 14.5558C8.56 14.9492 9.118 15.1459 9.73 15.3098C9.712 15.3918 9.712 15.5557 9.712 15.6376C9.694 15.654 9.712 15.6704 9.712 15.7032ZM11.386 16.5556L11.926 21.7845L10.954 23.2597L9.928 21.7845L10.468 16.5556C10.252 16.3753 10.108 16.0802 10.09 15.736L10.162 15.4573L10.198 15.3918H11.692L11.728 15.4573L11.8 15.7032C11.746 16.0474 11.602 16.3753 11.386 16.5556ZM12.484 16.7523L12.142 15.7032C12.142 15.6868 12.142 15.6704 12.142 15.6376C12.142 15.5557 12.142 15.4901 12.124 15.4082C12.718 15.2442 13.276 14.9492 13.798 14.5558L14.176 15.1459C14.176 15.1459 13.24 16.6375 12.484 16.7523ZM24.4 17.4735C23.266 17.3096 21.88 15.0803 21.88 15.0803L22.456 14.1952C23.248 14.8017 24.13 15.2606 25.066 15.5065L24.4 17.4735ZM26.47 17.4735L25.822 15.5065C26.758 15.2606 27.64 14.8181 28.432 14.1952L29.008 15.0803C28.99 15.0639 27.604 17.3096 26.47 17.4735ZM34.21 17.5063C32.428 15.8343 29.692 15.1295 29.386 15.0476L29.296 14.9L28.72 14.0149L28.504 13.6871L28.18 13.9329C27.406 14.523 26.578 14.9492 25.714 15.1787L25.444 15.2442L25.174 15.1787C24.31 14.9492 23.482 14.523 22.708 13.9329L22.384 13.6871L22.168 14.0149L21.592 14.9C21.556 14.9 21.52 14.9 21.484 14.9164C20.8 15.2934 19.918 15.5065 18.982 15.7196C18.46 15.8343 17.92 15.9655 17.416 16.1294C17.236 16.031 17.056 15.9491 16.894 15.8671C16.678 14.4247 17.326 13.2281 18.856 12.179L18.91 12.1135L18.874 11.9987C18.118 9.44164 19.864 8.31063 19.936 8.26145L20.026 8.19589L20.008 8.09754C20.008 8.06475 19.45 4.81923 21.304 2.83585C22.258 1.81958 23.698 1.29505 25.57 1.29505C29.476 1.29505 30.862 3.68821 31.33 5.09789C31.96 6.98291 31.618 9.03186 30.916 9.47443L30.718 9.58917L30.898 9.73669C33.022 11.3922 32.662 13.5559 32.662 13.5723L32.644 13.6707L32.734 13.7362C32.842 13.8182 34.948 15.0967 34.21 17.5063Z" fill="#716F6F"/>
    <path d="M34.498 17.7849C35.38 15.3262 33.49 13.851 33.04 13.5559C33.094 13.097 33.184 11.1955 31.294 9.63834C32.014 8.9499 32.32 6.96652 31.672 5.03232C31.168 3.5243 29.692 1 25.57 1C23.59 1 22.06 1.55731 21.034 2.65555C19.234 4.57336 19.558 7.49105 19.648 8.08115C19.486 8.21228 19.126 8.50733 18.82 9.01546C18.46 9.60556 18.118 10.6054 18.514 11.9987C17.038 13.0478 16.354 14.2935 16.498 15.7196C15.472 15.277 14.644 15.0803 14.554 15.0639L14.5 14.982L14.122 14.3919L13.906 14.0641L13.582 14.2608C13.096 14.6378 12.556 14.9164 12.016 15.0803H11.782H10.108H9.874C9.334 14.9164 8.794 14.6378 8.308 14.2608L7.984 14.0313L7.768 14.3755L7.39 14.9656L7.354 15.0148C6.418 15.2606 1 16.8998 1 20.7846C1 20.8829 1.072 20.9485 1.18 20.9485C1.288 20.9485 1.36 20.8829 1.36 20.7846C1.36 17.1948 6.382 15.6213 7.408 15.3426C7.624 15.6868 8.47 16.949 9.334 17.0637L9.64 17.1129L9.73 16.8342L9.892 16.3425C9.946 16.4572 10.018 16.572 10.108 16.6703L9.55 21.7681L9.532 21.8828L9.604 21.9812L10.63 23.4564L10.936 23.899L11.242 23.44L12.214 21.9648L12.268 21.8664L12.25 21.7517L11.728 16.6539C11.818 16.5556 11.89 16.4408 11.944 16.3261L12.106 16.8178L12.196 17.0965L12.502 17.0473C13.33 16.9326 14.176 15.7196 14.41 15.3426C14.68 15.4082 20.512 16.867 20.512 20.7682C20.512 20.8665 20.584 20.9321 20.692 20.9321C20.8 20.9321 20.872 20.8665 20.872 20.7682C20.872 18.6701 19.324 17.2604 17.758 16.3425C18.172 16.2277 18.604 16.1294 19.018 16.031C19.954 15.818 20.818 15.6049 21.538 15.2279C21.718 15.5229 23.05 17.6046 24.31 17.7849L24.616 17.8341L24.706 17.5555L25.354 15.5885L25.39 15.4901L25.426 15.5885L26.074 17.5555L26.164 17.8341L26.47 17.7849C27.622 17.621 28.864 15.8343 29.188 15.3262C29.206 15.3262 29.224 15.3426 29.242 15.3426C29.296 15.359 35.362 16.7851 35.362 20.7682C35.362 20.8665 35.434 20.9321 35.542 20.9321C35.65 20.9321 35.722 20.8665 35.722 20.7682C35.758 19.5716 35.236 18.5881 34.498 17.7849ZM9.712 15.7032L9.37 16.7523C8.668 16.6539 7.84 15.3918 7.696 15.1787C7.696 15.1623 7.696 15.1295 7.696 15.1131L8.056 14.5558C8.56 14.9492 9.118 15.1459 9.73 15.3098C9.712 15.3918 9.712 15.5557 9.712 15.6376C9.694 15.654 9.712 15.6704 9.712 15.7032ZM11.386 16.5556L11.926 21.7845L10.954 23.2597L9.928 21.7845L10.468 16.5556C10.252 16.3753 10.108 16.0802 10.09 15.736L10.162 15.4573L10.198 15.3918H11.692L11.728 15.4573L11.8 15.7032C11.746 16.0474 11.602 16.3753 11.386 16.5556ZM12.484 16.7523L12.142 15.7032C12.142 15.6868 12.142 15.6704 12.142 15.6376C12.142 15.5557 12.142 15.4901 12.124 15.4082C12.718 15.2442 13.276 14.9492 13.798 14.5558L14.176 15.1459C14.176 15.1459 13.24 16.6375 12.484 16.7523ZM24.4 17.4735C23.266 17.3096 21.88 15.0803 21.88 15.0803L22.456 14.1952C23.248 14.8017 24.13 15.2606 25.066 15.5065L24.4 17.4735ZM26.47 17.4735L25.822 15.5065C26.758 15.2606 27.64 14.8181 28.432 14.1952L29.008 15.0803C28.99 15.0639 27.604 17.3096 26.47 17.4735ZM34.21 17.5063C32.428 15.8343 29.692 15.1295 29.386 15.0476L29.296 14.9L28.72 14.0149L28.504 13.6871L28.18 13.9329C27.406 14.523 26.578 14.9492 25.714 15.1787L25.444 15.2442L25.174 15.1787C24.31 14.9492 23.482 14.523 22.708 13.9329L22.384 13.6871L22.168 14.0149L21.592 14.9C21.556 14.9 21.52 14.9 21.484 14.9164C20.8 15.2934 19.918 15.5065 18.982 15.7196C18.46 15.8343 17.92 15.9655 17.416 16.1294C17.236 16.031 17.056 15.9491 16.894 15.8671C16.678 14.4247 17.326 13.2281 18.856 12.179L18.91 12.1135L18.874 11.9987C18.118 9.44164 19.864 8.31063 19.936 8.26145L20.026 8.19589L20.008 8.09754C20.008 8.06475 19.45 4.81923 21.304 2.83585C22.258 1.81958 23.698 1.29505 25.57 1.29505C29.476 1.29505 30.862 3.68821 31.33 5.09789C31.96 6.98291 31.618 9.03186 30.916 9.47443L30.718 9.58917L30.898 9.73669C33.022 11.3922 32.662 13.5559 32.662 13.5723L32.644 13.6707L32.734 13.7362C32.842 13.8182 34.948 15.0967 34.21 17.5063Z" stroke="#716F6F" stroke-width="0.6" mask="url(#path-2-outside-1_885_1476)"/>
    <path d="M14.1883 20.5854H14.1703V20.7354V21.1944V22.7024C14.1703 22.8208 14.1947 22.9266 14.2537 23.0139C14.3134 23.1021 14.3977 23.1555 14.488 23.1878C14.5759 23.2193 14.6747 23.2328 14.7737 23.2393C14.8723 23.2458 14.981 23.2458 15.0911 23.2458H15.0943H17.6863C17.7031 23.2458 17.7203 23.2458 17.7377 23.2459C17.9363 23.2463 18.1764 23.2467 18.3706 23.1983C18.4782 23.1715 18.588 23.1261 18.672 23.044C18.7607 22.9574 18.8083 22.8418 18.8083 22.7024V21.1944V20.7354V19.8175V19.6675H18.6583H14.3383H14.1883V19.8175V20.5854ZM14.8303 20.2953H18.1303V20.4871H14.8303V20.2953ZM14.8303 21.1149H18.1303V22.6677C18.1171 22.6679 18.1009 22.6673 18.0814 22.6656C18.0387 22.662 17.9919 22.6547 17.9378 22.6463C17.9234 22.6441 17.9084 22.6417 17.8928 22.6394C17.8235 22.6289 17.7438 22.618 17.6683 22.618H15.0943C15.0189 22.618 14.9507 22.6312 14.8964 22.644C14.87 22.6503 14.85 22.6555 14.8333 22.6598C14.8323 22.6601 14.8313 22.6603 14.8303 22.6606V21.1149ZM14.7609 22.6747C14.761 22.6747 14.762 22.6746 14.7637 22.6747C14.7617 22.6748 14.7609 22.6748 14.7609 22.6747ZM14.8318 22.7268C14.8322 22.7279 14.8323 22.7285 14.8322 22.7286L14.8318 22.7268Z" fill="#716F6F" stroke="#716F6F" stroke-width="0.3"/>
    <path d="M23.9807 11.9756C23.9747 11.9831 23.9698 11.9895 23.9663 11.9942L23.9566 12.003L23.9446 12.0249L23.9086 12.0904L23.8793 12.1437L23.8954 12.2024L23.9111 12.2595C23.9132 12.2709 23.9158 12.2797 23.9168 12.2831C23.9169 12.2834 23.9169 12.2837 23.917 12.2839C23.9205 12.296 23.9253 12.3095 23.931 12.324C23.9426 12.3531 23.9597 12.3895 23.9837 12.4305C24.0319 12.5128 24.1088 12.6153 24.2263 12.7153C24.4638 12.9175 24.855 13.0994 25.48 13.0994C26.722 13.0994 27.1246 12.3967 27.1595 12.3332L27.1595 12.3332L27.2135 12.2348L27.2641 12.1426L27.1947 12.0636L27.1321 11.9923C27.1289 11.9876 27.1259 11.9837 27.1236 11.9806C27.1164 11.9712 27.1077 11.9612 27.0985 11.9513C27.0796 11.931 27.0536 11.9058 27.0203 11.8775C26.9534 11.8207 26.8549 11.7494 26.7222 11.6795C26.4559 11.5394 26.054 11.4062 25.498 11.4062C24.9325 11.4062 24.5541 11.5439 24.3107 11.6924C24.1895 11.7663 24.1038 11.8418 24.0461 11.9014C24.0173 11.9312 23.9958 11.9567 23.9807 11.9756ZM25.498 12.4716C25.0136 12.4716 24.7759 12.3393 24.665 12.237C24.8033 12.1462 25.0573 12.034 25.498 12.034C25.9377 12.034 26.2306 12.1347 26.4081 12.2312C26.2531 12.3446 25.9738 12.4716 25.498 12.4716Z" fill="#716F6F" stroke="#716F6F" stroke-width="0.3"/>
    <path d="M20.8554 8.13771L20.8725 8.20021C21.2184 9.70704 21.8734 11.2166 22.6786 12.3167C23.6111 13.6153 24.7126 14.3293 25.842 14.3293C26.9323 14.3293 27.9199 13.6555 28.7269 12.6896C29.5356 11.7215 30.1824 10.4381 30.5919 9.163L30.6089 9.11666L30.6222 9.08021L30.6162 9.04185L30.5982 8.92711L30.5963 8.91504L30.5925 8.90343C30.4536 8.48186 30.3688 7.89532 30.3377 7.68006C30.3337 7.6528 30.3306 7.6315 30.3284 7.61724L30.3106 7.48751L30.2928 7.35791H30.162H30C29.9995 7.35791 29.9981 7.35793 29.9957 7.35797C29.8452 7.36074 25.9245 7.43286 22.4913 4.97636L22.476 4.96544L22.4585 4.95861L22.2065 4.86026L22.0469 4.79796L22.0063 4.96444L21.9703 5.11196L21.9685 5.11909L21.9675 5.12635C21.7916 6.35969 21.2271 7.43767 20.9084 7.95361L20.9082 7.9535L20.9045 7.96024L20.8685 8.02581L20.8393 8.07909L20.8554 8.13771ZM25.86 13.7014C24.9162 13.7014 24.0012 13.0213 23.2297 11.9563C22.4737 10.9126 21.8797 9.53099 21.5561 8.17281C21.8647 7.66287 22.3108 6.77896 22.542 5.7403C25.5802 7.73299 28.7736 8.04198 29.728 8.09441C29.7711 8.33917 29.8506 8.71906 29.9674 9.06535C29.5668 10.2336 28.9778 11.3928 28.2684 12.2608C27.5461 13.1445 26.7204 13.7014 25.86 13.7014Z" fill="#716F6F" stroke="#716F6F" stroke-width="0.3"/>
</svg>
