<svg width="301" height="364" viewBox="0 0 301 364" fill="none" xmlns="http://www.w3.org/2000/svg">
    <path d="M160.315 76.2994C160.315 96.4868 172.142 103.263 172.142 122.871C172.142 142.479 163.061 148.473 163.061 148.473C165.737 132.731 164.608 116.584 159.766 101.358C158.943 107.897 161.414 108.985 161.414 126.961C161.742 135.077 161.19 143.204 159.766 151.203C151.719 140.533 147.553 127.478 147.948 114.164C147.144 100.451 151.571 86.9388 160.351 76.308M0.00919333 341.219C9.22653 342.145 18.5269 341.849 27.6655 340.341C43.9211 335.557 54.3304 321.347 63.57 308.155C65.4481 305.47 67.326 302.81 69.0623 300.037C64.571 311.93 66.5021 325.982 59.6987 336.742C49.5909 352.725 21.6773 356.868 6.43151 346.169C4.15025 344.689 1.99873 343.021 0 341.184M96.3029 341.14C91.1842 348.718 84.1262 354.815 75.8507 358.806C67.5752 362.796 58.379 364.539 49.2012 363.855C41.0551 363.322 33.023 361.671 25.3357 358.949C31.4358 359.478 37.5816 358.789 43.4077 356.921C49.3084 355.815 54.7724 353.077 59.1672 349.022C69.7356 338.787 70.0634 323.27 72.9602 309.841C74.9924 296.255 80.4118 283.385 88.7283 272.397C91.2176 269.545 96.0633 263.84 96.0633 263.84C94.6862 275.447 94.8172 287.181 96.4532 298.755C99.3743 310.628 105.452 321.508 114.055 330.265C106.983 331.58 100.664 335.469 96.338 341.166M236.899 355.885C190.913 362.494 132.561 355.446 108.634 309.937C102.178 296.924 99.4919 282.392 100.874 267.956C103.759 279.12 108.85 289.607 115.854 298.808C123.811 309.74 133.832 319.04 145.362 326.192C161.706 336.285 179.602 343.67 198.346 348.056C199.586 348.337 200.826 348.627 202.075 348.881L202.81 349.145C214.957 351.683 227.337 352.963 239.751 352.963C244.898 352.963 254.669 352.322 255.404 352.278C254.04 352.48 242.674 355.051 236.899 355.885ZM252.268 349.092C171.025 349.092 105.17 301.608 105.17 243.038C105.636 229.283 109.223 215.809 115.664 203.615C122.105 191.421 131.235 180.821 142.377 172.602C148.932 167.485 155.39 162.262 161.866 157.075C168.179 152.025 174.404 146.87 180.54 141.61C185.224 137.828 189.663 133.756 193.828 129.419C193.314 124.369 192.426 119.364 191.17 114.445C189.768 113.812 188.323 113.275 186.847 112.838C184.961 111.952 183.235 110.766 181.736 109.328C178.699 105.706 176.478 101.483 175.22 96.942C173.963 92.4011 173.699 87.6467 174.445 82.9964C174.52 79.6998 175.457 76.4788 177.165 73.6487C183.295 64.7575 193.801 72.771 197.238 79.6171C202.049 89.2193 202.952 105.536 194.456 113.584L197.354 125.284L198.027 124.477C206.34 113.489 211.897 100.7 214.238 87.1653C211.349 78.9816 209.504 70.4721 208.746 61.8347C208.278 54.8445 209.255 47.8333 211.617 41.2304C213.98 34.6275 217.678 28.5721 222.485 23.4349C222.485 44.6754 229.36 47.3962 229.36 63.748C229.916 68.6206 229.446 73.5548 227.979 78.2382C226.512 82.9216 224.08 87.2524 220.838 90.9571C223.853 76.564 223.666 61.6927 220.289 47.3788C218.915 52.0131 219.739 75.1582 218.092 90.3865C215.2 102.02 210.387 113.1 203.847 123.178C206.185 122.844 209.924 122.142 215.983 120.764C216.618 119.374 217.157 117.943 217.595 116.481C218.493 114.617 219.69 112.909 221.139 111.425C224.794 108.415 229.055 106.213 233.639 104.967C238.222 103.721 243.022 103.46 247.715 104.202C251.042 104.277 254.293 105.205 257.15 106.896C266.123 112.97 258.035 123.38 251.126 126.785C241.434 131.56 224.975 132.446 216.843 124.029L200.897 127.979L198.851 131.227C198.58 131.642 198.284 132.04 197.964 132.42C193.535 137.792 188.725 142.874 183.88 147.903C172.757 158.171 163.13 169.922 155.275 182.818C147.707 197.331 143.793 213.441 143.865 229.776C143.876 247.367 148.401 264.666 157.014 280.049C165.626 295.431 178.045 308.392 193.102 317.713C220.376 335.145 252.228 344.23 284.682 343.834C289.997 343.834 295.313 343.588 300.469 343.141C284.706 347.052 268.517 349.018 252.268 348.995M170.84 167.994C170.84 167.994 197.229 137.765 234.622 137.765C244.1 138.002 253.328 140.83 261.286 145.937C251.94 146.481 246.989 151.923 236.819 158.462C226.649 165.001 215.381 177.254 193.934 177.254C187.668 177.323 181.497 175.726 176.066 172.628C186.236 171.267 215.097 165.817 228.332 152.748C210.538 161.93 190.928 167.137 170.884 168.003M289.909 62.0629C281.387 72.9553 268.196 96.6536 246.501 96.6536C243.328 96.7206 240.166 96.2608 237.147 95.2931C253.134 89.8502 267.176 79.9138 277.56 66.6971C267.665 74.0523 245.952 94.2045 231.929 94.2045C235.53 79.2049 240.881 64.6717 247.874 50.8984C252.063 41.2807 257.319 32.1548 263.545 23.6893C252.277 36.4863 243.17 46.8434 243.17 58.0078C241.314 53.803 240.378 49.2561 240.424 44.6667C240.424 36.7673 254.439 21.7847 261.587 15.2545C268.736 8.72437 274.238 4.63431 274.238 0C275.611 16.6151 278.083 23.9615 270.385 34.5818C262.686 45.2021 254.438 50.1084 250.009 57.7357C245.58 65.363 236.27 77.0453 236.27 87.6919C242.595 79.5204 257.982 51.1968 290.972 51.1968C294.378 51.1924 297.763 51.7257 301 52.7766C300.344 52.6186 297.306 52.5923 289.873 62.0892" fill="#445740" fill-opacity="0.1"/>
</svg>
