<svg width="50" height="49" viewBox="0 0 50 49" fill="none" xmlns="http://www.w3.org/2000/svg">
    <path d="M3.0896 24.3004L26.5162 47.5396H3.0896V24.3004Z" fill="#B3903D"/>
    <path d="M3.0896 21.549L29.2893 47.5391H26.5162L3.0896 24.2999V21.549Z" fill="#B3903D"/>
    <path d="M3.0896 21.3485L29.4914 47.5391H29.2893L3.0896 21.549V21.3485Z" fill="#B3903D"/>
    <path d="M3.0896 21.1485L29.6935 47.5396H29.4914L3.0896 21.349V21.1485Z" fill="#B3903D"/>
    <path d="M3.0896 20.948L29.8956 47.5391H29.6935L3.0896 21.1485V20.948Z" fill="#B3903D"/>
    <path d="M3.0896 20.7475L30.0978 47.5396H29.8956L3.0896 20.948V20.7475Z" fill="#B3903D"/>
    <path d="M3.0896 20.547L30.2999 47.5396H30.0978L3.0896 20.7495V20.547Z" fill="#B3903D"/>
    <path d="M3.0896 20.346L30.5025 47.5396H30.3004L3.09008 20.547L3.0896 20.346Z" fill="#B3903D"/>
    <path d="M3.0896 20.1455L30.7046 47.5396H30.5025L3.0896 20.346V20.1455Z" fill="#B3903D"/>
    <path d="M3.0896 19.945L30.9067 47.5396H30.7046L3.0896 20.1455V19.945Z" fill="#B3903D"/>
    <path d="M3.0896 19.7445L31.1089 47.5396H30.9067L3.0896 19.945V19.7445Z" fill="#B3903D"/>
    <path d="M3.0896 19.542L31.311 47.5376H31.1089L3.0896 19.7425V19.542Z" fill="#B3903D"/>
    <path d="M3.0896 19.343L31.5146 47.5391H31.3125L3.09108 19.5435L3.0896 19.343Z" fill="#B3903D"/>
    <path d="M3.0896 19.143L31.7132 47.5396H31.5146L3.09108 19.3435L3.0896 19.143Z" fill="#B3913D"/>
    <path d="M3.08965 18.9425L31.9174 47.5381H31.7133L3.08765 19.1415L3.08965 18.9425Z" fill="#B3913E"/>
    <path d="M3.0896 18.742L32.1195 47.5396H31.9173L3.0896 18.9425V18.742Z" fill="#B3913E"/>
    <path d="M3.0896 18.5415L32.3216 47.5396H32.1195L3.0896 18.742V18.5415Z" fill="#B3913E"/>
    <path d="M3.0896 18.3395L32.5237 47.5381H32.3216L3.0896 18.5415V18.3395Z" fill="#B4913E"/>
    <path d="M3.0896 18.14L32.7258 47.5391H32.5237L3.0896 18.3404V18.14Z" fill="#B4913E"/>
    <path d="M3.0896 17.9395L32.928 47.5391H32.7258L3.0896 18.14V17.9395Z" fill="#B4913F"/>
    <path d="M3.0896 17.739L33.1306 47.5396H32.9284L3.09008 17.9399L3.0896 17.739Z" fill="#B4913F"/>
    <path d="M3.0896 17.5385L33.3332 47.5401H33.1311L3.09008 17.7395L3.0896 17.5385Z" fill="#B4923F"/>
    <path d="M3.08963 17.338L33.5348 47.5396H33.3327L3.08911 17.538L3.08963 17.338Z" fill="#B4923F"/>
    <path d="M3.0896 17.1365L33.7369 47.5386H33.5348L3.0896 17.337V17.1365Z" fill="#B49240"/>
    <path d="M3.0896 16.937L33.9391 47.5396H33.7369L3.0896 17.1374V16.937Z" fill="#B59240"/>
    <path d="M3.0896 16.7365L34.1412 47.5396H33.9391L3.0896 16.937V16.7365Z" fill="#B59240"/>
    <path d="M3.0896 16.5359L34.3453 47.5396H34.1432L3.09157 16.7365L3.0896 16.5359Z" fill="#B59341"/>
    <path d="M3.0896 16.3354L34.5439 47.5396H34.3453L3.09157 16.5359L3.0896 16.3354Z" fill="#B59341"/>
    <path d="M3.08965 16.1349L34.7476 47.5396H34.544L3.08813 16.3354L3.08965 16.1349Z" fill="#B59342"/>
    <path d="M3.0896 15.9339L34.9496 47.5391H34.7475L3.0896 16.1344V15.9339Z" fill="#B69342"/>
    <path d="M3.0896 15.7334L35.1518 47.5391H34.9496L3.0896 15.9339V15.7334Z" fill="#B69443"/>
    <path d="M3.0896 15.5329L35.3539 47.5391H35.1518L3.0896 15.7334V15.5329Z" fill="#B69443"/>
    <path d="M3.0896 15.3324L35.556 47.5391H35.3539L3.0896 15.5329V15.3324Z" fill="#B69444"/>
    <path d="M3.0896 15.1319L35.7586 47.5396H35.5565L3.0896 15.3329V15.1319Z" fill="#B79544"/>
    <path d="M3.0896 14.9319L35.9608 47.5401H35.7586L3.0896 15.1324V14.9319Z" fill="#B79545"/>
    <path d="M3.0896 14.7314L36.1639 47.5411H35.9618L3.09057 14.9329L3.0896 14.7314Z" fill="#B79546"/>
    <path d="M3.08967 14.5304L36.3626 47.5371H36.1604L3.08618 14.7275L3.08967 14.5304Z" fill="#B89646"/>
    <path d="M3.0896 14.3299L36.5671 47.5396H36.365L3.09209 14.5329L3.0896 14.3299Z" fill="#B89647"/>
    <path d="M3.0896 14.1294L36.7692 47.5396H36.5671L3.0896 14.3299V14.1294Z" fill="#B89748"/>
    <path d="M3.0896 13.9289L36.9713 47.5396H36.7692L3.0896 14.1294V13.9289Z" fill="#B99748"/>
    <path d="M3.0896 13.7279L37.176 47.5391H36.9738L3.09209 13.9284L3.0896 13.7279Z" fill="#B99849"/>
    <path d="M3.0896 13.5289L37.3756 47.5406H37.176L3.0896 13.7259V13.5289Z" fill="#B9984A"/>
    <path d="M3.08962 13.3269L37.5777 47.5391H37.3746L3.08862 13.5274L3.08962 13.3269Z" fill="#BA994B"/>
    <path d="M3.0896 13.1264L37.7798 47.5391H37.5777L3.0896 13.3269V13.1264Z" fill="#BA994C"/>
    <path d="M3.0896 12.9264L37.982 47.5396H37.7799L3.0896 13.1269V12.9264Z" fill="#BB9A4D"/>
    <path d="M3.0896 12.7259L38.1846 47.5406H37.9824L3.09008 12.9274L3.0896 12.7259Z" fill="#BB9A4E"/>
    <path d="M3.0896 12.5249L38.3867 47.5396H38.1846L3.0896 12.7254V12.5249Z" fill="#BC9B4F"/>
    <path d="M3.0896 12.3264L38.5888 47.5416H38.3867L3.0896 12.5234V12.3264Z" fill="#BC9B50"/>
    <path d="M3.0896 12.1239L38.7909 47.5396H38.5888L3.0896 12.3244V12.1239Z" fill="#BD9C51"/>
    <path d="M3.0896 11.9234L38.9945 47.5411H38.7924L3.09108 12.1254L3.0896 11.9234Z" fill="#BD9D52"/>
    <path d="M3.08967 11.7229L39.1932 47.5376H38.9911L3.08618 11.9199L3.08967 11.7229Z" fill="#BE9D53"/>
    <path d="M3.0896 11.5219L39.3973 47.5391H39.1952L3.09157 11.7244L3.0896 11.5219Z" fill="#BE9E54"/>
    <path d="M3.0896 11.3214L39.5994 47.5391H39.3973L3.0896 11.5219V11.3214Z" fill="#BF9F55"/>
    <path d="M3.0896 11.1208L39.8015 47.5391H39.5994L3.0896 11.3209V11.1208Z" fill="#BF9F56"/>
    <path d="M3.0896 10.9209L40.0037 47.5396H39.8015L3.0896 11.1214V10.9209Z" fill="#C0A058"/>
    <path d="M3.08963 10.7203L40.2053 47.5396H40.0032L3.08911 10.9208L3.08963 10.7203Z" fill="#C0A159"/>
    <path d="M3.08963 10.5198L40.4079 47.5396H40.2053L3.08911 10.7203L3.08963 10.5198Z" fill="#C1A25A"/>
    <path d="M3.0896 10.3188L40.6105 47.5391H40.4084L3.09008 10.5194L3.0896 10.3188Z" fill="#C2A25C"/>
    <path d="M3.0896 10.1183L40.8126 47.5396H40.6105L3.0896 10.3193V10.1183Z" fill="#C2A35D"/>
    <path d="M3.0896 9.91785L41.0148 47.5396H40.8127L3.0896 10.1184V9.91785Z" fill="#C3A45F"/>
    <path d="M3.0896 9.71735L41.2169 47.5396H41.0148L3.0896 9.91785V9.71735Z" fill="#C4A560"/>
    <path d="M3.0896 9.51685L41.419 47.5396H41.2169L3.0896 9.71735V9.51685Z" fill="#C4A662"/>
    <path d="M3.0896 9.31586L41.6211 47.5391H41.419L3.0896 9.51636V9.31586Z" fill="#C5A764"/>
    <path d="M3.0896 9.11533L41.8252 47.5411H41.6231L3.09157 9.3178L3.0896 9.11533Z" fill="#C6A865"/>
    <path d="M3.08967 8.91531L42.0239 47.5381H41.8218L3.08618 9.11237L3.08967 8.91531Z" fill="#C6A967"/>
    <path d="M3.0896 8.71481L42.2275 47.5396H42.0254L3.09108 8.91679L3.0896 8.71481Z" fill="#C7AA69"/>
    <path d="M3.0896 8.51431L42.4296 47.5396H42.2275L3.0896 8.71482V8.51431Z" fill="#C8AB6B"/>
    <path d="M3.0896 8.31381L42.6317 47.5396H42.4296L3.0896 8.51431V8.31381Z" fill="#C8AC6C"/>
    <path d="M3.0896 8.11282L42.8339 47.5391H42.6317L3.0896 8.31333V8.11282Z" fill="#C9AD6E"/>
    <path d="M3.0896 7.91232L43.036 47.5396H42.8339L3.0896 8.11332V7.91232Z" fill="#CAAE70"/>
    <path d="M3.0896 7.71182L43.2386 47.5396H43.036L3.0896 7.91282V7.71182Z" fill="#CBAF72"/>
    <path d="M3.0896 7.51132L43.4407 47.5396H43.2386L3.0896 7.71331V7.51132Z" fill="#CCB074"/>
    <path d="M3.0896 7.31079L43.6428 47.5396H43.4407L3.0896 7.51129V7.31079Z" fill="#CCB176"/>
    <path d="M3.0896 7.11029L43.8449 47.5396H43.6428L3.0896 7.31079V7.11029Z" fill="#CDB379"/>
    <path d="M3.0896 6.90979L44.0471 47.5396H43.8449L3.0896 7.11029V6.90979Z" fill="#CEB47B"/>
    <path d="M3.0896 6.70929L44.2492 47.5376H44.0471L3.0896 6.90979V6.70929Z" fill="#CFB57D"/>
    <path d="M3.0896 6.50879L44.4513 47.5396H44.2492L3.0896 6.70929V6.50879Z" fill="#D0B67F"/>
    <path d="M3.0896 6.30829L44.6559 47.5421H44.4538L3.0896 6.51076V6.30829Z" fill="#D1B882"/>
    <path d="M3.08967 6.00974L44.954 47.5391H44.653L3.08667 6.30532L3.08967 6.00974Z" fill="#D1B882"/>
    <path d="M3.0896 5.71121L45.2553 47.5396H44.9544L3.09008 6.01024L3.0896 5.71121Z" fill="#D1B781"/>
    <path d="M3.08963 5.41266L45.5558 47.5391H45.2549L3.08911 5.71071L3.08963 5.41266Z" fill="#D1B781"/>
    <path d="M3.0896 5.11414L45.8567 47.5391H45.5558L3.0896 5.41267V5.11414Z" fill="#D0B780"/>
    <path d="M3.0896 4.8161L46.1577 47.5396H45.8567L3.0896 5.11464V4.8161Z" fill="#D0B67F"/>
    <path d="M3.0896 4.52002L46.4586 47.5421H46.1577L3.0896 4.81561V4.52002Z" fill="#D0B67F"/>
    <path d="M3.0896 4.21951L46.7606 47.5396H46.4596L3.09057 4.51756L3.0896 4.21951Z" fill="#D0B67E"/>
    <path d="M3.13426 3.96448L47.0168 47.4959V47.5393H46.761L3.09155 4.21917V3.96448H3.13426Z" fill="#CFB57D"/>
    <path d="M3.43423 3.96432L47.0143 47.1972V47.4958L3.13379 3.96432H3.43423Z" fill="#CFB57D"/>
    <path d="M3.73525 3.96432L47.0164 46.8992V47.1977L3.43433 3.96432H3.73525Z" fill="#CFB47C"/>
    <path d="M4.03631 3.96432L47.0165 46.6006V46.8992L3.73535 3.96432H4.03631Z" fill="#CEB47B"/>
    <path d="M4.3366 3.96432L47.0158 46.3021V46.6006L4.03564 3.96432H4.3366Z" fill="#CEB47A"/>
    <path d="M4.63814 3.96432L47.0164 46.0036V46.3021L4.33618 3.96432H4.63814Z" fill="#CEB379"/>
    <path d="M4.93862 3.96432L47.0165 45.7055V46.0041L4.63818 3.96481L4.93862 3.96432Z" fill="#CDB379"/>
    <path d="M5.23943 3.96432L47.0163 45.407V45.7055L4.93848 3.96432H5.23943Z" fill="#CDB278"/>
    <path d="M5.54046 3.96432L47.0164 45.1084V45.407L5.2395 3.96432H5.54046Z" fill="#CDB277"/>
    <path d="M5.84099 3.96432L47.016 44.8099V45.1084L5.54004 3.96432H5.84099Z" fill="#CCB176"/>
    <path d="M6.14178 3.96432L47.0163 44.5118V44.8104L5.84082 3.96432H6.14178Z" fill="#CCB175"/>
    <path d="M6.44178 3.96432L47.0149 44.2128V44.5114L6.1438 3.96432H6.44178Z" fill="#CCB074"/>
    <path d="M6.74376 3.96432L47.0189 43.9172V44.2158L6.4458 3.96728L6.74376 3.96432Z" fill="#CBB074"/>
    <path d="M7.04465 3.96432L47.0164 43.6162V43.9148L6.74121 3.96185L7.04465 3.96432Z" fill="#CBAF73"/>
    <path d="M7.34515 3.96432L47.0164 43.3182V43.6167L7.04468 3.96481L7.34515 3.96432Z" fill="#CAAF72"/>
    <path d="M7.64617 3.96432L47.0165 43.0197V43.3182L7.3457 3.96432H7.64617Z" fill="#CAAE71"/>
    <path d="M7.94695 3.96432L47.0163 42.7211V43.0197L7.646 3.96432H7.94695Z" fill="#CAAE70"/>
    <path d="M8.24993 3.96432L47.0183 42.4226V42.7211L7.94897 3.96432H8.24993Z" fill="#C9AD6F"/>
    <path d="M8.54851 3.96432L47.016 42.124V42.4226L8.24756 3.96432H8.54851Z" fill="#C9AD6E"/>
    <path d="M8.8493 3.96432L47.0163 41.8275V42.126L8.54883 3.96629L8.8493 3.96432Z" fill="#C9AC6D"/>
    <path d="M9.15032 3.96432L47.0164 41.5275V41.826L8.84937 3.96432H9.15032Z" fill="#C8AC6C"/>
    <path d="M9.45134 3.96432L47.016 41.2289V41.5275L9.1499 3.96432H9.45134Z" fill="#C8AB6B"/>
    <path d="M9.75164 3.96432L47.0158 40.9304V41.2289L9.45068 3.96432H9.75164Z" fill="#C8AB6A"/>
    <path d="M10.0526 3.96432L47.0164 40.6323V40.9309L9.7522 3.96481L10.0526 3.96432Z" fill="#C7AA6A"/>
    <path d="M10.3512 3.96432L47.014 40.3338V40.6323L10.0532 3.96432H10.3512Z" fill="#C7AA69"/>
    <path d="M10.6544 3.96432L47.0163 40.0352V40.3338L10.3535 3.96432H10.6544Z" fill="#C6A968"/>
    <path d="M10.9555 3.96432L47.0164 39.7367V40.0352L10.6545 3.96432H10.9555Z" fill="#C6A867"/>
    <path d="M11.256 3.96432L47.0164 39.4382V39.7367L10.9556 3.96432H11.256Z" fill="#C6A866"/>
    <path d="M11.5568 3.96431L47.0149 39.1386V39.4372L11.2549 3.96283L11.5568 3.96431Z" fill="#C5A765"/>
    <path d="M11.8578 3.96432L47.0178 38.8431V39.1416L11.5598 3.96728L11.8578 3.96432Z" fill="#C5A764"/>
    <path d="M12.1594 3.96431L47.017 38.543V38.8416L11.8569 3.96283L12.1594 3.96431Z" fill="#C5A663"/>
    <path d="M12.4591 3.96432L47.0163 38.2445V38.5431L12.1587 3.96432H12.4591Z" fill="#C4A662"/>
    <path d="M12.7602 3.96432L47.0164 37.9465V38.245L12.4597 3.96481L12.7602 3.96432Z" fill="#C4A561"/>
    <path d="M13.0612 3.96432L47.0165 37.6479V37.9465L12.7603 3.96432H13.0612Z" fill="#C3A560"/>
    <path d="M13.362 3.96432L47.0163 37.3494V37.6479L13.061 3.96432H13.362Z" fill="#C3A45F"/>
    <path d="M13.6625 3.96431L47.0164 37.0489V37.3474L13.3621 3.96234L13.6625 3.96431Z" fill="#C2A35E"/>
    <path d="M13.9635 3.96432L47.016 36.7533V37.0518L13.6626 3.96531L13.9635 3.96432Z" fill="#C2A35D"/>
    <path d="M14.2638 3.96432L47.0158 36.4543V36.7533L13.9624 3.96432H14.2638Z" fill="#C2A25C"/>
    <path d="M14.5654 3.96432L47.0164 36.1557V36.4543L14.2644 3.96432H14.5654Z" fill="#C1A25B"/>
    <path d="M14.8664 3.96432L47.0165 35.8572V36.1557L14.5654 3.96432H14.8664Z" fill="#C1A15A"/>
    <path d="M15.1667 3.96432L47.0163 35.5591V35.8577L14.8662 3.96481L15.1667 3.96432Z" fill="#C0A159"/>
    <path d="M15.4677 3.96433L47.0174 35.2601V35.5587L15.1677 3.96384L15.4677 3.96433Z" fill="#C0A058"/>
    <path d="M15.7687 3.96432L47.0164 34.9621V35.2606L15.4678 3.96432H15.7687Z" fill="#BF9F57"/>
    <path d="M16.0685 3.96432L47.0153 34.6635V34.9621L15.7705 3.96432H16.0685Z" fill="#BF9F56"/>
    <path d="M16.37 3.96432L47.0159 34.365V34.6635L16.0691 3.96432H16.37Z" fill="#BF9E55"/>
    <path d="M16.6708 3.96431L47.0138 34.0645V34.363L16.3674 3.96234L16.6708 3.96431Z" fill="#BE9E54"/>
    <path d="M16.9718 3.96432L47.0167 33.7689V34.0674L16.6738 3.96728L16.9718 3.96432Z" fill="#BE9D53"/>
    <path d="M17.2729 3.96433L47.0164 33.4699V33.7684L16.9714 3.96384L17.2729 3.96433Z" fill="#BD9D52"/>
    <path d="M17.5734 3.96432L47.016 33.1713V33.4699L17.2725 3.96432H17.5734Z" fill="#BD9C51"/>
    <path d="M17.8742 3.96432L47.0163 32.8733V33.1718L17.5737 3.96481L17.8742 3.96432Z" fill="#BC9B50"/>
    <path d="M18.1753 3.96432L47.0164 32.5748V32.8733L17.8718 3.96432H18.1753Z" fill="#BC9B4F"/>
    <path d="M18.4762 3.96432L47.0165 32.2762V32.5748L18.1753 3.96432H18.4762Z" fill="#BB9A4E"/>
    <path d="M18.777 3.96432L47.0163 31.9777V32.2762L18.4761 3.96432H18.777Z" fill="#BB9A4D"/>
    <path d="M19.0776 3.96432L47.0164 31.6791V31.9777L18.7771 3.96432H19.0776Z" fill="#BA994C"/>
    <path d="M19.3786 3.96432L47.0164 31.3811V31.6796L19.0781 3.96481L19.3786 3.96432Z" fill="#BA984B"/>
    <path d="M19.6794 3.96432L47.0163 31.0826V31.3811L19.3784 3.96432H19.6794Z" fill="#B9984A"/>
    <path d="M19.9779 3.96432L47.0139 30.784V31.0826L19.6799 3.96432H19.9779Z" fill="#B99749"/>
    <path d="M20.2809 3.96432L47.016 30.4855V30.784L19.98 3.96432H20.2809Z" fill="#B89748"/>
    <path d="M20.5817 3.96432L47.0163 30.1874V30.486L20.2812 3.96432H20.5817Z" fill="#B89647"/>
    <path d="M20.8827 3.96432L47.0164 29.8889V30.1874L20.5818 3.96432H20.8827Z" fill="#B79646"/>
    <path d="M21.1838 3.96432L47.0164 29.5903V29.8889L20.8828 3.96432H21.1838Z" fill="#B79545"/>
    <path d="M21.4841 3.96432L47.0158 29.2918V29.5903L21.1831 3.96432H21.4841Z" fill="#B69444"/>
    <path d="M21.7861 3.96432L47.0139 28.9933V29.2918L21.4822 3.96432H21.7861Z" fill="#B69443"/>
    <path d="M22.0861 3.96433L47.016 28.6947V28.9933L21.7847 3.96384L22.0861 3.96433Z" fill="#B59342"/>
    <path d="M22.3869 3.96432L47.0187 28.3991V28.6977L22.0889 3.96728L22.3869 3.96432Z" fill="#B59341"/>
    <path d="M22.6879 3.96432L47.0164 28.0981V28.3967L22.3845 3.96185L22.6879 3.96432Z" fill="#B49240"/>
    <path d="M22.9884 3.96432L47.0164 27.8001V28.0986L22.688 3.96481L22.9884 3.96432Z" fill="#B4913F"/>
    <path d="M23.2892 3.96432L47.0163 27.5016V27.8001L22.9883 3.96432H23.2892Z" fill="#B3913E"/>
    <path d="M23.5903 3.96432L47.0164 27.203V27.5016L23.2893 3.96432H23.5903Z" fill="#B3903D"/>
    <path d="M47.016 27.2025L23.5894 3.96432H47.0155L47.016 27.2025Z" fill="#B3903D"/>
    <path d="M27.9496 12.666C27.7128 13.2492 27.6452 13.8865 27.7546 14.5058C27.864 15.1252 28.146 15.7017 28.5687 16.1702C27.9408 15.1153 27.7208 13.8699 27.9496 12.666Z" fill="#2D452E"/>
    <path d="M36.3255 16.2792C35.7375 16.0443 35.095 15.9775 34.4707 16.0862C33.8463 16.1949 33.2652 16.4748 32.793 16.8942C33.8563 16.271 35.1118 16.0525 36.3255 16.2792Z" fill="#2D452E"/>
    <path d="M30.4837 43.3375C30.3509 43.3088 30.2211 43.2712 30.0893 43.2385L29.9465 43.2068C30.1243 43.2504 30.303 43.2949 30.4827 43.3356" fill="#2D452E"/>
    <path d="M43.7779 0H5.61724C4.12745 0 2.69865 0.587077 1.64521 1.63209C0.591766 2.6771 0 4.09446 0 5.57233V43.4277C0 44.9056 0.591766 46.3229 1.64521 47.3679C2.69865 48.4129 4.12745 49 5.61724 49H43.7779C45.2677 49 46.6965 48.4129 47.7499 47.3679C48.8033 46.3229 49.3952 44.9056 49.3952 43.4277V5.57233C49.3952 4.09446 48.8033 2.6771 47.7499 1.63209C46.6965 0.587077 45.2677 0 43.7779 0ZM25.8108 12.5788C25.8108 14.8569 27.1438 15.6215 27.1438 17.8342C27.1438 20.0469 26.1203 20.7234 26.1203 20.7234C26.4219 18.9469 26.2946 17.1248 25.749 15.4066C25.6561 16.1445 25.9346 16.2673 25.9346 18.2957C25.9716 19.2116 25.9094 20.1288 25.749 21.0314C24.842 19.8273 24.3725 18.3542 24.417 16.8517C24.3263 15.3042 24.8253 13.7794 25.8148 12.5798M7.74296 42.4739C8.78184 42.5784 9.83006 42.545 10.8601 42.3748C12.6922 41.835 13.8654 40.2315 14.9068 38.7428C15.1185 38.4397 15.3301 38.1396 15.5258 37.8266C15.0196 39.1687 15.2373 40.7544 14.4705 41.9687C13.3313 43.7723 10.1851 44.2398 8.46681 43.0325C8.2097 42.8655 7.9672 42.6773 7.74193 42.4699M18.5961 42.4649C18.0192 43.3202 17.2237 44.0081 16.291 44.4585C15.3582 44.9088 14.3217 45.1055 13.2873 45.0283C12.3692 44.9682 11.4639 44.7818 10.5975 44.4746C11.285 44.5344 11.9777 44.4566 12.6343 44.2458C13.2994 44.121 13.9152 43.812 14.4106 43.3544C15.6017 42.1995 15.6387 40.4484 15.9652 38.933C16.1942 37.3999 16.805 35.9476 17.7424 34.7077C18.0229 34.3858 18.5691 33.742 18.5691 33.742C18.4139 35.0518 18.4286 36.376 18.613 37.682C18.9423 39.0218 19.6273 40.2496 20.5969 41.2378C19.7999 41.3862 19.0876 41.825 18.6 42.4679M34.4424 44.1289C29.2595 44.8747 22.6827 44.0794 19.9859 38.9439C19.2583 37.4754 18.9555 35.8355 19.1113 34.2065C19.4364 35.4663 20.0103 36.6497 20.7996 37.688C21.6964 38.9216 22.8259 39.9711 24.1254 40.7782C25.9676 41.9171 27.9847 42.7504 30.0972 43.2454C30.237 43.2771 30.3768 43.3098 30.5175 43.3385L30.6004 43.3683C31.9694 43.6547 33.3648 43.7991 34.7639 43.7991C35.344 43.7991 36.4453 43.7268 36.5282 43.7218C36.3744 43.7446 35.0934 44.0348 34.4424 44.1289ZM36.1747 43.3623C27.0179 43.3623 19.5955 38.0039 19.5955 31.3946C19.648 29.8424 20.0523 28.3219 20.7782 26.9459C21.5042 25.5698 22.5333 24.3737 23.789 23.4461C24.5278 22.8687 25.2557 22.2794 25.9856 21.694C26.6972 21.1242 27.3987 20.5424 28.0903 19.9488C28.6183 19.5221 29.1185 19.0626 29.588 18.5731C29.5301 18.0033 29.43 17.4385 29.2884 16.8834C29.1304 16.8119 28.9676 16.7514 28.8012 16.7021C28.5886 16.6021 28.3941 16.4683 28.2251 16.3059C27.8828 15.8972 27.6325 15.4207 27.4908 14.9083C27.3491 14.3959 27.3193 13.8593 27.4034 13.3346C27.4118 12.9626 27.5174 12.5991 27.7099 12.2797C28.4008 11.2764 29.585 12.1807 29.9724 12.9532C30.5145 14.0368 30.6163 15.8781 29.6588 16.7863L29.9854 18.1066L30.0612 18.0155C30.9982 16.7755 31.6245 15.3324 31.8884 13.805C31.5627 12.8815 31.3548 11.9213 31.2694 10.9466C31.2166 10.1577 31.3267 9.36656 31.593 8.62145C31.8593 7.87635 32.2761 7.19301 32.8179 6.6133C32.8179 9.01021 33.5927 9.31724 33.5927 11.1625C33.6554 11.7123 33.6024 12.2691 33.4371 12.7976C33.2717 13.3261 32.9977 13.8148 32.6322 14.2329C32.9721 12.6087 32.951 10.9305 32.5703 9.31527C32.4156 9.83823 32.5084 12.4501 32.3227 14.1685C31.9968 15.4813 31.4543 16.7316 30.7172 17.8689C30.9808 17.8312 31.4021 17.752 32.0851 17.5965C32.1566 17.4397 32.2174 17.2782 32.2668 17.1132C32.3679 16.9028 32.5028 16.7101 32.6662 16.5426C33.0781 16.2029 33.5584 15.9544 34.075 15.8138C34.5916 15.6732 35.1325 15.6438 35.6615 15.7275C36.0365 15.736 36.4029 15.8407 36.7249 16.0316C37.7363 16.717 36.8247 17.8917 36.0459 18.2759C34.9536 18.8148 33.0985 18.9148 32.1819 17.965L30.3848 18.4107L30.1541 18.7771C30.1236 18.824 30.0902 18.869 30.0542 18.9118C29.555 19.518 29.0129 20.0915 28.4667 20.659C27.2131 21.8177 26.128 23.1438 25.2427 24.599C24.3898 26.2367 23.9486 28.0547 23.9567 29.898C23.958 31.8831 24.468 33.8352 25.4387 35.5711C26.4094 37.3069 27.8091 38.7695 29.5061 39.8214C32.5802 41.7885 36.1702 42.8137 39.828 42.769C40.4271 42.769 41.0262 42.7413 41.6073 42.6908C39.8308 43.1321 38.0061 43.354 36.1747 43.3514M26.997 22.9262C26.997 22.9262 29.9713 19.515 34.1858 19.515C35.2541 19.5417 36.2942 19.8609 37.1911 20.4371C36.1378 20.4985 35.5797 21.1126 34.4335 21.8505C33.2872 22.5884 32.0172 23.9711 29.6 23.9711C28.8937 23.9789 28.1982 23.7987 27.5861 23.4491C28.7323 23.2956 31.9853 22.6805 33.4769 21.2057C31.4713 22.2419 29.2612 22.8295 27.002 22.9272M40.4171 10.9723C39.4566 12.2015 37.9699 14.8757 35.5247 14.8757C35.1671 14.8833 34.8107 14.8314 34.4704 14.7222C36.2723 14.108 37.855 12.9867 39.0253 11.4953C37.91 12.3253 35.4629 14.5994 33.8823 14.5994C34.2882 12.9067 34.8913 11.2667 35.6795 9.71244C36.1516 8.62713 36.744 7.59731 37.4457 6.64201C36.1757 8.0861 35.1493 9.25485 35.1493 10.5147C34.9401 10.0402 34.8346 9.52712 34.8398 9.00923C34.8398 8.11781 36.4193 6.42709 37.2251 5.69018C38.0308 4.95328 38.6509 4.49174 38.6509 3.96877C38.8057 5.84371 39.0842 6.67273 38.2166 7.87119C37.3489 9.06964 36.4193 9.62329 35.9201 10.484C35.4209 11.3447 34.3715 12.663 34.3715 13.8644C35.0844 12.9423 36.8187 9.74612 40.5369 9.74612C40.9208 9.74562 41.3024 9.8058 41.6672 9.92439C41.5933 9.90656 41.2508 9.9036 40.4131 10.9753" fill="#445740"/>
</svg>
