<svg width="50" height="49" viewBox="0 0 50 49" fill="none" xmlns="http://www.w3.org/2000/svg">
<path d="M43.7779 0H5.61724C4.12745 0 2.69865 0.587077 1.64521 1.63209C0.591766 2.6771 0 4.09446 0 5.57233V43.4277C0 44.9056 0.591766 46.3229 1.64521 47.3679C2.69865 48.4129 4.12745 49 5.61724 49H43.7779C45.2677 49 46.6965 48.4129 47.7499 47.3679C48.8033 46.3229 49.3952 44.9056 49.3952 43.4277V5.57233C49.3952 4.09446 48.8033 2.6771 47.7499 1.63209C46.6965 0.587077 45.2677 0 43.7779 0ZM25.8108 12.5788C25.8108 14.8569 27.1438 15.6215 27.1438 17.8342C27.1438 20.0469 26.1203 20.7234 26.1203 20.7234C26.4219 18.9469 26.2946 17.1248 25.749 15.4066C25.6561 16.1445 25.9346 16.2673 25.9346 18.2957C25.9716 19.2116 25.9094 20.1288 25.749 21.0314C24.842 19.8273 24.3725 18.3542 24.417 16.8517C24.3263 15.3042 24.8253 13.7794 25.8148 12.5798M7.74296 42.4739C8.78184 42.5784 9.83006 42.545 10.8601 42.3748C12.6922 41.835 13.8654 40.2315 14.9068 38.7428C15.1185 38.4397 15.3301 38.1396 15.5258 37.8266C15.0196 39.1687 15.2373 40.7544 14.4705 41.9687C13.3313 43.7723 10.1851 44.2398 8.46681 43.0325C8.2097 42.8655 7.9672 42.6773 7.74193 42.4699M18.5961 42.4649C18.0192 43.3202 17.2237 44.0081 16.291 44.4585C15.3582 44.9088 14.3217 45.1055 13.2873 45.0283C12.3692 44.9682 11.4639 44.7818 10.5975 44.4746C11.285 44.5344 11.9777 44.4566 12.6343 44.2458C13.2994 44.121 13.9152 43.812 14.4106 43.3544C15.6017 42.1995 15.6387 40.4484 15.9652 38.933C16.1942 37.3999 16.805 35.9476 17.7424 34.7077C18.0229 34.3858 18.5691 33.742 18.5691 33.742C18.4139 35.0518 18.4286 36.376 18.613 37.682C18.9423 39.0218 19.6273 40.2496 20.5969 41.2378C19.7999 41.3862 19.0876 41.825 18.6 42.4679M34.4424 44.1289C29.2595 44.8747 22.6827 44.0794 19.9859 38.9439C19.2583 37.4754 18.9555 35.8355 19.1113 34.2065C19.4364 35.4663 20.0103 36.6497 20.7996 37.688C21.6964 38.9216 22.8259 39.9711 24.1254 40.7782C25.9676 41.9171 27.9847 42.7504 30.0972 43.2454C30.237 43.2771 30.3768 43.3098 30.5175 43.3385L30.6004 43.3683C31.9694 43.6548 33.3648 43.7991 34.7639 43.7991C35.344 43.7991 36.4453 43.7268 36.5282 43.7218C36.3744 43.7446 35.0934 44.0348 34.4424 44.1289ZM36.1747 43.3623C27.0179 43.3623 19.5955 38.0039 19.5955 31.3946C19.648 29.8424 20.0523 28.3219 20.7782 26.9459C21.5042 25.5698 22.5333 24.3737 23.789 23.4461C24.5278 22.8687 25.2557 22.2794 25.9856 21.694C26.6972 21.1242 27.3987 20.5424 28.0903 19.9488C28.6183 19.5221 29.1185 19.0626 29.588 18.5731C29.5301 18.0033 29.43 17.4385 29.2884 16.8834C29.1304 16.8119 28.9676 16.7514 28.8012 16.7021C28.5886 16.6021 28.3941 16.4683 28.2251 16.3059C27.8828 15.8972 27.6325 15.4207 27.4908 14.9083C27.3491 14.3959 27.3193 13.8593 27.4034 13.3346C27.4118 12.9626 27.5174 12.5991 27.7099 12.2797C28.4008 11.2764 29.585 12.1807 29.9724 12.9532C30.5145 14.0368 30.6163 15.8781 29.6588 16.7863L29.9854 18.1066L30.0612 18.0155C30.9982 16.7755 31.6245 15.3324 31.8884 13.805C31.5627 12.8815 31.3548 11.9213 31.2694 10.9466C31.2166 10.1577 31.3267 9.36656 31.593 8.62145C31.8593 7.87635 32.2761 7.19301 32.8179 6.6133C32.8179 9.01021 33.5927 9.31724 33.5927 11.1625C33.6554 11.7123 33.6024 12.2691 33.4371 12.7976C33.2717 13.3261 32.9977 13.8148 32.6322 14.2329C32.9721 12.6087 32.951 10.9305 32.5703 9.31527C32.4156 9.83823 32.5084 12.4501 32.3227 14.1685C31.9968 15.4813 31.4543 16.7316 30.7172 17.8689C30.9808 17.8312 31.4021 17.752 32.0851 17.5965C32.1566 17.4397 32.2174 17.2782 32.2668 17.1132C32.3679 16.9028 32.5028 16.7101 32.6662 16.5426C33.0781 16.2029 33.5584 15.9544 34.075 15.8138C34.5916 15.6732 35.1325 15.6438 35.6615 15.7275C36.0365 15.736 36.4029 15.8407 36.7249 16.0316C37.7363 16.717 36.8247 17.8917 36.0459 18.2759C34.9536 18.8148 33.0985 18.9148 32.1819 17.965L30.3848 18.4107L30.1541 18.7771C30.1236 18.824 30.0902 18.869 30.0542 18.9118C29.555 19.518 29.0129 20.0915 28.4667 20.659C27.2131 21.8177 26.128 23.1438 25.2427 24.599C24.3898 26.2367 23.9486 28.0547 23.9567 29.898C23.958 31.8831 24.468 33.8352 25.4387 35.5711C26.4094 37.3069 27.8091 38.7695 29.5061 39.8214C32.5802 41.7885 36.1702 42.8137 39.828 42.769C40.4271 42.769 41.0262 42.7413 41.6073 42.6908C39.8308 43.1321 38.0061 43.354 36.1747 43.3514M26.997 22.9262C26.997 22.9262 29.9713 19.515 34.1858 19.515C35.2541 19.5417 36.2942 19.8609 37.1911 20.4371C36.1378 20.4985 35.5797 21.1126 34.4335 21.8505C33.2872 22.5884 32.0172 23.9711 29.6 23.9711C28.8937 23.9789 28.1982 23.7987 27.5861 23.4491C28.7323 23.2956 31.9853 22.6805 33.4769 21.2057C31.4713 22.2419 29.2612 22.8295 27.002 22.9272M40.4171 10.9723C39.4566 12.2015 37.9699 14.8757 35.5247 14.8757C35.1671 14.8833 34.8107 14.8314 34.4704 14.7222C36.2723 14.108 37.855 12.9867 39.0253 11.4953C37.91 12.3253 35.4629 14.5994 33.8823 14.5994C34.2882 12.9067 34.8913 11.2667 35.6795 9.71244C36.1516 8.62713 36.744 7.59731 37.4457 6.64201C36.1757 8.0861 35.1493 9.25485 35.1493 10.5147C34.9401 10.0402 34.8346 9.52712 34.8398 9.00923C34.8398 8.11781 36.4193 6.42709 37.2251 5.69018C38.0308 4.95328 38.6509 4.49174 38.6509 3.96877C38.8057 5.84371 39.0842 6.67273 38.2166 7.87119C37.3489 9.06964 36.4193 9.62329 35.9201 10.484C35.4209 11.3447 34.3715 12.663 34.3715 13.8644C35.0844 12.9423 36.8187 9.74612 40.5369 9.74612C40.9208 9.74562 41.3024 9.8058 41.6672 9.92439C41.5933 9.90656 41.2508 9.9036 40.4131 10.9753" fill="#445740"/>
</svg>
