<svg width="95" height="115" viewBox="0 0 95 115" fill="none" xmlns="http://www.w3.org/2000/svg">
    <path d="M44.4022 24.1056C44.4022 30.4835 40.6696 32.6242 40.6696 38.8191C40.6696 45.0139 43.5355 46.9078 43.5355 46.9078C42.691 41.9342 43.0473 36.8329 44.5754 32.0224C44.8354 34.0883 44.0554 34.4321 44.0554 40.1112C43.9519 42.6753 44.1262 45.2431 44.5754 47.7702C47.1153 44.3992 48.43 40.2747 48.3053 36.0682C48.5591 31.7358 47.162 27.4669 44.3909 24.1083M94.9971 107.803C92.088 108.095 89.1527 108.002 86.2684 107.525C81.1378 106.014 77.8525 101.525 74.9364 97.3568C74.3436 96.5082 73.7509 95.668 73.2029 94.7918C74.6204 98.5492 74.011 102.989 76.1582 106.388C79.3484 111.438 88.1583 112.747 92.9701 109.367C93.6901 108.899 94.3692 108.372 95 107.792M64.6054 107.778C66.2209 110.172 68.4485 112.098 71.0604 113.359C73.6723 114.62 76.5747 115.17 79.4714 114.954C82.0424 114.786 84.5775 114.264 87.0037 113.404C85.0784 113.571 83.1387 113.354 81.2999 112.763C79.4375 112.414 77.713 111.549 76.326 110.268C72.9904 107.034 72.887 102.132 71.9727 97.8892C71.3313 93.597 69.6209 89.5311 66.996 86.0596C66.2104 85.1584 64.681 83.3559 64.681 83.3559C65.1157 87.023 65.0743 90.7303 64.558 94.3869C63.636 98.1379 61.7177 101.575 59.0025 104.342C61.2345 104.758 63.2291 105.986 64.5943 107.786M20.2314 112.436C34.745 114.524 53.1618 112.298 60.7136 97.9197C62.7511 93.8084 63.5989 89.2172 63.1627 84.6565C62.2522 88.1837 60.6453 91.4966 58.4349 94.4035C55.9236 97.8574 52.7608 100.796 49.1217 103.055C43.9631 106.244 38.3148 108.577 32.3992 109.963C32.0078 110.051 31.6163 110.143 31.2221 110.223L30.9902 110.307C27.1565 111.109 23.249 111.513 19.331 111.513C17.7066 111.513 14.6228 111.31 14.3907 111.297C14.8213 111.36 18.4084 112.173 20.2314 112.436ZM15.3805 110.29C41.0219 110.29 61.8068 95.2881 61.8068 76.784C61.6597 72.4383 60.5277 68.1813 58.4948 64.3289C56.4619 60.4765 53.5802 57.1275 50.0638 54.5307C47.9949 52.9141 45.9566 51.2642 43.9128 49.6254C41.9202 48.03 39.9557 46.4013 38.019 44.7393C36.5405 43.5445 35.1397 42.2581 33.8252 40.8877C33.9872 39.2925 34.2675 37.7113 34.6639 36.1569C35.1064 35.9569 35.5624 35.7874 36.0284 35.6495C36.6235 35.3695 37.1684 34.9948 37.6416 34.5403C38.6 33.396 39.3011 32.0619 39.6979 30.6273C40.0947 29.1927 40.1781 27.6906 39.9426 26.2214C39.9191 25.1799 39.6233 24.1623 39.0842 23.2681C37.1495 20.4591 33.8335 22.9908 32.7487 25.1538C31.2305 28.1874 30.9454 33.3424 33.6267 35.8852L32.7123 39.5816L32.4999 39.3265C29.8761 35.8551 28.1223 31.8146 27.3833 27.5385C28.2952 24.953 28.8776 22.2645 29.1168 19.5357C29.2645 17.3273 28.9561 15.1122 28.2104 13.0261C27.4648 10.94 26.2976 9.02689 24.7804 7.40387C24.7804 14.1145 22.6107 14.9741 22.6107 20.1402C22.4352 21.6796 22.5836 23.2385 23.0466 24.7181C23.5096 26.1977 24.2769 27.566 25.3003 28.7364C24.3486 24.1892 24.4078 19.4908 25.4737 14.9686C25.9071 16.4327 25.647 23.7451 26.1671 28.5562C27.0797 32.2317 28.5989 35.7321 30.663 38.916C29.9249 38.8107 28.745 38.5888 26.8326 38.1535C26.6321 37.7144 26.4621 37.2624 26.3237 36.8003C26.0406 36.2114 25.6628 35.6719 25.2053 35.203C24.0519 34.2519 22.7068 33.5562 21.2602 33.1626C19.8136 32.769 18.2989 32.6866 16.8175 32.9209C15.7675 32.9446 14.7415 33.2379 13.8399 33.7722C11.0076 35.6911 13.5602 38.9798 15.7411 40.0558C18.7998 41.5643 23.9946 41.8444 26.5613 39.1851L31.5939 40.4329L32.2398 41.4589C32.3252 41.5902 32.4186 41.7161 32.5195 41.836C33.9175 43.5331 35.4356 45.1387 36.9649 46.7276C40.4754 49.9716 43.5139 53.6842 45.993 57.7585C48.3814 62.3435 49.6169 67.4333 49.5942 72.594C49.5906 78.1516 48.1625 83.617 45.4442 88.4769C42.7259 93.3368 38.8065 97.4315 34.0543 100.377C25.4462 105.884 15.3932 108.754 5.15021 108.629C3.47265 108.629 1.79497 108.551 0.16774 108.41C5.14246 109.645 10.2522 110.267 15.3805 110.26M41.0805 53.075C41.0805 53.075 32.7516 43.5248 20.95 43.5248C17.9584 43.5996 15.0459 44.493 12.5342 46.1064C15.4839 46.2784 17.0467 47.9976 20.2565 50.0635C23.4662 52.1294 27.0226 56.0004 33.7915 56.0004C35.7693 56.0224 37.7169 55.5177 39.431 54.539C36.2213 54.1092 27.1121 52.3872 22.935 48.2583C28.5512 51.1593 34.7402 52.8044 41.0665 53.0777M3.50053 19.6078C6.19021 23.0491 10.3534 30.5361 17.2006 30.5361C18.2021 30.5573 19.2 30.4121 20.153 30.1063C15.1073 28.3867 10.6753 25.2475 7.39801 21.0719C10.5211 23.3956 17.3739 29.7624 21.7998 29.7624C20.6633 25.0235 18.9744 20.432 16.7672 16.0805C15.4452 13.042 13.7864 10.1588 11.8212 7.48426C15.3777 11.5273 18.2518 14.7994 18.2518 18.3267C18.8378 16.9982 19.1332 15.5617 19.1186 14.1117C19.1186 11.6161 14.6955 6.88253 12.4392 4.81943C10.1828 2.75632 8.44647 1.46414 8.44647 0C8.01311 5.24926 7.23303 7.57026 9.6627 10.9256C12.0924 14.2809 14.6955 15.8309 16.0935 18.2407C17.4914 20.6504 20.4298 24.3412 20.4298 27.7049C18.4336 25.1232 13.5771 16.1748 3.16503 16.1748C2.09 16.1734 1.02157 16.3419 0 16.6739C0.206894 16.624 1.16601 16.6157 3.5118 19.6161" fill="#CFB57D" fill-opacity="0.1"/>
</svg>
