<svg width="246" height="49" viewBox="0 0 246 49" fill="none" xmlns="http://www.w3.org/2000/svg">
    <path d="M3.93084 21.7505H2.64185V23.0292H3.93084V21.7505Z" fill="#51504E"/>
    <path d="M5.86394 21.7505H4.56396V23.0292H5.86394V21.7505Z" fill="#51504E"/>
    <path d="M11.4083 15.3362C11.1896 14.9834 11.0867 14.5719 11.1137 14.1586C11.0921 13.8012 11.1982 13.4477 11.4133 13.1602C11.5238 13.0369 11.6614 12.9405 11.8155 12.8783C11.9696 12.8162 12.136 12.79 12.3019 12.8017C12.4318 12.7971 12.5614 12.8188 12.6827 12.8652C12.804 12.9117 12.9146 12.9821 13.0078 13.0721C13.2068 13.275 13.3391 13.5329 13.3872 13.8119H14.812C14.7578 13.1903 14.4969 12.6043 14.0701 12.146C13.83 11.9357 13.5498 11.7752 13.2461 11.6742C12.9423 11.5731 12.6213 11.5335 12.3019 11.5576C11.8608 11.5466 11.4213 11.6137 11.0039 11.7557C10.6795 11.8694 10.387 12.0578 10.1502 12.3054C9.93032 12.5427 9.7678 12.8266 9.67496 13.1354C9.57561 13.4682 9.52615 13.8136 9.52818 14.1606C9.52447 14.4715 9.58816 14.7795 9.7149 15.0639C9.81348 15.2976 9.95347 15.512 10.1282 15.6968V15.7414H6.81041C6.69659 15.7414 6.5578 15.7344 6.39306 15.7196C6.22831 15.7047 6.05658 15.6829 5.88285 15.6512C5.71705 15.6234 5.55304 15.586 5.39162 15.5393C5.26349 15.5057 5.13982 15.4572 5.02319 15.3947V16.6734C5.22953 16.8096 5.45681 16.9116 5.69614 16.9754C5.88561 17.0295 6.08118 17.0598 6.27825 17.0656C6.35376 17.0651 6.42749 17.0884 6.48892 17.132C6.55159 17.1772 6.60626 17.2324 6.65067 17.2954C6.69406 17.3559 6.72773 17.4227 6.7505 17.4935C6.77092 17.5471 6.78238 17.6036 6.78445 17.6609C6.78792 17.8525 6.72364 18.0393 6.60274 18.1888C6.46771 18.3489 6.29673 18.4755 6.10352 18.5582C5.85667 18.6644 5.59685 18.738 5.33072 18.7771C5.00038 18.8276 4.66649 18.8518 4.33227 18.8494C3.90228 18.8564 3.47325 18.8071 3.05625 18.7028C2.71457 18.6189 2.40077 18.4482 2.14567 18.2076C1.88663 17.9493 1.69594 17.6315 1.59053 17.2825C1.45423 16.8162 1.38697 16.3328 1.39084 15.8473H0C0.000822208 16.4483 0.0749208 17.0469 0.220665 17.6301C0.344229 18.1331 0.583435 18.601 0.919575 18.997C1.27799 19.3949 1.73105 19.6976 2.23752 19.8775C2.90246 20.1047 3.60333 20.2107 4.30631 20.1905C4.84498 20.1981 5.38227 20.1342 5.90383 20.0003C6.32277 19.894 6.72257 19.724 7.08898 19.4962C7.38318 19.3153 7.63698 19.0767 7.83482 18.7949C7.99884 18.5674 8.08968 18.2961 8.09541 18.0164C8.09108 17.8469 8.05732 17.6794 7.99558 17.5212C7.93966 17.3579 7.85139 17.2074 7.73597 17.0785H14.8619V15.7542H12.3867C12.2019 15.7725 12.0154 15.7452 11.8436 15.6749C11.6719 15.6046 11.5203 15.4934 11.4023 15.3511" fill="#51504E"/>
    <path d="M31.55 9.04587H30.249V10.3246H31.55V9.04587Z" fill="#51504E"/>
    <path d="M29.6169 9.04587H28.3279V10.3246H29.6169V9.04587Z" fill="#51504E"/>
    <path d="M39.974 16.2842C39.944 16.123 39.9137 15.9173 39.8831 15.6671C39.8525 15.4168 39.8149 15.0867 39.7703 14.6766C39.7301 14.2476 39.6212 13.8277 39.4478 13.4326C39.2858 13.0556 39.0472 12.7157 38.7469 12.4342C38.4466 12.1527 38.0911 11.9356 37.7025 11.7964C37.2388 11.6306 36.7485 11.5503 36.2557 11.5596C35.8425 11.5592 35.432 11.6261 35.0406 11.7577C34.6672 11.8809 34.316 12.0625 34.0003 12.2956C33.7012 12.5171 33.4497 12.7955 33.2604 13.1147C33.073 13.4307 32.9644 13.7866 32.9439 14.1527H34.3916C34.4275 13.9743 34.501 13.8056 34.6073 13.6574C34.7223 13.4901 34.8659 13.3439 35.0316 13.2256C35.2066 13.0989 35.3985 12.9969 35.6017 12.9225C35.8115 12.8447 36.0338 12.8051 36.2577 12.8056C36.7257 12.7946 37.1796 12.9652 37.5228 13.2811C37.8835 13.6251 38.1116 14.0834 38.1678 14.5766C38.1817 14.7113 38.2027 14.847 38.2297 14.9867L38.3026 15.361C38.3335 15.4957 38.3595 15.6235 38.3824 15.7424H31.7927C31.6752 15.7422 31.5586 15.7218 31.4482 15.682C31.3306 15.6402 31.224 15.5725 31.1367 15.4838C31.0411 15.3857 30.9664 15.2695 30.917 15.1421C30.8569 14.984 30.8281 14.8159 30.8322 14.6469V12.2876H29.2267V14.8628C29.2319 15.0091 29.205 15.1548 29.1478 15.2897C29.1008 15.3923 29.0328 15.4841 28.9481 15.5591C28.874 15.6231 28.7873 15.671 28.6935 15.6998C28.6124 15.7236 28.5284 15.7363 28.4439 15.7374H26.7036C26.5765 15.7375 26.4496 15.7245 26.3252 15.6988C26.2074 15.6752 26.0946 15.6316 25.9917 15.57C25.8941 15.5104 25.8112 15.4298 25.7491 15.3343C25.6805 15.2269 25.6458 15.1018 25.6492 14.9747V14.6647C25.658 14.2473 25.5788 13.8327 25.4166 13.4475C25.2742 13.116 25.0582 12.8208 24.7846 12.5838C24.5082 12.3509 24.1873 12.1757 23.841 12.0687C23.0748 11.8364 22.256 11.8364 21.4897 12.0687C21.1431 12.1756 20.8219 12.3508 20.5452 12.5838C20.2714 12.8206 20.0553 13.1159 19.9132 13.4475C19.7507 13.8326 19.6715 14.2473 19.6805 14.6647V14.9777C19.6842 15.1048 19.6494 15.23 19.5807 15.3372C19.5179 15.4326 19.4347 15.5131 19.3371 15.573C19.2327 15.6353 19.1181 15.6789 18.9986 15.7017C18.8754 15.727 18.7499 15.7399 18.6242 15.7404H17.5938V9.04686H16.0002V17.0646H18.716C19.0136 17.0656 19.306 16.9883 19.5637 16.8408C19.8048 16.712 20.0073 16.5224 20.1508 16.2911C20.4096 16.6684 20.7755 16.9611 21.2021 17.132C22.1485 17.4913 23.1952 17.4913 24.1416 17.132C24.5681 16.9614 24.9338 16.6686 25.1919 16.2911C25.3358 16.5228 25.539 16.7125 25.781 16.8408C26.0382 16.9887 26.3304 17.066 26.6277 17.0646H28.4399C28.58 17.0635 28.7198 17.0523 28.8582 17.031C29.0261 17.0065 29.191 16.9654 29.3505 16.9081C29.5267 16.8449 29.6968 16.766 29.8587 16.6724C30.0318 16.572 30.1865 16.443 30.316 16.2911C30.3988 16.3956 30.4921 16.4915 30.5945 16.5773C30.7044 16.6711 30.8235 16.7538 30.95 16.8239C31.0796 16.8954 31.216 16.9538 31.3574 16.9983C31.4961 17.0423 31.641 17.0647 31.7867 17.0646H40.1437C40.1068 16.9299 40.0758 16.8071 40.0528 16.6942C40.0299 16.5813 40.0029 16.4456 39.974 16.2861M23.899 15.2432C23.8466 15.4164 23.7619 15.5783 23.6493 15.7206C23.5394 15.8555 23.4006 15.9644 23.243 16.0395C23.0627 16.117 22.8683 16.1569 22.6719 16.1569C22.4754 16.1569 22.281 16.117 22.1008 16.0395C21.9428 15.9645 21.8037 15.8555 21.6934 15.7206C21.5812 15.5783 21.4968 15.4163 21.4448 15.2432C21.332 14.8586 21.332 14.4501 21.4448 14.0655C21.4975 13.8914 21.5817 13.7283 21.6934 13.5841C21.8024 13.4465 21.9418 13.3354 22.1008 13.2593C22.281 13.1818 22.4754 13.1418 22.6719 13.1418C22.8683 13.1418 23.0627 13.1818 23.243 13.2593C23.4016 13.3354 23.5406 13.4465 23.6493 13.5841C23.7613 13.7282 23.8459 13.8913 23.899 14.0655C24.0104 14.4503 24.0104 14.8584 23.899 15.2432Z" fill="#51504E"/>
    <path d="M36.8538 18.1284H35.2483V19.4407H36.8538V18.1284Z" fill="#51504E"/>
    <path d="M45.8576 15.7384H43.7329V11.109H42.1264V15.7394H40.8833V17.0636H47.4621V9.04091H45.8566L45.8576 15.7384Z" fill="#51504E"/>
    <path d="M50.4265 9.04587H48.821V17.0636H50.4265V9.04587Z" fill="#51504E"/>
    <path d="M59.2249 11.4012H57.6194V12.7125H59.2249V11.4012Z" fill="#51504E"/>
    <path d="M61.1 14.9659C61.11 15.4958 61.0551 16.0249 60.9363 16.5417C60.8483 16.9277 60.6747 17.2894 60.4281 17.6005C60.2003 17.8749 59.9013 18.0824 59.5634 18.2007C59.1663 18.3315 58.7496 18.3941 58.3313 18.3859C57.9058 18.394 57.482 18.3314 57.0773 18.2007C56.7346 18.0852 56.431 17.8774 56.2006 17.6005C55.9543 17.2892 55.7808 16.9276 55.6924 16.5417C55.5736 16.0249 55.5187 15.4958 55.5287 14.9659V13.9229H54.0021V14.9659C53.9992 15.5891 54.0601 16.211 54.1838 16.822C54.2898 17.3688 54.5158 17.8858 54.8457 18.3364C55.1913 18.7855 55.6491 19.1375 56.1737 19.3575C57.5802 19.8583 59.1184 19.8583 60.5249 19.3575C61.0558 19.1344 61.5167 18.7742 61.8598 18.3146C62.1949 17.8452 62.4244 17.3098 62.5328 16.7447C62.6612 16.1042 62.7238 15.4525 62.7195 14.7995V13.6882H61.102L61.1 14.9659Z" fill="#51504E"/>
    <path d="M79.3018 9.35886H77.6963V10.6712H79.3018V9.35886Z" fill="#51504E"/>
    <path d="M92.581 15.7394H90.5432C90.4257 15.7388 90.3091 15.7181 90.1987 15.678C90.0812 15.6366 89.9749 15.5688 89.8882 15.4799C89.7925 15.3816 89.7175 15.2655 89.6675 15.1382C89.6079 14.9799 89.5791 14.8119 89.5827 14.643V9.04687H87.9772V14.8629C87.9823 15.0092 87.9551 15.155 87.8973 15.2897C87.8508 15.3926 87.7827 15.4845 87.6976 15.5591C87.6238 15.6232 87.537 15.6708 87.443 15.6988C87.3623 15.723 87.2787 15.736 87.1944 15.7374H86.2379C86.0966 15.7365 85.9559 15.7176 85.8195 15.681C85.6805 15.6457 85.5486 15.5874 85.4291 15.5086C85.311 15.4278 85.2142 15.3202 85.1466 15.1946C85.0708 15.0435 85.0341 14.876 85.0398 14.7073V14.3112C85.0512 13.9136 84.9659 13.5192 84.7911 13.1612C84.6332 12.8515 84.4024 12.5841 84.1182 12.3817C83.8174 12.1714 83.4783 12.021 83.1197 11.939C82.7219 11.8437 82.3139 11.7965 81.9046 11.7983C81.4854 11.7976 81.0697 11.8738 80.6785 12.0232C80.2817 12.1731 79.9059 12.3729 79.5603 12.6175C79.2083 12.8647 78.8791 13.1424 78.5768 13.4475C78.282 13.7413 78.0046 14.0518 77.7461 14.3775H77.7002V12.5947H76.1636V15.7335H74.7807C74.6536 15.7335 74.5268 15.7205 74.4023 15.6948C74.2845 15.6711 74.1718 15.6275 74.0688 15.5661C73.971 15.5064 73.8878 15.4258 73.8252 15.3303C73.7571 15.2228 73.7224 15.0977 73.7254 14.9708V14.6647C73.7342 14.2473 73.6549 13.8327 73.4927 13.4475C73.3502 13.1158 73.1338 12.8205 72.8597 12.5838C72.5833 12.3516 72.2628 12.1769 71.9172 12.0697C71.1505 11.8374 70.3314 11.8374 69.5648 12.0697C69.2183 12.1763 68.8971 12.3511 68.6203 12.5838C68.3467 12.8208 68.1307 13.116 67.9883 13.4475C67.8261 13.8327 67.7468 14.2473 67.7556 14.6647V14.9777C67.759 15.1048 67.7243 15.2299 67.6558 15.3373C67.5931 15.4327 67.5099 15.5132 67.4122 15.573C67.3078 15.6352 67.1932 15.6788 67.0737 15.7018C66.9508 15.7269 66.8257 15.7398 66.7003 15.7404H65.6838V9.04587H64.0793V17.0686H66.7941C67.0917 17.0698 67.3842 16.9925 67.6418 16.8447C67.8834 16.7163 68.0863 16.5266 68.2299 16.295C68.4883 16.6728 68.8543 16.9655 69.2812 17.1359C70.2276 17.4953 71.2744 17.4953 72.2207 17.1359C72.6471 16.9656 73.0125 16.6728 73.27 16.295C73.4146 16.5265 73.6181 16.7161 73.8601 16.8447C74.1176 16.9928 74.4102 17.0701 74.7078 17.0686H84.7612C84.8409 16.9555 84.9019 16.8304 84.9419 16.6982C84.9788 16.5882 85.0088 16.476 85.0317 16.3624H85.0767C85.1215 16.4742 85.1896 16.5755 85.2764 16.6595C85.3633 16.7459 85.4622 16.8195 85.5699 16.8784C85.6772 16.9374 85.7907 16.9846 85.9084 17.0191C86.0166 17.0514 86.1289 17.0684 86.2419 17.0696H87.1984C87.3381 17.0684 87.4776 17.0572 87.6157 17.0359C87.7836 17.0117 87.9485 16.9705 88.108 16.9131C88.2843 16.8501 88.4544 16.7712 88.6162 16.6774C88.7898 16.5771 88.9447 16.4481 89.0745 16.296C89.156 16.401 89.2488 16.497 89.351 16.5823C89.461 16.6764 89.5805 16.7591 89.7075 16.8289C89.8366 16.9006 89.9728 16.959 90.1139 17.0032C90.2526 17.0476 90.3974 17.0703 90.5432 17.0706H94.1855V9.04786H92.581V15.7394ZM71.9771 15.2442C71.9251 15.4175 71.8404 15.5795 71.7275 15.7216C71.6175 15.8564 71.4787 15.9653 71.3211 16.0405C71.1407 16.1177 70.9464 16.1576 70.75 16.1576C70.5535 16.1576 70.3592 16.1177 70.1789 16.0405C70.0212 15.965 69.8822 15.8561 69.7715 15.7216C69.6588 15.5796 69.5748 15.4176 69.5239 15.2442C69.4098 14.8598 69.4098 14.4509 69.5239 14.0665C69.5755 13.8919 69.6595 13.7283 69.7715 13.5842C69.8809 13.4469 70.0202 13.3358 70.1789 13.2593C70.3591 13.1818 70.5535 13.1418 70.75 13.1418C70.9464 13.1418 71.1408 13.1818 71.3211 13.2593C71.4797 13.3355 71.6187 13.4466 71.7275 13.5842C71.8398 13.7284 71.9244 13.8919 71.9771 14.0665C72.0899 14.4511 72.0899 14.8596 71.9771 15.2442ZM83.4372 15.7394H78.1245C78.1781 15.6524 78.2361 15.5681 78.2982 15.4868C78.3981 15.3491 78.5369 15.1827 78.7066 14.9916C78.8763 14.8004 79.073 14.5954 79.2997 14.3755C79.5313 14.1537 79.7807 13.951 80.0455 13.7694C80.3168 13.5832 80.609 13.429 80.9162 13.3098C81.2222 13.1911 81.5481 13.1306 81.8767 13.1315C82.2738 13.1113 82.6687 13.2004 83.0179 13.389C83.1672 13.4989 83.2846 13.646 83.3581 13.8155C83.4316 13.9849 83.4585 14.1706 83.4362 14.3537L83.4372 15.7394Z" fill="#51504E"/>
    <path d="M100.259 9.04587H98.9702V10.3246H100.259V9.04587Z" fill="#51504E"/>
    <path d="M102.192 9.04587H100.892V10.3246H102.192V9.04587Z" fill="#51504E"/>
    <path d="M109.877 12.2421C109.602 12.0065 109.281 11.8304 108.934 11.7251C108.552 11.611 108.156 11.5546 107.757 11.5577C107.36 11.5533 106.965 11.6138 106.587 11.7369C106.242 11.8484 105.925 12.0299 105.655 12.2698C105.388 12.5094 105.178 12.8042 105.039 13.1335C104.884 13.5089 104.809 13.9118 104.818 14.3171C104.82 14.5837 104.883 14.8464 105.004 15.0847C105.114 15.3133 105.265 15.5201 105.45 15.6948V15.7394H104.113C103.983 15.7524 103.852 15.736 103.73 15.6914C103.607 15.6468 103.497 15.5751 103.406 15.4819C103.241 15.209 103.168 14.8906 103.199 14.5736V11.7478H100.588C100.178 11.7406 99.77 11.8077 99.3844 11.9459C99.0629 12.0625 98.7714 12.2482 98.5308 12.4897C98.3047 12.7245 98.1341 13.0064 98.0315 13.3147C97.9196 13.645 97.8639 13.9915 97.8668 14.3399C97.8608 14.6859 97.9324 15.029 98.0765 15.3442C98.2089 15.6299 98.3992 15.8855 98.6356 16.095C98.8762 16.3037 99.1543 16.4657 99.4553 16.5724C99.7759 16.685 100.114 16.7416 100.454 16.7398C100.799 16.7442 101.139 16.6613 101.443 16.4991C101.721 16.3545 101.963 16.1497 102.15 15.8998C102.264 16.2388 102.479 16.5355 102.766 16.7506C103.055 16.9624 103.406 17.0732 103.765 17.0656H107.758C108.157 17.0694 108.553 17.0126 108.935 16.8972C109.281 16.7938 109.602 16.6205 109.878 16.3881C110.151 16.1527 110.367 15.8596 110.51 15.5304C110.819 14.752 110.819 13.8862 110.51 13.1077C110.366 12.7777 110.15 12.4831 109.878 12.245M101.685 14.2527C101.691 14.4444 101.657 14.6352 101.585 14.8133C101.527 14.9573 101.438 15.0873 101.325 15.1946C101.22 15.292 101.094 15.3648 100.957 15.4076C100.82 15.4521 100.677 15.4749 100.534 15.4749C100.225 15.4959 99.9203 15.3952 99.686 15.1946C99.58 15.0803 99.4987 14.9457 99.4472 14.799C99.3957 14.6523 99.375 14.4967 99.3864 14.3418C99.3677 13.9973 99.4739 13.6576 99.686 13.3841C99.7991 13.2618 99.9388 13.1665 100.094 13.1054C100.25 13.0443 100.418 13.019 100.585 13.0315H101.683L101.685 14.2527ZM108.986 14.9034C108.933 15.0745 108.848 15.2343 108.737 15.3749C108.627 15.51 108.488 15.619 108.33 15.6938C108.151 15.776 107.955 15.8163 107.758 15.8117C107.573 15.8248 107.387 15.794 107.216 15.7219C107.045 15.6497 106.894 15.5382 106.775 15.3967C106.546 15.0856 106.43 14.7061 106.447 14.321C106.445 14.1198 106.474 13.9195 106.532 13.7268C106.584 13.5521 106.669 13.3885 106.781 13.2444C106.89 13.107 107.029 12.996 107.187 12.9195C107.368 12.842 107.562 12.802 107.758 12.802C107.955 12.802 108.149 12.842 108.33 12.9195C108.489 12.9953 108.628 13.1065 108.737 13.2444C108.849 13.3889 108.933 13.5523 108.986 13.7268C109.043 13.9196 109.071 14.1199 109.069 14.321C109.071 14.5186 109.043 14.7153 108.986 14.9044" fill="#51504E"/>
    <path d="M124.158 15.7394H122.412C122.276 15.7394 122.12 15.7394 121.943 15.7453C121.767 15.7513 121.591 15.7513 121.417 15.7513H121.018V15.6938C121.301 15.4433 121.523 15.1329 121.669 14.7856C121.768 14.5124 121.819 14.2242 121.821 13.9338C121.829 13.6177 121.774 13.3033 121.658 13.0087C121.56 12.7666 121.405 12.5513 121.206 12.3807C121.002 12.2136 120.763 12.0932 120.507 12.0282C120.214 11.9509 119.911 11.913 119.608 11.9152H114.995V12.1133C115.221 12.3403 115.403 12.6065 115.532 12.8988C115.687 13.2289 115.834 13.569 115.974 13.9189C116.113 14.2689 116.257 14.6053 116.403 14.9282C116.522 15.2096 116.691 15.4676 116.902 15.6899V15.7344H113.477V9.04091H111.871V17.0577H125.758V9.04091H124.153L124.158 15.7394ZM120.112 14.5181C120.042 14.7387 119.941 14.9484 119.813 15.1411C119.688 15.3279 119.529 15.4895 119.344 15.6176C119.164 15.7429 118.949 15.8094 118.728 15.8077C118.577 15.8076 118.431 15.7494 118.321 15.6453C118.191 15.5255 118.082 15.3853 117.999 15.2303C117.9 15.0514 117.815 14.8657 117.744 14.6747C117.668 14.4766 117.596 14.2785 117.524 14.0804C117.452 13.8823 117.383 13.707 117.316 13.5485C117.267 13.4157 117.19 13.2949 117.09 13.1939H119.306C119.532 13.188 119.755 13.2464 119.95 13.3623C120.039 13.4176 120.111 13.496 120.159 13.589C120.207 13.682 120.228 13.7861 120.221 13.8902C120.217 14.1034 120.181 14.3148 120.113 14.5172" fill="#51504E"/>
    <path d="M128.727 9.04587H127.121V17.0636H128.727V9.04587Z" fill="#51504E"/>
    <path d="M134.8 9.04587H133.511V10.3246H134.8V9.04587Z" fill="#51504E"/>
    <path d="M136.732 9.04587H135.432V10.3246H136.732V9.04587Z" fill="#51504E"/>
    <path d="M158.22 15.7394H156.987C156.901 15.7439 156.816 15.7303 156.736 15.6995C156.657 15.6688 156.585 15.6216 156.525 15.5611C156.395 15.3871 156.334 15.1715 156.355 14.956V12.5224H154.749V14.9985C154.761 15.1078 154.749 15.2183 154.715 15.3228C154.68 15.4272 154.624 15.5233 154.55 15.6047C154.371 15.7375 154.15 15.8009 153.928 15.783C153.69 15.7952 153.455 15.7328 153.256 15.6047C153.166 15.5324 153.096 15.4392 153.051 15.3334C153.007 15.2276 152.99 15.1126 153.001 14.9985V12.7353H151.396V14.955C151.416 15.1704 151.356 15.3859 151.227 15.5601C151.167 15.6208 151.094 15.668 151.014 15.6988C150.934 15.7295 150.848 15.743 150.763 15.7384H149.197C149.112 15.7432 149.026 15.7297 148.946 15.699C148.867 15.6682 148.794 15.6209 148.735 15.5601C148.604 15.3864 148.544 15.1706 148.565 14.955V12.2857H146.96V15.0134C146.972 15.1227 146.96 15.2332 146.926 15.3376C146.891 15.4421 146.835 15.5381 146.761 15.6196C146.582 15.7524 146.361 15.8162 146.139 15.7988C145.901 15.8105 145.666 15.7478 145.466 15.6196C145.376 15.5474 145.306 15.4542 145.261 15.3484C145.216 15.2427 145.199 15.1275 145.21 15.0134V12.5244H143.605V15.0134C143.616 15.1227 143.605 15.2332 143.57 15.3377C143.536 15.4422 143.48 15.5382 143.405 15.6196C143.227 15.7526 143.005 15.8164 142.783 15.7988C142.546 15.8101 142.311 15.7474 142.111 15.6196C142.021 15.5473 141.951 15.4541 141.907 15.3483C141.862 15.2425 141.845 15.1275 141.856 15.0134V12.7353H140.252V14.955C140.273 15.1706 140.212 15.3862 140.082 15.5601C140.022 15.6208 139.949 15.6681 139.869 15.6989C139.789 15.7296 139.704 15.7431 139.618 15.7384H138.666C138.537 15.7517 138.405 15.7354 138.283 15.6908C138.16 15.6461 138.05 15.5743 137.959 15.4809C137.794 15.2082 137.72 14.8898 137.751 14.5727V11.7449H135.14C134.73 11.7377 134.322 11.8048 133.936 11.943C133.615 12.0602 133.323 12.2458 133.082 12.4868C132.857 12.7221 132.686 13.0038 132.583 13.3118C132.472 13.6422 132.416 13.9886 132.419 14.3369C132.413 14.683 132.484 15.0261 132.629 15.3412C132.761 15.6273 132.951 15.8832 133.188 16.093C133.428 16.3018 133.707 16.4638 134.008 16.5704C134.328 16.6823 134.666 16.7386 135.006 16.7368C135.351 16.7414 135.692 16.6586 135.997 16.4961C136.274 16.3531 136.515 16.15 136.702 15.9019C136.816 16.2408 137.031 16.5375 137.318 16.7526C137.607 16.9641 137.958 17.0748 138.317 17.0676H140.458C140.6 17.0676 140.74 17.0387 140.871 16.9825C140.996 16.9316 141.113 16.865 141.22 16.7843C141.312 16.7155 141.396 16.6364 141.469 16.5486C141.519 16.4961 141.556 16.4327 141.576 16.3634H141.622C141.729 16.6047 141.925 16.7956 142.171 16.8963C142.495 17.0436 142.848 17.1147 143.204 17.1043C143.563 17.1151 143.921 17.0542 144.256 16.925C144.532 16.8069 144.767 16.6118 144.934 16.3634H144.979C145.085 16.6045 145.282 16.7955 145.527 16.8963C145.851 17.0437 146.205 17.1149 146.561 17.1043C146.919 17.1153 147.276 17.0543 147.61 16.925C147.887 16.8077 148.123 16.6125 148.289 16.3634H148.334C148.379 16.4752 148.447 16.5763 148.534 16.6605C148.621 16.747 148.72 16.8207 148.828 16.8794C148.935 16.9388 149.049 16.986 149.167 17.0201C149.275 17.0529 149.387 17.0699 149.501 17.0706H151.609C151.751 17.071 151.891 17.0423 152.022 16.9864C152.147 16.9359 152.265 16.8693 152.373 16.7883C152.465 16.7194 152.548 16.6403 152.622 16.5526C152.671 16.5 152.708 16.4366 152.729 16.3674H152.773C152.88 16.6084 153.076 16.7993 153.322 16.9002C153.646 17.0477 154 17.1188 154.356 17.1082C154.715 17.1189 155.073 17.0579 155.407 16.929C155.684 16.8108 155.919 16.6158 156.086 16.3674H156.131C156.176 16.4794 156.244 16.5807 156.331 16.6645C156.418 16.7512 156.516 16.8249 156.624 16.8834C156.732 16.9421 156.846 16.9893 156.964 17.024C157.072 17.0561 157.184 17.0728 157.297 17.0736H159.839V12.2966H158.22V15.7394ZM136.225 14.2488C136.231 14.4404 136.197 14.6313 136.125 14.8094C136.067 14.9533 135.978 15.0832 135.866 15.1907C135.761 15.2878 135.635 15.3603 135.498 15.4027C135.362 15.4475 135.219 15.4705 135.075 15.471C134.766 15.4917 134.461 15.391 134.226 15.1907C134.121 15.0759 134.041 14.9411 133.991 14.7944C133.94 14.6478 133.92 14.4924 133.933 14.3379C133.914 13.9934 134.02 13.6534 134.232 13.3801C134.345 13.2577 134.485 13.1623 134.641 13.1013C134.796 13.0402 134.964 13.015 135.131 13.0275H136.229L136.225 14.2488Z" fill="#51504E"/>
    <path d="M163.166 9.52921H162.273C162.219 9.53424 162.165 9.52664 162.115 9.50702C162.065 9.4874 162.02 9.45633 161.984 9.41631C161.924 9.327 161.894 9.22061 161.9 9.11323C161.893 9.00814 161.925 8.90396 161.99 8.82103C162.016 8.78979 162.049 8.76471 162.086 8.74758C162.123 8.73045 162.164 8.7217 162.205 8.72198C162.288 8.71889 162.368 8.74643 162.432 8.79924C162.495 8.86174 162.531 8.94643 162.531 9.03497H163.141C163.137 8.9077 163.103 8.78316 163.042 8.67147C162.989 8.57469 162.916 8.49025 162.828 8.42386C162.739 8.3595 162.639 8.31184 162.533 8.28321C162.425 8.25395 162.313 8.23929 162.2 8.23963C161.949 8.22674 161.702 8.30179 161.501 8.4516C161.412 8.52505 161.342 8.61811 161.296 8.72337C161.25 8.82863 161.229 8.94317 161.235 9.05776C161.234 9.21734 161.29 9.3722 161.393 9.49454V9.52821H161.032V10.0433H163.156L163.166 9.52921Z" fill="#51504E"/>
    <path d="M177.847 15.7394H176.1C175.973 15.7394 175.846 15.7264 175.722 15.7008C175.604 15.6772 175.491 15.6336 175.388 15.572C175.291 15.5125 175.208 15.4319 175.146 15.3363C175.077 15.2289 175.042 15.1038 175.046 14.9767V14.6647C175.055 14.2473 174.975 13.8327 174.813 13.4475C174.671 13.1157 174.454 12.8203 174.18 12.5838C173.904 12.351 173.584 12.1758 173.238 12.0687C172.471 11.8364 171.652 11.8364 170.885 12.0687C170.539 12.1756 170.217 12.3508 169.941 12.5838C169.667 12.8204 169.451 13.1158 169.309 13.4475C169.147 13.8327 169.067 14.2473 169.076 14.6647V14.9777C169.079 15.1047 169.045 15.2298 168.976 15.3373C168.914 15.4328 168.831 15.5134 168.733 15.573C168.628 15.6354 168.514 15.679 168.394 15.7018C168.271 15.727 168.146 15.7399 168.02 15.7404H166.537C166.545 15.6126 166.55 15.4858 166.554 15.359C166.558 15.2323 166.554 15.0976 166.554 14.9549C166.56 14.4762 166.511 13.9983 166.407 13.5307C166.326 13.1459 166.162 12.7828 165.927 12.4659C165.702 12.1715 165.404 11.9399 165.062 11.7934C164.651 11.6255 164.209 11.5452 163.764 11.5577C163.316 11.5451 162.871 11.6292 162.458 11.8043C162.12 11.9535 161.821 12.1803 161.588 12.4659C161.365 12.7441 161.202 13.0647 161.109 13.4078C161.01 13.7628 160.961 14.1293 160.962 14.4974C160.957 14.8617 161.016 15.2241 161.137 15.568C161.245 15.8692 161.415 16.1446 161.637 16.3763C161.857 16.5997 162.124 16.7733 162.418 16.8854C162.745 17.0088 163.092 17.0697 163.441 17.0646H164.839C164.82 17.2815 164.758 17.4924 164.656 17.685C164.554 17.8776 164.414 18.0479 164.245 18.1858C163.834 18.4504 163.349 18.5762 162.861 18.5444C162.713 18.5452 162.565 18.5302 162.42 18.4998C162.274 18.4672 162.13 18.4221 161.991 18.3651V19.5645C162.073 19.5952 162.168 19.625 162.274 19.6547C162.381 19.6809 162.491 19.6995 162.601 19.7101C162.744 19.7262 162.887 19.7338 163.031 19.7329C163.855 19.7827 164.671 19.5448 165.337 19.0604C165.924 18.545 166.302 17.8352 166.399 17.0636H168.097C168.395 17.0648 168.687 16.9876 168.945 16.8398C169.187 16.7112 169.389 16.5215 169.532 16.2901C169.792 16.6675 170.158 16.9601 170.585 17.131C171.531 17.4903 172.577 17.4903 173.523 17.131C173.95 16.9604 174.315 16.6677 174.574 16.2901C174.717 16.5219 174.921 16.7116 175.163 16.8398C175.42 16.9877 175.712 17.065 176.009 17.0636H179.44V9.04091H177.835L177.847 15.7394ZM164.974 15.7394H163.776C163.576 15.7446 163.376 15.7182 163.183 15.6612C163.041 15.6168 162.914 15.5334 162.817 15.4205C162.723 15.3054 162.659 15.1694 162.63 15.0243C162.594 14.8433 162.577 14.6591 162.579 14.4746C162.579 14.2676 162.6 14.0612 162.642 13.8585C162.677 13.669 162.745 13.4868 162.842 13.3197C162.932 13.1665 163.058 13.0376 163.21 12.9443C163.381 12.8454 163.577 12.7966 163.775 12.8037C163.98 12.796 164.182 12.8469 164.357 12.9503C164.516 13.0522 164.643 13.1958 164.725 13.3653C164.824 13.5738 164.889 13.7969 164.917 14.0259C164.957 14.3197 164.976 14.6159 164.973 14.9124L164.974 15.7394ZM173.292 15.2442C173.24 15.4174 173.155 15.5794 173.043 15.7216C172.933 15.8562 172.794 15.9651 172.637 16.0405C172.456 16.118 172.262 16.1579 172.065 16.1579C171.869 16.1579 171.675 16.118 171.494 16.0405C171.337 15.9655 171.198 15.8566 171.088 15.7216C170.975 15.5797 170.891 15.4176 170.839 15.2442C170.726 14.8597 170.726 14.451 170.839 14.0665C170.891 13.8921 170.976 13.7288 171.088 13.5851C171.197 13.4474 171.336 13.3363 171.494 13.2603C171.675 13.1828 171.869 13.1428 172.065 13.1428C172.262 13.1428 172.456 13.1828 172.637 13.2603C172.795 13.3367 172.934 13.4478 173.043 13.5851C173.155 13.7292 173.239 13.8923 173.292 14.0665C173.404 14.4511 173.404 14.8596 173.292 15.2442Z" fill="#51504E"/>
    <path d="M182.416 9.04587H180.811V17.0636H182.416V9.04587Z" fill="#51504E"/>
    <path d="M3.70227 32.2325C4.68311 32.3873 5.62599 32.7233 6.48195 33.223C6.76164 33.4363 6.98289 33.7158 7.12541 34.036C7.26793 34.3561 7.32717 34.7066 7.29769 35.0553C7.3028 35.4296 7.22864 35.8008 7.08002 36.1448C6.9515 36.445 6.76064 36.715 6.51989 36.9372C6.28143 37.149 6.01215 37.324 5.72113 37.4562C5.43515 37.59 5.13321 37.6872 4.82253 37.7454C4.52907 37.799 4.23129 37.8258 3.93291 37.8257C3.35795 37.8362 2.78546 37.7484 2.24055 37.5662C1.8015 37.424 1.4014 37.1834 1.07136 36.8629C0.794182 36.5868 0.566886 36.2655 0.399403 35.9131C0.238726 35.5652 0.133632 35.1946 0.0878906 34.8146H2.22856C2.30314 35.1355 2.49037 35.4195 2.75674 35.6159C3.11317 35.8065 3.51711 35.8921 3.92093 35.8626C4.74965 35.8626 5.164 35.6202 5.164 35.1356C5.16802 35.0412 5.14178 34.948 5.08904 34.8693C5.0363 34.7906 4.95977 34.7306 4.87046 34.6978C4.48127 34.5578 4.08031 34.4524 3.67231 34.3828C3.61995 34.3771 3.56796 34.3685 3.51656 34.357C3.48062 34.3511 3.4297 34.3382 3.36779 34.3204C3.30836 34.3051 3.248 34.2935 3.18707 34.2857C2.82603 34.2172 2.47061 34.1222 2.12373 34.0015C1.81098 33.8846 1.51255 33.7331 1.2341 33.5498C0.9406 33.3633 0.703834 33.101 0.549179 32.7911C0.384255 32.4444 0.303545 32.0641 0.313538 31.6808C0.299646 31.1195 0.475372 30.5697 0.812761 30.1189C1.13185 29.6913 1.56471 29.3603 2.06282 29.1631C2.57343 28.9627 3.11822 28.8618 3.66733 28.8659C4.59595 28.7944 5.51647 29.0819 6.23633 29.6682C6.80838 30.2114 7.15672 30.9459 7.21382 31.7294H5.07313C5.01541 31.4664 4.86844 31.2311 4.65679 31.0628C4.36068 30.8818 4.01395 30.7995 3.66733 30.8281C3.33954 30.8025 3.01178 30.8779 2.72879 31.044C2.63913 31.1026 2.56543 31.1823 2.51423 31.2759C2.46303 31.3696 2.4359 31.4743 2.43524 31.5808C2.43092 31.6586 2.45083 31.7359 2.49226 31.8022C2.5337 31.8685 2.59466 31.9205 2.66689 31.9512C2.93308 32.059 3.21026 32.1377 3.49359 32.186C3.53453 32.1929 3.57048 32.1998 3.59844 32.2038C3.63007 32.2082 3.6614 32.2145 3.69229 32.2226" fill="#51504E"/>
    <path d="M9.36146 31.7462C10.0417 31.0923 10.9518 30.7266 11.899 30.7266C12.8463 30.7266 13.7563 31.0923 14.4366 31.7462C15.105 32.4242 15.4804 33.3342 15.4828 34.2826C15.4852 35.231 15.1145 36.1429 14.4495 36.8243C13.763 37.4733 12.8505 37.8348 11.9021 37.8335C10.9537 37.8322 10.0423 37.4683 9.35747 36.8174C8.69038 36.1389 8.31749 35.2283 8.31861 34.2806C8.31973 33.3328 8.69476 32.4231 9.36346 31.7462M12.9349 33.1576C12.8004 33.0211 12.6397 32.9127 12.4623 32.8386C12.2849 32.7646 12.0944 32.7265 11.902 32.7265C11.7096 32.7265 11.5191 32.7646 11.3417 32.8386C11.1643 32.9127 11.0037 33.0211 10.8691 33.1576C10.6033 33.4736 10.4578 33.8722 10.4578 34.2837C10.4578 34.6953 10.6033 35.0938 10.8691 35.4099C11.0043 35.5453 11.1652 35.6528 11.3425 35.7261C11.5197 35.7995 11.7099 35.8372 11.902 35.8372C12.0941 35.8372 12.2843 35.7995 12.4616 35.7261C12.6389 35.6528 12.7997 35.5453 12.9349 35.4099C13.1998 35.0934 13.3447 34.6951 13.3447 34.2837C13.3447 33.8724 13.1998 33.4741 12.9349 33.1576Z" fill="#51504E"/>
    <path d="M20.1497 37.8346C19.6742 37.8417 19.2019 37.7548 18.7606 37.5791C18.3192 37.4033 17.9176 37.1421 17.579 36.8108C17.2404 36.4795 16.9717 36.0846 16.7886 35.6492C16.6054 35.2138 16.5115 34.7466 16.5122 34.2748C16.5129 33.803 16.6083 33.3361 16.7928 32.9012C16.9773 32.4664 17.2472 32.0723 17.5868 31.742C17.9264 31.4117 18.3289 31.1518 18.7708 30.9773C19.2127 30.8029 19.6852 30.7175 20.1607 30.726C20.9969 30.7091 21.8137 30.9768 22.4751 31.4848C22.7987 31.7348 23.0663 32.0488 23.2612 32.4068C23.4561 32.7649 23.574 33.1591 23.6073 33.5647H21.4297C21.3708 33.2838 21.2073 33.0352 20.972 32.8684C20.7367 32.7016 20.4467 32.6287 20.1597 32.6644C19.9593 32.6541 19.7592 32.6887 19.5741 32.7655C19.389 32.8423 19.2237 32.9594 19.0904 33.1081C18.8214 33.4389 18.6842 33.8563 18.705 34.2808C18.6837 34.7064 18.8233 35.1246 19.0963 35.4535C19.227 35.6008 19.3893 35.7172 19.5712 35.7941C19.7531 35.8711 19.9501 35.9067 20.1477 35.8982C20.4358 35.9033 20.7189 35.8237 20.9614 35.6694C21.202 35.5108 21.3699 35.2646 21.4287 34.984H23.6063C23.5712 35.3937 23.4507 35.7917 23.2526 36.1527C23.0544 36.5138 22.7829 36.8302 22.4551 37.0818C21.7938 37.5841 20.9805 37.8495 20.1477 37.8346" fill="#51504E"/>
    <path d="M25.749 27.6774C25.9173 27.6712 26.0851 27.6981 26.2429 27.7564C26.4007 27.8147 26.5453 27.9033 26.6686 28.0171C26.7866 28.1265 26.8798 28.2596 26.942 28.4075C27.0041 28.5554 27.0338 28.7147 27.029 28.8749C27.0345 29.037 27.0053 29.1985 26.9431 29.3486C26.881 29.4987 26.7874 29.634 26.6686 29.7455C26.4143 29.966 26.0876 30.0871 25.7499 30.086C25.4121 30.0849 25.0863 29.9617 24.8334 29.7395C24.714 29.6296 24.6195 29.4957 24.5562 29.3468C24.4928 29.1979 24.4621 29.0374 24.466 28.8758C24.4616 28.7151 24.4921 28.5553 24.5555 28.4073C24.6189 28.2592 24.7137 28.1265 24.8334 28.0181C25.0813 27.7899 25.4099 27.6678 25.748 27.6784M24.6896 30.8884H26.8054V37.6761H24.6896V30.8884Z" fill="#51504E"/>
    <path d="M33.0376 30.8875H35.1524L35.1404 37.6751H33.0257V36.9461C32.7962 37.2333 32.5024 37.4635 32.1675 37.6182C31.8326 37.773 31.4659 37.8481 31.0967 37.8375C30.6777 37.8446 30.2625 37.7586 29.8814 37.5858C29.5003 37.4131 29.1629 37.1579 28.8941 36.8391C28.3209 36.1087 28.0102 35.2092 28.0115 34.2835C28.0127 33.3579 28.3259 32.4592 28.9011 31.7304C29.167 31.4127 29.501 31.158 29.8788 30.9848C30.2565 30.8115 30.6685 30.7242 31.0847 30.729C31.4612 30.716 31.8353 30.7934 32.1751 30.9546C32.515 31.1158 32.8106 31.3562 33.0367 31.6551L33.0376 30.8875ZM30.5625 35.4109C30.6978 35.5459 30.8587 35.653 31.0358 35.7261C31.213 35.7992 31.403 35.8369 31.5949 35.8369C31.7868 35.8369 31.9768 35.7992 32.154 35.7261C32.3311 35.653 32.492 35.5459 32.6273 35.4109C32.8922 35.0943 33.0372 34.6957 33.0372 34.2842C33.0372 33.8728 32.8922 33.4742 32.6273 33.1576C32.4929 33.021 32.3323 32.9125 32.155 32.8384C31.9777 32.7643 31.7873 32.7262 31.5949 32.7262C31.4025 32.7262 31.2121 32.7643 31.0348 32.8384C30.8575 32.9125 30.6969 33.021 30.5625 33.1576C30.2967 33.4738 30.151 33.8725 30.151 34.2842C30.151 34.696 30.2967 35.0947 30.5625 35.4109Z" fill="#51504E"/>
    <path d="M38.5981 28.1726H36.4834V37.6751H38.5981V28.1726Z" fill="#51504E"/>
    <path d="M47.1696 32.2325C48.1504 32.3873 49.0933 32.7233 49.9492 33.223C50.2289 33.4363 50.4501 33.7158 50.5927 34.036C50.7352 34.3561 50.7944 34.7066 50.7649 35.0553C50.7701 35.4296 50.6959 35.8008 50.5473 36.1448C50.4187 36.445 50.2279 36.715 49.9872 36.9372C49.7487 37.149 49.4794 37.324 49.1884 37.4562C48.9024 37.59 48.6005 37.6872 48.2898 37.7454C47.996 37.799 47.6979 37.8259 47.3992 37.8257C46.8245 37.8361 46.2524 37.7483 45.7078 37.5662C45.2688 37.424 44.8687 37.1834 44.5386 36.8629C44.2615 36.5868 44.0342 36.2655 43.8667 35.9131C43.7061 35.5652 43.6013 35.1946 43.5562 34.8146H45.6968C45.7712 35.1353 45.958 35.4193 46.224 35.6159C46.5804 35.8065 46.9844 35.8921 47.3882 35.8626C48.2169 35.8626 48.6316 35.6202 48.6323 35.1356C48.6363 35.0412 48.6101 34.948 48.5573 34.8693C48.5046 34.7906 48.428 34.7306 48.3387 34.6978C47.9495 34.5578 47.5486 34.4524 47.1406 34.3828C47.0882 34.3771 47.0362 34.3685 46.9848 34.357C46.9489 34.3511 46.898 34.3382 46.8361 34.3204C46.7766 34.305 46.7163 34.2934 46.6553 34.2857C46.2946 34.2172 45.9395 34.1222 45.593 34.0015C45.2803 33.8846 44.9818 33.7331 44.7034 33.5498C44.4099 33.3633 44.1731 33.101 44.0184 32.7911C43.8535 32.4444 43.7728 32.0641 43.7828 31.6808C43.7689 31.1195 43.9447 30.5697 44.282 30.1189C44.6012 29.6913 45.034 29.3604 45.5321 29.1631C46.0427 28.9627 46.5875 28.8618 47.1366 28.8659C48.0652 28.7944 48.9857 29.0819 49.7056 29.6682C50.2776 30.2114 50.626 30.9459 50.6831 31.7294H48.5424C48.4845 31.4665 48.3376 31.2312 48.126 31.0628C47.8296 30.8816 47.4826 30.7993 47.1356 30.8281C46.8078 30.8025 46.4801 30.8779 46.1971 31.044C46.1074 31.1026 46.0337 31.1823 45.9825 31.2759C45.9313 31.3696 45.9042 31.4743 45.9035 31.5808C45.8991 31.6585 45.9189 31.7357 45.9601 31.802C46.0014 31.8682 46.0621 31.9203 46.1341 31.9512C46.4007 32.0589 46.6782 32.1376 46.9619 32.186C47.0028 32.1929 47.0378 32.1998 47.0617 32.2038C47.0934 32.2082 47.1247 32.2145 47.1556 32.2226" fill="#51504E"/>
    <path d="M55.3928 30.726C55.8995 30.7058 56.4043 30.7992 56.8696 30.9991C57.335 31.1991 57.7489 31.5005 58.0807 31.8809C58.4157 32.2693 58.6643 32.7234 58.8102 33.2136C58.9561 33.7037 58.996 34.219 58.9274 34.7255H53.9351C53.9515 35.1457 54.1269 35.5443 54.4264 35.8418C54.7029 36.0924 55.0663 36.2276 55.4408 36.2191C55.708 36.2255 55.9713 36.1546 56.1986 36.0151C56.4103 35.8857 56.5693 35.6865 56.6479 35.4525H58.8245C58.6465 36.1859 58.1957 36.8256 57.5625 37.2433C56.9293 37.6435 56.1915 37.8502 55.4408 37.8376C54.9549 37.8561 54.4703 37.7759 54.0168 37.6018C53.5634 37.4277 53.1506 37.1635 52.8039 36.8253C52.2896 36.3265 51.9385 35.6857 51.7962 34.9863C51.6539 34.2869 51.727 33.5611 52.0061 32.9035C52.2851 32.2458 52.7571 31.6867 53.3608 31.2987C53.9644 30.9107 54.6718 30.7119 55.3909 30.728M55.3799 32.3455C55.0519 32.3285 54.7293 32.4327 54.4743 32.638C54.2192 32.8432 54.0499 33.1349 53.999 33.4568H56.7228C56.664 33.1452 56.5045 32.8612 56.2685 32.6475C56.0207 32.4408 55.7033 32.3347 55.3799 32.3504" fill="#51504E"/>
    <path d="M63.4932 37.8346C63.0177 37.8417 62.5455 37.7548 62.1041 37.5791C61.6628 37.4033 61.2611 37.1421 60.9225 36.8108C60.5839 36.4795 60.3152 36.0846 60.1321 35.6492C59.9489 35.2138 59.855 34.7466 59.8557 34.2748C59.8564 33.803 59.9518 33.3361 60.1363 32.9012C60.3208 32.4664 60.5907 32.0723 60.9303 31.742C61.2699 31.4117 61.6724 31.1518 62.1143 30.9773C62.5562 30.8029 63.0287 30.7175 63.5042 30.726C64.3404 30.7091 65.1572 30.9768 65.8186 31.4848C66.1422 31.7348 66.41 32.0487 66.6049 32.4068C66.7998 32.7648 66.9176 33.1591 66.9508 33.5647H64.7702C64.7113 33.2838 64.5479 33.0352 64.3125 32.8684C64.0772 32.7016 63.7872 32.6287 63.5002 32.6644C63.2998 32.6541 63.0997 32.6887 62.9146 32.7655C62.7295 32.8423 62.5642 32.9594 62.4309 33.1081C62.1616 33.4388 62.0244 33.8562 62.0455 34.2808C62.0241 34.7064 62.1637 35.1246 62.4368 35.4535C62.5675 35.6008 62.7298 35.7172 62.9117 35.7941C63.0936 35.8711 63.2906 35.9067 63.4882 35.8982C63.7763 35.9035 64.0595 35.8238 64.302 35.6694C64.5425 35.5108 64.7104 35.2646 64.7692 34.984H66.9468C66.9117 35.3937 66.7912 35.7917 66.5931 36.1527C66.3949 36.5138 66.1234 36.8302 65.7956 37.0818C65.1344 37.5842 64.321 37.8495 63.4882 37.8346" fill="#51504E"/>
    <path d="M72.3745 30.8875H74.4892V37.6761H72.3745V36.8976C72.1447 37.1965 71.847 37.4373 71.5055 37.6004C71.164 37.7634 70.7885 37.8439 70.4096 37.8355C70.0765 37.8519 69.7438 37.7953 69.4352 37.6696C69.1267 37.544 68.8498 37.3524 68.6244 37.1085C68.1658 36.5541 67.9329 35.8497 67.9714 35.1336V30.8875H70.0871V34.6641C70.0629 34.9752 70.1433 35.2856 70.3157 35.5466C70.4223 35.6543 70.5523 35.7365 70.6957 35.7868C70.8392 35.8371 70.9923 35.8542 71.1434 35.8368C71.9648 35.8368 72.3755 35.3888 72.3755 34.4927L72.3745 30.8875Z" fill="#51504E"/>
    <path d="M79.9257 30.726C80.0554 30.7236 80.1851 30.7359 80.3121 30.7627V32.9229C80.1294 32.906 79.9886 32.8991 79.8897 32.8991C79.6448 32.896 79.4002 32.9206 79.1609 32.9724C78.9417 33.0249 78.7336 33.1151 78.5458 33.2388C78.3385 33.3765 78.1797 33.5749 78.0915 33.8063C77.9794 34.1038 77.9265 34.42 77.9358 34.7374V37.6751H75.821V30.8875H77.9358V31.9354C78.1079 31.5598 78.3894 31.244 78.7441 31.0284C79.0987 30.8129 79.5102 30.7076 79.9257 30.726Z" fill="#51504E"/>
    <path d="M82.332 27.6774C82.5003 27.6713 82.6681 27.6982 82.8259 27.7565C82.9837 27.8148 83.1284 27.9033 83.2516 28.0171C83.3698 28.1264 83.4632 28.2594 83.5255 28.4073C83.5878 28.5552 83.6177 28.7146 83.613 28.8749C83.6184 29.0371 83.589 29.1986 83.5267 29.3487C83.4644 29.4988 83.3706 29.6341 83.2516 29.7455C82.9974 29.9658 82.6709 30.0867 82.3334 30.0856C81.9958 30.0845 81.6702 29.9615 81.4174 29.7395C81.2978 29.6297 81.2031 29.4959 81.1396 29.347C81.076 29.1981 81.0452 29.0375 81.049 28.8758C81.0446 28.715 81.0752 28.5551 81.1388 28.4071C81.2024 28.2591 81.2974 28.1264 81.4174 28.0181C81.6653 27.7898 81.9939 27.6677 82.332 27.6784M81.2737 30.8885H83.3884V37.6761H81.2737V30.8885Z" fill="#51504E"/>
    <path d="M89.9041 35.5525L90.2656 37.2432C89.9764 37.4237 89.6617 37.5605 89.332 37.6493C88.9415 37.7705 88.535 37.833 88.1259 37.8346C87.4398 37.8544 86.7729 37.609 86.2658 37.1501C85.9973 36.8723 85.7914 36.5412 85.6616 36.1785C85.5318 35.8158 85.4811 35.43 85.513 35.0464V32.8615H84.3428V30.8895H85.513V29.4929L87.6277 29.0363V30.8895H89.9301V32.8644H87.6277V34.9256C87.6277 35.5674 87.9179 35.8883 88.4983 35.8883C88.9786 35.8335 89.4506 35.7218 89.9041 35.5555" fill="#51504E"/>
    <path d="M95.9518 30.8865H98.2033L93.8361 40.7594H91.5846L93.3638 36.7361L90.7888 30.8865H93.0403L94.4841 34.4284L95.9518 30.8865Z" fill="#51504E"/>
    <path d="M107.438 37.8355C106.24 37.8355 105.091 37.3636 104.245 36.5234C103.398 35.6833 102.922 34.5438 102.922 33.3557C102.922 32.1676 103.398 31.0281 104.245 30.188C105.091 29.3478 106.24 28.8758 107.438 28.8758C108.424 28.8549 109.388 29.1694 110.169 29.7672C110.927 30.3453 111.46 31.1649 111.68 32.0879H109.416C109.252 31.7206 108.981 31.4102 108.638 31.1965C108.277 30.9788 107.862 30.8678 107.44 30.8765C107.119 30.8637 106.8 30.9189 106.503 31.0385C106.205 31.158 105.937 31.3392 105.717 31.5699C105.294 32.0723 105.063 32.7056 105.063 33.3596C105.063 34.0137 105.294 34.647 105.717 35.1494C105.937 35.3802 106.205 35.5614 106.503 35.681C106.8 35.8006 107.119 35.8557 107.44 35.8427C107.862 35.8512 108.277 35.7403 108.638 35.5228C108.981 35.3094 109.252 34.999 109.416 34.6314H111.68C111.461 35.5541 110.927 36.3735 110.169 36.9511C109.388 37.5488 108.424 37.8634 107.438 37.8425" fill="#51504E"/>
    <path d="M113.742 31.7462C114.423 31.0923 115.333 30.7266 116.28 30.7266C117.227 30.7266 118.137 31.0923 118.817 31.7462C119.486 32.4242 119.861 33.3342 119.864 34.2826C119.866 35.231 119.495 36.1429 118.83 36.8243C118.327 37.3259 117.685 37.6674 116.985 37.8051C116.285 37.9429 115.56 37.8707 114.902 37.5977C114.244 37.3248 113.682 36.8635 113.29 36.2727C112.897 35.6819 112.691 34.9884 112.697 34.2808C112.685 33.8095 112.771 33.3409 112.951 32.9046C113.131 32.4683 113.401 32.0739 113.742 31.7462ZM117.314 33.1576C117.179 33.0212 117.018 32.9129 116.841 32.839C116.664 32.765 116.473 32.7269 116.281 32.7269C116.088 32.7269 115.898 32.765 115.721 32.839C115.543 32.9129 115.383 33.0212 115.248 33.1576C114.982 33.4736 114.837 33.8722 114.837 34.2837C114.837 34.6953 114.982 35.0938 115.248 35.4099C115.383 35.5452 115.544 35.6525 115.721 35.7258C115.899 35.7991 116.089 35.8368 116.281 35.8368C116.473 35.8368 116.663 35.7991 116.84 35.7258C117.018 35.6525 117.178 35.5452 117.314 35.4099C117.578 35.0933 117.723 34.695 117.723 34.2837C117.723 33.8725 117.578 33.4742 117.314 33.1576Z" fill="#51504E"/>
    <path d="M125.174 30.726C125.304 30.7236 125.434 30.7359 125.561 30.7627V32.9229C125.378 32.906 125.237 32.8991 125.138 32.8991C124.893 32.896 124.648 32.9206 124.409 32.9724C124.19 33.0248 123.981 33.115 123.794 33.2388C123.586 33.3765 123.427 33.5749 123.339 33.8063C123.227 34.1038 123.174 34.42 123.184 34.7374V37.6751H121.069V30.8875H123.184V31.9354C123.356 31.5598 123.637 31.244 123.992 31.0284C124.346 30.8129 124.758 30.7076 125.173 30.726" fill="#51504E"/>
    <path d="M130.65 30.726C131.066 30.7216 131.478 30.8092 131.855 30.9824C132.233 31.1556 132.567 31.4101 132.833 31.7274C133.408 32.4564 133.721 33.3552 133.722 34.2809C133.723 35.2066 133.412 36.1061 132.838 36.8362C132.57 37.1549 132.232 37.4099 131.851 37.5827C131.471 37.7554 131.056 37.8415 130.637 37.8346C130.266 37.8443 129.898 37.7689 129.561 37.6142C129.224 37.4596 128.928 37.23 128.696 36.9432V40.7574H126.581V30.8845H128.696V31.6492C128.922 31.3501 129.218 31.1098 129.558 30.9486C129.899 30.7873 130.273 30.71 130.65 30.7231M129.107 35.408C129.242 35.543 129.403 35.6501 129.58 35.7232C129.758 35.7963 129.948 35.8339 130.14 35.8339C130.331 35.8339 130.521 35.7963 130.699 35.7232C130.876 35.6501 131.037 35.543 131.172 35.408C131.438 35.0918 131.583 34.693 131.583 34.2813C131.583 33.8696 131.438 33.4708 131.172 33.1546C131.038 33.0181 130.877 32.9096 130.7 32.8355C130.522 32.7614 130.332 32.7232 130.14 32.7232C129.947 32.7232 129.757 32.7614 129.579 32.8355C129.402 32.9096 129.242 33.0181 129.107 33.1546C128.841 33.4709 128.696 33.8696 128.696 34.2813C128.696 34.693 128.841 35.0917 129.107 35.408Z" fill="#51504E"/>
    <path d="M135.85 31.7462C136.53 31.0923 137.44 30.7266 138.387 30.7266C139.335 30.7266 140.245 31.0923 140.925 31.7462C141.593 32.4245 141.968 33.3344 141.97 34.2826C141.973 35.2309 141.602 36.1426 140.938 36.8243C140.251 37.4733 139.339 37.8348 138.39 37.8335C137.442 37.8322 136.531 37.4683 135.846 36.8174C135.179 36.1386 134.807 35.228 134.808 34.2804C134.809 33.3327 135.184 32.4231 135.853 31.7462M139.424 33.1576C139.29 33.0211 139.129 32.9127 138.952 32.8386C138.774 32.7646 138.584 32.7265 138.391 32.7265C138.199 32.7265 138.008 32.7646 137.831 32.8386C137.654 32.9127 137.493 33.0211 137.358 33.1576C137.093 33.4736 136.947 33.8722 136.947 34.2837C136.947 34.6953 137.093 35.0938 137.358 35.4099C137.494 35.5453 137.655 35.6528 137.832 35.7261C138.009 35.7995 138.199 35.8372 138.391 35.8372C138.583 35.8372 138.774 35.7995 138.951 35.7261C139.128 35.6528 139.289 35.5453 139.424 35.4099C139.689 35.0933 139.833 34.695 139.833 34.2837C139.833 33.8725 139.689 33.4742 139.424 33.1576Z" fill="#51504E"/>
    <path d="M147.283 30.726C147.413 30.7236 147.542 30.7359 147.669 30.7627V32.9229C147.487 32.906 147.346 32.8991 147.247 32.8991C147.002 32.896 146.758 32.9205 146.519 32.9724C146.3 33.0247 146.091 33.1149 145.903 33.2388C145.696 33.3765 145.537 33.5749 145.449 33.8063C145.337 34.1038 145.284 34.42 145.293 34.7374V37.6751H143.178V30.8875H145.293V31.9354C145.465 31.5598 145.747 31.244 146.101 31.0284C146.456 30.8129 146.868 30.7076 147.283 30.726Z" fill="#51504E"/>
    <path d="M153.529 30.8875H155.645L155.633 37.6751H153.518V36.9461C153.289 37.2333 152.995 37.4635 152.66 37.6182C152.325 37.773 151.959 37.8481 151.589 37.8376C151.17 37.8447 150.755 37.7587 150.374 37.5859C149.993 37.4132 149.656 37.158 149.387 36.8391C148.813 36.1088 148.503 35.2093 148.504 34.2836C148.505 33.3579 148.818 32.4592 149.394 31.7304C149.66 31.4129 149.994 31.1583 150.372 30.985C150.75 30.8118 151.162 30.7244 151.578 30.729C151.955 30.7159 152.329 30.7933 152.669 30.9545C153.009 31.1158 153.304 31.3561 153.53 31.6551L153.529 30.8875ZM151.054 35.4109C151.19 35.5459 151.351 35.6531 151.528 35.7262C151.705 35.7993 151.895 35.837 152.087 35.837C152.279 35.837 152.469 35.7993 152.646 35.7262C152.824 35.6531 152.985 35.5459 153.12 35.4109C153.385 35.0942 153.53 34.6957 153.53 34.2843C153.53 33.8728 153.385 33.4743 153.12 33.1576C152.986 33.021 152.825 32.9125 152.647 32.8384C152.47 32.7643 152.28 32.7261 152.087 32.7261C151.895 32.7261 151.704 32.7643 151.527 32.8384C151.349 32.9125 151.189 33.021 151.054 33.1576C150.788 33.4738 150.643 33.8725 150.643 34.2843C150.643 34.696 150.788 35.0947 151.054 35.4109Z" fill="#51504E"/>
    <path d="M162.164 35.5525L162.525 37.2432C162.236 37.4238 161.922 37.5606 161.592 37.6493C161.201 37.7705 160.795 37.833 160.386 37.8346C159.7 37.8541 159.033 37.6087 158.526 37.1501C158.257 36.8723 158.051 36.5412 157.921 36.1785C157.792 35.8158 157.741 35.43 157.773 35.0464V32.8615H156.603V30.8895H157.773V29.4929L159.888 29.0363V30.8895H162.19V32.8644H159.888V34.9256C159.888 35.5674 160.178 35.8883 160.758 35.8883C161.239 35.8335 161.711 35.7217 162.165 35.5555" fill="#51504E"/>
    <path d="M164.722 27.6774C164.89 27.6712 165.058 27.698 165.216 27.7563C165.374 27.8146 165.518 27.9032 165.641 28.0171C165.76 28.1264 165.853 28.2594 165.915 28.4073C165.978 28.5552 166.008 28.7146 166.003 28.8749C166.008 29.0371 165.979 29.1986 165.917 29.3487C165.854 29.4988 165.76 29.6341 165.641 29.7455C165.387 29.966 165.061 30.087 164.723 30.0859C164.386 30.0848 164.06 29.9617 163.807 29.7395C163.688 29.6298 163.593 29.496 163.529 29.3471C163.466 29.1982 163.435 29.0375 163.439 28.8758C163.434 28.715 163.465 28.5551 163.529 28.407C163.592 28.259 163.687 28.1263 163.807 28.0181C164.055 27.7899 164.383 27.6679 164.721 27.6784M163.664 30.8885H165.778V37.6761H163.664V30.8885Z" fill="#51504E"/>
    <path d="M168.035 31.7462C168.715 31.0923 169.625 30.7266 170.572 30.7266C171.52 30.7266 172.43 31.0923 173.11 31.7462C173.778 32.4246 174.152 33.3345 174.155 34.2826C174.157 35.2308 173.787 36.1425 173.123 36.8243C172.436 37.4733 171.524 37.8348 170.575 37.8335C169.627 37.8322 168.716 37.4683 168.031 36.8174C167.364 36.1385 166.992 35.228 166.993 34.2804C166.994 33.3327 167.369 32.4232 168.038 31.7462M171.608 33.1576C171.474 33.0212 171.313 32.9127 171.136 32.8387C170.959 32.7647 170.768 32.7266 170.576 32.7266C170.383 32.7266 170.193 32.7647 170.016 32.8387C169.838 32.9127 169.678 33.0212 169.543 33.1576C169.278 33.4738 169.133 33.8723 169.133 34.2837C169.133 34.6952 169.278 35.0937 169.543 35.4099C169.679 35.5451 169.839 35.6525 170.017 35.7258C170.194 35.799 170.384 35.8367 170.576 35.8367C170.768 35.8367 170.958 35.799 171.135 35.7258C171.312 35.6525 171.473 35.5451 171.608 35.4099C171.873 35.0936 172.019 34.6952 172.019 34.2837C172.019 33.8723 171.873 33.4739 171.608 33.1576Z" fill="#51504E"/>
    <path d="M179.456 30.726C179.794 30.7088 180.132 30.7652 180.446 30.8911C180.76 31.017 181.042 31.2095 181.273 31.455C181.736 32.0073 181.971 32.7127 181.932 33.43V37.6761H179.817V33.8994C179.841 33.5872 179.757 33.2763 179.581 33.0169C179.471 32.9087 179.337 32.8264 179.191 32.7762C179.044 32.726 178.888 32.7091 178.734 32.7267C177.896 32.7267 177.477 33.1751 177.477 34.0718V37.6761H175.362V30.8884H177.477V31.6531C177.711 31.3561 178.012 31.1177 178.356 30.9568C178.699 30.796 179.076 30.7173 179.456 30.727" fill="#51504E"/>
    <path d="M198.702 24.3004L222.129 47.5396H198.702V24.3004Z" fill="#B3903D"/>
    <path d="M198.702 21.549L224.902 47.5391H222.129L198.702 24.2999V21.549Z" fill="#B3903D"/>
    <path d="M198.702 21.3485L225.104 47.5391H224.902L198.702 21.549V21.3485Z" fill="#B3903D"/>
    <path d="M198.702 21.1485L225.306 47.5396H225.104L198.702 21.349V21.1485Z" fill="#B3903D"/>
    <path d="M198.702 20.948L225.508 47.5391H225.306L198.702 21.1485V20.948Z" fill="#B3903D"/>
    <path d="M198.702 20.7475L225.711 47.5396H225.508L198.702 20.948V20.7475Z" fill="#B3903D"/>
    <path d="M198.702 20.547L225.913 47.5396H225.711L198.702 20.7494V20.547Z" fill="#B3903D"/>
    <path d="M198.702 20.346L226.115 47.5396H225.913L198.703 20.547L198.702 20.346Z" fill="#B3903D"/>
    <path d="M198.702 20.1455L226.317 47.5396H226.115L198.702 20.346V20.1455Z" fill="#B3903D"/>
    <path d="M198.702 19.945L226.52 47.5396H226.317L198.702 20.1455V19.945Z" fill="#B3903D"/>
    <path d="M198.702 19.7445L226.722 47.5396H226.52L198.702 19.945V19.7445Z" fill="#B3903D"/>
    <path d="M198.702 19.542L226.924 47.5376H226.722L198.702 19.7425V19.542Z" fill="#B3903D"/>
    <path d="M198.702 19.343L227.127 47.5391H226.925L198.704 19.5435L198.702 19.343Z" fill="#B3903D"/>
    <path d="M198.702 19.143L227.326 47.5396H227.127L198.704 19.3435L198.702 19.143Z" fill="#B3913D"/>
    <path d="M198.702 18.9425L227.53 47.5381H227.326L198.7 19.1415L198.702 18.9425Z" fill="#B3913E"/>
    <path d="M198.702 18.7419L227.732 47.5396H227.53L198.702 18.9425V18.7419Z" fill="#B3913E"/>
    <path d="M198.702 18.5415L227.934 47.5396H227.732L198.702 18.742V18.5415Z" fill="#B3913E"/>
    <path d="M198.702 18.3395L228.136 47.5381H227.934L198.702 18.5414V18.3395Z" fill="#B4913E"/>
    <path d="M198.702 18.14L228.339 47.5391H228.136L198.702 18.3404V18.14Z" fill="#B4913E"/>
    <path d="M198.702 17.9394L228.541 47.5391H228.339L198.702 18.1399V17.9394Z" fill="#B4913F"/>
    <path d="M198.702 17.7389L228.743 47.5396H228.541L198.703 17.9399L198.702 17.7389Z" fill="#B4913F"/>
    <path d="M198.702 17.5384L228.946 47.5401H228.744L198.703 17.7394L198.702 17.5384Z" fill="#B4923F"/>
    <path d="M198.702 17.3379L229.148 47.5396H228.946L198.702 17.538L198.702 17.3379Z" fill="#B4923F"/>
    <path d="M198.702 17.1364L229.35 47.5386H229.148L198.702 17.3369V17.1364Z" fill="#B49240"/>
    <path d="M198.702 16.9369L229.552 47.5396H229.35L198.702 17.1374V16.9369Z" fill="#B59240"/>
    <path d="M198.702 16.7364L229.754 47.5396H229.552L198.702 16.9369V16.7364Z" fill="#B59240"/>
    <path d="M198.702 16.5359L229.958 47.5396H229.756L198.704 16.7364L198.702 16.5359Z" fill="#B59341"/>
    <path d="M198.702 16.3354L230.157 47.5396H229.958L198.704 16.5359L198.702 16.3354Z" fill="#B59341"/>
    <path d="M198.702 16.1349L230.36 47.5396H230.157L198.701 16.3354L198.702 16.1349Z" fill="#B59342"/>
    <path d="M198.702 15.9339L230.562 47.5391H230.36L198.702 16.1344V15.9339Z" fill="#B69342"/>
    <path d="M198.702 15.7334L230.765 47.5391H230.562L198.702 15.9339V15.7334Z" fill="#B69443"/>
    <path d="M198.702 15.5329L230.967 47.5391H230.765L198.702 15.7334V15.5329Z" fill="#B69443"/>
    <path d="M198.702 15.3324L231.169 47.5391H230.967L198.702 15.5329V15.3324Z" fill="#B69444"/>
    <path d="M198.702 15.1319L231.371 47.5396H231.169L198.702 15.3329V15.1319Z" fill="#B79544"/>
    <path d="M198.702 14.9319L231.574 47.5401H231.371L198.702 15.1324V14.9319Z" fill="#B79545"/>
    <path d="M198.702 14.7314L231.777 47.541H231.575L198.703 14.9329L198.702 14.7314Z" fill="#B79546"/>
    <path d="M198.702 14.5304L231.975 47.5371H231.773L198.699 14.7275L198.702 14.5304Z" fill="#B89646"/>
    <path d="M198.702 14.3299L232.18 47.5396H231.978L198.705 14.5329L198.702 14.3299Z" fill="#B89647"/>
    <path d="M198.702 14.1294L232.382 47.5396H232.18L198.702 14.3299V14.1294Z" fill="#B89748"/>
    <path d="M198.702 13.9289L232.584 47.5396H232.382L198.702 14.1294V13.9289Z" fill="#B99748"/>
    <path d="M198.702 13.7279L232.789 47.5391H232.587L198.705 13.9284L198.702 13.7279Z" fill="#B99849"/>
    <path d="M198.702 13.5289L232.988 47.5406H232.789L198.702 13.7259V13.5289Z" fill="#B9984A"/>
    <path d="M198.702 13.3269L233.191 47.5391H232.987L198.701 13.5274L198.702 13.3269Z" fill="#BA994B"/>
    <path d="M198.702 13.1264L233.393 47.5391H233.191L198.702 13.3269V13.1264Z" fill="#BA994C"/>
    <path d="M198.702 12.9264L233.595 47.5396H233.393L198.702 13.1269V12.9264Z" fill="#BB9A4D"/>
    <path d="M198.702 12.7259L233.797 47.5406H233.595L198.703 12.9273L198.702 12.7259Z" fill="#BB9A4E"/>
    <path d="M198.702 12.5249L233.999 47.5396H233.797L198.702 12.7254V12.5249Z" fill="#BC9B4F"/>
    <path d="M198.702 12.3263L234.202 47.5416H233.999L198.702 12.5234V12.3263Z" fill="#BC9B50"/>
    <path d="M198.702 12.1239L234.404 47.5396H234.202L198.702 12.3244V12.1239Z" fill="#BD9C51"/>
    <path d="M198.702 11.9234L234.607 47.541H234.405L198.704 12.1253L198.702 11.9234Z" fill="#BD9D52"/>
    <path d="M198.702 11.7229L234.806 47.5376H234.604L198.699 11.9199L198.702 11.7229Z" fill="#BE9D53"/>
    <path d="M198.702 11.5219L235.01 47.5391H234.808L198.704 11.7243L198.702 11.5219Z" fill="#BE9E54"/>
    <path d="M198.702 11.3214L235.212 47.5391H235.01L198.702 11.5219V11.3214Z" fill="#BF9F55"/>
    <path d="M198.702 11.1208L235.414 47.5391H235.212L198.702 11.3209V11.1208Z" fill="#BF9F56"/>
    <path d="M198.702 10.9208L235.616 47.5396H235.414L198.702 11.1213V10.9208Z" fill="#C0A058"/>
    <path d="M198.702 10.7203L235.818 47.5396H235.616L198.702 10.9208L198.702 10.7203Z" fill="#C0A159"/>
    <path d="M198.702 10.5198L236.021 47.5396H235.818L198.702 10.7203L198.702 10.5198Z" fill="#C1A25A"/>
    <path d="M198.702 10.3188L236.223 47.5391H236.021L198.703 10.5193L198.702 10.3188Z" fill="#C2A25C"/>
    <path d="M198.702 10.1183L236.425 47.5396H236.223L198.702 10.3193V10.1183Z" fill="#C2A35D"/>
    <path d="M198.702 9.91783L236.628 47.5396H236.425L198.702 10.1183V9.91783Z" fill="#C3A45F"/>
    <path d="M198.702 9.71733L236.83 47.5396H236.628L198.702 9.91783V9.71733Z" fill="#C4A560"/>
    <path d="M198.702 9.51683L237.032 47.5396H236.83L198.702 9.71733V9.51683Z" fill="#C4A662"/>
    <path d="M198.702 9.31583L237.234 47.5391H237.032L198.702 9.51633V9.31583Z" fill="#C5A764"/>
    <path d="M198.702 9.11533L237.438 47.5411H237.236L198.704 9.3178L198.702 9.11533Z" fill="#C6A865"/>
    <path d="M198.702 8.91531L237.637 47.5381H237.435L198.699 9.11237L198.702 8.91531Z" fill="#C6A967"/>
    <path d="M198.702 8.71481L237.84 47.5396H237.638L198.704 8.91679L198.702 8.71481Z" fill="#C7AA69"/>
    <path d="M198.702 8.51431L238.042 47.5396H237.84L198.702 8.71482V8.51431Z" fill="#C8AB6B"/>
    <path d="M198.702 8.3138L238.245 47.5396H238.042L198.702 8.5143V8.3138Z" fill="#C8AC6C"/>
    <path d="M198.702 8.11281L238.447 47.5391H238.245L198.702 8.31331V8.11281Z" fill="#C9AD6E"/>
    <path d="M198.702 7.91231L238.649 47.5396H238.447L198.702 8.11331V7.91231Z" fill="#CAAE70"/>
    <path d="M198.702 7.71179L238.851 47.5396H238.649L198.702 7.91279V7.71179Z" fill="#CBAF72"/>
    <path d="M198.702 7.51129L239.054 47.5396H238.851L198.702 7.71327V7.51129Z" fill="#CCB074"/>
    <path d="M198.702 7.31079L239.256 47.5396H239.054L198.702 7.51129V7.31079Z" fill="#CCB176"/>
    <path d="M198.702 7.11029L239.458 47.5396H239.256L198.702 7.31079V7.11029Z" fill="#CDB379"/>
    <path d="M198.702 6.90979L239.66 47.5396H239.458L198.702 7.11029V6.90979Z" fill="#CEB47B"/>
    <path d="M198.702 6.70927L239.862 47.5376H239.66L198.702 6.90978V6.70927Z" fill="#CFB57D"/>
    <path d="M198.702 6.50877L240.064 47.5396H239.862L198.702 6.70928V6.50877Z" fill="#D0B67F"/>
    <path d="M198.702 6.30827L240.269 47.542H240.067L198.702 6.51075V6.30827Z" fill="#D1B882"/>
    <path d="M198.702 6.00974L240.567 47.5391H240.266L198.699 6.30532L198.702 6.00974Z" fill="#D1B882"/>
    <path d="M198.702 5.7112L240.868 47.5396H240.567L198.703 6.01023L198.702 5.7112Z" fill="#D1B781"/>
    <path d="M198.702 5.41266L241.169 47.5391H240.868L198.702 5.71071L198.702 5.41266Z" fill="#D1B781"/>
    <path d="M198.702 5.11412L241.47 47.5391H241.169L198.702 5.41265V5.11412Z" fill="#D0B780"/>
    <path d="M198.702 4.81607L241.77 47.5396H241.47L198.702 5.11461V4.81607Z" fill="#D0B67F"/>
    <path d="M198.702 4.52L242.071 47.542H241.77L198.702 4.81559V4.52Z" fill="#D0B67F"/>
    <path d="M198.702 4.21948L242.373 47.5396H242.072L198.703 4.51753L198.702 4.21948Z" fill="#D0B67E"/>
    <path d="M198.747 3.96445L242.63 47.4959V47.5392H242.374L198.704 4.21914V3.96445H198.747Z" fill="#CFB57D"/>
    <path d="M199.047 3.96431L242.627 47.1972V47.4957L198.747 3.96431H199.047Z" fill="#CFB57D"/>
    <path d="M199.348 3.96431L242.629 46.8992V47.1977L199.047 3.96431H199.348Z" fill="#CFB47C"/>
    <path d="M199.649 3.96431L242.629 46.6006V46.8992L199.348 3.96431H199.649Z" fill="#CEB47B"/>
    <path d="M199.949 3.96431L242.629 46.3021V46.6006L199.648 3.96431H199.949Z" fill="#CEB47A"/>
    <path d="M200.251 3.96431L242.629 46.0035V46.3021L199.949 3.96431H200.251Z" fill="#CEB379"/>
    <path d="M200.551 3.96431L242.629 45.7055V46.004L200.251 3.9648L200.551 3.96431Z" fill="#CDB379"/>
    <path d="M200.852 3.96431L242.629 45.407V45.7055L200.551 3.96431H200.852Z" fill="#CDB278"/>
    <path d="M201.153 3.96431L242.629 45.1084V45.407L200.852 3.96431H201.153Z" fill="#CDB277"/>
    <path d="M201.454 3.96431L242.629 44.8099V45.1084L201.153 3.96431H201.454Z" fill="#CCB176"/>
    <path d="M201.755 3.96431L242.629 44.5118V44.8104L201.454 3.96431H201.755Z" fill="#CCB175"/>
    <path d="M202.055 3.96431L242.628 44.2128V44.5113L201.757 3.96431H202.055Z" fill="#CCB074"/>
    <path d="M202.357 3.96431L242.632 43.9172V44.2158L202.059 3.96726L202.357 3.96431Z" fill="#CBB074"/>
    <path d="M202.657 3.9643L242.629 43.6162V43.9147L202.354 3.96184L202.657 3.9643Z" fill="#CBAF73"/>
    <path d="M202.958 3.96431L242.629 43.3182V43.6167L202.657 3.9648L202.958 3.96431Z" fill="#CAAF72"/>
    <path d="M203.259 3.96431L242.629 43.0196V43.3182L202.958 3.96431H203.259Z" fill="#CAAE71"/>
    <path d="M203.56 3.96431L242.629 42.7211V43.0196L203.259 3.96431H203.56Z" fill="#CAAE70"/>
    <path d="M203.863 3.96431L242.631 42.4226V42.7211L203.562 3.96431H203.863Z" fill="#C9AD6F"/>
    <path d="M204.161 3.96431L242.629 42.124V42.4226L203.86 3.96431H204.161Z" fill="#C9AD6E"/>
    <path d="M204.462 3.96431L242.629 41.8274V42.126L204.162 3.96628L204.462 3.96431Z" fill="#C9AC6D"/>
    <path d="M204.763 3.96431L242.629 41.5274V41.826L204.462 3.96431H204.763Z" fill="#C8AC6C"/>
    <path d="M205.064 3.96431L242.629 41.2289V41.5274L204.763 3.96431H205.064Z" fill="#C8AB6B"/>
    <path d="M205.364 3.96431L242.629 40.9304V41.2289L205.063 3.96431H205.364Z" fill="#C8AB6A"/>
    <path d="M205.665 3.96431L242.629 40.6323V40.9309L205.365 3.9648L205.665 3.96431Z" fill="#C7AA6A"/>
    <path d="M205.964 3.96431L242.627 40.3338V40.6323L205.666 3.96431H205.964Z" fill="#C7AA69"/>
    <path d="M206.267 3.96431L242.629 40.0352V40.3338L205.966 3.96431H206.267Z" fill="#C6A968"/>
    <path d="M206.568 3.96431L242.629 39.7367V40.0352L206.267 3.96431H206.568Z" fill="#C6A867"/>
    <path d="M206.869 3.96431L242.629 39.4382V39.7367L206.568 3.96431H206.869Z" fill="#C6A866"/>
    <path d="M207.17 3.9643L242.628 39.1386V39.4372L206.868 3.96281L207.17 3.9643Z" fill="#C5A765"/>
    <path d="M207.471 3.96431L242.631 38.8431V39.1416L207.173 3.96726L207.471 3.96431Z" fill="#C5A764"/>
    <path d="M207.772 3.9643L242.63 38.543V38.8416L207.47 3.96281L207.772 3.9643Z" fill="#C5A663"/>
    <path d="M208.072 3.96431L242.629 38.2445V38.543L207.771 3.96431H208.072Z" fill="#C4A662"/>
    <path d="M208.373 3.96431L242.629 37.9465V38.245L208.073 3.9648L208.373 3.96431Z" fill="#C4A561"/>
    <path d="M208.674 3.96431L242.629 37.6479V37.9464L208.373 3.96431H208.674Z" fill="#C3A560"/>
    <path d="M208.975 3.96431L242.629 37.3494V37.6479L208.674 3.96431H208.975Z" fill="#C3A45F"/>
    <path d="M209.275 3.9643L242.629 37.0489V37.3474L208.975 3.96233L209.275 3.9643Z" fill="#C2A35E"/>
    <path d="M209.576 3.96431L242.629 36.7533V37.0518L209.275 3.96529L209.576 3.96431Z" fill="#C2A35D"/>
    <path d="M209.877 3.96431L242.629 36.4543V36.7533L209.575 3.96431H209.877Z" fill="#C2A25C"/>
    <path d="M210.178 3.96431L242.629 36.1557V36.4543L209.877 3.96431H210.178Z" fill="#C1A25B"/>
    <path d="M210.479 3.96431L242.629 35.8572V36.1557L210.178 3.96431H210.479Z" fill="#C1A15A"/>
    <path d="M210.779 3.96431L242.629 35.5591V35.8577L210.479 3.9648L210.779 3.96431Z" fill="#C0A159"/>
    <path d="M211.08 3.9643L242.63 35.2601V35.5586L210.781 3.96381L211.08 3.9643Z" fill="#C0A058"/>
    <path d="M211.381 3.96431L242.629 34.9621V35.2606L211.081 3.96431H211.381Z" fill="#BF9F57"/>
    <path d="M211.681 3.96431L242.628 34.6635V34.9621L211.383 3.96431H211.681Z" fill="#BF9F56"/>
    <path d="M211.983 3.96431L242.629 34.365V34.6635L211.682 3.96431H211.983Z" fill="#BF9E55"/>
    <path d="M212.284 3.9643L242.627 34.0645V34.363L211.98 3.96233L212.284 3.9643Z" fill="#BE9E54"/>
    <path d="M212.585 3.96431L242.63 33.7689V34.0674L212.287 3.96726L212.585 3.96431Z" fill="#BE9D53"/>
    <path d="M212.886 3.9643L242.629 33.4698V33.7684L212.584 3.96381L212.886 3.9643Z" fill="#BD9D52"/>
    <path d="M213.186 3.96431L242.629 33.1713V33.4699L212.885 3.96431H213.186Z" fill="#BD9C51"/>
    <path d="M213.487 3.96431L242.629 32.8733V33.1718L213.187 3.9648L213.487 3.96431Z" fill="#BC9B50"/>
    <path d="M213.788 3.96431L242.629 32.5747V32.8733L213.485 3.96431H213.788Z" fill="#BC9B4F"/>
    <path d="M214.089 3.96431L242.629 32.2762V32.5747L213.788 3.96431H214.089Z" fill="#BB9A4E"/>
    <path d="M214.39 3.96431L242.629 31.9777V32.2762L214.089 3.96431H214.39Z" fill="#BB9A4D"/>
    <path d="M214.69 3.96431L242.629 31.6791V31.9777L214.39 3.96431H214.69Z" fill="#BA994C"/>
    <path d="M214.991 3.96431L242.629 31.3811V31.6796L214.691 3.9648L214.991 3.96431Z" fill="#BA984B"/>
    <path d="M215.292 3.96431L242.629 31.0825V31.3811L214.991 3.96431H215.292Z" fill="#B9984A"/>
    <path d="M215.591 3.96431L242.627 30.784V31.0825L215.293 3.96431H215.591Z" fill="#B99749"/>
    <path d="M215.894 3.96431L242.629 30.4855V30.784L215.593 3.96431H215.894Z" fill="#B89748"/>
    <path d="M216.195 3.96431L242.629 30.1874V30.486L215.894 3.96431H216.195Z" fill="#B89647"/>
    <path d="M216.496 3.96431L242.629 29.8889V30.1874L216.195 3.96431H216.496Z" fill="#B79646"/>
    <path d="M216.797 3.96431L242.629 29.5903V29.8889L216.496 3.96431H216.797Z" fill="#B79545"/>
    <path d="M217.097 3.96431L242.629 29.2918V29.5903L216.796 3.96431H217.097Z" fill="#B69444"/>
    <path d="M217.399 3.96431L242.627 28.9932V29.2918L217.095 3.96431H217.399Z" fill="#B69443"/>
    <path d="M217.699 3.9643L242.629 28.6947V28.9932L217.397 3.96381L217.699 3.9643Z" fill="#B59342"/>
    <path d="M218 3.96431L242.632 28.3991V28.6977L217.702 3.96726L218 3.96431Z" fill="#B59341"/>
    <path d="M218.301 3.9643L242.629 28.0981V28.3967L217.997 3.96184L218.301 3.9643Z" fill="#B49240"/>
    <path d="M218.601 3.96431L242.629 27.8001V28.0986L218.301 3.9648L218.601 3.96431Z" fill="#B4913F"/>
    <path d="M218.902 3.96431L242.629 27.5016V27.8001L218.601 3.96431H218.902Z" fill="#B3913E"/>
    <path d="M219.203 3.96431L242.629 27.203V27.5015L218.902 3.96431H219.203Z" fill="#B3903D"/>
    <path d="M242.629 27.2025L219.202 3.96431H242.628L242.629 27.2025Z" fill="#B3903D"/>
    <path d="M223.562 12.666C223.326 13.2492 223.258 13.8865 223.367 14.5058C223.477 15.1252 223.759 15.7017 224.181 16.1702C223.554 15.1153 223.334 13.8699 223.562 12.666Z" fill="#2D452E"/>
    <path d="M231.938 16.2792C231.35 16.0444 230.708 15.9775 230.083 16.0862C229.459 16.1949 228.878 16.4748 228.406 16.8943C229.469 16.271 230.725 16.0525 231.938 16.2792Z" fill="#2D452E"/>
    <path d="M226.096 43.3375C225.964 43.3088 225.834 43.2712 225.702 43.2385L225.559 43.2068C225.737 43.2504 225.916 43.2949 226.095 43.3356" fill="#2D452E"/>
    <path d="M239.391 0H201.23C199.74 0 198.311 0.587077 197.258 1.63209C196.205 2.6771 195.613 4.09446 195.613 5.57233V43.4277C195.613 44.9056 196.205 46.3229 197.258 47.3679C198.311 48.4129 199.74 49 201.23 49H239.391C240.88 49 242.309 48.4129 243.363 47.3679C244.416 46.3229 245.008 44.9056 245.008 43.4277V5.57233C245.008 4.09446 244.416 2.6771 243.363 1.63209C242.309 0.587077 240.88 0 239.391 0ZM221.424 12.5788C221.424 14.8569 222.757 15.6215 222.757 17.8342C222.757 20.0469 221.733 20.7234 221.733 20.7234C222.035 18.9469 221.907 17.1248 221.362 15.4066C221.269 16.1445 221.547 16.2673 221.547 18.2957C221.584 19.2116 221.522 20.1288 221.362 21.0314C220.455 19.8273 219.985 18.3542 220.03 16.8517C219.939 15.3042 220.438 13.7794 221.428 12.5798M203.356 42.4739C204.395 42.5784 205.443 42.545 206.473 42.3748C208.305 41.835 209.478 40.2315 210.52 38.7428C210.731 38.4397 210.943 38.1396 211.139 37.8266C210.632 39.1687 210.85 40.7544 210.083 41.9687C208.944 43.7723 205.798 44.2398 204.08 43.0325C203.822 42.8655 203.58 42.6773 203.355 42.4699M214.209 42.4649C213.632 43.3202 212.836 44.0081 211.904 44.4585C210.971 44.9088 209.935 45.1055 208.9 45.0283C207.982 44.9682 207.077 44.7818 206.21 44.4746C206.898 44.5344 207.59 44.4566 208.247 44.2458C208.912 44.121 209.528 43.812 210.023 43.3544C211.215 42.1995 211.251 40.4484 211.578 38.933C211.807 37.3999 212.418 35.9476 213.355 34.7077C213.636 34.3858 214.182 33.742 214.182 33.742C214.027 35.0518 214.041 36.376 214.226 37.682C214.555 39.0218 215.24 40.2496 216.21 41.2378C215.413 41.3862 214.7 41.825 214.213 42.4679M230.055 44.1289C224.872 44.8747 218.295 44.0794 215.599 38.9439C214.871 37.4754 214.568 35.8355 214.724 34.2065C215.049 35.4663 215.623 36.6497 216.412 37.688C217.309 38.9216 218.439 39.9711 219.738 40.7782C221.58 41.9171 223.597 42.7504 225.71 43.2454C225.85 43.2771 225.99 43.3098 226.13 43.3385L226.213 43.3683C227.582 43.6548 228.978 43.7991 230.377 43.7991C230.957 43.7991 232.058 43.7268 232.141 43.7218C231.987 43.7446 230.706 44.0348 230.055 44.1289ZM231.787 43.3623C222.631 43.3623 215.208 38.0039 215.208 31.3946C215.261 29.8424 215.665 28.3219 216.391 26.9459C217.117 25.5698 218.146 24.3737 219.402 23.4461C220.141 22.8687 220.869 22.2794 221.598 21.694C222.31 21.1242 223.011 20.5424 223.703 19.9488C224.231 19.5221 224.731 19.0626 225.201 18.5731C225.143 18.0033 225.043 17.4385 224.901 16.8834C224.743 16.8119 224.58 16.7514 224.414 16.7021C224.201 16.6021 224.007 16.4683 223.838 16.3059C223.496 15.8972 223.245 15.4207 223.104 14.9083C222.962 14.3959 222.932 13.8593 223.016 13.3346C223.025 12.9626 223.13 12.5991 223.323 12.2797C224.014 11.2764 225.198 12.1807 225.585 12.9532C226.127 14.0368 226.229 15.8781 225.272 16.7863L225.598 18.1066L225.674 18.0155C226.611 16.7755 227.237 15.3324 227.501 13.805C227.176 12.8815 226.968 11.9213 226.882 10.9466C226.829 10.1577 226.94 9.36656 227.206 8.62145C227.472 7.87635 227.889 7.19301 228.431 6.6133C228.431 9.01021 229.206 9.31724 229.206 11.1625C229.268 11.7123 229.215 12.2691 229.05 12.7976C228.885 13.3261 228.61 13.8148 228.245 14.2329C228.585 12.6087 228.564 10.9305 228.183 9.31527C228.028 9.83823 228.121 12.4501 227.936 14.1685C227.61 15.4813 227.067 16.7316 226.33 17.8689C226.594 17.8312 227.015 17.752 227.698 17.5965C227.769 17.4397 227.83 17.2782 227.88 17.1132C227.981 16.9028 228.116 16.7101 228.279 16.5426C228.691 16.2029 229.171 15.9544 229.688 15.8138C230.204 15.6732 230.745 15.6438 231.274 15.7275C231.649 15.736 232.016 15.8407 232.338 16.0316C233.349 16.717 232.438 17.8917 231.659 18.2759C230.566 18.8148 228.711 18.9148 227.795 17.965L225.998 18.4107L225.767 18.7771C225.736 18.824 225.703 18.869 225.667 18.9118C225.168 19.518 224.626 20.0915 224.08 20.659C222.826 21.8177 221.741 23.1438 220.856 24.599C220.003 26.2367 219.561 28.0547 219.569 29.898C219.571 31.8831 220.081 33.8352 221.052 35.5711C222.022 37.3069 223.422 38.7695 225.119 39.8214C228.193 41.7885 231.783 42.8137 235.441 42.769C236.04 42.769 236.639 42.7413 237.22 42.6908C235.444 43.1321 233.619 43.354 231.787 43.3514M222.61 22.9262C222.61 22.9262 225.584 19.515 229.799 19.515C230.867 19.5417 231.907 19.8609 232.804 20.4371C231.751 20.4985 231.192 21.1126 230.046 21.8505C228.9 22.5884 227.63 23.9711 225.213 23.9711C224.506 23.9789 223.811 23.7987 223.199 23.4491C224.345 23.2956 227.598 22.6805 229.09 21.2057C227.084 22.2419 224.874 22.8295 222.615 22.9272M236.03 10.9723C235.069 12.2015 233.583 14.8757 231.138 14.8757C230.78 14.8833 230.424 14.8314 230.083 14.7222C231.885 14.108 233.468 12.9867 234.638 11.4953C233.523 12.3253 231.076 14.5994 229.495 14.5994C229.901 12.9067 230.504 11.2667 231.292 9.71244C231.764 8.62713 232.357 7.59731 233.059 6.64201C231.789 8.0861 230.762 9.25485 230.762 10.5147C230.553 10.0402 230.447 9.52712 230.453 9.00923C230.453 8.11781 232.032 6.42709 232.838 5.69018C233.644 4.95328 234.264 4.49174 234.264 3.96877C234.418 5.84371 234.697 6.67273 233.829 7.87119C232.962 9.06964 232.032 9.62329 231.533 10.484C231.034 11.3447 229.984 12.663 229.984 13.8644C230.697 12.9423 232.432 9.74612 236.15 9.74612C236.534 9.74562 236.915 9.8058 237.28 9.92439C237.206 9.90656 236.864 9.9036 236.026 10.9753" fill="#445740"/>
</svg>
