<svg width="184" height="33" viewBox="0 0 184 33" fill="none" xmlns="http://www.w3.org/2000/svg">
    <path d="M4.92291 13.7505H3.63391V15.0292H4.92291V13.7505Z" fill="#51504E"/>
    <path d="M6.85589 13.7505H5.55591V15.0292H6.85589V13.7505Z" fill="#51504E"/>
    <path d="M12.4002 7.33623C12.1816 6.98337 12.0787 6.57191 12.1057 6.15858C12.084 5.8012 12.1901 5.4477 12.4052 5.1602C12.5158 5.03695 12.6534 4.94051 12.8074 4.87834C12.9615 4.81618 13.1279 4.78995 13.2938 4.80166C13.4238 4.79714 13.5533 4.81875 13.6746 4.86523C13.796 4.9117 13.9065 4.98207 13.9997 5.07206C14.1987 5.27495 14.331 5.5329 14.3791 5.81192H15.8039C15.7498 5.19034 15.4888 4.60429 15.0621 4.14599C14.8219 3.93565 14.5417 3.77521 14.238 3.67415C13.9343 3.5731 13.6132 3.53347 13.2938 3.55763C12.8527 3.54662 12.4132 3.61371 11.9958 3.75573C11.6715 3.86944 11.3789 4.05782 11.1422 4.30543C10.9223 4.54272 10.7597 4.82657 10.6669 5.13545C10.5675 5.46817 10.5181 5.81358 10.5201 6.16058C10.5164 6.47147 10.5801 6.77951 10.7068 7.06386C10.8054 7.29763 10.9454 7.51199 11.1202 7.69677V7.74136H7.80235C7.68853 7.74136 7.54975 7.73442 7.385 7.71957C7.22026 7.70471 7.04852 7.68292 6.87479 7.65122C6.709 7.6234 6.54499 7.58603 6.38357 7.5393C6.25543 7.50569 6.13176 7.45716 6.01514 7.39469V8.67336C6.22148 8.80956 6.44875 8.91158 6.68809 8.97544C6.87755 9.02953 7.07312 9.05981 7.27019 9.06558C7.34571 9.06513 7.41944 9.08837 7.48086 9.13196C7.54354 9.17716 7.5982 9.2324 7.64261 9.29539C7.68601 9.35591 7.71968 9.42271 7.74245 9.49346C7.76286 9.54706 7.77432 9.6036 7.77639 9.66086C7.77987 9.85249 7.71558 10.0393 7.59468 10.1888C7.45966 10.3489 7.28868 10.4755 7.09546 10.5582C6.84861 10.6644 6.5888 10.738 6.32266 10.7771C5.99232 10.8276 5.65844 10.8518 5.32421 10.8494C4.89423 10.8564 4.46519 10.8071 4.0482 10.7028C3.70652 10.6189 3.39272 10.4482 3.13761 10.2076C2.87858 9.9493 2.68788 9.63153 2.58247 9.28251C2.44617 8.81624 2.37891 8.33279 2.38279 7.84733H0.991943C0.992766 8.44826 1.06686 9.04687 1.21261 9.63015C1.33617 10.1331 1.57538 10.601 1.91152 10.997C2.26993 11.3949 2.72299 11.6976 3.22946 11.8775C3.89441 12.1047 4.59528 12.2107 5.29825 12.1905C5.83693 12.1981 6.37421 12.1342 6.89577 12.0003C7.31472 11.894 7.71451 11.724 8.08093 11.4962C8.37512 11.3153 8.62893 11.0767 8.82676 10.7949C8.99078 10.5674 9.08163 10.2961 9.08736 10.0164C9.08303 9.8469 9.04926 9.67936 8.98752 9.52121C8.9316 9.35794 8.84333 9.20739 8.72791 9.07845H15.8538V7.75424H13.3787C13.1938 7.77247 13.0073 7.7452 12.8356 7.67489C12.6639 7.60458 12.5123 7.49338 12.3942 7.35111" fill="#51504E"/>
    <path d="M32.5419 1.04587H31.241V2.32455H32.5419V1.04587Z" fill="#51504E"/>
    <path d="M30.6089 1.04587H29.3199V2.32455H30.6089V1.04587Z" fill="#51504E"/>
    <path d="M40.9659 8.28414C40.936 8.12302 40.9057 7.91732 40.875 7.66706C40.8444 7.41681 40.8068 7.08666 40.7622 6.67661C40.722 6.24757 40.6132 5.82764 40.4397 5.43261C40.2777 5.05557 40.0391 4.71568 39.7389 4.43417C39.4386 4.15265 39.083 3.93554 38.6944 3.79636C38.2308 3.63054 37.7405 3.5503 37.2477 3.55963C36.8344 3.55915 36.4239 3.62609 36.0326 3.75773C35.6591 3.88089 35.3079 4.06245 34.9922 4.29555C34.6931 4.51707 34.4416 4.79553 34.2523 5.11466C34.0649 5.43067 33.9564 5.78657 33.9358 6.15266H35.3836C35.4194 5.97433 35.4929 5.80555 35.5993 5.65743C35.7142 5.49005 35.8578 5.34389 36.0236 5.22559C36.1986 5.0989 36.3904 4.9969 36.5937 4.92251C36.8035 4.84471 37.0257 4.80511 37.2497 4.80562C37.7177 4.79461 38.1716 4.96519 38.5147 5.28105C38.8754 5.62508 39.1036 6.08335 39.1597 6.57659C39.1737 6.71129 39.1947 6.84698 39.2216 6.98664L39.2945 7.36102C39.3254 7.49572 39.3514 7.6235 39.3744 7.74236H32.7846C32.6671 7.74222 32.5506 7.72177 32.4402 7.68194C32.3225 7.6402 32.216 7.57244 32.1286 7.48383C32.0331 7.3857 31.9584 7.26949 31.909 7.14212C31.8488 6.98401 31.82 6.81585 31.8241 6.64689V4.28763H30.2186V6.86283C30.2238 7.00912 30.1969 7.15478 30.1397 7.28972C30.0927 7.39229 30.0247 7.48404 29.9401 7.55913C29.866 7.62309 29.7793 7.67099 29.6854 7.69977C29.6044 7.72358 29.5204 7.73624 29.4358 7.7374H27.6955C27.5684 7.73744 27.4416 7.7245 27.3171 7.69877C27.1993 7.67515 27.0865 7.63159 26.9836 7.57001C26.8861 7.51035 26.8032 7.42981 26.741 7.33427C26.6725 7.22692 26.6377 7.10175 26.6412 6.97473V6.66473C26.6499 6.24732 26.5707 5.8327 26.4085 5.44745C26.2662 5.11599 26.0501 4.82074 25.7765 4.58376C25.5001 4.35087 25.1792 4.17571 24.833 4.06873C24.0667 3.83637 23.2479 3.83637 22.4817 4.06873C22.1351 4.17559 21.8138 4.35076 21.5371 4.58376C21.2634 4.82057 21.0473 5.11587 20.9051 5.44745C20.7427 5.83263 20.6634 6.2473 20.6725 6.66473V6.97772C20.6761 7.10477 20.6414 7.22998 20.5726 7.33723C20.5098 7.4326 20.4267 7.51309 20.329 7.57297C20.2247 7.63528 20.1101 7.67887 19.9905 7.70173C19.8673 7.72698 19.7419 7.73992 19.6161 7.74036H18.5857V1.04684H16.9922V9.06461H19.708C20.0055 9.06558 20.298 8.98833 20.5556 8.84076C20.7967 8.712 20.9992 8.52238 21.1427 8.29106C21.4016 8.6684 21.7675 8.96106 22.1941 9.13196C23.1404 9.49126 24.1872 9.49126 25.1335 9.13196C25.5601 8.96136 25.9257 8.66862 26.1839 8.29106C26.3277 8.52282 26.531 8.71252 26.773 8.84076C27.0301 8.98869 27.3224 9.06597 27.6197 9.06461H29.4318C29.5719 9.06351 29.7117 9.05225 29.8502 9.03094C30.018 9.0065 30.1829 8.96536 30.3424 8.90813C30.5186 8.84488 30.6887 8.76598 30.8506 8.6724C31.0238 8.57197 31.1784 8.443 31.3079 8.29106C31.3908 8.39559 31.4841 8.4915 31.5865 8.5773C31.6963 8.67112 31.8154 8.75374 31.9419 8.82392C32.0715 8.89539 32.208 8.95378 32.3493 8.99824C32.4881 9.04225 32.6329 9.06465 32.7786 9.06461H41.1356C41.0987 8.92991 41.0677 8.8071 41.0448 8.69419C41.0218 8.58128 40.9949 8.44557 40.9659 8.2861M24.8909 7.24317C24.8385 7.41638 24.7538 7.5783 24.6413 7.72057C24.5313 7.85545 24.3925 7.96438 24.2349 8.03948C24.0546 8.11695 23.8603 8.15691 23.6638 8.15691C23.4673 8.15691 23.273 8.11695 23.0927 8.03948C22.9348 7.96445 22.7956 7.85552 22.6853 7.72057C22.5731 7.57825 22.4888 7.41632 22.4367 7.24317C22.3239 6.85859 22.3239 6.45007 22.4367 6.06549C22.4894 5.89139 22.5737 5.72828 22.6853 5.58413C22.7944 5.44646 22.9337 5.33534 23.0927 5.25926C23.273 5.18179 23.4673 5.14183 23.6638 5.14183C23.8603 5.14183 24.0546 5.18179 24.2349 5.25926C24.3936 5.33541 24.5326 5.44653 24.6413 5.58413C24.7533 5.72823 24.8378 5.89133 24.8909 6.06549C25.0023 6.45026 25.0023 6.8584 24.8909 7.24317Z" fill="#51504E"/>
    <path d="M37.8457 10.1284H36.2402V11.4407H37.8457V10.1284Z" fill="#51504E"/>
    <path d="M46.8496 7.7384H44.7249V3.10899H43.1184V7.73937H41.8754V9.06362H48.4542V1.04089H46.8487L46.8496 7.7384Z" fill="#51504E"/>
    <path d="M51.4186 1.04587H49.8131V9.06364H51.4186V1.04587Z" fill="#51504E"/>
    <path d="M60.217 3.40115H58.6115V4.71252H60.217V3.40115Z" fill="#51504E"/>
    <path d="M62.092 6.96584C62.102 7.49576 62.047 8.02492 61.9282 8.54167C61.8402 8.92767 61.6666 9.28937 61.42 9.60047C61.1922 9.8749 60.8933 10.0824 60.5554 10.2007C60.1583 10.3314 59.7416 10.3941 59.3233 10.3859C58.8978 10.394 58.4739 10.3314 58.0692 10.2007C57.7265 10.0852 57.423 9.87737 57.1926 9.60047C56.9463 9.28918 56.7727 8.92755 56.6844 8.54167C56.5656 8.02492 56.5106 7.49576 56.5206 6.96584V5.92288H54.994V6.96584C54.9911 7.58905 55.052 8.21094 55.1757 8.82196C55.2818 9.3688 55.5078 9.88581 55.8377 10.3364C56.1833 10.7855 56.641 11.1375 57.1656 11.3575C58.5721 11.8583 60.1104 11.8583 61.5168 11.3575C62.0477 11.1343 62.5086 10.7742 62.8518 10.3146C63.1869 9.84514 63.4164 9.30977 63.5247 8.7447C63.6531 8.10421 63.7157 7.45246 63.7115 6.79945V5.68814H62.0939L62.092 6.96584Z" fill="#51504E"/>
    <path d="M80.2937 1.35886H78.6882V2.67121H80.2937V1.35886Z" fill="#51504E"/>
    <path d="M93.573 7.73939H91.5351C91.4176 7.73881 91.3011 7.71805 91.1907 7.678C91.0732 7.6366 90.9669 7.56879 90.8802 7.47989C90.7845 7.38165 90.7094 7.26549 90.6595 7.13818C90.5999 6.97992 90.5711 6.81187 90.5746 6.64295V1.04687H88.9691V6.86285C88.9743 7.00923 88.947 7.15495 88.8893 7.28974C88.8428 7.39261 88.7747 7.48446 88.6896 7.55915C88.6157 7.6232 88.5289 7.67081 88.4349 7.69879C88.3543 7.723 88.2706 7.736 88.1863 7.73742H87.2298C87.0885 7.73654 86.9479 7.71755 86.8115 7.68096C86.6725 7.64571 86.5405 7.58743 86.4211 7.50861C86.303 7.42782 86.2061 7.32018 86.1385 7.19465C86.0628 7.04351 86.026 6.87605 86.0317 6.70734V6.31116C86.0431 5.91361 85.9578 5.51916 85.7831 5.16122C85.6252 4.85152 85.3943 4.58415 85.1101 4.38175C84.8094 4.17138 84.4703 4.02099 84.1117 3.93899C83.7138 3.84368 83.3058 3.79645 82.8966 3.79835C82.4774 3.79755 82.0617 3.8738 81.6705 4.0232C81.2737 4.17314 80.8979 4.37287 80.5522 4.61748C80.2002 4.86465 79.8711 5.1424 79.5687 5.44747C79.274 5.7413 78.9966 6.05183 78.738 6.37751H78.6921V4.59469H77.1555V7.73346H75.7726C75.6455 7.73346 75.5187 7.72051 75.3942 7.69483C75.2765 7.67106 75.1637 7.62751 75.0608 7.56607C74.9629 7.50637 74.8797 7.42585 74.8171 7.33033C74.7491 7.22276 74.7144 7.09775 74.7173 6.97079V6.66475C74.7261 6.24734 74.6469 5.83272 74.4847 5.44747C74.3421 5.11583 74.1257 4.82054 73.8516 4.58378C73.5753 4.35163 73.2548 4.17685 72.9091 4.06975C72.1425 3.83742 71.3234 3.83742 70.5567 4.06975C70.2102 4.17631 69.889 4.35113 69.6122 4.58378C69.3387 4.82076 69.1226 5.11601 68.9802 5.44747C68.818 5.83272 68.7388 6.24734 68.7476 6.66475V6.97774C68.751 7.10476 68.7162 7.22988 68.6477 7.33726C68.5851 7.43271 68.5019 7.51322 68.4041 7.57299C68.2998 7.63523 68.1852 7.67882 68.0656 7.70176C67.9428 7.7269 67.8177 7.73984 67.6922 7.74038H66.6758V1.04587H65.0713V9.06859H67.7861C68.0836 9.06979 68.3762 8.99253 68.6337 8.84474C68.8753 8.71628 69.0782 8.52661 69.2218 8.29504C69.4803 8.67275 69.8463 8.96551 70.2732 9.13594C71.2195 9.49534 72.2663 9.49534 73.2126 9.13594C73.639 8.96559 74.0044 8.67278 74.262 8.29504C74.4066 8.52654 74.6101 8.71614 74.8521 8.84474C75.1095 8.99284 75.4021 9.07013 75.6997 9.06859H85.7531C85.8329 8.95546 85.8939 8.83041 85.9338 8.69817C85.9708 8.5882 86.0008 8.47604 86.0237 8.36238H86.0686C86.1134 8.47423 86.1815 8.57549 86.2683 8.65954C86.3553 8.74586 86.4541 8.81954 86.5619 8.87841C86.6691 8.93744 86.7827 8.98464 86.9003 9.01908C87.0086 9.05144 87.1208 9.06844 87.2338 9.06959H88.1903C88.3301 9.06844 88.4696 9.05719 88.6077 9.03592C88.7755 9.01168 88.9405 8.9705 89.0999 8.91308C89.2762 8.85007 89.4464 8.77119 89.6081 8.67737C89.7817 8.57712 89.9367 8.44814 90.0664 8.29604C90.148 8.40102 90.2407 8.49699 90.343 8.58228C90.453 8.67641 90.5724 8.75905 90.6994 8.8289C90.8286 8.90056 90.9647 8.95896 91.1058 9.00321C91.2445 9.04759 91.3894 9.07031 91.5351 9.07056H95.1775V1.04786H93.573V7.73939ZM72.969 7.24416C72.917 7.41754 72.8323 7.57954 72.7194 7.72155C72.6094 7.85639 72.4706 7.96534 72.313 8.0405C72.1327 8.11774 71.9383 8.15757 71.7419 8.15757C71.5455 8.15757 71.3511 8.11774 71.1708 8.0405C71.0132 7.96499 70.8741 7.85611 70.7634 7.72155C70.6508 7.57964 70.5667 7.41757 70.5158 7.24416C70.4017 6.85976 70.4017 6.4509 70.5158 6.06651C70.5675 5.89187 70.6514 5.72829 70.7634 5.58415C70.8729 5.44685 71.0121 5.3358 71.1708 5.25928C71.3511 5.18175 71.5454 5.14176 71.7419 5.14176C71.9384 5.14176 72.1328 5.18175 72.313 5.25928C72.4716 5.33549 72.6106 5.4466 72.7194 5.58415C72.8317 5.72839 72.9163 5.89189 72.969 6.06651C73.0818 6.45108 73.0818 6.85958 72.969 7.24416ZM84.4292 7.73939H79.1164C79.17 7.65236 79.228 7.56806 79.2902 7.48682C79.39 7.34914 79.5288 7.18274 79.6985 6.99159C79.8683 6.80043 80.065 6.59542 80.2916 6.37554C80.5232 6.15374 80.7727 5.95102 81.0375 5.76938C81.3087 5.58324 81.6009 5.429 81.9081 5.30979C82.2142 5.19106 82.54 5.13059 82.8686 5.13151C83.2657 5.11126 83.6607 5.20039 84.0098 5.38904C84.1592 5.49891 84.2766 5.64604 84.3501 5.81548C84.4235 5.98492 84.4505 6.17063 84.4282 6.35375L84.4292 7.73939Z" fill="#51504E"/>
    <path d="M101.251 1.04587H99.9622V2.32455H101.251V1.04587Z" fill="#51504E"/>
    <path d="M103.184 1.04587H101.884V2.32455H103.184V1.04587Z" fill="#51504E"/>
    <path d="M110.869 4.24207C110.594 4.00653 110.273 3.83044 109.926 3.72505C109.544 3.61099 109.148 3.55456 108.75 3.55766C108.352 3.55327 107.957 3.61384 107.579 3.73693C107.235 3.84844 106.917 4.02993 106.647 4.26982C106.38 4.50937 106.17 4.80422 106.031 5.13348C105.877 5.50895 105.801 5.91175 105.81 6.31709C105.812 6.58371 105.875 6.84636 105.996 7.08469C106.106 7.31333 106.257 7.5201 106.442 7.69481V7.73939H105.105C104.975 7.75242 104.844 7.736 104.722 7.69139C104.599 7.64678 104.489 7.57513 104.398 7.48186C104.233 7.20902 104.16 6.89062 104.191 6.57362V3.74784H101.58C101.17 3.7406 100.762 3.80774 100.377 3.94594C100.055 4.06255 99.7635 4.24821 99.5228 4.48969C99.2967 4.72453 99.1262 5.00637 99.0236 5.31475C98.9116 5.645 98.856 5.99146 98.8589 6.33988C98.8528 6.68593 98.9244 7.029 99.0685 7.34421C99.2009 7.62992 99.3913 7.88549 99.6277 8.09497C99.8683 8.30374 100.146 8.46569 100.447 8.57237C100.768 8.68496 101.106 8.7416 101.446 8.73976C101.791 8.74415 102.131 8.66131 102.435 8.49907C102.713 8.35453 102.955 8.1497 103.142 7.89983C103.256 8.23877 103.471 8.53547 103.758 8.75065C104.047 8.96241 104.398 9.07319 104.757 9.0656H108.75C109.149 9.06938 109.546 9.01261 109.927 8.89724C110.273 8.79379 110.594 8.62047 110.87 8.38814C111.143 8.15268 111.359 7.85958 111.502 7.53041C111.811 6.75196 111.811 5.88617 111.502 5.10773C111.358 4.77766 111.142 4.48313 110.87 4.24504M102.677 6.2527C102.683 6.44439 102.649 6.63523 102.577 6.81331C102.519 6.95731 102.43 7.08732 102.317 7.19465C102.212 7.29204 102.086 7.3648 101.949 7.40759C101.812 7.45214 101.67 7.47487 101.526 7.47494C101.217 7.49587 100.912 7.39516 100.678 7.19465C100.572 7.08034 100.491 6.94569 100.439 6.79902C100.388 6.65235 100.367 6.49674 100.379 6.34184C100.36 5.99733 100.466 5.65756 100.678 5.38409C100.791 5.26176 100.931 5.16647 101.087 5.1054C101.242 5.04433 101.41 5.01904 101.577 5.03147H102.675L102.677 6.2527ZM109.978 6.90345C109.925 7.07448 109.84 7.23431 109.729 7.37489C109.619 7.51001 109.48 7.619 109.322 7.69384C109.143 7.77597 108.947 7.81628 108.75 7.81169C108.565 7.8248 108.379 7.79402 108.208 7.72186C108.037 7.6497 107.886 7.53824 107.767 7.39668C107.538 7.08559 107.422 6.70612 107.44 6.32105C107.438 6.11985 107.466 5.91949 107.524 5.72676C107.576 5.55209 107.661 5.38853 107.773 5.24441C107.882 5.10703 108.021 4.99595 108.179 4.91954C108.36 4.84201 108.554 4.80202 108.75 4.80202C108.947 4.80202 109.141 4.84201 109.322 4.91954C109.481 4.99529 109.62 5.10647 109.729 5.24441C109.841 5.3889 109.925 5.55235 109.978 5.72676C110.035 5.9196 110.064 6.11991 110.061 6.32105C110.063 6.51859 110.035 6.7153 109.978 6.90445" fill="#51504E"/>
    <path d="M125.15 7.73937H123.404C123.268 7.73937 123.112 7.73938 122.935 7.74532C122.759 7.75127 122.583 7.75125 122.409 7.75125H122.01V7.69382C122.293 7.44329 122.515 7.13289 122.661 6.78558C122.76 6.51234 122.811 6.22422 122.813 5.93376C122.821 5.61773 122.766 5.30324 122.65 5.00869C122.552 4.76657 122.397 4.55125 122.198 4.38073C121.994 4.2136 121.755 4.09321 121.499 4.02814C121.205 3.95092 120.903 3.91293 120.6 3.91521H115.987V4.11332C116.213 4.34029 116.395 4.60652 116.524 4.89875C116.679 5.2289 116.826 5.56896 116.966 5.91892C117.105 6.26889 117.249 6.60529 117.395 6.92818C117.514 7.20962 117.683 7.4676 117.894 7.68986V7.73441H114.469V1.04089H112.863V9.05766H126.75V1.04089H125.145L125.15 7.73937ZM121.104 6.51813C121.034 6.73865 120.933 6.94835 120.805 7.14113C120.68 7.32784 120.521 7.48951 120.336 7.61756C120.156 7.74289 119.941 7.80934 119.72 7.80771C119.569 7.80756 119.423 7.74938 119.313 7.64528C119.183 7.5255 119.074 7.38531 118.991 7.2303C118.892 7.05139 118.807 6.86569 118.736 6.67464C118.66 6.47655 118.588 6.27845 118.516 6.08036C118.444 5.88227 118.375 5.70694 118.308 5.54847C118.259 5.41573 118.182 5.29489 118.082 5.19391H120.297C120.524 5.18799 120.747 5.24639 120.941 5.36227C121.031 5.41763 121.103 5.496 121.151 5.58897C121.199 5.68195 121.22 5.78604 121.213 5.89018C121.209 6.10336 121.173 6.31475 121.105 6.51716" fill="#51504E"/>
    <path d="M129.719 1.04587H128.113V9.06364H129.719V1.04587Z" fill="#51504E"/>
    <path d="M135.792 1.04587H134.503V2.32455H135.792V1.04587Z" fill="#51504E"/>
    <path d="M137.724 1.04587H136.424V2.32455H137.724V1.04587Z" fill="#51504E"/>
    <path d="M159.212 7.73942H157.979C157.893 7.74385 157.808 7.73026 157.728 7.69952C157.649 7.66879 157.576 7.62162 157.517 7.56115C157.387 7.38707 157.326 7.17153 157.347 6.95595V4.52239H155.741V6.99854C155.753 7.10783 155.741 7.21832 155.707 7.32278C155.672 7.42724 155.616 7.5233 155.542 7.6047C155.363 7.73747 155.142 7.8009 154.92 7.78301C154.682 7.7952 154.447 7.73279 154.248 7.6047C154.158 7.53241 154.088 7.4392 154.043 7.33342C153.999 7.22764 153.982 7.11258 153.993 6.99854V4.73534H152.388V6.95495C152.408 7.17041 152.348 7.38593 152.219 7.56015C152.159 7.62078 152.086 7.66803 152.006 7.69877C151.926 7.7295 151.84 7.74301 151.755 7.73842H150.189C150.104 7.74318 150.018 7.72973 149.938 7.69898C149.859 7.66823 149.786 7.62089 149.727 7.56015C149.596 7.38636 149.536 7.17059 149.557 6.95495V4.28569H147.952V7.01341C147.964 7.1227 147.952 7.23317 147.918 7.33762C147.883 7.44207 147.827 7.53814 147.753 7.61957C147.574 7.75244 147.353 7.81618 147.131 7.79885C146.893 7.81048 146.658 7.74777 146.458 7.61957C146.368 7.54738 146.298 7.45423 146.253 7.34844C146.208 7.24265 146.191 7.12754 146.202 7.01341V4.52439H144.597V7.01341C144.608 7.12271 144.597 7.23324 144.562 7.33771C144.528 7.44219 144.471 7.53825 144.397 7.61957C144.219 7.75261 143.997 7.81637 143.775 7.79885C143.538 7.81013 143.303 7.74745 143.103 7.61957C143.013 7.54728 142.943 7.45407 142.899 7.34829C142.854 7.24251 142.837 7.12745 142.848 7.01341V4.73534H141.244V6.95495C141.265 7.17055 141.204 7.38615 141.074 7.56015C141.014 7.62083 140.941 7.66812 140.861 7.69886C140.781 7.7296 140.696 7.74308 140.61 7.73842H139.658C139.528 7.75168 139.397 7.73538 139.275 7.69076C139.152 7.64613 139.042 7.57434 138.951 7.48089C138.786 7.20816 138.712 6.88976 138.743 6.57265V3.74488H136.132C135.722 3.73767 135.314 3.80481 134.928 3.94298C134.606 4.0602 134.315 4.24581 134.074 4.48676C133.849 4.72211 133.678 5.00377 133.575 5.31179C133.464 5.64222 133.408 5.98859 133.411 6.33692C133.405 6.683 133.476 7.02612 133.621 7.34125C133.753 7.62727 133.943 7.88318 134.18 8.09301C134.42 8.30182 134.699 8.46377 135 8.57041C135.32 8.68233 135.658 8.73862 135.998 8.7368C136.343 8.7414 136.684 8.65855 136.988 8.49611C137.266 8.35315 137.507 8.15005 137.694 7.90186C137.808 8.2408 138.023 8.53746 138.31 8.75264C138.599 8.96407 138.95 9.07484 139.309 9.06763H141.45C141.592 9.06764 141.732 9.03865 141.863 8.98245C141.987 8.93164 142.105 8.86505 142.212 8.78435C142.304 8.71555 142.388 8.63644 142.461 8.54861C142.511 8.49613 142.547 8.43267 142.568 8.36342H142.614C142.721 8.60467 142.917 8.7956 143.163 8.89628C143.487 9.04356 143.84 9.11474 144.196 9.10426C144.555 9.11514 144.913 9.05417 145.248 8.92499C145.524 8.8069 145.759 8.61181 145.926 8.36342H145.971C146.077 8.60455 146.273 8.79548 146.519 8.89628C146.843 9.04368 147.197 9.11485 147.553 9.10426C147.911 9.11526 148.268 9.05428 148.602 8.92499C148.879 8.80771 149.115 8.61246 149.281 8.36342H149.326C149.371 8.47515 149.439 8.57634 149.526 8.66054C149.613 8.74703 149.712 8.82075 149.82 8.87944C149.927 8.93878 150.041 8.98595 150.159 9.02008C150.267 9.05285 150.379 9.06986 150.492 9.07059H152.601C152.743 9.07098 152.883 9.04233 153.014 8.98641C153.139 8.93594 153.257 8.86933 153.365 8.78831C153.457 8.71939 153.54 8.64029 153.614 8.55257C153.663 8.49998 153.7 8.43656 153.72 8.36737H153.765C153.872 8.60845 154.068 8.79935 154.314 8.90024C154.638 9.04767 154.992 9.11885 155.348 9.10822C155.707 9.11891 156.064 9.05795 156.399 8.92895C156.676 8.81083 156.911 8.61577 157.078 8.36737H157.123C157.168 8.47943 157.236 8.58074 157.323 8.6645C157.409 8.75119 157.508 8.82493 157.616 8.8834C157.724 8.94211 157.838 8.98926 157.956 9.02404C158.064 9.05614 158.176 9.0728 158.289 9.07355H160.831V4.29657H159.212V7.73942ZM137.217 6.24878C137.223 6.44045 137.189 6.63126 137.117 6.80938C137.059 6.95329 136.97 7.08325 136.858 7.19069C136.753 7.28784 136.627 7.36031 136.49 7.40267C136.354 7.44747 136.211 7.47054 136.067 7.47101C135.758 7.49167 135.453 7.39097 135.218 7.19069C135.113 7.07592 135.033 6.94108 134.983 6.79442C134.932 6.64777 134.912 6.4924 134.925 6.33791C134.906 5.99336 135.012 5.65344 135.224 5.38013C135.337 5.25769 135.477 5.16234 135.633 5.10126C135.788 5.04018 135.956 5.01497 136.123 5.02754H137.221L137.217 6.24878Z" fill="#51504E"/>
    <path d="M164.158 1.52922H163.265C163.211 1.53425 163.157 1.52665 163.107 1.50703C163.057 1.48741 163.012 1.45634 162.976 1.41632C162.916 1.32701 162.886 1.22063 162.892 1.11324C162.885 1.00816 162.917 0.903978 162.982 0.821046C163.008 0.789804 163.041 0.764724 163.078 0.747596C163.115 0.730467 163.156 0.721712 163.197 0.721994C163.279 0.718901 163.36 0.746447 163.423 0.799253C163.487 0.861752 163.523 0.946446 163.523 1.03499H164.133C164.129 0.907717 164.095 0.783171 164.034 0.671486C163.981 0.574708 163.908 0.490261 163.82 0.423871C163.731 0.359519 163.631 0.311851 163.525 0.283227C163.417 0.25397 163.304 0.239306 163.192 0.239641C162.941 0.226759 162.694 0.301808 162.493 0.451619C162.404 0.525065 162.334 0.618122 162.288 0.723384C162.241 0.828646 162.221 0.943187 162.227 1.05778C162.226 1.21736 162.282 1.37221 162.385 1.49455V1.52822H162.024V2.04328H164.148L164.158 1.52922Z" fill="#51504E"/>
    <path d="M178.839 7.73937H177.092C176.965 7.73936 176.838 7.72641 176.714 7.70074C176.596 7.67713 176.483 7.63357 176.38 7.57198C176.283 7.51248 176.2 7.43193 176.138 7.33627C176.069 7.22889 176.034 7.10374 176.038 6.97673V6.66473C176.047 6.24732 175.967 5.8327 175.805 5.44745C175.663 5.11566 175.446 4.82031 175.172 4.58376C174.896 4.35099 174.575 4.17583 174.23 4.06873C173.463 3.83641 172.644 3.83641 171.877 4.06873C171.531 4.17559 171.209 4.35076 170.933 4.58376C170.659 4.82041 170.443 5.11576 170.301 5.44745C170.138 5.8327 170.059 6.24732 170.068 6.66473V6.97772C170.071 7.10472 170.037 7.22979 169.968 7.33724C169.906 7.43282 169.822 7.51336 169.725 7.57297C169.62 7.63542 169.506 7.67902 169.386 7.70174C169.263 7.72694 169.137 7.73988 169.012 7.74037H167.529C167.537 7.6126 167.542 7.48581 167.546 7.35903C167.55 7.23225 167.546 7.09756 167.546 6.95493C167.552 6.47617 167.503 5.99831 167.399 5.53067C167.317 5.14585 167.154 4.78281 166.919 4.46591C166.694 4.17151 166.396 3.93984 166.054 3.7934C165.643 3.62549 165.201 3.54517 164.756 3.55767C164.308 3.54507 163.863 3.62921 163.45 3.80428C163.112 3.95353 162.813 4.18026 162.58 4.46591C162.357 4.74408 162.194 5.06465 162.1 5.40782C162.002 5.76274 161.953 6.12925 161.954 6.49734C161.948 6.8617 162.008 7.22411 162.129 7.56802C162.237 7.86916 162.407 8.14454 162.629 8.37624C162.849 8.59964 163.116 8.77328 163.41 8.88534C163.737 9.0088 164.084 9.06964 164.433 9.06462H165.831C165.812 9.28145 165.75 9.49241 165.648 9.68501C165.546 9.87762 165.406 10.0479 165.237 10.1858C164.826 10.4504 164.341 10.5762 163.853 10.5444C163.705 10.5452 163.557 10.5302 163.412 10.4998C163.266 10.4672 163.122 10.4221 162.983 10.3651V11.5645C163.065 11.5952 163.16 11.6249 163.266 11.6547C163.373 11.6809 163.483 11.6994 163.593 11.7101C163.736 11.7262 163.879 11.7338 164.022 11.7329C164.847 11.7827 165.663 11.5448 166.329 11.0604C166.916 10.545 167.293 9.83517 167.391 9.06362H169.089C169.386 9.06481 169.679 8.98758 169.937 8.83979C170.178 8.71119 170.381 8.52151 170.524 8.29007C170.784 8.66748 171.15 8.96013 171.577 9.13096C172.523 9.4903 173.569 9.4903 174.515 9.13096C174.942 8.96042 175.307 8.66767 175.566 8.29007C175.709 8.52189 175.913 8.71163 176.155 8.83979C176.412 8.98773 176.704 9.06498 177.001 9.06362H180.432V1.04089H178.827L178.839 7.73937ZM165.966 7.73937H164.768C164.568 7.74457 164.367 7.71818 164.175 7.66114C164.033 7.61682 163.906 7.53337 163.809 7.42045C163.715 7.30538 163.651 7.16941 163.622 7.02427C163.586 6.84333 163.569 6.65908 163.571 6.47458C163.571 6.26761 163.592 6.06114 163.634 5.8585C163.669 5.66896 163.737 5.48675 163.834 5.31968C163.924 5.16652 164.05 5.03762 164.202 4.9443C164.373 4.84534 164.569 4.79658 164.767 4.80366C164.972 4.79602 165.174 4.84693 165.349 4.95026C165.508 5.05217 165.635 5.19582 165.717 5.36524C165.816 5.57378 165.881 5.79688 165.909 6.02589C165.949 6.31966 165.968 6.61589 165.965 6.91234L165.966 7.73937ZM174.284 7.24414C174.232 7.41737 174.147 7.57934 174.035 7.72154C173.925 7.85621 173.786 7.96513 173.629 8.04049C173.448 8.11795 173.254 8.15792 173.057 8.15792C172.861 8.15792 172.667 8.11795 172.486 8.04049C172.329 7.96552 172.19 7.85654 172.08 7.72154C171.967 7.5797 171.883 7.41763 171.831 7.24414C171.718 6.85965 171.718 6.45098 171.831 6.06649C171.883 5.89206 171.968 5.7288 172.08 5.58513C172.189 5.44741 172.328 5.33626 172.486 5.26026C172.667 5.18279 172.861 5.14283 173.057 5.14283C173.254 5.14283 173.448 5.18279 173.629 5.26026C173.787 5.33668 173.926 5.44776 174.035 5.58513C174.147 5.72915 174.231 5.8923 174.284 6.06649C174.396 6.45108 174.396 6.85955 174.284 7.24414Z" fill="#51504E"/>
    <path d="M183.408 1.04587H181.803V9.06364H183.408V1.04587Z" fill="#51504E"/>
    <path d="M4.69421 24.2325C5.67505 24.3873 6.61793 24.7233 7.4739 25.223C7.75359 25.4363 7.97483 25.7158 8.11735 26.036C8.25987 26.3561 8.31911 26.7066 8.28963 27.0553C8.29474 27.4296 8.22058 27.8008 8.07197 28.1448C7.94344 28.445 7.75258 28.715 7.51183 28.9372C7.27337 29.149 7.00409 29.324 6.71307 29.4562C6.4271 29.59 6.12515 29.6872 5.81448 29.7454C5.52102 29.799 5.22323 29.8258 4.92485 29.8257C4.34989 29.8362 3.77741 29.7484 3.23249 29.5662C2.79344 29.424 2.39334 29.1834 2.06331 28.8629C1.78613 28.5868 1.55883 28.2655 1.39135 27.9131C1.23067 27.5652 1.12558 27.1946 1.07983 26.8146H3.2205C3.29508 27.1355 3.48232 27.4195 3.74869 27.6159C4.10511 27.8065 4.50905 27.8921 4.91288 27.8626C5.74159 27.8626 6.15594 27.6202 6.15594 27.1356C6.15996 27.0412 6.13373 26.948 6.08098 26.8693C6.02824 26.7906 5.95171 26.7306 5.86241 26.6978C5.47322 26.5578 5.07225 26.4524 4.66426 26.3828C4.61189 26.3771 4.5599 26.3685 4.50851 26.357C4.47256 26.3511 4.42164 26.3382 4.35974 26.3204C4.3003 26.3051 4.23994 26.2935 4.17902 26.2857C3.81797 26.2172 3.46255 26.1222 3.11567 26.0015C2.80293 25.8846 2.50449 25.7331 2.22605 25.5498C1.93254 25.3633 1.69578 25.101 1.54112 24.7911C1.3762 24.4444 1.29549 24.0641 1.30548 23.6808C1.29159 23.1195 1.46732 22.5697 1.8047 22.1189C2.12379 21.6913 2.55666 21.3603 3.05476 21.1631C3.56537 20.9627 4.11016 20.8618 4.65927 20.8659C5.58789 20.7944 6.50841 21.0819 7.22828 21.6682C7.80032 22.2114 8.14867 22.9459 8.20576 23.7294H6.06508C6.00736 23.4664 5.86039 23.2311 5.64873 23.0628C5.35262 22.8818 5.0059 22.7995 4.65927 22.8281C4.33148 22.8025 4.00372 22.8779 3.72073 23.044C3.63108 23.1026 3.55738 23.1823 3.50618 23.2759C3.45497 23.3696 3.42784 23.4743 3.42718 23.5808C3.42286 23.6586 3.44277 23.7359 3.48421 23.8022C3.52564 23.8685 3.5866 23.9205 3.65883 23.9512C3.92502 24.059 4.2022 24.1377 4.48553 24.186C4.52647 24.1929 4.56242 24.1998 4.59038 24.2038C4.62201 24.2082 4.65335 24.2145 4.68423 24.2226" fill="#51504E"/>
    <path d="M10.3534 23.7462C11.0336 23.0923 11.9437 22.7266 12.891 22.7266C13.8382 22.7266 14.7483 23.0923 15.4285 23.7462C16.0969 24.4242 16.4723 25.3342 16.4747 26.2826C16.4772 27.231 16.1064 28.1429 15.4415 28.8243C14.7549 29.4733 13.8425 29.8348 12.8941 29.8335C11.9456 29.8322 11.0342 29.4683 10.3494 28.8173C9.68232 28.1389 9.30943 27.2283 9.31055 26.2806C9.31167 25.3328 9.6867 24.4231 10.3554 23.7462M13.9268 25.1576C13.7923 25.0211 13.6316 24.9127 13.4543 24.8386C13.2769 24.7646 13.0864 24.7265 12.894 24.7265C12.7015 24.7265 12.511 24.7646 12.3337 24.8386C12.1563 24.9127 11.9956 25.0211 11.8611 25.1576C11.5953 25.4736 11.4497 25.8722 11.4497 26.2837C11.4497 26.6953 11.5953 27.0938 11.8611 27.4099C11.9962 27.5453 12.1571 27.6528 12.3344 27.7261C12.5117 27.7994 12.7019 27.8372 12.894 27.8372C13.086 27.8372 13.2762 27.7994 13.4535 27.7261C13.6308 27.6528 13.7917 27.5453 13.9268 27.4099C14.1917 27.0934 14.3367 26.695 14.3367 26.2837C14.3367 25.8724 14.1917 25.474 13.9268 25.1576Z" fill="#51504E"/>
    <path d="M21.1416 29.8346C20.6661 29.8417 20.1939 29.7548 19.7525 29.5791C19.3112 29.4033 18.9095 29.1421 18.5709 28.8108C18.2324 28.4795 17.9637 28.0846 17.7805 27.6492C17.5974 27.2138 17.5034 26.7466 17.5042 26.2748C17.5049 25.803 17.6003 25.3361 17.7848 24.9012C17.9693 24.4664 18.2392 24.0723 18.5788 23.742C18.9184 23.4117 19.3208 23.1518 19.7627 22.9773C20.2046 22.8029 20.6771 22.7175 21.1526 22.726C21.9888 22.7091 22.8057 22.9768 23.467 23.4848C23.7906 23.7348 24.0583 24.0488 24.2532 24.4068C24.4481 24.7649 24.5659 25.1591 24.5993 25.5647H22.4217C22.3627 25.2838 22.1993 25.0352 21.964 24.8684C21.7286 24.7016 21.4386 24.6287 21.1516 24.6644C20.9513 24.6541 20.7511 24.6887 20.566 24.7655C20.381 24.8423 20.2156 24.9594 20.0823 25.1081C19.8133 25.4389 19.6762 25.8563 19.6969 26.2808C19.6756 26.7064 19.8152 27.1246 20.0883 27.4535C20.219 27.6008 20.3812 27.7172 20.5631 27.7941C20.7451 27.8711 20.9421 27.9067 21.1396 27.8982C21.4277 27.9033 21.7108 27.8237 21.9534 27.6694C22.1939 27.5108 22.3618 27.2646 22.4207 26.984H24.5983C24.5631 27.3937 24.4427 27.7917 24.2445 28.1527C24.0463 28.5138 23.7748 28.8302 23.4471 29.0818C22.7857 29.5841 21.9724 29.8495 21.1396 29.8346" fill="#51504E"/>
    <path d="M26.7409 19.6774C26.9092 19.6712 27.077 19.6981 27.2348 19.7564C27.3926 19.8147 27.5373 19.9033 27.6605 20.0171C27.7785 20.1265 27.8718 20.2596 27.9339 20.4075C27.996 20.5554 28.0257 20.7147 28.021 20.8749C28.0265 21.037 27.9972 21.1985 27.9351 21.3486C27.8729 21.4987 27.7793 21.634 27.6605 21.7455C27.4062 21.966 27.0796 22.0871 26.7418 22.086C26.404 22.0849 26.0782 21.9617 25.8254 21.7395C25.706 21.6296 25.6114 21.4957 25.5481 21.3468C25.4848 21.1979 25.454 21.0374 25.4579 20.8758C25.4535 20.7151 25.4841 20.5553 25.5475 20.4073C25.6109 20.2592 25.7056 20.1265 25.8254 20.0181C26.0733 19.7899 26.4019 19.6678 26.7399 19.6784M25.6816 22.8884H27.7973V29.6761H25.6816V22.8884Z" fill="#51504E"/>
    <path d="M34.0296 22.8875H36.1443L36.1323 29.6751H34.0176V28.9461C33.7882 29.2333 33.4943 29.4635 33.1594 29.6182C32.8245 29.773 32.4579 29.8481 32.0886 29.8375C31.6697 29.8446 31.2544 29.7586 30.8733 29.5858C30.4922 29.4131 30.1549 29.1579 29.886 28.8391C29.3128 28.1087 29.0022 27.2092 29.0034 26.2835C29.0047 25.3579 29.3178 24.4592 29.893 23.7304C30.1589 23.4127 30.4929 23.158 30.8707 22.9848C31.2485 22.8115 31.6605 22.7242 32.0766 22.729C32.4531 22.716 32.8272 22.7934 33.1671 22.9546C33.5069 23.1158 33.8025 23.3562 34.0286 23.6551L34.0296 22.8875ZM31.5544 27.4109C31.6897 27.5459 31.8506 27.653 32.0278 27.7261C32.2049 27.7992 32.3949 27.8369 32.5868 27.8369C32.7787 27.8369 32.9687 27.7992 33.1459 27.7261C33.3231 27.653 33.4839 27.5459 33.6192 27.4109C33.8842 27.0943 34.0292 26.6957 34.0292 26.2842C34.0292 25.8728 33.8842 25.4742 33.6192 25.1576C33.4848 25.021 33.3243 24.9125 33.147 24.8384C32.9697 24.7643 32.7792 24.7262 32.5868 24.7262C32.3944 24.7262 32.204 24.7643 32.0267 24.8384C31.8494 24.9125 31.6888 25.021 31.5544 25.1576C31.2886 25.4738 31.143 25.8725 31.143 26.2842C31.143 26.696 31.2886 27.0947 31.5544 27.4109Z" fill="#51504E"/>
    <path d="M39.5901 20.1726H37.4753V29.6751H39.5901V20.1726Z" fill="#51504E"/>
    <path d="M48.1616 24.2325C49.1425 24.3873 50.0853 24.7233 50.9413 25.223C51.221 25.4363 51.4422 25.7158 51.5847 26.036C51.7273 26.3561 51.7865 26.7066 51.757 27.0553C51.7621 27.4296 51.688 27.8008 51.5394 28.1448C51.4108 28.445 51.22 28.715 50.9792 28.9372C50.7408 29.149 50.4715 29.324 50.1805 29.4562C49.8945 29.59 49.5925 29.6872 49.2819 29.7454C48.9881 29.799 48.69 29.8259 48.3912 29.8257C47.8166 29.8361 47.2445 29.7483 46.6999 29.5662C46.2608 29.424 45.8607 29.1834 45.5307 28.8629C45.2535 28.5868 45.0262 28.2655 44.8587 27.9131C44.6981 27.5652 44.5934 27.1946 44.5482 26.8146H46.6889C46.7632 27.1353 46.9501 27.4193 47.2161 27.6159C47.5725 27.8065 47.9764 27.8921 48.3803 27.8626C49.209 27.8626 49.6237 27.6202 49.6243 27.1356C49.6284 27.0412 49.6021 26.948 49.5494 26.8693C49.4966 26.7906 49.4201 26.7306 49.3308 26.6978C48.9416 26.5578 48.5406 26.4524 48.1326 26.3828C48.0803 26.3771 48.0283 26.3685 47.9769 26.357C47.941 26.3511 47.89 26.3382 47.8281 26.3204C47.7687 26.305 47.7083 26.2934 47.6474 26.2857C47.2867 26.2172 46.9316 26.1222 46.5851 26.0015C46.2723 25.8846 45.9739 25.7331 45.6955 25.5498C45.4019 25.3633 45.1652 25.101 45.0105 24.7911C44.8456 24.4444 44.7649 24.0641 44.7749 23.6808C44.761 23.1195 44.9367 22.5697 45.2741 22.1189C45.5932 21.6913 46.0261 21.3604 46.5241 21.1631C47.0348 20.9627 47.5795 20.8618 48.1286 20.8659C49.0573 20.7944 49.9778 21.0819 50.6977 21.6682C51.2697 22.2114 51.618 22.9459 51.6751 23.7294H49.5345C49.4766 23.4665 49.3296 23.2312 49.1181 23.0628C48.8217 22.8816 48.4746 22.7993 48.1277 22.8281C47.7999 22.8025 47.4721 22.8779 47.1891 23.044C47.0995 23.1026 47.0258 23.1823 46.9746 23.2759C46.9234 23.3696 46.8962 23.4743 46.8956 23.5808C46.8912 23.6585 46.9109 23.7357 46.9522 23.802C46.9934 23.8682 47.0542 23.9203 47.1262 23.9512C47.3928 24.0589 47.6703 24.1376 47.9539 24.186C47.9949 24.1929 48.0298 24.1998 48.0538 24.2038C48.0854 24.2082 48.1167 24.2145 48.1476 24.2226" fill="#51504E"/>
    <path d="M56.3849 22.726C56.8916 22.7058 57.3964 22.7992 57.8617 22.9991C58.327 23.1991 58.741 23.5005 59.0727 23.8809C59.4077 24.2692 59.6563 24.7233 59.8022 25.2135C59.9481 25.7037 59.9881 26.2189 59.9194 26.7255H54.9272C54.9435 27.1456 55.1189 27.5442 55.4184 27.8418C55.695 28.0924 56.0583 28.2276 56.4328 28.2191C56.7001 28.2255 56.9634 28.1546 57.1907 28.0151C57.4023 27.8857 57.5614 27.6865 57.64 27.4525H59.8166C59.6386 28.1859 59.1878 28.8256 58.5545 29.2433C57.9214 29.6435 57.1835 29.8501 56.4328 29.8375C55.947 29.8561 55.4624 29.7759 55.0089 29.6018C54.5554 29.4277 54.1427 29.1635 53.796 28.8253C53.2817 28.3265 52.9305 27.6857 52.7882 26.9863C52.646 26.2868 52.7191 25.5611 52.9981 24.9035C53.2771 24.2458 53.7492 23.6867 54.3528 23.2987C54.9565 22.9107 55.6638 22.7119 56.3829 22.728M56.3719 24.3454C56.044 24.3285 55.7213 24.4327 55.4663 24.638C55.2113 24.8432 55.042 25.1349 54.9911 25.4567H57.7148C57.656 25.1452 57.4966 24.8611 57.2606 24.6475C57.0128 24.4408 56.6953 24.3347 56.3719 24.3504" fill="#51504E"/>
    <path d="M64.4853 29.8346C64.0097 29.8417 63.5375 29.7548 63.0962 29.5791C62.6548 29.4033 62.2531 29.1421 61.9146 28.8108C61.576 28.4795 61.3073 28.0846 61.1241 27.6492C60.941 27.2138 60.8471 26.7466 60.8478 26.2748C60.8485 25.803 60.9439 25.3361 61.1284 24.9012C61.3129 24.4664 61.5828 24.0723 61.9224 23.742C62.262 23.4117 62.6645 23.1518 63.1064 22.9773C63.5483 22.8029 64.0207 22.7175 64.4963 22.726C65.3325 22.7091 66.1493 22.9768 66.8106 23.4848C67.1343 23.7348 67.4021 24.0487 67.597 24.4068C67.7919 24.7648 67.9097 25.1591 67.9429 25.5647H65.7623C65.7033 25.2838 65.5399 25.0352 65.3046 24.8684C65.0693 24.7016 64.7793 24.6287 64.4923 24.6644C64.2919 24.6541 64.0918 24.6887 63.9067 24.7655C63.7216 24.8423 63.5563 24.9594 63.4229 25.1081C63.1537 25.4388 63.0165 25.8562 63.0375 26.2808C63.0162 26.7064 63.1557 27.1246 63.4289 27.4535C63.5596 27.6008 63.7218 27.7172 63.9038 27.7941C64.0857 27.8711 64.2827 27.9067 64.4803 27.8982C64.7684 27.9035 65.0516 27.8238 65.294 27.6694C65.5346 27.5108 65.7024 27.2646 65.7613 26.984H67.9389C67.9037 27.3937 67.7833 27.7917 67.5851 28.1527C67.387 28.5138 67.1154 28.8302 66.7877 29.0818C66.1264 29.5842 65.3131 29.8495 64.4803 29.8346" fill="#51504E"/>
    <path d="M73.3665 22.8875H75.4812V29.6761H73.3665V28.8976C73.1367 29.1965 72.8389 29.4374 72.4974 29.6004C72.1559 29.7634 71.7804 29.844 71.4015 29.8355C71.0684 29.8519 70.7357 29.7953 70.4272 29.6697C70.1186 29.544 69.8417 29.3524 69.6163 29.1085C69.1578 28.5542 68.9248 27.8497 68.9633 27.1336V22.8875H71.079V26.6641C71.0548 26.9752 71.1352 27.2856 71.3077 27.5466C71.4142 27.6543 71.5442 27.7365 71.6877 27.7868C71.8311 27.8371 71.9842 27.8542 72.1354 27.8368C72.9568 27.8368 73.3675 27.3888 73.3675 26.4927L73.3665 22.8875Z" fill="#51504E"/>
    <path d="M80.9177 22.726C81.0475 22.7236 81.1772 22.7359 81.3041 22.7627V24.9229C81.1214 24.906 80.9806 24.8991 80.8818 24.8991C80.6368 24.896 80.3923 24.9206 80.1529 24.9724C79.9338 25.0249 79.7257 25.1151 79.5379 25.2388C79.3306 25.3765 79.1718 25.5749 79.0836 25.8063C78.9715 26.1038 78.9185 26.42 78.9278 26.7374V29.6751H76.8131V22.8875H78.9278V23.9354C79.1 23.5598 79.3815 23.244 79.7361 23.0284C80.0907 22.8129 80.5022 22.7076 80.9177 22.726Z" fill="#51504E"/>
    <path d="M83.324 19.6774C83.4922 19.6713 83.6601 19.6982 83.8178 19.7565C83.9756 19.8148 84.1203 19.9033 84.2435 20.0171C84.3618 20.1264 84.4551 20.2594 84.5174 20.4073C84.5798 20.5552 84.6096 20.7146 84.605 20.8749C84.6104 21.0371 84.5809 21.1986 84.5186 21.3487C84.4563 21.4988 84.3626 21.6341 84.2435 21.7455C83.9893 21.9658 83.6629 22.0867 83.3253 22.0856C82.9878 22.0845 82.6622 21.9615 82.4094 21.7395C82.2897 21.6297 82.195 21.4959 82.1315 21.347C82.068 21.1981 82.0371 21.0375 82.0409 20.8758C82.0365 20.715 82.0672 20.5551 82.1307 20.4071C82.1943 20.2591 82.2894 20.1264 82.4094 20.0181C82.6572 19.7898 82.9859 19.6677 83.324 19.6784M82.2656 22.8885H84.3803V29.6761H82.2656V22.8885Z" fill="#51504E"/>
    <path d="M90.8962 27.5525L91.2576 29.2432C90.9684 29.4237 90.6538 29.5605 90.3241 29.6493C89.9336 29.7705 89.5271 29.833 89.118 29.8346C88.4319 29.8544 87.7649 29.609 87.2578 29.1501C86.9894 28.8723 86.7834 28.5412 86.6536 28.1785C86.5239 27.8158 86.4732 27.43 86.505 27.0464V24.8615H85.3348V22.8895H86.505V21.4929L88.6197 21.0363V22.8895H90.9222V24.8644H88.6197V26.9256C88.6197 27.5674 88.9099 27.8883 89.4904 27.8883C89.9707 27.8335 90.4427 27.7218 90.8962 27.5555" fill="#51504E"/>
    <path d="M96.9438 22.8865H99.1952L94.828 32.7594H92.5765L94.3558 28.7361L91.7808 22.8865H94.0323L95.476 26.4284L96.9438 22.8865Z" fill="#51504E"/>
    <path d="M108.43 29.8355C107.232 29.8355 106.084 29.3636 105.237 28.5234C104.39 27.6833 103.914 26.5438 103.914 25.3557C103.914 24.1676 104.39 23.0281 105.237 22.188C106.084 21.3478 107.232 20.8758 108.43 20.8758C109.416 20.8549 110.38 21.1694 111.161 21.7672C111.919 22.3453 112.453 23.1649 112.672 24.0879H110.408C110.244 23.7206 109.973 23.4102 109.63 23.1965C109.27 22.9788 108.854 22.8678 108.432 22.8765C108.111 22.8637 107.792 22.9189 107.495 23.0385C107.198 23.158 106.93 23.3392 106.709 23.5699C106.286 24.0723 106.055 24.7056 106.055 25.3596C106.055 26.0137 106.286 26.647 106.709 27.1494C106.929 27.3802 107.197 27.5614 107.495 27.681C107.792 27.8006 108.111 27.8557 108.432 27.8427C108.854 27.8512 109.269 27.7403 109.63 27.5228C109.973 27.3094 110.244 26.999 110.408 26.6314H112.672C112.453 27.5541 111.919 28.3735 111.161 28.9511C110.38 29.5488 109.416 29.8634 108.43 29.8425" fill="#51504E"/>
    <path d="M114.734 23.7462C115.414 23.0923 116.325 22.7266 117.272 22.7266C118.219 22.7266 119.129 23.0923 119.809 23.7462C120.478 24.4242 120.853 25.3342 120.856 26.2826C120.858 27.231 120.487 28.1429 119.822 28.8243C119.319 29.3259 118.677 29.6673 117.977 29.8051C117.277 29.9429 116.552 29.8707 115.894 29.5977C115.236 29.3248 114.674 28.8635 114.282 28.2727C113.889 27.6819 113.682 26.9884 113.689 26.2808C113.677 25.8095 113.763 25.3409 113.943 24.9046C114.123 24.4683 114.393 24.0739 114.734 23.7462ZM118.306 25.1576C118.171 25.0212 118.01 24.9129 117.833 24.8389C117.656 24.765 117.465 24.7269 117.273 24.7269C117.08 24.7269 116.89 24.765 116.713 24.8389C116.535 24.9129 116.375 25.0212 116.24 25.1576C115.974 25.4736 115.829 25.8722 115.829 26.2837C115.829 26.6953 115.974 27.0938 116.24 27.4099C116.375 27.5451 116.536 27.6525 116.713 27.7258C116.891 27.7991 117.081 27.8368 117.273 27.8368C117.465 27.8368 117.655 27.7991 117.832 27.7258C118.01 27.6525 118.17 27.5451 118.306 27.4099C118.57 27.0932 118.715 26.6949 118.715 26.2837C118.715 25.8725 118.57 25.4742 118.306 25.1576Z" fill="#51504E"/>
    <path d="M126.166 22.726C126.296 22.7236 126.426 22.7359 126.553 22.7627V24.9229C126.37 24.906 126.229 24.8991 126.129 24.8991C125.884 24.896 125.64 24.9206 125.401 24.9724C125.181 25.0248 124.973 25.115 124.786 25.2388C124.578 25.3765 124.419 25.5749 124.331 25.8063C124.219 26.1038 124.166 26.42 124.175 26.7374V29.6751H122.061V22.8875H124.175V23.9354C124.348 23.5598 124.629 23.244 124.984 23.0284C125.338 22.8129 125.75 22.7076 126.165 22.726" fill="#51504E"/>
    <path d="M131.642 22.726C132.058 22.7216 132.47 22.8092 132.848 22.9824C133.225 23.1556 133.559 23.4101 133.826 23.7274C134.401 24.4564 134.713 25.3552 134.714 26.2809C134.715 27.2066 134.404 28.1061 133.831 28.8362C133.562 29.1549 133.225 29.4099 132.844 29.5827C132.463 29.7554 132.048 29.8415 131.629 29.8346C131.258 29.8443 130.89 29.7689 130.553 29.6142C130.217 29.4596 129.92 29.23 129.688 28.9432V32.7574H127.573V22.8845H129.688V23.6492C129.914 23.3501 130.21 23.1098 130.551 22.9486C130.891 22.7873 131.265 22.71 131.642 22.7231M130.099 27.408C130.235 27.543 130.395 27.6501 130.573 27.7232C130.75 27.7963 130.94 27.8339 131.132 27.8339C131.324 27.8339 131.514 27.7963 131.691 27.7232C131.868 27.6501 132.029 27.543 132.164 27.408C132.43 27.0918 132.576 26.693 132.576 26.2813C132.576 25.8696 132.43 25.4708 132.164 25.1546C132.03 25.0181 131.869 24.9096 131.692 24.8355C131.515 24.7614 131.324 24.7232 131.132 24.7232C130.939 24.7232 130.749 24.7614 130.572 24.8355C130.394 24.9096 130.234 25.0181 130.099 25.1546C129.834 25.4709 129.688 25.8696 129.688 26.2813C129.688 26.693 129.834 27.0917 130.099 27.408Z" fill="#51504E"/>
    <path d="M136.842 23.7462C137.522 23.0923 138.432 22.7266 139.379 22.7266C140.327 22.7266 141.237 23.0923 141.917 23.7462C142.585 24.4245 142.96 25.3344 142.962 26.2826C142.965 27.2308 142.594 28.1426 141.93 28.8243C141.243 29.4733 140.331 29.8348 139.382 29.8335C138.434 29.8322 137.523 29.4683 136.838 28.8173C136.171 28.1386 135.799 27.228 135.8 26.2803C135.801 25.3327 136.176 24.4231 136.845 23.7462M140.416 25.1576C140.282 25.0211 140.121 24.9127 139.944 24.8386C139.766 24.7646 139.576 24.7265 139.383 24.7265C139.191 24.7265 139 24.7646 138.823 24.8386C138.646 24.9127 138.485 25.0211 138.35 25.1576C138.085 25.4736 137.939 25.8722 137.939 26.2837C137.939 26.6953 138.085 27.0938 138.35 27.4099C138.486 27.5453 138.646 27.6528 138.824 27.7261C139.001 27.7994 139.191 27.8372 139.383 27.8372C139.575 27.8372 139.766 27.7994 139.943 27.7261C140.12 27.6528 140.281 27.5453 140.416 27.4099C140.681 27.0932 140.825 26.6949 140.825 26.2837C140.825 25.8725 140.681 25.4742 140.416 25.1576Z" fill="#51504E"/>
    <path d="M148.275 22.726C148.405 22.7236 148.534 22.7359 148.661 22.7627V24.9229C148.479 24.906 148.338 24.8991 148.239 24.8991C147.994 24.896 147.75 24.9205 147.511 24.9724C147.292 25.0247 147.083 25.1149 146.895 25.2388C146.688 25.3765 146.529 25.5749 146.441 25.8063C146.329 26.1038 146.276 26.42 146.285 26.7374V29.6751H144.17V22.8875H146.285V23.9354C146.457 23.5598 146.739 23.244 147.093 23.0284C147.448 22.8129 147.86 22.7076 148.275 22.726Z" fill="#51504E"/>
    <path d="M154.521 22.8875H156.637L156.625 29.6751H154.51V28.9461C154.281 29.2333 153.987 29.4635 153.652 29.6182C153.317 29.773 152.951 29.8481 152.581 29.8376C152.162 29.8447 151.747 29.7587 151.366 29.5859C150.985 29.4132 150.648 29.158 150.379 28.8391C149.805 28.1088 149.495 27.2093 149.496 26.2836C149.497 25.3579 149.81 24.4592 150.386 23.7304C150.652 23.4129 150.986 23.1583 151.364 22.985C151.742 22.8118 152.154 22.7244 152.57 22.729C152.947 22.7159 153.321 22.7933 153.661 22.9545C154.001 23.1158 154.296 23.3561 154.522 23.6551L154.521 22.8875ZM152.046 27.4109C152.182 27.5459 152.342 27.6531 152.52 27.7262C152.697 27.7993 152.887 27.837 153.079 27.837C153.271 27.837 153.461 27.7993 153.638 27.7262C153.816 27.6531 153.977 27.5459 154.112 27.4109C154.377 27.0942 154.522 26.6957 154.522 26.2843C154.522 25.8728 154.377 25.4743 154.112 25.1576C153.977 25.021 153.817 24.9125 153.639 24.8384C153.462 24.7643 153.271 24.7261 153.079 24.7261C152.887 24.7261 152.696 24.7643 152.519 24.8384C152.341 24.9125 152.181 25.021 152.046 25.1576C151.78 25.4738 151.635 25.8725 151.635 26.2843C151.635 26.696 151.78 27.0947 152.046 27.4109Z" fill="#51504E"/>
    <path d="M163.156 27.5525L163.517 29.2432C163.228 29.4238 162.913 29.5606 162.584 29.6493C162.193 29.7705 161.787 29.833 161.378 29.8346C160.692 29.8541 160.025 29.6087 159.517 29.1501C159.249 28.8723 159.043 28.5412 158.913 28.1785C158.784 27.8158 158.733 27.43 158.765 27.0464V24.8615H157.594V22.8895H158.765V21.4929L160.88 21.0363V22.8895H163.182V24.8644H160.88V26.9256C160.88 27.5674 161.17 27.8883 161.75 27.8883C162.231 27.8335 162.703 27.7217 163.157 27.5555" fill="#51504E"/>
    <path d="M165.714 19.6774C165.882 19.6712 166.05 19.698 166.208 19.7563C166.366 19.8146 166.51 19.9032 166.633 20.0171C166.752 20.1264 166.845 20.2594 166.907 20.4073C166.97 20.5552 167 20.7146 166.995 20.8749C167 21.0371 166.971 21.1986 166.909 21.3487C166.846 21.4988 166.752 21.6341 166.633 21.7455C166.379 21.966 166.053 22.087 165.715 22.0859C165.378 22.0848 165.052 21.9617 164.799 21.7395C164.68 21.6298 164.585 21.496 164.521 21.3471C164.458 21.1982 164.427 21.0375 164.431 20.8758C164.426 20.715 164.457 20.5551 164.521 20.407C164.584 20.259 164.679 20.1263 164.799 20.0181C165.047 19.7899 165.375 19.6679 165.713 19.6784M164.656 22.8885H166.77V29.6761H164.656V22.8885Z" fill="#51504E"/>
    <path d="M169.027 23.7462C169.707 23.0923 170.617 22.7266 171.564 22.7266C172.511 22.7266 173.422 23.0923 174.102 23.7462C174.77 24.4246 175.144 25.3345 175.147 26.2826C175.149 27.2308 174.779 28.1425 174.115 28.8243C173.428 29.4733 172.516 29.8348 171.567 29.8335C170.619 29.8322 169.708 29.4683 169.023 28.8173C168.356 28.1385 167.984 27.228 167.985 26.2803C167.986 25.3327 168.361 24.4232 169.03 23.7462M172.6 25.1576C172.466 25.0211 172.305 24.9127 172.128 24.8387C171.951 24.7647 171.76 24.7266 171.568 24.7266C171.375 24.7266 171.185 24.7647 171.008 24.8387C170.83 24.9127 170.67 25.0211 170.535 25.1576C170.27 25.4738 170.125 25.8723 170.125 26.2837C170.125 26.6952 170.27 27.0937 170.535 27.4099C170.671 27.5451 170.831 27.6525 171.009 27.7257C171.186 27.799 171.376 27.8367 171.568 27.8367C171.76 27.8367 171.95 27.799 172.127 27.7257C172.304 27.6525 172.465 27.5451 172.6 27.4099C172.865 27.0936 173.011 26.6951 173.011 26.2837C173.011 25.8723 172.865 25.4739 172.6 25.1576Z" fill="#51504E"/>
    <path d="M180.448 22.726C180.786 22.7089 181.124 22.7652 181.438 22.8911C181.752 23.017 182.034 23.2095 182.265 23.455C182.728 24.0073 182.963 24.7128 182.924 25.43V29.6761H180.809V25.8995C180.833 25.5873 180.749 25.2763 180.573 25.017C180.463 24.9087 180.329 24.8264 180.183 24.7762C180.036 24.726 179.88 24.7091 179.726 24.7268C178.888 24.7268 178.469 25.1751 178.469 26.0718V29.6761H176.354V22.8884H178.469V23.6531C178.703 23.3561 179.004 23.1177 179.348 22.9568C179.691 22.796 180.068 22.7173 180.448 22.727" fill="#51504E"/>
</svg>
