<?xml version="1.0"?><svg fill="#000000" xmlns="http://www.w3.org/2000/svg"  viewBox="0 0 128 128" width="64px" height="64px">    <path d="M 64 9 C 48.6 9 36 21.6 36 37 L 36 59 L 28 59 C 23 59 19 63 19 68 C 19 73 23 77 28 77 C 29.7 77 31 75.7 31 74 C 31 72.3 29.7 71 28 71 C 26.3 71 25 69.7 25 68 C 25 66.3 26.3 65 28 65 L 100 65 C 101.7 65 103 66.3 103 68 C 103 69.7 101.7 71 100 71 L 43 71 C 41.3 71 40 72.3 40 74 C 40 75.7 41.3 77 43 77 L 96 77 L 96 84 C 96 101.6 81.6 116 64 116 C 46.4 116 32 101.6 32 84 C 32 82.3 30.7 81 29 81 C 27.3 81 26 82.3 26 84 C 26 105 43 122 64 122 C 85 122 102 105 102 84 L 102 76.800781 C 106 75.900781 109 72.3 109 68 C 109 63 105 59 100 59 L 92 59 L 92 37 C 92 21.6 79.4 9 64 9 z M 64 15 C 76.1 15 86 24.9 86 37 L 86 59 L 42 59 L 42 37 C 42 24.9 51.9 15 64 15 z M 64 91 C 62.3 91 61 92.3 61 94 L 61 101 C 61 102.7 62.3 104 64 104 C 65.7 104 67 102.7 67 101 L 67 94 C 67 92.3 65.7 91 64 91 z"/></svg>