<svg width="32" height="32" viewBox="0 0 32 32" fill="none" xmlns="http://www.w3.org/2000/svg">
    <path d="M19.508 14.8225C18.5541 15.4598 17.4328 15.8 16.2856 15.8C14.7474 15.8 13.2721 15.1889 12.1844 14.1012C11.0967 13.0135 10.4856 11.5383 10.4856 10C10.4856 8.85287 10.8258 7.7315 11.4631 6.77769C12.1004 5.82389 13.0063 5.08049 14.0661 4.6415C15.1259 4.20251 16.2921 4.08765 17.4172 4.31145C18.5423 4.53524 19.5757 5.08764 20.3869 5.89878C21.198 6.70993 21.7504 7.74339 21.9742 8.86848C22.198 9.99357 22.0831 11.1598 21.6441 12.2196C21.2052 13.2794 20.4618 14.1852 19.508 14.8225ZM18.7778 6.27027C18.0401 5.77737 17.1728 5.51429 16.2856 5.51429C15.096 5.51429 13.955 5.98689 13.1138 6.82812C12.2725 7.66936 11.7999 8.81032 11.7999 10C11.7999 10.8872 12.063 11.7545 12.5559 12.4921C13.0488 13.2298 13.7494 13.8047 14.569 14.1443C15.3887 14.4838 16.2906 14.5726 17.1608 14.3995C18.0309 14.2264 18.8302 13.7992 19.4575 13.1719C20.0849 12.5445 20.5121 11.7453 20.6852 10.8751C20.8582 10.005 20.7694 9.10305 20.4299 8.28339C20.0904 7.46374 19.5154 6.76316 18.7778 6.27027Z" fill="#363636" stroke="white" stroke-width="0.4"/>
    <path d="M7.56695 26.2635L7.54211 26.4857H7.76571H24.8057H25.0293L25.0045 26.2635C24.7882 24.3295 23.867 22.5429 22.4168 21.2452C20.9666 19.9474 19.089 19.2295 17.143 19.2286H17.1429H15.4286L15.4285 19.2286C13.4824 19.2295 11.6049 19.9474 10.1546 21.2452C8.70442 22.5429 7.78318 24.3295 7.56695 26.2635ZM15.4286 17.9143H17.1429C19.5904 17.9143 21.9377 18.8866 23.6684 20.6173C25.3991 22.348 26.3714 24.6953 26.3714 27.1429C26.3714 27.3172 26.3022 27.4843 26.179 27.6075C26.0557 27.7308 25.8886 27.8 25.7143 27.8H6.85714C6.68286 27.8 6.51571 27.7308 6.39247 27.6075C6.26923 27.4843 6.2 27.3172 6.2 27.1429C6.2 24.6953 7.17229 22.348 8.90299 20.6173C10.6337 18.8866 12.981 17.9143 15.4286 17.9143ZM10.288 21.3942C11.7016 20.1293 13.5317 19.4295 15.4286 19.4286L7.76571 26.0857H7.79072C8.04082 24.2776 8.92457 22.6143 10.288 21.3942Z" fill="#363636" stroke="white" stroke-width="0.4"/>
</svg>
