<svg width="32" height="32" viewBox="0 0 32 32" fill="none" xmlns="http://www.w3.org/2000/svg">
    <path d="M24.1429 12.7714H24.3429V12.5714V6.57143C24.3429 6.29106 24.2315 6.02217 24.0332 5.82392C23.835 5.62566 23.5661 5.51429 23.2857 5.51429H9.57143C9.29106 5.51429 9.02217 5.62566 8.82392 5.82392C8.62566 6.02217 8.51429 6.29106 8.51429 6.57143V12.5714V12.7714H8.71429H24.1429ZM8.71429 14.0857H8.51429V14.2857V25.4286C8.51429 25.7089 8.62566 25.9778 8.82392 26.1761C9.02217 26.3743 9.29106 26.4857 9.57143 26.4857H23.2857C23.5661 26.4857 23.835 26.3743 24.0332 26.1761C24.2315 25.9778 24.3429 25.7089 24.3429 25.4286V14.2857V14.0857H24.1429H8.71429ZM9.57143 4.2H23.2857C23.9147 4.2 24.5178 4.44985 24.9626 4.89458C25.4073 5.3393 25.6571 5.94249 25.6571 6.57143V25.4286C25.6571 26.0575 25.4073 26.6607 24.9626 27.1054C24.5178 27.5502 23.9147 27.8 23.2857 27.8H9.57143C8.94249 27.8 8.3393 27.5502 7.89458 27.1054C7.44985 26.6607 7.2 26.0575 7.2 25.4286V6.57143C7.2 5.94249 7.44985 5.3393 7.89458 4.89458C8.3393 4.44985 8.94249 4.2 9.57143 4.2Z" fill="#363636" stroke="white" stroke-width="0.4"/>
    <path d="M21.5715 24.5714C21.7988 24.5714 22.0168 24.4811 22.1776 24.3204C22.3383 24.1596 22.4286 23.9416 22.4286 23.7143V16.8571C22.4286 16.6298 22.3383 16.4118 22.1776 16.2511C22.0168 16.0903 21.7988 16 21.5715 16C21.3442 16 21.1262 16.0903 20.9654 16.2511C20.8047 16.4118 20.7144 16.6298 20.7144 16.8571V23.7143C20.7144 23.9416 20.8047 24.1596 20.9654 24.3204C21.1262 24.4811 21.3442 24.5714 21.5715 24.5714Z" fill="#363636"/>
    <path d="M11.2856 17.7143C11.3976 17.7129 11.5083 17.6896 11.6113 17.6457C11.7152 17.6023 11.8109 17.5414 11.8942 17.4657C11.9736 17.3856 12.0365 17.2906 12.0791 17.1862C12.1218 17.0818 12.1434 16.9699 12.1428 16.8571C12.1396 16.6302 12.0508 16.4128 11.8942 16.2486L11.7656 16.1457C11.7178 16.1133 11.6659 16.0873 11.6113 16.0686C11.5603 16.0425 11.5052 16.0251 11.4485 16.0171C11.3385 15.9915 11.2241 15.9915 11.1142 16.0171L10.9599 16.0686C10.9053 16.0873 10.8534 16.1133 10.8056 16.1457L10.677 16.2486C10.5204 16.4128 10.4316 16.6302 10.4285 16.8571C10.4285 17.0845 10.5188 17.3025 10.6795 17.4632C10.8403 17.624 11.0583 17.7143 11.2856 17.7143Z" fill="#363636"/>
    <path d="M14.1057 17.4657C14.1854 17.546 14.2802 17.6098 14.3846 17.6533C14.4891 17.6968 14.6011 17.7192 14.7143 17.7192C14.8274 17.7192 14.9395 17.6968 15.0439 17.6533C15.1484 17.6098 15.2432 17.546 15.3228 17.4657C15.3986 17.3824 15.4594 17.2867 15.5028 17.1828C15.5468 17.0798 15.5701 16.9691 15.5714 16.8571C15.5683 16.6302 15.4795 16.4128 15.3228 16.2486C15.2807 16.2098 15.2347 16.1753 15.1857 16.1457C15.1419 16.1118 15.0926 16.0857 15.04 16.0686C14.989 16.0425 14.9339 16.0251 14.8771 16.0171C14.7672 15.9915 14.6528 15.9915 14.5428 16.0171L14.3886 16.0686C14.3339 16.0873 14.2821 16.1133 14.2343 16.1457C14.1894 16.1773 14.1464 16.2117 14.1057 16.2486C14.0263 16.329 13.965 16.4254 13.9257 16.5314C13.8804 16.634 13.8569 16.7449 13.8569 16.8571C13.8569 16.9693 13.8804 17.0802 13.9257 17.1828C13.9691 17.2867 14.03 17.3824 14.1057 17.4657Z" fill="#363636"/>
    <path d="M18.1428 17.7143C18.3701 17.7143 18.5881 17.624 18.7489 17.4632C18.9096 17.3025 18.9999 17.0845 18.9999 16.8572C18.9968 16.6302 18.908 16.4128 18.7514 16.2486C18.7092 16.2098 18.6633 16.1753 18.6142 16.1457C18.5705 16.1118 18.5212 16.0857 18.4685 16.0686C18.4175 16.0425 18.3624 16.0251 18.3056 16.0172C18.1414 15.9824 17.9705 16.0004 17.8171 16.0686C17.7119 16.1094 17.6157 16.1705 17.5342 16.2486C17.3776 16.4128 17.2888 16.6302 17.2856 16.8572C17.2856 17.0845 17.3759 17.3025 17.5367 17.4632C17.6974 17.624 17.9155 17.7143 18.1428 17.7143Z" fill="#363636"/>
    <path d="M11.2856 21.1429C11.3976 21.1415 11.5083 21.1182 11.6113 21.0743C11.7152 21.0309 11.8109 20.97 11.8942 20.8943C11.9736 20.8142 12.0365 20.7192 12.0791 20.6148C12.1218 20.5103 12.1434 20.3985 12.1428 20.2857C12.1396 20.0588 12.0508 19.8414 11.8942 19.6771C11.8534 19.6403 11.8105 19.6059 11.7656 19.5743C11.7178 19.5418 11.6659 19.5159 11.6113 19.4971C11.5603 19.471 11.5052 19.4537 11.4485 19.4457C11.3385 19.4201 11.2241 19.4201 11.1142 19.4457L10.9599 19.4971C10.9053 19.5159 10.8534 19.5418 10.8056 19.5743C10.7607 19.6059 10.7178 19.6403 10.677 19.6771C10.5204 19.8414 10.4316 20.0588 10.4285 20.2857C10.4285 20.513 10.5188 20.7311 10.6795 20.8918C10.8403 21.0526 11.0583 21.1429 11.2856 21.1429Z" fill="#363636"/>
    <path d="M14.1057 20.8943C14.1854 20.9746 14.2802 21.0384 14.3846 21.0819C14.4891 21.1254 14.6011 21.1478 14.7143 21.1478C14.8274 21.1478 14.9395 21.1254 15.0439 21.0819C15.1484 21.0384 15.2432 20.9746 15.3228 20.8943C15.3986 20.811 15.4594 20.7153 15.5028 20.6114C15.5482 20.5088 15.5716 20.3979 15.5716 20.2857C15.5716 20.1736 15.5482 20.0626 15.5028 19.96C15.4621 19.8548 15.4009 19.7587 15.3228 19.6772C15.2807 19.6384 15.2347 19.6039 15.1857 19.5743C15.1419 19.5404 15.0926 19.5143 15.04 19.4972C14.989 19.4711 14.9339 19.4537 14.8771 19.4457C14.7394 19.4182 14.5971 19.4248 14.4625 19.4652C14.328 19.5055 14.2055 19.5783 14.1057 19.6772C14.0277 19.7587 13.9665 19.8548 13.9257 19.96C13.8804 20.0626 13.8569 20.1736 13.8569 20.2857C13.8569 20.3979 13.8804 20.5088 13.9257 20.6114C13.9691 20.7153 14.03 20.811 14.1057 20.8943Z" fill="#363636"/>
    <path d="M17.5342 20.8943C17.6541 21.0152 17.8073 21.0976 17.9742 21.1311C18.1411 21.1646 18.3142 21.1476 18.4715 21.0823C18.6287 21.017 18.763 20.9064 18.8571 20.7645C18.9512 20.6226 19.0009 20.456 18.9999 20.2857C18.9968 20.0588 18.908 19.8414 18.7514 19.6771C18.7092 19.6384 18.6632 19.6039 18.6142 19.5743C18.5705 19.5404 18.5212 19.5143 18.4685 19.4971C18.4175 19.471 18.3624 19.4537 18.3056 19.4457C18.1414 19.411 17.9705 19.429 17.8171 19.4971C17.7107 19.5356 17.6141 19.5971 17.5341 19.677C17.4541 19.757 17.3927 19.8536 17.3542 19.96C17.3062 20.0617 17.2827 20.1733 17.2856 20.2857C17.2843 20.3971 17.3047 20.5078 17.3456 20.6114C17.3953 20.7138 17.4588 20.809 17.5342 20.8943Z" fill="#363636"/>
    <path d="M11.2856 24.5714C11.3976 24.5701 11.5083 24.5468 11.6113 24.5028C11.7152 24.4594 11.8109 24.3986 11.8942 24.3228C11.9736 24.2428 12.0365 24.1478 12.0791 24.0433C12.1218 23.9389 12.1434 23.8271 12.1428 23.7143C12.1396 23.4873 12.0508 23.27 11.8942 23.1057L11.7656 23.0028C11.7178 22.9704 11.6659 22.9445 11.6113 22.9257C11.5603 22.8996 11.5052 22.8822 11.4485 22.8743C11.3385 22.8487 11.2241 22.8487 11.1142 22.8743L10.9599 22.9257C10.9053 22.9445 10.8534 22.9704 10.8056 23.0028L10.677 23.1057C10.5204 23.27 10.4316 23.4873 10.4285 23.7143C10.4285 23.9416 10.5188 24.1596 10.6795 24.3204C10.8403 24.4811 11.0583 24.5714 11.2856 24.5714Z" fill="#363636"/>
    <path d="M14.1057 24.3229C14.1854 24.4032 14.2802 24.467 14.3846 24.5105C14.4891 24.554 14.6011 24.5764 14.7143 24.5764C14.8274 24.5764 14.9395 24.554 15.0439 24.5105C15.1484 24.467 15.2432 24.4032 15.3228 24.3229C15.3986 24.2395 15.4594 24.1439 15.5028 24.04C15.5482 23.9374 15.5716 23.8265 15.5716 23.7143C15.5716 23.6021 15.5482 23.4912 15.5028 23.3886C15.4621 23.2834 15.4009 23.1872 15.3228 23.1057C15.2807 23.0669 15.2347 23.0325 15.1857 23.0029C15.1419 22.9689 15.0926 22.9428 15.04 22.9257C14.989 22.8996 14.9339 22.8822 14.8771 22.8743C14.7394 22.8467 14.5971 22.8534 14.4625 22.8938C14.328 22.9341 14.2055 23.0069 14.1057 23.1057C14.0277 23.1872 13.9665 23.2834 13.9257 23.3886C13.8804 23.4912 13.8569 23.6021 13.8569 23.7143C13.8569 23.8265 13.8804 23.9374 13.9257 24.04C13.9691 24.1439 14.03 24.2395 14.1057 24.3229Z" fill="#363636"/>
    <path d="M18.1428 24.5714C18.3701 24.5714 18.5881 24.4811 18.7489 24.3204C18.9096 24.1596 18.9999 23.9416 18.9999 23.7143C18.9968 23.4873 18.908 23.27 18.7514 23.1057C18.7092 23.0669 18.6632 23.0325 18.6142 23.0028C18.5705 22.9689 18.5212 22.9428 18.4685 22.9257C18.4175 22.8996 18.3624 22.8822 18.3056 22.8743C18.1414 22.8395 17.9705 22.8575 17.8171 22.9257C17.7107 22.9642 17.6141 23.0256 17.5341 23.1056C17.4541 23.1856 17.3927 23.2822 17.3542 23.3886C17.3062 23.4903 17.2827 23.6018 17.2856 23.7143C17.2856 23.9416 17.3759 24.1596 17.5367 24.3204C17.6974 24.4811 17.9155 24.5714 18.1428 24.5714Z" fill="#363636"/>
</svg>
