<svg width="18" height="18" viewBox="0 0 18 18" fill="none" xmlns="http://www.w3.org/2000/svg">
    <circle cx="9" cy="9" r="8" fill="#038908" stroke="white" stroke-width="2"/>
    <path d="M12.4298 7.0897L7.82385 11.3014C7.76131 11.3588 7.67633 11.3911 7.58771 11.3911C7.49908 11.3911 7.4141 11.3588 7.35156 11.3014L5.57038 9.67103C5.50784 9.61361 5.42286 9.58133 5.33423 9.58133C5.24561 9.58133 5.16063 9.61361 5.09809 9.67103C5.0353 9.72822 5 9.80593 5 9.88698C5 9.96802 5.0353 10.0457 5.09809 10.1029L6.87993 11.7321C7.27131 12.0893 7.9051 12.0893 8.29648 11.7321L12.9021 7.52129C12.9648 7.46411 13 7.38647 13 7.3055C13 7.22452 12.9648 7.14688 12.9021 7.0897C12.8395 7.03228 12.7546 7 12.6659 7C12.5773 7 12.4923 7.03228 12.4298 7.0897Z" fill="white"/>
</svg>
