<svg width="40" height="40" viewBox="0 0 40 40" fill="none" xmlns="http://www.w3.org/2000/svg">
    <path opacity="0.13" fill-rule="evenodd" clip-rule="evenodd" d="M4 40C1.79086 40 0 38.2091 0 36V4C0 1.79086 1.79086 0 4 0H36C38.2091 0 40 1.79086 40 4V36C40 38.2091 38.2091 40 36 40H4Z" fill="#445740"/>
    <path fill-rule="evenodd" clip-rule="evenodd" d="M19.2456 14.6585C18.4961 14.964 18.0145 15.5754 18.0145 16.2602C18.0145 16.9132 18.3447 17.3133 19.2456 17.6969V14.6585ZM19.5307 18.4194C19.4985 18.4194 19.4665 18.4137 19.4361 18.4025C18.4016 18.026 17.4442 17.5057 17.4442 16.2602C17.4442 15.196 18.2555 14.2756 19.463 13.9696C19.548 13.9481 19.6379 13.9681 19.7068 14.0241C19.7757 14.08 19.8159 14.1656 19.8159 14.2562V18.1243C19.8158 18.2872 19.6882 18.4193 19.5307 18.4193L19.5307 18.4194ZM21.8651 21.9727V25.3754C22.9524 25.1508 23.6141 24.4987 23.6141 23.6231C23.6141 22.8435 23.1795 22.4178 21.8651 21.9727V21.9727ZM21.58 26.0154C21.4225 26.0154 21.2948 25.8833 21.2948 25.7204V21.5728C21.2948 21.4797 21.3372 21.392 21.4093 21.3363C21.4813 21.2806 21.5746 21.2634 21.6608 21.2898C23.2592 21.7788 24.1843 22.3183 24.1843 23.6231C24.1843 24.8848 23.1751 25.823 21.6134 26.0134C21.6023 26.0147 21.5911 26.0154 21.58 26.0154H21.58ZM19.8159 29.4099H21.2948V28.2128C21.2948 28.0577 21.4109 27.9291 21.5604 27.9184C24.5633 27.7041 26.4288 25.951 26.4288 23.3429C26.4288 20.6687 24.4652 19.6608 21.5171 18.9705C21.3871 18.9401 21.2949 18.8206 21.2948 18.6827V14.3031C21.2947 14.2136 21.3338 14.1289 21.4011 14.0728C21.4685 14.0167 21.5568 13.9953 21.6412 14.0146C22.7776 14.2934 23.8349 14.8443 24.728 15.6231L25.9199 13.9539C24.6823 12.8748 23.1597 12.2057 21.5498 12.0333C21.4049 12.0174 21.2949 11.8908 21.2948 11.74V10.5901H19.8159V11.7165C19.8159 11.8656 19.7084 11.9913 19.5653 12.0094C16.9407 12.3407 15.1773 14.1518 15.1773 16.5165C15.1773 19.0508 16.8705 20.0158 19.6024 20.7515C19.7281 20.7852 19.8159 20.9026 19.8159 21.0369V25.5808C19.8159 25.6698 19.7771 25.7541 19.7101 25.8102C19.6432 25.8662 19.5555 25.888 19.4713 25.8694C18.1603 25.5664 16.9451 24.924 15.9395 24.0023L14.6764 25.6178C16.047 26.8615 17.7529 27.6408 19.5645 27.8506C19.7078 27.8683 19.8157 27.9941 19.8157 28.1435L19.8159 29.4099ZM21.58 30H19.5307C19.3733 30 19.2456 29.8679 19.2456 29.705V28.4023C17.3163 28.1261 15.5163 27.2409 14.091 25.8674C13.9804 25.762 13.9679 25.5857 14.0625 25.4648L15.6837 23.391C15.7331 23.3277 15.8057 23.2883 15.8841 23.2822C15.9625 23.2762 16.0399 23.3039 16.0979 23.3589C16.9849 24.2325 18.0659 24.867 19.2456 25.2065V21.2645C16.4523 20.4822 14.607 19.3497 14.607 16.5165C14.607 13.9167 16.4602 11.9115 19.2456 11.4598V10.2951C19.2456 10.1321 19.3733 10 19.5308 10H21.58C21.7375 10 21.8651 10.1321 21.8651 10.2951V11.4782C23.5868 11.7178 25.1995 12.4859 26.4951 13.6833C26.608 13.7841 26.6269 13.9579 26.5383 14.082L25.0067 16.2258C24.9595 16.2919 24.8879 16.3347 24.809 16.3437C24.7301 16.3528 24.6511 16.3274 24.591 16.2737C23.8051 15.5442 22.8749 15.001 21.8651 14.6819V18.4489C24.5604 19.1049 26.999 20.1841 26.999 23.3437C26.999 26.2123 25.0397 28.1634 21.8651 28.4851V29.705C21.8651 29.8679 21.7375 30 21.58 30L21.58 30Z" fill="#445740"/>
</svg>
