<svg width="30" height="30" viewBox="0 0 30 30" fill="none" xmlns="http://www.w3.org/2000/svg">
    <path fill-rule="evenodd" clip-rule="evenodd" d="M4 30C1.79086 30 0 28.2091 0 26V4C0 1.79086 1.79086 0 4 0H26C28.2091 0 30 1.79086 30 4V26C30 28.2091 28.2091 30 26 30H4Z" fill="#EAF2F2"/>
    <path fill-rule="evenodd" clip-rule="evenodd" d="M18.8569 10.5108L16.9386 9.00065L18.2038 7.40888L20.1221 8.91902L18.8569 10.5108ZM13.102 17.8574L10.5307 19.1635L11.1837 16.3473L15.7141 10.5924L17.6324 12.1026L13.102 17.8574ZM22.0812 7.85784L18.7344 5.2457C18.2447 4.83755 17.51 4.96 17.1427 5.44977L9.42869 15.2453C9.30625 15.3677 9.26543 15.531 9.22462 15.6942L8.08181 20.5512C7.95937 21.041 8.16344 21.4491 8.48996 21.694C8.81648 21.9389 9.26544 22.0205 9.7144 21.8164L14.1632 19.5716C14.3265 19.49 14.4489 19.3676 14.5714 19.2451L22.2853 9.49041C22.6527 8.95982 22.571 8.26597 22.0813 7.85782L22.0812 7.85784Z" fill="#111111"/>
    <path d="M18.8569 10.5108L18.5476 10.9037L18.9386 11.2115L19.2483 10.8219L18.8569 10.5108ZM16.9386 9.00065L16.5472 8.68953L16.2346 9.08278L16.6293 9.39352L16.9386 9.00065ZM18.2038 7.40888L18.5131 7.01601L18.1221 6.70818L17.8124 7.09775L18.2038 7.40888ZM20.1221 8.91902L20.5135 9.23014L20.8261 8.83688L20.4314 8.52615L20.1221 8.91902ZM13.102 17.8574L13.3284 18.3032L13.4267 18.2533L13.4949 18.1667L13.102 17.8574ZM10.5307 19.1635L10.0436 19.0506L9.80149 20.0947L10.7571 19.6093L10.5307 19.1635ZM11.1837 16.3473L10.7908 16.038L10.7218 16.1257L10.6966 16.2343L11.1837 16.3473ZM15.7141 10.5924L16.0234 10.1995L15.6306 9.89027L15.3213 10.2831L15.7141 10.5924ZM17.6324 12.1026L18.0253 12.4118L18.3346 12.019L17.9417 11.7097L17.6324 12.1026ZM22.0812 7.85784L21.7736 8.25199L22.0604 8.47586L22.3617 8.2718L22.0812 7.85784ZM18.7344 5.2457L18.4143 5.62981L18.4205 5.63493L18.4268 5.63985L18.7344 5.2457ZM17.1427 5.44977L17.5356 5.7592L17.5427 5.74977L17.1427 5.44977ZM9.42869 15.2453L9.78225 15.5988L9.80319 15.5779L9.82151 15.5546L9.42869 15.2453ZM9.22462 15.6942L8.7395 15.573L8.73792 15.5797L9.22462 15.6942ZM8.08181 20.5512L8.56693 20.6725L8.56852 20.6657L8.08181 20.5512ZM9.7144 21.8164L9.92131 22.2716L9.93057 22.2674L9.93965 22.2628L9.7144 21.8164ZM14.1632 19.5716L13.9396 19.1244L13.938 19.1252L14.1632 19.5716ZM14.5714 19.2451L14.9249 19.5987L14.9455 19.5781L14.9635 19.5553L14.5714 19.2451ZM22.2853 9.49041L22.6775 9.80055L22.6874 9.78808L22.6964 9.77501L22.2853 9.49041ZM22.0813 7.85782L22.4014 7.47371L22.1123 7.23285L21.8008 7.44386L22.0813 7.85782ZM19.1662 10.1179L17.2479 8.60778L16.6293 9.39352L18.5476 10.9037L19.1662 10.1179ZM17.33 9.31177L18.5952 7.72L17.8124 7.09775L16.5472 8.68953L17.33 9.31177ZM17.8946 7.80175L19.8128 9.31189L20.4314 8.52615L18.5131 7.01601L17.8946 7.80175ZM19.7307 8.6079L18.4655 10.1997L19.2483 10.8219L20.5135 9.23014L19.7307 8.6079ZM12.8756 17.4116L10.3043 18.7177L10.7571 19.6093L13.3284 18.3032L12.8756 17.4116ZM11.0178 19.2764L11.6708 16.4602L10.6966 16.2343L10.0436 19.0506L11.0178 19.2764ZM11.5766 16.6566L16.107 10.9017L15.3213 10.2831L10.7908 16.038L11.5766 16.6566ZM15.4049 10.9853L17.3232 12.4954L17.9417 11.7097L16.0234 10.1995L15.4049 10.9853ZM17.2396 11.7933L12.7091 17.5481L13.4949 18.1667L18.0253 12.4118L17.2396 11.7933ZM22.3889 7.46368L19.0421 4.85154L18.4268 5.63985L21.7736 8.25199L22.3889 7.46368ZM19.0545 4.86159C18.3278 4.25602 17.2681 4.44917 16.7427 5.14977L17.5427 5.74977C17.7519 5.47082 18.1615 5.41907 18.4143 5.62981L19.0545 4.86159ZM16.7498 5.14042L9.03588 14.9359L9.82151 15.5546L17.5355 5.75911L16.7498 5.14042ZM9.07514 14.8917C8.83893 15.1279 8.77433 15.4338 8.73955 15.573L9.7097 15.8155C9.73162 15.7278 9.74445 15.6798 9.76029 15.6402C9.77367 15.6067 9.78199 15.5991 9.78225 15.5988L9.07514 14.8917ZM8.73792 15.5797L7.59511 20.4367L8.56852 20.6657L9.71133 15.8088L8.73792 15.5797ZM7.59674 20.4299C7.41894 21.1412 7.72537 21.7456 8.18996 22.094L8.78996 21.294C8.60152 21.1527 8.49981 20.9408 8.56689 20.6725L7.59674 20.4299ZM8.18996 22.094C8.65458 22.4425 9.29698 22.5554 9.92131 22.2716L9.5075 21.3613C9.23391 21.4856 8.97839 21.4353 8.78996 21.294L8.18996 22.094ZM9.93965 22.2628L14.3884 20.018L13.938 19.1252L9.48916 21.3701L9.93965 22.2628ZM14.3868 20.0189C14.6338 19.8954 14.8104 19.7131 14.9249 19.5987L14.2178 18.8916C14.0874 19.022 14.0191 19.0847 13.9396 19.1244L14.3868 20.0189ZM14.9635 19.5553L22.6775 9.80055L21.8931 9.18026L14.1792 18.935L14.9635 19.5553ZM22.6964 9.77501C23.2044 9.04134 23.099 8.05509 22.4014 7.47371L21.7612 8.24192C22.0431 8.47684 22.101 8.87829 21.8742 9.2058L22.6964 9.77501ZM21.8008 7.44386L21.8008 7.44388L22.3617 8.2718L22.3617 8.27178L21.8008 7.44386Z" fill="#EAF2F2"/>
    <path fill-rule="evenodd" clip-rule="evenodd" d="M21.2603 24.9999H9.02002C8.44881 24.9999 8 24.5508 8 23.9792C8 23.4076 8.44881 22.9585 9.02002 22.9585H21.2603C21.8315 22.9585 22.2803 23.4076 22.2803 23.9792C22.2803 24.5508 21.8315 24.9999 21.2603 24.9999Z" fill="#445740"/>
</svg>
