<svg width="32" height="32" viewBox="0 0 32 32" fill="none" xmlns="http://www.w3.org/2000/svg">
    <path opacity="0.13" fill-rule="evenodd" clip-rule="evenodd" d="M4 32C1.79086 32 0 30.2091 0 28V4C0 1.79086 1.79086 0 4 0H28C30.2091 0 32 1.79086 32 4V28C32 30.2091 30.2091 32 28 32H4Z" fill="#2D452E"/>
    <path d="M23.5998 17.6C22.8572 17.6 22.145 17.895 21.6199 18.4201C21.0948 18.9452 20.7998 19.6574 20.7998 20.4C20.7998 21.1426 21.0948 21.8548 21.6199 22.3799C22.145 22.905 22.8572 23.2 23.5998 23.2H24.3998C24.5059 23.2 24.6076 23.1578 24.6826 23.0828C24.7577 23.0078 24.7998 22.9061 24.7998 22.8C24.7998 22.6939 24.7577 22.5921 24.6826 22.5171C24.6076 22.4421 24.5059 22.4 24.3998 22.4H23.5998C23.2042 22.4 22.8176 22.2827 22.4887 22.0629C22.1598 21.8432 21.9034 21.5308 21.752 21.1653C21.6007 20.7999 21.5611 20.3978 21.6382 20.0098C21.7154 19.6218 21.9059 19.2655 22.1856 18.9858C22.4653 18.7061 22.8217 18.5156 23.2096 18.4384C23.5976 18.3612 23.9997 18.4008 24.3652 18.5522C24.7306 18.7036 25.043 18.9599 25.2627 19.2888C25.4825 19.6177 25.5998 20.0044 25.5998 20.4C25.5998 20.5061 25.5577 20.6078 25.4826 20.6828C25.4076 20.7578 25.3059 20.8 25.1998 20.8C25.0937 20.8 24.992 20.7578 24.917 20.6828C24.8419 20.6078 24.7998 20.5061 24.7998 20.4V19.6C24.7999 19.5205 24.7764 19.4428 24.7321 19.3768C24.6878 19.3108 24.6248 19.2596 24.5513 19.2295C24.4777 19.1995 24.3968 19.1922 24.319 19.2084C24.2412 19.2246 24.17 19.2636 24.1145 19.3205C23.9542 19.2421 23.7783 19.2009 23.5998 19.2C23.4046 19.1988 23.212 19.2453 23.0388 19.3354C22.8656 19.4255 22.717 19.5565 22.6059 19.717C22.4948 19.8775 22.4245 20.0627 22.4012 20.2566C22.3778 20.4504 22.4022 20.647 22.472 20.8293C22.5419 21.0116 22.6552 21.1741 22.802 21.3027C22.9489 21.4314 23.125 21.5222 23.3149 21.5674C23.5048 21.6126 23.7029 21.6107 23.892 21.562C24.081 21.5133 24.2553 21.4192 24.3998 21.2879C24.5713 21.4443 24.7846 21.5474 25.0137 21.5846C25.2427 21.6217 25.4777 21.5914 25.6898 21.4972C25.902 21.403 26.0821 21.2491 26.2081 21.0543C26.3342 20.8594 26.4008 20.6321 26.3998 20.4C26.3989 19.6576 26.1036 18.946 25.5787 18.4211C25.0538 17.8962 24.3421 17.6009 23.5998 17.6ZM23.5998 20.8C23.5207 20.8 23.4434 20.7765 23.3776 20.7326C23.3118 20.6886 23.2605 20.6261 23.2303 20.553C23.2 20.48 23.1921 20.3995 23.2075 20.3219C23.2229 20.2443 23.261 20.1731 23.317 20.1171C23.3729 20.0612 23.4442 20.0231 23.5218 20.0077C23.5994 19.9922 23.6798 20.0001 23.7529 20.0304C23.826 20.0607 23.8884 20.112 23.9324 20.1777C23.9763 20.2435 23.9998 20.3209 23.9998 20.4C23.9997 20.506 23.9575 20.6077 23.8825 20.6827C23.8075 20.7577 23.7058 20.7998 23.5998 20.8Z" fill="#2D452E"/>
    <path d="M23.6002 16C22.73 16 21.8793 16.2581 21.1557 16.7415C20.4321 17.225 19.8682 17.9122 19.5351 18.7162C19.2021 19.5202 19.115 20.4049 19.2847 21.2584C19.4545 22.1119 19.8736 22.8959 20.4889 23.5113C21.1043 24.1266 21.8883 24.5457 22.7418 24.7155C23.5953 24.8852 24.48 24.7981 25.284 24.4651C26.088 24.132 26.7752 23.5681 27.2587 22.8445C27.7421 22.1209 28.0002 21.2702 28.0002 20.4C27.9988 19.2335 27.5348 18.1151 26.7099 17.2903C25.8851 16.4654 24.7667 16.0014 23.6002 16ZM23.6002 24C22.8882 24 22.1922 23.7889 21.6001 23.3933C21.0081 22.9977 20.5467 22.4355 20.2742 21.7777C20.0018 21.1198 19.9305 20.396 20.0694 19.6977C20.2083 18.9993 20.5511 18.3579 21.0546 17.8544C21.5581 17.3509 22.1995 17.0081 22.8979 16.8692C23.5962 16.7303 24.32 16.8016 24.9779 17.074C25.6357 17.3465 26.1979 17.8079 26.5935 18.3999C26.9891 18.992 27.2002 19.688 27.2002 20.4C27.1992 21.3545 26.8195 22.2695 26.1446 22.9444C25.4697 23.6193 24.5547 23.999 23.6002 24Z" fill="#2D452E"/>
    <path d="M17.9998 22.4H6.1654L13.3734 15.192L15.3561 16.7172C15.426 16.7709 15.5117 16.8 15.5998 16.8C15.688 16.8 15.7737 16.7709 15.8436 16.7172L17.8262 15.192L19.317 16.6828C19.3924 16.7557 19.4935 16.796 19.5983 16.7951C19.7032 16.7942 19.8035 16.7521 19.8777 16.6779C19.9519 16.6038 19.9939 16.5035 19.9948 16.3986C19.9958 16.2937 19.9554 16.1927 19.8826 16.1172L18.4656 14.7002L25.5998 9.2124V14.8C25.5998 14.9061 25.6419 15.0078 25.717 15.0828C25.792 15.1579 25.8937 15.2 25.9998 15.2C26.1059 15.2 26.2076 15.1579 26.2826 15.0828C26.3577 15.0078 26.3998 14.9061 26.3998 14.8V8.4C26.3998 8.34746 26.3895 8.29543 26.3694 8.24689C26.3493 8.19835 26.3199 8.15424 26.2827 8.11709C26.2456 8.07994 26.2015 8.05048 26.1529 8.03039C26.1044 8.01029 26.0523 7.99997 25.9998 8H5.1998C5.14727 7.99997 5.09524 8.01029 5.0467 8.03039C4.99815 8.05048 4.95404 8.07994 4.91689 8.11709C4.87974 8.15424 4.85028 8.19835 4.83019 8.24689C4.8101 8.29543 4.79977 8.34746 4.7998 8.4V17.2C4.7998 17.3061 4.84195 17.4078 4.91696 17.4828C4.99198 17.5579 5.09372 17.6 5.1998 17.6C5.30589 17.6 5.40763 17.5579 5.48265 17.4828C5.55766 17.4078 5.5998 17.3061 5.5998 17.2V9.2124L12.734 14.7002L5.5998 21.8344V20.4C5.5998 20.2939 5.55766 20.1922 5.48265 20.1172C5.40763 20.0421 5.30589 20 5.1998 20C5.09372 20 4.99198 20.0421 4.91696 20.1172C4.84195 20.1922 4.7998 20.2939 4.7998 20.4V22.8C4.79977 22.8525 4.8101 22.9046 4.83019 22.9531C4.85028 23.0017 4.87974 23.0458 4.91689 23.0829C4.95404 23.1201 4.99815 23.1495 5.0467 23.1696C5.09524 23.1897 5.14727 23.2 5.1998 23.2H17.9998C18.1059 23.2 18.2076 23.1579 18.2826 23.0828C18.3577 23.0078 18.3998 22.9061 18.3998 22.8C18.3998 22.6939 18.3577 22.5922 18.2826 22.5172C18.2076 22.4421 18.1059 22.4 17.9998 22.4ZM15.5998 15.8953L6.37588 8.8H24.8237L15.5998 15.8953Z" fill="#2D452E"/>
    <path d="M5.1998 19.2C5.42072 19.2 5.5998 19.0209 5.5998 18.8C5.5998 18.5791 5.42072 18.4 5.1998 18.4C4.97889 18.4 4.7998 18.5791 4.7998 18.8C4.7998 19.0209 4.97889 19.2 5.1998 19.2Z" fill="#2D452E"/>
</svg>
