<svg width="79" height="78" viewBox="0 0 79 78" fill="none" xmlns="http://www.w3.org/2000/svg">
    <circle cx="38" cy="40" r="38" fill="#F7F8F9"/>
    <circle cx="38" cy="40" r="37.5" stroke="#BFBFBF" stroke-opacity="0.264913"/>
    <circle cx="65" cy="14" r="13" fill="#038908" stroke="white" stroke-width="2"/>
    <path d="M71.9309 9.1794L63.2947 17.6028C63.1775 17.7176 63.0181 17.7822 62.8519 17.7822C62.6858 17.7822 62.5264 17.7176 62.4092 17.6028L59.0695 14.3421C58.9522 14.2272 58.7929 14.1627 58.6267 14.1627C58.4605 14.1627 58.3012 14.2272 58.1839 14.3421C58.0662 14.4564 58 14.6119 58 14.774C58 14.936 58.0662 15.0915 58.1839 15.2059L61.5249 18.4641C62.2587 19.1786 63.4471 19.1786 64.1809 18.4641L72.8164 10.0426C72.9339 9.92822 73 9.77293 73 9.61099C73 9.44905 72.9339 9.29376 72.8164 9.1794C72.6991 9.06456 72.5398 9 72.3736 9C72.2075 9 72.0481 9.06456 71.9309 9.1794Z" fill="white" stroke="white" stroke-width="1.86583"/>
    <path d="M47.473 43.4968C46.5063 43.4968 45.5792 43.8808 44.8957 44.5644C44.2121 45.2479 43.8281 46.175 43.8281 47.1417C43.8281 48.1084 44.2121 49.0354 44.8957 49.719C45.5792 50.4025 46.5063 50.7865 47.473 50.7865H48.5144C48.6525 50.7865 48.7849 50.7317 48.8825 50.634C48.9802 50.5364 49.0351 50.4039 49.0351 50.2658C49.0351 50.1277 48.9802 49.9953 48.8825 49.8976C48.7849 49.8 48.6525 49.7451 48.5144 49.7451H47.473C46.9581 49.7451 46.4547 49.5925 46.0266 49.3064C45.5984 49.0203 45.2647 48.6137 45.0677 48.138C44.8706 47.6623 44.8191 47.1388 44.9195 46.6338C45.02 46.1287 45.2679 45.6649 45.632 45.3007C45.9961 44.9366 46.46 44.6887 46.9651 44.5882C47.4701 44.4878 47.9936 44.5393 48.4693 44.7364C48.945 44.9334 49.3516 45.2671 49.6377 45.6953C49.9237 46.1234 50.0764 46.6268 50.0764 47.1417C50.0764 47.2798 50.0216 47.4122 49.9239 47.5099C49.8263 47.6075 49.6938 47.6624 49.5557 47.6624C49.4177 47.6624 49.2852 47.6075 49.1876 47.5099C49.0899 47.4122 49.0351 47.2798 49.0351 47.1417V46.1003C49.0352 45.9968 49.0045 45.8957 48.9469 45.8098C48.8893 45.7239 48.8073 45.6571 48.7115 45.6181C48.6157 45.579 48.5105 45.5694 48.4092 45.5905C48.3079 45.6116 48.2153 45.6625 48.143 45.7365C47.9343 45.6345 47.7053 45.5808 47.473 45.5796C47.2188 45.5781 46.9682 45.6386 46.7427 45.7558C46.5172 45.8731 46.3238 46.0436 46.1792 46.2526C46.0345 46.4616 45.943 46.7027 45.9127 46.955C45.8823 47.2073 45.914 47.4632 46.0049 47.7006C46.0958 47.9379 46.2433 48.1494 46.4345 48.3168C46.6257 48.4843 46.8548 48.6025 47.1021 48.6613C47.3493 48.7201 47.6072 48.7177 47.8533 48.6543C48.0994 48.5909 48.3263 48.4684 48.5144 48.2975C48.7376 48.5011 49.0152 48.6353 49.3134 48.6837C49.6116 48.7321 49.9175 48.6926 50.1936 48.57C50.4698 48.4474 50.7042 48.2471 50.8683 47.9934C51.0325 47.7398 51.1192 47.4438 51.1178 47.1417C51.1167 46.1754 50.7323 45.249 50.049 44.5657C49.3657 43.8824 48.4393 43.498 47.473 43.4968ZM47.473 47.6624C47.37 47.6624 47.2693 47.6318 47.1837 47.5746C47.0981 47.5174 47.0313 47.4361 46.9919 47.3409C46.9525 47.2458 46.9422 47.1411 46.9623 47.0401C46.9824 46.9391 47.032 46.8463 47.1048 46.7735C47.1776 46.7007 47.2704 46.6511 47.3714 46.631C47.4724 46.6109 47.5771 46.6212 47.6722 46.6606C47.7674 46.7 47.8487 46.7668 47.9059 46.8524C47.9631 46.938 47.9937 47.0387 47.9937 47.1417C47.9935 47.2797 47.9386 47.4121 47.841 47.5097C47.7434 47.6073 47.611 47.6622 47.473 47.6624Z" fill="#2D452E"/>
    <path d="M47.4727 41.4138C46.3399 41.4138 45.2325 41.7497 44.2906 42.3791C43.3487 43.0085 42.6146 43.903 42.1811 44.9496C41.7476 45.9962 41.6342 47.1478 41.8552 48.2588C42.0762 49.3699 42.6217 50.3905 43.4227 51.1915C44.2237 51.9925 45.2443 52.538 46.3553 52.759C47.4664 52.98 48.618 52.8666 49.6646 52.4331C50.7112 51.9996 51.6057 51.2654 52.2351 50.3235C52.8644 49.3816 53.2004 48.2743 53.2004 47.1414C53.1986 45.6229 52.5945 44.1671 51.5208 43.0934C50.447 42.0196 48.9912 41.4156 47.4727 41.4138ZM47.4727 51.8277C46.5459 51.8277 45.6399 51.5528 44.8692 51.0379C44.0986 50.523 43.4979 49.7911 43.1432 48.9348C42.7885 48.0785 42.6957 47.1362 42.8766 46.2272C43.0574 45.3182 43.5037 44.4832 44.1591 43.8278C44.8145 43.1724 45.6495 42.7261 46.5585 42.5452C47.4675 42.3644 48.4098 42.4572 49.2661 42.8119C50.1224 43.1666 50.8543 43.7673 51.3692 44.5379C51.8841 45.3086 52.159 46.2146 52.159 47.1414C52.1576 48.3839 51.6635 49.5751 50.7849 50.4536C49.9064 51.3322 48.7152 51.8263 47.4727 51.8277Z" fill="#2D452E"/>
    <path d="M40.1829 49.7449H24.7776L34.1605 40.3621L36.7414 42.3474C36.8324 42.4173 36.944 42.4552 37.0587 42.4552C37.1735 42.4552 37.285 42.4173 37.376 42.3474L39.9569 40.3621L41.8975 42.3027C41.9957 42.3976 42.1272 42.45 42.2637 42.4488C42.4002 42.4477 42.5308 42.3929 42.6274 42.2964C42.7239 42.1998 42.7787 42.0692 42.7799 41.9327C42.7811 41.7962 42.7286 41.6646 42.6337 41.5664L40.7892 39.7219L50.076 32.5782V39.8518C50.076 39.9899 50.1309 40.1223 50.2285 40.22C50.3262 40.3176 50.4586 40.3725 50.5967 40.3725C50.7348 40.3725 50.8673 40.3176 50.9649 40.22C51.0626 40.1223 51.1174 39.9899 51.1174 39.8518V31.5207C51.1175 31.4523 51.104 31.3846 51.0779 31.3214C51.0517 31.2582 51.0134 31.2008 50.965 31.1524C50.9166 31.1041 50.8592 31.0657 50.796 31.0396C50.7328 31.0134 50.6651 31 50.5967 31H23.5207C23.4523 31 23.3846 31.0134 23.3214 31.0396C23.2582 31.0657 23.2008 31.1041 23.1524 31.1524C23.1041 31.2008 23.0657 31.2582 23.0396 31.3214C23.0134 31.3846 23 31.4523 23 31.5207V42.9759C23 43.114 23.0549 43.2465 23.1525 43.3441C23.2502 43.4418 23.3826 43.4966 23.5207 43.4966C23.6588 43.4966 23.7912 43.4418 23.8889 43.3441C23.9865 43.2465 24.0414 43.114 24.0414 42.9759V32.5782L33.3282 39.7219L24.0414 49.0087V47.1415C24.0414 47.0034 23.9865 46.8709 23.8889 46.7733C23.7912 46.6756 23.6588 46.6208 23.5207 46.6208C23.3826 46.6208 23.2502 46.6756 23.1525 46.7733C23.0549 46.8709 23 47.0034 23 47.1415V50.2656C23 50.334 23.0134 50.4018 23.0396 50.4649C23.0657 50.5281 23.1041 50.5856 23.1524 50.6339C23.2008 50.6823 23.2582 50.7206 23.3214 50.7468C23.3846 50.7729 23.4523 50.7864 23.5207 50.7863H40.1829C40.321 50.7863 40.4534 50.7315 40.5511 50.6338C40.6487 50.5362 40.7036 50.4037 40.7036 50.2656C40.7036 50.1275 40.6487 49.9951 40.5511 49.8975C40.4534 49.7998 40.321 49.7449 40.1829 49.7449ZM37.0587 41.2776L25.0516 32.0414H49.0658L37.0587 41.2776Z" fill="#2D452E"/>
    <path d="M23.5207 45.5792C23.8083 45.5792 24.0414 45.3461 24.0414 45.0585C24.0414 44.771 23.8083 44.5378 23.5207 44.5378C23.2331 44.5378 23 44.771 23 45.0585C23 45.3461 23.2331 45.5792 23.5207 45.5792Z" fill="#2D452E"/>
</svg>
