<svg width="32" height="32" viewBox="0 0 32 32" fill="none" xmlns="http://www.w3.org/2000/svg">
    <path opacity="0.13" fill-rule="evenodd" clip-rule="evenodd" d="M4 32C1.79086 32 0 30.2091 0 28V4C0 1.79086 1.79086 0 4 0H28C30.2091 0 32 1.79086 32 4V28C32 30.2091 30.2091 32 28 32H4Z" fill="#2D452E"/>
    <path d="M17.7313 25.2H14.6565C14.143 25.2 13.7252 24.7822 13.7252 24.2687V17.3335H11.9313C11.4178 17.3335 11 16.9156 11 16.4021V13.4304C11 12.9168 11.4178 12.4991 11.9313 12.4991H13.7252V11.0109C13.7252 9.5354 14.1885 8.28003 15.0649 7.38076C15.9453 6.47739 17.1756 6 18.6229 6L20.9678 6.00381C21.4805 6.00469 21.8976 6.42246 21.8976 6.93516V9.69434C21.8976 10.2079 21.4799 10.6257 20.9665 10.6257L19.3877 10.6263C18.9062 10.6263 18.7836 10.7228 18.7574 10.7524C18.7142 10.8015 18.6627 10.9402 18.6627 11.3232V12.4989H20.8479C21.0124 12.4989 21.1717 12.5395 21.3087 12.616C21.6042 12.7811 21.7878 13.0932 21.7878 13.4306L21.7867 16.4023C21.7867 16.9156 21.3689 17.3334 20.8553 17.3334H18.6627V24.2687C18.6627 24.7822 18.2448 25.2 17.7313 25.2ZM14.8508 24.0744H17.537V16.8296C17.537 16.4867 17.8161 16.2078 18.1588 16.2078H20.6611L20.6621 13.6247H18.1587C17.8159 13.6247 17.537 13.3458 17.537 13.0028V11.3232C17.537 10.8835 17.5817 10.3834 17.9136 10.0075C18.3147 9.55313 18.9468 9.50068 19.3874 9.50068L20.772 9.5001V7.1291L18.622 7.12559C16.2961 7.12559 14.8508 8.61445 14.8508 11.0109V13.0028C14.8508 13.3456 14.5719 13.6247 14.2291 13.6247H12.1256V16.2078H14.2291C14.5719 16.2078 14.8508 16.4867 14.8508 16.8296V24.0744ZM20.9656 7.12939H20.9658H20.9656Z" fill="#2D452E"/>
</svg>
