<svg width="32" height="32" viewBox="0 0 32 32" fill="none" xmlns="http://www.w3.org/2000/svg">
    <rect x="0.5" y="0.5" width="31" height="31" rx="4.5" fill="#F2F2F2" stroke="#747474"/>
    <g clip-path="url(#clip0_1844_1504)">
        <path d="M9.46875 11.6442H16.6056C16.8207 12.6233 17.695 13.3583 18.7378 13.3583C19.7805 13.3583 20.6549 12.6233 20.87 11.6442H23.5312C23.7901 11.6442 24 11.4344 24 11.1755C24 10.9166 23.7901 10.7067 23.5312 10.7067H20.8697C20.6542 9.72817 19.7787 8.99268 18.7378 8.99268C17.6963 8.99268 16.8212 9.72806 16.6058 10.7067H9.46875C9.20988 10.7067 9 10.9166 9 11.1755C9 11.4344 9.20988 11.6442 9.46875 11.6442ZM17.4925 11.1767C17.4925 11.1751 17.4925 11.1734 17.4925 11.1717C17.4946 10.4871 18.0532 9.93021 18.7378 9.93021C19.4214 9.93021 19.9801 10.4863 19.983 11.1706L19.9831 11.1775C19.982 11.8632 19.4238 12.4209 18.7378 12.4209C18.0521 12.4209 17.494 11.8638 17.4925 11.1785L17.4925 11.1767ZM23.5312 21.3556H20.8697C20.6542 20.3771 19.7787 19.6415 18.7378 19.6415C17.6963 19.6415 16.8212 20.3769 16.6058 21.3556H9.46875C9.20988 21.3556 9 21.5655 9 21.8244C9 22.0833 9.20988 22.2931 9.46875 22.2931H16.6056C16.8207 23.2722 17.695 24.0072 18.7378 24.0072C19.7805 24.0072 20.6549 23.2722 20.87 22.2931H23.5312C23.7901 22.2931 24 22.0833 24 21.8244C24 21.5655 23.7901 21.3556 23.5312 21.3556ZM18.7378 23.0697C18.0521 23.0697 17.494 22.5126 17.4925 21.8273L17.4925 21.8256C17.4925 21.8239 17.4925 21.8222 17.4925 21.8205C17.4946 21.136 18.0532 20.579 18.7378 20.579C19.4214 20.579 19.9801 21.1352 19.983 21.8194L19.9831 21.8263C19.9821 22.5121 19.4239 23.0697 18.7378 23.0697ZM23.5312 16.0312H16.3944C16.1793 15.0521 15.305 14.3171 14.2622 14.3171C13.2195 14.3171 12.3451 15.0521 12.13 16.0312H9.46875C9.20988 16.0312 9 16.2411 9 16.4999C9 16.7588 9.20988 16.9687 9.46875 16.9687H12.1303C12.3458 17.9472 13.2213 18.6828 14.2622 18.6828C15.3037 18.6828 16.1788 17.9474 16.3942 16.9687H23.5312C23.7901 16.9687 24 16.7588 24 16.4999C24 16.2411 23.7901 16.0312 23.5312 16.0312ZM15.5075 16.4987C15.5075 16.5004 15.5075 16.5021 15.5075 16.5038C15.5054 17.1883 14.9468 17.7452 14.2622 17.7452C13.5786 17.7452 13.0199 17.1891 13.017 16.5049L13.0169 16.498C13.0179 15.8122 13.5762 15.2546 14.2622 15.2546C14.9479 15.2546 15.506 15.8117 15.5075 16.497L15.5075 16.4987Z" fill="#716F6F"/>
    </g>
    <defs>
        <clipPath id="clip0_1844_1504">
            <rect width="15" height="15" fill="white" transform="translate(9 9)"/>
        </clipPath>
    </defs>
</svg>
