<svg width="40" height="40" viewBox="0 0 40 40" fill="none" xmlns="http://www.w3.org/2000/svg">
    <path opacity="0.13" fill-rule="evenodd" clip-rule="evenodd" d="M4 40C1.79086 40 0 38.2091 0 36V4C0 1.79086 1.79086 0 4 0H36C38.2091 0 40 1.79086 40 4V36C40 38.2091 38.2091 40 36 40H4Z" fill="#445740"/>
    <path fill-rule="evenodd" clip-rule="evenodd" d="M26.2115 24.8542C26.2115 27.2553 24.2631 29.2083 21.8686 29.2083C20.4468 29.2083 19.111 28.6533 18.1068 27.6448L13.0013 22.5259C12.8655 22.3905 12.7905 22.2092 12.7905 22.0121C12.7905 21.6147 13.1126 21.2917 13.5089 21.2917C13.7528 21.2917 13.996 21.3495 14.2147 21.4587L16.9565 22.8331C17.0789 22.8941 17.2249 22.8877 17.3402 22.8157C17.4563 22.7436 17.5273 22.6162 17.5273 22.4792V12.5834C17.5273 12.1471 17.881 11.7917 18.3168 11.7917C18.7526 11.7917 19.1062 12.1472 19.1062 12.5834V20.1042C19.1062 20.3227 19.2831 20.5001 19.501 20.5001C19.7189 20.5001 19.8957 20.3227 19.8957 20.1042V16.5417C19.8957 16.1055 20.2494 15.7501 20.6852 15.7501C21.121 15.7501 21.4747 16.1055 21.4747 16.5417V20.1042C21.4747 20.3227 21.6515 20.5001 21.8694 20.5001C22.0873 20.5001 22.2641 20.3227 22.2641 20.1042V17.3334C22.2641 16.8972 22.6178 16.5417 23.0536 16.5417C23.4894 16.5417 23.8431 16.8972 23.8431 17.3334V20.1042C23.8431 20.3227 24.0199 20.5001 24.2378 20.5001C24.4557 20.5001 24.6326 20.3227 24.6326 20.1042V18.125C24.6326 17.6888 24.9862 17.3334 25.422 17.3334C25.8578 17.3334 26.2115 17.6888 26.2115 18.125V24.8542ZM25.422 16.5416C25.0975 16.5416 24.7952 16.6406 24.5441 16.8092C24.3278 16.1933 23.7412 15.75 23.0536 15.75C22.7291 15.75 22.4268 15.849 22.1757 16.0176C21.9594 15.4017 21.3728 14.9583 20.6852 14.9583C20.3978 14.9583 20.1278 15.036 19.8957 15.1713V12.5833C19.8957 11.7101 19.1876 11 18.3168 11C17.446 11 16.7378 11.7101 16.7378 12.5833V21.8387L14.5676 20.7502C14.2407 20.5863 13.8744 20.5 13.5089 20.5C12.6768 20.5 12.001 21.1785 12.001 22.0169C12.001 22.4214 12.1581 22.8006 12.4431 23.0864L17.5478 28.2053C18.7012 29.3627 20.2368 30 21.8694 30C24.6989 30 27.001 27.6915 27.001 24.8542V18.125C27.001 17.2518 26.2928 16.5416 25.422 16.5416H25.422Z" fill="#445740"/>
</svg>
