<svg width="40" height="40" viewBox="0 0 40 40" fill="none" xmlns="http://www.w3.org/2000/svg">
    <path opacity="0.13" fill-rule="evenodd" clip-rule="evenodd" d="M4 40C1.79086 40 0 38.2091 0 36V4C0 1.79086 1.79086 0 4 0H36C38.2091 0 40 1.79086 40 4V36C40 38.2091 38.2091 40 36 40H4Z" fill="#445740"/>
    <path fill-rule="evenodd" clip-rule="evenodd" d="M28.2178 22.6568C28.2178 23.9681 27.2435 24.1771 26.6526 24.1771H25.9091V17.5789H26.6721C27.2513 17.5789 28.2374 17.7765 28.2374 19.0992L28.2178 22.6568ZM21.5068 28.6659V29.2436H19.0376V28.0084H21.5068V28.6659ZM14.0914 17.5523V24.1657H13.3283C12.7492 24.1657 11.763 23.9681 11.763 22.6454V19.0726C11.763 17.7613 12.7374 17.5523 13.3283 17.5523H14.0914ZM27.0439 16.8415C27.0439 13.063 23.8903 10 20.0002 10C16.1101 10 12.9566 13.063 12.9566 16.8415C11.9509 16.9631 11 17.6017 11 19.084V22.6568C11 24.3292 12.2052 24.9373 13.3479 24.9373H14.4827C14.6988 24.9373 14.874 24.7671 14.874 24.5572V17.1988C14.874 16.9889 14.6988 16.8187 14.4827 16.8187H13.7392C13.7392 13.4601 16.5424 10.7374 20.0002 10.7374C23.4581 10.7374 26.2613 13.4601 26.2613 16.8187H25.5178C25.3017 16.8187 25.1264 16.9889 25.1264 17.1988V24.5458C25.1264 24.7557 25.3017 24.9259 25.5178 24.9259H26.2613C26.1517 27.5371 24.8603 28.149 22.2816 28.2592V28.0046C22.2816 27.5847 21.9312 27.2444 21.499 27.2444H19.0376C18.6053 27.2444 18.255 27.5847 18.255 28.0046V29.2398C18.255 29.6597 18.6054 30 19.0376 30H21.5068C21.939 30 22.2894 29.6597 22.2894 29.2398V29.0194C24.7704 28.9092 26.9148 28.4113 27.0439 24.9031C28.0496 24.7814 29.0005 24.1429 29.0005 22.6606V19.0878C29.0005 17.5979 28.0535 16.9631 27.0439 16.8415H27.0439Z" fill="#445740"/>
</svg>
