<svg width="40" height="40" viewBox="0 0 40 40" fill="none" xmlns="http://www.w3.org/2000/svg">
    <path opacity="0.13" fill-rule="evenodd" clip-rule="evenodd" d="M4 40C1.79086 40 0 38.2091 0 36V4C0 1.79086 1.79086 0 4 0H36C38.2091 0 40 1.79086 40 4V36C40 38.2091 38.2091 40 36 40H4Z" fill="#445740"/>
    <path d="M20.0555 24.2202C20.3742 24.2202 20.6328 23.9616 20.6328 23.6429V19.0832C20.6328 18.7645 20.3742 18.5059 20.0555 18.5059C19.7368 18.5059 19.4781 18.7645 19.4781 19.0832V23.6429C19.4781 23.9619 19.7365 24.2202 20.0555 24.2202Z" fill="#2D452E"/>
    <path d="M20.0555 17.9289C20.2085 17.9289 20.3557 17.8683 20.4625 17.7586C20.5722 17.6517 20.6328 17.5045 20.6328 17.3515C20.6328 17.1985 20.5722 17.0513 20.4625 16.9445C20.2489 16.728 19.862 16.728 19.6484 16.9416C19.5387 17.0513 19.4781 17.1985 19.4781 17.3515C19.4781 17.5016 19.5387 17.6517 19.6484 17.7586C19.7552 17.8683 19.9025 17.9289 20.0555 17.9289Z" fill="#2D452E"/>
    <path d="M20.0749 28C20.7316 28 21.3826 27.9146 22.0099 27.7457C24.713 27.0185 26.8296 24.7792 27.4021 22.0405C27.9855 19.2505 26.9087 16.3175 24.6585 14.5684C23.3577 13.5571 21.7171 13 20.0388 13C18.8768 13 17.723 13.2702 16.7016 13.7809C14.1795 15.0427 12.5499 17.6789 12.5499 20.4973C12.5499 22.7969 13.635 25.0133 15.4525 26.4261C16.7579 27.4411 18.3997 28 20.0749 28ZM20.0385 14.1547C21.4614 14.1547 22.8505 14.6253 23.9495 15.48C25.8539 16.9604 26.7655 19.4427 26.2716 21.8041C25.7872 24.1207 23.9965 26.0153 21.7096 26.6305C21.1802 26.7728 20.63 26.8453 20.0749 26.8453H20.0746C18.6548 26.8453 17.2651 26.3727 16.161 25.5145C14.6226 24.3188 13.7043 22.4432 13.7043 20.4973C13.7043 18.1125 15.0833 15.8816 17.2178 14.8138C18.0798 14.3828 19.055 14.1547 20.0385 14.1547Z" fill="#2D452E"/>
</svg>
