<svg width="41" height="41" viewBox="0 0 41 41" fill="none" xmlns="http://www.w3.org/2000/svg">
    <g clip-path="url(#clip0_1627_4576)">
        <path d="M29.8157 41C29.5287 41 29.2349 40.9642 28.9445 40.8873L2.5285 33.8131C0.717669 33.3142 -0.361998 31.4385 0.112918 29.6277L3.44588 17.2047C3.56888 16.7485 4.03696 16.4837 4.49138 16.5999C4.9475 16.7212 5.21742 17.191 5.09613 17.6454L1.76488 30.065C1.52742 30.9704 2.07067 31.9134 2.97779 32.1645L29.3835 39.2353C30.2906 39.4745 31.2268 38.9347 31.4625 38.0327L32.7967 33.0887C32.9198 32.6326 33.3878 32.361 33.844 32.4857C34.3001 32.6087 34.5683 33.0785 34.447 33.5329L33.1145 38.47C32.713 39.9904 31.3293 41 29.8157 41Z" fill="black"/>
        <path d="M37.583 30.75H10.2497C8.36538 30.75 6.83301 29.2176 6.83301 27.3333V6.83329C6.83301 4.949 8.36538 3.41663 10.2497 3.41663H37.583C39.4673 3.41663 40.9997 4.949 40.9997 6.83329V27.3333C40.9997 29.2176 39.4673 30.75 37.583 30.75ZM10.2497 5.12496C9.30838 5.12496 8.54134 5.892 8.54134 6.83329V27.3333C8.54134 28.2746 9.30838 29.0416 10.2497 29.0416H37.583C38.5243 29.0416 39.2913 28.2746 39.2913 27.3333V6.83329C39.2913 5.892 38.5243 5.12496 37.583 5.12496H10.2497Z" fill="black"/>
        <path d="M15.3747 15.375C13.4904 15.375 11.958 13.8426 11.958 11.9583C11.958 10.074 13.4904 8.54163 15.3747 8.54163C17.259 8.54163 18.7913 10.074 18.7913 11.9583C18.7913 13.8426 17.259 15.375 15.3747 15.375ZM15.3747 10.25C14.4334 10.25 13.6663 11.017 13.6663 11.9583C13.6663 12.8996 14.4334 13.6666 15.3747 13.6666C16.316 13.6666 17.083 12.8996 17.083 11.9583C17.083 11.017 16.316 10.25 15.3747 10.25Z" fill="black"/>
        <path d="M7.80674 28.9221C7.58808 28.9221 7.36941 28.8384 7.20199 28.6727C6.86887 28.3396 6.86887 27.798 7.20199 27.4649L15.2705 19.3964C16.2374 18.4295 17.9269 18.4295 18.8938 19.3964L21.2957 21.7984L27.9446 13.8204C28.428 13.2413 29.1387 12.9048 29.8955 12.8979H29.9143C30.6625 12.8979 31.3715 13.2225 31.8601 13.7914L40.7947 24.2157C41.1022 24.5727 41.0612 25.1125 40.7024 25.42C40.3454 25.7275 39.8072 25.6882 39.498 25.3278L30.5635 14.9035C30.3977 14.7122 30.1688 14.6063 29.9143 14.6063C29.7366 14.5909 29.424 14.7139 29.2583 14.9138L22.0098 23.6109C21.8561 23.7954 21.6323 23.9064 21.3914 23.9167C21.1488 23.9338 20.9182 23.8381 20.7491 23.6673L17.686 20.6042C17.3632 20.2831 16.8011 20.2831 16.4782 20.6042L8.40978 28.6727C8.24408 28.8384 8.02541 28.9221 7.80674 28.9221Z" fill="black"/>
    </g>
    <defs>
        <clipPath id="clip0_1627_4576">
            <rect width="41" height="41" fill="white"/>
        </clipPath>
    </defs>
</svg>
