<svg width="32" height="32" viewBox="0 0 32 32" fill="none" xmlns="http://www.w3.org/2000/svg">
    <path opacity="0.13" fill-rule="evenodd" clip-rule="evenodd" d="M4 32C1.79086 32 0 30.2091 0 28V4C0 1.79086 1.79086 0 4 0H28C30.2091 0 32 1.79086 32 4V28C32 30.2091 30.2091 32 28 32H4Z" fill="#2D452E"/>
    <g clip-path="url(#clip0_0_1)">
        <path d="M20.0027 6H11.1973C8.33144 6 6 8.33144 6 11.1973V20.0029C6 22.8685 8.33144 25.2 11.1973 25.2H20.0029C22.8685 25.2 25.2 22.8685 25.2 20.0029V11.1973C25.2 8.33144 22.8685 6 20.0027 6V6ZM24.0744 20.0029C24.0744 22.2479 22.2479 24.0744 20.0027 24.0744H11.1973C8.95209 24.0744 7.12558 22.2479 7.12558 20.0029V11.1973C7.12558 8.95209 8.95209 7.12558 11.1973 7.12558H20.0029C22.2479 7.12558 24.0744 8.95209 24.0744 11.1973V20.0029Z" fill="#2D452E"/>
        <path d="M15.6004 10.3501C12.7056 10.3501 10.3506 12.7051 10.3506 15.5999C10.3506 18.4948 12.7056 20.8498 15.6004 20.8498C18.4952 20.8498 20.8503 18.4948 20.8503 15.5999C20.8503 12.7051 18.4952 10.3501 15.6004 10.3501V10.3501ZM15.6004 19.7242C13.3264 19.7242 11.4762 17.8741 11.4762 15.5999C11.4762 13.3259 13.3264 11.4757 15.6004 11.4757C17.8746 11.4757 19.7247 13.3259 19.7247 15.5999C19.7247 17.8741 17.8746 19.7242 15.6004 19.7242V19.7242Z" fill="#2D452E"/>
        <path d="M20.9751 8.4856C20.1196 8.4856 19.4238 9.18154 19.4238 10.0369C19.4238 10.8923 20.1196 11.5883 20.9751 11.5883C21.8306 11.5883 22.5265 10.8923 22.5265 10.0369C22.5265 9.1814 21.8306 8.4856 20.9751 8.4856ZM20.9751 10.4625C20.7404 10.4625 20.5494 10.2715 20.5494 10.0369C20.5494 9.80205 20.7404 9.61118 20.9751 9.61118C21.2099 9.61118 21.4009 9.80205 21.4009 10.0369C21.4009 10.2715 21.2099 10.4625 20.9751 10.4625Z" fill="#2D452E"/>
    </g>
    <defs>
        <clipPath id="clip0_0_1">
            <rect width="19.2" height="19.2" fill="white" transform="translate(6 6)"/>
        </clipPath>
    </defs>
</svg>
