<svg width="40" height="40" viewBox="0 0 40 40" fill="none" xmlns="http://www.w3.org/2000/svg">
    <path opacity="0.13" fill-rule="evenodd" clip-rule="evenodd" d="M4 40C1.79086 40 0 38.2091 0 36V4C0 1.79086 1.79086 0 4 0H36C38.2091 0 40 1.79086 40 4V36C40 38.2091 38.2091 40 36 40H4Z" fill="#445740"/>
    <path fill-rule="evenodd" clip-rule="evenodd" d="M22.9333 28.8584C24.1784 27.742 25.0952 26.3071 25.5853 24.7083L28.3113 24.238C27.1924 26.4227 25.2615 28.0814 22.9333 28.8584L22.9333 28.8584ZM11.6886 24.2379L14.4147 24.7083C14.9048 26.3071 15.8216 27.742 17.0667 28.8584C14.7384 28.0814 12.8076 26.4227 11.6886 24.2379L11.6886 24.2379ZM17.0667 11.1416C15.8216 12.258 14.9048 13.6928 14.4147 15.2916L11.6886 15.762C12.8076 13.5773 14.7384 11.9186 17.0667 11.1416L17.0667 11.1416ZM28.3113 15.762L25.5853 15.2916C25.0952 13.6929 24.1784 12.258 22.9332 11.1416C25.2615 11.9186 27.1924 13.5773 28.3113 15.762L28.3113 15.762ZM26.3279 19.6667C26.306 18.4295 26.1302 17.1999 25.8047 16.006L28.6486 16.4967C29.0584 17.5054 29.2874 18.5784 29.325 19.6666L26.3279 19.6667ZM23.9064 24.3216C22.7257 24.5236 21.5311 24.6327 20.3333 24.6479V20.3333H25.6616C25.6393 21.6154 25.4448 22.8885 25.0833 24.1186L23.9064 24.3216ZM20.3333 25.3164C21.5691 25.3001 22.8017 25.1872 24.02 24.9787L24.845 24.8359C23.9043 27.383 22.2443 29.1333 20.3333 29.316L20.3333 25.3164ZM15.9796 24.9787C17.1979 25.1872 18.4307 25.3001 19.6667 25.3164V29.3164C17.7557 29.1326 16.0957 27.383 15.1549 24.8366L15.9796 24.9787ZM14.3384 20.3333H19.6667V24.648C18.4689 24.6327 17.2741 24.5236 16.0933 24.3216L14.9167 24.1187C14.5552 22.8885 14.3607 21.6154 14.3384 20.3334L14.3384 20.3333ZM16.0936 15.6784C17.2742 15.4764 18.4689 15.3673 19.6667 15.352V19.6667H14.3384C14.3607 18.3846 14.5552 17.1115 14.9167 15.8814L16.0936 15.6784ZM19.6667 14.6854C18.4308 14.7007 17.1982 14.8131 15.98 15.0213L15.1549 15.1641C16.0957 12.617 17.7557 10.8667 19.6666 10.6839L19.6667 14.6854ZM24.0203 15.0213C22.8021 14.8131 21.5691 14.7007 20.3333 14.6854V10.6854C22.2443 10.869 23.9043 12.6186 24.845 15.1651L24.0203 15.0213ZM20.3333 15.352C21.5311 15.3674 22.7259 15.4764 23.9067 15.6784L25.0833 15.8813C25.4448 17.1115 25.6393 18.3846 25.6616 19.6667H20.3333V15.352ZM11.3514 16.4967L14.1953 16.006C13.8698 17.1999 13.694 18.4295 13.672 19.6667H10.675C10.7126 18.5785 10.9416 17.5054 11.3514 16.4968L11.3514 16.4967ZM10.675 20.3333H13.672C13.694 21.5705 13.8698 22.8001 14.1953 23.994L11.3514 23.5033C10.9416 22.4946 10.7126 21.4216 10.675 20.3333L10.675 20.3333ZM28.6486 23.5033L25.8047 23.994C26.1302 22.8001 26.306 21.5705 26.3279 20.3333H29.325C29.2874 21.4215 29.0584 22.4946 28.6486 23.5032V23.5033ZM20 10C14.4772 10 10 14.4772 10 20C10 25.5228 14.4772 30 20 30C25.5228 30 30 25.5228 30 20C29.9938 14.4798 25.5202 10.0062 20 10Z" fill="#445740"/>
</svg>
