<svg width="40" height="40" viewBox="0 0 40 40" fill="none" xmlns="http://www.w3.org/2000/svg">
    <path opacity="0.13" fill-rule="evenodd" clip-rule="evenodd" d="M4 40C1.79086 40 0 38.2091 0 36V4C0 1.79086 1.79086 0 4 0H36C38.2091 0 40 1.79086 40 4V36C40 38.2091 38.2091 40 36 40H4Z" fill="#445740"/>
    <path fill-rule="evenodd" clip-rule="evenodd" d="M19.1411 10.9933H20.8592C21.0964 10.9933 21.2887 10.8025 21.2887 10.5671C21.2887 10.3317 21.0964 10.1409 20.8592 10.1409H19.1411C18.9038 10.1409 18.7115 10.3317 18.7115 10.5671C18.7115 10.8025 18.9038 10.9933 19.1411 10.9933Z" fill="#445740"/>
    <path fill-rule="evenodd" clip-rule="evenodd" d="M28.1429 30C28.1429 30.6627 27.5672 31.2 26.8572 31.2H13.1429C12.4328 31.2 11.8572 30.6627 11.8572 30V12.8C11.8572 12.1373 12.4328 11.6 13.1429 11.6H14.9304C15.1127 12.0791 15.5981 12.3994 16.1429 12.4H23.8572C24.4019 12.3994 24.8873 12.0791 25.0696 11.6H26.8572C27.5672 11.6 28.1429 12.1373 28.1429 12.8V30ZM15.7143 10.812C15.7138 10.6822 15.7811 10.5604 15.8947 10.4856L18.3106 8.8748C18.3832 8.82591 18.4705 8.79972 18.56 8.8H21.44C21.5288 8.79963 21.6155 8.82538 21.6877 8.8736L24.1049 10.4852C24.2184 10.5603 24.2858 10.6821 24.2857 10.812V11.2C24.2857 11.4209 24.0938 11.6 23.8572 11.6H16.1429C15.9062 11.6 15.7143 11.4209 15.7143 11.2V10.812ZM26.8572 10.8H25.1429C25.1386 10.4167 24.9388 10.0582 24.605 9.8348L22.1857 8.2216C21.968 8.07691 21.7073 7.99943 21.44 8H18.56C18.2926 7.99986 18.0319 8.07776 17.8143 8.2228L15.3963 9.8352C15.062 10.0582 14.8618 10.4166 14.8572 10.8H13.1429C11.96 10.8013 11.0014 11.696 11 12.8V30C11.0014 31.104 11.96 31.9987 13.1429 32H26.8572C28.04 31.9987 28.9986 31.104 29 30V12.8C28.9986 11.696 28.04 10.8013 26.8572 10.8Z" fill="#445740"/>
    <path fill-rule="evenodd" clip-rule="evenodd" d="M13.9968 19.0335H17.4197C17.8923 19.0335 18.2754 18.6504 18.2754 18.1778V17.3135C18.2754 17.0772 18.0839 16.8856 17.8476 16.8856C17.6113 16.8856 17.4197 17.0772 17.4197 17.3135V18.1778H13.9968V14.7549H16.0719C16.3082 14.7549 16.4998 14.5633 16.4998 14.327C16.4998 14.0907 16.3082 13.8992 16.0719 13.8992H13.9968C13.5242 13.8992 13.1411 14.2823 13.1411 14.7549V18.1778C13.1411 18.6504 13.5242 19.0335 13.9968 19.0335L13.9968 19.0335Z" fill="#445740"/>
    <path fill-rule="evenodd" clip-rule="evenodd" d="M18.4329 14.0355L15.7381 16.3506L15.1624 15.7739C14.9945 15.6115 14.7278 15.6138 14.5628 15.7792C14.3978 15.9445 14.3955 16.2119 14.5576 16.3802L15.413 17.2376C15.571 17.3958 15.8238 17.4055 15.9935 17.2599L18.9876 14.6876C19.1104 14.59 19.1701 14.433 19.1433 14.2783C19.1165 14.1236 19.0074 13.9959 18.859 13.9456C18.7106 13.8952 18.5466 13.9302 18.4316 14.0368L18.4329 14.0355Z" fill="#445740"/>
    <path fill-rule="evenodd" clip-rule="evenodd" d="M13.9968 24.5369H17.4197C17.8923 24.5369 18.2754 24.153 18.2754 23.6795V22.8135C18.2754 22.5768 18.0839 22.3848 17.8476 22.3848C17.6113 22.3848 17.4197 22.5768 17.4197 22.8135V23.6795H13.9968V20.2499H16.0719C16.3082 20.2499 16.4998 20.058 16.4998 19.8212C16.4998 19.5845 16.3082 19.3925 16.0719 19.3925H13.9968C13.5242 19.3925 13.1411 19.7764 13.1411 20.2499V23.6795C13.1411 24.153 13.5242 24.5369 13.9968 24.5369L13.9968 24.5369Z" fill="#445740"/>
    <path fill-rule="evenodd" clip-rule="evenodd" d="M18.4329 19.5738L15.7381 21.8889L15.1624 21.3123C14.9945 21.1498 14.7278 21.1521 14.5628 21.3175C14.3978 21.4829 14.3955 21.7503 14.5576 21.9185L15.413 22.776C15.571 22.9341 15.8238 22.9438 15.9935 22.7982L18.9876 20.2259C19.1104 20.1283 19.1701 19.9713 19.1433 19.8166C19.1165 19.6619 19.0074 19.5343 18.859 19.4839C18.7106 19.4336 18.5466 19.4685 18.4316 19.5751L18.4329 19.5738Z" fill="#445740"/>
    <path fill-rule="evenodd" clip-rule="evenodd" d="M17.8476 27.7112C17.6113 27.7112 17.4197 27.9028 17.4197 28.1391V29.0034H13.9968V25.5805H16.0719C16.3082 25.5805 16.4998 25.3889 16.4998 25.1526C16.4998 24.9163 16.3082 24.7248 16.0719 24.7248H13.9968C13.5242 24.7248 13.1411 25.1079 13.1411 25.5805V29.0034C13.1411 29.476 13.5242 29.8591 13.9968 29.8591H17.4197C17.8923 29.8591 18.2754 29.476 18.2754 29.0034V28.1391C18.2754 27.9028 18.0839 27.7112 17.8475 27.7112L17.8476 27.7112Z" fill="#445740"/>
    <path fill-rule="evenodd" clip-rule="evenodd" d="M18.429 24.9679L15.7369 27.2824L15.1617 26.7059C14.994 26.5435 14.7275 26.5458 14.5626 26.7111C14.3978 26.8765 14.3955 27.1438 14.5574 27.312L15.4121 28.1692C15.5699 28.3273 15.8225 28.337 15.992 28.1915L18.9832 25.6198C19.152 25.4635 19.1673 25.2013 19.0178 25.0262C18.8684 24.8512 18.6077 24.826 18.4277 24.9692L18.429 24.9679Z" fill="#445740"/>
    <path fill-rule="evenodd" clip-rule="evenodd" d="M26.0047 14.389H21.7261C21.4898 14.389 21.2982 14.5798 21.2982 14.8152C21.2982 15.0506 21.4898 15.2414 21.7261 15.2414H26.0047C26.241 15.2414 26.4325 15.0506 26.4325 14.8152C26.4325 14.5798 26.241 14.389 26.0047 14.389Z" fill="#445740"/>
    <path fill-rule="evenodd" clip-rule="evenodd" d="M26.0047 15.9813H21.7261C21.4898 15.9813 21.2982 16.1722 21.2982 16.4075C21.2982 16.6429 21.4898 16.8337 21.7261 16.8337H26.0047C26.241 16.8337 26.4325 16.6429 26.4325 16.4075C26.4325 16.1722 26.241 15.9813 26.0047 15.9813Z" fill="#445740"/>
    <path fill-rule="evenodd" clip-rule="evenodd" d="M21.7151 18.4358H23.8604C24.0973 18.4358 24.2894 18.2428 24.2894 18.0046C24.2894 17.7664 24.0973 17.5734 23.8604 17.5734H21.7151C21.4782 17.5734 21.2861 17.7664 21.2861 18.0046C21.2861 18.2427 21.4782 18.4358 21.7151 18.4358Z" fill="#445740"/>
    <path fill-rule="evenodd" clip-rule="evenodd" d="M26.0047 19.9719H21.7261C21.4898 19.9719 21.2982 20.1627 21.2982 20.3981C21.2982 20.6335 21.4898 20.8243 21.7261 20.8243H26.0047C26.241 20.8243 26.4325 20.6335 26.4325 20.3981C26.4325 20.1627 26.241 19.9719 26.0047 19.9719Z" fill="#445740"/>
    <path fill-rule="evenodd" clip-rule="evenodd" d="M26.0047 21.5642H21.7261C21.4898 21.5642 21.2982 21.7572 21.2982 21.9954C21.2982 22.2335 21.4898 22.4266 21.7261 22.4266H26.0047C26.241 22.4266 26.4325 22.2335 26.4325 21.9954C26.4325 21.7572 26.241 21.5642 26.0047 21.5642Z" fill="#445740"/>
    <path fill-rule="evenodd" clip-rule="evenodd" d="M21.7151 24.0187H23.8604C24.0973 24.0187 24.2894 23.8278 24.2894 23.5925C24.2894 23.3571 24.0973 23.1663 23.8604 23.1663H21.7151C21.4782 23.1663 21.2861 23.3571 21.2861 23.5925C21.2861 23.8278 21.4782 24.0187 21.7151 24.0187Z" fill="#445740"/>
    <path fill-rule="evenodd" clip-rule="evenodd" d="M26.0047 25.5547H21.7261C21.4898 25.5547 21.2982 25.7478 21.2982 25.9859C21.2982 26.2241 21.4898 26.4171 21.7261 26.4171H26.0047C26.241 26.4171 26.4325 26.2241 26.4325 25.9859C26.4325 25.7478 26.241 25.5547 26.0047 25.5547Z" fill="#445740"/>
    <path fill-rule="evenodd" clip-rule="evenodd" d="M26.0047 27.0017H21.7261C21.4898 27.0017 21.2982 27.1948 21.2982 27.4329C21.2982 27.6711 21.4898 27.8641 21.7261 27.8641H26.0047C26.241 27.8641 26.4325 27.6711 26.4325 27.4329C26.4325 27.1948 26.241 27.0017 26.0047 27.0017Z" fill="#445740"/>
    <path fill-rule="evenodd" clip-rule="evenodd" d="M23.8604 28.5704H21.7151C21.4782 28.5704 21.2861 28.7634 21.2861 29.0016C21.2861 29.2397 21.4782 29.4328 21.7151 29.4328H23.8604C24.0973 29.4328 24.2894 29.2397 24.2894 29.0016C24.2894 28.7634 24.0973 28.5704 23.8604 28.5704Z" fill="#445740"/>
</svg>
