<svg width="40" height="40" viewBox="0 0 40 40" fill="none" xmlns="http://www.w3.org/2000/svg">
    <path opacity="0.13" fill-rule="evenodd" clip-rule="evenodd" d="M4 40C1.79086 40 0 38.2091 0 36V4C0 1.79086 1.79086 0 4 0H36C38.2091 0 40 1.79086 40 4V36C40 38.2091 38.2091 40 36 40H4Z" fill="#2D452E"/>
    <path fill-rule="evenodd" clip-rule="evenodd" d="M19.3553 29.7394H13.3065C11.6627 29.7394 10.3289 28.4694 10.3289 26.9147V13.0853C10.3289 11.5259 11.6676 10.2606 13.3065 10.2606H19.4538C19.8229 10.2606 20.1182 9.98047 20.1182 9.6303C20.1182 9.28013 19.8229 8.99999 19.4538 8.99999H13.3065C10.9293 8.99999 9 10.8349 9 13.0853V26.9147C9 29.1698 10.9342 31 13.3065 31H19.3553C19.7245 31 20.0198 30.7199 20.0198 30.3697C20.0198 30.0195 19.7195 29.7394 19.3553 29.7394V29.7394Z" fill="#2D452E"/>
    <path fill-rule="evenodd" clip-rule="evenodd" d="M30.8053 19.5322L26.5812 15.3117C26.3203 15.051 25.9018 15.051 25.6409 15.3117C25.3799 15.5724 25.3799 15.9905 25.6409 16.2512L28.7326 19.3403H15.248C14.8788 19.3403 14.5834 19.6355 14.5834 20.0044C14.5834 20.3733 14.8788 20.6684 15.248 20.6684H28.7326L25.6409 23.7575C25.3799 24.0183 25.3799 24.4364 25.6409 24.6971C25.7689 24.825 25.9412 24.8938 26.1086 24.8938C26.276 24.8938 26.4483 24.8299 26.5763 24.6971L30.8004 20.4766C31.0662 20.211 31.0662 19.7879 30.8053 19.5322V19.5322Z" fill="#2D452E"/>
</svg>
