<svg width="79" height="78" viewBox="0 0 79 78" fill="none" xmlns="http://www.w3.org/2000/svg">
    <circle cx="38" cy="40" r="38" fill="#F7F8F9"/>
    <circle cx="38" cy="40" r="37.5" stroke="#BFBFBF" stroke-opacity="0.264913"/>
    <path d="M32.4382 31.5982L32.4381 31.5983L32.4405 31.6008C32.8747 32.0499 33.1374 32.6809 33.1374 33.4062C33.1374 34.0314 32.7889 34.7576 32.3499 35.2117L31.4437 36.1492C30.6812 36.938 30.6812 38.1245 31.4437 38.9133L38.5124 46.2257C38.6994 46.4192 38.8905 46.5686 39.1089 46.669C39.3279 46.7696 39.5691 46.8187 39.8531 46.8187C40.3347 46.8187 40.8134 46.6192 41.1937 46.2257L42.1 45.2882C43.0575 44.2977 44.7142 44.2977 45.6718 45.2882L48.2093 47.9132C49.1687 48.9057 49.1687 50.6255 48.2093 51.618L47.9374 51.8992C46.5071 53.3788 44.8116 54.025 42.9343 54.025C40.8728 54.025 38.6469 53.2828 36.4809 52.069C34.3158 50.8559 32.2166 49.175 30.4099 47.3061C27.6082 44.3141 25.5336 41.046 24.5423 37.9704C23.4632 34.3413 23.9166 31.2934 25.9601 29.1721L26.4027 28.8975L26.4171 28.8885L26.4278 28.8752C26.8606 28.338 27.4654 28.0688 28.1624 28.0688C28.7714 28.0688 29.469 28.3401 29.9019 28.787L32.4382 31.5982ZM30.2281 39.993L30.2281 39.993L30.2258 39.9907C28.8176 38.625 28.8143 36.3445 30.2281 34.882L31.1238 33.9554C31.2349 33.8917 31.3106 33.7793 31.3582 33.6684C31.4087 33.5508 31.4343 33.4202 31.4343 33.3125C31.4343 33.0904 31.3265 32.8793 31.1343 32.6805L28.6072 30.0662C28.5462 29.952 28.4376 29.8732 28.3288 29.8232C28.2143 29.7706 28.0869 29.7437 27.9812 29.7437C27.7628 29.7437 27.5573 29.8571 27.3655 30.0555L27.0937 30.3367C25.0595 32.441 25.4368 35.3974 25.9817 37.3704L25.9817 37.3704L25.982 37.3716C26.8036 40.2046 28.8083 43.312 31.4437 46.0383L31.4443 46.0389C33.8982 48.5304 36.8331 50.6032 39.5927 51.5941C42.3503 52.5843 44.9605 52.5015 46.7223 50.6316C46.7224 50.6314 46.7226 50.6312 46.7227 50.6311L46.9937 50.3507L46.9944 50.3514L47.0028 50.3399C47.1522 50.1339 47.2257 49.8785 47.2257 49.6367C47.2257 49.3959 47.1524 49.1572 46.9937 48.993L44.4562 46.368C44.2604 46.1654 44.0319 46.0562 43.7952 46.0562C43.5586 46.0562 43.3301 46.1654 43.1343 46.368L42.228 47.3055L42.2279 47.3053L42.2236 47.3104C41.6104 48.0354 40.7334 48.4 39.7624 48.4C38.7972 48.4 37.9157 47.9457 37.2968 47.3055L30.2281 39.993Z" fill="#2D452E" stroke="#E4E7E4" stroke-width="0.2"/>
    <path d="M38.3125 34.4375C40.85 34.4375 42.8438 36.5 42.8438 39.125C42.8438 39.6875 43.2063 40.0625 43.75 40.0625C44.2937 40.0625 44.6562 39.6875 44.6562 39.125C44.6562 35.4688 41.8469 32.5625 38.3125 32.5625C37.7687 32.5625 37.4062 32.9375 37.4062 33.5C37.4062 34.0625 37.7687 34.4375 38.3125 34.4375Z" fill="#2D452E"/>
    <path d="M38.4941 29.75C43.3879 29.75 47.3754 33.875 47.3754 38.9375C47.3754 39.5 47.7379 39.875 48.2816 39.875C48.8254 39.875 49.1879 39.5 49.1879 38.9375C49.1879 32.8438 44.3848 27.875 38.4941 27.875C37.9504 27.875 37.5879 28.25 37.5879 28.8125C37.5879 29.375 37.9504 29.75 38.4941 29.75Z" fill="#2D452E"/>
    <circle cx="65" cy="14" r="13" fill="#038908" stroke="white" stroke-width="2"/>
    <path d="M71.9309 9.1794L63.2947 17.6028C63.1775 17.7176 63.0181 17.7822 62.8519 17.7822C62.6858 17.7822 62.5264 17.7176 62.4092 17.6028L59.0695 14.3421C58.9522 14.2272 58.7929 14.1627 58.6267 14.1627C58.4605 14.1627 58.3012 14.2272 58.1839 14.3421C58.0662 14.4564 58 14.6119 58 14.774C58 14.936 58.0662 15.0915 58.1839 15.2059L61.5249 18.4641C62.2587 19.1786 63.4471 19.1786 64.1809 18.4641L72.8164 10.0426C72.9339 9.92822 73 9.77293 73 9.61099C73 9.44905 72.9339 9.29376 72.8164 9.1794C72.6991 9.06456 72.5398 9 72.3736 9C72.2075 9 72.0481 9.06456 71.9309 9.1794Z" fill="white" stroke="white" stroke-width="1.86583"/>
</svg>
