<svg width="40" height="40" viewBox="0 0 40 40" fill="none" xmlns="http://www.w3.org/2000/svg">
    <path opacity="0.13" fill-rule="evenodd" clip-rule="evenodd" d="M4 40C1.79086 40 0 38.2091 0 36V4C0 1.79086 1.79086 0 4 0H36C38.2091 0 40 1.79086 40 4V36C40 38.2091 38.2091 40 36 40H4Z" fill="#445740"/>
    <path fill-rule="evenodd" clip-rule="evenodd" d="M21.7925 13.5989C21.5545 13.5989 21.3614 13.4061 21.3614 13.1684V11.722C21.3614 11.2476 20.9742 10.861 20.4991 10.861C20.0241 10.861 19.6369 11.2476 19.6369 11.722V13.1684C19.6369 13.4061 19.4438 13.5989 19.2058 13.5989C18.9678 13.5989 18.7747 13.4069 18.7747 13.1684V11.722C18.7747 10.7723 19.5481 10 20.4991 10C21.4502 10 22.2236 10.7723 22.2236 11.722V13.1684C22.2236 13.4069 22.0305 13.5989 21.7925 13.5989Z" fill="#445740"/>
    <path fill-rule="evenodd" clip-rule="evenodd" d="M20.5005 30.0002C18.8364 30.0002 17.4827 28.6465 17.4827 26.9824C17.4827 26.7445 17.6758 26.5513 17.9138 26.5513C18.1518 26.5513 18.3449 26.7445 18.3449 26.9824C18.3449 28.1706 19.3123 29.138 20.5005 29.138C21.6886 29.138 22.6561 28.1706 22.6561 26.9824C22.6561 26.7445 22.8492 26.5513 23.0872 26.5513C23.3252 26.5513 23.5183 26.7445 23.5183 26.9824C23.5183 28.6465 22.1646 30.0002 20.5005 30.0002H20.5005Z" fill="#445740"/>
    <path fill-rule="evenodd" clip-rule="evenodd" d="M20.5 13.4073C17.6874 13.4073 15.4 15.6249 15.4 18.3518V20.8553C15.4 22.7902 14.5262 24.6155 13.0022 25.8648C12.9044 25.9456 12.85 26.0601 12.85 26.1805C12.85 26.4079 13.0404 26.5925 13.275 26.5925H27.725C27.9596 26.5925 28.15 26.4079 28.15 26.1805C28.15 26.0601 28.0956 25.9456 28.0012 25.8673C26.4746 24.6155 25.6 22.7894 25.6 20.8553V18.3518C25.6 15.6249 23.3126 13.4073 20.5 13.4073ZM27.725 27.4166H13.275C12.572 27.4166 12 26.862 12 26.1805C12 25.8187 12.1623 25.4767 12.4462 25.241C13.7858 24.1433 14.55 22.5463 14.55 20.8553V18.3518C14.55 15.1708 17.219 12.5833 20.5 12.5833C23.781 12.5833 26.45 15.1708 26.45 18.3518V20.8553C26.45 22.5471 27.2141 24.1433 28.5469 25.2352C28.8377 25.4767 29 25.8187 29 26.1805C29 26.862 28.4288 27.4166 27.725 27.4166Z" fill="#445740"/>
</svg>
