<svg width="32" height="32" viewBox="0 0 32 32" fill="none" xmlns="http://www.w3.org/2000/svg">
    <rect x="0.5" y="0.5" width="31" height="31" rx="4.5" stroke="#747474"/>
    <path fill-rule="evenodd" clip-rule="evenodd" d="M12.8434 9H17.8584L22.1088 13.4303V22.0472C22.1088 23.1267 21.2354 24 20.1597 24H12.8434C11.7639 24 10.8906 23.1267 10.8906 22.0472V10.9528C10.8906 9.87331 11.7639 9 12.8434 9V9Z" fill="#E5252A"/>
    <path opacity="0.302" fill-rule="evenodd" clip-rule="evenodd" d="M17.8545 9V13.3966H22.1086L17.8545 9Z" fill="white"/>
    <path d="M13.0605 20.1918V17.4519H14.2262C14.5148 17.4519 14.7435 17.5306 14.9159 17.6918C15.0883 17.8492 15.1745 18.0629 15.1745 18.329C15.1745 18.5951 15.0883 18.8087 14.9159 18.9661C14.7435 19.1273 14.5148 19.206 14.2262 19.206H13.7614V20.1918H13.0605ZM13.7614 18.6101H14.1475C14.2524 18.6101 14.3349 18.5876 14.3911 18.5351C14.4474 18.4864 14.4774 18.4189 14.4774 18.329C14.4774 18.239 14.4474 18.1716 14.3911 18.1228C14.3349 18.0704 14.2525 18.0479 14.1475 18.0479H13.7614V18.6101ZM15.4631 20.1918V17.4519H16.4339C16.625 17.4519 16.8049 17.4781 16.9736 17.5344C17.1422 17.5906 17.2959 17.6693 17.4309 17.778C17.5658 17.8829 17.6745 18.0254 17.7532 18.2053C17.8282 18.3852 17.8694 18.5913 17.8694 18.8237C17.8694 19.0524 17.8282 19.2585 17.7532 19.4384C17.6745 19.6183 17.5658 19.7607 17.4309 19.8657C17.2959 19.9744 17.1422 20.0531 16.9736 20.1093C16.8049 20.1655 16.625 20.1918 16.4339 20.1918H15.4631ZM16.149 19.5958H16.3514C16.4601 19.5958 16.5613 19.5846 16.655 19.5584C16.7449 19.5321 16.8312 19.4909 16.9136 19.4347C16.9923 19.3785 17.056 19.2997 17.101 19.1948C17.146 19.0899 17.1685 18.9661 17.1685 18.8237C17.1685 18.6775 17.146 18.5539 17.101 18.4489C17.056 18.344 16.9923 18.2653 16.9136 18.209C16.8312 18.1528 16.745 18.1116 16.655 18.0854C16.5613 18.0591 16.4601 18.0479 16.3514 18.0479H16.149V19.5958ZM18.2217 20.1918V17.4519H20.1708V18.0479H18.9226V18.4864H19.9196V19.0786H18.9226V20.1918H18.2217Z" fill="white"/>
</svg>
