<svg width="32" height="32" viewBox="0 0 32 32" fill="none" xmlns="http://www.w3.org/2000/svg">
    <path opacity="0.13" fill-rule="evenodd" clip-rule="evenodd" d="M4 32C1.79086 32 0 30.2091 0 28V4C0 1.79086 1.79086 0 4 0H28C30.2091 0 32 1.79086 32 4V28C32 30.2091 30.2091 32 28 32H4Z" fill="#2D452E"/>
    <path d="M12.4863 10.0083L12.4863 10.0083L12.4887 10.0107C12.7693 10.2914 12.9394 10.6857 12.9394 11.14C12.9394 11.5278 12.7144 11.9836 12.4287 12.2693L11.8287 12.8693C11.3096 13.3884 11.3096 14.1717 11.8287 14.6907L16.5087 19.3707C16.6346 19.4966 16.7645 19.5951 16.9138 19.6614C17.0635 19.728 17.2277 19.76 17.4194 19.76C17.7468 19.76 18.072 19.6289 18.3301 19.3707L18.9301 18.7707C19.5511 18.1498 20.6277 18.1498 21.2487 18.7707L22.9287 20.4507C23.5496 21.0717 23.5496 22.1484 22.9287 22.7693L22.7487 22.9493C21.8087 23.8893 20.6947 24.3 19.4594 24.3C16.7392 24.3 13.5837 22.4027 11.1906 20.0099C9.33845 18.0978 7.96868 16.0109 7.31463 14.0495C6.60355 11.7376 6.90351 9.80436 8.24146 8.45942L8.53085 8.28578L8.54538 8.27707L8.55622 8.26405C8.83539 7.92904 9.2261 7.76003 9.6794 7.76003C10.075 7.76003 10.528 7.93084 10.8075 8.20955L12.4863 10.0083ZM11.0701 15.3293L11.0701 15.3293L11.0678 15.3271C10.1512 14.4678 10.1479 13.033 11.0701 12.1107L11.6598 11.5211C11.7399 11.4751 11.793 11.397 11.8258 11.3231C11.8612 11.2433 11.8794 11.1545 11.8794 11.08C11.8794 10.9242 11.801 10.7802 11.6701 10.6493L10.0004 8.97964C9.95442 8.89957 9.87635 8.84647 9.80251 8.81365C9.72271 8.77818 9.63391 8.76003 9.5594 8.76003C9.40352 8.76003 9.25959 8.83842 9.12869 8.96932L8.94869 9.14932C7.58661 10.5114 7.84191 12.4228 8.20325 13.6875L8.20324 13.6875L8.20362 13.6888C8.7499 15.5097 10.0814 17.5035 11.8287 19.2507L11.8294 19.2514C13.4566 20.8485 15.4038 22.1783 17.2366 22.8145C19.0669 23.4498 20.8108 23.4007 21.9905 22.1903C21.9907 22.1901 21.9909 22.19 21.991 22.1898L22.1701 22.0107L22.1751 22.0057L22.1794 22C22.2834 21.8614 22.3344 21.6899 22.3344 21.5275C22.3344 21.366 22.2835 21.2028 22.1701 21.0893L20.4901 19.4093C20.3552 19.2744 20.1959 19.2 20.0294 19.2C19.8629 19.2 19.7036 19.2744 19.5687 19.4093L18.9687 20.0093L18.9685 20.0092L18.9641 20.0142C18.5657 20.4695 17.9947 20.7 17.3594 20.7C16.7298 20.7 16.1543 20.4135 15.7501 20.0093L11.0701 15.3293Z" fill="#2D452E" stroke="#E4E7E4" stroke-width="0.2"/>
    <path d="M16.3998 11.8C18.0798 11.8 19.3998 13.12 19.3998 14.8C19.3998 15.16 19.6398 15.4 19.9998 15.4C20.3598 15.4 20.5998 15.16 20.5998 14.8C20.5998 12.46 18.7398 10.6 16.3998 10.6C16.0398 10.6 15.7998 10.84 15.7998 11.2C15.7998 11.56 16.0398 11.8 16.3998 11.8Z" fill="#2D452E"/>
    <path d="M16.5189 8.79998C19.7589 8.79998 22.3989 11.44 22.3989 14.68C22.3989 15.04 22.6389 15.28 22.9989 15.28C23.3589 15.28 23.5989 15.04 23.5989 14.68C23.5989 10.78 20.4189 7.59998 16.5189 7.59998C16.1589 7.59998 15.9189 7.83998 15.9189 8.19998C15.9189 8.55998 16.1589 8.79998 16.5189 8.79998Z" fill="#2D452E"/>
</svg>
