<svg width="24" height="24" viewBox="0 0 24 24" fill="none" xmlns="http://www.w3.org/2000/svg">
    <g clip-path="url(#clip0_2567_4418)">
        <g clip-path="url(#clip1_2567_4418)">
            <path d="M23.2077 6.14658H17.9677L18.1177 5.61658C18.2231 5.24621 18.1774 4.84916 17.9905 4.51249C17.8036 4.17581 17.4908 3.92699 17.1207 3.82058L4.15422 0.108577C3.78385 0.00286247 3.38667 0.0484184 3.04986 0.235246C2.71304 0.422073 2.46412 0.734905 2.35772 1.10508L1.48622 4.15208L1.24972 4.97858L0.0562188 9.14708C-0.0487929 9.51737 -0.00291458 9.91417 0.183822 10.2507C0.370559 10.5873 0.682961 10.8362 1.05272 10.9431L4.73072 11.9961V15.9311C4.73098 16.141 4.81451 16.3423 4.96298 16.4908C5.11145 16.6393 5.31275 16.7228 5.52272 16.7231H9.60972C9.53933 17.4614 9.26204 18.1648 8.80972 18.7526C7.10222 20.7581 7.85972 23.5641 7.89522 23.6826C7.91662 23.7589 7.96242 23.8261 8.02562 23.874C8.08882 23.9218 8.16595 23.9477 8.24522 23.9476C8.27901 23.9481 8.31269 23.9437 8.34522 23.9346C8.39125 23.9216 8.43426 23.8996 8.47177 23.8699C8.50928 23.8402 8.54055 23.8034 8.56378 23.7616C8.58702 23.7197 8.60175 23.6737 8.60715 23.6262C8.61254 23.5787 8.60849 23.5305 8.59522 23.4846C8.58822 23.4591 7.90422 20.9346 9.36422 19.2211C10.7217 17.6251 10.4492 14.9021 10.2687 13.0996C10.2397 12.8086 10.2127 12.5406 10.1957 12.3046C10.1855 12.1491 10.2078 11.9932 10.2613 11.8468C10.3148 11.7005 10.3982 11.5669 10.5062 11.4546C10.6342 11.3176 10.7891 11.2084 10.9611 11.1338C11.1332 11.0592 11.3187 11.0208 11.5062 11.0211C11.6953 11.0223 11.8821 11.0619 12.0553 11.1377C12.2285 11.2134 12.3845 11.3236 12.5137 11.4616C12.6195 11.5724 12.7009 11.7042 12.7526 11.8485C12.8042 11.9928 12.8251 12.1463 12.8137 12.2991C12.2907 18.6541 14.1047 19.7296 14.3137 19.8316C14.3998 19.8698 14.4973 19.8731 14.5857 19.8409C14.6742 19.8087 14.7467 19.7433 14.788 19.6587C14.8293 19.5741 14.8361 19.4768 14.807 19.3872C14.778 19.2976 14.7153 19.2229 14.6322 19.1786C14.6217 19.1736 13.9322 18.7166 13.6112 16.7186H18.2657C18.4892 18.8756 17.3962 21.3416 16.1432 23.3721C16.1182 23.4127 16.1014 23.4578 16.0937 23.5048C16.0861 23.5519 16.0879 23.6 16.0988 23.6464C16.1098 23.6929 16.1298 23.7366 16.1577 23.7753C16.1856 23.814 16.2209 23.8468 16.2615 23.8718C16.302 23.8969 16.3472 23.9137 16.3942 23.9213C16.4413 23.9289 16.4894 23.9272 16.5358 23.9162C16.5822 23.9052 16.626 23.8852 16.6647 23.8573C16.7034 23.8294 16.7362 23.7942 16.7612 23.7536C18.4257 21.0566 19.1612 18.6771 18.9842 16.7186H23.2097C23.4186 16.7178 23.6187 16.6347 23.7666 16.4872C23.9145 16.3398 23.9983 16.1399 23.9997 15.9311V6.93808C23.9995 6.72815 23.9159 6.52691 23.7674 6.37852C23.6189 6.23013 23.4176 6.14671 23.2077 6.14658ZM23.2737 6.93808V8.66708C22.832 8.58281 22.4265 8.36584 22.1113 8.04512C21.7962 7.7244 21.5863 7.31518 21.5097 6.87208H23.2097C23.2268 6.87272 23.243 6.87994 23.255 6.89224C23.2669 6.90453 23.2736 6.92095 23.2737 6.93808ZM3.05622 1.30458C3.10949 1.11907 3.23415 0.962268 3.40286 0.868538C3.57158 0.774809 3.77057 0.751808 3.95622 0.804577L16.9227 4.51808C17.0146 4.54434 17.1005 4.58845 17.1754 4.6479C17.2503 4.70734 17.3127 4.78095 17.3591 4.86452C17.4056 4.9481 17.4351 5.04 17.446 5.13497C17.4569 5.22995 17.449 5.32615 17.4227 5.41808L17.1827 6.25758L2.81622 2.14358L3.05622 1.30458ZM2.28372 4.00208L2.61622 2.84058L16.9812 6.95208L16.4122 8.94008L2.04972 4.82908L2.28372 4.00208ZM5.45672 15.9291V14.1926C5.9076 14.2685 6.32361 14.4831 6.64692 14.8064C6.97023 15.1297 7.18477 15.5457 7.26072 15.9966H5.52272C5.51408 15.9966 5.5055 15.995 5.4975 15.9917C5.4895 15.9885 5.48222 15.9837 5.47608 15.9776C5.46994 15.9715 5.46508 15.9642 5.46175 15.9563C5.45843 15.9483 5.45672 15.9397 5.45672 15.9311V15.9291ZM9.67822 15.9946H7.99972C7.91792 15.3494 7.62394 14.7497 7.16404 14.2899C6.70413 13.8301 6.10441 13.5363 5.45922 13.4546V12.2021L9.56722 13.3786C9.66825 14.2474 9.70535 15.1224 9.67822 15.9966V15.9946ZM11.5037 10.3021C11.2167 10.3021 10.9327 10.3612 10.6694 10.4756C10.4061 10.59 10.1691 10.7573 9.97322 10.9671C9.79706 11.1519 9.66135 11.3714 9.57475 11.6116C9.48814 11.8518 9.45254 12.1074 9.47022 12.3621C9.47572 12.4381 9.48372 12.5226 9.49072 12.6046L1.25272 10.2446C1.06714 10.1914 0.910249 10.0668 0.8165 9.89803C0.722751 9.72929 0.699811 9.53023 0.752719 9.34458L1.84972 5.52858L16.2152 9.63958L15.1197 13.4586C15.0935 13.5505 15.0494 13.6364 14.99 13.7113C14.9306 13.7863 14.857 13.8487 14.7734 13.8952C14.6898 13.9416 14.5979 13.9711 14.5029 13.982C14.4079 13.9929 14.3116 13.9849 14.2197 13.9586L13.4562 13.7406C13.4692 13.3141 13.4937 12.8586 13.5342 12.3656C13.554 12.1124 13.5205 11.858 13.436 11.6186C13.3514 11.3792 13.2176 11.1601 13.0432 10.9756C12.8468 10.7634 12.6087 10.594 12.3438 10.4781C12.0789 10.3622 11.7929 10.3023 11.5037 10.3021ZM13.5167 15.9986C13.4742 15.5576 13.4492 15.0566 13.4467 14.4926L14.0217 14.6571C14.392 14.7629 14.7892 14.7174 15.126 14.5306C15.4627 14.3437 15.7115 14.0308 15.8177 13.6606L17.0107 9.49208L17.1877 8.87258L17.7597 6.87258H20.7732C20.8564 7.5098 21.1458 8.10231 21.5972 8.55973C22.0486 9.01716 22.6372 9.31439 23.2732 9.40608V13.4646C22.6372 13.5561 22.0487 13.8531 21.5973 14.3103C21.1459 14.7676 20.8565 15.36 20.7732 15.9971L13.5167 15.9986ZM23.2077 15.9986H21.5077C21.5841 15.5549 21.7941 15.1451 22.1097 14.8241C22.4253 14.503 22.8314 14.286 23.2737 14.2021V15.9311C23.2737 15.9397 23.272 15.9483 23.2687 15.9563C23.2654 15.9642 23.2605 15.9715 23.2544 15.9776C23.2482 15.9837 23.2409 15.9885 23.2329 15.9917C23.2249 15.995 23.2164 15.9966 23.2077 15.9966V15.9986Z" fill="#B3903D"/>
            <path d="M7.39929 9.28344L2.82729 7.97494C2.73446 7.94842 2.6349 7.95986 2.55051 8.00675C2.46612 8.05363 2.40381 8.13212 2.37729 8.22494C2.35077 8.31777 2.36221 8.41733 2.40909 8.50172C2.45597 8.58611 2.53446 8.64842 2.62729 8.67494L7.19929 9.98244C7.29211 10.009 7.39167 9.99753 7.47606 9.95064C7.56046 9.90376 7.62277 9.82527 7.64929 9.73244C7.67581 9.63962 7.66437 9.54006 7.61749 9.45567C7.5706 9.37128 7.49211 9.30897 7.39929 9.28244V9.28344Z" fill="#B3903D"/>
            <path d="M19.5497 9.98242C19.2623 9.98252 18.9814 10.0679 18.7426 10.2276C18.5037 10.3874 18.3176 10.6144 18.2078 10.88C18.0981 11.1456 18.0695 11.4377 18.1258 11.7195C18.1821 12.0013 18.3207 12.2601 18.5241 12.4631C18.7276 12.666 18.9866 12.8041 19.2685 12.8599C19.5504 12.9156 19.8425 12.8864 20.1079 12.7761C20.3732 12.6658 20.5998 12.4792 20.7591 12.24C20.9184 12.0008 21.0032 11.7198 21.0027 11.4324C21.0015 11.0477 20.8479 10.6791 20.5756 10.4074C20.3033 10.1356 19.9344 9.98282 19.5497 9.98242ZM19.5497 12.1609C19.4061 12.1608 19.2658 12.1182 19.1465 12.0384C19.0272 11.9585 18.9342 11.8452 18.8793 11.7125C18.8244 11.5799 18.8101 11.4339 18.8381 11.2932C18.8662 11.1524 18.9353 11.0231 19.0368 10.9216C19.1383 10.8201 19.2676 10.7509 19.4084 10.7229C19.5492 10.6949 19.6951 10.7092 19.8278 10.7641C19.9604 10.819 20.0738 10.912 20.1536 11.0313C20.2334 11.1506 20.2761 11.2909 20.2762 11.4344C20.276 11.6271 20.1994 11.8118 20.0632 11.948C19.927 12.0842 19.7423 12.1608 19.5497 12.1609Z" fill="#B3903D"/>
        </g>
    </g>
    <defs>
        <clipPath id="clip0_2567_4418">
            <rect width="24" height="24" fill="white"/>
        </clipPath>
        <clipPath id="clip1_2567_4418">
            <rect width="24" height="24" fill="white"/>
        </clipPath>
    </defs>
</svg>
