<svg width="40" height="40" viewBox="0 0 40 40" fill="none" xmlns="http://www.w3.org/2000/svg">
    <path opacity="0.13" fill-rule="evenodd" clip-rule="evenodd" d="M4 40C1.79086 40 0 38.2091 0 36V4C0 1.79086 1.79086 0 4 0H36C38.2091 0 40 1.79086 40 4V36C40 38.2091 38.2091 40 36 40H4Z" fill="#445740"/>
    <path fill-rule="evenodd" clip-rule="evenodd" d="M28.1614 18.158C28.1614 22.2924 26.2629 25.0266 24.6702 26.5923C22.8625 28.3695 20.9297 29.1585 20.5001 29.1585C20.0705 29.1585 18.1376 28.3695 16.3299 26.5923C14.7372 25.0266 12.8387 22.2924 12.8387 18.158V14.1787C15.5359 13.4103 18.0479 12.338 20.5002 10.9082C22.8913 12.3001 25.5285 13.4257 28.1613 14.1785L28.1614 18.158ZM28.6915 13.4536C25.9488 12.6996 23.19 11.5256 20.7133 10.0584C20.5817 9.98052 20.4185 9.98052 20.287 10.0584C17.7388 11.5677 15.1291 12.6782 12.3085 13.4536C12.1263 13.5036 12 13.6698 12 13.8593V18.158C12 22.5847 14.0354 25.5148 15.743 27.1934C17.5813 29.0006 19.7227 30 20.5001 30C21.2775 30 23.4189 29.0006 25.2572 27.1934C26.9647 25.5149 29 22.5847 29 18.158V13.8593C29 13.6698 28.8737 13.5036 28.6915 13.4536Z" fill="#445740"/>
</svg>
