<svg width="67" height="40" viewBox="0 0 67 40" fill="none" xmlns="http://www.w3.org/2000/svg">
    <path fill-rule="evenodd" clip-rule="evenodd" d="M2 31C0.895429 31 0 30.1046 0 29V13C0 11.8954 0.89543 11 2 11H65C66.1046 11 67 11.8954 67 13V29C67 30.1046 66.1046 31 65 31H2Z" fill="#FEF6E7"/>
    <path d="M30.003 24.099C29.4897 24.099 28.8187 24.0367 27.99 23.912L27.594 23.857L27.682 23.153C28.6867 23.285 29.4457 23.351 29.959 23.351C31.0443 23.351 31.587 22.8413 31.587 21.822C31.587 21.5433 31.5357 21.3233 31.433 21.162C31.3377 21.0007 31.169 20.8687 30.927 20.766C30.6923 20.6633 30.3477 20.568 29.893 20.48C29.2917 20.3553 28.8223 20.2123 28.485 20.051C28.155 19.8897 27.913 19.6733 27.759 19.402C27.605 19.1307 27.528 18.7677 27.528 18.313C27.528 16.949 28.3457 16.267 29.981 16.267C30.5457 16.267 31.312 16.3403 32.28 16.487L32.203 17.202C31.147 17.0773 30.4247 17.015 30.036 17.015C28.936 17.015 28.386 17.4293 28.386 18.258C28.386 18.5733 28.4373 18.8153 28.54 18.984C28.65 19.1453 28.8333 19.2773 29.09 19.38C29.3467 19.4827 29.7537 19.5963 30.311 19.721C30.8537 19.8457 31.2717 19.985 31.565 20.139C31.8657 20.293 32.0857 20.4983 32.225 20.755C32.3643 21.0043 32.434 21.338 32.434 21.756C32.434 23.318 31.6237 24.099 30.003 24.099ZM35.8659 24.11C35.2792 24.11 34.8136 24.0147 34.4689 23.824C34.1242 23.626 33.8786 23.3217 33.7319 22.911C33.5852 22.5003 33.5119 21.9577 33.5119 21.283C33.5119 20.5863 33.5889 20.029 33.7429 19.611C33.8969 19.1857 34.1462 18.8777 34.4909 18.687C34.8356 18.489 35.2939 18.39 35.8659 18.39C36.4452 18.39 36.9036 18.489 37.2409 18.687C37.5856 18.885 37.8349 19.193 37.9889 19.611C38.1429 20.029 38.2199 20.5863 38.2199 21.283C38.2199 21.9577 38.1466 22.5003 37.9999 22.911C37.8532 23.3217 37.6076 23.626 37.2629 23.824C36.9256 24.0147 36.4599 24.11 35.8659 24.11ZM35.8769 23.395C36.2802 23.395 36.5882 23.329 36.8009 23.197C37.0136 23.0577 37.1602 22.8413 37.2409 22.548C37.3289 22.2473 37.3729 21.8257 37.3729 21.283C37.3729 20.711 37.3289 20.271 37.2409 19.963C37.1529 19.655 37.0026 19.435 36.7899 19.303C36.5772 19.171 36.2729 19.105 35.8769 19.105C35.4809 19.105 35.1729 19.171 34.9529 19.303C34.7402 19.435 34.5862 19.655 34.4909 19.963C34.4029 20.271 34.3589 20.711 34.3589 21.283C34.3589 21.8183 34.3992 22.2363 34.4799 22.537C34.5679 22.8377 34.7182 23.0577 34.9309 23.197C35.1509 23.329 35.4662 23.395 35.8769 23.395ZM41.6774 24.11C41.0908 24.11 40.6251 24.0147 40.2804 23.824C39.9358 23.626 39.6901 23.3217 39.5434 22.911C39.3968 22.5003 39.3234 21.9577 39.3234 21.283C39.3234 20.5863 39.4004 20.029 39.5544 19.611C39.7084 19.1857 39.9578 18.8777 40.3024 18.687C40.6471 18.489 41.1054 18.39 41.6774 18.39C42.2568 18.39 42.7151 18.489 43.0524 18.687C43.3971 18.885 43.6464 19.193 43.8004 19.611C43.9544 20.029 44.0314 20.5863 44.0314 21.283C44.0314 21.9577 43.9581 22.5003 43.8114 22.911C43.6648 23.3217 43.4191 23.626 43.0744 23.824C42.7371 24.0147 42.2714 24.11 41.6774 24.11ZM41.6884 23.395C42.0918 23.395 42.3998 23.329 42.6124 23.197C42.8251 23.0577 42.9718 22.8413 43.0524 22.548C43.1404 22.2473 43.1844 21.8257 43.1844 21.283C43.1844 20.711 43.1404 20.271 43.0524 19.963C42.9644 19.655 42.8141 19.435 42.6014 19.303C42.3888 19.171 42.0844 19.105 41.6884 19.105C41.2924 19.105 40.9844 19.171 40.7644 19.303C40.5518 19.435 40.3978 19.655 40.3024 19.963C40.2144 20.271 40.1704 20.711 40.1704 21.283C40.1704 21.8183 40.2108 22.2363 40.2914 22.537C40.3794 22.8377 40.5298 23.0577 40.7424 23.197C40.9624 23.329 41.2778 23.395 41.6884 23.395ZM45.377 18.5H46.191V18.885C46.521 18.7017 46.8216 18.5733 47.093 18.5C47.3716 18.4267 47.6613 18.39 47.962 18.39C48.4313 18.39 48.7943 18.478 49.051 18.654C49.3076 18.83 49.4873 19.1123 49.59 19.501C49.7 19.8823 49.755 20.414 49.755 21.096V24H48.941V21.118C48.941 20.5973 48.908 20.1977 48.842 19.919C48.7833 19.6403 48.6733 19.4387 48.512 19.314C48.3506 19.1893 48.116 19.127 47.808 19.127C47.5586 19.127 47.302 19.16 47.038 19.226C46.7813 19.2847 46.5723 19.3543 46.411 19.435L46.202 19.534V24H45.377V18.5Z" fill="#B3913E"/>
    <path fill-rule="evenodd" clip-rule="evenodd" d="M18.225 19.6191L14.9622 23.1659L12.695 20.966L13.2342 20.4428L14.9307 22.0888L17.656 19.1263L18.225 19.6191ZM22 21L20.5283 19.4146L20.7588 17.2923L18.6068 16.8502L17.5091 15L15.5 15.8712L13.4909 15L12.3932 16.8502L10.2413 17.2923L10.4717 19.4146L9 21L10.4716 22.5854L10.2412 24.7077L12.3932 25.1498L13.4909 27L15.5 26.1288L17.5091 27L18.6068 25.1498L20.7587 24.7077L20.5283 22.5854L22 21Z" fill="#B3913E"/>
</svg>
