<svg width="40" height="40" viewBox="0 0 40 40" fill="none" xmlns="http://www.w3.org/2000/svg">
    <path opacity="0.13" fill-rule="evenodd" clip-rule="evenodd" d="M4 40C1.79086 40 0 38.2091 0 36V4C0 1.79086 1.79086 0 4 0H36C38.2091 0 40 1.79086 40 4V36C40 38.2091 38.2091 40 36 40H4Z" fill="#445740"/>
    <path fill-rule="evenodd" clip-rule="evenodd" d="M25.0905 23.3555L25.9175 28.3891C25.9592 28.6424 25.8651 28.8844 25.6656 29.0358C25.4658 29.1867 25.2171 29.205 24.9988 29.0863L20.6676 26.7091C20.4589 26.595 20.2291 26.5373 20 26.5373C19.7709 26.5373 19.5414 26.595 19.3324 26.7096L15.0019 29.0863C14.7829 29.205 14.5342 29.1867 14.3347 29.0358C14.1353 28.8844 14.0416 28.6428 14.0828 28.3891L14.9098 23.3555C14.9895 22.8698 14.8353 22.374 14.4973 22.0304L10.9931 18.4653C10.8165 18.2855 10.7564 18.0322 10.8329 17.7877C10.909 17.5428 11.1 17.3747 11.3439 17.3375L16.1862 16.6031C16.6535 16.5324 17.0576 16.2265 17.2663 15.7842L19.4317 11.2041C19.5406 10.9734 19.7533 10.8359 19.9996 10.8359C20.2463 10.8359 20.4585 10.9734 20.5679 11.2041L22.7333 15.7842C22.942 16.2265 23.3456 16.5324 23.813 16.6031L28.6557 17.3375C28.8995 17.3747 29.0906 17.5428 29.1667 17.7877C29.2428 18.0322 29.1831 18.2855 29.0065 18.4653L25.5027 22.03C25.1646 22.374 25.0105 22.8694 25.0906 23.3555H25.0905ZM29.566 19.0639C29.9596 18.6634 30.0986 18.0757 29.9288 17.5294C29.7586 16.983 29.3153 16.593 28.7706 16.5103L23.9279 15.7759C23.7217 15.7445 23.5435 15.6095 23.4514 15.4143L21.2864 10.8342C21.0433 10.3197 20.5499 9.99988 20 9.99988C19.4505 9.99988 18.9571 10.3196 18.7141 10.8342L16.5486 15.4143C16.4565 15.6095 16.2779 15.7445 16.0717 15.7759L11.229 16.5107C10.6847 16.5931 10.2414 16.983 10.0712 17.5294C9.9014 18.0757 10.0404 18.6634 10.434 19.0639L13.9379 22.6286C14.0873 22.7807 14.1557 22.9998 14.1205 23.2138L13.2935 28.2478C13.2006 28.8134 13.4188 29.3739 13.8638 29.7117C14.3083 30.0498 14.887 30.0937 15.3744 29.8258L19.7052 27.449C19.8899 27.3478 20.1101 27.3478 20.2948 27.449L24.626 29.8258C24.8374 29.942 25.0665 29.9992 25.2944 29.9992C25.5903 29.9992 25.8851 29.9027 26.1366 29.7117C26.5815 29.3739 26.7998 28.8134 26.7069 28.2478L25.8795 23.2142C25.8443 22.9998 25.9127 22.7812 26.0621 22.629L29.566 19.0639Z" fill="#445740"/>
</svg>
