<svg width="32" height="32" viewBox="0 0 32 32" fill="none" xmlns="http://www.w3.org/2000/svg">
    <path opacity="0.13" fill-rule="evenodd" clip-rule="evenodd" d="M4 32C1.79086 32 0 30.2091 0 28V4C0 1.79086 1.79086 0 4 0H28C30.2091 0 32 1.79086 32 4V28C32 30.2091 30.2091 32 28 32H4Z" fill="#2D452E"/>
    <g clip-path="url(#clip0_0_1)">
        <path d="M20.1601 12.2399C19.8078 12.4487 19.4227 12.5962 19.0212 12.6763C18.6799 12.3184 18.2066 12.1164 17.7121 12.1177C16.7379 12.1104 15.9397 12.8891 15.923 13.8632C15.9234 13.9984 15.9395 14.1331 15.971 14.2646C14.5363 14.1969 13.1964 13.5286 12.2793 12.4232C12.1225 12.6875 12.0382 12.9886 12.035 13.2959C12.035 13.8886 12.3357 14.4406 12.8336 14.7621C12.5493 14.7529 12.2712 14.6766 12.0219 14.5396C12.0219 14.5396 12.0219 14.5396 12.0219 14.5614C12.0191 15.4125 12.6218 16.1454 13.4576 16.3068C13.1941 16.3771 12.9183 16.3875 12.6503 16.3374C12.8912 17.0584 13.5615 17.5483 14.3216 17.5592C13.6888 18.0513 12.9108 18.3198 12.1092 18.3229C11.9634 18.3227 11.8176 18.314 11.6729 18.2967C12.494 18.8161 13.4459 19.0916 14.4176 19.0909C17.1886 19.1415 19.476 16.9361 19.5266 14.1652C19.5271 14.1358 19.5274 14.1064 19.5274 14.077C19.5274 14.0014 19.5274 13.9258 19.5274 13.8501C19.8694 13.5995 20.1648 13.2908 20.4002 12.9381C20.0726 13.0816 19.7255 13.1756 19.3703 13.2174C19.7439 12.9987 20.0247 12.6511 20.1601 12.2399Z" fill="#2D452E"/>
        <path d="M15.6 6C10.2981 6 6 10.2981 6 15.6C6 20.9019 10.2981 25.2 15.6 25.2C20.9019 25.2 25.2 20.9019 25.2 15.6C25.2 10.2981 20.9019 6 15.6 6ZM15.6 24.3273C10.7801 24.3273 6.87274 20.42 6.87274 15.6C6.87274 10.7801 10.7801 6.87274 15.6 6.87274C20.42 6.87274 24.3273 10.7801 24.3273 15.6C24.3273 20.42 20.42 24.3273 15.6 24.3273Z" fill="#2D452E"/>
    </g>
    <defs>
        <clipPath id="clip0_0_1">
            <rect width="19.2" height="19.2" fill="white" transform="translate(6 6)"/>
        </clipPath>
    </defs>
</svg>
