<svg width="67" height="40" viewBox="0 0 67 40" fill="none" xmlns="http://www.w3.org/2000/svg">
    <path fill-rule="evenodd" clip-rule="evenodd" d="M2 31C0.895429 31 0 30.1046 0 29V13C0 11.8954 0.895431 11 2 11H65C66.1046 11 67 11.8954 67 13V29C67 30.1046 66.1046 31 65 31H2Z" fill="#EAF2F2"/>
    <path d="M27.275 18.5H28.155L29.442 23.285H29.849L31.18 18.5H32.027L30.476 24H28.826L27.275 18.5ZM35.0482 24.11C34.2122 24.11 33.6182 23.8937 33.2662 23.461C32.9216 23.021 32.7492 22.3317 32.7492 21.393C32.7492 20.3737 32.9362 19.6183 33.3102 19.127C33.6842 18.6357 34.2709 18.39 35.0702 18.39C35.8036 18.39 36.3499 18.6027 36.7092 19.028C37.0759 19.446 37.2592 20.0913 37.2592 20.964L37.2152 21.591H33.5852C33.5852 22.0457 33.6329 22.4013 33.7282 22.658C33.8309 22.9147 33.9996 23.1017 34.2342 23.219C34.4762 23.329 34.8099 23.384 35.2352 23.384C35.4479 23.384 35.6936 23.3803 35.9722 23.373C36.2509 23.3583 36.5039 23.34 36.7312 23.318L37.0502 23.285L37.0722 23.934C36.2582 24.0513 35.5836 24.11 35.0482 24.11ZM36.4342 20.931C36.4342 20.2637 36.3279 19.7907 36.1152 19.512C35.9026 19.226 35.5542 19.083 35.0702 19.083C34.5642 19.083 34.1902 19.2333 33.9482 19.534C33.7062 19.8273 33.5816 20.293 33.5742 20.931H36.4342ZM38.5449 18.5H39.3589V19.248C39.9896 18.8153 40.6606 18.5257 41.3719 18.379V19.215C41.0859 19.2737 40.7743 19.3653 40.4369 19.49C40.1069 19.6073 39.8429 19.7173 39.6449 19.82L39.3699 19.963V24H38.5449V18.5ZM42.3477 18.5H43.1617V24H42.3477V18.5ZM42.3477 16.3H43.1617V17.257H42.3477V16.3ZM44.9742 19.215H44.2812V18.5H44.9742V18.005C44.9742 17.4843 45.0218 17.081 45.1172 16.795C45.2125 16.5017 45.3665 16.2963 45.5792 16.179C45.7918 16.0543 46.0852 15.992 46.4592 15.992L47.5702 16.069L47.5592 16.751C47.0972 16.7363 46.8112 16.729 46.7012 16.729C46.5985 16.7217 46.5325 16.718 46.5032 16.718C46.2318 16.718 46.0448 16.828 45.9422 17.048C45.8468 17.268 45.7992 17.5907 45.7992 18.016V18.5H47.3942V19.215H45.7992V24H44.9742V19.215ZM50.3451 24.11C49.5091 24.11 48.9151 23.8937 48.5631 23.461C48.2184 23.021 48.0461 22.3317 48.0461 21.393C48.0461 20.3737 48.2331 19.6183 48.6071 19.127C48.9811 18.6357 49.5678 18.39 50.3671 18.39C51.1004 18.39 51.6468 18.6027 52.0061 19.028C52.3728 19.446 52.5561 20.0913 52.5561 20.964L52.5121 21.591H48.8821C48.8821 22.0457 48.9298 22.4013 49.0251 22.658C49.1278 22.9147 49.2964 23.1017 49.5311 23.219C49.7731 23.329 50.1068 23.384 50.5321 23.384C50.7448 23.384 50.9904 23.3803 51.2691 23.373C51.5478 23.3583 51.8008 23.34 52.0281 23.318L52.3471 23.285L52.3691 23.934C51.5551 24.0513 50.8804 24.11 50.3451 24.11ZM51.7311 20.931C51.7311 20.2637 51.6248 19.7907 51.4121 19.512C51.1994 19.226 50.8511 19.083 50.3671 19.083C49.8611 19.083 49.4871 19.2333 49.2451 19.534C49.0031 19.8273 48.8784 20.293 48.8711 20.931H51.7311ZM55.5468 24.11C54.8501 24.11 54.3515 23.8863 54.0508 23.439C53.7501 22.9843 53.5998 22.2877 53.5998 21.349C53.5998 20.3003 53.7795 19.545 54.1388 19.083C54.5055 18.621 55.1068 18.39 55.9428 18.39C56.3608 18.39 56.7971 18.4377 57.2518 18.533V16.102H58.0658V24H57.2518V23.626C56.6871 23.9487 56.1188 24.11 55.5468 24.11ZM55.7008 23.373C55.9135 23.373 56.1445 23.3437 56.3938 23.285C56.6431 23.219 56.8558 23.1457 57.0318 23.065L57.2518 22.966V19.237C56.7751 19.149 56.3608 19.105 56.0088 19.105C55.4295 19.105 55.0225 19.2737 54.7878 19.611C54.5605 19.9483 54.4468 20.5057 54.4468 21.283C54.4468 21.9943 54.5385 22.5223 54.7218 22.867C54.9125 23.2043 55.2388 23.373 55.7008 23.373Z" fill="#4C99C7"/>
    <path fill-rule="evenodd" clip-rule="evenodd" d="M18.225 19.6191L14.9622 23.1658L12.695 20.966L13.2342 20.4427L14.9307 22.0888L17.656 19.1263L18.225 19.6191ZM22 21L20.5283 19.4146L20.7588 17.2923L18.6068 16.8502L17.5091 15L15.5 15.8712L13.4909 15L12.3932 16.8502L10.2413 17.2923L10.4717 19.4146L9 21L10.4716 22.5854L10.2412 24.7077L12.3932 25.1498L13.4909 27L15.5 26.1288L17.5091 27L18.6068 25.1498L20.7587 24.7077L20.5283 22.5854L22 21Z" fill="#4C99C7"/>
</svg>
