<svg width="32" height="32" viewBox="0 0 32 32" fill="none" xmlns="http://www.w3.org/2000/svg">
    <path opacity="0.13" fill-rule="evenodd" clip-rule="evenodd" d="M4 32C1.79086 32 0 30.2091 0 28V4C0 1.79086 1.79086 0 4 0H28C30.2091 0 32 1.79086 32 4V28C32 30.2091 30.2091 32 28 32H4Z" fill="#2D452E"/>
    <g clip-path="url(#clip0_1625_3630)">
        <path d="M16.0004 6.40002C10.7067 6.40002 6.40039 10.7064 6.40039 16C6.40039 17.8059 6.90218 19.559 7.85405 21.0814C7.47485 22.4099 6.78993 24.9229 6.78254 24.9491C6.7471 25.079 6.78513 25.2179 6.88224 25.3113C6.97934 25.4047 7.11965 25.4379 7.24741 25.3988L11.0527 24.2283C12.5433 25.1263 14.2502 25.6 16.0004 25.6C21.2941 25.6 25.6004 21.2937 25.6004 16C25.6004 10.7064 21.2941 6.40002 16.0004 6.40002ZM16.0004 24.8616C14.3318 24.8616 12.7065 24.3952 11.2997 23.5135C11.2403 23.4762 11.172 23.4574 11.1037 23.4574C11.0671 23.4574 11.0305 23.4629 10.9951 23.4736L7.67239 24.4964C7.91645 23.6054 8.3551 22.0118 8.6095 21.1253C8.63904 21.0227 8.62242 20.9119 8.56445 20.8222C7.63178 19.387 7.13885 17.7195 7.13885 16C7.13885 11.114 11.1144 7.13849 16.0004 7.13849C20.8864 7.13849 24.8619 11.114 24.8619 16C24.8619 20.8861 20.8864 24.8616 16.0004 24.8616Z" fill="#2D452E"/>
        <path d="M22.2716 18.262C21.59 17.8835 21.0096 17.5039 20.5861 17.227C20.2626 17.0158 20.0289 16.8633 19.8576 16.7773C19.3787 16.5384 19.0158 16.7071 18.8777 16.8467C18.8603 16.8641 18.8448 16.8829 18.8315 16.9028C18.3342 17.6491 17.6847 18.3628 17.4945 18.4012C17.2748 18.3668 16.2465 17.7823 15.2245 16.9313C14.181 16.0617 13.5246 15.2291 13.4282 14.662C14.0976 13.973 14.3387 13.5395 14.3387 13.0462C14.3387 12.5378 13.1527 10.4151 12.9382 10.2006C12.723 9.98567 12.2382 9.95207 11.4971 10.0998C11.4258 10.1142 11.3601 10.1492 11.3084 10.2006C11.2187 10.2903 9.11926 12.4307 10.1169 15.0249C11.2121 17.8721 14.023 21.1815 17.6068 21.7191C18.014 21.78 18.3958 21.8103 18.7532 21.8103C20.8615 21.8103 22.1058 20.7495 22.4562 18.6452C22.4825 18.4913 22.4082 18.3377 22.2716 18.262ZM17.7164 20.9887C13.9266 20.4205 11.5396 16.6658 10.8063 14.7598C10.0789 12.8694 11.4203 11.1838 11.757 10.8028C12.031 10.7563 12.3194 10.7367 12.4398 10.7555C12.6912 11.1052 13.5618 12.7501 13.6002 13.0462C13.6002 13.2401 13.5371 13.51 12.7854 14.2621C12.7159 14.3311 12.6772 14.4249 12.6772 14.5231C12.6772 16.4564 16.755 19.1385 17.4772 19.1385C18.1052 19.1385 18.9242 18.0829 19.3905 17.395C19.4175 17.3961 19.4629 17.4054 19.5275 17.4379C19.6604 17.5047 19.8908 17.655 20.1822 17.8455C20.5669 18.0969 21.0779 18.4307 21.6812 18.7767C21.4073 20.0948 20.6415 21.4281 17.7164 20.9887Z" fill="#2D452E"/>
    </g>
    <defs>
        <clipPath id="clip0_1625_3630">
            <rect width="19.2" height="19.2" fill="white" transform="translate(6.40039 6.40002)"/>
        </clipPath>
    </defs>
</svg>
