<svg width="32" height="32" viewBox="0 0 32 32" fill="none" xmlns="http://www.w3.org/2000/svg">
    <path opacity="0.13" fill-rule="evenodd" clip-rule="evenodd" d="M4 32C1.79086 32 0 30.2091 0 28V4C0 1.79086 1.79086 0 4 0H28C30.2091 0 32 1.79086 32 4V28C32 30.2091 30.2091 32 28 32H4Z" fill="#2D452E"/>
    <g clip-path="url(#clip0_0_1)">
        <path d="M18.555 14.7372L14.3133 12.4163C14.0694 12.2828 13.7811 12.2878 13.542 12.4294C13.3028 12.5712 13.1602 12.8217 13.1602 13.0998V17.7017C13.1602 17.9784 13.302 18.2285 13.5396 18.3704C13.6636 18.4445 13.8012 18.4817 13.939 18.4817C14.0653 18.4817 14.1918 18.4505 14.3083 18.3878L18.5502 16.1069C18.802 15.9714 18.9592 15.7097 18.9604 15.4236C18.9614 15.1375 18.8061 14.8746 18.555 14.7372ZM14.2853 17.1228V13.6834L17.4555 15.418L14.2853 17.1228Z" fill="#2D452E"/>
        <path d="M25.0588 11.7572L25.0579 11.7484C25.0416 11.5939 24.8798 10.2193 24.2115 9.52012C23.4391 8.69775 22.5634 8.59785 22.1423 8.54995C22.1074 8.546 22.0755 8.54233 22.0469 8.53853L22.0134 8.53501C19.4751 8.35044 15.6417 8.32524 15.6034 8.3251L15.6 8.32495L15.5966 8.3251C15.5583 8.32524 11.7249 8.35044 9.16377 8.53501L9.12993 8.53853C9.10269 8.54219 9.07266 8.54556 9.03999 8.54937C8.62368 8.59741 7.75737 8.69746 6.98276 9.54956C6.34629 10.2413 6.1623 11.5864 6.14341 11.7376L6.14121 11.7572C6.1355 11.8215 6 13.3524 6 14.8894V16.3261C6 17.863 6.1355 19.3939 6.14121 19.4584L6.14224 19.468C6.1585 19.6201 6.32021 20.9695 6.9854 21.6689C7.71167 22.4638 8.62998 22.5689 9.12393 22.6255C9.202 22.6344 9.26924 22.642 9.31509 22.6501L9.35947 22.6563C10.825 22.7957 15.4201 22.8644 15.6149 22.8672L15.6208 22.8673L15.6267 22.8672C15.665 22.867 19.4982 22.8418 22.0365 22.6573L22.0701 22.6538C22.1021 22.6495 22.1382 22.6457 22.1777 22.6416C22.5917 22.5977 23.4533 22.5064 24.2172 21.6659C24.8537 20.974 25.0378 19.6289 25.0566 19.4778L25.0588 19.4582C25.0645 19.3938 25.2001 17.863 25.2001 16.3261V14.8894C25.2 13.3524 25.0645 11.8217 25.0588 11.7572ZM24.0749 16.3261C24.0749 17.7486 23.9506 19.2136 23.9389 19.348C23.8912 19.7185 23.6971 20.5696 23.387 20.9066C22.9088 21.4327 22.4177 21.4848 22.0591 21.5228C22.0157 21.5273 21.9756 21.5317 21.9393 21.5362C19.4842 21.7138 15.7956 21.741 15.6256 21.742C15.4351 21.7393 10.9072 21.67 9.48633 21.538C9.41353 21.5261 9.33486 21.517 9.25195 21.5077C8.8314 21.4595 8.25571 21.3936 7.81304 20.9066L7.80264 20.8955C7.49795 20.5781 7.30942 19.7822 7.26152 19.3524C7.25259 19.2508 7.12515 17.7685 7.12515 16.3261V14.8894C7.12515 13.4685 7.24907 12.0051 7.26108 11.8678C7.31807 11.4314 7.51582 10.6319 7.81304 10.3088C8.30581 9.7668 8.82539 9.70674 9.16904 9.66704C9.20186 9.66323 9.23247 9.65972 9.26074 9.65605C11.7516 9.47764 15.4667 9.45112 15.6 9.4501C15.7333 9.45098 19.4471 9.47764 21.9158 9.65605C21.9461 9.65986 21.9792 9.66367 22.0148 9.66777C22.3683 9.70806 22.9025 9.76899 23.3928 10.2919L23.3974 10.2968C23.702 10.6142 23.8906 11.424 23.9385 11.8624C23.947 11.9583 24.0749 13.4438 24.0749 14.8894V16.3261Z" fill="#2D452E"/>
    </g>
    <defs>
        <clipPath id="clip0_0_1">
            <rect width="19.2001" height="19.2" fill="white" transform="translate(6 6)"/>
        </clipPath>
    </defs>
</svg>
