<svg width="30" height="11" viewBox="0 0 30 11" fill="none" xmlns="http://www.w3.org/2000/svg">
    <path d="M2.6173 3.23C2.9373 3.23 3.3473 3.27 3.8473 3.35L4.3373 3.43L4.3273 6.47C4.3273 6.79 4.39397 7.02 4.5273 7.16C4.6673 7.3 4.88064 7.37 5.1673 7.37H5.3673C5.4073 7.37 5.43397 7.38333 5.4473 7.41C5.46064 7.43 5.46731 7.45 5.46731 7.47V8.06C5.46731 8.08 5.46064 8.1 5.4473 8.12C5.43397 8.14667 5.4073 8.16 5.3673 8.16H4.9973C4.4773 8.16 4.09064 8.01333 3.83731 7.72C3.58397 7.42 3.4573 7.02333 3.4573 6.53V4.14C3.11064 4.06 2.81397 4.02 2.5673 4.02C2.06064 4.02 1.66397 4.18667 1.3773 4.52C1.09064 4.84667 0.947305 5.26333 0.947305 5.77C0.947305 6.21667 1.08397 6.59667 1.3573 6.91C1.63064 7.21667 2.01397 7.37 2.5073 7.37H3.2273L2.8773 8.16H2.4573C1.96397 8.16 1.53397 8.05 1.1673 7.83C0.807305 7.61 0.530638 7.31333 0.337305 6.94C0.143971 6.56667 0.0473047 6.15667 0.0473047 5.71C0.0473047 5.27667 0.147305 4.87 0.347305 4.49C0.553971 4.11 0.850638 3.80667 1.2373 3.58C1.63064 3.34667 2.09064 3.23 2.6173 3.23ZM1.2173 2.35V1.34H2.1573V2.35H1.2173ZM3.0973 2.35V1.34H4.0373V2.35H3.0973ZM8.38621 6.13C8.38621 6.31 8.35954 6.49667 8.30621 6.69C8.57288 7.14333 9.11954 7.37 9.94621 7.37C9.98621 7.37 10.0129 7.38333 10.0262 7.41C10.0395 7.43 10.0462 7.45 10.0462 7.47V8.06C10.0462 8.07333 10.0395 8.09333 10.0262 8.12C10.0129 8.14667 9.98621 8.16 9.94621 8.16C9.47954 8.16 9.09621 8.09333 8.79621 7.96C8.49621 7.82667 8.23621 7.61667 8.01621 7.33C7.84288 7.58333 7.61954 7.78667 7.34621 7.94C7.07288 8.08667 6.76621 8.16 6.42621 8.16H5.36621C5.32621 8.16 5.29954 8.14667 5.28621 8.12C5.27288 8.1 5.26621 8.08 5.26621 8.06V7.47C5.26621 7.45 5.27288 7.43 5.28621 7.41C5.29954 7.38333 5.32621 7.37 5.36621 7.37H6.26621C6.63288 7.37 6.93288 7.24667 7.16621 7C7.39954 6.74667 7.51621 6.43 7.51621 6.05V3.29H8.38621V6.13ZM6.18621 10.3V9.29H7.12621V10.3H6.18621ZM8.06621 10.3V9.29H9.00621V10.3H8.06621ZM18.4963 6.13C18.4963 6.31667 18.4696 6.50667 18.4163 6.7C18.683 7.14667 19.143 7.37 19.7963 7.37C19.8363 7.37 19.863 7.38333 19.8763 7.41C19.8896 7.43 19.8963 7.45 19.8963 7.47V8.06C19.8963 8.08 19.8896 8.1 19.8763 8.12C19.863 8.14667 19.8363 8.16 19.7963 8.16C19.4163 8.16 19.093 8.09333 18.8263 7.96C18.5596 7.82667 18.323 7.61667 18.1163 7.33C17.7296 7.88333 17.193 8.16 16.5063 8.16C15.753 8.16 15.1596 7.85 14.7263 7.23C14.5596 7.51 14.3363 7.73667 14.0563 7.91C13.7763 8.07667 13.453 8.16 13.0863 8.16H9.94629C9.90629 8.16 9.87962 8.14667 9.86629 8.12C9.85296 8.1 9.84629 8.08 9.84629 8.06V7.47C9.84629 7.45 9.85296 7.43 9.86629 7.41C9.87962 7.38333 9.90629 7.37 9.94629 7.37H11.2063V3.33H12.0863V7.37H12.9263C13.293 7.37 13.593 7.24667 13.8263 7C14.0663 6.74667 14.1863 6.43 14.1863 6.05V3.33H15.0563V6.14C15.0563 6.35333 15.123 6.55667 15.2563 6.75C15.3896 6.93667 15.563 7.08667 15.7763 7.2C15.9896 7.31333 16.2063 7.37 16.4263 7.37C16.793 7.37 17.083 7.25 17.2963 7.01C17.5163 6.76333 17.6263 6.44333 17.6263 6.05V2.91H18.4963V6.13ZM22.8198 6.13C22.8198 6.31 22.7931 6.49667 22.7398 6.69C23.0065 7.14333 23.5531 7.37 24.3798 7.37C24.4198 7.37 24.4465 7.38333 24.4598 7.41C24.4731 7.43 24.4798 7.45 24.4798 7.47V8.06C24.4798 8.07333 24.4731 8.09333 24.4598 8.12C24.4465 8.14667 24.4198 8.16 24.3798 8.16C23.9131 8.16 23.5298 8.09333 23.2298 7.96C22.9298 7.82667 22.6698 7.61667 22.4498 7.33C22.2765 7.58333 22.0531 7.78667 21.7798 7.94C21.5065 8.08667 21.1998 8.16 20.8598 8.16H19.7998C19.7598 8.16 19.7331 8.14667 19.7198 8.12C19.7065 8.1 19.6998 8.08 19.6998 8.06V7.47C19.6998 7.45 19.7065 7.43 19.7198 7.41C19.7331 7.38333 19.7598 7.37 19.7998 7.37H20.6998C21.0665 7.37 21.3665 7.24667 21.5998 7C21.8331 6.74667 21.9498 6.43 21.9498 6.05V3.29H22.8198V6.13ZM20.6198 10.3V9.29H21.5598V10.3H20.6198ZM22.4998 10.3V9.29H23.4398V10.3H22.4998ZM24.3799 8.16C24.3399 8.16 24.3132 8.14667 24.2999 8.12C24.2865 8.09333 24.2799 8.07333 24.2799 8.06V7.47C24.2799 7.45 24.2865 7.43 24.2999 7.41C24.3132 7.38333 24.3399 7.37 24.3799 7.37H26.3599V3.33H27.2199V8.16H24.3799ZM27.0999 0.35C27.2865 0.35 27.4899 0.383333 27.7099 0.449999L27.5099 1.03C27.3565 0.983333 27.2299 0.959999 27.1299 0.959999C26.9965 0.959999 26.8865 1.00333 26.7999 1.09C26.7199 1.17 26.6799 1.29 26.6799 1.45C26.6799 1.63 26.7499 1.78 26.8899 1.9H28.1399V2.52H25.4399L25.5799 1.9H26.2099C26.0899 1.73333 26.0299 1.56333 26.0299 1.39C26.0299 1.09 26.1265 0.843333 26.3199 0.65C26.5132 0.45 26.7732 0.35 27.0999 0.35ZM29.763 8.14C29.763 9.46667 29.1297 10.2533 27.863 10.5L27.513 9.71C27.993 9.65 28.343 9.50333 28.563 9.27C28.783 9.03667 28.893 8.67333 28.893 8.18V3.33H29.763V8.14Z" fill="#363636"/>
</svg>
