<svg width="24" height="24" viewBox="0 0 24 24" fill="none" xmlns="http://www.w3.org/2000/svg">
    <path d="M8.2 3.45456H5C3.89543 3.45456 3 4.34999 3 5.45456V8.49092C3 9.59549 3.89543 10.4909 5 10.4909H8.2C9.30457 10.4909 10.2 9.59549 10.2 8.49092V5.45456C10.2 4.34999 9.30457 3.45456 8.2 3.45456Z" stroke="#363636" stroke-width="1.5" stroke-linejoin="round"/>
    <path d="M18.9998 3.45456H15.7998C14.6952 3.45456 13.7998 4.34999 13.7998 5.45456V8.49092C13.7998 9.59549 14.6952 10.4909 15.7998 10.4909H18.9998C20.1044 10.4909 20.9998 9.59549 20.9998 8.49092V5.45456C20.9998 4.34999 20.1044 3.45456 18.9998 3.45456Z" stroke="#363636" stroke-width="1.5" stroke-linejoin="round"/>
    <path d="M8.2 14.0091H5C3.89543 14.0091 3 14.9045 3 16.0091V19.0455C3 20.15 3.89543 21.0455 5 21.0455H8.2C9.30457 21.0455 10.2 20.15 10.2 19.0455V16.0091C10.2 14.9045 9.30457 14.0091 8.2 14.0091Z" stroke="#363636" stroke-width="1.5" stroke-linejoin="round"/>
    <path d="M18.9998 14.0091H15.7998C14.6952 14.0091 13.7998 14.9045 13.7998 16.0091V19.0455C13.7998 20.15 14.6952 21.0455 15.7998 21.0455H18.9998C20.1044 21.0455 20.9998 20.15 20.9998 19.0455V16.0091C20.9998 14.9045 20.1044 14.0091 18.9998 14.0091Z" stroke="#363636" stroke-width="1.5" stroke-linejoin="round"/>
</svg>
