<svg width="23" height="11" viewBox="0 0 23 11" fill="none" xmlns="http://www.w3.org/2000/svg">
    <path d="M4.65547 6.99C4.74214 7.21 4.86547 7.36667 5.02547 7.46C5.19214 7.55333 5.4588 7.6 5.82547 7.6C5.86547 7.6 5.89214 7.61333 5.90547 7.64C5.9188 7.66 5.92547 7.68 5.92547 7.7V8.06C5.92547 8.08 5.9188 8.1 5.90547 8.12C5.89214 8.14667 5.86547 8.16 5.82547 8.16C5.08547 8.16 4.5688 7.93 4.27547 7.47C3.67547 7.93 3.02547 8.16 2.32547 8.16H0.555469L0.305469 7.6H2.40547C3.0988 7.6 3.6588 7.42667 4.08547 7.08L2.55547 3.3H3.22547L4.65547 6.99ZM5.82812 8.16C5.78812 8.16 5.76146 8.14667 5.74812 8.12C5.73479 8.1 5.72812 8.08 5.72812 8.06V7.7C5.72812 7.68 5.73479 7.66 5.74812 7.64C5.76146 7.61333 5.78812 7.6 5.82812 7.6H7.95813V3.4H8.53813V8.16H5.82812ZM6.19813 10.3V9.43H6.85813V10.3H6.19813ZM8.01813 10.3V9.43H8.67813V10.3H8.01813ZM10.704 2.35V1.48H11.364V2.35H10.704ZM12.554 7.6C12.594 7.6 12.6207 7.61333 12.634 7.64C12.6473 7.66667 12.654 7.68667 12.654 7.7V8.06C12.654 8.08 12.6473 8.1 12.634 8.12C12.6207 8.14667 12.594 8.16 12.554 8.16C12.0473 8.16 11.6373 7.97 11.324 7.59V8.29C11.324 8.89667 11.1807 9.38 10.894 9.74C10.614 10.1 10.174 10.3533 9.57398 10.5L9.33398 9.97C9.80732 9.91 10.1607 9.74667 10.394 9.48C10.6273 9.21333 10.744 8.83 10.744 8.33V3.4H11.324V6.66C11.5707 7.28667 11.9807 7.6 12.554 7.6ZM14.647 3.3C15.1936 3.3 15.6603 3.41667 16.047 3.65C16.4336 3.87667 16.7236 4.17667 16.917 4.55C17.117 4.91667 17.217 5.31 17.217 5.73C17.217 6.13667 17.137 6.51 16.977 6.85C17.0903 7.07667 17.2603 7.26 17.487 7.4C17.7136 7.53333 17.9936 7.6 18.327 7.6C18.367 7.6 18.3936 7.61333 18.407 7.64C18.4203 7.66 18.427 7.68 18.427 7.7V8.06C18.427 8.08 18.4203 8.1 18.407 8.12C18.3936 8.14667 18.367 8.16 18.327 8.16C17.647 8.16 17.1003 7.87667 16.687 7.31C16.4803 7.57667 16.217 7.78667 15.897 7.94C15.5836 8.08667 15.2303 8.16 14.837 8.16H12.127C12.087 8.16 12.0603 8.14667 12.047 8.12C12.0336 8.1 12.027 8.08 12.027 8.06V7.7C12.027 7.68 12.0336 7.66 12.047 7.64C12.0603 7.61333 12.087 7.6 12.127 7.6H13.047V3.51C13.687 3.37 14.2203 3.3 14.647 3.3ZM14.617 3.86C14.2903 3.86 13.9603 3.89667 13.627 3.97V7.6H14.787C15.3736 7.6 15.8236 7.44333 16.137 7.13C16.457 6.81 16.617 6.35333 16.617 5.76C16.617 5.42667 16.5436 5.11667 16.397 4.83C16.2503 4.54333 16.0236 4.31 15.717 4.13C15.417 3.95 15.0503 3.86 14.617 3.86ZM18.3281 8.16C18.2881 8.16 18.2615 8.14667 18.2481 8.12C18.2348 8.1 18.2281 8.08 18.2281 8.06V7.7C18.2281 7.68 18.2348 7.66 18.2481 7.64C18.2615 7.61333 18.2881 7.6 18.3281 7.6H19.7381V0.499999H20.3181V8.16H18.3281ZM22.3164 8.16V0.499999H22.8964V8.16H22.3164Z" fill="#363636"/>
</svg>
