<svg width="20" height="21" viewBox="0 0 20 21" fill="none" xmlns="http://www.w3.org/2000/svg">
    <g clip-path="url(#clip0_47_181)">
        <g opacity="0.7">
            <mask id="mask0_47_181" style="mask-type:alpha" maskUnits="userSpaceOnUse" x="0" y="0" width="20" height="21">
                <path d="M0 0.839966H19.823V20.6636H0V0.839966Z" fill="white"/>
            </mask>
            <g mask="url(#mask0_47_181)">
                <path d="M9.91116 1C6.74604 1.0042 3.7464 2.5372 1.88748 5.09836L1.5834 5.51668V1.79128C1.5834 1.35532 1.22808 1 0.79212 1C0.35532 1 0 1.35532 0 1.79128V6.93628C0 7.71244 0.63084 8.34328 1.407 8.34328H6.552C6.9888 8.34328 7.34328 7.98796 7.34328 7.552C7.34328 7.1152 6.9888 6.76072 6.552 6.76072H2.68632L2.8476 6.50368C4.38144 4.0534 7.02324 2.58928 9.912 2.58424C14.4992 2.59012 18.2347 6.3256 18.2398 10.9128C18.2347 15.4992 14.4992 19.2347 9.912 19.2406C6.36888 19.2398 3.20712 16.9911 2.04288 13.6445C1.97316 13.4438 1.82952 13.2833 1.63968 13.1918C1.53132 13.1388 1.41372 13.1128 1.29444 13.1128C1.20708 13.1128 1.11804 13.1271 1.03488 13.1565C0.62244 13.2993 0.40404 13.7512 0.54684 14.1636C1.932 18.1452 5.6952 20.8215 9.91116 20.824C15.3703 20.8181 19.8164 16.3712 19.8232 10.912C19.8164 5.45284 15.3703 1.00588 9.91116 1Z" fill="#363636"/>
                <path d="M9.91116 1C6.74604 1.0042 3.7464 2.5372 1.88748 5.09836L1.5834 5.51668V1.79128C1.5834 1.35532 1.22808 1 0.79212 1C0.35532 1 0 1.35532 0 1.79128V6.93628C0 7.71244 0.63084 8.34328 1.407 8.34328H6.552C6.9888 8.34328 7.34328 7.98796 7.34328 7.552C7.34328 7.1152 6.9888 6.76072 6.552 6.76072H2.68632L2.8476 6.50368C4.38144 4.0534 7.02324 2.58928 9.912 2.58424C14.4992 2.59012 18.2347 6.3256 18.2398 10.9128C18.2347 15.4992 14.4992 19.2347 9.912 19.2406C6.36888 19.2398 3.20712 16.9911 2.04288 13.6445C1.97316 13.4438 1.82952 13.2833 1.63968 13.1918C1.53132 13.1388 1.41372 13.1128 1.29444 13.1128C1.20708 13.1128 1.11804 13.1271 1.03488 13.1565C0.62244 13.2993 0.40404 13.7512 0.54684 14.1636C1.932 18.1452 5.6952 20.8215 9.91116 20.824C15.3703 20.8181 19.8164 16.3712 19.8232 10.912C19.8164 5.45284 15.3703 1.00588 9.91116 1Z" stroke="#363636"/>
            </g>
        </g>
    </g>
    <defs>
        <clipPath id="clip0_47_181">
            <rect width="19.8333" height="21" fill="white"/>
        </clipPath>
    </defs>
</svg>
