<svg width="66" height="11" viewBox="0 0 66 11" fill="none" xmlns="http://www.w3.org/2000/svg">
    <path d="M2.51672 3.3C2.81005 3.3 3.14005 3.33333 3.50672 3.4L4.08672 3.5V6.72C4.08672 7.02667 4.15672 7.25 4.29672 7.39C4.43672 7.53 4.65672 7.6 4.95672 7.6H5.15672C5.19672 7.6 5.22339 7.61333 5.23672 7.64C5.25005 7.66 5.25672 7.68 5.25672 7.7V8.06C5.25672 8.08 5.25005 8.1 5.23672 8.12C5.22339 8.14667 5.19672 8.16 5.15672 8.16H4.93672C4.43672 8.16 4.07339 8.02667 3.84672 7.76C3.62005 7.48667 3.50672 7.13333 3.50672 6.7V4.01C3.00672 3.91 2.66005 3.86 2.46672 3.86C2.08005 3.86 1.74672 3.95333 1.46672 4.14C1.19339 4.32667 0.986719 4.57333 0.846719 4.88C0.706719 5.18 0.636719 5.49667 0.636719 5.83C0.636719 6.13 0.703385 6.41667 0.836719 6.69C0.970052 6.95667 1.16672 7.17667 1.42672 7.35C1.69339 7.51667 2.01005 7.6 2.37672 7.6H3.21672L2.96672 8.16H2.42672C1.91339 8.16 1.47672 8.04667 1.11672 7.82C0.756719 7.59333 0.486719 7.29667 0.306719 6.93C0.126719 6.56333 0.0367188 6.17 0.0367188 5.75C0.0367188 5.33667 0.130052 4.94333 0.316719 4.57C0.510052 4.19667 0.793385 3.89333 1.16672 3.66C1.54005 3.42 1.99005 3.3 2.51672 3.3ZM1.28672 2.35V1.48H1.94672V2.35H1.28672ZM3.10672 2.35V1.48H3.76672V2.35H3.10672ZM8.5082 3.3C8.91487 3.3 9.47154 3.37667 10.1782 3.53V5.7C10.1782 6.14 10.1049 6.52667 9.9582 6.86C10.0782 7.08 10.2515 7.26 10.4782 7.4C10.7049 7.53333 10.9815 7.6 11.3082 7.6C11.3482 7.6 11.3749 7.61333 11.3882 7.64C11.4015 7.66 11.4082 7.68 11.4082 7.7V8.06C11.4082 8.08 11.4015 8.1 11.3882 8.12C11.3749 8.14667 11.3482 8.16 11.3082 8.16C10.6282 8.16 10.0882 7.88667 9.6882 7.34C9.27487 7.88667 8.65154 8.16 7.8182 8.16H5.1582C5.1182 8.16 5.09154 8.14667 5.0782 8.12C5.06487 8.1 5.0582 8.08 5.0582 8.06V7.7C5.0582 7.68 5.06487 7.66 5.0782 7.64C5.09154 7.61333 5.1182 7.6 5.1582 7.6H6.9782C6.66487 7.40667 6.4282 7.15 6.2682 6.83C6.1082 6.50333 6.0282 6.14333 6.0282 5.75C6.0282 5.33667 6.12154 4.94333 6.3082 4.57C6.50154 4.19667 6.78487 3.89333 7.1582 3.66C7.53154 3.42 7.98154 3.3 8.5082 3.3ZM8.4582 3.86C8.07154 3.86 7.7382 3.95333 7.4582 4.14C7.18487 4.32667 6.9782 4.57333 6.8382 4.88C6.6982 5.18 6.6282 5.49667 6.6282 5.83C6.6282 6.12333 6.69154 6.40333 6.8182 6.67C6.94487 6.93667 7.13154 7.15667 7.3782 7.33C7.63154 7.49667 7.93487 7.58667 8.2882 7.6C8.71487 7.49333 9.0382 7.28333 9.2582 6.97C9.48487 6.65 9.5982 6.24667 9.5982 5.76V4.01C9.17154 3.91 8.79154 3.86 8.4582 3.86ZM7.2182 2.35V1.48H7.8782V2.35H7.2182ZM9.0382 2.35V1.48H9.6982V2.35H9.0382ZM11.3105 8.16C11.2705 8.16 11.2439 8.14667 11.2305 8.12C11.2172 8.1 11.2105 8.08 11.2105 8.06V7.7C11.2105 7.68 11.2172 7.66 11.2305 7.64C11.2439 7.61333 11.2705 7.6 11.3105 7.6H12.7205V3.4H13.3005V8.16H11.3105ZM12.6105 10.3V9.43H13.2705V10.3H12.6105ZM15.5835 6.72C15.5835 7.02667 15.6535 7.25 15.7935 7.39C15.9335 7.53 16.1535 7.6 16.4535 7.6H16.6535C16.6935 7.6 16.7202 7.61333 16.7335 7.64C16.7468 7.66 16.7535 7.68 16.7535 7.7V8.06C16.7535 8.08 16.7468 8.1 16.7335 8.12C16.7202 8.14667 16.6935 8.16 16.6535 8.16H16.4335C15.9335 8.16 15.5702 8.02667 15.3435 7.76C15.1168 7.48667 15.0035 7.13333 15.0035 6.7V0.499999H15.5835V6.72ZM25.0723 6.19C25.0723 6.39 25.0423 6.59 24.9823 6.79C25.089 7.03 25.259 7.22667 25.4923 7.38C25.7257 7.52667 26.0157 7.6 26.3623 7.6C26.4023 7.6 26.429 7.61333 26.4423 7.64C26.4557 7.66 26.4623 7.68 26.4623 7.7V8.06C26.4623 8.08 26.4557 8.1 26.4423 8.12C26.429 8.14667 26.4023 8.16 26.3623 8.16C25.669 8.16 25.1257 7.87667 24.7323 7.31C24.359 7.87667 23.8323 8.16 23.1523 8.16C22.419 8.16 21.8257 7.80333 21.3723 7.09C21.2123 7.40333 20.979 7.66 20.6723 7.86C20.3723 8.06 20.0257 8.16 19.6323 8.16H16.6523C16.6123 8.16 16.5857 8.14667 16.5723 8.12C16.559 8.1 16.5523 8.08 16.5523 8.06V7.7C16.5523 7.68 16.559 7.66 16.5723 7.64C16.5857 7.61333 16.6123 7.6 16.6523 7.6H18.0623V3.4H18.6423V7.6H19.6123C20.0323 7.6 20.3723 7.46333 20.6323 7.19C20.8923 6.91667 21.0223 6.58 21.0223 6.18V3.4H21.6023V6.19C21.6023 6.41 21.6757 6.63 21.8223 6.85C21.9757 7.07 22.169 7.25 22.4023 7.39C22.6423 7.53 22.8857 7.6 23.1323 7.6C23.5523 7.6 23.8823 7.46333 24.1223 7.19C24.369 6.91667 24.4923 6.58 24.4923 6.18V2.98H25.0723V6.19ZM26.3594 8.16C26.3194 8.16 26.2927 8.14667 26.2794 8.12C26.266 8.1 26.2594 8.08 26.2594 8.06V7.7C26.2594 7.68 26.266 7.66 26.2794 7.64C26.2927 7.61333 26.3194 7.6 26.3594 7.6H27.7694V0.499999H28.3494V8.16H26.3594ZM30.3477 8.16V0.499999H30.9277V8.16H30.3477ZM43.6958 6.72C43.6958 7.02667 43.7658 7.25 43.9058 7.39C44.0458 7.53 44.2658 7.6 44.5658 7.6H44.7658C44.8058 7.6 44.8324 7.61333 44.8458 7.64C44.8591 7.66 44.8658 7.68 44.8658 7.7V8.06C44.8658 8.08 44.8591 8.1 44.8458 8.12C44.8324 8.14667 44.8058 8.16 44.7658 8.16H44.5458C44.0458 8.16 43.6824 8.02667 43.4558 7.76C43.2291 7.48667 43.1158 7.13333 43.1158 6.7V2.97H42.1558C41.7891 2.97 41.4791 3.05 41.2258 3.21C40.9724 3.37 40.7824 3.58 40.6558 3.84C40.5291 4.1 40.4658 4.38 40.4658 4.68V8.16H37.5558C37.1424 8.16 36.7658 8.08667 36.4258 7.94C36.0924 7.79333 35.8258 7.57667 35.6258 7.29C35.4258 6.99667 35.3258 6.65 35.3258 6.25V3.2H35.9058V6.25C35.9058 6.63667 36.0491 6.96 36.3358 7.22C36.6291 7.47333 37.0491 7.6 37.5958 7.6H39.8858V4.68C39.8858 4.24 39.9858 3.85 40.1858 3.51C40.3858 3.16333 40.6558 2.89333 40.9958 2.7C41.3424 2.50667 41.7158 2.41 42.1158 2.41H43.6958V6.72ZM37.2258 10.3V9.43H37.8858V10.3H37.2258ZM39.0458 10.3V9.43H39.7058V10.3H39.0458ZM44.7676 8.16C44.7276 8.16 44.7009 8.14667 44.6876 8.12C44.6742 8.1 44.6676 8.08 44.6676 8.06V7.7C44.6676 7.68 44.6742 7.66 44.6876 7.64C44.7009 7.61333 44.7276 7.6 44.7676 7.6H46.8976V3.4H47.4776V8.16H44.7676ZM45.8976 2.35V1.48H46.5576V2.35H45.8976ZM47.7176 2.35V1.48H48.3776V2.35H47.7176ZM49.7534 6.72C49.7534 7.02667 49.8234 7.25 49.9634 7.39C50.1034 7.53 50.3234 7.6 50.6234 7.6H50.8234C50.8634 7.6 50.8901 7.61333 50.9034 7.64C50.9168 7.66 50.9234 7.68 50.9234 7.7V8.06C50.9234 8.08 50.9168 8.1 50.9034 8.12C50.8901 8.14667 50.8634 8.16 50.8234 8.16H50.6034C50.1034 8.16 49.7401 8.02667 49.5134 7.76C49.2868 7.48667 49.1734 7.13333 49.1734 6.7V0.499999H49.7534V6.72ZM52.3023 10.3V9.43H52.9623V10.3H52.3023ZM53.0123 6.19C53.0123 6.39 52.9789 6.58667 52.9123 6.78C53.0189 7.02667 53.1889 7.22667 53.4223 7.38C53.6623 7.52667 53.9556 7.6 54.3023 7.6C54.3423 7.6 54.3689 7.61333 54.3823 7.64C54.3956 7.66 54.4023 7.68 54.4023 7.7V8.06C54.4023 8.08 54.3956 8.1 54.3823 8.12C54.3689 8.14667 54.3423 8.16 54.3023 8.16C53.6089 8.16 53.0623 7.87333 52.6623 7.3C52.4889 7.56 52.2623 7.77 51.9823 7.93C51.7023 8.08333 51.3889 8.16 51.0423 8.16H50.8223C50.7823 8.16 50.7556 8.14667 50.7423 8.12C50.7289 8.1 50.7223 8.08 50.7223 8.06V7.7C50.7223 7.68 50.7289 7.66 50.7423 7.64C50.7556 7.61333 50.7823 7.6 50.8223 7.6H51.0223C51.4423 7.6 51.7823 7.46333 52.0423 7.19C52.3023 6.91667 52.4323 6.58 52.4323 6.18V3.4H53.0123V6.19ZM56.4888 6.19C56.4888 6.39 56.4555 6.58667 56.3888 6.78C56.4955 7.02667 56.6655 7.22667 56.8988 7.38C57.1388 7.52667 57.4322 7.6 57.7788 7.6C57.8188 7.6 57.8455 7.61333 57.8588 7.64C57.8722 7.66 57.8788 7.68 57.8788 7.7V8.06C57.8788 8.08 57.8722 8.1 57.8588 8.12C57.8455 8.14667 57.8188 8.16 57.7788 8.16C57.0855 8.16 56.5388 7.87333 56.1388 7.3C55.9655 7.56 55.7388 7.77 55.4588 7.93C55.1788 8.08333 54.8655 8.16 54.5188 8.16H54.2988C54.2588 8.16 54.2322 8.14667 54.2188 8.12C54.2055 8.1 54.1988 8.08 54.1988 8.06V7.7C54.1988 7.68 54.2055 7.66 54.2188 7.64C54.2322 7.61333 54.2588 7.6 54.2988 7.6H54.4988C54.9188 7.6 55.2588 7.46333 55.5188 7.19C55.7788 6.91667 55.9088 6.58 55.9088 6.18V0.499999H56.4888V6.19ZM59.7154 4.8C60.4621 4.3 61.1054 3.92667 61.6454 3.68C62.1854 3.42667 62.7487 3.3 63.3354 3.3C63.9087 3.3 64.3854 3.41667 64.7654 3.65C65.1454 3.87667 65.4221 4.17667 65.5954 4.55C65.7754 4.91667 65.8654 5.31667 65.8654 5.75C65.8654 6.12333 65.8021 6.53667 65.6754 6.99C65.5554 7.43667 65.4087 7.82667 65.2354 8.16H57.7754C57.7354 8.16 57.7087 8.14667 57.6954 8.12C57.6821 8.1 57.6754 8.08 57.6754 8.06V7.7C57.6754 7.68 57.6821 7.66 57.6954 7.64C57.7087 7.61333 57.7354 7.6 57.7754 7.6H59.1354V0.499999H59.7154V4.8ZM63.3054 3.86C62.7654 3.86 62.2187 3.98333 61.6654 4.23C61.1187 4.47 60.4687 4.86333 59.7154 5.41V7.6H64.8754C65.1354 7.02 65.2654 6.41 65.2654 5.77C65.2654 5.25667 65.1121 4.81 64.8054 4.43C64.4987 4.05 63.9987 3.86 63.3054 3.86Z" fill="#363636"/>
</svg>
