<svg width="34" height="9" viewBox="0 0 34 9" fill="none" xmlns="http://www.w3.org/2000/svg">
    <path d="M2.39074 8.16C1.97741 8.16 1.60074 8.08667 1.26074 7.94C0.927409 7.79333 0.660742 7.57667 0.460742 7.29C0.260742 6.99667 0.160742 6.65 0.160742 6.25V4.8H0.740742V6.25C0.740742 6.63667 0.884076 6.96 1.17074 7.22C1.46408 7.47333 1.88408 7.6 2.43074 7.6H6.98074V3.4H7.56074V8.16H2.39074ZM2.54074 3.2V2.33H3.20074V3.2H2.54074ZM4.36074 3.2V2.33H5.02074V3.2H4.36074ZM9.8423 6.72C9.8423 7.02667 9.9123 7.25 10.0523 7.39C10.1923 7.53 10.4123 7.6 10.7123 7.6H10.9123C10.9523 7.6 10.979 7.61333 10.9923 7.64C11.0056 7.66 11.0123 7.68 11.0123 7.7V8.06C11.0123 8.08 11.0056 8.1 10.9923 8.12C10.979 8.14667 10.9523 8.16 10.9123 8.16H10.6923C10.1923 8.16 9.82897 8.02667 9.6023 7.76C9.37564 7.48667 9.2623 7.13333 9.2623 6.7V0.499999H9.8423V6.72ZM13.4311 3.3C14.0045 3.3 14.4811 3.41667 14.8611 3.65C15.2411 3.87667 15.5178 4.17667 15.6911 4.55C15.8711 4.91667 15.9611 5.31667 15.9611 5.75C15.9611 6.12333 15.8978 6.53667 15.7711 6.99C15.6511 7.43667 15.5045 7.82667 15.3311 8.16H10.9111C10.8711 8.16 10.8445 8.14667 10.8311 8.12C10.8178 8.1 10.8111 8.08 10.8111 8.06V7.7C10.8111 7.68 10.8178 7.66 10.8311 7.64C10.8445 7.61333 10.8711 7.6 10.9111 7.6H11.8311V3.51C12.4711 3.37 13.0045 3.3 13.4311 3.3ZM13.4011 3.86C13.0745 3.86 12.7445 3.89667 12.4111 3.97V7.6H14.9711C15.2311 7.02 15.3611 6.41 15.3611 5.77C15.3611 5.25667 15.2078 4.81 14.9011 4.43C14.5945 4.05 14.0945 3.86 13.4011 3.86ZM21.2619 6.99C21.3486 7.21 21.4719 7.36667 21.6319 7.46C21.7986 7.55333 22.0652 7.6 22.4319 7.6C22.4719 7.6 22.4986 7.61333 22.5119 7.64C22.5252 7.66 22.5319 7.68 22.5319 7.7V8.06C22.5319 8.08 22.5252 8.1 22.5119 8.12C22.4986 8.14667 22.4719 8.16 22.4319 8.16C21.6919 8.16 21.1752 7.93 20.8819 7.47C20.2819 7.93 19.6319 8.16 18.9319 8.16H17.1619L16.9119 7.6H19.0119C19.7052 7.6 20.2652 7.42667 20.6919 7.08L19.1619 3.3H19.8319L21.2619 6.99ZM24.8346 3.3C25.4612 3.3 25.9712 3.49667 26.3646 3.89C26.7646 4.27667 27.0946 4.8 27.3546 5.46L27.9046 6.85C28.0046 7.11 28.1546 7.3 28.3546 7.42C28.5612 7.54 28.8346 7.6 29.1746 7.6C29.2146 7.6 29.2412 7.61333 29.2546 7.64C29.2679 7.66 29.2746 7.68 29.2746 7.7V8.06C29.2746 8.08 29.2679 8.1 29.2546 8.12C29.2412 8.14667 29.2146 8.16 29.1746 8.16C28.4879 8.16 27.9679 7.92667 27.6146 7.46C27.1812 7.68667 26.6946 7.86 26.1546 7.98C25.6212 8.1 25.1046 8.16 24.6046 8.16H22.4346C22.3946 8.16 22.3679 8.14667 22.3546 8.12C22.3412 8.1 22.3346 8.08 22.3346 8.06V7.7C22.3346 7.68 22.3412 7.66 22.3546 7.64C22.3679 7.61333 22.3946 7.6 22.4346 7.6H24.6046C25.5512 7.6 26.4812 7.42333 27.3946 7.07C27.3679 7.01 27.3512 6.97333 27.3446 6.96L26.7246 5.47C26.4979 4.91 26.2212 4.50667 25.8946 4.26C25.5746 4.00667 25.1512 3.88 24.6246 3.88C24.2312 3.88 23.8212 3.99667 23.3946 4.23L23.1546 3.73C23.5012 3.57 23.7812 3.46 23.9946 3.4C24.2146 3.33333 24.4946 3.3 24.8346 3.3ZM24.6746 2.35V1.48H25.3346V2.35H24.6746ZM29.1729 8.16C29.1329 8.16 29.1062 8.14667 29.0929 8.12C29.0795 8.1 29.0729 8.08 29.0729 8.06V7.7C29.0729 7.68 29.0795 7.66 29.0929 7.64C29.1062 7.61333 29.1329 7.6 29.1729 7.6H30.5829V0.499999H31.1629V8.16H29.1729ZM33.1611 8.16V0.499999H33.7411V8.16H33.1611Z" fill="#51504E"/>
</svg>
