<svg width="310" height="214" viewBox="0 0 310 214" fill="none" xmlns="http://www.w3.org/2000/svg">
    <path d="M96.1554 199.043C94.8146 198.879 93.4679 198.859 92.1271 198.968C92.5522 204.749 83.6633 200.115 80.4645 205.845C82.3047 201.835 86.9483 193.583 91.8744 198.38C92.8703 198.285 93.8692 198.261 94.8711 198.315C92.799 197.115 90.7774 195.811 88.8153 194.409C87.3021 194.251 85.774 194.141 84.2608 194.293C84.6979 200.079 75.797 195.445 72.5982 201.176C74.4384 197.165 79.0821 188.913 84.0081 193.711C85.2865 193.589 86.5767 193.586 87.861 193.711C86.0089 192.344 84.2073 190.892 82.4712 189.353C80.9936 189.142 79.5042 189.103 78.0267 189.228C78.4637 195.015 69.5629 190.381 66.364 196.111C68.2043 192.101 72.8509 183.849 77.774 188.646C79.0761 188.521 80.3901 188.521 81.6952 188.655C79.1564 186.37 77.1348 183.391 73.4484 183.103C72.4733 188.821 65.05 181.781 60.5848 186.409C63.3555 182.928 69.8958 176.47 73.3444 182.461C74.3581 182.66 75.36 182.937 76.3411 183.293C73.3028 180.296 71.4715 175.789 67.0151 174.658C65.3503 180.183 58.8367 172.094 53.8779 176.015C56.1849 173.455 59.1132 170.677 62.7847 170.965C64.3455 171.12 66.6346 171.889 66.9913 174.004C68.02 174.373 69.0248 174.821 69.994 175.353C68.5045 173.244 67.1043 171.057 65.8022 168.806C64.5268 167.932 63.2128 167.13 61.8126 166.545C59.9069 171.981 53.765 163.545 48.6367 167.19C51.0745 164.784 54.1217 162.152 57.7546 162.627C59.3064 162.868 61.5539 163.759 61.8185 165.895C62.9601 166.373 64.063 166.955 65.1184 167.641C62.9006 163.899 62.4607 161.781 59.9605 157.711C55.626 160.426 54.9333 150.169 48.8864 150.109C53.5123 149.575 61.9255 150.403 60.4748 156.971C62.0385 159.342 62.9987 162.084 64.3425 164.576C64.3098 163.373 64.3603 162.173 64.4882 160.981C62.5944 159.847 62.9244 157.114 63.4833 155.45C64.7379 151.877 68.2994 150.041 71.5993 148.752C66.2065 151.948 70.1961 161.287 65.0233 161.18C63.9709 165.604 66.7773 169.109 69.0337 172.617C68.9415 171.135 68.9743 169.652 69.1288 168.185C67.5265 166.946 67.8475 164.326 68.3707 162.695C69.5658 159.107 72.9787 157.2 76.24 155.866C71.0166 159.074 74.8546 169.165 69.6491 168.479C69.444 170.137 69.5659 171.827 69.6015 173.481C71.1058 175.715 72.7528 177.866 74.4681 179.924C74.3998 178.546 74.4384 177.165 74.5811 175.798C72.9847 174.56 73.3028 171.943 73.826 170.312C75.0211 166.723 78.434 164.816 81.6952 163.483C76.4719 166.691 80.3099 176.773 75.1073 176.095C74.9616 177.604 74.9438 179.128 75.0687 180.649C76.7335 182.61 78.4815 184.478 80.3069 186.255C80.2058 184.74 80.2385 183.219 80.3961 181.716C78.7937 180.477 79.1148 177.857 79.638 176.226C80.8331 172.638 84.246 170.731 87.5072 169.397C82.2839 172.605 86.1219 182.696 80.9163 182.007C79.9115 187.559 82.3463 188.165 86.113 191.37C86.0059 189.831 86.0327 188.289 86.1932 186.766C84.6176 185.542 84.9327 182.96 85.45 181.353C86.6273 177.815 89.9955 175.932 93.2152 174.616C88.0602 177.783 91.8477 187.728 86.7164 187.06C86.5589 188.646 86.5589 190.25 86.6986 191.845C88.4764 193.232 90.3166 194.528 92.2014 195.742C92.1093 194.254 92.142 192.76 92.2966 191.287C90.6942 190.048 91.0152 187.428 91.5385 185.797C92.7336 182.209 96.1465 180.302 99.4077 178.968C94.1843 182.176 98.0223 192.258 92.8198 191.581C92.6741 193.087 92.6593 194.608 92.7811 196.123C102.211 202.138 112.922 205.842 123.827 207.004C124.303 207.054 124.255 207.868 123.779 207.818C114.132 206.808 104.667 203.784 96.1613 199.052L96.1554 199.043Z" fill="#2D452E" fill-opacity="0.42"/>
    <path d="M208.695 168.987C208.787 167.641 208.737 166.296 208.555 164.965C202.803 165.696 206.959 156.582 201.063 153.692C205.169 155.314 213.663 159.511 209.129 164.68C209.278 165.669 209.355 166.664 209.352 167.665C210.443 165.535 211.638 163.45 212.934 161.415C213.009 159.897 213.041 158.367 212.806 156.864C207.048 157.61 211.204 148.482 205.309 145.594C209.414 147.216 217.908 151.413 213.374 156.582C213.564 157.851 213.636 159.137 213.576 160.426C214.843 158.504 216.198 156.633 217.646 154.815C217.78 153.329 217.738 151.841 217.533 150.374C211.775 151.119 215.931 141.991 210.036 139.104C214.141 140.725 222.635 144.923 218.101 150.092C218.294 151.384 218.363 152.694 218.3 154.007C220.45 151.351 223.319 149.177 223.411 145.484C217.646 144.816 224.285 137.036 219.424 132.824C223.051 135.402 229.853 141.587 224.047 145.348C223.901 146.369 223.678 147.382 223.375 148.381C226.208 145.19 230.614 143.123 231.509 138.616C225.899 137.247 233.634 130.323 229.455 125.579C232.136 127.744 235.067 130.519 234.975 134.196C234.901 135.762 234.256 138.085 232.16 138.557C231.848 139.603 231.452 140.627 230.971 141.623C232.998 140.024 235.109 138.512 237.291 137.093C238.094 135.774 238.828 134.419 239.336 132.993C233.801 131.38 241.908 124.803 237.99 119.881C240.523 122.186 243.317 125.086 243.035 128.736C242.877 130.296 242.107 132.589 239.988 132.964C239.571 134.128 239.045 135.26 238.418 136.35C242.042 133.941 244.132 133.385 248.068 130.676C245.122 126.497 255.337 125.258 255.075 119.225C255.854 123.811 255.476 132.251 248.832 131.154C246.546 132.839 243.858 133.947 241.435 135.417C242.636 135.319 243.837 135.307 245.035 135.373C246.07 133.424 248.817 133.608 250.509 134.077C254.144 135.138 256.169 138.596 257.632 141.822C254.15 136.611 245.03 141.088 244.86 135.919C240.383 135.105 237.029 138.091 233.643 140.529C235.118 140.36 236.601 140.316 238.079 140.39C239.232 138.726 241.866 138.908 243.525 139.341C247.173 140.342 249.263 143.648 250.77 146.83C247.289 141.789 237.404 146.153 237.817 140.922C236.15 140.806 234.467 141.017 232.814 141.141C230.662 142.76 228.598 144.516 226.633 146.34C228.007 146.197 229.389 146.162 230.763 146.233C231.916 144.572 234.55 144.754 236.206 145.187C239.854 146.188 241.944 149.494 243.451 152.676C239.967 147.632 230.097 151.999 230.495 146.773C228.979 146.708 227.454 146.773 225.944 146.978C224.074 148.743 222.299 150.588 220.622 152.504C222.132 152.322 223.651 152.275 225.165 152.349C226.318 150.686 228.952 150.867 230.611 151.301C234.259 152.302 236.349 155.608 237.856 158.789C234.375 153.748 224.49 158.112 224.903 152.881C219.302 152.171 218.826 154.636 215.821 158.563C217.352 158.373 218.895 158.32 220.429 158.397C221.567 156.76 224.163 156.939 225.798 157.366C229.398 158.353 231.458 161.614 232.945 164.754C229.547 159.793 219.769 164.083 220.164 158.932C218.571 158.858 216.968 158.944 215.381 159.166C214.088 161.014 212.893 162.918 211.778 164.861C213.261 164.689 214.754 164.641 216.237 164.718C217.391 163.055 220.025 163.236 221.683 163.67C225.331 164.671 227.421 167.977 228.928 171.158C225.444 166.117 215.574 170.481 215.973 165.256C214.459 165.191 212.937 165.256 211.43 165.458C205.921 175.186 202.785 186.07 202.205 197.014C202.181 197.489 201.364 197.486 201.39 197.011C201.887 187.33 204.405 177.726 208.683 168.987H208.695Z" fill="#2D452E" fill-opacity="0.42"/>
    <path d="M204.381 202.367L202.053 200.457L205.749 198.226L208.103 200.032L208.234 199.848L205.957 198.101L209.584 195.909L211.998 197.765L212.131 197.584L209.789 195.784L213.707 193.419L216.249 195.933L216.404 195.769L213.906 193.301L217.417 191.18L217.346 191.281L219.647 192.992L219.775 192.805L217.512 191.123L220.491 189.323L220.479 189.338L222.78 191.049L222.908 190.865L220.682 189.207L224.374 186.979L226.565 188.607L226.693 188.423L224.582 186.852L228.503 184.484L230.774 186.174L230.905 185.99L228.711 184.359L233.435 181.505L235.698 183.186L235.825 183.002L233.643 181.38L237.903 178.807L240.154 180.483L240.282 180.296L238.112 178.683L242.309 176.146L244.601 177.851L244.732 177.667L242.517 176.021L245.547 174.191L247.173 175.314L247.295 175.124L245.758 174.067L249.521 171.791L250.72 172.667L250.847 172.48L249.73 171.666L253.11 169.626L254.477 170.526L254.593 170.333L253.324 169.498L256.796 167.401L257.976 168.262L258.104 168.075L257.007 167.273L260.557 165.128L261.547 165.791L261.666 165.601L260.771 165.001L263.447 163.385L265.007 163.824L265.064 163.604L263.714 163.224L266.375 161.617L267.632 161.971L267.689 161.751L266.642 161.454L268.869 160.111L269.966 160.47L270.031 160.254L269.125 159.957L271.842 158.314L271.619 157.922L268.899 159.564L269.089 158.575L268.875 158.531L268.643 159.719L266.425 161.059L266.684 159.962L266.467 159.909L266.161 161.219L263.509 162.817L263.836 161.43L263.622 161.376L263.244 162.978L260.569 164.594L260.494 163.524L260.274 163.539L260.358 164.721L256.811 166.863L256.665 165.535L256.445 165.559L256.603 166.988L253.205 169.04L253.047 167.597L252.827 167.623L252.997 169.162H253.003L249.551 171.248L249.409 169.94L249.189 169.964L249.343 171.372L245.591 173.639L245.443 171.859L245.223 171.88L245.38 173.766L242.354 175.593L242.039 172.938L241.822 172.964L242.146 175.718L237.954 178.249L237.651 175.674L237.431 175.7L237.746 178.377L233.498 180.943L233.194 178.38L232.974 178.406L233.29 181.068L228.575 183.914L228.274 181.365L228.054 181.392L228.366 184.039L224.451 186.403L224.166 183.982L223.949 184.009L224.246 186.528L220.56 188.753L220.259 186.21L220.039 186.237L220.352 188.878L217.396 190.666L217.093 188.093L216.873 188.12L217.188 190.791L213.761 192.861L212.94 189.697L212.726 189.754L213.561 192.98L209.685 195.321L209.331 192.665L209.111 192.698L209.477 195.445L205.859 197.632L205.52 195.08L205.3 195.11L205.654 197.756L201.875 200.038L201.515 197.338L201.295 197.367L201.667 200.163L183.259 211.278L183.482 211.673L201.848 200.581L204.241 202.542L204.381 202.367Z" fill="#2D452E" fill-opacity="0.42"/>
    <path d="M268.803 158.97C267.748 157.862 268.702 150.739 270.745 149.497C269.746 151.517 270.31 157.949 268.803 158.97Z" fill="#2D452E" fill-opacity="0.42"/>
    <path d="M270.338 157.836C269.49 156.552 271.667 149.72 273.893 148.88C272.558 150.68 271.999 157.111 270.338 157.836Z" fill="#2D452E" fill-opacity="0.42"/>
    <path d="M271.357 158.151C270.968 156.653 275.21 150.95 277.582 150.911C275.745 152.156 273.159 158.032 271.357 158.151Z" fill="#2D452E" fill-opacity="0.42"/>
    <path d="M266.509 160.2C265.29 158.92 266.393 150.683 268.753 149.251C267.597 151.586 268.251 159.021 266.509 160.2Z" fill="#2D452E" fill-opacity="0.42"/>
    <path d="M263.687 161.587C262.346 160.182 263.559 151.125 266.155 149.551C264.882 152.117 265.602 160.289 263.687 161.587Z" fill="#2D452E" fill-opacity="0.42"/>
    <path d="M260.355 163.607C258.844 162.024 260.209 151.826 263.134 150.053C261.701 152.943 262.513 162.146 260.355 163.607Z" fill="#2D452E" fill-opacity="0.42"/>
    <path d="M256.612 165.883C254.947 164.136 256.451 152.893 259.677 150.935C258.098 154.123 258.99 164.273 256.612 165.883Z" fill="#2D452E" fill-opacity="0.42"/>
    <path d="M252.955 168.188C251.207 166.355 252.789 154.55 256.172 152.495C254.516 155.839 255.452 166.495 252.955 168.188Z" fill="#2D452E" fill-opacity="0.42"/>
    <path d="M249.257 170.434C247.509 168.601 249.09 156.796 252.474 154.74C250.818 158.085 251.754 168.74 249.257 170.434Z" fill="#2D452E" fill-opacity="0.42"/>
    <path d="M245.309 172.24C243.38 170.217 245.125 157.182 248.862 154.916C247.033 158.608 248.068 170.371 245.309 172.24Z" fill="#2D452E" fill-opacity="0.42"/>
    <path d="M241.941 173.11C240.011 171.087 241.757 158.053 245.493 155.786C243.665 159.478 244.7 171.242 241.941 173.11Z" fill="#2D452E" fill-opacity="0.42"/>
    <path d="M217.067 188.42C214.468 187.487 209.631 173.636 211.998 169.89C211.953 174.04 218.729 185.482 217.067 188.42Z" fill="#2D452E" fill-opacity="0.42"/>
    <path d="M212.979 189.983C210.381 189.05 206.037 176.214 208.401 172.468C208.356 176.618 214.638 187.045 212.979 189.983Z" fill="#2D452E" fill-opacity="0.42"/>
    <path d="M209.319 193.122C206.721 192.19 202.208 179.06 204.572 175.311C204.527 179.461 210.978 190.182 209.319 193.122Z" fill="#2D452E" fill-opacity="0.42"/>
    <path d="M205.552 196.075C202.954 195.142 198.548 182.197 200.912 178.451C200.867 182.601 207.211 193.134 205.552 196.075Z" fill="#2D452E" fill-opacity="0.42"/>
    <path d="M201.545 198.758C198.946 197.825 194.885 185.337 197.252 181.591C197.207 185.741 203.206 195.82 201.545 198.758Z" fill="#2D452E" fill-opacity="0.42"/>
    <path d="M237.609 177.2C235.329 174.809 237.389 159.398 241.807 156.719C239.642 161.085 240.867 174.993 237.609 177.2Z" fill="#2D452E" fill-opacity="0.42"/>
    <path d="M228.176 182.399C225.739 180.177 227.267 163.91 231.491 160.913C229.633 165.425 231.277 179.957 228.176 182.399Z" fill="#2D452E" fill-opacity="0.42"/>
    <path d="M233.084 178.864C230.667 176.565 232.002 160.907 236.33 157.975C234.359 162.493 236.265 176.467 233.084 178.864Z" fill="#2D452E" fill-opacity="0.42"/>
    <path d="M224.005 184.374C221.309 182.435 221.261 165.241 225.161 161.727C223.803 166.48 226.841 181.552 224.005 184.374Z" fill="#2D452E" fill-opacity="0.42"/>
    <path d="M220.265 187.143C217.423 185.438 215.428 169.845 219.031 166.013C218.059 170.867 222.863 184.089 220.265 187.143Z" fill="#2D452E" fill-opacity="0.42"/>
    <path d="M269.541 160.257C269.972 161.742 276.492 164.329 278.537 163.091C276.337 163.013 271.14 159.392 269.541 160.257Z" fill="#2D452E" fill-opacity="0.42"/>
    <path d="M271.218 159.181C271.857 160.586 278.674 162.158 280.517 160.619C278.329 160.877 272.674 158.082 271.218 159.181Z" fill="#2D452E" fill-opacity="0.42"/>
    <path d="M271.5 158.617C272.57 159.707 279.488 158.751 280.698 156.65C278.736 157.675 272.496 157.066 271.5 158.617Z" fill="#2D452E" fill-opacity="0.42"/>
    <path d="M271.732 158.118C273.112 158.733 279.212 155.248 279.599 152.836C278.133 154.527 272.113 156.3 271.732 158.118Z" fill="#2D452E" fill-opacity="0.42"/>
    <path d="M267.29 161.763C267.787 163.48 275.326 166.474 277.686 165.039C275.141 164.95 269.136 160.765 267.29 161.763Z" fill="#2D452E" fill-opacity="0.42"/>
    <path d="M264.886 163.679C265.433 165.565 273.718 168.856 276.317 167.279C273.519 167.181 266.916 162.58 264.886 163.679Z" fill="#2D452E" fill-opacity="0.42"/>
    <path d="M261.556 165.702C262.171 167.828 271.503 171.533 274.428 169.756C271.277 169.646 263.842 164.466 261.556 165.702Z" fill="#2D452E" fill-opacity="0.42"/>
    <path d="M257.84 168.025C258.521 170.368 268.81 174.453 272.035 172.498C268.563 172.379 260.364 166.664 257.84 168.025Z" fill="#2D452E" fill-opacity="0.42"/>
    <path d="M253.877 170.009C254.59 172.468 265.394 176.758 268.777 174.702C265.129 174.578 256.523 168.577 253.877 170.009Z" fill="#2D452E" fill-opacity="0.42"/>
    <path d="M250.148 172.139C250.862 174.598 261.665 178.888 265.049 176.832C261.401 176.707 252.794 170.707 250.148 172.139Z" fill="#2D452E" fill-opacity="0.42"/>
    <path d="M246.7 174.67C247.488 177.388 259.415 182.12 263.152 179.853C259.127 179.714 249.626 173.089 246.7 174.67Z" fill="#2D452E" fill-opacity="0.42"/>
    <path d="M244.334 177.284C245.122 179.999 257.049 184.737 260.783 182.467C256.758 182.328 247.256 175.706 244.334 177.284Z" fill="#2D452E" fill-opacity="0.42"/>
    <path d="M219.278 192.279C218.814 195.071 228.253 206.127 232.582 205.81C229.032 203.84 222.578 192.205 219.278 192.279Z" fill="#2D452E" fill-opacity="0.42"/>
    <path d="M215.878 195.359C215.414 198.152 224.324 208.121 228.655 207.803C225.106 205.833 219.181 195.285 215.878 195.359Z" fill="#2D452E" fill-opacity="0.42"/>
    <path d="M211.477 197.296C211.013 200.088 219.995 210.506 224.326 210.188C220.776 208.219 214.78 197.222 211.477 197.296Z" fill="#2D452E" fill-opacity="0.42"/>
    <path d="M207.196 198.948C206.732 201.74 215.607 211.97 219.938 211.653C216.388 209.683 210.499 198.873 207.196 198.948Z" fill="#2D452E" fill-opacity="0.42"/>
    <path d="M202.978 201.259C202.514 204.051 211.168 213.75 215.5 213.432C211.95 211.462 206.281 201.184 202.978 201.259Z" fill="#2D452E" fill-opacity="0.42"/>
    <path d="M238.76 179.206C239.69 182.417 253.791 188.016 258.208 185.334C253.449 185.17 242.214 177.337 238.76 179.206Z" fill="#2D452E" fill-opacity="0.42"/>
    <path d="M229.772 185.188C230.483 188.459 245.056 194.952 249.646 192.6C244.91 192.092 233.346 183.578 229.772 185.188Z" fill="#2D452E" fill-opacity="0.42"/>
    <path d="M235.153 182.476C235.938 185.765 249.899 192.139 254.489 189.659C249.694 189.249 238.733 180.771 235.153 182.476Z" fill="#2D452E" fill-opacity="0.42"/>
    <path d="M226.077 187.986C226.422 191.352 241.019 199.717 245.894 197.902C241.194 196.824 229.85 186.795 226.077 187.986Z" fill="#2D452E" fill-opacity="0.42"/>
    <path d="M221.912 190.015C221.986 193.399 234.279 202.741 239.283 201.348C234.684 199.874 225.765 189.151 221.912 190.015Z" fill="#2D452E" fill-opacity="0.42"/>
    <path d="M129.203 185.366L127.57 187.891L124.931 184.472L126.462 181.933L126.268 181.823L124.785 184.282L122.198 180.928L123.771 178.32L123.575 178.21L122.05 180.738L119.255 177.114L121.47 174.307L121.289 174.174L119.116 176.93L116.609 173.683L116.719 173.743L118.161 171.265L117.962 171.158L116.544 173.597L114.418 170.844L114.433 170.85L115.875 168.375L115.676 168.268L114.282 170.665L111.648 167.249L113.021 164.894L112.822 164.787L111.499 167.059L108.702 163.432L110.126 160.984L109.929 160.877L108.553 163.239L105.185 158.869L106.603 156.437L106.403 156.33L105.036 158.679L101.998 154.74L103.407 152.316L103.211 152.21L101.849 154.547L98.8553 150.665L100.291 148.196L100.092 148.089L98.7067 150.472L96.5454 147.671L97.4789 145.933L97.2767 145.832L96.3968 147.474L93.7122 143.996L94.4465 142.71L94.2474 142.603L93.5636 143.803L91.1526 140.678L91.8928 139.219L91.6877 139.124L91.001 140.479L88.5216 137.268L89.247 135.999L89.0478 135.892L88.3729 137.075L85.84 133.792L86.387 132.735L86.1849 132.637L85.6884 133.593L83.7798 131.119L84.0414 129.521L83.8155 129.488L83.5895 130.872L81.6929 128.41L81.901 127.123L81.678 127.091L81.5026 128.163L79.9121 126.105L80.1469 124.973L79.924 124.934L79.7307 125.867L77.7924 123.354L77.4268 123.621L79.3681 126.137L78.3632 126.057L78.3424 126.277L79.5494 126.375L81.131 128.425L80.0132 128.291L79.9834 128.511L81.3212 128.668L83.209 131.122L81.7939 130.952L81.7642 131.172L83.3993 131.365L85.3079 133.84L84.2525 134.033L84.2941 134.25L85.4595 134.036L87.9865 137.315L86.6843 137.609L86.7319 137.823L88.1351 137.505L90.558 140.648L89.1429 140.969L89.1934 141.183L90.7037 140.841V140.835L93.1652 144.029L91.8839 144.317L91.9315 144.534L93.3139 144.222L95.9895 147.691L94.2384 148.039L94.283 148.256L96.1411 147.884L98.2994 150.686L95.6952 151.295L95.7457 151.508L98.448 150.876L101.436 154.752L98.9088 155.343L98.9594 155.557L101.584 154.942L104.617 158.875L102.102 159.464L102.155 159.677L104.765 159.065L108.128 163.426L105.628 164.011L105.678 164.228L108.276 163.619L111.068 167.237L108.693 167.793L108.743 168.01L111.217 167.43L113.845 170.838L111.347 171.423L111.398 171.637L113.993 171.031L116.101 173.764L113.577 174.355L113.628 174.569L116.25 173.957L118.693 177.126L115.64 178.297L115.724 178.502L118.836 177.307L121.601 180.896L119 181.543L119.056 181.757L121.747 181.086L124.33 184.434L121.83 185.058L121.886 185.271L124.476 184.624L127.172 188.117L124.526 188.777L124.583 188.99L127.318 188.307L140.449 205.331L140.815 205.067L127.716 188.081L129.396 185.482L129.203 185.366Z" fill="#2D452E" fill-opacity="0.42"/>
    <path d="M78.7846 126.298C77.8035 127.471 70.6091 127.325 69.1465 125.439C71.2662 126.206 77.5984 124.916 78.7846 126.298Z" fill="#2D452E" fill-opacity="0.42"/>
    <path d="M77.4858 124.901C76.3056 125.885 69.2658 124.497 68.1777 122.38C70.119 123.502 76.5761 123.333 77.4858 124.901Z" fill="#2D452E" fill-opacity="0.42"/>
    <path d="M77.6851 123.856C76.2403 124.411 70.0894 120.844 69.7832 118.491C71.228 120.175 77.3611 122.079 77.6851 123.856Z" fill="#2D452E" fill-opacity="0.42"/>
    <path d="M80.2684 128.439C79.1327 129.794 70.8176 129.628 69.126 127.444C71.5786 128.329 78.8979 126.841 80.2684 128.439Z" fill="#2D452E" fill-opacity="0.42"/>
    <path d="M81.9661 131.083C80.7175 132.571 71.5788 132.39 69.7178 129.99C72.4142 130.961 80.4588 129.328 81.9661 131.083Z" fill="#2D452E" fill-opacity="0.42"/>
    <path d="M84.3499 134.164C82.9467 135.842 72.6516 135.637 70.5557 132.934C73.591 134.03 82.6523 132.188 84.3499 134.164Z" fill="#2D452E" fill-opacity="0.42"/>
    <path d="M87.0345 137.624C85.4856 139.475 74.1351 139.249 71.8252 136.267C75.1727 137.476 85.1645 135.444 87.0345 137.624Z" fill="#2D452E" fill-opacity="0.42"/>
    <path d="M89.7398 140.996C88.1137 142.936 76.1983 142.701 73.7725 139.57C77.2864 140.838 87.7748 138.706 89.7398 140.996Z" fill="#2D452E" fill-opacity="0.42"/>
    <path d="M92.3893 144.412C90.7631 146.355 78.8478 146.117 76.4219 142.989C79.9358 144.257 90.4242 142.125 92.3893 144.412Z" fill="#2D452E" fill-opacity="0.42"/>
    <path d="M94.6331 148.128C92.8375 150.273 79.6825 150.011 77.0039 146.557C80.8835 147.956 92.4629 145.603 94.6331 148.128Z" fill="#2D452E" fill-opacity="0.42"/>
    <path d="M95.8763 151.375C94.0807 153.516 80.9256 153.255 78.2471 149.803C82.1267 151.202 93.7061 148.85 95.8763 151.375Z" fill="#2D452E" fill-opacity="0.42"/>
    <path d="M113.904 174.343C113.271 177.028 100.041 183.391 96.0488 181.466C100.181 181.041 110.794 173.027 113.904 174.343Z" fill="#2D452E" fill-opacity="0.42"/>
    <path d="M115.919 178.225C115.286 180.911 103.011 186.671 99.0186 184.746C103.151 184.321 112.81 176.909 115.919 178.225Z" fill="#2D452E" fill-opacity="0.42"/>
    <path d="M119.454 181.505C118.82 184.19 106.272 190.152 102.279 188.224C106.412 187.799 116.344 180.186 119.454 181.505Z" fill="#2D452E" fill-opacity="0.42"/>
    <path d="M122.816 184.912C122.183 187.597 109.807 193.431 105.814 191.506C109.947 191.082 119.707 183.596 122.816 184.912Z" fill="#2D452E" fill-opacity="0.42"/>
    <path d="M125.938 188.589C125.305 191.275 113.345 196.714 109.353 194.789C113.485 194.364 122.829 187.274 125.938 188.589Z" fill="#2D452E" fill-opacity="0.42"/>
    <path d="M100.431 155.213C98.3082 157.747 82.754 157.438 79.5879 153.353C84.1751 155.008 97.8652 152.224 100.431 155.213Z" fill="#2D452E" fill-opacity="0.42"/>
    <path d="M106.665 163.994C104.729 166.664 88.3813 166.982 84.9268 163.126C89.6239 164.463 103.891 161.192 106.665 163.994Z" fill="#2D452E" fill-opacity="0.42"/>
    <path d="M102.598 159.52C100.586 162.179 84.8649 162.618 81.458 158.653C86.173 160.099 99.8542 156.63 102.598 159.52Z" fill="#2D452E" fill-opacity="0.42"/>
    <path d="M109.1 167.909C107.476 170.805 90.3823 172.792 86.4492 169.317C91.3307 170.128 105.975 165.413 109.1 167.909Z" fill="#2D452E" fill-opacity="0.42"/>
    <path d="M112.275 171.31C110.902 174.325 95.6209 178.062 91.4023 174.916C96.3403 175.332 108.945 169.073 112.275 171.31Z" fill="#2D452E" fill-opacity="0.42"/>
    <path d="M79.9835 125.421C81.4135 124.827 83.2507 118.06 81.788 116.171C81.9605 118.366 78.946 123.933 79.9835 125.421Z" fill="#2D452E" fill-opacity="0.42"/>
    <path d="M78.7256 123.877C80.0515 123.084 80.8452 116.138 79.1091 114.484C79.6115 116.626 77.471 122.555 78.7256 123.877Z" fill="#2D452E" fill-opacity="0.42"/>
    <path d="M78.1314 123.66C79.0946 122.475 77.3644 115.714 75.1377 114.748C76.3774 116.581 76.4755 122.843 78.1314 123.66Z" fill="#2D452E" fill-opacity="0.42"/>
    <path d="M77.6078 123.488C78.0656 122.047 73.9125 116.385 71.4688 116.275C73.3149 117.541 75.7557 123.315 77.6078 123.488Z" fill="#2D452E" fill-opacity="0.42"/>
    <path d="M81.734 127.486C83.3839 126.797 85.5125 118.975 83.818 116.792C84.0171 119.329 80.5329 125.763 81.734 127.486Z" fill="#2D452E" fill-opacity="0.42"/>
    <path d="M83.9102 129.657C85.7266 128.9 88.0633 120.303 86.2023 117.903C86.4223 120.692 82.5902 127.765 83.9102 129.657Z" fill="#2D452E" fill-opacity="0.42"/>
    <path d="M86.2978 132.735C88.3431 131.882 90.9741 122.201 88.8782 119.498C89.125 122.638 84.8083 130.605 86.2978 132.735Z" fill="#2D452E" fill-opacity="0.42"/>
    <path d="M89.0266 136.163C91.28 135.224 94.1816 124.545 91.8746 121.566C92.1481 125.029 87.3885 133.813 89.0266 136.163Z" fill="#2D452E" fill-opacity="0.42"/>
    <path d="M91.4468 139.873C93.8132 138.887 96.8604 127.679 94.4346 124.551C94.7199 128.184 89.7255 137.407 91.4468 139.873Z" fill="#2D452E" fill-opacity="0.42"/>
    <path d="M93.982 143.334C96.3484 142.347 99.3956 131.14 96.9697 128.012C97.2551 131.648 92.2607 140.868 93.982 143.334Z" fill="#2D452E" fill-opacity="0.42"/>
    <path d="M96.8894 146.47C99.5026 145.383 102.865 133.008 100.189 129.553C100.504 133.567 94.9897 143.746 96.8894 146.47Z" fill="#2D452E" fill-opacity="0.42"/>
    <path d="M99.7556 148.529C102.369 147.442 105.731 135.067 103.056 131.612C103.371 135.625 97.8559 145.805 99.7556 148.529Z" fill="#2D452E" fill-opacity="0.42"/>
    <path d="M117.495 171.711C120.322 171.86 130.254 161.24 129.452 156.974C127.894 160.72 117.049 168.44 117.495 171.711Z" fill="#2D452E" fill-opacity="0.42"/>
    <path d="M120.941 174.744C123.768 174.889 132.678 164.917 131.872 160.655C130.314 164.403 120.492 171.473 120.941 174.744Z" fill="#2D452E" fill-opacity="0.42"/>
    <path d="M123.361 178.891C126.188 179.036 135.535 168.942 134.732 164.68C133.174 168.428 122.915 175.62 123.361 178.891Z" fill="#2D452E" fill-opacity="0.42"/>
    <path d="M125.486 182.954C128.313 183.1 137.488 173.134 136.685 168.871C135.127 172.62 125.04 179.684 125.486 182.954Z" fill="#2D452E" fill-opacity="0.42"/>
    <path d="M128.26 186.884C131.087 187.033 139.756 177.343 138.954 173.08C137.396 176.826 127.814 183.614 128.26 186.884Z" fill="#2D452E" fill-opacity="0.42"/>
    <path d="M102.298 153.846C105.387 152.56 109.364 137.93 106.198 133.846C106.57 138.59 100.05 150.626 102.298 153.846Z" fill="#2D452E" fill-opacity="0.42"/>
    <path d="M109.257 162.092C112.429 161.02 117.245 145.817 114.385 141.525C114.412 146.286 107.25 158.724 109.257 162.092Z" fill="#2D452E" fill-opacity="0.42"/>
    <path d="M105.954 157.057C109.135 155.908 113.901 141.328 110.916 137.051C111.05 141.86 103.852 153.698 105.954 157.057Z" fill="#2D452E" fill-opacity="0.42"/>
    <path d="M112.459 165.446C115.768 164.724 122.439 149.289 120.084 144.652C119.543 149.441 110.851 161.834 112.459 165.446Z" fill="#2D452E" fill-opacity="0.42"/>
    <path d="M114.944 169.352C118.301 168.898 126.202 155.638 124.255 150.828C123.307 155.56 113.651 165.624 114.944 169.352Z" fill="#2D452E" fill-opacity="0.42"/>
    <path d="M168.897 130.929L159.142 139.852L147.792 130.724C153.292 130.45 161.384 130.445 168.897 130.929Z" fill="#F9CBCB"/>
    <path d="M169.325 133.379C162.859 142.086 154.636 144.745 147.254 133.379C147.956 129.12 150.2 115.509 150.86 111.484L165.374 111.389L169.325 133.379Z" fill="#F9CBCB"/>
    <path d="M169.325 133.379C164.381 128.237 164.009 116.126 149.879 117.457L150.86 111.487L165.374 111.391L169.325 133.382V133.379Z" fill="#EBB0B0"/>
    <path d="M185.901 81.4903C183.478 126.559 136.608 124.812 133.489 81.4903C134.117 43.2597 185.28 43.2627 185.901 81.4903Z" fill="#F9CBCB"/>
    <path d="M159.696 52.4178C159.282 52.4178 158.878 52.4654 158.468 52.4862C192.665 54.0665 189.041 111.344 159.3 115.247C191.672 114.846 196.235 52.6971 159.696 52.4178Z" fill="#EBB0B0"/>
    <path d="M188.053 78.2763V78.3419C188.053 78.3091 188.053 78.2763 188.021 78.2465L188.053 78.2792V78.2763Z" fill="#754C24"/>
    <path d="M197.748 61.2462C197.748 61.2462 199.14 78.799 184.308 82.6666C184.308 82.3131 184.299 81.9478 184.29 81.6032C178.9 77.5633 178.35 71.7529 177.628 67.8022C176.448 59.7877 161.89 66.8694 147.649 57.2212C148.532 68.6874 139.218 75.1096 134.185 79.604C134.185 79.604 133.727 82.6755 133.849 84.2975C127.886 78.6119 122.008 53.3684 142.83 49.5543C156.336 25.5792 186.847 65.9783 199.699 42.2022C199.699 42.2022 199.339 60.1887 191.666 63.082C191.666 63.082 196.125 63.2632 197.751 61.2403L197.748 61.2462Z" fill="#3E3E3E"/>
    <path d="M221.261 209.347H97.9424C97.9424 209.347 104.367 154.042 109.89 146.322C115.426 139.38 137.238 133.361 147.792 130.721L159.142 139.849L168.896 130.926C180.966 132.384 199.544 136.769 206.072 144.391C211.596 152.12 221.264 209.347 221.264 209.347H221.261Z" fill="#3D4547"/>
    <path d="M173.561 133.216C170.07 137.054 168.355 141.02 168.643 145.131C166.405 144.112 161.294 141.804 159.008 140.773C156.523 142.009 151.517 144.489 149.037 145.716C147.471 141.216 145.312 137.238 142.44 133.887L146.368 131.113L147.789 130.724L159.139 139.852L168.893 130.929C169.274 130.655 173.189 133.07 173.561 133.216Z" fill="#646A6C"/>
    <path d="M188.134 78.7396H185.972C191.27 31.9153 126.916 31.9509 132.226 78.7396H130.064C124.707 29.0784 193.506 29.1141 188.134 78.7396Z" fill="#323536"/>
    <path d="M128.836 76.8979C128.792 73.9037 133.498 73.9037 133.456 76.8979C133.501 79.8922 128.795 79.8922 128.836 76.8979Z" fill="#838889"/>
    <path d="M184.744 76.8979C184.7 73.9037 189.406 73.9037 189.364 76.8979C189.409 79.8922 184.703 79.8922 184.744 76.8979Z" fill="#838889"/>
    <path d="M156.598 106.149C156.598 106.149 156.609 106.146 156.615 106.143C156.538 105.953 155.932 103.54 155.86 103.273C155.058 103.404 154.207 103.811 153.987 104.631C141.29 107.851 131.221 104.77 131.774 91.5871L129.616 91.4683C128.382 106.526 142.497 110.382 154.683 106.68C155.263 107.135 156.089 107.025 156.764 106.802L156.598 106.149Z" fill="#323536"/>
    <g style="mix-blend-mode:multiply">
        <path d="M156.597 106.149C156.597 106.149 156.609 106.146 156.615 106.143C156.538 105.953 155.931 103.541 155.86 103.273L155.818 103.282C155.899 103.588 156.297 105.18 156.389 105.442C156.383 105.442 156.377 105.445 156.371 105.448L156.538 106.101C155.863 106.327 155.036 106.437 154.46 105.979C145.33 108.519 133.557 107.901 130.281 98.0718C133.162 108.469 145.303 109.327 154.683 106.68C155.262 107.135 156.089 107.025 156.764 106.802L156.597 106.149Z" fill="white"/>
        <path d="M131.53 91.5723C131.476 93.7497 131.753 95.7043 132.345 97.4064C131.854 95.6894 131.658 93.7408 131.777 91.5871L131.53 91.5723Z" fill="#CCCCCC"/>
    </g>
    <path d="M122.011 87.5056C122.011 91.5634 124.951 94.8517 128.578 94.8517V80.1595C124.951 80.1595 122.011 83.4479 122.011 87.5056Z" fill="#B3913E"/>
    <g style="mix-blend-mode:multiply">
        <path d="M122.269 85.9164C122.269 85.7323 122.281 85.5511 122.293 85.3699C122.109 86.0472 122.011 86.763 122.011 87.5057C122.011 91.5634 124.951 94.8518 128.578 94.8518V93.2507C125.073 93.0962 122.269 89.8791 122.269 85.9194V85.9164Z" fill="#CCCCCC"/>
    </g>
    <path d="M186.956 70.3449C185.556 70.3509 184.575 69.1626 184.587 67.7843C183.285 54.7408 172.136 44.5489 158.702 44.7569C145.466 44.9618 134.639 55.2428 133.575 68.2448C133.441 69.433 132.451 70.3449 131.247 70.3449C129.686 70.3479 128.628 68.8894 128.952 67.3714C130.465 51.9158 143.668 39.8317 159.576 40.0783C175.243 40.3219 188.065 52.504 189.299 67.9031C189.37 69.228 188.294 70.3449 186.956 70.3449Z" fill="#B3913E"/>
    <g style="mix-blend-mode:multiply">
        <path d="M157.386 44.3706C143.996 44.3706 132.969 54.6932 131.863 67.7932C131.771 68.8833 130.96 69.7537 129.913 69.929C131.328 70.9597 133.487 69.9438 133.579 68.1734C134.649 53.4248 149.064 42.2883 163.777 45.1845C161.732 44.6587 159.591 44.3706 157.383 44.3706H157.386Z" fill="#CCCCCC"/>
        <path d="M189.294 67.8348C188.17 54.215 177.982 43.123 164.788 40.61C177.14 43.7201 186.505 54.4288 187.578 67.4546C187.679 68.6755 186.802 69.73 185.634 69.929C187.156 71.0578 189.508 69.7419 189.297 67.8378L189.294 67.8348Z" fill="#CCCCCC"/>
    </g>
    <path d="M131.147 77.4712C128.95 77.4712 127.169 79.2505 127.169 81.4457V93.5655C127.169 95.7607 128.95 97.54 131.147 97.54C133.344 97.54 135.124 95.7607 135.124 93.5655V81.4457C135.124 79.2505 133.344 77.4712 131.147 77.4712Z" fill="#B3913E"/>
    <g style="mix-blend-mode:multiply">
        <path d="M131.925 77.5485C133.144 78.6238 132.338 90.2593 132.555 91.807C132.585 94.2844 130.219 96.2152 127.796 95.7043C128.503 96.8063 129.737 97.5401 131.143 97.5401C133.34 97.5401 135.121 95.7607 135.121 93.5655V81.4458C135.121 79.5179 133.748 77.9109 131.922 77.5485H131.925Z" fill="#CCCCCC"/>
    </g>
    <path d="M189.353 79.1881V93.8803C197.983 93.7288 197.977 79.3366 189.353 79.1881Z" fill="#B3913E"/>
    <g style="mix-blend-mode:multiply">
        <path d="M195.661 84.9479C195.661 84.7638 195.649 84.5826 195.637 84.4014C195.822 85.0786 195.923 85.7945 195.923 86.5372C195.923 90.5949 192.982 93.8833 189.355 93.8833V92.2822C192.861 92.1277 195.664 88.9106 195.664 84.9509L195.661 84.9479Z" fill="#CCCCCC"/>
    </g>
    <path d="M186.784 76.4999C184.587 76.4999 182.807 78.2792 182.807 80.4744V92.5942C182.807 94.7894 184.587 96.5687 186.784 96.5687C188.981 96.5687 190.762 94.7894 190.762 92.5942V80.4744C190.762 78.2792 188.981 76.4999 186.784 76.4999Z" fill="#B3913E"/>
    <g style="mix-blend-mode:multiply">
        <path d="M186.005 76.577C184.787 77.6524 185.592 89.2879 185.375 90.8355C185.345 93.3129 187.712 95.2438 190.135 94.7328C189.427 95.8349 188.193 96.5686 186.787 96.5686C184.552 96.6429 182.723 94.5308 182.81 92.5911C182.81 92.2465 182.81 80.4981 182.81 80.3852C182.851 78.496 184.213 76.9365 186.005 76.58V76.577Z" fill="#CCCCCC"/>
    </g>
    <path d="M163.036 106.009C160.83 106.386 156.16 108.81 155.28 105.287C154.92 103.885 155.768 102.456 157.171 102.097C159.332 101.729 164.106 99.2927 164.927 102.819C165.287 104.221 164.439 105.65 163.036 106.009Z" fill="#838889"/>
    <g style="mix-blend-mode:multiply">
        <path d="M164.924 102.819C164.626 101.657 163.592 100.879 162.45 100.849C164.879 101.535 164.808 105.329 162.293 105.878C161.814 105.964 157.399 107.23 157.013 107.126C158.015 107.634 161.989 106.155 163.036 106.006C164.439 105.647 165.286 104.218 164.927 102.816L164.924 102.819Z" fill="#CCCCCC"/>
    </g>
    <g style="mix-blend-mode:multiply">
        <path d="M158.051 103.44C158.297 103.303 158.508 103.692 158.259 103.823C158.012 103.959 157.801 103.57 158.051 103.44Z" fill="#CCCCCC"/>
    </g>
    <g style="mix-blend-mode:multiply">
        <path d="M159.26 103.668C159.275 103.386 159.715 103.416 159.695 103.695C159.68 103.977 159.24 103.948 159.26 103.668Z" fill="#CCCCCC"/>
    </g>
    <g style="mix-blend-mode:multiply">
        <path d="M159.227 105.076C159.242 104.794 159.682 104.824 159.661 105.103C159.646 105.385 159.206 105.355 159.227 105.076Z" fill="#CCCCCC"/>
    </g>
    <g style="mix-blend-mode:multiply">
        <path d="M158.347 104.592C158.594 104.456 158.805 104.845 158.556 104.975C158.309 105.112 158.098 104.723 158.347 104.592Z" fill="#CCCCCC"/>
    </g>
    <g style="mix-blend-mode:multiply">
        <path d="M158.612 102.519C158.859 102.382 159.07 102.771 158.82 102.902C158.573 103.039 158.362 102.649 158.612 102.519Z" fill="#CCCCCC"/>
    </g>
    <g style="mix-blend-mode:multiply">
        <path d="M159.89 102.605C160.137 102.468 160.348 102.857 160.099 102.988C159.852 103.125 159.641 102.736 159.89 102.605Z" fill="#CCCCCC"/>
    </g>
    <g style="mix-blend-mode:multiply">
        <path d="M160.506 101.886C160.752 101.749 160.963 102.138 160.714 102.269C160.467 102.406 160.256 102.017 160.506 101.886Z" fill="#CCCCCC"/>
    </g>
    <g style="mix-blend-mode:multiply">
        <path d="M161.567 102.198C161.814 102.061 162.025 102.45 161.775 102.581C161.529 102.718 161.317 102.329 161.567 102.198Z" fill="#CCCCCC"/>
    </g>
    <g style="mix-blend-mode:multiply">
        <path d="M162.058 101.399C162.304 101.262 162.515 101.651 162.263 101.782C162.016 101.919 161.805 101.529 162.058 101.399Z" fill="#CCCCCC"/>
    </g>
    <g style="mix-blend-mode:multiply">
        <path d="M163.039 102.156C163.286 102.02 163.497 102.409 163.247 102.539C163 102.676 162.789 102.287 163.039 102.156Z" fill="#CCCCCC"/>
    </g>
    <g style="mix-blend-mode:multiply">
        <path d="M162.649 102.991C162.896 102.854 163.107 103.243 162.857 103.374C162.611 103.511 162.399 103.122 162.649 102.991Z" fill="#CCCCCC"/>
    </g>
    <g style="mix-blend-mode:multiply">
        <path d="M162.156 104.256C161.895 104.36 161.737 103.948 162.002 103.852C162.263 103.749 162.421 104.161 162.156 104.256Z" fill="#CCCCCC"/>
    </g>
    <g style="mix-blend-mode:multiply">
        <path d="M163.268 104.518C163.006 104.622 162.848 104.209 163.113 104.111C163.375 104.007 163.532 104.42 163.268 104.518Z" fill="#CCCCCC"/>
    </g>
    <g style="mix-blend-mode:multiply">
        <path d="M161.389 105.05C161.127 105.154 160.97 104.741 161.234 104.646C161.496 104.542 161.653 104.955 161.389 105.05Z" fill="#CCCCCC"/>
    </g>
    <g style="mix-blend-mode:multiply">
        <path d="M160.434 103.861C160.681 103.725 160.892 104.114 160.642 104.245C160.396 104.381 160.185 103.992 160.434 103.861Z" fill="#CCCCCC"/>
    </g>
    <g style="mix-blend-mode:multiply">
        <path d="M161.208 103.184C161.455 103.047 161.666 103.437 161.416 103.567C161.169 103.704 160.958 103.315 161.208 103.184Z" fill="#CCCCCC"/>
    </g>
    <g style="mix-blend-mode:multiply">
        <path d="M156.193 103.339C156.148 103.059 156.588 102.997 156.624 103.276C156.668 103.555 156.228 103.618 156.193 103.339Z" fill="#CCCCCC"/>
    </g>
    <g style="mix-blend-mode:multiply">
        <path d="M157.215 104.185C157.461 104.049 157.672 104.438 157.423 104.568C157.176 104.705 156.965 104.316 157.215 104.185Z" fill="#CCCCCC"/>
    </g>
    <g style="mix-blend-mode:multiply">
        <path d="M157.162 105.341C157.409 105.204 157.62 105.593 157.37 105.724C157.123 105.861 156.912 105.471 157.162 105.341Z" fill="#CCCCCC"/>
    </g>
    <g style="mix-blend-mode:multiply">
        <path d="M163.91 103.511C163.649 103.615 163.491 103.202 163.756 103.104C164.017 103 164.175 103.413 163.91 103.511Z" fill="#CCCCCC"/>
    </g>
    <g style="mix-blend-mode:multiply">
        <path d="M157.206 102.774C157.453 102.638 157.664 103.027 157.414 103.157C157.167 103.294 156.956 102.905 157.206 102.774Z" fill="#CCCCCC"/>
    </g>
    <g style="mix-blend-mode:multiply">
        <path d="M155.99 104.221C156.237 104.084 156.448 104.473 156.195 104.604C155.949 104.741 155.737 104.352 155.99 104.221Z" fill="#CCCCCC"/>
    </g>
    <path d="M115.634 147.7H200.991C203.37 147.7 205.299 149.628 205.299 152.005V202.394C205.299 204.77 203.37 206.698 200.991 206.698H115.634C113.256 206.698 111.326 204.77 111.326 202.394V152.005C111.326 149.628 113.256 147.7 115.634 147.7Z" fill="white"/>
    <path d="M194.615 147.7C191.636 199.646 151.205 200.255 111.327 198.273C111.475 200.923 110.325 206.695 114.496 206.698H202.128C203.879 206.698 205.297 205.174 205.297 203.291V151.107C205.332 145.954 197.644 148.128 194.615 147.7Z" fill="#2D452E" fill-opacity="0.11"/>
    <path d="M153.471 180.147C153.497 174.025 163.127 174.025 163.153 180.147C163.127 186.27 153.497 186.27 153.471 180.147Z" fill="#2D452E" fill-opacity="0.42"/>
    <path d="M247.08 58.543C212.621 57.9252 212.627 6.75499 247.08 6.14307C281.539 6.76093 281.533 57.9281 247.08 58.543ZM247.08 8.19867C215.321 8.76901 215.327 55.926 247.08 56.4904C278.837 55.9201 278.834 8.76306 247.08 8.19867Z" fill="#CFB57D"/>
    <path d="M249.75 60.4947C216.192 59.8946 216.198 10.0612 249.75 9.46411C283.308 10.0642 283.302 59.8976 249.75 60.4947ZM249.75 10.1503C217.093 10.7355 217.096 59.2322 249.75 59.8115C282.407 59.2263 282.401 10.7296 249.75 10.1503Z" fill="#946800"/>
    <path d="M245.995 61.4927C212.437 60.8927 212.443 11.0592 245.995 10.4622C279.553 11.0622 279.547 60.8956 245.995 61.4927ZM245.995 11.1483C213.335 11.7335 213.341 60.2302 245.995 60.8095C278.653 60.2243 278.647 11.7276 245.995 11.1483Z" fill="#946800"/>
    <path d="M244.883 35.9998C244.734 35.9225 244.595 35.8364 244.458 35.7413C244.613 35.7918 244.758 35.8899 244.883 35.9998Z" fill="white"/>
    <path d="M246.685 36.484C253.623 36.4543 253.623 25.9119 246.685 25.8822C239.746 25.9119 239.746 36.4543 246.685 36.484Z" fill="#B3913E"/>
    <path d="M241.768 35.3136C241.812 35.37 241.863 35.4294 241.911 35.4859C241.664 35.5869 241.405 35.6701 241.141 35.7324C241.325 35.5572 241.542 35.4176 241.768 35.3136Z" fill="white"/>
    <path d="M252.271 35.4657C252.176 35.4269 252.084 35.3852 251.991 35.3405C252 35.3285 252.009 35.3196 252.018 35.3047C252.104 35.3494 252.188 35.4031 252.271 35.4657Z" fill="white"/>
    <path d="M251.552 36.5256C249.673 35.5542 247.779 39.7516 243.489 36.6147C241.477 35.6582 240.332 38.7475 240.32 40.5982C240.249 41.5398 240.977 42.3686 241.932 42.3627H251.846C254.846 41.9884 253.119 37.4732 251.552 36.5256Z" fill="#B3913E"/>
    <path d="M259.62 30.5727C259.715 34.4076 255.383 37.0811 251.991 35.3404C254.221 32.8154 253.835 28.3537 251.245 26.2476C254.56 23.7435 259.751 26.3665 259.617 30.5697L259.62 30.5727Z" fill="#B3913E"/>
    <path d="M261.086 39.9923C261.157 40.9339 260.426 41.7627 259.474 41.7568H254.56C255.03 40.2121 254.56 38.3585 253.781 37.096C256.133 37.7436 257.762 35.0404 259.18 35.9167C260.36 36.8376 261.086 38.1981 261.086 39.9923Z" fill="#B3913E"/>
    <path d="M240.303 31.1816C240.303 32.8273 240.903 34.3185 241.911 35.4859C238.528 36.9266 234.532 34.265 234.61 30.5727C234.491 26.5001 239.381 23.8474 242.734 26.0842C241.254 27.2902 240.306 29.129 240.306 31.1846L240.303 31.1816Z" fill="#B3913E"/>
    <path d="M239.039 40.6011C239.027 40.9962 239.083 41.4031 239.217 41.7566C237.737 41.5309 233.331 42.6656 233.548 39.9921C233.548 38.2722 234.199 36.9503 235.272 36.0324C236.711 35.1264 238.111 37.5147 239.963 37.1315C239.354 38.1266 239.039 39.3 239.039 40.6011Z" fill="#B3913E"/>
    <path d="M26.2539 130.254C-8.20481 129.636 -8.19886 78.4693 26.2539 77.8544C60.7127 78.4722 60.7067 129.639 26.2539 130.254ZM26.2539 79.91C-5.50542 80.4803 -5.49948 127.637 26.2539 128.202C58.0103 127.631 58.0074 80.4744 26.2539 79.91Z" fill="#CFB57D"/>
    <path d="M28.9241 132.206C-4.63391 131.603 -4.62796 81.7725 28.9241 81.1754C62.482 81.7755 62.4761 131.609 28.9241 132.206ZM28.9241 81.8616C-3.73312 82.4468 -3.73015 130.944 28.9241 131.523C61.5812 130.938 61.5753 82.4409 28.9241 81.8616Z" fill="#946800"/>
    <path d="M25.1662 133.204C-8.39172 132.604 -8.38578 82.7705 25.1662 82.1735C58.7242 82.7735 58.7183 132.607 25.1662 133.204ZM25.1662 82.8597C-7.49094 83.4448 -7.48796 131.942 25.1662 132.521C57.8234 131.936 57.8175 83.4389 25.1662 82.8597Z" fill="#946800"/>
    <path d="M21.2599 97.0648C13.5541 96.842 8.50619 106.03 12.6742 112.405C11.3899 113.355 10.8815 115.494 10.4326 117.725C15.1417 115.176 16.5954 116.652 21.2599 117.205C34.5071 116.979 34.5041 97.2876 21.2599 97.0648Z" fill="#B3913E"/>
    <path d="M41.7872 111.047C37.9641 108.213 35.9396 109.523 32.1224 110.459C34.3372 103.63 29.1495 96.1498 22.0205 95.8052C28.5668 83.8251 46.4814 93.8595 39.5457 105.727C41.0589 106.627 41.591 108.644 41.7872 111.047Z" fill="#B3913E"/>
    <path d="M16.0216 106.989C16.0008 105.537 18.284 105.537 18.2632 106.989C18.284 108.442 16.0008 108.442 16.0216 106.989Z" fill="white"/>
    <path d="M19.7648 106.989C19.744 105.537 22.0272 105.537 22.0063 106.989C22.0272 108.442 19.744 108.442 19.7648 106.989Z" fill="white"/>
    <path d="M23.507 106.989C23.4862 105.537 25.7693 105.537 25.7485 106.989C25.7693 108.442 23.4862 108.442 23.507 106.989Z" fill="white"/>
    <path d="M81.0803 43.7974C55.3767 43.337 55.3797 5.16876 81.0803 4.7113C106.784 5.17173 106.778 43.3399 81.0803 43.7974ZM81.0803 6.24409C57.3893 6.66888 57.3953 41.8458 81.0803 42.2676C104.768 41.8428 104.765 6.66591 81.0803 6.24409Z" fill="#CFB57D"/>
    <path d="M83.0754 45.253C58.0437 44.8044 58.0467 7.6343 83.0754 7.18872C108.107 7.63727 108.104 44.8074 83.0754 45.253ZM83.0754 7.69965C58.7156 8.13632 58.7185 44.3113 83.0754 44.742C107.435 44.3054 107.432 8.13038 83.0754 7.69965Z" fill="#946800"/>
    <path d="M80.2717 45.9986C55.24 45.55 55.243 8.3799 80.2717 7.93433C105.303 8.38287 105.3 45.553 80.2717 45.9986ZM80.2717 8.44526C55.9119 8.88192 55.9148 45.0569 80.2717 45.4876C104.632 45.051 104.629 8.87598 80.2717 8.44526Z" fill="#946800"/>
    <path d="M81.4664 13.5397C88.3546 13.8338 93.7058 19.5342 93.4174 26.2683C93.1082 38.7029 75.1936 42.2082 69.8216 31.2677C65.3266 23.2562 72.3396 12.8149 81.4664 13.5397Z" fill="#B3913E"/>
    <path d="M81.2431 13.5339C80.812 14.3537 79.9321 13.9586 79.2691 14.3686C78.7251 14.731 78.4426 15.4409 78.618 15.6667C78.7489 15.836 79.0967 15.6756 79.168 15.8182C79.3078 16.24 77.9997 16.9202 77.6132 17.1638C77.1435 18.049 76.5846 18.4382 75.5857 18.0847C75.1487 18.8689 75.4014 20.6839 73.6087 19.9026C73.359 20.0304 73.6236 20.5383 73.3055 21.0017C72.6961 21.7414 72.1253 21.4889 71.6288 21.7206C70.8915 23.3366 72.149 24.1386 71.3166 26.0665C70.9866 26.8448 70.5675 26.9665 70.6656 27.3616C70.5764 27.5131 71.5515 28.333 71.7388 28.838C71.7091 29.1231 71.1739 29.1083 70.9599 29.5123C70.8172 29.7767 71.1353 29.9876 71.0075 30.4094C70.835 30.8579 70.3802 31.3748 69.8272 31.2679C68.097 28.1043 68.0078 23.7524 69.6548 20.5027C70.731 19.6947 72.1401 19.3917 72.6158 18.15C73.4244 16.2311 73.0796 17.0094 74.5184 16.6054C74.8455 13.7656 78.7221 13.6497 81.2491 13.5309L81.2431 13.5339Z" fill="#946800"/>
    <path d="M72.8748 32.1886C72.9788 32.6133 73.7161 33.0054 74.2155 33.4065C74.9766 34.0184 74.6258 33.8342 74.1858 34.1016C74.0609 34.3154 74.3761 34.8323 74.6198 34.8175C75.1847 33.8817 76.5611 33.3916 75.8982 32.0876C76.3738 31.7192 76.7663 32.3549 77.0368 32.6015C77.2895 32.6817 77.4292 32.3608 77.7414 32.3995C78.0595 32.4381 78.0595 32.7886 78.4162 32.8926C79.0494 32.8747 79.2308 32.5718 80.2802 32.7411C81.1126 32.7827 81.0532 32.7411 81.2078 32.7797C81.7667 32.9342 81.8023 33.3055 82.3375 33.5223C83.5474 33.7035 86.9454 33.4124 87.2338 33.0352C85.6671 32.0371 89.3059 31.8232 89.6299 31.2825C90.4951 29.9131 91.3156 28.2853 92.145 26.7495C93.896 23.4552 91.2056 26.8832 90.6734 23.2057C90.5605 22.974 90.504 20.9362 90.0759 20.862C89.2881 20.5382 89.8945 23.476 89.0205 23.8325C87.8284 24.1622 87.9354 23.3661 87.1268 24.6791C86.776 24.3434 86.6452 23.3958 85.563 23.2206C84.7425 23.3572 84.9358 22.775 84.4452 22.2433C83.8893 21.8987 83.5118 21.9997 83.3274 21.2689C83.0628 20.8441 82.7626 20.9451 82.4296 20.5352C82.1739 20.2203 82.2572 20.0451 81.9956 19.8193C81.5496 19.3945 81.1602 19.546 80.5953 19.9916C80.1078 20.2114 79.8818 19.9738 79.6589 20.1847C79.3883 20.4401 79.6767 20.8441 79.3765 21.3313C79.2635 21.5155 79.1981 21.5006 78.8949 21.7739C78.2319 22.371 78.3122 22.6532 77.9197 22.8908C77.4084 23.1998 77.1141 22.8195 76.5195 23.0631C75.7614 23.375 75.3036 24.3731 75.5236 24.6434C75.8179 25.0088 77.3608 24.1147 77.6195 24.5008C77.1498 26.1614 79.2338 24.9583 79.6946 24.8217C79.87 24.9345 79.7778 25.5673 79.4121 25.9683C78.3776 26.9634 78.2468 26.0425 77.3371 25.6475C75.3512 25.7009 76.4571 28.1279 76.2698 28.8497C76.0528 29.1735 75.6306 29.0339 75.3125 29.5032C75.1639 30.0646 74.7239 30.0914 74.3463 30.3914C74.0163 31.3212 73.6745 30.6469 73.1691 30.8043C73.0858 30.8845 73.1631 30.9944 73.1483 31.2677C73.1215 31.7786 72.8331 31.8707 72.8777 32.1826L72.8748 32.1886Z" fill="#946800"/>
    <path d="M307.171 115.637C305.94 142.119 265.985 140.981 266.264 114.475C267.495 87.9958 307.451 89.1306 307.171 115.637ZM267.867 114.523C267.614 138.955 304.439 139.995 305.569 115.592C305.821 91.1624 268.996 90.1227 267.867 114.523Z" fill="#CFB57D"/>
    <path d="M308.752 113.625C307.554 139.415 268.642 138.307 268.915 112.497C270.114 86.7096 309.026 87.8146 308.752 113.625ZM269.448 112.512C269.186 137.636 307.055 138.706 308.217 113.611C308.479 88.4889 270.61 87.4195 269.448 112.512Z" fill="#946800"/>
    <path d="M309.448 116.537C308.25 142.327 269.338 141.219 269.612 115.405C270.81 89.6177 309.722 90.7227 309.448 116.537ZM270.144 115.423C269.882 140.547 307.751 141.617 308.913 116.522C309.175 91.4 271.306 90.3306 270.144 115.423Z" fill="#946800"/>
    <path d="M286.06 116.697L284.874 116.715C284.69 116.465 284.479 116.239 284.247 116.037C284.226 115.681 284.675 114.635 284.155 114.454C283.834 114.341 283.23 113.86 282.915 114.217C282.172 114.98 282.234 115.063 281.146 114.968C280.445 114.113 280.388 113.578 279.169 114.142C278.628 114.255 278.934 115.348 278.875 115.699C278.613 115.871 278.376 116.07 278.164 116.29C277.799 116.308 276.696 115.88 276.497 116.373C275.724 117.502 276.342 117.579 277.106 118.334C277.053 118.628 277.032 118.928 277.047 119.234C276.199 119.89 275.566 119.89 276.182 121.108C276.312 121.628 277.466 121.334 277.823 121.393C278.007 121.643 278.218 121.869 278.45 122.071C278.468 122.427 278.025 123.473 278.542 123.654C279.681 124.37 279.808 123.841 280.605 123.081C280.914 123.134 281.229 123.155 281.551 123.14C282.252 123.996 282.309 124.53 283.53 123.966C284.072 123.853 283.765 122.76 283.825 122.409C284.086 122.237 284.327 122.038 284.535 121.815C284.901 121.797 286.004 122.225 286.203 121.732C286.976 120.603 286.358 120.526 285.594 119.771C285.647 119.477 285.668 119.177 285.653 118.874C285.894 118.616 286.994 118.182 286.768 117.695C286.625 117.389 286.548 116.649 286.066 116.697H286.06ZM282.338 121.824C278.652 123.104 276.494 117.502 280.35 116.281C284.033 115.001 286.194 120.603 282.338 121.824Z" fill="#D0B67F"/>
    <path d="M279.107 118.99C278.985 121.744 283.545 121.872 283.578 119.118C283.7 116.364 279.14 116.234 279.107 118.99ZM282.493 119.085C282.475 120.502 280.127 120.434 280.189 119.02C280.207 117.6 282.555 117.668 282.493 119.085Z" fill="#D0B67F"/>
    <path d="M297.81 104.565C296.279 105.049 296.451 105.246 295.039 104.396C294.852 103.909 294.992 102.305 294.204 102.269C293.722 102.248 292.679 101.824 292.408 102.444C291.656 103.888 291.944 103.823 290.327 104.182C288.951 103.315 288.763 102.554 287.259 103.849C286.569 104.227 287.482 105.602 287.553 106.098C287.271 106.44 287.036 106.808 286.846 107.194C285.297 107.518 284.536 107.028 284.435 109.018C284.239 109.761 285.912 110.114 286.314 110.414C286.37 110.839 286.477 111.258 286.635 111.668C285.728 112.972 284.919 113.141 286.296 114.579C286.7 115.232 288.142 114.371 288.659 114.306C289.022 114.573 289.411 114.799 289.819 114.98C290 115.467 289.869 117.068 290.654 117.107C292.592 117.597 292.396 116.932 293.214 115.491C293.66 115.437 294.1 115.339 294.531 115.191C295.907 116.058 296.095 116.822 297.602 115.524C298.292 115.146 297.379 113.774 297.307 113.278C297.587 112.936 297.825 112.568 298.012 112.182C299.561 111.858 300.322 112.348 300.423 110.358C300.619 109.615 298.946 109.262 298.544 108.962C298.488 108.54 298.381 108.118 298.223 107.711C298.44 107.26 299.742 106.22 299.216 105.65C298.886 105.293 298.449 104.31 297.813 104.568L297.81 104.565ZM295.024 113.073C290.532 116.234 285.113 109.686 289.834 106.3C294.323 103.139 299.745 109.689 295.024 113.073Z" fill="#D0B67F"/>
    <path d="M289.349 110.5C290.363 114.261 296.674 112.719 295.509 108.87C294.495 105.106 288.184 106.648 289.349 110.5ZM294.013 109.265C294.614 111.243 291.365 112.036 290.841 110.102C290.241 108.121 293.49 107.328 294.013 109.265Z" fill="#D0B67F"/>
    <path d="M277.915 78.8674C277.802 79.1525 273.03 85.4708 273.286 85.6758C274.101 86.4897 275.611 85.7441 276.506 85.0847C279.571 82.5686 279.797 77.4593 275.765 75.7305C264.727 71.4589 262.132 91.1 274.85 88.4918L276.61 89.3592C264.195 94.2547 259.884 75.8671 272.314 73.6036C279.508 73.063 283.18 81.6478 277.338 86.2164C275.881 87.5353 271.119 88.3552 271.38 85.4084C268.116 86.6917 266.16 83.2014 267.84 80.3556C269.127 77.1563 274.758 73.9809 275.611 78.9357L276.244 78.0445L277.918 78.8674H277.915ZM269.433 81.6626C268.586 83.038 269.198 84.9391 270.941 84.3153C272.266 83.6529 274.728 80.6794 274.478 79.0515C273.149 76.1731 270.117 80.0972 269.436 81.6656L269.433 81.6626Z" fill="#2D452E" fill-opacity="0.42"/>
    <g opacity="0.11">
        <path d="M262.504 107.667C262.792 107.625 262.929 107.456 262.908 107.165C262.763 106.698 262.477 106.327 262.055 106.048C261.404 105.459 260.72 104.91 260.01 104.396C259.647 104.043 259.225 103.844 258.737 103.799C258.449 103.841 258.312 104.01 258.333 104.301C258.479 104.767 258.764 105.139 259.186 105.418C259.837 106.006 260.521 106.556 261.232 107.069C261.594 107.423 262.017 107.622 262.504 107.667Z" fill="white"/>
    </g>
    <g opacity="0.11">
        <path d="M259.674 105.65C259.974 105.611 260.108 105.445 260.072 105.145C259.891 104.655 259.576 104.265 259.124 103.971C258.414 103.351 257.67 102.765 256.9 102.219C256.511 101.847 256.056 101.634 255.539 101.571C255.239 101.607 255.105 101.776 255.14 102.076C255.322 102.566 255.637 102.955 256.089 103.25C256.799 103.87 257.543 104.456 258.312 104.999C258.702 105.37 259.157 105.584 259.674 105.647V105.65Z" fill="white"/>
    </g>
    <g opacity="0.11">
        <path d="M260.905 102.863C261.259 102.863 261.734 102.54 261.734 102.147C261.734 101.827 261.155 101.078 260.813 101.078C260.471 101.078 259.983 101.402 259.983 101.794C259.983 102.115 260.563 102.863 260.905 102.863Z" fill="white"/>
    </g>
    <g opacity="0.11">
        <path d="M261.838 104.387C262.207 104.47 262.365 104.322 262.311 103.951C262.053 103.261 261.648 102.658 261.098 102.15C260.197 101.108 259.261 100.098 258.289 99.1204C257.822 98.5323 257.254 98.0837 256.585 97.7748C256.217 97.6946 256.059 97.8401 256.113 98.2115C256.371 98.9036 256.776 99.5036 257.326 100.012C258.226 101.054 259.163 102.064 260.135 103.042C260.602 103.63 261.17 104.078 261.838 104.387Z" fill="white"/>
    </g>
    <g opacity="0.11">
        <path d="M263.283 102.635C263.5 102.575 263.678 102.453 263.815 102.272C263.943 102.073 263.94 101.871 263.806 101.666C263.663 101.372 263.479 101.102 263.256 100.861C263.114 100.662 262.926 100.585 262.694 100.632C262.474 100.692 262.299 100.814 262.162 100.995C262.034 101.194 262.034 101.396 262.171 101.601C262.314 101.895 262.498 102.165 262.718 102.406C262.861 102.605 263.048 102.682 263.28 102.635H263.283Z" fill="white"/>
    </g>
    <g opacity="0.11">
        <path d="M258.997 105.403C259.362 105.403 259.746 104.889 259.674 104.542C259.597 104.17 258.878 103.624 258.503 103.624C258.128 103.624 257.754 104.138 257.825 104.485C257.903 104.857 258.622 105.403 258.997 105.403Z" fill="white"/>
    </g>
    <g opacity="0.11">
        <path d="M260.739 108.317C261.289 108.317 261.645 107.937 261.333 107.396C260.982 107.034 260.59 106.722 260.156 106.464C259.74 106.172 259.297 105.944 258.821 105.774C258.271 105.774 257.914 106.155 258.227 106.692C258.577 107.055 258.97 107.367 259.404 107.625C259.82 107.913 260.263 108.145 260.739 108.314V108.317Z" fill="white"/>
    </g>
    <g opacity="0.11">
        <path d="M263.694 104.254C264.862 104.254 263.694 102.661 263.497 102.358C262.906 101.488 262.278 100.647 261.61 99.8334C261.3 99.3314 260.884 98.9601 260.361 98.7224C259.193 98.7224 260.361 100.315 260.557 100.618C261.149 101.488 261.776 102.329 262.445 103.143C262.754 103.645 263.17 104.016 263.694 104.254Z" fill="white"/>
    </g>
    <g opacity="0.11">
        <path d="M259.775 103.951C260.191 103.951 260.625 103.63 260.533 103.16C260.385 102.86 260.182 102.602 259.93 102.382C259.698 102.139 259.43 101.948 259.124 101.812C258.708 101.812 258.274 102.133 258.366 102.602C258.515 102.902 258.717 103.16 258.97 103.38C259.201 103.624 259.469 103.814 259.775 103.951Z" fill="white"/>
    </g>
    <g opacity="0.11">
        <path d="M261.021 102.465C262.091 102.465 261.086 101.072 260.908 100.823C260.394 100.145 259.844 99.4977 259.255 98.8828C258.973 98.4788 258.601 98.2144 258.14 98.0927C257.07 98.0927 258.075 99.4858 258.253 99.7353C258.768 100.413 259.318 101.06 259.906 101.675C260.189 102.079 260.56 102.343 261.021 102.465Z" fill="white"/>
    </g>
    <g opacity="0.11">
        <path d="M263.45 106.054C264.693 106.054 263.144 104.295 263.019 104.138C262.314 103.3 261.574 102.495 260.798 101.723C260.426 101.238 259.96 100.897 259.398 100.695C258.155 100.695 259.704 102.453 259.829 102.611C260.533 103.448 261.274 104.254 262.05 105.026C262.421 105.51 262.888 105.852 263.45 106.054Z" fill="white"/>
    </g>
    <g opacity="0.11">
        <path d="M259.32 106.865C259.712 106.865 260.054 106.318 259.941 105.965C259.814 105.564 258.975 105.017 258.565 105.017C258.155 105.017 257.831 105.564 257.944 105.917C258.068 106.318 258.91 106.865 259.32 106.865Z" fill="white"/>
    </g>
    <path d="M65.3272 69.843L54.9072 69.54C55.5494 68.637 68.5706 60.5482 69.6706 60.37L65.3302 69.84L65.3272 69.843Z" fill="#2D452E" fill-opacity="0.42"/>
    <path d="M71.8166 61.4453C80.0723 74.177 77.9021 69.4212 62.6155 79.9724C61.5394 80.6408 60.1272 80.3111 59.4583 79.2358C59.054 78.2674 54.1517 71.5629 54.5858 70.5084L65.9452 70.8381L70.678 60.5126C71.1358 60.6849 71.5402 60.9997 71.8166 61.4453Z" fill="#2D452E" fill-opacity="0.42"/>
    <path d="M220.878 10.2454C218.83 8.13633 217.453 11.3831 215.524 10.1266C213.805 8.90272 210.3 6.72533 211.186 4.15583C213.056 1.60118 210.024 -1.44954 207.476 0.763497L206.079 2.20123C201.75 5.59653 212.239 13.7684 216.053 16.0023C218.068 17.1934 219.344 15.42 220.524 14.2051C221.761 13.2248 222.079 11.389 220.881 10.2454H220.878Z" fill="#2D452E" fill-opacity="0.42"/>
    <path d="M119.704 11.0861L116.294 13.2991C113.919 10.4504 116.464 8.68591 116.045 5.7748C114.579 4.00734 112.453 6.7016 113.836 8.41856L110.075 10.2484C105.895 4.04893 118.792 -2.98526 120.195 5.05594C120.415 6.59764 118.349 9.53251 119.701 11.0861H119.704ZM116.767 14.2794L120.418 11.9089L122.511 15.126L118.86 17.4965L116.767 14.2794Z" fill="#2D452E" fill-opacity="0.42"/>
    <path d="M102.907 105.379C103.549 104.301 101.025 104.871 100.778 104.295C99.7616 102.032 99.6933 102.02 98.6379 104.277C98.5576 104.595 96.9344 104.619 96.7025 104.702C95.5491 105.195 97.9274 106.217 97.7847 106.829C97.2763 109.256 97.3239 109.306 99.506 108.1C100.05 107.785 101.724 109.758 101.86 108.51C101.486 106.413 101.358 106.826 102.907 105.379Z" fill="#2D452E" fill-opacity="0.42"/>
    <path d="M44.9929 172.73C45.635 171.652 43.111 172.222 42.8643 171.646C41.8476 169.382 41.7792 169.37 40.7238 171.628C40.6436 171.946 39.0204 171.969 38.7885 172.053C37.635 172.549 40.0133 173.568 39.8706 174.179C39.3622 176.606 39.4098 176.657 41.5919 175.451C42.1359 175.136 43.8097 177.108 43.9435 175.861C43.5689 173.761 43.441 174.177 44.9899 172.73H44.9929Z" fill="#2D452E" fill-opacity="0.42"/>
    <path d="M171.111 17.1162C171.753 16.0379 169.229 16.6083 168.982 16.032C167.966 13.7685 167.897 13.7566 166.842 16.0142C166.762 16.332 165.139 16.3558 164.907 16.439C163.753 16.935 166.131 17.9539 165.989 18.5658C165.48 20.9928 165.528 21.0433 167.71 19.8372C168.254 19.5224 169.928 21.4948 170.065 20.2472C169.69 18.15 169.562 18.5629 171.111 17.1162Z" fill="#2D452E" fill-opacity="0.42"/>
    <path d="M233.801 74.2096C234.443 73.1313 231.919 73.7017 231.672 73.1254C230.655 70.8618 230.587 70.85 229.531 73.1076C229.451 73.4254 227.828 73.4492 227.596 73.5323C226.443 74.0254 228.821 75.0473 228.678 75.6592C228.17 78.0861 228.217 78.1366 230.4 76.9306C230.944 76.6157 232.617 78.5882 232.754 77.3405C232.379 75.2434 232.252 75.6563 233.801 74.2096Z" fill="#2D452E" fill-opacity="0.42"/>
    <path d="M211.819 110.869C212.461 109.791 209.937 110.361 209.69 109.785C208.674 107.521 208.605 107.509 207.55 109.767C207.47 110.085 205.847 110.108 205.615 110.192C204.461 110.685 206.839 111.706 206.697 112.318C206.188 114.745 206.236 114.796 208.418 113.59C208.962 113.275 210.636 115.247 210.77 114C210.395 111.903 210.267 112.315 211.816 110.869H211.819Z" fill="#2D452E" fill-opacity="0.42"/>
    <path d="M284.548 184.749C285.19 183.67 282.666 184.241 282.419 183.664C281.402 181.401 281.334 181.389 280.278 183.646C280.198 183.964 278.575 183.988 278.343 184.071C277.19 184.567 279.568 185.586 279.425 186.198C278.917 188.625 278.964 188.676 281.147 187.47C281.691 187.155 283.367 189.127 283.501 187.879C283.127 185.782 282.999 186.195 284.548 184.749Z" fill="#2D452E" fill-opacity="0.42"/>
    <path d="M110.673 44.0083C111.315 42.93 108.791 43.5004 108.544 42.9241C107.527 40.6605 107.459 40.6487 106.404 42.9063C106.32 43.2241 104.7 43.2479 104.468 43.331C103.315 43.8241 105.693 44.846 105.55 45.4579C105.042 47.8848 105.089 47.9353 107.272 46.7293C107.816 46.4144 109.489 48.3869 109.626 47.1392C109.252 45.0421 109.124 45.455 110.673 44.0083Z" fill="#2D452E" fill-opacity="0.42"/>
    <path d="M266.743 212.719H35.1222C33.2612 212.719 31.751 211.21 31.751 209.35C31.751 207.491 33.2612 205.982 35.1222 205.982H266.743C268.607 205.982 270.114 207.491 270.114 209.35C270.114 211.213 268.604 212.719 266.743 212.719Z" fill="#2D452E" fill-opacity="0.42"/>
</svg>
