<svg width="24" height="24" viewBox="0 0 24 24" fill="none" xmlns="http://www.w3.org/2000/svg">
    <path d="M19.52 11.01C19.52 15.7099 15.7099 19.52 11.01 19.52C6.31006 19.52 2.5 15.7099 2.5 11.01C2.5 6.31006 6.31006 2.5 11.01 2.5C15.7099 2.5 19.52 6.31006 19.52 11.01Z" stroke="#363636"/>
    <path d="M19.7923 21.7768L19.7814 21.775L19.7706 21.7737C19.6454 21.7584 19.4489 21.7047 19.2407 21.533C19.0329 21.3617 18.7856 21.0497 18.5949 20.4735C18.4167 19.9303 18.4938 19.4321 18.7458 19.0822C18.998 18.7319 19.4456 18.5 20.0201 18.5C20.8472 18.5 21.3352 18.7932 21.5488 19.1851C21.7541 19.5794 21.7293 20.1466 21.2682 20.8165L21.2681 20.8165L21.264 20.8226C20.6896 21.6842 20.1604 21.78 19.9001 21.78C19.8218 21.78 19.8042 21.7788 19.7923 21.7768Z" stroke="#363636"/>
</svg>
