<svg width="375" height="812" viewBox="0 0 375 812" fill="none" xmlns="http://www.w3.org/2000/svg">
    <path d="M0 0H375V813H0V0Z" fill="#445740"/>
    <g filter="url(#filter0_f_0_1)">
        <rect x="52" y="107" width="271" height="241" rx="120.5" fill="#F1F180" fill-opacity="0.31"/>
    </g>
    <g clip-path="url(#clip0_0_1)">
        <path d="M226.518 151.039L232.257 126.705C232.277 125.629 233.013 124.121 233.96 123.689C234.434 123.473 234.953 123.413 235.462 123.539L249.122 127.006C249.964 127.192 250.609 127.871 250.785 128.755L251.516 132.434L269.383 136.987C271.812 137.389 272.82 139.631 272.205 141.309L266.758 161.834C265.892 164.206 263.291 165.492 261.22 164.97L229.637 156.954C227.465 156.401 226.12 154.034 226.518 151.039Z" fill="#F39B6D"/>
        <path d="M226.13 150.556L231.149 130.203C231.743 128.645 233.109 127.725 234.363 128.042L270.18 137.128C271.696 137.515 272.432 139.525 271.757 141.43L267.232 160.286C266.038 164.975 263.181 165.739 261.039 165.196L229.652 157.23C226.427 156.411 224.941 154.542 226.13 150.551V150.556Z" fill="#EBEBEB"/>
        <path d="M249.949 152.667C249.38 152.667 248.805 152.582 248.236 152.411C245.152 151.466 243.409 148.194 244.361 145.114C245.308 142.038 248.589 140.299 251.677 141.249C253.174 141.706 254.398 142.716 255.129 144.093C255.86 145.47 256.011 147.054 255.552 148.541C254.781 151.049 252.458 152.667 249.954 152.667H249.949ZM249.954 141.49C247.666 141.49 245.545 142.968 244.835 145.259C243.968 148.074 245.56 151.064 248.377 151.928C251.199 152.793 254.197 151.205 255.063 148.395C255.482 147.033 255.346 145.591 254.675 144.33C254.005 143.068 252.887 142.149 251.521 141.726C251.002 141.566 250.473 141.49 249.954 141.49Z" fill="#F39B6D"/>
        <path d="M248.633 146.425L249.374 144.018L251.092 145.862L252.81 147.707L250.352 148.27L247.893 148.833L248.633 146.425Z" fill="#F39B6D"/>
        <path d="M142.741 278.026L115.804 292.545C113.944 293.55 111.616 292.856 110.614 291.002L90.4633 253.822C89.4555 251.968 90.1509 249.646 92.0102 248.646L109.092 239.439L129.681 245.902L144.288 272.854C145.296 274.709 144.601 277.031 142.741 278.031V278.026Z" fill="#EBEBEB"/>
        <path d="M126.285 263.798C126.285 263.798 126.506 263.667 126.869 263.361C127.217 263.049 127.711 262.496 127.948 261.627C128.063 261.195 128.109 260.687 128.023 260.154C127.983 259.883 127.897 259.617 127.786 259.34C127.665 259.074 127.509 258.803 127.353 258.516C126.728 257.375 126.018 256.084 125.232 254.656C124.839 253.943 124.43 253.189 124.002 252.41C123.791 252.018 123.569 251.621 123.347 251.214C123.125 250.802 122.909 250.4 122.601 250.048C121.997 249.344 121.095 248.857 120.112 248.736C119.623 248.676 119.114 248.711 118.626 248.842C118.132 248.967 117.683 249.224 117.205 249.485C113.41 251.541 109.238 253.802 104.86 256.174C103.862 256.838 103.232 257.983 103.202 259.149C103.177 259.732 103.292 260.31 103.529 260.833C103.776 261.351 104.084 261.878 104.356 262.391C105.469 264.456 106.548 266.447 107.575 268.346C107.837 268.809 108.074 269.316 108.346 269.728C108.634 270.145 109.007 270.487 109.43 270.743C110.271 271.256 111.299 271.377 112.191 271.13C112.64 271.015 113.038 270.784 113.451 270.562C113.859 270.346 114.262 270.13 114.655 269.919C115.441 269.497 116.197 269.095 116.918 268.713C119.79 267.19 122.118 265.954 123.755 265.085C124.551 264.672 125.176 264.346 125.62 264.115C125.821 264.014 125.982 263.934 126.108 263.868C126.219 263.813 126.28 263.788 126.28 263.793C126.28 263.793 126.229 263.833 126.124 263.894C126.003 263.964 125.846 264.054 125.65 264.165C125.212 264.411 124.597 264.753 123.811 265.19C122.188 266.08 119.875 267.346 117.023 268.909C116.308 269.301 115.552 269.708 114.771 270.135C114.378 270.346 113.98 270.568 113.572 270.789C113.169 271.005 112.745 271.256 112.262 271.387C111.304 271.658 110.196 271.532 109.284 270.985C108.825 270.713 108.422 270.341 108.11 269.894C107.802 269.432 107.586 268.964 107.318 268.487C106.286 266.592 105.207 264.602 104.084 262.542C103.806 262.019 103.514 261.521 103.242 260.964C102.98 260.401 102.854 259.767 102.884 259.139C102.92 257.878 103.6 256.631 104.683 255.908C109.077 253.496 113.259 251.279 117.064 249.224C117.532 248.972 118.016 248.691 118.55 248.56C119.079 248.42 119.623 248.389 120.147 248.455C121.201 248.585 122.163 249.113 122.803 249.872C123.13 250.249 123.357 250.686 123.574 251.088C123.791 251.495 124.007 251.897 124.219 252.289C124.642 253.073 125.045 253.827 125.428 254.546C126.194 255.983 126.894 257.285 127.504 258.431C127.655 258.717 127.807 258.989 127.932 259.275C128.043 259.561 128.129 259.848 128.169 260.129C128.25 260.692 128.195 261.215 128.063 261.662C127.796 262.557 127.272 263.109 126.905 263.411C126.522 263.708 126.28 263.798 126.28 263.798H126.285Z" fill="#FAFAFA"/>
        <path d="M128.35 260.411C128.35 260.411 128.239 260.385 128.048 260.315C127.821 260.225 127.539 260.114 127.201 259.978C126.425 259.657 125.382 259.219 124.113 258.692C123.458 258.415 122.747 258.114 121.986 257.787C121.603 257.626 121.21 257.455 120.802 257.28C120.601 257.194 120.394 257.109 120.187 257.018C120.001 256.948 119.789 256.923 119.588 256.968C119.185 257.043 118.827 257.38 118.751 257.802C118.671 258.28 118.59 258.772 118.504 259.27C118.338 260.27 118.162 261.305 117.98 262.365C117.9 262.838 117.819 263.31 117.743 263.753L117.713 263.928L117.542 263.878C116.585 263.607 115.652 263.345 114.75 263.094C114.524 263.029 114.302 262.969 114.085 262.903C113.853 262.838 113.672 262.778 113.471 262.793C113.072 262.813 112.705 263.049 112.523 263.376C112.427 263.531 112.387 263.732 112.327 263.933C112.271 264.134 112.216 264.33 112.16 264.521C112.05 264.908 111.944 265.28 111.843 265.647C111.636 266.366 111.445 267.039 111.269 267.657C110.921 268.843 110.634 269.818 110.422 270.542C110.326 270.849 110.246 271.105 110.18 271.316C110.12 271.492 110.084 271.582 110.074 271.582C110.064 271.582 110.079 271.482 110.12 271.301C110.17 271.085 110.236 270.824 110.306 270.512C110.498 269.783 110.75 268.798 111.057 267.602C111.223 266.984 111.4 266.306 111.596 265.582C111.692 265.22 111.793 264.843 111.898 264.456C111.949 264.26 112.004 264.064 112.06 263.863C112.115 263.672 112.15 263.451 112.276 263.235C112.503 262.818 112.957 262.516 113.46 262.491C113.712 262.466 113.969 262.546 114.176 262.607C114.398 262.667 114.619 262.727 114.846 262.793C115.748 263.044 116.68 263.3 117.643 263.567L117.441 263.692C117.517 263.25 117.597 262.783 117.678 262.305C117.859 261.245 118.036 260.209 118.207 259.214C118.293 258.712 118.378 258.219 118.464 257.737C118.57 257.194 119.028 256.767 119.547 256.671C119.804 256.616 120.071 256.651 120.308 256.742C120.52 256.832 120.726 256.923 120.933 257.013C121.336 257.194 121.729 257.365 122.112 257.531C122.868 257.868 123.573 258.179 124.223 258.471C125.478 259.039 126.506 259.506 127.272 259.853C127.599 260.008 127.872 260.139 128.093 260.245C128.28 260.335 128.375 260.39 128.37 260.4L128.35 260.411Z" fill="#FAFAFA"/>
        <path d="M113.915 258.818C113.915 258.818 114.056 258.702 114.272 258.486C114.484 258.27 114.751 257.893 114.822 257.36C114.897 256.838 114.726 256.159 114.192 255.697C113.678 255.235 112.806 255.074 112.096 255.461C111.38 255.838 111.037 256.657 111.143 257.335C111.234 258.029 111.713 258.551 112.191 258.773C112.675 259.009 113.144 258.989 113.441 258.933C113.743 258.873 113.899 258.793 113.915 258.818C113.925 258.833 113.784 258.953 113.471 259.054C113.164 259.155 112.655 259.215 112.101 258.984C111.551 258.763 110.977 258.19 110.851 257.385C110.705 256.596 111.103 255.627 111.944 255.179C112.776 254.722 113.809 254.923 114.393 255.476C114.998 256.024 115.169 256.818 115.048 257.396C114.937 257.989 114.61 258.381 114.358 258.582C114.101 258.783 113.925 258.833 113.92 258.823L113.915 258.818Z" fill="#FAFAFA"/>
        <path d="M105.211 281.047L138.887 262.894L144.582 273.403C145.423 274.955 144.843 276.896 143.287 277.735L115.249 292.849C113.693 293.687 111.747 293.108 110.906 291.557L105.211 281.047Z" fill="#E0E0E0"/>
        <path d="M109.092 239.434L114.766 249.897C115.703 251.626 117.864 252.269 119.593 251.335L129.681 245.897L109.092 239.434Z" fill="#EBEBEB"/>
        <path d="M115.4 250.742C115.4 250.742 116.645 253.35 119.991 252.626C120.117 252.601 120.243 252.561 120.364 252.521C121.81 252.043 131.313 248.907 131.207 248.711C131.091 248.495 129.686 245.897 129.686 245.897L119.598 251.335C119.598 251.335 117.033 252.606 115.405 250.742H115.4Z" fill="#E0E0E0"/>
        <path d="M122.389 279.775L123.498 279.177L124.647 281.297C124.304 282.041 123.639 282.7 122.888 283.102C121.24 283.991 119.421 283.514 118.565 281.941C117.713 280.368 118.313 278.584 119.981 277.684C120.903 277.187 121.835 277.091 122.661 277.408L122.273 278.543C121.674 278.347 121.13 278.398 120.6 278.684C119.583 279.232 119.255 280.287 119.794 281.277C120.323 282.257 121.397 282.574 122.399 282.031C122.727 281.855 123.004 281.629 123.221 281.297L122.389 279.77V279.775Z" fill="#FAFAFA"/>
        <path d="M123.246 276.045L124.46 275.392L127.292 280.614L126.078 281.267L123.246 276.045Z" fill="#FAFAFA"/>
        <path d="M127.433 275.035L128.184 276.417L130.607 275.111L131.131 276.081L128.708 277.387L129.741 279.292L128.526 279.945L125.694 274.724L129.655 272.588L130.179 273.558L127.433 275.04V275.035Z" fill="#FAFAFA"/>
        <path d="M272.256 304.154L253.224 294.982C251.909 294.349 251.36 292.771 251.994 291.459L264.723 265.18C265.358 263.868 266.94 263.321 268.255 263.954L280.328 269.768L285.019 283.875L275.793 302.922C275.158 304.234 273.576 304.782 272.261 304.149L272.256 304.154Z" fill="#EBEBEB"/>
        <path d="M273.591 289.218C273.591 289.218 273.753 289.288 274.075 289.368C274.393 289.439 274.896 289.489 275.486 289.273C275.773 289.162 276.076 288.986 276.343 288.72C276.479 288.589 276.595 288.434 276.7 288.258C276.801 288.082 276.892 287.886 276.988 287.685C277.376 286.876 277.814 285.956 278.298 284.941C278.54 284.433 278.797 283.901 279.064 283.348C279.195 283.071 279.331 282.79 279.472 282.498C279.613 282.207 279.754 281.925 279.824 281.614C279.976 280.991 279.885 280.292 279.557 279.694C279.391 279.398 279.169 279.126 278.897 278.905C278.63 278.679 278.303 278.533 277.96 278.372C275.269 277.086 272.317 275.669 269.218 274.181C268.442 273.895 267.545 274.005 266.88 274.457C266.542 274.679 266.265 274.975 266.068 275.322C265.877 275.669 265.706 276.056 265.529 276.412C264.819 277.87 264.139 279.277 263.483 280.614C263.327 280.945 263.141 281.282 263.02 281.604C262.904 281.93 262.859 282.282 262.889 282.619C262.944 283.297 263.287 283.921 263.786 284.318C264.033 284.524 264.325 284.649 264.612 284.79C264.899 284.931 265.182 285.066 265.459 285.202C266.013 285.474 266.542 285.73 267.051 285.976C269.067 286.966 270.704 287.765 271.848 288.328C272.402 288.604 272.836 288.821 273.148 288.976C273.284 289.047 273.395 289.107 273.486 289.152C273.561 289.192 273.596 289.213 273.596 289.218C273.596 289.218 273.556 289.208 273.476 289.172C273.385 289.132 273.274 289.082 273.128 289.017C272.81 288.871 272.372 288.665 271.808 288.403C270.654 287.856 269.006 287.077 266.98 286.117C266.472 285.876 265.937 285.619 265.383 285.353C265.106 285.222 264.824 285.087 264.532 284.946C264.249 284.81 263.932 284.674 263.665 284.453C263.126 284.026 262.748 283.358 262.687 282.629C262.657 282.262 262.697 281.885 262.823 281.533C262.959 281.177 263.136 280.865 263.292 280.523C263.942 279.181 264.617 277.774 265.323 276.312C265.504 275.945 265.665 275.583 265.867 275.206C266.078 274.834 266.381 274.508 266.749 274.266C267.474 273.774 268.447 273.653 269.288 273.965C272.417 275.442 275.35 276.88 278.041 278.176C278.368 278.337 278.726 278.493 279.013 278.739C279.305 278.975 279.542 279.267 279.719 279.589C280.071 280.227 280.162 280.981 279.996 281.644C279.915 281.981 279.764 282.282 279.623 282.564C279.482 282.85 279.346 283.132 279.21 283.408C278.938 283.961 278.681 284.489 278.434 284.996C277.94 286.006 277.491 286.921 277.093 287.725C276.993 287.926 276.902 288.122 276.796 288.303C276.68 288.479 276.554 288.645 276.413 288.78C276.131 289.052 275.814 289.233 275.511 289.338C274.896 289.549 274.377 289.479 274.06 289.399C273.738 289.303 273.591 289.208 273.591 289.208V289.218Z" fill="#FAFAFA"/>
        <path d="M276.327 289.001C276.327 289.001 276.297 288.931 276.257 288.79C276.216 288.624 276.166 288.423 276.1 288.182C275.969 287.619 275.793 286.86 275.576 285.941C275.466 285.463 275.35 284.946 275.224 284.388C275.163 284.106 275.098 283.82 275.027 283.523C274.992 283.378 274.962 283.227 274.926 283.076C274.891 282.945 274.821 282.815 274.715 282.724C274.508 282.528 274.176 282.468 273.909 282.594C273.606 282.744 273.299 282.895 272.986 283.046C272.357 283.358 271.707 283.674 271.036 284.006C270.739 284.152 270.442 284.297 270.165 284.433L270.054 284.488L270.014 284.373C269.777 283.729 269.55 283.101 269.328 282.498C269.273 282.347 269.217 282.197 269.167 282.051C269.112 281.895 269.071 281.769 268.981 281.664C268.809 281.448 268.527 281.337 268.27 281.372C268.144 281.382 268.018 281.443 267.877 281.488C267.741 281.538 267.61 281.584 267.479 281.634C267.217 281.729 266.965 281.82 266.718 281.91C266.229 282.086 265.776 282.252 265.358 282.403C264.551 282.689 263.886 282.92 263.397 283.096C263.186 283.167 263.009 283.227 262.863 283.272C262.742 283.312 262.677 283.327 262.672 283.322C262.672 283.317 262.727 283.287 262.848 283.237C262.989 283.177 263.161 283.106 263.367 283.021C263.856 282.83 264.506 282.579 265.307 282.267C265.72 282.106 266.174 281.935 266.658 281.749C266.899 281.659 267.151 281.563 267.413 281.463C267.544 281.413 267.675 281.362 267.812 281.312C267.943 281.267 268.079 281.197 268.25 281.181C268.572 281.141 268.925 281.272 269.147 281.543C269.263 281.674 269.318 281.85 269.374 281.991C269.429 282.136 269.484 282.287 269.54 282.438C269.762 283.041 269.993 283.669 270.235 284.312L270.084 284.252C270.361 284.116 270.658 283.971 270.956 283.825C271.626 283.498 272.276 283.177 272.906 282.87C273.223 282.714 273.531 282.564 273.838 282.418C274.186 282.257 274.614 282.342 274.871 282.594C275.007 282.714 275.098 282.88 275.138 283.046C275.173 283.202 275.204 283.353 275.239 283.503C275.304 283.8 275.365 284.091 275.42 284.373C275.536 284.931 275.647 285.453 275.748 285.931C275.934 286.86 276.09 287.624 276.206 288.187C276.252 288.433 276.287 288.639 276.317 288.805C276.342 288.946 276.347 289.021 276.342 289.021L276.327 289.001Z" fill="#FAFAFA"/>
        <path d="M271.39 280.297C271.39 280.297 271.511 280.327 271.717 280.362C271.924 280.393 272.246 280.393 272.574 280.212C272.896 280.046 273.209 279.669 273.254 279.192C273.304 278.719 273.042 278.166 272.538 277.925C272.04 277.679 271.44 277.814 271.102 278.151C270.75 278.483 270.649 278.96 270.719 279.317C270.785 279.684 270.981 279.935 271.133 280.076C271.289 280.222 271.4 280.277 271.39 280.292C271.39 280.302 271.264 280.272 271.077 280.141C270.896 280.011 270.659 279.749 270.563 279.347C270.462 278.95 270.553 278.397 270.956 278.005C271.339 277.608 272.045 277.433 272.634 277.724C273.229 278.005 273.531 278.664 273.456 279.212C273.395 279.769 273.017 280.187 272.644 280.352C272.266 280.528 271.914 280.503 271.702 280.443C271.485 280.383 271.385 280.302 271.39 280.292V280.297Z" fill="#FAFAFA"/>
        <path d="M255.388 284.424L279.184 295.892L276.016 302.431C275.247 304.019 273.329 304.686 271.736 303.918L253.711 295.231C252.119 294.464 251.45 292.551 252.22 290.962L255.388 284.424Z" fill="#E0E0E0"/>
        <path d="M280.323 269.773L276.74 277.171C276.151 278.392 276.66 279.86 277.884 280.448L285.014 283.885L280.323 269.778V269.773Z" fill="#EBEBEB"/>
        <path d="M276.524 277.865C276.524 277.865 275.561 279.614 277.325 281.192C277.391 281.252 277.461 281.307 277.532 281.358C278.383 281.971 283.981 286.011 284.052 285.871C284.127 285.72 285.014 283.885 285.014 283.885L277.884 280.448C277.884 280.448 276.136 279.528 276.524 277.865Z" fill="#E0E0E0"/>
        <path d="M263.049 293.494L263.83 293.871L263.105 295.369C262.551 295.479 261.911 295.369 261.382 295.118C260.218 294.555 259.749 293.348 260.288 292.238C260.827 291.127 262.072 290.74 263.251 291.308C263.901 291.62 264.334 292.102 264.491 292.695L263.694 292.936C263.563 292.519 263.317 292.238 262.939 292.057C262.218 291.71 261.497 291.951 261.155 292.655C260.822 293.343 261.074 294.072 261.785 294.414C262.016 294.524 262.253 294.59 262.525 294.575L263.049 293.494Z" fill="#FAFAFA"/>
        <path d="M265.488 292.469L266.345 292.881L264.556 296.575L263.699 296.163L265.488 292.469Z" fill="#FAFAFA"/>
        <path d="M267.745 294.399L267.272 295.374L268.985 296.198L268.652 296.882L266.939 296.057L266.289 297.404L265.433 296.992L267.221 293.298L270.018 294.645L269.685 295.329L267.745 294.394V294.399Z" fill="#FAFAFA"/>
        <path d="M139.541 146.687L97.2979 156.368L105.058 190.051L147.301 180.371L139.541 146.687Z" fill="#FAFAFA"/>
        <path d="M139.542 146.686C139.542 146.686 139.471 146.706 139.34 146.741C139.199 146.777 139.003 146.822 138.751 146.882C138.227 147.008 137.456 147.189 136.458 147.42C134.452 147.887 131.525 148.566 127.816 149.43C120.399 151.144 109.858 153.581 97.3261 156.476L97.4118 156.34C99.7246 166.366 102.375 177.855 105.182 190.017L105.031 189.927C120.671 186.348 135.208 183.026 147.281 180.267L147.201 180.393C144.888 170.246 142.968 161.833 141.628 155.948C140.963 153.003 140.439 150.697 140.081 149.114C139.905 148.33 139.768 147.726 139.678 147.309C139.587 146.902 139.547 146.681 139.547 146.681C139.547 146.681 139.602 146.882 139.698 147.279C139.794 147.686 139.935 148.284 140.121 149.058C140.489 150.631 141.028 152.928 141.713 155.858C143.084 161.748 145.044 170.176 147.407 180.338L147.433 180.438L147.332 180.463C135.264 183.237 120.732 186.574 105.091 190.163L104.97 190.193L104.94 190.072C102.143 177.905 99.4979 166.412 97.1951 156.386L97.1699 156.275L97.2808 156.25C109.853 153.395 120.424 150.988 127.867 149.299C131.57 148.465 134.493 147.807 136.498 147.355C137.491 147.133 138.252 146.963 138.776 146.847C139.028 146.792 139.219 146.752 139.36 146.721C139.491 146.696 139.552 146.686 139.552 146.686H139.542Z" fill="#FFB100"/>
        <path d="M138.519 149.154L99.2412 158.155L106.024 187.597L145.301 178.596L138.519 149.154Z" fill="#FFB100" fill-opacity="0.1"/>
        <path d="M106.023 187.595L115.527 166.15L126.663 175.654L131.016 168.211L145.301 178.594L106.023 187.595Z" fill="#FFB100"/>
        <path d="M127.116 161.135C127.509 162.838 126.441 164.537 124.732 164.929C123.024 165.321 121.321 164.255 120.928 162.552C120.535 160.848 121.603 159.149 123.311 158.757C125.02 158.365 126.723 159.431 127.116 161.135Z" fill="#E0E0E0"/>
        <path d="M184.325 117.006L118.887 119.719L121.061 171.9L186.5 169.187L184.325 117.006Z" fill="#FAFAFA"/>
        <path d="M184.322 117C184.322 117 184.211 117.01 184.005 117.025C183.788 117.035 183.486 117.05 183.088 117.075C182.271 117.116 181.082 117.171 179.535 117.241C176.426 117.382 171.891 117.583 166.142 117.844C154.648 118.342 138.312 119.05 118.893 119.89L119.054 119.714C119.709 135.243 120.455 153.049 121.251 171.885L121.054 171.709C145.281 170.714 167.795 169.794 186.494 169.025L186.343 169.191C185.723 153.476 185.204 140.455 184.846 131.343C184.675 126.785 184.539 123.212 184.448 120.764C184.408 119.548 184.373 118.613 184.348 117.975C184.327 117.342 184.322 117.005 184.322 117.005C184.322 117.005 184.348 117.317 184.378 117.94C184.408 118.573 184.453 119.498 184.509 120.699C184.62 123.136 184.781 126.699 184.987 131.238C185.386 140.369 185.96 153.426 186.65 169.176V169.332L186.499 169.337C167.8 170.121 145.286 171.066 121.059 172.086L120.868 172.096L120.858 171.905C120.082 153.059 119.346 135.258 118.701 119.724V119.553L118.862 119.548C138.328 118.774 154.704 118.126 166.228 117.668C171.962 117.447 176.487 117.276 179.591 117.161C181.123 117.106 182.307 117.065 183.113 117.035C183.501 117.025 183.803 117.015 184.015 117.01C184.216 117.005 184.312 117.01 184.312 117.01L184.322 117Z" fill="#EF8A17" fill-opacity="0.3"/>
        <path d="M182.121 120.382L121.279 122.904L123.18 168.513L184.022 165.99L182.121 120.382Z" fill="#EF8A17" fill-opacity="0.3"/>
        <path d="M123.181 168.518L143.245 139.284L157.153 156.476L165.683 146.621L184.02 165.995L123.181 168.518Z" fill="#EF8A17" fill-opacity="0.8"/>
        <path d="M161.854 135.032C161.965 137.67 159.909 139.897 157.263 140.007C154.618 140.118 152.386 138.067 152.275 135.429C152.164 132.79 154.22 130.564 156.865 130.453C159.511 130.343 161.743 132.393 161.854 135.032Z" fill="#EF8A17" fill-opacity="0.3"/>
        <path d="M168.783 203.607L158.513 174.654C157.818 173.528 157.576 171.478 158.267 170.407C158.614 169.87 159.108 169.463 159.718 169.257L176.149 163.794C177.142 163.427 178.266 163.703 179.037 164.502L182.246 167.824L203.752 160.693C206.529 159.497 209.063 161.15 209.547 163.291L217.584 188.113C218.264 191.138 216.44 194.194 213.946 195.023L175.963 207.657C173.353 208.527 170.385 206.969 168.798 203.607H168.783Z" fill="#F9FBB2" fill-opacity="0.71"/>
        <g opacity="0.3">
            <path d="M168.783 203.607L158.513 174.654C157.818 173.528 157.576 171.478 158.267 170.407C158.614 169.87 159.108 169.463 159.718 169.257L176.149 163.794C177.142 163.427 178.266 163.703 179.037 164.502L182.246 167.824L203.752 160.693C206.529 159.497 209.063 161.15 209.547 163.291L217.584 188.113C218.264 191.138 216.44 194.194 213.946 195.023L175.963 207.657C173.353 208.527 170.385 206.969 168.798 203.607H168.783Z" fill="black"/>
        </g>
        <path d="M168.209 203.32L159.844 178.956C159.421 176.951 160.222 175.096 161.729 174.594L204.806 160.266C206.63 159.658 208.731 161.251 209.3 163.668L217.181 186.158C219.066 191.796 216.622 194.48 214.047 195.339L176.296 207.893C172.416 209.185 169.635 208.235 168.209 203.32Z" fill="#F9FBB2" fill-opacity="0.71"/>
        <path d="M199.459 189.264C199.459 189.264 199.661 189.188 200.008 188.987C200.346 188.776 200.835 188.389 201.162 187.701C201.324 187.359 201.434 186.942 201.44 186.484C201.445 186.253 201.414 186.017 201.364 185.776C201.303 185.54 201.213 185.288 201.122 185.027C200.769 183.987 200.366 182.806 199.923 181.504C199.701 180.851 199.469 180.167 199.227 179.454C199.107 179.097 198.986 178.735 198.86 178.363C198.734 177.986 198.618 177.619 198.411 177.288C198.013 176.614 197.333 176.076 196.532 175.835C196.134 175.715 195.705 175.669 195.277 175.705C194.849 175.735 194.435 175.885 193.997 176.036C190.535 177.197 186.731 178.469 182.74 179.81C181.813 180.218 181.123 181.082 180.921 182.047C180.815 182.524 180.826 183.027 180.946 183.494C181.077 183.962 181.259 184.444 181.405 184.911C182.03 186.796 182.634 188.61 183.214 190.339C183.365 190.761 183.486 191.219 183.652 191.601C183.829 191.988 184.091 192.329 184.403 192.601C185.033 193.148 185.869 193.4 186.645 193.324C187.038 193.294 187.401 193.158 187.779 193.033C188.152 192.912 188.515 192.792 188.878 192.671C189.593 192.435 190.283 192.209 190.939 191.993C193.554 191.143 195.675 190.45 197.162 189.967C197.882 189.736 198.451 189.56 198.86 189.429C199.041 189.374 199.187 189.329 199.303 189.299C199.404 189.269 199.454 189.259 199.459 189.264C199.459 189.264 199.414 189.289 199.313 189.329C199.202 189.369 199.056 189.424 198.88 189.49C198.477 189.631 197.917 189.827 197.202 190.078C195.72 190.58 193.609 191.299 191.004 192.184C190.349 192.405 189.664 192.636 188.948 192.877C188.59 192.998 188.228 193.118 187.855 193.244C187.487 193.365 187.099 193.515 186.676 193.55C185.839 193.636 184.937 193.37 184.252 192.782C183.909 192.49 183.627 192.118 183.431 191.701C183.244 191.269 183.133 190.852 182.977 190.415C182.398 188.686 181.788 186.871 181.153 184.992C180.997 184.514 180.826 184.062 180.684 183.555C180.548 183.047 180.538 182.504 180.654 181.982C180.866 180.936 181.617 179.996 182.624 179.554C186.64 178.182 190.44 176.951 193.911 175.795C194.34 175.654 194.783 175.493 195.247 175.458C195.705 175.418 196.164 175.468 196.592 175.604C197.449 175.865 198.174 176.448 198.593 177.172C198.809 177.534 198.935 177.931 199.056 178.298C199.177 178.67 199.298 179.031 199.419 179.393C199.656 180.107 199.882 180.795 200.099 181.449C200.527 182.755 200.915 183.942 201.258 184.987C201.344 185.248 201.429 185.494 201.49 185.751C201.54 186.007 201.571 186.258 201.56 186.495C201.545 186.972 201.424 187.404 201.248 187.756C200.89 188.465 200.376 188.847 200.029 189.043C199.666 189.233 199.449 189.274 199.449 189.274L199.459 189.264Z" fill="#3F4102"/>
        <path d="M201.681 186.741C201.681 186.741 201.595 186.706 201.444 186.615C201.268 186.505 201.051 186.374 200.789 186.213C200.19 185.831 199.388 185.319 198.406 184.691C197.902 184.364 197.353 184.007 196.768 183.63C196.476 183.439 196.169 183.238 195.856 183.037C195.7 182.937 195.544 182.836 195.383 182.731C195.236 182.645 195.065 182.595 194.894 182.605C194.546 182.61 194.203 182.836 194.072 183.178C193.936 183.565 193.795 183.962 193.654 184.364C193.367 185.173 193.07 186.007 192.767 186.867C192.631 187.249 192.495 187.631 192.369 187.987L192.319 188.128L192.183 188.063C191.422 187.701 190.686 187.344 189.976 187.002C189.799 186.917 189.623 186.831 189.447 186.746C189.265 186.661 189.119 186.58 188.948 186.565C188.615 186.52 188.273 186.666 188.071 186.912C187.97 187.027 187.91 187.188 187.824 187.349C187.749 187.505 187.673 187.661 187.598 187.816C187.451 188.123 187.305 188.42 187.169 188.706C186.892 189.274 186.635 189.807 186.398 190.294C185.935 191.234 185.552 191.998 185.27 192.571C185.144 192.812 185.038 193.013 184.952 193.179C184.877 193.314 184.836 193.385 184.826 193.385C184.816 193.385 184.846 193.304 184.907 193.159C184.982 192.988 185.073 192.777 185.179 192.525C185.441 191.943 185.799 191.164 186.232 190.214C186.459 189.721 186.711 189.183 186.973 188.611C187.109 188.324 187.245 188.023 187.391 187.716C187.461 187.56 187.537 187.404 187.608 187.249C187.683 187.098 187.744 186.917 187.88 186.756C188.127 186.444 188.555 186.259 188.973 186.309C189.185 186.324 189.386 186.429 189.553 186.51C189.729 186.59 189.905 186.676 190.082 186.761C190.797 187.098 191.533 187.45 192.294 187.811L192.107 187.887C192.233 187.53 192.369 187.153 192.505 186.766C192.813 185.912 193.11 185.078 193.397 184.268C193.543 183.866 193.684 183.464 193.826 183.077C193.992 182.64 194.44 182.349 194.884 182.349C195.105 182.339 195.322 182.409 195.509 182.514C195.67 182.62 195.831 182.726 195.987 182.831C196.3 183.037 196.597 183.238 196.889 183.434C197.469 183.826 198.013 184.188 198.507 184.525C199.469 185.178 200.255 185.716 200.84 186.118C201.092 186.294 201.298 186.444 201.464 186.56C201.606 186.666 201.676 186.721 201.671 186.731L201.681 186.741Z" fill="#3F4102"/>
        <path d="M189.89 183.313C189.89 183.313 190.021 183.238 190.233 183.087C190.439 182.937 190.722 182.66 190.858 182.228C190.999 181.806 190.953 181.213 190.575 180.755C190.218 180.298 189.512 180.032 188.867 180.253C188.217 180.464 187.809 181.092 187.799 181.675C187.774 182.268 188.096 182.771 188.464 183.022C188.832 183.288 189.225 183.344 189.482 183.334C189.744 183.329 189.885 183.283 189.895 183.308C189.9 183.318 189.769 183.399 189.492 183.439C189.225 183.479 188.792 183.454 188.358 183.178C187.93 182.916 187.537 182.354 187.552 181.665C187.552 180.987 188.021 180.238 188.787 179.986C189.548 179.725 190.379 180.047 190.782 180.59C191.205 181.132 191.231 181.816 191.049 182.283C190.873 182.761 190.54 183.037 190.298 183.168C190.056 183.298 189.9 183.313 189.895 183.303L189.89 183.313Z" fill="#3F4102"/>
        <path d="M130.482 308.084L111.636 228.634C110.85 225.307 111.914 221.724 114.519 219.658C115.824 218.623 117.396 218.025 119.069 218.025L171.231 216.382C173.992 216.296 176.552 217.889 177.797 220.473L182.997 231.237L249.243 231.303C254.105 231.303 259.215 238.037 258.64 243.686L264.294 309.888C263.478 317.869 256.413 323.875 249.54 323.875H144.893C137.702 323.875 131.631 317.623 130.482 308.084Z" fill="#A9D8B8"/>
        <g opacity="0.3">
            <path d="M130.482 308.084L111.636 228.634C110.85 225.307 111.914 221.724 114.519 219.658C115.824 218.623 117.396 218.025 119.069 218.025L171.231 216.382C173.992 216.296 176.552 217.889 177.797 220.473L182.997 231.237L249.243 231.303C254.105 231.303 259.215 238.037 258.64 243.686L264.294 309.888C263.478 317.869 256.413 323.875 249.54 323.875H144.893C137.702 323.875 131.631 317.623 130.482 308.084Z" fill="black"/>
        </g>
        <path d="M131.384 310.396L126.396 222.377L249.948 220.513L254.277 308.722L131.384 310.396Z" fill="#E0E0E0"/>
        <path d="M130.82 225.986C130.82 226.478 130.452 226.875 129.993 226.875C129.535 226.875 129.167 226.478 129.167 225.986C129.167 225.493 129.535 225.096 129.993 225.096C130.452 225.096 130.82 225.493 130.82 225.986Z" fill="#EBEBEB"/>
        <path d="M134.025 225.986C134.025 226.478 133.657 226.875 133.198 226.875C132.74 226.875 132.372 226.478 132.372 225.986C132.372 225.493 132.74 225.096 133.198 225.096C133.657 225.096 134.025 225.493 134.025 225.986Z" fill="#EBEBEB"/>
        <path d="M137.229 225.986C137.229 226.478 136.861 226.875 136.403 226.875C135.944 226.875 135.576 226.478 135.576 225.986C135.576 225.493 135.944 225.096 136.403 225.096C136.861 225.096 137.229 225.493 137.229 225.986Z" fill="#EBEBEB"/>
        <path d="M175.106 225.986L182.559 270.161L123.921 278.946L116.469 234.771L175.106 225.986Z" fill="#EBEBEB"/>
        <path d="M175.106 225.986C175.106 225.986 175.01 226.006 174.823 226.036C174.632 226.066 174.36 226.111 174.002 226.167C173.271 226.282 172.203 226.448 170.818 226.659C168.031 227.086 163.97 227.709 158.82 228.493C148.526 230.051 133.888 232.273 116.494 234.906L116.62 234.74C118.842 247.887 121.391 262.959 124.087 278.91L123.891 278.78C145.603 275.538 165.779 272.523 182.533 270.02L182.412 270.176C180.2 256.868 178.361 245.842 177.081 238.128C176.446 234.268 175.947 231.242 175.604 229.167C175.438 228.137 175.312 227.348 175.222 226.8C175.136 226.262 175.101 225.976 175.101 225.976C175.101 225.976 175.156 226.237 175.252 226.765C175.347 227.302 175.484 228.081 175.66 229.102C176.018 231.167 176.537 234.177 177.202 238.022C178.522 245.751 180.412 256.803 182.694 270.136L182.719 270.271L182.578 270.291C165.824 272.809 145.653 275.84 123.946 279.101L123.775 279.126L123.75 278.966C121.064 263.009 118.529 247.938 116.317 234.791L116.292 234.645L116.443 234.625C133.893 232.042 148.566 229.865 158.896 228.338C164.035 227.584 168.092 226.991 170.873 226.584C172.249 226.388 173.307 226.232 174.032 226.126C174.38 226.076 174.647 226.041 174.839 226.016C175.02 225.991 175.106 225.986 175.106 225.986Z" fill="#A9D8B8"/>
        <path d="M125.473 275.86L179.994 267.693L173.479 229.082L118.958 237.248L125.473 275.86Z" fill="#A9D8B8"/>
        <g opacity="0.3">
            <path d="M125.473 275.86L140.463 249.008L154.794 262.255L161.44 253.028L179.993 267.693L125.473 275.86Z" fill="black"/>
        </g>
        <g opacity="0.3">
            <path d="M156.775 243.55C157.153 245.787 155.535 247.882 153.167 248.239C150.799 248.596 148.566 247.073 148.193 244.837C147.816 242.601 149.433 240.505 151.801 240.148C154.17 239.791 156.402 241.314 156.775 243.55Z" fill="black"/>
        </g>
        <path d="M134.946 314.572L133.278 228.926L259.643 228.659L259.124 313.296L134.946 314.572Z" fill="#EBEBEB"/>
        <path d="M140.605 232.283C140.605 232.775 140.237 233.172 139.779 233.172C139.32 233.172 138.952 232.775 138.952 232.283C138.952 231.79 139.32 231.393 139.779 231.393C140.237 231.393 140.605 231.79 140.605 232.283Z" fill="#E0E0E0"/>
        <path d="M143.563 232.283C143.563 232.775 143.195 233.172 142.737 233.172C142.278 233.172 141.91 232.775 141.91 232.283C141.91 231.79 142.278 231.393 142.737 231.393C143.195 231.393 143.563 231.79 143.563 232.283Z" fill="#E0E0E0"/>
        <path d="M137.455 232.283C137.455 232.775 137.088 233.172 136.629 233.172C136.171 233.172 135.803 232.775 135.803 232.283C135.803 231.79 136.171 231.393 136.629 231.393C137.088 231.393 137.455 231.79 137.455 232.283Z" fill="#E0E0E0"/>
        <path d="M137.884 316.658V235.228L263.729 234.966L256.972 318.412L137.884 316.658Z" fill="#FAFAFA"/>
        <path d="M131.761 307.647L139.29 246.46C139.879 241.675 143.295 238.132 147.316 238.132H262.258C267.12 238.132 270.895 243.243 270.315 249.048L264.294 309.501C262.53 322.075 257.693 323.874 250.82 323.874H143.406C136.216 323.874 129.262 322.075 131.761 307.652V307.647Z" fill="#A9D8B8"/>
        <g opacity="0.7">
            <path d="M208.403 270.452L211.714 277.137C211.981 277.679 212.5 278.056 213.099 278.142L220.496 279.212C222.008 279.433 222.613 281.283 221.519 282.348L216.168 287.55C215.735 287.972 215.533 288.58 215.639 289.178L216.904 296.525C217.161 298.028 215.584 299.174 214.228 298.465L207.612 294.998C207.073 294.716 206.433 294.716 205.899 294.998L199.283 298.465C197.932 299.174 196.35 298.028 196.607 296.525L197.872 289.178C197.973 288.58 197.776 287.972 197.343 287.55L191.992 282.348C190.898 281.283 191.503 279.433 193.014 279.212L200.412 278.142C201.011 278.056 201.53 277.679 201.797 277.137L205.108 270.452C205.783 269.086 207.738 269.086 208.413 270.452H208.403Z" fill="white"/>
        </g>
        <path d="M101.957 323.869C101.957 323.799 149.201 323.739 207.471 323.739C265.74 323.739 312.995 323.799 312.995 323.869C312.995 323.94 265.76 324 207.471 324C149.181 324 101.957 323.94 101.957 323.869Z" fill="#263238"/>
        <path d="M230.563 177.899L218.938 227.104L280.646 241.607L292.272 192.402L230.563 177.899Z" fill="#FAFAFA"/>
        <path d="M292.28 192.404C292.28 192.404 292.174 192.384 291.978 192.344C291.771 192.299 291.484 192.233 291.111 192.148C290.34 191.972 289.217 191.716 287.755 191.379C284.818 190.701 280.54 189.711 275.113 188.454C264.269 185.926 248.855 182.333 230.534 178.061L230.73 177.941C227.274 192.585 223.313 209.376 219.126 227.146L218.99 226.93C241.831 232.313 263.06 237.313 280.691 241.464L280.509 241.58C284.042 226.77 286.969 214.497 289.02 205.913C290.053 201.621 290.859 198.254 291.413 195.947C291.691 194.802 291.907 193.922 292.053 193.319C292.2 192.721 292.285 192.409 292.285 192.409C292.285 192.409 292.225 192.706 292.094 193.294C291.958 193.892 291.756 194.766 291.494 195.902C290.96 198.204 290.179 201.566 289.181 205.853C287.166 214.467 284.283 226.79 280.802 241.65L280.766 241.801L280.615 241.766C262.979 237.63 241.745 232.649 218.899 227.292L218.718 227.252L218.758 227.071C222.96 209.3 226.936 192.515 230.403 177.87L230.443 177.709L230.604 177.75C248.951 182.097 264.39 185.755 275.249 188.329C280.65 189.615 284.913 190.635 287.836 191.334C289.282 191.681 290.391 191.952 291.151 192.133C291.519 192.223 291.796 192.294 291.998 192.344C292.184 192.389 292.275 192.419 292.275 192.419L292.28 192.404Z" fill="#2D452E"/>
        <path d="M231.96 181.496L221.798 224.508L279.171 237.993L289.334 194.981L231.96 181.496Z" fill="#C6C013" fill-opacity="0.59"/>
        <path d="M221.802 224.508L248.16 202.481L256.62 222.126L267.152 215.166L279.179 237.992L221.802 224.508Z" fill="#C6C013" fill-opacity="0.59"/>
        <path d="M266.617 203.365C266.028 205.853 263.528 207.396 261.034 206.808C258.54 206.22 256.993 203.727 257.582 201.239C258.172 198.752 260.671 197.209 263.165 197.797C265.66 198.385 267.207 200.878 266.617 203.365Z" fill="#C6C013" fill-opacity="0.59"/>
        <g opacity="0.3">
            <path d="M221.802 224.508L248.16 202.481L256.62 222.126L267.152 215.166L279.179 237.992L221.802 224.508Z" fill="#A49F28"/>
        </g>
        <g opacity="0.3">
            <path d="M266.617 203.365C266.028 205.853 263.528 207.396 261.034 206.808C258.54 206.22 256.993 203.727 257.582 201.239C258.172 198.752 260.671 197.209 263.165 197.797C265.66 198.385 267.207 200.878 266.617 203.365Z" fill="#A49F28"/>
        </g>
        <path d="M110.886 294.178C112.292 294.691 113.37 295.897 113.959 297.269C114.544 298.641 114.68 300.168 114.599 301.656C114.438 304.536 112.977 307.521 111.354 309.908C108.815 307.943 108.044 304.305 107.772 302.435C107.338 299.48 108.356 293.876 110.886 294.173" fill="#96BE8C"/>
        <path d="M114.433 314.471C113.955 312.878 114.524 311.064 115.703 309.883C116.882 308.707 118.595 308.134 120.268 308.164C121.039 308.179 121.886 308.355 122.359 308.958C122.803 309.526 122.808 310.35 122.511 311.009C122.213 311.667 121.664 312.175 121.075 312.592C119.059 314.024 116.842 315.039 114.433 314.466" fill="#96BE8C"/>
        <path d="M111.848 323.432C111.848 323.432 111.853 323.221 111.898 322.839C111.949 322.422 112.019 321.879 112.1 321.231C112.291 319.889 112.523 317.964 113.45 316.06C114.362 314.16 115.713 312.718 116.877 311.974C117.456 311.592 117.965 311.361 118.328 311.23C118.504 311.16 118.655 311.125 118.751 311.094C118.847 311.069 118.902 311.059 118.902 311.064C118.922 311.109 118.076 311.311 116.957 312.095C115.834 312.853 114.534 314.276 113.632 316.145C112.72 318.015 112.468 319.909 112.241 321.251C112.135 321.925 112.044 322.472 111.974 322.849C111.903 323.226 111.853 323.432 111.843 323.427L111.848 323.432Z" fill="#263238"/>
        <path d="M110.487 298.515C110.487 298.515 110.507 298.601 110.533 298.771C110.553 298.962 110.583 299.204 110.618 299.505C110.689 300.143 110.78 301.068 110.885 302.214C111.092 304.506 111.334 307.672 111.525 311.175C111.712 314.678 111.813 317.854 111.853 320.15C111.873 321.301 111.883 322.231 111.878 322.874C111.878 323.176 111.873 323.422 111.873 323.613C111.873 323.784 111.863 323.869 111.858 323.869C111.853 323.869 111.843 323.779 111.833 323.613C111.823 323.422 111.813 323.176 111.802 322.874C111.782 322.206 111.747 321.281 111.712 320.155C111.636 317.859 111.515 314.688 111.324 311.185C111.137 307.687 110.916 304.521 110.744 302.229C110.659 301.103 110.593 300.184 110.543 299.515C110.523 299.214 110.507 298.967 110.497 298.776C110.487 298.606 110.487 298.52 110.497 298.515H110.487Z" fill="#263238"/>
        <path d="M110.357 316.456C109.606 313.024 107.081 310.029 103.826 308.697C102.995 308.36 101.927 308.169 101.297 308.802C100.667 309.441 100.879 310.511 101.251 311.325C102.808 314.718 106.583 316.954 110.311 316.693" fill="#96BE8C"/>
        <path d="M104.37 311.391C104.37 311.391 104.562 311.446 104.894 311.582C105.06 311.647 105.267 311.732 105.494 311.858C105.721 311.979 105.988 312.099 106.26 312.275C106.532 312.446 106.839 312.627 107.141 312.858C107.454 313.074 107.766 313.341 108.089 313.622C108.719 314.2 109.364 314.893 109.923 315.713C110.477 316.532 110.89 317.381 111.193 318.185C111.334 318.592 111.465 318.974 111.545 319.346C111.646 319.713 111.702 320.065 111.752 320.381C111.818 320.698 111.818 320.995 111.843 321.246C111.868 321.502 111.868 321.723 111.863 321.904C111.858 322.266 111.848 322.462 111.833 322.462C111.787 322.462 111.823 321.663 111.606 320.407C111.545 320.095 111.485 319.748 111.379 319.391C111.294 319.025 111.157 318.653 111.016 318.256C110.709 317.472 110.296 316.642 109.752 315.833C109.202 315.034 108.573 314.346 107.963 313.768C107.65 313.486 107.348 313.22 107.046 313.004C106.754 312.768 106.456 312.582 106.189 312.406C105.106 311.722 104.36 311.436 104.38 311.396L104.37 311.391Z" fill="#263238"/>
    </g>
    <g filter="url(#filter1_f_0_1)">
        <rect x="-26" y="593" width="204" height="201" rx="100.5" fill="#FFEFCB" fill-opacity="0.49"/>
    </g>
    <defs>
        <filter id="filter0_f_0_1" x="-48" y="7" width="471" height="441" filterUnits="userSpaceOnUse" color-interpolation-filters="sRGB">
            <feFlood flood-opacity="0" result="BackgroundImageFix"/>
            <feBlend mode="normal" in="SourceGraphic" in2="BackgroundImageFix" result="shape"/>
            <feGaussianBlur stdDeviation="50" result="effect1_foregroundBlur_0_1"/>
        </filter>
        <filter id="filter1_f_0_1" x="-130" y="489" width="412" height="409" filterUnits="userSpaceOnUse" color-interpolation-filters="sRGB">
            <feFlood flood-opacity="0" result="BackgroundImageFix"/>
            <feBlend mode="normal" in="SourceGraphic" in2="BackgroundImageFix" result="shape"/>
            <feGaussianBlur stdDeviation="52" result="effect1_foregroundBlur_0_1"/>
        </filter>
        <clipPath id="clip0_0_1">
            <rect x="90" y="117" width="223" height="207" rx="34" fill="white"/>
        </clipPath>
    </defs>
</svg>
