<svg width="36" height="36" viewBox="0 0 36 36" fill="none" xmlns="http://www.w3.org/2000/svg">
    <path d="M15.8544 14.5866C15.6563 14.4979 14.833 14.1135 13.7697 13.316L13.7687 13.3152C13.4387 13.0634 13.1405 12.9203 12.9145 12.8566C12.8011 12.8247 12.7107 12.8141 12.6461 12.8168C12.5975 12.8189 12.5743 12.8279 12.5656 12.8322C12.5649 12.8361 12.5641 12.8424 12.5641 12.852C12.5641 12.8829 12.5727 12.9331 12.6003 13.005C12.6553 13.1484 12.7749 13.3502 12.9853 13.6044L12.9899 13.6099L12.9897 13.61L13.2057 13.898L13.375 14.1237L13.0932 14.1378L12.7332 14.1558L12.7257 14.1562V14.156H12.7077C12.607 14.156 12.4736 14.125 12.3238 14.0795C12.1696 14.0327 11.9823 13.9653 11.7674 13.8828C11.4504 13.761 11.0666 13.6033 10.6311 13.4245C10.4767 13.3611 10.3158 13.295 10.149 13.2269L10.1459 13.2256L10.1459 13.2256C9.97252 13.1502 9.80833 13.0747 9.66539 13.009C9.63625 12.9956 9.608 12.9826 9.58073 12.9701C9.41583 12.8945 9.29382 12.8401 9.22229 12.8163L9.22126 12.816C8.16859 12.4565 7.27933 12.7411 6.63654 13.1328C6.00567 13.5173 5.62142 14.0002 5.57361 14.0602L15.8544 14.5866ZM15.8544 14.5866C16.289 14.9052 16.4716 15.4956 16.2897 16.1242C16.1394 16.6416 15.6607 17.2411 14.8841 17.258H14.7417H14.6246L14.5962 17.3716L14.5616 17.5099L14.5606 17.5133L14.5567 17.5264L14.5457 17.5653C14.5365 17.598 14.5231 17.6447 14.5052 17.7035C14.4693 17.8213 14.4155 17.988 14.3415 18.1871C14.1933 18.586 13.9651 19.1129 13.64 19.6375C12.9872 20.6907 11.9649 21.704 10.4397 21.704C8.93224 21.704 7.93255 20.7128 7.2982 19.6828C6.98217 19.1697 6.76178 18.6542 6.61922 18.2639C6.54803 18.069 6.49645 17.9058 6.46217 17.7906C6.44504 17.733 6.43221 17.6872 6.42335 17.6552L6.41279 17.617L6.40904 17.6039L6.40669 17.5963L6.40666 17.5963L6.37196 17.4748L6.35756 17.4244L6.31491 17.3939L6.18891 17.3039L6.15761 17.2816L6.1194 17.277C5.65828 17.2223 5.30119 16.8805 5.06078 16.4105C4.82103 15.9417 4.714 15.3742 4.7395 14.9326L4.73961 14.93C4.7481 14.7176 4.79053 14.528 4.86442 14.3969C4.93501 14.2716 5.02608 14.21 5.14773 14.21H5.21973C5.26665 14.21 5.32761 14.2043 5.38865 14.185C5.44832 14.1662 5.51998 14.1305 5.57216 14.0621L15.8544 14.5866ZM15.4378 12.1776C15.598 12.8095 15.652 13.3888 15.6668 13.7785C15.3084 13.5899 14.7701 13.2691 14.1481 12.8063C13.7497 12.5007 13.3437 12.2954 12.9843 12.2128C12.6295 12.1313 12.2859 12.1637 12.0617 12.3879L12.0614 12.3877L12.0548 12.3952C11.9741 12.4875 11.8884 12.6324 11.8828 12.8456C11.8794 12.9739 11.9052 13.1205 11.9714 13.2888C11.5938 13.1486 11.1475 12.9679 10.7641 12.8127C10.6287 12.7579 10.5013 12.7063 10.3874 12.6607C10.2843 12.6195 10.186 12.5797 10.0934 12.5423C9.79165 12.4204 9.55159 12.3234 9.4066 12.2795C7.6011 11.6365 6.17413 12.5301 5.4913 13.1461C5.54676 12.3601 5.80343 11.044 6.80549 9.96824L6.80572 9.96799C7.68769 9.01684 8.99272 8.522 10.7097 8.522C12.2263 8.522 13.407 8.97946 14.2365 9.86081L14.2369 9.86124C14.8792 10.5383 15.2391 11.3936 15.4378 12.1776ZM16.9363 16.3205L16.9364 16.3205L16.9376 16.3165C17.1786 15.5007 16.9732 14.6699 16.3875 14.154C16.3937 13.8294 16.379 13.109 16.1909 12.2656C15.9872 11.3524 15.5778 10.2847 14.7612 9.42142C13.7908 8.37671 12.4334 7.862 10.7457 7.862C8.86229 7.862 7.3773 8.41143 6.35147 9.5303C4.98286 11.0045 4.84689 12.9847 4.85182 13.7188C4.4148 13.8974 4.16942 14.4029 4.13417 15.0378C4.07802 15.5609 4.18244 16.2223 4.46456 16.7866C4.73531 17.3281 5.17941 17.797 5.82001 17.9499C5.94603 18.3844 6.28969 19.4131 6.96008 20.3654C7.68206 21.3908 8.7975 22.346 10.4397 22.346C12.0823 22.346 13.2155 21.3769 13.9571 20.3368C14.6432 19.3746 15.0075 18.3345 15.145 17.8878C15.9752 17.7726 16.6608 17.1653 16.9363 16.3205Z" fill="#A1A1A1" stroke="#A1A1A1" stroke-width="0.3"/>
    <mask id="path-2-outside-1_59_267" maskUnits="userSpaceOnUse" x="-0.370117" y="6.436" width="37" height="27" fill="black">
        <rect fill="white" x="-0.370117" y="6.436" width="37" height="27"/>
        <path d="M34.1279 25.868C35.0099 23.168 33.1199 21.548 32.6699 21.224C32.7239 20.72 32.8139 18.632 30.9239 16.922C31.6439 16.166 31.9499 13.988 31.3019 11.864C30.7979 10.208 29.3219 7.436 25.1999 7.436C23.2199 7.436 21.6899 8.048 20.6639 9.254C18.8639 11.36 19.1879 14.564 19.2779 15.212C19.1159 15.356 18.7559 15.68 18.4499 16.238C18.0899 16.886 17.7479 17.984 18.1439 19.514C16.6679 20.666 15.9839 22.034 16.1279 23.6C15.1019 23.114 14.2739 22.898 14.1839 22.88L14.1299 22.79L13.7519 22.142L13.5359 21.782L13.2119 21.998C12.7259 22.412 12.1859 22.718 11.6459 22.898H11.4119H9.73788H9.50388C8.96388 22.718 8.42388 22.412 7.93788 21.998L7.61388 21.746L7.39788 22.124L7.01988 22.772L6.98388 22.826C6.04788 23.096 0.629883 24.896 0.629883 29.162C0.629883 29.27 0.701883 29.342 0.809883 29.342C0.917883 29.342 0.989883 29.27 0.989883 29.162C0.989883 25.22 6.01188 23.492 7.03788 23.186C7.25388 23.564 8.09988 24.95 8.96388 25.076L9.26988 25.13L9.35988 24.824L9.52188 24.284C9.57588 24.41 9.64788 24.536 9.73788 24.644L9.17988 30.242L9.16188 30.368L9.23388 30.476L10.2599 32.096L10.5659 32.582L10.8719 32.078L11.8439 30.458L11.8979 30.35L11.8799 30.224L11.3579 24.626C11.4479 24.518 11.5199 24.392 11.5739 24.266L11.7359 24.806L11.8259 25.112L12.1319 25.058C12.9599 24.932 13.8059 23.6 14.0399 23.186C14.3099 23.258 20.1419 24.86 20.1419 29.144C20.1419 29.252 20.2139 29.324 20.3219 29.324C20.4299 29.324 20.5019 29.252 20.5019 29.144C20.5019 26.84 18.9539 25.292 17.3879 24.284C17.8019 24.158 18.2339 24.05 18.6479 23.942C19.5839 23.708 20.4479 23.474 21.1679 23.06C21.3479 23.384 22.6799 25.67 23.9399 25.868L24.2459 25.922L24.3359 25.616L24.9839 23.456L25.0199 23.348L25.0559 23.456L25.7039 25.616L25.7939 25.922L26.0999 25.868C27.2519 25.688 28.4939 23.726 28.8179 23.168C28.8359 23.168 28.8539 23.186 28.8719 23.186C28.9259 23.204 34.9919 24.77 34.9919 29.144C34.9919 29.252 35.0639 29.324 35.1719 29.324C35.2799 29.324 35.3519 29.252 35.3519 29.144C35.3879 27.83 34.8659 26.75 34.1279 25.868ZM9.34188 23.582L8.99988 24.734C8.29788 24.626 7.46988 23.24 7.32588 23.006C7.32588 22.988 7.32588 22.952 7.32588 22.934L7.68588 22.322C8.18988 22.754 8.74788 22.97 9.35988 23.15C9.34188 23.24 9.34188 23.42 9.34188 23.51C9.32388 23.528 9.34188 23.546 9.34188 23.582ZM11.0159 24.518L11.5559 30.26L10.5839 31.88L9.55788 30.26L10.0979 24.518C9.88188 24.32 9.73788 23.996 9.71988 23.618L9.79188 23.312L9.82788 23.24H11.3219L11.3579 23.312L11.4299 23.582C11.3759 23.96 11.2319 24.32 11.0159 24.518ZM12.1139 24.734L11.7719 23.582C11.7719 23.564 11.7719 23.546 11.7719 23.51C11.7719 23.42 11.7719 23.348 11.7539 23.258C12.3479 23.078 12.9059 22.754 13.4279 22.322L13.8059 22.97C13.8059 22.97 12.8699 24.608 12.1139 24.734ZM24.0299 25.526C22.8959 25.346 21.5099 22.898 21.5099 22.898L22.0859 21.926C22.8779 22.592 23.7599 23.096 24.6959 23.366L24.0299 25.526ZM26.0999 25.526L25.4519 23.366C26.3879 23.096 27.2699 22.61 28.0619 21.926L28.6379 22.898C28.6199 22.88 27.2339 25.346 26.0999 25.526ZM33.8399 25.562C32.0579 23.726 29.3219 22.952 29.0159 22.862L28.9259 22.7L28.3499 21.728L28.1339 21.368L27.8099 21.638C27.0359 22.286 26.2079 22.754 25.3439 23.006L25.0739 23.078L24.8039 23.006C23.9399 22.754 23.1119 22.286 22.3379 21.638L22.0139 21.368L21.7979 21.728L21.2219 22.7C21.1859 22.7 21.1499 22.7 21.1139 22.718C20.4299 23.132 19.5479 23.366 18.6119 23.6C18.0899 23.726 17.5499 23.87 17.0459 24.05C16.8659 23.942 16.6859 23.852 16.5239 23.762C16.3079 22.178 16.9559 20.864 18.4859 19.712L18.5399 19.64L18.5039 19.514C17.7479 16.706 19.4939 15.464 19.5659 15.41L19.6559 15.338L19.6379 15.23C19.6379 15.194 19.0799 11.63 20.9339 9.452C21.8879 8.336 23.3279 7.76 25.1999 7.76C29.1059 7.76 30.4919 10.388 30.9599 11.936C31.5899 14.006 31.2479 16.256 30.5459 16.742L30.3479 16.868L30.5279 17.03C32.6519 18.848 32.2919 21.224 32.2919 21.242L32.2739 21.35L32.3639 21.422C32.4719 21.512 34.5779 22.916 33.8399 25.562Z"/>
    </mask>
    <path d="M34.1279 25.868C35.0099 23.168 33.1199 21.548 32.6699 21.224C32.7239 20.72 32.8139 18.632 30.9239 16.922C31.6439 16.166 31.9499 13.988 31.3019 11.864C30.7979 10.208 29.3219 7.436 25.1999 7.436C23.2199 7.436 21.6899 8.048 20.6639 9.254C18.8639 11.36 19.1879 14.564 19.2779 15.212C19.1159 15.356 18.7559 15.68 18.4499 16.238C18.0899 16.886 17.7479 17.984 18.1439 19.514C16.6679 20.666 15.9839 22.034 16.1279 23.6C15.1019 23.114 14.2739 22.898 14.1839 22.88L14.1299 22.79L13.7519 22.142L13.5359 21.782L13.2119 21.998C12.7259 22.412 12.1859 22.718 11.6459 22.898H11.4119H9.73788H9.50388C8.96388 22.718 8.42388 22.412 7.93788 21.998L7.61388 21.746L7.39788 22.124L7.01988 22.772L6.98388 22.826C6.04788 23.096 0.629883 24.896 0.629883 29.162C0.629883 29.27 0.701883 29.342 0.809883 29.342C0.917883 29.342 0.989883 29.27 0.989883 29.162C0.989883 25.22 6.01188 23.492 7.03788 23.186C7.25388 23.564 8.09988 24.95 8.96388 25.076L9.26988 25.13L9.35988 24.824L9.52188 24.284C9.57588 24.41 9.64788 24.536 9.73788 24.644L9.17988 30.242L9.16188 30.368L9.23388 30.476L10.2599 32.096L10.5659 32.582L10.8719 32.078L11.8439 30.458L11.8979 30.35L11.8799 30.224L11.3579 24.626C11.4479 24.518 11.5199 24.392 11.5739 24.266L11.7359 24.806L11.8259 25.112L12.1319 25.058C12.9599 24.932 13.8059 23.6 14.0399 23.186C14.3099 23.258 20.1419 24.86 20.1419 29.144C20.1419 29.252 20.2139 29.324 20.3219 29.324C20.4299 29.324 20.5019 29.252 20.5019 29.144C20.5019 26.84 18.9539 25.292 17.3879 24.284C17.8019 24.158 18.2339 24.05 18.6479 23.942C19.5839 23.708 20.4479 23.474 21.1679 23.06C21.3479 23.384 22.6799 25.67 23.9399 25.868L24.2459 25.922L24.3359 25.616L24.9839 23.456L25.0199 23.348L25.0559 23.456L25.7039 25.616L25.7939 25.922L26.0999 25.868C27.2519 25.688 28.4939 23.726 28.8179 23.168C28.8359 23.168 28.8539 23.186 28.8719 23.186C28.9259 23.204 34.9919 24.77 34.9919 29.144C34.9919 29.252 35.0639 29.324 35.1719 29.324C35.2799 29.324 35.3519 29.252 35.3519 29.144C35.3879 27.83 34.8659 26.75 34.1279 25.868ZM9.34188 23.582L8.99988 24.734C8.29788 24.626 7.46988 23.24 7.32588 23.006C7.32588 22.988 7.32588 22.952 7.32588 22.934L7.68588 22.322C8.18988 22.754 8.74788 22.97 9.35988 23.15C9.34188 23.24 9.34188 23.42 9.34188 23.51C9.32388 23.528 9.34188 23.546 9.34188 23.582ZM11.0159 24.518L11.5559 30.26L10.5839 31.88L9.55788 30.26L10.0979 24.518C9.88188 24.32 9.73788 23.996 9.71988 23.618L9.79188 23.312L9.82788 23.24H11.3219L11.3579 23.312L11.4299 23.582C11.3759 23.96 11.2319 24.32 11.0159 24.518ZM12.1139 24.734L11.7719 23.582C11.7719 23.564 11.7719 23.546 11.7719 23.51C11.7719 23.42 11.7719 23.348 11.7539 23.258C12.3479 23.078 12.9059 22.754 13.4279 22.322L13.8059 22.97C13.8059 22.97 12.8699 24.608 12.1139 24.734ZM24.0299 25.526C22.8959 25.346 21.5099 22.898 21.5099 22.898L22.0859 21.926C22.8779 22.592 23.7599 23.096 24.6959 23.366L24.0299 25.526ZM26.0999 25.526L25.4519 23.366C26.3879 23.096 27.2699 22.61 28.0619 21.926L28.6379 22.898C28.6199 22.88 27.2339 25.346 26.0999 25.526ZM33.8399 25.562C32.0579 23.726 29.3219 22.952 29.0159 22.862L28.9259 22.7L28.3499 21.728L28.1339 21.368L27.8099 21.638C27.0359 22.286 26.2079 22.754 25.3439 23.006L25.0739 23.078L24.8039 23.006C23.9399 22.754 23.1119 22.286 22.3379 21.638L22.0139 21.368L21.7979 21.728L21.2219 22.7C21.1859 22.7 21.1499 22.7 21.1139 22.718C20.4299 23.132 19.5479 23.366 18.6119 23.6C18.0899 23.726 17.5499 23.87 17.0459 24.05C16.8659 23.942 16.6859 23.852 16.5239 23.762C16.3079 22.178 16.9559 20.864 18.4859 19.712L18.5399 19.64L18.5039 19.514C17.7479 16.706 19.4939 15.464 19.5659 15.41L19.6559 15.338L19.6379 15.23C19.6379 15.194 19.0799 11.63 20.9339 9.452C21.8879 8.336 23.3279 7.76 25.1999 7.76C29.1059 7.76 30.4919 10.388 30.9599 11.936C31.5899 14.006 31.2479 16.256 30.5459 16.742L30.3479 16.868L30.5279 17.03C32.6519 18.848 32.2919 21.224 32.2919 21.242L32.2739 21.35L32.3639 21.422C32.4719 21.512 34.5779 22.916 33.8399 25.562Z" fill="#A1A1A1"/>
    <path d="M34.1279 25.868C35.0099 23.168 33.1199 21.548 32.6699 21.224C32.7239 20.72 32.8139 18.632 30.9239 16.922C31.6439 16.166 31.9499 13.988 31.3019 11.864C30.7979 10.208 29.3219 7.436 25.1999 7.436C23.2199 7.436 21.6899 8.048 20.6639 9.254C18.8639 11.36 19.1879 14.564 19.2779 15.212C19.1159 15.356 18.7559 15.68 18.4499 16.238C18.0899 16.886 17.7479 17.984 18.1439 19.514C16.6679 20.666 15.9839 22.034 16.1279 23.6C15.1019 23.114 14.2739 22.898 14.1839 22.88L14.1299 22.79L13.7519 22.142L13.5359 21.782L13.2119 21.998C12.7259 22.412 12.1859 22.718 11.6459 22.898H11.4119H9.73788H9.50388C8.96388 22.718 8.42388 22.412 7.93788 21.998L7.61388 21.746L7.39788 22.124L7.01988 22.772L6.98388 22.826C6.04788 23.096 0.629883 24.896 0.629883 29.162C0.629883 29.27 0.701883 29.342 0.809883 29.342C0.917883 29.342 0.989883 29.27 0.989883 29.162C0.989883 25.22 6.01188 23.492 7.03788 23.186C7.25388 23.564 8.09988 24.95 8.96388 25.076L9.26988 25.13L9.35988 24.824L9.52188 24.284C9.57588 24.41 9.64788 24.536 9.73788 24.644L9.17988 30.242L9.16188 30.368L9.23388 30.476L10.2599 32.096L10.5659 32.582L10.8719 32.078L11.8439 30.458L11.8979 30.35L11.8799 30.224L11.3579 24.626C11.4479 24.518 11.5199 24.392 11.5739 24.266L11.7359 24.806L11.8259 25.112L12.1319 25.058C12.9599 24.932 13.8059 23.6 14.0399 23.186C14.3099 23.258 20.1419 24.86 20.1419 29.144C20.1419 29.252 20.2139 29.324 20.3219 29.324C20.4299 29.324 20.5019 29.252 20.5019 29.144C20.5019 26.84 18.9539 25.292 17.3879 24.284C17.8019 24.158 18.2339 24.05 18.6479 23.942C19.5839 23.708 20.4479 23.474 21.1679 23.06C21.3479 23.384 22.6799 25.67 23.9399 25.868L24.2459 25.922L24.3359 25.616L24.9839 23.456L25.0199 23.348L25.0559 23.456L25.7039 25.616L25.7939 25.922L26.0999 25.868C27.2519 25.688 28.4939 23.726 28.8179 23.168C28.8359 23.168 28.8539 23.186 28.8719 23.186C28.9259 23.204 34.9919 24.77 34.9919 29.144C34.9919 29.252 35.0639 29.324 35.1719 29.324C35.2799 29.324 35.3519 29.252 35.3519 29.144C35.3879 27.83 34.8659 26.75 34.1279 25.868ZM9.34188 23.582L8.99988 24.734C8.29788 24.626 7.46988 23.24 7.32588 23.006C7.32588 22.988 7.32588 22.952 7.32588 22.934L7.68588 22.322C8.18988 22.754 8.74788 22.97 9.35988 23.15C9.34188 23.24 9.34188 23.42 9.34188 23.51C9.32388 23.528 9.34188 23.546 9.34188 23.582ZM11.0159 24.518L11.5559 30.26L10.5839 31.88L9.55788 30.26L10.0979 24.518C9.88188 24.32 9.73788 23.996 9.71988 23.618L9.79188 23.312L9.82788 23.24H11.3219L11.3579 23.312L11.4299 23.582C11.3759 23.96 11.2319 24.32 11.0159 24.518ZM12.1139 24.734L11.7719 23.582C11.7719 23.564 11.7719 23.546 11.7719 23.51C11.7719 23.42 11.7719 23.348 11.7539 23.258C12.3479 23.078 12.9059 22.754 13.4279 22.322L13.8059 22.97C13.8059 22.97 12.8699 24.608 12.1139 24.734ZM24.0299 25.526C22.8959 25.346 21.5099 22.898 21.5099 22.898L22.0859 21.926C22.8779 22.592 23.7599 23.096 24.6959 23.366L24.0299 25.526ZM26.0999 25.526L25.4519 23.366C26.3879 23.096 27.2699 22.61 28.0619 21.926L28.6379 22.898C28.6199 22.88 27.2339 25.346 26.0999 25.526ZM33.8399 25.562C32.0579 23.726 29.3219 22.952 29.0159 22.862L28.9259 22.7L28.3499 21.728L28.1339 21.368L27.8099 21.638C27.0359 22.286 26.2079 22.754 25.3439 23.006L25.0739 23.078L24.8039 23.006C23.9399 22.754 23.1119 22.286 22.3379 21.638L22.0139 21.368L21.7979 21.728L21.2219 22.7C21.1859 22.7 21.1499 22.7 21.1139 22.718C20.4299 23.132 19.5479 23.366 18.6119 23.6C18.0899 23.726 17.5499 23.87 17.0459 24.05C16.8659 23.942 16.6859 23.852 16.5239 23.762C16.3079 22.178 16.9559 20.864 18.4859 19.712L18.5399 19.64L18.5039 19.514C17.7479 16.706 19.4939 15.464 19.5659 15.41L19.6559 15.338L19.6379 15.23C19.6379 15.194 19.0799 11.63 20.9339 9.452C21.8879 8.336 23.3279 7.76 25.1999 7.76C29.1059 7.76 30.4919 10.388 30.9599 11.936C31.5899 14.006 31.2479 16.256 30.5459 16.742L30.3479 16.868L30.5279 17.03C32.6519 18.848 32.2919 21.224 32.2919 21.242L32.2739 21.35L32.3639 21.422C32.4719 21.512 34.5779 22.916 33.8399 25.562Z" stroke="#A1A1A1" stroke-width="0.6" mask="url(#path-2-outside-1_59_267)"/>
    <path d="M13.8182 28.958H13.8002V29.108V29.612V31.268C13.8002 31.3938 13.8237 31.5047 13.8801 31.5964C13.9379 31.6902 14.0212 31.7493 14.1135 31.7856C14.2028 31.8207 14.303 31.8357 14.4026 31.8429C14.5017 31.85 14.6108 31.85 14.7207 31.85H14.7242H17.3162C17.333 31.85 17.3502 31.85 17.3678 31.8501C17.566 31.8505 17.8079 31.8511 18.0038 31.7974C18.1133 31.7675 18.2235 31.717 18.3068 31.6276C18.3934 31.5346 18.4382 31.4132 18.4382 31.268V29.612V29.108V28.1V27.95H18.2882H13.9682H13.8182V28.1V28.958ZM14.4602 28.61H17.7602V28.85H14.4602V28.61ZM14.4602 29.51H17.7602V31.2445C17.7489 31.2447 17.7333 31.2443 17.7125 31.2424C17.6703 31.2385 17.6242 31.2306 17.5702 31.2214C17.5557 31.2189 17.5406 31.2163 17.5248 31.2137C17.4555 31.2022 17.3749 31.19 17.2982 31.19H14.7242C14.6471 31.19 14.5777 31.2048 14.5231 31.219C14.4965 31.2259 14.4766 31.2316 14.4602 31.2363V29.51ZM14.3905 31.2524C14.3905 31.2523 14.3915 31.2522 14.3933 31.2523C14.3913 31.2525 14.3904 31.2525 14.3905 31.2524ZM14.4627 31.3024C14.4628 31.303 14.4629 31.3033 14.4629 31.3033L14.4627 31.3024Z" fill="#A1A1A1" stroke="#A1A1A1" stroke-width="0.3"/>
    <path d="M23.6065 19.5032C23.6003 19.5118 23.5952 19.5191 23.5916 19.5242L23.5826 19.5331L23.5718 19.5549L23.5358 19.6269L23.5109 19.6766L23.5244 19.7304L23.5404 19.7942C23.5422 19.8058 23.5447 19.8149 23.5457 19.8188C23.5458 19.819 23.5458 19.8193 23.5459 19.8195C23.5492 19.8319 23.5537 19.846 23.5592 19.8614C23.5704 19.8922 23.5871 19.9313 23.6107 19.9755C23.6579 20.0641 23.734 20.1757 23.851 20.2851C24.088 20.5066 24.4811 20.708 25.1099 20.708C26.3593 20.708 26.7606 19.932 26.7921 19.8691L26.7921 19.8691L26.8461 19.7611L26.889 19.6752L26.8291 19.6003L26.7659 19.5213C26.7628 19.5163 26.7598 19.5119 26.7575 19.5085C26.7505 19.4986 26.7421 19.4879 26.733 19.4771C26.7144 19.4552 26.6886 19.4277 26.6553 19.3967C26.5887 19.3346 26.4902 19.2563 26.3572 19.1794C26.0902 19.0251 25.6865 18.878 25.1279 18.878C24.5595 18.878 24.1792 19.0301 23.9352 19.1936C23.8139 19.2749 23.7284 19.3575 23.6713 19.4225C23.6427 19.4549 23.6214 19.4827 23.6065 19.5032ZM25.1279 20.048C24.6224 20.048 24.3865 19.8887 24.2824 19.7729C24.416 19.6713 24.671 19.538 25.1279 19.538C25.5833 19.538 25.8804 19.6573 26.0548 19.7669C25.9045 19.8959 25.6231 20.048 25.1279 20.048Z" fill="#A1A1A1" stroke="#A1A1A1" stroke-width="0.3"/>
    <path d="M20.1579 15.7135C20.5031 17.3653 21.157 19.0206 21.961 20.2266C22.8906 21.6483 23.9922 22.436 25.1281 22.436C26.2245 22.436 27.2128 21.6927 28.0173 20.6353C28.8248 19.5738 29.4706 18.1666 29.8793 16.7688L29.8964 16.7174L29.9076 16.6838L29.9026 16.6488L29.8846 16.5228L29.883 16.5117L29.8798 16.5009C29.7402 16.0354 29.655 15.3882 29.624 15.1526C29.6201 15.1228 29.617 15.0995 29.6148 15.0841L29.597 14.9414L29.5806 14.81H29.4481H29.2861C29.2857 14.81 29.2843 14.81 29.282 14.8101C29.1344 14.8131 25.2156 14.8932 21.7828 12.1961L21.7673 12.1839L21.7492 12.1761L21.4972 12.0681L21.3309 11.9969L21.2917 12.1735L21.2557 12.3355L21.2551 12.3353L21.2534 12.3487C21.0768 13.7082 20.5105 14.8951 20.1914 15.4625L20.1912 15.4624L20.188 15.4689L20.152 15.5409L20.1272 15.5905L20.1406 15.6444L20.1579 15.7135ZM25.1461 21.776C24.2089 21.776 23.294 21.0328 22.5196 19.8589C21.7604 18.7081 21.1643 17.1836 20.8406 15.6858C21.1493 15.1273 21.5983 14.1529 21.8298 13.008C24.8656 15.1915 28.0555 15.5314 29.0121 15.5892C29.055 15.8588 29.1357 16.2846 29.255 16.6703C28.8536 17.9583 28.2626 19.237 27.5503 20.1939C26.8254 21.1679 26.0003 21.776 25.1461 21.776Z" fill="#A1A1A1" stroke="#A1A1A1" stroke-width="0.3"/>
</svg>
