<svg width="16" height="30" viewBox="0 0 16 30" fill="none" xmlns="http://www.w3.org/2000/svg">
    <mask id="path-1-outside-1_59_294" maskUnits="userSpaceOnUse" x="6.05176" y="8.23029" width="4" height="3" fill="black">
        <rect fill="white" x="6.05176" y="8.23029" width="4" height="3"/>
        <path d="M7.2949 10.0844C7.54717 10.3336 7.88745 10.4733 8.24201 10.4733C8.59656 10.4733 8.93684 10.3336 9.18912 10.0844L9.40498 9.84819C9.41505 9.83733 9.42266 9.82442 9.42727 9.81034C9.43188 9.79626 9.43339 9.78135 9.43169 9.76663C9.43027 9.75195 9.42577 9.73773 9.41851 9.72489C9.41124 9.71205 9.40136 9.70088 9.38951 9.6921L8.8699 9.31101C8.79681 9.25784 8.70857 9.22955 8.61819 9.23031C8.5278 9.23107 8.44006 9.26083 8.36787 9.31522C8.33161 9.34195 8.28775 9.35637 8.24271 9.35637C8.19767 9.35637 8.15381 9.34195 8.11755 9.31522C8.04504 9.26177 7.95732 9.23294 7.86724 9.23294C7.77716 9.23294 7.68944 9.26177 7.61693 9.31522L7.09521 9.69632C7.08324 9.70502 7.07323 9.71615 7.06584 9.72897C7.05845 9.7418 7.05384 9.75604 7.05232 9.77076C7.05079 9.78548 7.05238 9.80036 7.05699 9.81443C7.06159 9.8285 7.0691 9.84144 7.07904 9.85241L7.2949 10.0844ZM7.74138 9.48116C7.77751 9.45476 7.82109 9.44054 7.86584 9.44054C7.91058 9.44054 7.95416 9.45476 7.99029 9.48116C8.06331 9.53593 8.15213 9.56554 8.24341 9.56554C8.33469 9.56554 8.42351 9.53593 8.49654 9.48116C8.53266 9.45476 8.57625 9.44054 8.62099 9.44054C8.66573 9.44054 8.70932 9.45476 8.74545 9.48116L9.16732 9.79265L9.03091 9.94171C8.81868 10.1474 8.53474 10.2624 8.23919 10.2624C7.94365 10.2624 7.65971 10.1474 7.44748 9.94171L7.31177 9.79265L7.74138 9.48116Z"/>
    </mask>
    <path d="M7.2949 10.0844C7.54717 10.3336 7.88745 10.4733 8.24201 10.4733C8.59656 10.4733 8.93684 10.3336 9.18912 10.0844L9.40498 9.84819C9.41505 9.83733 9.42266 9.82442 9.42727 9.81034C9.43188 9.79626 9.43339 9.78135 9.43169 9.76663C9.43027 9.75195 9.42577 9.73773 9.41851 9.72489C9.41124 9.71205 9.40136 9.70088 9.38951 9.6921L8.8699 9.31101C8.79681 9.25784 8.70857 9.22955 8.61819 9.23031C8.5278 9.23107 8.44006 9.26083 8.36787 9.31522C8.33161 9.34195 8.28775 9.35637 8.24271 9.35637C8.19767 9.35637 8.15381 9.34195 8.11755 9.31522C8.04504 9.26177 7.95732 9.23294 7.86724 9.23294C7.77716 9.23294 7.68944 9.26177 7.61693 9.31522L7.09521 9.69632C7.08324 9.70502 7.07323 9.71615 7.06584 9.72897C7.05845 9.7418 7.05384 9.75604 7.05232 9.77076C7.05079 9.78548 7.05238 9.80036 7.05699 9.81443C7.06159 9.8285 7.0691 9.84144 7.07904 9.85241L7.2949 10.0844ZM7.74138 9.48116C7.77751 9.45476 7.82109 9.44054 7.86584 9.44054C7.91058 9.44054 7.95416 9.45476 7.99029 9.48116C8.06331 9.53593 8.15213 9.56554 8.24341 9.56554C8.33469 9.56554 8.42351 9.53593 8.49654 9.48116C8.53266 9.45476 8.57625 9.44054 8.62099 9.44054C8.66573 9.44054 8.70932 9.45476 8.74545 9.48116L9.16732 9.79265L9.03091 9.94171C8.81868 10.1474 8.53474 10.2624 8.23919 10.2624C7.94365 10.2624 7.65971 10.1474 7.44748 9.94171L7.31177 9.79265L7.74138 9.48116Z" fill="#A1A1A1"/>
    <path d="M7.2949 10.0844L7.07505 10.289L7.0841 10.2979L7.2949 10.0844ZM8.24201 10.4733V10.7733V10.4733ZM9.18912 10.0844L9.39992 10.2979L9.4054 10.2925L9.41059 10.2868L9.18912 10.0844ZM9.40498 9.84819L9.18502 9.64417L9.1835 9.64583L9.40498 9.84819ZM9.43169 9.76663L9.13306 9.79569L9.13367 9.80097L9.43169 9.76663ZM9.38951 9.6921L9.5681 9.45104L9.56693 9.45019L9.38951 9.6921ZM8.8699 9.31101L9.04732 9.06909L9.04637 9.0684L8.8699 9.31101ZM8.36787 9.31522L8.54588 9.55672L8.54839 9.55483L8.36787 9.31522ZM7.61693 9.31522L7.79389 9.55748L7.79493 9.55671L7.61693 9.31522ZM7.09521 9.69632L7.27161 9.93898L7.27217 9.93857L7.09521 9.69632ZM7.07904 9.85241L6.85662 10.0538L6.85939 10.0568L7.07904 9.85241ZM7.74138 9.48116L7.91748 9.72404L7.91838 9.72338L7.74138 9.48116ZM7.99029 9.48116L8.1703 9.24114L8.16729 9.23894L7.99029 9.48116ZM8.49654 9.48116L8.31953 9.23892L8.31654 9.24116L8.49654 9.48116ZM8.74545 9.48116L8.92364 9.23981L8.92245 9.23894L8.74545 9.48116ZM9.16732 9.79265L9.38864 9.99517L9.61366 9.74928L9.34551 9.5513L9.16732 9.79265ZM9.03091 9.94171L9.23969 10.1571L9.24616 10.1509L9.25223 10.1442L9.03091 9.94171ZM8.23919 10.2624V10.5624V10.2624ZM7.44748 9.94171L7.22564 10.1437L7.23196 10.1506L7.2387 10.1571L7.44748 9.94171ZM7.31177 9.79265L7.13568 9.54977L6.86417 9.74662L7.08993 9.9946L7.31177 9.79265ZM7.0841 10.2979C7.39252 10.6025 7.80854 10.7733 8.24201 10.7733L8.24201 10.1733C7.96637 10.1733 7.70182 10.0647 7.5057 9.87098L7.0841 10.2979ZM8.24201 10.7733C8.67548 10.7733 9.09149 10.6025 9.39992 10.2979L8.97832 9.87098C8.78219 10.0647 8.51765 10.1733 8.24201 10.1733L8.24201 10.7733ZM9.41059 10.2868L9.62645 10.0506L9.1835 9.64583L8.96764 9.88208L9.41059 10.2868ZM9.62492 10.0522C9.66444 10.0096 9.69427 9.95896 9.71236 9.90373L9.14218 9.71695C9.15104 9.68988 9.16566 9.66505 9.18503 9.64417L9.62492 10.0522ZM9.71236 9.90373C9.73046 9.84848 9.73637 9.79 9.72972 9.73229L9.13367 9.80097C9.13041 9.7727 9.1333 9.74403 9.14218 9.71695L9.71236 9.90373ZM9.73028 9.73758C9.72479 9.68114 9.70752 9.62647 9.67958 9.57711L9.15743 9.87267C9.14402 9.84899 9.13574 9.82276 9.1331 9.79568L9.73028 9.73758ZM9.67958 9.57711C9.65166 9.52778 9.61369 9.48482 9.5681 9.45105L9.21092 9.93315C9.18904 9.91694 9.17082 9.89633 9.15743 9.87267L9.67958 9.57711ZM9.56693 9.45019L9.04732 9.06909L8.69247 9.55292L9.21209 9.93401L9.56693 9.45019ZM9.04637 9.0684C8.9213 8.97742 8.77032 8.92902 8.61567 8.93032L8.62071 9.5303C8.64682 9.53008 8.67231 9.53825 8.69342 9.55361L9.04637 9.0684ZM8.61567 8.93032C8.46101 8.93162 8.31087 8.98255 8.18734 9.07562L8.54839 9.55483C8.56925 9.53912 8.5946 9.53052 8.62071 9.5303L8.61567 8.93032ZM8.18987 9.07374C8.20518 9.06245 8.22369 9.05637 8.24271 9.05637V9.65637C8.35181 9.65637 8.45805 9.62144 8.54587 9.55671L8.18987 9.07374ZM8.24271 9.05637C8.26173 9.05637 8.28025 9.06245 8.29555 9.07374L7.93955 9.55671C8.02738 9.62144 8.13361 9.65637 8.24271 9.65637V9.05637ZM8.29555 9.07374C8.17148 8.98228 8.02138 8.93294 7.86724 8.93294V9.53294C7.89327 9.53294 7.91861 9.54127 7.93955 9.55671L8.29555 9.07374ZM7.86724 8.93294C7.7131 8.93294 7.56301 8.98228 7.43893 9.07374L7.79493 9.55671C7.81588 9.54127 7.84122 9.53294 7.86724 9.53294V8.93294ZM7.43997 9.07297L6.91826 9.45407L7.27217 9.93857L7.79389 9.55748L7.43997 9.07297ZM6.91881 9.45366C6.87279 9.48712 6.83432 9.52989 6.8059 9.5792L7.32578 9.87875C7.31215 9.90241 7.29369 9.92293 7.27161 9.93898L6.91881 9.45366ZM6.8059 9.5792C6.77749 9.6285 6.75978 9.68324 6.75392 9.73984L7.35072 9.80167C7.34791 9.82883 7.33941 9.85509 7.32578 9.87875L6.8059 9.5792ZM6.75392 9.73984C6.74805 9.79643 6.75416 9.85364 6.77187 9.90773L7.34211 9.72113C7.3506 9.74709 7.35353 9.77453 7.35072 9.80167L6.75392 9.73984ZM6.77187 9.90773C6.78956 9.96182 6.81845 10.0116 6.85664 10.0538L7.30144 9.65107C7.31976 9.67131 7.33362 9.69518 7.34211 9.72113L6.77187 9.90773ZM6.85939 10.0568L7.07525 10.2888L7.51455 9.8801L7.29869 9.64807L6.85939 10.0568ZM7.91838 9.72338C7.90313 9.73453 7.88473 9.74054 7.86584 9.74054V9.14054C7.75746 9.14054 7.65189 9.175 7.56438 9.23894L7.91838 9.72338ZM7.86584 9.74054C7.84694 9.74054 7.82854 9.73453 7.81329 9.72338L8.16729 9.23894C8.07978 9.175 7.97421 9.14054 7.86584 9.14054V9.74054ZM7.81029 9.72116C7.93524 9.81488 8.08722 9.86554 8.24341 9.86554V9.26554C8.21705 9.26554 8.19139 9.25698 8.17029 9.24116L7.81029 9.72116ZM8.24341 9.86554C8.39961 9.86554 8.55159 9.81488 8.67654 9.72116L8.31654 9.24116C8.29544 9.25698 8.26978 9.26554 8.24341 9.26554V9.86554ZM8.67354 9.72338C8.65829 9.73453 8.63988 9.74054 8.62099 9.74054V9.14054C8.51261 9.14054 8.40704 9.175 8.31954 9.23894L8.67354 9.72338ZM8.62099 9.74054C8.6021 9.74054 8.5837 9.73453 8.56845 9.72338L8.92245 9.23894C8.83494 9.175 8.72937 9.14054 8.62099 9.14054V9.74054ZM8.56725 9.72251L8.98913 10.034L9.34551 9.5513L8.92364 9.23982L8.56725 9.72251ZM8.946 9.59012L8.8096 9.73918L9.25223 10.1442L9.38864 9.99517L8.946 9.59012ZM8.82214 9.72627C8.66587 9.87771 8.4568 9.96239 8.23919 9.96239L8.23919 10.5624C8.61267 10.5624 8.97149 10.4171 9.23969 10.1571L8.82214 9.72627ZM8.23919 9.96239C8.02159 9.96239 7.81252 9.87771 7.65625 9.72627L7.2387 10.1571C7.5069 10.4171 7.86572 10.5624 8.23919 10.5624V9.96239ZM7.66932 9.73975L7.53361 9.59069L7.08993 9.9946L7.22564 10.1437L7.66932 9.73975ZM7.48787 10.0355L7.91748 9.72404L7.56529 9.23828L7.13568 9.54977L7.48787 10.0355Z" fill="#A1A1A1" mask="url(#path-1-outside-1_59_294)"/>
    <mask id="path-3-outside-2_59_294" maskUnits="userSpaceOnUse" x="0" y="0" width="16" height="30" fill="black">
        <rect fill="white" width="16" height="30"/>
        <path d="M15.4844 21.1262V16.1066C15.4834 15.2424 15.1397 14.4138 14.5286 13.8027C13.9175 13.1916 13.0889 12.8479 12.2247 12.8469H10.1385V11.6144H11.1018C11.3903 11.6142 11.6752 11.5504 11.9362 11.4274C12.1972 11.3044 12.4278 11.1254 12.6117 10.903C12.7955 10.6807 12.9279 10.4205 12.9996 10.141C13.0713 9.86153 13.0804 9.56969 13.0263 9.28631L12.9004 8.6324L12.1579 4.50506C12.0531 3.55627 11.6071 2.67786 10.903 2.03328C10.199 1.3887 9.28473 1.02184 8.33039 1.00094C7.37605 0.980052 6.44662 1.30656 5.71502 1.91971C4.98341 2.53286 4.49946 3.3909 4.3532 4.3342C4.35288 4.33653 4.35288 4.3389 4.3532 4.34123L3.45812 9.28631C3.40399 9.56975 3.41311 9.86165 3.48481 10.1412C3.55652 10.4207 3.68905 10.6809 3.87294 10.9033C4.05684 11.1257 4.28756 11.3047 4.54864 11.4276C4.80972 11.5505 5.09472 11.6143 5.38328 11.6144H6.34656V12.8469H4.25828C3.39429 12.8482 2.56607 13.1921 1.95527 13.8032C1.34447 14.4143 1.00093 15.2426 1 16.1066V22.4284C1.00104 22.6826 1.07831 22.9307 1.22184 23.1405C1.36536 23.3504 1.56853 23.5123 1.80508 23.6054C1.544 24.3334 1.41056 25.101 1.41062 25.8744V28.8704C1.41118 28.8981 1.42253 28.9243 1.44225 28.9437C1.46197 28.963 1.48848 28.9738 1.51609 28.9738H14.8199C14.8479 28.9738 14.8747 28.9627 14.8945 28.9429C14.9143 28.9231 14.9254 28.8963 14.9254 28.8683V25.8744C14.9249 24.9652 14.7405 24.0654 14.3833 23.2293C14.7232 22.9939 15.0009 22.6796 15.1927 22.3133C15.3845 21.947 15.4846 21.5397 15.4844 21.1262ZM5.90781 9.63154C5.31367 8.2956 5.03805 7.48068 4.99375 6.22771C6.12719 5.41982 6.76844 4.26951 7.12633 3.32099C7.23643 3.97914 7.54079 4.58933 8.00031 5.07318C8.75266 5.84662 9.92336 6.25021 11.4815 6.27975C11.4351 7.50389 11.1587 8.31881 10.573 9.63154C10.1568 10.566 9.33625 11.5722 8.51852 11.5722H7.95602C7.14461 11.5722 6.32406 10.566 5.90781 9.63154ZM5.38328 11.4034C5.12547 11.4033 4.87086 11.3463 4.63768 11.2363C4.4045 11.1263 4.1985 10.9662 4.03443 10.7673C3.87037 10.5684 3.75228 10.3358 3.68863 10.0859C3.62498 9.83611 3.61734 9.5753 3.66625 9.32217L4.5543 4.38693C4.5547 4.38249 4.5547 4.37802 4.5543 4.37357C4.68751 3.47649 5.1433 2.65878 5.83623 2.07368C6.52916 1.48857 7.41168 1.17624 8.3184 1.19522C9.22512 1.21419 10.0938 1.56317 10.7617 2.17675C11.4295 2.79033 11.8507 3.62639 11.9462 4.52826C11.9462 4.52826 11.9462 4.53318 11.9462 4.53599L12.6958 8.66756L12.8223 9.32357C12.8709 9.57664 12.863 9.83732 12.7991 10.087C12.7353 10.3366 12.6171 10.5691 12.453 10.7678C12.2889 10.9665 12.0829 11.1265 11.8499 11.2363C11.6168 11.3462 11.3623 11.4033 11.1046 11.4034H10.1413V10.7664C10.3931 10.443 10.6055 10.0909 10.7741 9.71732C11.376 8.36521 11.6692 7.49123 11.7044 6.1792C11.7048 6.1651 11.7024 6.15107 11.6973 6.13791C11.6923 6.12475 11.6846 6.11273 11.6748 6.10256C11.6651 6.09245 11.6534 6.08444 11.6405 6.079C11.6275 6.07356 11.6136 6.07081 11.5996 6.07092C10.0457 6.05826 8.88836 5.67295 8.15992 4.92623C7.51586 4.26599 7.32953 3.4349 7.28734 2.85342C7.28526 2.82897 7.27484 2.80597 7.25781 2.7883C7.24078 2.77064 7.21819 2.75936 7.19383 2.75639C7.16986 2.75346 7.14561 2.75884 7.12514 2.77164C7.10466 2.78444 7.0892 2.80387 7.08133 2.8267C6.76984 3.81599 6.12789 5.18428 4.83133 6.08428C4.81706 6.09447 4.8055 6.108 4.79766 6.12369C4.78981 6.13938 4.78592 6.15674 4.78633 6.17428C4.82148 7.48701 5.11398 8.3617 5.71656 9.71451C5.88517 10.088 6.0976 10.4402 6.34938 10.7636V11.4006L5.38328 11.4034ZM6.5575 11.0153C6.57367 11.0322 6.58844 11.0504 6.60461 11.0673C7.04898 11.5356 7.51867 11.7831 7.96305 11.7831H8.52555C8.96992 11.7831 9.43961 11.5356 9.88398 11.0673C9.90016 11.0504 9.91562 11.0322 9.93109 11.0153V12.8434H6.5568L6.5575 11.0153ZM1.21375 22.4284V16.1066C1.21466 15.301 1.53404 14.5284 2.10225 13.9573C2.67047 13.3862 3.44142 13.0629 4.24703 13.0579L3.02992 15.696C2.5674 16.697 2.48639 17.8324 2.80211 18.8889L2.78383 18.898L2.87453 19.0886L2.97086 19.0422C4.04523 18.576 5.33406 18.2969 6.80078 18.2118C7.33809 18.1833 7.87554 18.2651 8.38004 18.4521C8.88454 18.6392 9.34539 18.9276 9.73422 19.2995L9.63719 19.277L9.61399 19.3797L9.62945 19.2749C9.47477 19.2411 9.31797 19.2123 9.16258 19.1891H9.14289C9.07258 19.1793 9.00578 19.1701 8.93617 19.1624L8.90031 19.1582C8.82578 19.1504 8.75055 19.1434 8.67461 19.1378H8.6493C8.58391 19.1336 8.51781 19.1301 8.45172 19.1272H8.39477C8.23516 19.1223 8.08258 19.1216 7.89203 19.1272H7.85195C7.76758 19.1315 7.67898 19.1371 7.58828 19.1448L7.54258 19.149C7.45117 19.1575 7.36328 19.1673 7.27961 19.1779L7.24797 19.1828C7.06375 19.2074 6.87883 19.2411 6.69742 19.2812L6.67984 19.2847C6.59266 19.3044 6.50266 19.3269 6.41125 19.3515L6.39227 19.3565C6.3107 19.379 6.22914 19.4029 6.14898 19.4268L6.07867 19.4493L5.89305 19.5126L5.83398 19.5336C5.75523 19.5625 5.67648 19.5934 5.59914 19.6251L5.56609 19.6391C5.49578 19.6672 5.42969 19.6975 5.36219 19.7284L5.31016 19.7523C5.23633 19.7868 5.1632 19.8226 5.09078 19.8592H5.08516C3.61979 20.6111 2.47921 21.8719 1.8775 23.4051C1.68186 23.327 1.51394 23.1924 1.3952 23.0184C1.27647 22.8445 1.21231 22.639 1.21094 22.4284H1.21375ZM14.7138 28.765H1.62156V25.8744C1.62328 24.6705 1.95601 23.4903 2.58337 22.4627C3.21073 21.4352 4.10856 20.5999 5.17867 20.0483L5.18711 20.0441C5.25742 20.009 5.32773 19.9738 5.39805 19.9422L5.45148 19.9183C5.51547 19.8887 5.58016 19.8606 5.64484 19.8332L5.68 19.8184C5.75453 19.7875 5.82976 19.7587 5.9057 19.7305L5.96617 19.7087C6.02453 19.6883 6.08289 19.6679 6.14266 19.649L6.21297 19.6265C6.28891 19.6026 6.36484 19.5801 6.44219 19.5562H6.44781L6.46609 19.5512C6.55469 19.5273 6.64187 19.5055 6.72555 19.4865H6.74312C6.91891 19.4472 7.09469 19.4162 7.2768 19.3909L7.30703 19.3867C7.38789 19.3762 7.47367 19.3663 7.56227 19.3586L7.60656 19.3544C7.69445 19.3466 7.78023 19.341 7.8618 19.3375H7.90047C8.08609 19.3297 8.23375 19.3304 8.38773 19.3375H8.44328C8.50726 19.3375 8.57055 19.3431 8.63453 19.348H8.65914C8.72945 19.3537 8.80539 19.36 8.87781 19.3677L8.91227 19.3719C8.98258 19.3797 9.04656 19.3881 9.11336 19.3979H9.13234C9.28211 19.4204 9.43398 19.4479 9.58375 19.4809L9.60695 19.3783L9.59148 19.483C9.74125 19.5161 9.89172 19.5533 10.0387 19.5983C10.063 19.6054 10.0891 19.6036 10.1121 19.5931C10.1352 19.5827 10.1538 19.5643 10.1645 19.5414C10.1731 19.523 10.1761 19.5025 10.1733 19.4824C10.1704 19.4623 10.1617 19.4435 10.1484 19.4282C9.73358 18.9512 9.21546 18.575 8.63342 18.3284C8.05138 18.0818 7.42075 17.9712 6.78953 18.0051C6.69742 18.01 6.60672 18.0163 6.51602 18.0233L6.43164 18.0304L6.24672 18.0458L6.14898 18.0557L5.98164 18.0733L5.88039 18.0852L5.72008 18.1049L5.61953 18.119L5.46273 18.1415L5.3643 18.1569C5.31297 18.1654 5.26094 18.1731 5.20961 18.1822L5.11398 18.1991L4.9607 18.2272L4.8693 18.2455L4.71531 18.2772L4.62883 18.2969L4.47484 18.332L4.39258 18.3524L4.23789 18.3911L4.15984 18.4122L4.00656 18.4544L3.93133 18.4769L3.78016 18.5226L3.70984 18.5458C3.65992 18.5619 3.61 18.5781 3.56148 18.595L3.49117 18.6196L3.35055 18.6709L3.27531 18.699C3.23031 18.7159 3.18531 18.7328 3.14172 18.7504L3.06156 18.7827L3.0032 18.8059C2.71149 17.8055 2.79166 16.7333 3.22891 15.7874L4.4875 13.0614H12.018L13.2766 15.7874C13.5916 16.4737 13.7222 17.2302 13.6555 17.9824C13.5888 18.7346 13.3271 19.4564 12.8962 20.0765L12.4159 20.7641C12.401 20.7856 12.3946 20.8118 12.3978 20.8378C12.4011 20.8637 12.4138 20.8876 12.4335 20.9047C13.1524 21.5189 13.7296 22.2818 14.1252 23.1406C14.5208 23.9994 14.7254 24.9338 14.725 25.8794L14.7138 28.765ZM14.2982 23.0331C13.9036 22.1819 13.3361 21.4221 12.6318 20.8021L13.0579 20.1918C13.5095 19.5417 13.7837 18.7852 13.8537 17.9968C13.9236 17.2084 13.7867 16.4154 13.4566 15.696L12.2395 13.0579C13.0452 13.0627 13.8163 13.3859 14.3847 13.957C14.953 14.5282 15.2725 15.3009 15.2734 16.1066V21.1262C15.274 21.4986 15.1859 21.8658 15.0165 22.1974C14.847 22.529 14.601 22.8154 14.2989 23.0331H14.2982Z"/>
    </mask>
    <path d="M15.4844 21.1262V16.1066C15.4834 15.2424 15.1397 14.4138 14.5286 13.8027C13.9175 13.1916 13.0889 12.8479 12.2247 12.8469H10.1385V11.6144H11.1018C11.3903 11.6142 11.6752 11.5504 11.9362 11.4274C12.1972 11.3044 12.4278 11.1254 12.6117 10.903C12.7955 10.6807 12.9279 10.4205 12.9996 10.141C13.0713 9.86153 13.0804 9.56969 13.0263 9.28631L12.9004 8.6324L12.1579 4.50506C12.0531 3.55627 11.6071 2.67786 10.903 2.03328C10.199 1.3887 9.28473 1.02184 8.33039 1.00094C7.37605 0.980052 6.44662 1.30656 5.71502 1.91971C4.98341 2.53286 4.49946 3.3909 4.3532 4.3342C4.35288 4.33653 4.35288 4.3389 4.3532 4.34123L3.45812 9.28631C3.40399 9.56975 3.41311 9.86165 3.48481 10.1412C3.55652 10.4207 3.68905 10.6809 3.87294 10.9033C4.05684 11.1257 4.28756 11.3047 4.54864 11.4276C4.80972 11.5505 5.09472 11.6143 5.38328 11.6144H6.34656V12.8469H4.25828C3.39429 12.8482 2.56607 13.1921 1.95527 13.8032C1.34447 14.4143 1.00093 15.2426 1 16.1066V22.4284C1.00104 22.6826 1.07831 22.9307 1.22184 23.1405C1.36536 23.3504 1.56853 23.5123 1.80508 23.6054C1.544 24.3334 1.41056 25.101 1.41062 25.8744V28.8704C1.41118 28.8981 1.42253 28.9243 1.44225 28.9437C1.46197 28.963 1.48848 28.9738 1.51609 28.9738H14.8199C14.8479 28.9738 14.8747 28.9627 14.8945 28.9429C14.9143 28.9231 14.9254 28.8963 14.9254 28.8683V25.8744C14.9249 24.9652 14.7405 24.0654 14.3833 23.2293C14.7232 22.9939 15.0009 22.6796 15.1927 22.3133C15.3845 21.947 15.4846 21.5397 15.4844 21.1262ZM5.90781 9.63154C5.31367 8.2956 5.03805 7.48068 4.99375 6.22771C6.12719 5.41982 6.76844 4.26951 7.12633 3.32099C7.23643 3.97914 7.54079 4.58933 8.00031 5.07318C8.75266 5.84662 9.92336 6.25021 11.4815 6.27975C11.4351 7.50389 11.1587 8.31881 10.573 9.63154C10.1568 10.566 9.33625 11.5722 8.51852 11.5722H7.95602C7.14461 11.5722 6.32406 10.566 5.90781 9.63154ZM5.38328 11.4034C5.12547 11.4033 4.87086 11.3463 4.63768 11.2363C4.4045 11.1263 4.1985 10.9662 4.03443 10.7673C3.87037 10.5684 3.75228 10.3358 3.68863 10.0859C3.62498 9.83611 3.61734 9.5753 3.66625 9.32217L4.5543 4.38693C4.5547 4.38249 4.5547 4.37802 4.5543 4.37357C4.68751 3.47649 5.1433 2.65878 5.83623 2.07368C6.52916 1.48857 7.41168 1.17624 8.3184 1.19522C9.22512 1.21419 10.0938 1.56317 10.7617 2.17675C11.4295 2.79033 11.8507 3.62639 11.9462 4.52826C11.9462 4.52826 11.9462 4.53318 11.9462 4.53599L12.6958 8.66756L12.8223 9.32357C12.8709 9.57664 12.863 9.83732 12.7991 10.087C12.7353 10.3366 12.6171 10.5691 12.453 10.7678C12.2889 10.9665 12.0829 11.1265 11.8499 11.2363C11.6168 11.3462 11.3623 11.4033 11.1046 11.4034H10.1413V10.7664C10.3931 10.443 10.6055 10.0909 10.7741 9.71732C11.376 8.36521 11.6692 7.49123 11.7044 6.1792C11.7048 6.1651 11.7024 6.15107 11.6973 6.13791C11.6923 6.12475 11.6846 6.11273 11.6748 6.10256C11.6651 6.09245 11.6534 6.08444 11.6405 6.079C11.6275 6.07356 11.6136 6.07081 11.5996 6.07092C10.0457 6.05826 8.88836 5.67295 8.15992 4.92623C7.51586 4.26599 7.32953 3.4349 7.28734 2.85342C7.28526 2.82897 7.27484 2.80597 7.25781 2.7883C7.24078 2.77064 7.21819 2.75936 7.19383 2.75639C7.16986 2.75346 7.14561 2.75884 7.12514 2.77164C7.10466 2.78444 7.0892 2.80387 7.08133 2.8267C6.76984 3.81599 6.12789 5.18428 4.83133 6.08428C4.81706 6.09447 4.8055 6.108 4.79766 6.12369C4.78981 6.13938 4.78592 6.15674 4.78633 6.17428C4.82148 7.48701 5.11398 8.3617 5.71656 9.71451C5.88517 10.088 6.0976 10.4402 6.34938 10.7636V11.4006L5.38328 11.4034ZM6.5575 11.0153C6.57367 11.0322 6.58844 11.0504 6.60461 11.0673C7.04898 11.5356 7.51867 11.7831 7.96305 11.7831H8.52555C8.96992 11.7831 9.43961 11.5356 9.88398 11.0673C9.90016 11.0504 9.91562 11.0322 9.93109 11.0153V12.8434H6.5568L6.5575 11.0153ZM1.21375 22.4284V16.1066C1.21466 15.301 1.53404 14.5284 2.10225 13.9573C2.67047 13.3862 3.44142 13.0629 4.24703 13.0579L3.02992 15.696C2.5674 16.697 2.48639 17.8324 2.80211 18.8889L2.78383 18.898L2.87453 19.0886L2.97086 19.0422C4.04523 18.576 5.33406 18.2969 6.80078 18.2118C7.33809 18.1833 7.87554 18.2651 8.38004 18.4521C8.88454 18.6392 9.34539 18.9276 9.73422 19.2995L9.63719 19.277L9.61399 19.3797L9.62945 19.2749C9.47477 19.2411 9.31797 19.2123 9.16258 19.1891H9.14289C9.07258 19.1793 9.00578 19.1701 8.93617 19.1624L8.90031 19.1582C8.82578 19.1504 8.75055 19.1434 8.67461 19.1378H8.6493C8.58391 19.1336 8.51781 19.1301 8.45172 19.1272H8.39477C8.23516 19.1223 8.08258 19.1216 7.89203 19.1272H7.85195C7.76758 19.1315 7.67898 19.1371 7.58828 19.1448L7.54258 19.149C7.45117 19.1575 7.36328 19.1673 7.27961 19.1779L7.24797 19.1828C7.06375 19.2074 6.87883 19.2411 6.69742 19.2812L6.67984 19.2847C6.59266 19.3044 6.50266 19.3269 6.41125 19.3515L6.39227 19.3565C6.3107 19.379 6.22914 19.4029 6.14898 19.4268L6.07867 19.4493L5.89305 19.5126L5.83398 19.5336C5.75523 19.5625 5.67648 19.5934 5.59914 19.6251L5.56609 19.6391C5.49578 19.6672 5.42969 19.6975 5.36219 19.7284L5.31016 19.7523C5.23633 19.7868 5.1632 19.8226 5.09078 19.8592H5.08516C3.61979 20.6111 2.47921 21.8719 1.8775 23.4051C1.68186 23.327 1.51394 23.1924 1.3952 23.0184C1.27647 22.8445 1.21231 22.639 1.21094 22.4284H1.21375ZM14.7138 28.765H1.62156V25.8744C1.62328 24.6705 1.95601 23.4903 2.58337 22.4627C3.21073 21.4352 4.10856 20.5999 5.17867 20.0483L5.18711 20.0441C5.25742 20.009 5.32773 19.9738 5.39805 19.9422L5.45148 19.9183C5.51547 19.8887 5.58016 19.8606 5.64484 19.8332L5.68 19.8184C5.75453 19.7875 5.82976 19.7587 5.9057 19.7305L5.96617 19.7087C6.02453 19.6883 6.08289 19.6679 6.14266 19.649L6.21297 19.6265C6.28891 19.6026 6.36484 19.5801 6.44219 19.5562H6.44781L6.46609 19.5512C6.55469 19.5273 6.64187 19.5055 6.72555 19.4865H6.74312C6.91891 19.4472 7.09469 19.4162 7.2768 19.3909L7.30703 19.3867C7.38789 19.3762 7.47367 19.3663 7.56227 19.3586L7.60656 19.3544C7.69445 19.3466 7.78023 19.341 7.8618 19.3375H7.90047C8.08609 19.3297 8.23375 19.3304 8.38773 19.3375H8.44328C8.50726 19.3375 8.57055 19.3431 8.63453 19.348H8.65914C8.72945 19.3537 8.80539 19.36 8.87781 19.3677L8.91227 19.3719C8.98258 19.3797 9.04656 19.3881 9.11336 19.3979H9.13234C9.28211 19.4204 9.43398 19.4479 9.58375 19.4809L9.60695 19.3783L9.59148 19.483C9.74125 19.5161 9.89172 19.5533 10.0387 19.5983C10.063 19.6054 10.0891 19.6036 10.1121 19.5931C10.1352 19.5827 10.1538 19.5643 10.1645 19.5414C10.1731 19.523 10.1761 19.5025 10.1733 19.4824C10.1704 19.4623 10.1617 19.4435 10.1484 19.4282C9.73358 18.9512 9.21546 18.575 8.63342 18.3284C8.05138 18.0818 7.42075 17.9712 6.78953 18.0051C6.69742 18.01 6.60672 18.0163 6.51602 18.0233L6.43164 18.0304L6.24672 18.0458L6.14898 18.0557L5.98164 18.0733L5.88039 18.0852L5.72008 18.1049L5.61953 18.119L5.46273 18.1415L5.3643 18.1569C5.31297 18.1654 5.26094 18.1731 5.20961 18.1822L5.11398 18.1991L4.9607 18.2272L4.8693 18.2455L4.71531 18.2772L4.62883 18.2969L4.47484 18.332L4.39258 18.3524L4.23789 18.3911L4.15984 18.4122L4.00656 18.4544L3.93133 18.4769L3.78016 18.5226L3.70984 18.5458C3.65992 18.5619 3.61 18.5781 3.56148 18.595L3.49117 18.6196L3.35055 18.6709L3.27531 18.699C3.23031 18.7159 3.18531 18.7328 3.14172 18.7504L3.06156 18.7827L3.0032 18.8059C2.71149 17.8055 2.79166 16.7333 3.22891 15.7874L4.4875 13.0614H12.018L13.2766 15.7874C13.5916 16.4737 13.7222 17.2302 13.6555 17.9824C13.5888 18.7346 13.3271 19.4564 12.8962 20.0765L12.4159 20.7641C12.401 20.7856 12.3946 20.8118 12.3978 20.8378C12.4011 20.8637 12.4138 20.8876 12.4335 20.9047C13.1524 21.5189 13.7296 22.2818 14.1252 23.1406C14.5208 23.9994 14.7254 24.9338 14.725 25.8794L14.7138 28.765ZM14.2982 23.0331C13.9036 22.1819 13.3361 21.4221 12.6318 20.8021L13.0579 20.1918C13.5095 19.5417 13.7837 18.7852 13.8537 17.9968C13.9236 17.2084 13.7867 16.4154 13.4566 15.696L12.2395 13.0579C13.0452 13.0627 13.8163 13.3859 14.3847 13.957C14.953 14.5282 15.2725 15.3009 15.2734 16.1066V21.1262C15.274 21.4986 15.1859 21.8658 15.0165 22.1974C14.847 22.529 14.601 22.8154 14.2989 23.0331H14.2982Z" fill="#A1A1A1"/>
    <path d="M15.4844 21.1262V16.1066C15.4834 15.2424 15.1397 14.4138 14.5286 13.8027C13.9175 13.1916 13.0889 12.8479 12.2247 12.8469H10.1385V11.6144H11.1018C11.3903 11.6142 11.6752 11.5504 11.9362 11.4274C12.1972 11.3044 12.4278 11.1254 12.6117 10.903C12.7955 10.6807 12.9279 10.4205 12.9996 10.141C13.0713 9.86153 13.0804 9.56969 13.0263 9.28631L12.9004 8.6324L12.1579 4.50506C12.0531 3.55627 11.6071 2.67786 10.903 2.03328C10.199 1.3887 9.28473 1.02184 8.33039 1.00094C7.37605 0.980052 6.44662 1.30656 5.71502 1.91971C4.98341 2.53286 4.49946 3.3909 4.3532 4.3342C4.35288 4.33653 4.35288 4.3389 4.3532 4.34123L3.45812 9.28631C3.40399 9.56975 3.41311 9.86165 3.48481 10.1412C3.55652 10.4207 3.68905 10.6809 3.87294 10.9033C4.05684 11.1257 4.28756 11.3047 4.54864 11.4276C4.80972 11.5505 5.09472 11.6143 5.38328 11.6144H6.34656V12.8469H4.25828C3.39429 12.8482 2.56607 13.1921 1.95527 13.8032C1.34447 14.4143 1.00093 15.2426 1 16.1066V22.4284C1.00104 22.6826 1.07831 22.9307 1.22184 23.1405C1.36536 23.3504 1.56853 23.5123 1.80508 23.6054C1.544 24.3334 1.41056 25.101 1.41062 25.8744V28.8704C1.41118 28.8981 1.42253 28.9243 1.44225 28.9437C1.46197 28.963 1.48848 28.9738 1.51609 28.9738H14.8199C14.8479 28.9738 14.8747 28.9627 14.8945 28.9429C14.9143 28.9231 14.9254 28.8963 14.9254 28.8683V25.8744C14.9249 24.9652 14.7405 24.0654 14.3833 23.2293C14.7232 22.9939 15.0009 22.6796 15.1927 22.3133C15.3845 21.947 15.4846 21.5397 15.4844 21.1262ZM5.90781 9.63154C5.31367 8.2956 5.03805 7.48068 4.99375 6.22771C6.12719 5.41982 6.76844 4.26951 7.12633 3.32099C7.23643 3.97914 7.54079 4.58933 8.00031 5.07318C8.75266 5.84662 9.92336 6.25021 11.4815 6.27975C11.4351 7.50389 11.1587 8.31881 10.573 9.63154C10.1568 10.566 9.33625 11.5722 8.51852 11.5722H7.95602C7.14461 11.5722 6.32406 10.566 5.90781 9.63154ZM5.38328 11.4034C5.12547 11.4033 4.87086 11.3463 4.63768 11.2363C4.4045 11.1263 4.1985 10.9662 4.03443 10.7673C3.87037 10.5684 3.75228 10.3358 3.68863 10.0859C3.62498 9.83611 3.61734 9.5753 3.66625 9.32217L4.5543 4.38693C4.5547 4.38249 4.5547 4.37802 4.5543 4.37357C4.68751 3.47649 5.1433 2.65878 5.83623 2.07368C6.52916 1.48857 7.41168 1.17624 8.3184 1.19522C9.22512 1.21419 10.0938 1.56317 10.7617 2.17675C11.4295 2.79033 11.8507 3.62639 11.9462 4.52826C11.9462 4.52826 11.9462 4.53318 11.9462 4.53599L12.6958 8.66756L12.8223 9.32357C12.8709 9.57664 12.863 9.83732 12.7991 10.087C12.7353 10.3366 12.6171 10.5691 12.453 10.7678C12.2889 10.9665 12.0829 11.1265 11.8499 11.2363C11.6168 11.3462 11.3623 11.4033 11.1046 11.4034H10.1413V10.7664C10.3931 10.443 10.6055 10.0909 10.7741 9.71732C11.376 8.36521 11.6692 7.49123 11.7044 6.1792C11.7048 6.1651 11.7024 6.15107 11.6973 6.13791C11.6923 6.12475 11.6846 6.11273 11.6748 6.10256C11.6651 6.09245 11.6534 6.08444 11.6405 6.079C11.6275 6.07356 11.6136 6.07081 11.5996 6.07092C10.0457 6.05826 8.88836 5.67295 8.15992 4.92623C7.51586 4.26599 7.32953 3.4349 7.28734 2.85342C7.28526 2.82897 7.27484 2.80597 7.25781 2.7883C7.24078 2.77064 7.21819 2.75936 7.19383 2.75639C7.16986 2.75346 7.14561 2.75884 7.12514 2.77164C7.10466 2.78444 7.0892 2.80387 7.08133 2.8267C6.76984 3.81599 6.12789 5.18428 4.83133 6.08428C4.81706 6.09447 4.8055 6.108 4.79766 6.12369C4.78981 6.13938 4.78592 6.15674 4.78633 6.17428C4.82148 7.48701 5.11398 8.3617 5.71656 9.71451C5.88517 10.088 6.0976 10.4402 6.34938 10.7636V11.4006L5.38328 11.4034ZM6.5575 11.0153C6.57367 11.0322 6.58844 11.0504 6.60461 11.0673C7.04898 11.5356 7.51867 11.7831 7.96305 11.7831H8.52555C8.96992 11.7831 9.43961 11.5356 9.88398 11.0673C9.90016 11.0504 9.91562 11.0322 9.93109 11.0153V12.8434H6.5568L6.5575 11.0153ZM1.21375 22.4284V16.1066C1.21466 15.301 1.53404 14.5284 2.10225 13.9573C2.67047 13.3862 3.44142 13.0629 4.24703 13.0579L3.02992 15.696C2.5674 16.697 2.48639 17.8324 2.80211 18.8889L2.78383 18.898L2.87453 19.0886L2.97086 19.0422C4.04523 18.576 5.33406 18.2969 6.80078 18.2118C7.33809 18.1833 7.87554 18.2651 8.38004 18.4521C8.88454 18.6392 9.34539 18.9276 9.73422 19.2995L9.63719 19.277L9.61399 19.3797L9.62945 19.2749C9.47477 19.2411 9.31797 19.2123 9.16258 19.1891H9.14289C9.07258 19.1793 9.00578 19.1701 8.93617 19.1624L8.90031 19.1582C8.82578 19.1504 8.75055 19.1434 8.67461 19.1378H8.6493C8.58391 19.1336 8.51781 19.1301 8.45172 19.1272H8.39477C8.23516 19.1223 8.08258 19.1216 7.89203 19.1272H7.85195C7.76758 19.1315 7.67898 19.1371 7.58828 19.1448L7.54258 19.149C7.45117 19.1575 7.36328 19.1673 7.27961 19.1779L7.24797 19.1828C7.06375 19.2074 6.87883 19.2411 6.69742 19.2812L6.67984 19.2847C6.59266 19.3044 6.50266 19.3269 6.41125 19.3515L6.39227 19.3565C6.3107 19.379 6.22914 19.4029 6.14898 19.4268L6.07867 19.4493L5.89305 19.5126L5.83398 19.5336C5.75523 19.5625 5.67648 19.5934 5.59914 19.6251L5.56609 19.6391C5.49578 19.6672 5.42969 19.6975 5.36219 19.7284L5.31016 19.7523C5.23633 19.7868 5.1632 19.8226 5.09078 19.8592H5.08516C3.61979 20.6111 2.47921 21.8719 1.8775 23.4051C1.68186 23.327 1.51394 23.1924 1.3952 23.0184C1.27647 22.8445 1.21231 22.639 1.21094 22.4284H1.21375ZM14.7138 28.765H1.62156V25.8744C1.62328 24.6705 1.95601 23.4903 2.58337 22.4627C3.21073 21.4352 4.10856 20.5999 5.17867 20.0483L5.18711 20.0441C5.25742 20.009 5.32773 19.9738 5.39805 19.9422L5.45148 19.9183C5.51547 19.8887 5.58016 19.8606 5.64484 19.8332L5.68 19.8184C5.75453 19.7875 5.82976 19.7587 5.9057 19.7305L5.96617 19.7087C6.02453 19.6883 6.08289 19.6679 6.14266 19.649L6.21297 19.6265C6.28891 19.6026 6.36484 19.5801 6.44219 19.5562H6.44781L6.46609 19.5512C6.55469 19.5273 6.64187 19.5055 6.72555 19.4865H6.74312C6.91891 19.4472 7.09469 19.4162 7.2768 19.3909L7.30703 19.3867C7.38789 19.3762 7.47367 19.3663 7.56227 19.3586L7.60656 19.3544C7.69445 19.3466 7.78023 19.341 7.8618 19.3375H7.90047C8.08609 19.3297 8.23375 19.3304 8.38773 19.3375H8.44328C8.50726 19.3375 8.57055 19.3431 8.63453 19.348H8.65914C8.72945 19.3537 8.80539 19.36 8.87781 19.3677L8.91227 19.3719C8.98258 19.3797 9.04656 19.3881 9.11336 19.3979H9.13234C9.28211 19.4204 9.43398 19.4479 9.58375 19.4809L9.60695 19.3783L9.59148 19.483C9.74125 19.5161 9.89172 19.5533 10.0387 19.5983C10.063 19.6054 10.0891 19.6036 10.1121 19.5931C10.1352 19.5827 10.1538 19.5643 10.1645 19.5414C10.1731 19.523 10.1761 19.5025 10.1733 19.4824C10.1704 19.4623 10.1617 19.4435 10.1484 19.4282C9.73358 18.9512 9.21546 18.575 8.63342 18.3284C8.05138 18.0818 7.42075 17.9712 6.78953 18.0051C6.69742 18.01 6.60672 18.0163 6.51602 18.0233L6.43164 18.0304L6.24672 18.0458L6.14898 18.0557L5.98164 18.0733L5.88039 18.0852L5.72008 18.1049L5.61953 18.119L5.46273 18.1415L5.3643 18.1569C5.31297 18.1654 5.26094 18.1731 5.20961 18.1822L5.11398 18.1991L4.9607 18.2272L4.8693 18.2455L4.71531 18.2772L4.62883 18.2969L4.47484 18.332L4.39258 18.3524L4.23789 18.3911L4.15984 18.4122L4.00656 18.4544L3.93133 18.4769L3.78016 18.5226L3.70984 18.5458C3.65992 18.5619 3.61 18.5781 3.56148 18.595L3.49117 18.6196L3.35055 18.6709L3.27531 18.699C3.23031 18.7159 3.18531 18.7328 3.14172 18.7504L3.06156 18.7827L3.0032 18.8059C2.71149 17.8055 2.79166 16.7333 3.22891 15.7874L4.4875 13.0614H12.018L13.2766 15.7874C13.5916 16.4737 13.7222 17.2302 13.6555 17.9824C13.5888 18.7346 13.3271 19.4564 12.8962 20.0765L12.4159 20.7641C12.401 20.7856 12.3946 20.8118 12.3978 20.8378C12.4011 20.8637 12.4138 20.8876 12.4335 20.9047C13.1524 21.5189 13.7296 22.2818 14.1252 23.1406C14.5208 23.9994 14.7254 24.9338 14.725 25.8794L14.7138 28.765ZM14.2982 23.0331C13.9036 22.1819 13.3361 21.4221 12.6318 20.8021L13.0579 20.1918C13.5095 19.5417 13.7837 18.7852 13.8537 17.9968C13.9236 17.2084 13.7867 16.4154 13.4566 15.696L12.2395 13.0579C13.0452 13.0627 13.8163 13.3859 14.3847 13.957C14.953 14.5282 15.2725 15.3009 15.2734 16.1066V21.1262C15.274 21.4986 15.1859 21.8658 15.0165 22.1974C14.847 22.529 14.601 22.8154 14.2989 23.0331H14.2982Z" stroke="#A1A1A1" stroke-width="0.6" mask="url(#path-3-outside-2_59_294)"/>
    <path d="M8.15605 22.6267C7.985 22.4544 7.78205 22.3169 7.55846 22.222C7.33031 22.1251 7.0852 22.0745 6.83735 22.073C6.5895 22.0716 6.34382 22.1193 6.11455 22.2135C5.88528 22.3077 5.67698 22.4464 5.50172 22.6217C5.32646 22.7969 5.18772 23.0052 5.09354 23.2345C4.99936 23.4638 4.95161 23.7095 4.95306 23.9573C4.95451 24.2052 5.00513 24.4503 5.10199 24.6784C5.19871 24.9062 5.33961 25.1126 5.51655 25.2857L5.65933 25.4291C5.66701 25.4396 5.67549 25.4495 5.68469 25.4587L5.68482 25.4589L7.97279 27.7468L7.97278 27.7468L7.97421 27.7482C8.0081 27.7812 8.05049 27.8041 8.09664 27.8144C8.11593 27.819 8.13565 27.8214 8.15546 27.8217L8.15546 27.8217L8.15732 27.8217C8.19101 27.8218 8.22437 27.8152 8.25547 27.8022C8.28646 27.7894 8.31461 27.7705 8.33829 27.7467L8.3382 27.7468L8.15605 22.6267ZM8.15605 22.6267C8.50786 22.2873 8.97858 22.0987 9.46774 22.1015C9.96078 22.1044 10.4328 22.3016 10.7814 22.6502C11.1301 22.9989 11.3272 23.4709 11.3301 23.9639C11.333 24.457 11.1414 24.9313 10.7969 25.2839L10.7956 25.2852L10.7956 25.2852L10.652 25.4289C10.6439 25.4401 10.6349 25.4506 10.6249 25.4602L8.33856 27.7465L8.15605 22.6267ZM10.2628 25.0957L10.2629 25.0956L10.4335 24.925C10.6809 24.6681 10.8177 24.3243 10.8145 23.9676C10.8113 23.6104 10.668 23.2688 10.4154 23.0163C10.1628 22.7638 9.82113 22.6206 9.46397 22.6175C9.10718 22.6144 8.76344 22.7514 8.50659 22.999L8.33603 23.1689L8.33587 23.169L10.2628 25.0957ZM10.2628 25.0957C10.2537 25.1047 10.2454 25.1144 10.2379 25.1247L8.15549 27.2072L6.07479 25.1265C6.06651 25.115 6.05723 25.1043 6.04704 25.0945L5.87748 24.9242L5.87726 24.924M10.2628 25.0957L5.87726 24.924M5.87726 24.924C5.62185 24.6686 5.47836 24.3222 5.47836 23.961C5.47836 23.5998 5.62185 23.2533 5.87726 22.9979C6.13268 22.7425 6.47909 22.599 6.8403 22.599C7.20151 22.599 7.54792 22.7425 7.80333 22.9979L7.80355 22.9981M5.87726 24.924L7.80355 22.9981M7.80355 22.9981L7.97496 23.1689L7.80355 22.9981Z" fill="#A1A1A1" stroke="#A1A1A1" stroke-width="0.3"/>
</svg>
