<svg width="36" height="36" viewBox="0 0 36 36" fill="none" xmlns="http://www.w3.org/2000/svg">
    <path d="M31.5 18.225C31.5 16.425 30.0938 15.4688 28.125 15.4688H22.4438C22.8375 13.95 23.0625 12.4875 23.0625 11.25C23.0625 6.35625 21.7125 5.34375 20.5312 5.34375C19.7438 5.34375 19.1813 5.4 18.3938 5.90625C18.1688 6.01875 18.0563 6.24375 18 6.46875L17.1562 11.025C16.2562 13.4438 13.95 15.525 12.0938 16.9313V28.9688C12.7125 28.9688 13.5 29.3062 14.2312 29.7C15.1312 30.15 16.0875 30.6 17.1562 30.6H25.2C26.8875 30.6 28.125 29.25 28.125 28.0687C28.125 27.8437 28.125 27.6187 28.0687 27.45C29.1375 27.0562 29.8125 26.1563 29.8125 25.1438C29.8125 24.6375 29.7 24.1875 29.5312 23.85C30.15 23.4 30.825 22.6688 30.825 21.7688C30.825 21.3188 30.6 20.7563 30.2625 20.3625C30.9937 19.8 31.5 19.0125 31.5 18.225ZM29.7562 18.225C29.7562 19.2937 28.6313 19.4062 28.4625 19.9125C28.2938 20.475 29.1375 20.7 29.1375 21.7125C29.1375 22.7813 27.8438 22.7812 27.675 23.2875C27.45 23.9062 28.0687 24.1313 28.0687 25.1438C28.0687 25.2 28.0687 25.2562 28.0687 25.3125C27.9 26.1562 26.6062 26.2125 26.3812 26.55C26.1562 26.9438 26.4375 27.1687 26.4375 28.0687C26.4375 28.575 25.875 28.9125 25.2 28.9125H17.1562C16.5375 28.9125 15.75 28.575 15.0188 28.1813C14.3438 27.8438 13.6687 27.5063 12.9375 27.3375V18.3938C15.0188 16.8188 17.7188 14.4 18.7875 11.475C18.7875 11.4187 18.7875 11.3625 18.8438 11.3625L19.6313 7.14376C19.9125 7.03126 20.1375 7.03125 20.5875 7.03125C20.7562 7.03125 21.4312 8.04375 21.4312 11.25C21.4312 12.4875 21.2063 13.8938 20.7563 15.4688H20.5312C20.0812 15.4688 19.6875 15.8625 19.6875 16.3125C19.6875 16.7625 20.0812 17.1562 20.5312 17.1562H28.125C28.9688 17.1562 29.7562 17.55 29.7562 18.225Z" fill="#2D452E"/>
    <path d="M11.25 30.6562H6.1875C5.23125 30.6562 4.5 29.925 4.5 28.9688V17.1562C4.5 16.2 5.23125 15.4688 6.1875 15.4688H11.25C12.2063 15.4688 12.9375 16.2 12.9375 17.1562V28.9688C12.9375 29.925 12.2063 30.6562 11.25 30.6562ZM6.1875 17.1562V28.9688H11.25V17.1562H6.1875Z" fill="#2D452E"/>
</svg>
