<svg width="32" height="32" viewBox="0 0 32 32" fill="none" xmlns="http://www.w3.org/2000/svg">
<path d="M15.9998 17.3333C16.7362 17.3333 17.3332 16.7364 17.3332 16C17.3332 15.2636 16.7362 14.6667 15.9998 14.6667C15.2635 14.6667 14.6665 15.2636 14.6665 16C14.6665 16.7364 15.2635 17.3333 15.9998 17.3333Z" fill="#A1A1A1" stroke="#A1A1A1" stroke-width="2" stroke-linecap="round" stroke-linejoin="round"/>
<path d="M25.3333 17.3333C26.0697 17.3333 26.6667 16.7364 26.6667 16C26.6667 15.2636 26.0697 14.6667 25.3333 14.6667C24.597 14.6667 24 15.2636 24 16C24 16.7364 24.597 17.3333 25.3333 17.3333Z" fill="#A1A1A1" stroke="#A1A1A1" stroke-width="2" stroke-linecap="round" stroke-linejoin="round"/>
<path d="M6.66683 17.3333C7.40321 17.3333 8.00016 16.7364 8.00016 16C8.00016 15.2636 7.40321 14.6667 6.66683 14.6667C5.93045 14.6667 5.3335 15.2636 5.3335 16C5.3335 16.7364 5.93045 17.3333 6.66683 17.3333Z" fill="#A1A1A1" stroke="#A1A1A1" stroke-width="2" stroke-linecap="round" stroke-linejoin="round"/>
</svg>
