<svg width="36" height="36" viewBox="0 0 36 36" fill="none" xmlns="http://www.w3.org/2000/svg">
    <path d="M14.9452 12.8208L14.9452 12.821C14.9454 13.0095 15.0204 13.1901 15.1537 13.3234C15.287 13.4567 15.4677 13.5316 15.6562 13.5318L15.6563 13.3818L15.6563 13.5318C15.797 13.5318 15.9344 13.4901 16.0513 13.412C16.1683 13.3338 16.2594 13.2228 16.3132 13.0928C16.367 12.9629 16.3811 12.8199 16.3536 12.682C16.3262 12.5441 16.2585 12.4174 16.159 12.318C16.0596 12.2185 15.9329 12.1508 15.7949 12.1234C15.657 12.096 15.514 12.1101 15.3841 12.1639C15.2542 12.2177 15.1432 12.3088 15.065 12.4258C14.9869 12.5427 14.9452 12.6802 14.9452 12.8208Z" fill="#A1A1A1" stroke="#A1A1A1" stroke-width="0.3"/>
    <path d="M21.9518 12.8209L21.9518 12.8207C21.9516 12.6322 21.8766 12.4515 21.7434 12.3182C21.6101 12.185 21.4294 12.11 21.2409 12.1098L21.2408 12.2597L21.2408 12.1098C21.1001 12.1097 20.9627 12.1514 20.8457 12.2296C20.7288 12.3077 20.6377 12.4187 20.5838 12.5487C20.53 12.6786 20.5159 12.8215 20.5433 12.9595C20.5708 13.0974 20.6385 13.2241 20.7379 13.3235C20.8374 13.423 20.964 13.4907 21.102 13.5182C21.2399 13.5456 21.3829 13.5315 21.5128 13.4777C21.6427 13.4239 21.7538 13.3328 21.8319 13.2159C21.9101 13.099 21.9518 12.9615 21.9518 12.8209Z" fill="#A1A1A1" stroke="#A1A1A1" stroke-width="0.3"/>
    <path d="M18.4713 18.6895L18.4712 18.8395C18.1775 18.8395 17.887 18.7789 17.6178 18.6616C17.3485 18.5443 17.1064 18.3728 16.9064 18.1577L16.9063 18.1577C16.8284 18.0739 16.787 17.9626 16.7912 17.8483C16.7954 17.734 16.8448 17.6261 16.9285 17.5482C17.0123 17.4703 17.1236 17.4289 17.2379 17.4331C17.3522 17.4372 17.4602 17.4866 17.538 17.5704L17.538 17.5704C17.6608 17.7025 17.8103 17.807 17.9765 17.8771C18.1427 17.9471 18.3219 17.9811 18.5022 17.9767C18.6825 17.9723 18.8598 17.9297 19.0224 17.8516C19.185 17.7736 19.3292 17.662 19.4455 17.524L19.5602 17.6207L19.4447 17.5249C19.4811 17.4811 19.5257 17.445 19.5761 17.4185C19.6265 17.392 19.6816 17.3758 19.7383 17.3707C19.795 17.3657 19.8521 17.3719 19.9064 17.389C19.9607 17.4062 20.011 17.4339 20.0545 17.4705C20.098 17.5072 20.1339 17.5521 20.1599 17.6027C20.186 17.6533 20.2018 17.7085 20.2064 17.7653C20.2111 17.822 20.2044 17.8791 20.1869 17.9332C20.1694 17.9872 20.1414 18.0372 20.1046 18.0803C20.1045 18.0804 20.1044 18.0806 20.1042 18.0807L19.9903 17.9832L18.4713 18.6895ZM18.4713 18.6895V18.8395V18.6895Z" fill="#A1A1A1" stroke="#A1A1A1" stroke-width="0.3"/>
    <mask id="path-4-outside-1_59_261" maskUnits="userSpaceOnUse" x="4.9917" y="3.5787" width="27" height="29" fill="black">
        <rect fill="white" x="4.9917" y="3.5787" width="27" height="29"/>
        <path d="M23.1154 19.5744C23.6314 19.0667 24.0421 18.4622 24.324 17.7955C24.6059 17.1288 24.7533 16.413 24.758 15.6892C25.1661 15.6897 25.5611 15.5451 25.8725 15.2812C26.1838 15.0173 26.3912 14.6512 26.4575 14.2485L26.7229 12.661C26.7695 12.3835 26.7474 12.0988 26.6586 11.8319C26.5698 11.5649 26.4169 11.3237 26.2134 11.1294C26.2384 11.0289 26.251 10.9257 26.251 10.822V9.93797C26.2504 9.45951 26.0651 8.99975 25.7337 8.65464C25.4023 8.30953 24.9504 8.10572 24.4723 8.08574C24.1176 7.06268 23.4533 6.17539 22.5715 5.54696C21.6898 4.91853 20.6343 4.58013 19.5515 4.5787H17.3453C16.2625 4.58013 15.207 4.91853 14.3252 5.54696C13.4434 6.17539 12.7791 7.06268 12.4244 8.08574C11.9464 8.10572 11.4945 8.30953 11.1631 8.65464C10.8317 8.99975 10.6464 9.45951 10.6458 9.93797V10.822C10.6458 10.9256 10.6584 11.0289 10.6833 11.1294C10.4798 11.3237 10.327 11.5649 10.2382 11.8319C10.1494 12.0988 10.1273 12.3835 10.1739 12.661L10.4393 14.2485C10.5056 14.6512 10.713 15.0172 11.0243 15.2812C11.3356 15.5451 11.7307 15.6897 12.1388 15.6892C12.1434 16.413 12.2909 17.1288 12.5728 17.7955C12.8546 18.4622 13.2654 19.0667 13.7814 19.5743C9.21852 21.425 5.9917 25.9035 5.9917 31.1225C5.9917 31.1971 6.02133 31.2687 6.07408 31.3214C6.12682 31.3742 6.19836 31.4038 6.27295 31.4038H30.6238C30.6984 31.4038 30.7699 31.3742 30.8227 31.3214C30.8754 31.2687 30.9051 31.1971 30.9051 31.1225C30.9051 25.9035 27.6783 21.425 23.1154 19.5744ZM19.858 13.6305V11.684H24.1964V13.6305C24.1959 14.1045 24.0073 14.559 23.6722 14.8942C23.337 15.2294 22.8825 15.418 22.4085 15.4185H21.646C21.1719 15.418 20.7175 15.2294 20.3823 14.8942C20.0471 14.559 19.8585 14.1045 19.858 13.6305V13.6305ZM26.1681 12.5682L25.9027 14.1557C25.858 14.4269 25.7185 14.6733 25.509 14.8512C25.2996 15.029 25.0337 15.1266 24.7589 15.1267V11.2135H25.0211C25.1901 11.2135 25.357 11.2503 25.5103 11.3214C25.6635 11.3925 25.7995 11.4961 25.9086 11.625C26.0178 11.7539 26.0976 11.9051 26.1424 12.068C26.1872 12.2309 26.196 12.4016 26.1681 12.5682V12.5682ZM25.6885 9.93797V10.7856C25.4772 10.6968 25.2503 10.6511 25.0211 10.6511H24.7589V9.78621C24.7587 9.41072 24.7179 9.03635 24.6371 8.66965C24.9325 8.72587 25.199 8.88325 25.3909 9.11473C25.5828 9.3462 25.688 9.63731 25.6885 9.93797V9.93797ZM17.3453 5.14119H19.5515C20.783 5.14258 21.9636 5.63241 22.8344 6.50321C23.7052 7.37402 24.1951 8.55468 24.1964 9.78618V11.1215H19.5767C19.5021 11.1215 19.4306 11.1511 19.3778 11.2039C19.3251 11.2566 19.2955 11.3282 19.2955 11.4028V12.7692H17.6013V11.4028C17.6013 11.3282 17.5716 11.2566 17.5189 11.2039C17.4662 11.1511 17.3946 11.1215 17.32 11.1215H12.7003V9.78618C12.7017 8.55468 13.1915 7.37402 14.0623 6.50322C14.9331 5.63241 16.1138 5.14258 17.3453 5.14119V5.14119ZM19.2368 13.3317V14.9113C19.2368 15.1204 19.1537 15.321 19.0059 15.4688C18.858 15.6167 18.6575 15.6998 18.4484 15.6998C18.2392 15.6998 18.0387 15.6167 17.8908 15.4688C17.743 15.321 17.6599 15.1204 17.6599 14.9113V13.3317H19.2368ZM12.7003 11.684H17.0388V13.6305C17.0382 14.1045 16.8497 14.559 16.5145 14.8942C16.1793 15.2294 15.7248 15.4179 15.2508 15.4185H14.4883C14.0143 15.418 13.5598 15.2294 13.2246 14.8942C12.8894 14.559 12.7009 14.1045 12.7003 13.6305L12.7003 11.684ZM12.2596 8.66958C12.1788 9.03629 12.138 9.41065 12.1378 9.78615V10.651H11.8756C11.6464 10.651 11.4195 10.6968 11.2082 10.7855V9.93797C11.2087 9.63729 11.3139 9.34617 11.5058 9.11468C11.6977 8.88319 11.9643 8.7258 12.2596 8.66958H12.2596ZM10.9941 14.1557L10.7286 12.5682C10.7008 12.4016 10.7096 12.2309 10.7544 12.068C10.7992 11.9051 10.8789 11.7539 10.9881 11.625C11.0973 11.4961 11.2332 11.3925 11.3865 11.3214C11.5397 11.2503 11.7066 11.2135 11.8756 11.2135H12.1378V15.1267C11.863 15.1266 11.5972 15.029 11.3877 14.8511C11.1782 14.6733 11.0387 14.4268 10.9941 14.1557V14.1557ZM12.7003 15.6506V15.1538C12.9205 15.4131 13.1945 15.6213 13.5032 15.7642C13.812 15.907 14.1481 15.981 14.4883 15.981H15.2508C15.5029 15.981 15.7533 15.9403 15.9923 15.8605C15.5506 16.4647 15.1772 17.2282 15.1772 18.0839H15.7397C15.7397 16.9173 16.5888 15.921 17.1791 15.3693C17.2721 15.6286 17.4424 15.8531 17.6669 16.0127C17.8913 16.1723 18.1593 16.2594 18.4347 16.2622C18.7102 16.265 18.9799 16.1834 19.2075 16.0284C19.4352 15.8733 19.61 15.6523 19.7083 15.395C20.297 15.9513 21.1205 16.9347 21.1205 18.0839H21.683C21.683 17.2203 21.3026 16.4507 20.8556 15.8439C21.1092 15.9348 21.3766 15.9812 21.6459 15.981H22.4084C22.7486 15.981 23.0848 15.9071 23.3935 15.7642C23.7023 15.6214 23.9762 15.4131 24.1964 15.1538V15.6506C24.195 16.9641 23.6725 18.2234 22.7437 19.1522C21.8149 20.0809 20.5556 20.6034 19.2421 20.6049H17.6546C16.3411 20.6034 15.0818 20.0809 14.153 19.1521C13.2242 18.2233 12.7018 16.9641 12.7003 15.6505L12.7003 15.6506ZM19.0786 25.6197C18.8927 25.7461 18.6732 25.8136 18.4484 25.8136C18.2236 25.8136 18.004 25.7461 17.8181 25.6197C17.2267 25.2209 16.7423 24.6828 16.4075 24.0529C16.0728 23.4229 15.898 22.7204 15.8985 22.007V20.8791C16.4643 21.0701 17.0574 21.1674 17.6546 21.1674H19.2421C19.8393 21.1674 20.4324 21.0701 20.9983 20.8791V22.007C20.9987 22.7203 20.8239 23.4229 20.4892 24.0529C20.1545 24.6828 19.6701 25.2209 19.0786 25.6197L19.0786 25.6197ZM6.55738 30.8413C6.6732 25.879 9.84387 21.6596 14.257 19.9922C14.5901 20.2537 14.9521 20.476 15.3359 20.6547V22.007C15.3354 22.8124 15.5328 23.6056 15.9107 24.3169C16.2886 25.0281 16.8355 25.6356 17.5033 26.0859C17.7821 26.2753 18.1113 26.3766 18.4484 26.3766C18.7854 26.3766 19.1147 26.2753 19.3934 26.0859C20.0612 25.6356 20.6081 25.0281 20.986 24.3168C21.3639 23.6056 21.5613 22.8124 21.5607 22.007V20.6547C21.9446 20.4759 22.3066 20.2536 22.6396 19.9922C27.0528 21.6596 30.2235 25.8789 30.3393 30.8413L6.55738 30.8413Z"/>
    </mask>
    <path d="M23.1154 19.5744C23.6314 19.0667 24.0421 18.4622 24.324 17.7955C24.6059 17.1288 24.7533 16.413 24.758 15.6892C25.1661 15.6897 25.5611 15.5451 25.8725 15.2812C26.1838 15.0173 26.3912 14.6512 26.4575 14.2485L26.7229 12.661C26.7695 12.3835 26.7474 12.0988 26.6586 11.8319C26.5698 11.5649 26.4169 11.3237 26.2134 11.1294C26.2384 11.0289 26.251 10.9257 26.251 10.822V9.93797C26.2504 9.45951 26.0651 8.99975 25.7337 8.65464C25.4023 8.30953 24.9504 8.10572 24.4723 8.08574C24.1176 7.06268 23.4533 6.17539 22.5715 5.54696C21.6898 4.91853 20.6343 4.58013 19.5515 4.5787H17.3453C16.2625 4.58013 15.207 4.91853 14.3252 5.54696C13.4434 6.17539 12.7791 7.06268 12.4244 8.08574C11.9464 8.10572 11.4945 8.30953 11.1631 8.65464C10.8317 8.99975 10.6464 9.45951 10.6458 9.93797V10.822C10.6458 10.9256 10.6584 11.0289 10.6833 11.1294C10.4798 11.3237 10.327 11.5649 10.2382 11.8319C10.1494 12.0988 10.1273 12.3835 10.1739 12.661L10.4393 14.2485C10.5056 14.6512 10.713 15.0172 11.0243 15.2812C11.3356 15.5451 11.7307 15.6897 12.1388 15.6892C12.1434 16.413 12.2909 17.1288 12.5728 17.7955C12.8546 18.4622 13.2654 19.0667 13.7814 19.5743C9.21852 21.425 5.9917 25.9035 5.9917 31.1225C5.9917 31.1971 6.02133 31.2687 6.07408 31.3214C6.12682 31.3742 6.19836 31.4038 6.27295 31.4038H30.6238C30.6984 31.4038 30.7699 31.3742 30.8227 31.3214C30.8754 31.2687 30.9051 31.1971 30.9051 31.1225C30.9051 25.9035 27.6783 21.425 23.1154 19.5744ZM19.858 13.6305V11.684H24.1964V13.6305C24.1959 14.1045 24.0073 14.559 23.6722 14.8942C23.337 15.2294 22.8825 15.418 22.4085 15.4185H21.646C21.1719 15.418 20.7175 15.2294 20.3823 14.8942C20.0471 14.559 19.8585 14.1045 19.858 13.6305V13.6305ZM26.1681 12.5682L25.9027 14.1557C25.858 14.4269 25.7185 14.6733 25.509 14.8512C25.2996 15.029 25.0337 15.1266 24.7589 15.1267V11.2135H25.0211C25.1901 11.2135 25.357 11.2503 25.5103 11.3214C25.6635 11.3925 25.7995 11.4961 25.9086 11.625C26.0178 11.7539 26.0976 11.9051 26.1424 12.068C26.1872 12.2309 26.196 12.4016 26.1681 12.5682V12.5682ZM25.6885 9.93797V10.7856C25.4772 10.6968 25.2503 10.6511 25.0211 10.6511H24.7589V9.78621C24.7587 9.41072 24.7179 9.03635 24.6371 8.66965C24.9325 8.72587 25.199 8.88325 25.3909 9.11473C25.5828 9.3462 25.688 9.63731 25.6885 9.93797V9.93797ZM17.3453 5.14119H19.5515C20.783 5.14258 21.9636 5.63241 22.8344 6.50321C23.7052 7.37402 24.1951 8.55468 24.1964 9.78618V11.1215H19.5767C19.5021 11.1215 19.4306 11.1511 19.3778 11.2039C19.3251 11.2566 19.2955 11.3282 19.2955 11.4028V12.7692H17.6013V11.4028C17.6013 11.3282 17.5716 11.2566 17.5189 11.2039C17.4662 11.1511 17.3946 11.1215 17.32 11.1215H12.7003V9.78618C12.7017 8.55468 13.1915 7.37402 14.0623 6.50322C14.9331 5.63241 16.1138 5.14258 17.3453 5.14119V5.14119ZM19.2368 13.3317V14.9113C19.2368 15.1204 19.1537 15.321 19.0059 15.4688C18.858 15.6167 18.6575 15.6998 18.4484 15.6998C18.2392 15.6998 18.0387 15.6167 17.8908 15.4688C17.743 15.321 17.6599 15.1204 17.6599 14.9113V13.3317H19.2368ZM12.7003 11.684H17.0388V13.6305C17.0382 14.1045 16.8497 14.559 16.5145 14.8942C16.1793 15.2294 15.7248 15.4179 15.2508 15.4185H14.4883C14.0143 15.418 13.5598 15.2294 13.2246 14.8942C12.8894 14.559 12.7009 14.1045 12.7003 13.6305L12.7003 11.684ZM12.2596 8.66958C12.1788 9.03629 12.138 9.41065 12.1378 9.78615V10.651H11.8756C11.6464 10.651 11.4195 10.6968 11.2082 10.7855V9.93797C11.2087 9.63729 11.3139 9.34617 11.5058 9.11468C11.6977 8.88319 11.9643 8.7258 12.2596 8.66958H12.2596ZM10.9941 14.1557L10.7286 12.5682C10.7008 12.4016 10.7096 12.2309 10.7544 12.068C10.7992 11.9051 10.8789 11.7539 10.9881 11.625C11.0973 11.4961 11.2332 11.3925 11.3865 11.3214C11.5397 11.2503 11.7066 11.2135 11.8756 11.2135H12.1378V15.1267C11.863 15.1266 11.5972 15.029 11.3877 14.8511C11.1782 14.6733 11.0387 14.4268 10.9941 14.1557V14.1557ZM12.7003 15.6506V15.1538C12.9205 15.4131 13.1945 15.6213 13.5032 15.7642C13.812 15.907 14.1481 15.981 14.4883 15.981H15.2508C15.5029 15.981 15.7533 15.9403 15.9923 15.8605C15.5506 16.4647 15.1772 17.2282 15.1772 18.0839H15.7397C15.7397 16.9173 16.5888 15.921 17.1791 15.3693C17.2721 15.6286 17.4424 15.8531 17.6669 16.0127C17.8913 16.1723 18.1593 16.2594 18.4347 16.2622C18.7102 16.265 18.9799 16.1834 19.2075 16.0284C19.4352 15.8733 19.61 15.6523 19.7083 15.395C20.297 15.9513 21.1205 16.9347 21.1205 18.0839H21.683C21.683 17.2203 21.3026 16.4507 20.8556 15.8439C21.1092 15.9348 21.3766 15.9812 21.6459 15.981H22.4084C22.7486 15.981 23.0848 15.9071 23.3935 15.7642C23.7023 15.6214 23.9762 15.4131 24.1964 15.1538V15.6506C24.195 16.9641 23.6725 18.2234 22.7437 19.1522C21.8149 20.0809 20.5556 20.6034 19.2421 20.6049H17.6546C16.3411 20.6034 15.0818 20.0809 14.153 19.1521C13.2242 18.2233 12.7018 16.9641 12.7003 15.6505L12.7003 15.6506ZM19.0786 25.6197C18.8927 25.7461 18.6732 25.8136 18.4484 25.8136C18.2236 25.8136 18.004 25.7461 17.8181 25.6197C17.2267 25.2209 16.7423 24.6828 16.4075 24.0529C16.0728 23.4229 15.898 22.7204 15.8985 22.007V20.8791C16.4643 21.0701 17.0574 21.1674 17.6546 21.1674H19.2421C19.8393 21.1674 20.4324 21.0701 20.9983 20.8791V22.007C20.9987 22.7203 20.8239 23.4229 20.4892 24.0529C20.1545 24.6828 19.6701 25.2209 19.0786 25.6197L19.0786 25.6197ZM6.55738 30.8413C6.6732 25.879 9.84387 21.6596 14.257 19.9922C14.5901 20.2537 14.9521 20.476 15.3359 20.6547V22.007C15.3354 22.8124 15.5328 23.6056 15.9107 24.3169C16.2886 25.0281 16.8355 25.6356 17.5033 26.0859C17.7821 26.2753 18.1113 26.3766 18.4484 26.3766C18.7854 26.3766 19.1147 26.2753 19.3934 26.0859C20.0612 25.6356 20.6081 25.0281 20.986 24.3168C21.3639 23.6056 21.5613 22.8124 21.5607 22.007V20.6547C21.9446 20.4759 22.3066 20.2536 22.6396 19.9922C27.0528 21.6596 30.2235 25.8789 30.3393 30.8413L6.55738 30.8413Z" fill="#A1A1A1"/>
    <path d="M23.1154 19.5744C23.6314 19.0667 24.0421 18.4622 24.324 17.7955C24.6059 17.1288 24.7533 16.413 24.758 15.6892C25.1661 15.6897 25.5611 15.5451 25.8725 15.2812C26.1838 15.0173 26.3912 14.6512 26.4575 14.2485L26.7229 12.661C26.7695 12.3835 26.7474 12.0988 26.6586 11.8319C26.5698 11.5649 26.4169 11.3237 26.2134 11.1294C26.2384 11.0289 26.251 10.9257 26.251 10.822V9.93797C26.2504 9.45951 26.0651 8.99975 25.7337 8.65464C25.4023 8.30953 24.9504 8.10572 24.4723 8.08574C24.1176 7.06268 23.4533 6.17539 22.5715 5.54696C21.6898 4.91853 20.6343 4.58013 19.5515 4.5787H17.3453C16.2625 4.58013 15.207 4.91853 14.3252 5.54696C13.4434 6.17539 12.7791 7.06268 12.4244 8.08574C11.9464 8.10572 11.4945 8.30953 11.1631 8.65464C10.8317 8.99975 10.6464 9.45951 10.6458 9.93797V10.822C10.6458 10.9256 10.6584 11.0289 10.6833 11.1294C10.4798 11.3237 10.327 11.5649 10.2382 11.8319C10.1494 12.0988 10.1273 12.3835 10.1739 12.661L10.4393 14.2485C10.5056 14.6512 10.713 15.0172 11.0243 15.2812C11.3356 15.5451 11.7307 15.6897 12.1388 15.6892C12.1434 16.413 12.2909 17.1288 12.5728 17.7955C12.8546 18.4622 13.2654 19.0667 13.7814 19.5743C9.21852 21.425 5.9917 25.9035 5.9917 31.1225C5.9917 31.1971 6.02133 31.2687 6.07408 31.3214C6.12682 31.3742 6.19836 31.4038 6.27295 31.4038H30.6238C30.6984 31.4038 30.7699 31.3742 30.8227 31.3214C30.8754 31.2687 30.9051 31.1971 30.9051 31.1225C30.9051 25.9035 27.6783 21.425 23.1154 19.5744ZM19.858 13.6305V11.684H24.1964V13.6305C24.1959 14.1045 24.0073 14.559 23.6722 14.8942C23.337 15.2294 22.8825 15.418 22.4085 15.4185H21.646C21.1719 15.418 20.7175 15.2294 20.3823 14.8942C20.0471 14.559 19.8585 14.1045 19.858 13.6305V13.6305ZM26.1681 12.5682L25.9027 14.1557C25.858 14.4269 25.7185 14.6733 25.509 14.8512C25.2996 15.029 25.0337 15.1266 24.7589 15.1267V11.2135H25.0211C25.1901 11.2135 25.357 11.2503 25.5103 11.3214C25.6635 11.3925 25.7995 11.4961 25.9086 11.625C26.0178 11.7539 26.0976 11.9051 26.1424 12.068C26.1872 12.2309 26.196 12.4016 26.1681 12.5682V12.5682ZM25.6885 9.93797V10.7856C25.4772 10.6968 25.2503 10.6511 25.0211 10.6511H24.7589V9.78621C24.7587 9.41072 24.7179 9.03635 24.6371 8.66965C24.9325 8.72587 25.199 8.88325 25.3909 9.11473C25.5828 9.3462 25.688 9.63731 25.6885 9.93797V9.93797ZM17.3453 5.14119H19.5515C20.783 5.14258 21.9636 5.63241 22.8344 6.50321C23.7052 7.37402 24.1951 8.55468 24.1964 9.78618V11.1215H19.5767C19.5021 11.1215 19.4306 11.1511 19.3778 11.2039C19.3251 11.2566 19.2955 11.3282 19.2955 11.4028V12.7692H17.6013V11.4028C17.6013 11.3282 17.5716 11.2566 17.5189 11.2039C17.4662 11.1511 17.3946 11.1215 17.32 11.1215H12.7003V9.78618C12.7017 8.55468 13.1915 7.37402 14.0623 6.50322C14.9331 5.63241 16.1138 5.14258 17.3453 5.14119V5.14119ZM19.2368 13.3317V14.9113C19.2368 15.1204 19.1537 15.321 19.0059 15.4688C18.858 15.6167 18.6575 15.6998 18.4484 15.6998C18.2392 15.6998 18.0387 15.6167 17.8908 15.4688C17.743 15.321 17.6599 15.1204 17.6599 14.9113V13.3317H19.2368ZM12.7003 11.684H17.0388V13.6305C17.0382 14.1045 16.8497 14.559 16.5145 14.8942C16.1793 15.2294 15.7248 15.4179 15.2508 15.4185H14.4883C14.0143 15.418 13.5598 15.2294 13.2246 14.8942C12.8894 14.559 12.7009 14.1045 12.7003 13.6305L12.7003 11.684ZM12.2596 8.66958C12.1788 9.03629 12.138 9.41065 12.1378 9.78615V10.651H11.8756C11.6464 10.651 11.4195 10.6968 11.2082 10.7855V9.93797C11.2087 9.63729 11.3139 9.34617 11.5058 9.11468C11.6977 8.88319 11.9643 8.7258 12.2596 8.66958H12.2596ZM10.9941 14.1557L10.7286 12.5682C10.7008 12.4016 10.7096 12.2309 10.7544 12.068C10.7992 11.9051 10.8789 11.7539 10.9881 11.625C11.0973 11.4961 11.2332 11.3925 11.3865 11.3214C11.5397 11.2503 11.7066 11.2135 11.8756 11.2135H12.1378V15.1267C11.863 15.1266 11.5972 15.029 11.3877 14.8511C11.1782 14.6733 11.0387 14.4268 10.9941 14.1557V14.1557ZM12.7003 15.6506V15.1538C12.9205 15.4131 13.1945 15.6213 13.5032 15.7642C13.812 15.907 14.1481 15.981 14.4883 15.981H15.2508C15.5029 15.981 15.7533 15.9403 15.9923 15.8605C15.5506 16.4647 15.1772 17.2282 15.1772 18.0839H15.7397C15.7397 16.9173 16.5888 15.921 17.1791 15.3693C17.2721 15.6286 17.4424 15.8531 17.6669 16.0127C17.8913 16.1723 18.1593 16.2594 18.4347 16.2622C18.7102 16.265 18.9799 16.1834 19.2075 16.0284C19.4352 15.8733 19.61 15.6523 19.7083 15.395C20.297 15.9513 21.1205 16.9347 21.1205 18.0839H21.683C21.683 17.2203 21.3026 16.4507 20.8556 15.8439C21.1092 15.9348 21.3766 15.9812 21.6459 15.981H22.4084C22.7486 15.981 23.0848 15.9071 23.3935 15.7642C23.7023 15.6214 23.9762 15.4131 24.1964 15.1538V15.6506C24.195 16.9641 23.6725 18.2234 22.7437 19.1522C21.8149 20.0809 20.5556 20.6034 19.2421 20.6049H17.6546C16.3411 20.6034 15.0818 20.0809 14.153 19.1521C13.2242 18.2233 12.7018 16.9641 12.7003 15.6505L12.7003 15.6506ZM19.0786 25.6197C18.8927 25.7461 18.6732 25.8136 18.4484 25.8136C18.2236 25.8136 18.004 25.7461 17.8181 25.6197C17.2267 25.2209 16.7423 24.6828 16.4075 24.0529C16.0728 23.4229 15.898 22.7204 15.8985 22.007V20.8791C16.4643 21.0701 17.0574 21.1674 17.6546 21.1674H19.2421C19.8393 21.1674 20.4324 21.0701 20.9983 20.8791V22.007C20.9987 22.7203 20.8239 23.4229 20.4892 24.0529C20.1545 24.6828 19.6701 25.2209 19.0786 25.6197L19.0786 25.6197ZM6.55738 30.8413C6.6732 25.879 9.84387 21.6596 14.257 19.9922C14.5901 20.2537 14.9521 20.476 15.3359 20.6547V22.007C15.3354 22.8124 15.5328 23.6056 15.9107 24.3169C16.2886 25.0281 16.8355 25.6356 17.5033 26.0859C17.7821 26.2753 18.1113 26.3766 18.4484 26.3766C18.7854 26.3766 19.1147 26.2753 19.3934 26.0859C20.0612 25.6356 20.6081 25.0281 20.986 24.3168C21.3639 23.6056 21.5613 22.8124 21.5607 22.007V20.6547C21.9446 20.4759 22.3066 20.2536 22.6396 19.9922C27.0528 21.6596 30.2235 25.8789 30.3393 30.8413L6.55738 30.8413Z" stroke="#A1A1A1" stroke-width="0.6" mask="url(#path-4-outside-1_59_261)"/>
</svg>
