<svg width="24" height="24" viewBox="0 0 24 24" fill="none" xmlns="http://www.w3.org/2000/svg">
    <path d="M6.47977 23.8633H20.3571C21.2006 23.8633 21.8844 23.1797 21.8844 22.3413V3.94133C21.8844 3.09772 21.2007 2.414 20.3571 2.414H9.17311C9.00149 2.414 8.86711 2.54838 8.86711 2.72C8.86711 2.89161 9.00149 3.026 9.17311 3.026H20.3571C20.8628 3.026 21.2724 3.43561 21.2724 3.94133V22.3413C21.2724 22.847 20.8628 23.2567 20.3571 23.2567H6.47977C5.97406 23.2567 5.56444 22.847 5.56444 22.3413V7.424C5.56444 7.25238 5.43006 7.118 5.25844 7.118C5.08683 7.118 4.95244 7.25238 4.95244 7.424V22.336C4.95244 23.1796 5.63616 23.8633 6.47977 23.8633Z" fill="#946800" stroke="#946800" stroke-width="0.1"/>
    <path d="M9.71923 4C9.71923 1.91372 8.01684 0.211333 5.93056 0.211333C3.84419 0.211333 2.14189 1.91915 2.14189 4.00533C2.14189 6.09157 3.8389 7.794 5.93056 7.794C8.02211 7.794 9.72456 6.09168 9.71923 4ZM9.71923 4H9.66923L9.71923 3.99987C9.71923 3.99991 9.71923 3.99996 9.71923 4ZM9.10723 3.99985V4C9.10723 5.75372 7.68428 7.17667 5.93056 7.17667C4.17684 7.17667 2.75389 5.75372 2.75389 4C2.75389 2.24628 4.17684 0.823334 5.93056 0.823334C7.68436 0.823334 9.11248 2.25166 9.10723 3.99985Z" fill="#946800" stroke="#946800" stroke-width="0.1"/>
    <path d="M19.9003 12.4393L19.9004 12.4393V12.4373C19.9004 12.2657 19.766 12.1313 19.5944 12.1313H7.2477C7.07608 12.1313 6.9417 12.2657 6.9417 12.4373C6.9417 12.6089 7.07608 12.7433 7.2477 12.7433H19.5944C19.7623 12.7433 19.8941 12.6023 19.9003 12.4393Z" fill="#946800" stroke="#946800" stroke-width="0.1"/>
    <path d="M9.71527 12.4373C9.71527 12.6089 9.84965 12.7433 10.0213 12.7433C10.1882 12.7433 10.3273 12.6029 10.3273 12.432V8.05867C10.3273 7.76935 10.0912 7.53933 9.80793 7.53933H8.73594C8.44662 7.53933 8.2166 7.77542 8.2166 8.05867V12.432C8.2166 12.6036 8.35099 12.738 8.5226 12.738C8.69422 12.738 8.8286 12.6036 8.8286 12.432V8.15667H9.71527V12.4373Z" fill="#946800" stroke="#946800" stroke-width="0.1"/>
    <path d="M12.478 12.4373C12.478 12.6089 12.6123 12.7433 12.784 12.7433C12.9563 12.7433 13.09 12.6029 13.09 12.4373V7.12C13.09 6.83068 12.8539 6.60067 12.5706 6.60067H11.4986C11.2093 6.60067 10.9793 6.83675 10.9793 7.12V12.4373C10.9793 12.6089 11.1137 12.7433 11.2853 12.7433C11.4569 12.7433 11.5913 12.6089 11.5913 12.4373V7.21267H12.478V12.4373Z" fill="#946800" stroke="#946800" stroke-width="0.1"/>
    <path d="M15.246 12.4373C15.246 12.6089 15.3804 12.7433 15.552 12.7433C15.7183 12.7433 15.858 12.6036 15.858 12.4373V5.97333C15.858 5.68401 15.6219 5.454 15.3387 5.454H14.2667C13.9774 5.454 13.7474 5.69009 13.7474 5.97333V12.4373C13.7474 12.6089 13.8817 12.7433 14.0534 12.7433C14.225 12.7433 14.3594 12.6089 14.3594 12.4373V6.07133H15.246V12.4373Z" fill="#946800" stroke="#946800" stroke-width="0.1"/>
    <path d="M18.0087 12.4373C18.0087 12.6089 18.1431 12.7433 18.3147 12.7433C18.487 12.7433 18.6207 12.6029 18.6207 12.4373V4.59733C18.6207 4.30801 18.3846 4.078 18.1014 4.078H17.0294C16.7401 4.078 16.5101 4.31409 16.5101 4.59733V12.4373C16.5101 12.6089 16.6444 12.7433 16.8161 12.7433C16.9877 12.7433 17.1221 12.6089 17.1221 12.4373V4.69H18.0087V12.4373Z" fill="#946800" stroke="#946800" stroke-width="0.1"/>
    <path d="M17.2746 14.7913H19.5946C19.7602 14.7913 19.9006 14.6576 19.9006 14.4853C19.9006 14.3137 19.7662 14.1793 19.5946 14.1793H17.2746C17.1029 14.1793 16.9686 14.3137 16.9686 14.4853C16.9686 14.6569 17.1029 14.7913 17.2746 14.7913Z" fill="#946800" stroke="#946800" stroke-width="0.1"/>
    <path d="M7.2477 14.7913H15.253C15.4186 14.7913 15.559 14.6576 15.559 14.4853C15.559 14.3137 15.4246 14.1793 15.253 14.1793H7.2477C7.07608 14.1793 6.9417 14.3137 6.9417 14.4853C6.9417 14.6569 7.07608 14.7913 7.2477 14.7913Z" fill="#946800" stroke="#946800" stroke-width="0.1"/>
    <path d="M17.2746 17.1113H19.5946C19.7602 17.1113 19.9006 16.9776 19.9006 16.8053C19.9006 16.6337 19.7662 16.4993 19.5946 16.4993H17.2746C17.1029 16.4993 16.9686 16.6337 16.9686 16.8053C16.9686 16.9769 17.1029 17.1113 17.2746 17.1113Z" fill="#946800" stroke="#946800" stroke-width="0.1"/>
    <path d="M7.2477 17.1113H15.253C15.4186 17.1113 15.559 16.9776 15.559 16.8053C15.559 16.6337 15.4246 16.4993 15.253 16.4993H7.2477C7.07608 16.4993 6.9417 16.6337 6.9417 16.8053C6.9417 16.9769 7.07608 17.1113 7.2477 17.1113Z" fill="#946800" stroke="#946800" stroke-width="0.1"/>
    <path d="M17.2746 19.4367H19.5946C19.7602 19.4367 19.9006 19.303 19.9006 19.1307C19.9006 18.9591 19.7662 18.8247 19.5946 18.8247H17.2746C17.1029 18.8247 16.9686 18.9591 16.9686 19.1307C16.9686 19.3023 17.1029 19.4367 17.2746 19.4367Z" fill="#946800" stroke="#946800" stroke-width="0.1"/>
    <path d="M7.2477 19.4367H15.253C15.4186 19.4367 15.559 19.303 15.559 19.1307C15.559 18.9591 15.4246 18.8247 15.253 18.8247H7.2477C7.07608 18.8247 6.9417 18.9591 6.9417 19.1307C6.9417 19.3023 7.07608 19.4367 7.2477 19.4367Z" fill="#946800" stroke="#946800" stroke-width="0.1"/>
    <path d="M17.2746 21.7567H19.5946C19.7602 21.7567 19.9006 21.623 19.9006 21.4507C19.9006 21.2791 19.7662 21.1447 19.5946 21.1447H17.2746C17.1029 21.1447 16.9686 21.2791 16.9686 21.4507C16.9686 21.6223 17.1029 21.7567 17.2746 21.7567Z" fill="#946800" stroke="#946800" stroke-width="0.1"/>
    <path d="M7.2477 21.7567H15.253C15.4186 21.7567 15.559 21.623 15.559 21.4507C15.559 21.2791 15.4246 21.1447 15.253 21.1447H7.2477C7.07608 21.1447 6.9417 21.2791 6.9417 21.4507C6.9417 21.6223 7.07608 21.7567 7.2477 21.7567Z" fill="#946800" stroke="#946800" stroke-width="0.1"/>
    <path d="M6.00803 5.66255L6.00804 5.66255L6.00866 5.66192L7.91235 3.74758C8.10367 3.56171 8.20454 3.30868 8.20454 3.04533C8.20454 2.78133 8.0979 2.52879 7.91284 2.34359C7.72697 2.15223 7.47391 2.05133 7.21054 2.05133C6.94641 2.05133 6.69375 2.15808 6.50852 2.34331L5.2993 3.55254C5.11919 3.39897 4.89202 3.31533 4.65054 3.31533C4.38653 3.31533 4.13399 3.42198 3.94878 3.60705C3.75743 3.79292 3.65654 4.04597 3.65654 4.30933C3.65654 4.57347 3.76329 4.82613 3.94852 5.01136L4.59892 5.66176C4.78479 5.85311 5.03785 5.954 5.30121 5.954C5.57095 5.954 5.81791 5.84707 6.00803 5.66255ZM4.38723 4.57798L4.38725 4.57796L4.38607 4.57686C4.31183 4.50726 4.27388 4.40896 4.27388 4.30933C4.27388 4.21199 4.3156 4.11713 4.38835 4.03953C4.45817 3.96506 4.55126 3.92733 4.65588 3.92733C4.75499 3.92733 4.85351 3.96494 4.9288 4.04493L4.92878 4.04495L4.92985 4.04602L5.08985 4.20602C5.14728 4.26345 5.22402 4.29533 5.30654 4.29533C5.38907 4.29533 5.4658 4.26345 5.52323 4.20602L6.94723 2.78202L6.94725 2.78204L6.94835 2.78086C7.01795 2.70662 7.11625 2.66867 7.21588 2.66867C7.31322 2.66867 7.40808 2.71039 7.48568 2.78314C7.55992 2.85274 7.59788 2.95104 7.59788 3.05067C7.59788 3.14887 7.55553 3.2483 7.48452 3.31931L5.57519 5.22864L5.57517 5.22863L5.57407 5.2298C5.50447 5.30404 5.40617 5.342 5.30654 5.342C5.20834 5.342 5.10891 5.29966 5.0379 5.22864L4.38723 4.57798Z" fill="#946800" stroke="#946800" stroke-width="0.1"/>
</svg>
