<svg width="24" height="24" viewBox="0 0 24 24" fill="none" xmlns="http://www.w3.org/2000/svg">
    <path d="M12.3135 13.0982C12.2691 13.0885 12.2235 13.0868 12.1786 13.0935C11.7278 13.0411 11.3878 12.6597 11.387 12.2061C11.387 11.9887 11.2107 11.8124 10.9933 11.8124C10.7759 11.8124 10.5997 11.9887 10.5997 12.2061C10.6008 12.9636 11.1075 13.6271 11.8379 13.8276V14.2213C11.8379 14.4387 12.0142 14.615 12.2316 14.615C12.449 14.615 12.6253 14.4387 12.6253 14.2213V13.8515C13.4684 13.675 14.0414 12.8898 13.9528 12.0331C13.864 11.1763 13.1422 10.5253 12.2808 10.5251C11.7872 10.5251 11.387 10.1249 11.387 9.63125C11.387 9.13763 11.7872 8.73742 12.2808 8.73742C12.7744 8.73742 13.1746 9.13763 13.1746 9.63125C13.1746 9.84865 13.3509 10.0249 13.5683 10.0249C13.7857 10.0249 13.962 9.84865 13.962 9.63125C13.9608 8.83584 13.4036 8.1498 12.6253 7.98564V7.62734C12.6253 7.40994 12.449 7.23367 12.2316 7.23367C12.0142 7.23367 11.8379 7.40994 11.8379 7.62734V8.00967C11.0256 8.23149 10.5028 9.02018 10.6146 9.8548C10.7265 10.6894 11.4387 11.3124 12.2808 11.3122C12.7679 11.3122 13.1652 11.7022 13.1741 12.1891C13.1831 12.676 12.8002 13.0805 12.3135 13.0982Z" fill="#946800"/>
    <path d="M6.57227 10.9489C6.57227 14.1017 9.12804 16.6575 12.2809 16.6575C15.4337 16.6575 17.9894 14.1017 17.9894 10.9489C17.9894 7.79612 15.4337 5.24034 12.2809 5.24034C9.12958 5.2438 6.57592 7.79765 6.57227 10.9489ZM12.2809 6.02768C14.9989 6.02768 17.2021 8.23092 17.2021 10.9489C17.2021 13.6669 14.9989 15.8702 12.2809 15.8702C9.56284 15.8702 7.3596 13.6669 7.3596 10.9489C7.36268 8.23227 9.56419 6.03076 12.2809 6.02768Z" fill="#946800"/>
    <path d="M19.9298 17.628L16.846 19.0851C16.4203 18.2931 15.6035 17.7891 14.7047 17.7637L11.8579 17.6855C11.4071 17.6726 10.9648 17.5585 10.564 17.3514L10.2744 17.2013C8.79118 16.4282 7.02332 16.4301 5.54168 17.2063L5.55975 16.5501C5.56571 16.3327 5.39444 16.1516 5.17704 16.1456L2.05536 16.0597C1.83796 16.0537 1.65708 16.225 1.65112 16.4424L1.46255 23.2928C1.45659 23.5102 1.62786 23.6913 1.84527 23.6972L4.96694 23.7832H4.9777C5.19107 23.7832 5.36561 23.6134 5.37137 23.4003L5.38041 23.0725L6.19139 22.6383C6.50971 22.467 6.88185 22.4263 7.22958 22.5247L12.0724 23.8839C12.0809 23.8864 12.0893 23.8883 12.098 23.8902C12.448 23.9635 12.8048 24.0002 13.1623 24C13.9196 24.0004 14.6682 23.8372 15.3565 23.5212C15.3734 23.5135 15.3898 23.5044 15.4053 23.4942L22.427 18.9524C22.6019 18.8392 22.6584 18.6095 22.556 18.4281C22.0347 17.5031 20.8784 17.1508 19.9298 17.628ZM2.26046 22.921L2.42731 16.8576L4.76184 16.9218L4.59499 22.9854L2.26046 22.921ZM15.0019 22.818C14.1467 23.204 13.1915 23.3105 12.2723 23.1227L7.44256 21.7669C6.89896 21.6134 6.3171 21.677 5.81983 21.9444L5.4054 22.1664L5.51631 18.1349C6.82956 17.2615 8.51381 17.1717 9.91241 17.9004L10.2021 18.0505C10.7084 18.312 11.2668 18.4561 11.8364 18.4727L14.6833 18.5509C15.483 18.574 16.1621 19.1433 16.3243 19.9268L12.0837 19.8098C11.8663 19.8038 11.6855 19.9753 11.6793 20.1925C11.6733 20.4099 11.8448 20.5909 12.062 20.5969L16.7418 20.7257H16.7528C16.966 20.7255 17.1403 20.5558 17.1461 20.3428C17.1509 20.1717 17.1382 20.0004 17.108 19.832L20.271 18.3375C20.2741 18.3362 20.2772 18.3346 20.2803 18.3331C20.7289 18.1061 21.2713 18.182 21.6404 18.5236L15.0019 22.818Z" fill="#946800"/>
    <path d="M12.6745 4.13353V0.393669C12.6745 0.176267 12.4983 0 12.2809 0C12.0635 0 11.8872 0.176267 11.8872 0.393669V4.13353C11.8872 4.35093 12.0635 4.5272 12.2809 4.5272C12.4983 4.5272 12.6745 4.35093 12.6745 4.13353Z" fill="#946800"/>
    <path d="M15.6267 4.13353V2.36201C15.6267 2.14461 15.4504 1.96835 15.233 1.96835C15.0156 1.96835 14.8394 2.14461 14.8394 2.36201V4.13353C14.8394 4.35093 15.0156 4.5272 15.233 4.5272C15.4504 4.5272 15.6267 4.35093 15.6267 4.13353Z" fill="#946800"/>
    <path d="M9.72191 4.13353V2.36201C9.72191 2.14461 9.54564 1.96835 9.32824 1.96835C9.11084 1.96835 8.93457 2.14461 8.93457 2.36201V4.13353C8.93457 4.35093 9.11084 4.5272 9.32824 4.5272C9.54564 4.5272 9.72191 4.35093 9.72191 4.13353Z" fill="#946800"/>
</svg>
