<svg width="24" height="22" viewBox="0 0 24 22" fill="none" xmlns="http://www.w3.org/2000/svg">
    <path d="M11.2448 14C11.286 14.008 11.3279 14.012 11.3698 14.0119C11.5252 14.0118 11.6756 13.9574 11.7951 13.8581C11.9146 13.7588 11.9956 13.6209 12.0242 13.4682C12.0683 13.2416 12.0909 13.0114 12.0917 12.7807C12.0917 11.2032 11.1023 9.83379 9.6642 9.16754C9.97923 8.89161 10.2317 8.55162 10.4048 8.17029C10.5779 7.78896 10.6676 7.37507 10.6679 6.95629C10.6679 5.32129 9.32232 3.99129 7.66795 3.99129C6.01357 3.99129 4.66795 5.32129 4.66795 6.95629C4.66854 7.37851 4.75993 7.79566 4.93592 8.17946C5.11191 8.56325 5.36839 8.90471 5.68795 9.18066C4.26482 9.85129 3.28857 11.2125 3.28857 12.78C3.28993 13.0097 3.31231 13.2388 3.35545 13.4644C3.37137 13.5506 3.40411 13.6328 3.4518 13.7063C3.49949 13.7798 3.5612 13.8433 3.6334 13.8929C3.70559 13.9426 3.78687 13.9776 3.87258 13.9959C3.9583 14.0141 4.04677 14.0153 4.13295 13.9994C4.21913 13.9835 4.30133 13.9507 4.37486 13.9031C4.44838 13.8554 4.5118 13.7937 4.56147 13.7215C4.61115 13.6493 4.64613 13.568 4.6644 13.4823C4.68266 13.3966 4.68387 13.3081 4.66795 13.2219C4.6396 13.0763 4.62454 12.9284 4.62295 12.78C4.62295 11.285 5.99795 10.0694 7.69233 10.0694C9.3867 10.0694 10.7605 11.285 10.7605 12.78C10.7593 12.9269 10.7444 13.0734 10.7161 13.2175C10.6992 13.3037 10.6995 13.3923 10.717 13.4783C10.7344 13.5642 10.7687 13.6459 10.8179 13.7187C10.867 13.7914 10.93 13.8537 11.0033 13.9019C11.0765 13.9502 11.1586 13.9836 11.2448 14ZM7.6667 5.32379C8.58607 5.32379 9.33358 6.05629 9.33358 6.95566C9.33358 7.85504 8.58358 8.58816 7.6667 8.58816C6.74982 8.58816 6.00045 7.85566 6.00045 6.95566C6.00045 6.05566 6.75045 5.32379 7.6667 5.32379Z" fill="#946800" stroke="white" stroke-width="0.4"/>
    <path d="M12 21.3706C11.8248 21.3711 11.6512 21.3368 11.4893 21.2698C11.3274 21.2027 11.1804 21.1042 11.0569 20.98L12 21.3706ZM12 21.3706C12.1749 21.3711 12.3482 21.3368 12.5098 21.2697M12 21.3706L12.5098 21.2697M12.5098 21.2697C12.6714 21.2027 12.818 21.1042 12.9412 20.98L12.5098 21.2697ZM7.80161 17.9H7.80125H2.66634C1.9859 17.8994 1.33351 17.6288 0.852368 17.1476C0.371224 16.6665 0.100637 16.0141 0.1 15.3337L0.1 2.66692C0.100649 1.98644 0.371218 1.334 0.852338 0.852763C1.33347 0.371519 1.98586 0.100796 2.66637 0.0999999L21.3331 0.1C22.0136 0.100811 22.666 0.371515 23.1473 0.852733C23.6285 1.33397 23.8992 1.98643 23.9 2.66699V4.66687C23.9 4.81722 23.8403 4.96141 23.734 5.06772C23.6277 5.17403 23.4835 5.23375 23.3331 5.23375C23.1828 5.23375 23.0386 5.17403 22.9323 5.06772C22.826 4.96141 22.7663 4.81722 22.7663 4.66687V2.66687V2.66673C22.7657 2.28685 22.6146 1.92267 22.3459 1.65405C22.0773 1.38543 21.7132 1.23428 21.3333 1.23375H21.3331L2.66625 1.23375L2.66611 1.23375C2.28622 1.23428 1.92205 1.38543 1.65343 1.65405C1.3848 1.92267 1.23366 2.28685 1.23313 2.66673V2.66687L1.23312 15.3312L1.23313 15.3314C1.23366 15.7113 1.3848 16.0755 1.65343 16.3441C1.92205 16.6127 2.28622 16.7638 2.66611 16.7644H2.66625H7.80125H7.80151C8.05095 16.7637 8.29804 16.8125 8.5285 16.908C8.75895 17.0035 8.96819 17.1437 9.1441 17.3205L9.14426 17.3207L11.9293 20.1082L12 20.179L12.0707 20.1082L14.8557 17.3207L14.8558 17.3206C15.0319 17.1442 15.2412 17.0045 15.4717 16.9094C15.7021 16.8144 15.9491 16.7659 16.1984 16.7669H16.1987H21.3331H21.3333C21.7132 16.7663 22.0773 16.6152 22.3459 16.3466C22.6146 16.078 22.7657 15.7138 22.7663 15.3339V15.3337V8C22.7663 7.84965 22.826 7.70547 22.9323 7.59916C23.0386 7.49285 23.1828 7.43312 23.3331 7.43312C23.4835 7.43312 23.6277 7.49285 23.734 7.59916C23.8403 7.70547 23.9 7.84966 23.9 8V15.3336C23.8992 16.0143 23.6283 16.6669 23.1468 17.1481C22.6653 17.6292 22.0126 17.8997 21.3319 17.9C21.3319 17.9 21.3318 17.9 21.3318 17.9H16.1975L16.1971 17.9C15.9941 17.9007 15.7995 17.9815 15.6557 18.1248L15.6555 18.1249L12.8705 20.9093L12.8703 20.9096C12.7564 21.0243 12.6208 21.1154 12.4715 21.1773C12.3221 21.2393 12.162 21.271 12.0003 21.2706H11.9997C11.8377 21.2711 11.6772 21.2394 11.5276 21.1774C11.3779 21.1154 11.242 21.0243 11.1278 20.9095L11.1276 20.9093L8.34321 18.1249L8.34307 18.1248C8.1992 17.9815 8.00465 17.9007 7.80161 17.9Z" fill="#946800" stroke="white" stroke-width="0.2"/>
    <path d="M16.6661 12C16.7537 12.0001 16.8404 11.9829 16.9213 11.9495C17.0022 11.916 17.0757 11.8669 17.1376 11.8051C17.1996 11.7432 17.2487 11.6697 17.2822 11.5889C17.3158 11.508 17.333 11.4213 17.333 11.3337V9.33374H19.333C19.5099 9.33374 19.6795 9.26348 19.8046 9.13842C19.9296 9.01336 19.9999 8.84373 19.9999 8.66687C19.9999 8.49 19.9296 8.32038 19.8046 8.19532C19.6795 8.07025 19.5099 7.99999 19.333 7.99999H17.333V5.99999C17.3277 5.82674 17.2551 5.66236 17.1307 5.54169C17.0063 5.42102 16.8398 5.35353 16.6664 5.35353C16.4931 5.35353 16.3266 5.42102 16.2022 5.54169C16.0777 5.66236 16.0052 5.82674 15.9999 5.99999V7.99999H13.9999C13.823 7.99999 13.6534 8.07025 13.5283 8.19532C13.4033 8.32038 13.333 8.49 13.333 8.66687C13.333 8.84373 13.4033 9.01336 13.5283 9.13842C13.6534 9.26348 13.823 9.33374 13.9999 9.33374H15.9999V11.3337C15.9999 11.5104 16.0701 11.6799 16.195 11.8049C16.32 11.9298 16.4894 12 16.6661 12Z" fill="#946800" stroke="white" stroke-width="0.4"/>
</svg>
