<svg width="24" height="24" viewBox="0 0 24 24" fill="none" xmlns="http://www.w3.org/2000/svg">
    <g clip-path="url(#clip0_815_731)">
        <path d="M9.1127 4.8375C8.89651 4.56978 8.62881 4.34816 8.32544 4.18575C8.02207 4.02333 7.68921 3.92344 7.34654 3.89197C7.00387 3.8605 6.65838 3.8981 6.3305 4.00254C6.00263 4.10698 5.69904 4.27614 5.4377 4.5C4.90255 4.95698 4.56758 5.60531 4.5045 6.3062C4.44142 7.00708 4.65525 7.70481 5.1002 8.25C5.31731 8.51849 5.58624 8.74053 5.89097 8.90288C6.19571 9.06524 6.53001 9.16458 6.87395 9.195C6.95395 9.195 7.0327 9.195 7.1102 9.195C7.72277 9.1962 8.31524 8.97652 8.77895 8.57625C9.31029 8.1191 9.64241 7.47277 9.70473 6.77462C9.76705 6.07647 9.55466 5.38153 9.1127 4.8375ZM6.94145 8.43C6.69699 8.40737 6.45954 8.33598 6.24313 8.22004C6.02671 8.10411 5.83573 7.94598 5.68145 7.755C5.3642 7.36351 5.21183 6.86389 5.25663 6.36199C5.30143 5.86009 5.53988 5.39536 5.92145 5.06625C6.25638 4.77913 6.68408 4.62324 7.1252 4.6275H7.2902C7.53477 4.64971 7.77236 4.72092 7.98883 4.83689C8.2053 4.95285 8.39622 5.1112 8.5502 5.3025C8.86837 5.69361 9.02132 6.19345 8.97649 6.69564C8.93167 7.19782 8.69261 7.66267 8.3102 7.99125C8.12419 8.1541 7.90674 8.27706 7.67132 8.35253C7.43589 8.428 7.18748 8.45436 6.94145 8.43Z" fill="#946800"/>
        <path d="M18.9076 16.455L20.1526 18.975C20.2094 19.0885 20.2785 19.1954 20.3588 19.2938C20.4948 19.4614 20.6629 19.6001 20.8534 19.7017C21.0438 19.8034 21.2527 19.8658 21.4676 19.8854C21.6826 19.9049 21.8993 19.8813 22.105 19.8157C22.3106 19.7502 22.5011 19.6441 22.6651 19.5038C22.9509 19.257 23.1455 18.9213 23.2176 18.5507C23.2897 18.18 23.2351 17.7959 23.0626 17.46L21.4088 14.25C21.3361 14.1051 21.2468 13.9692 21.1426 13.845C20.8855 13.5181 20.5428 13.2689 20.1526 13.125C19.2136 12.7904 18.2111 12.6725 17.2201 12.78L16.1738 12.8925L15.3263 11.8575C15.4151 11.7644 15.499 11.6668 15.5776 11.565L17.3851 9.23625C17.6319 8.93297 17.7567 8.54856 17.7352 8.15815C17.7137 7.76773 17.5474 7.39935 17.2688 7.125C17.1115 6.9796 16.9242 6.87063 16.72 6.80582C16.5158 6.741 16.2999 6.72195 16.0876 6.75C15.8919 6.7734 15.7028 6.83512 15.531 6.93163C15.3592 7.02815 15.2081 7.15757 15.0863 7.3125L13.6201 9.1875C13.5451 9.28183 13.4609 9.3685 13.3688 9.44625L13.3013 9.375C13.2694 9.33872 13.2518 9.29206 13.2518 9.24375C13.2518 9.19544 13.2694 9.14878 13.3013 9.1125C13.9743 8.36287 14.3577 7.39765 14.3825 6.39053C14.4072 5.38342 14.0717 4.40053 13.4363 3.61875L11.5613 1.33125C11.3762 1.09518 11.1246 0.920018 10.839 0.8284C10.5533 0.736783 10.2468 0.732915 9.95892 0.817296C9.67106 0.901677 9.4151 1.07043 9.22413 1.30176C9.03315 1.53309 8.91591 1.81636 8.88757 2.115C8.8528 2.51237 8.97381 2.90769 9.22507 3.2175L10.7251 5.06625C11.0215 5.43044 11.1643 5.89589 11.123 6.36366C11.0816 6.83144 10.8595 7.26466 10.5038 7.57125L9.26257 8.65875C8.5892 9.23927 8.16836 10.0592 8.08926 10.9447C8.01015 11.8303 8.279 12.7118 8.83882 13.4025L16.3763 22.6463C16.5146 22.8157 16.6853 22.9557 16.8785 23.0581C17.0718 23.1605 17.2835 23.2232 17.5013 23.2425H17.6513C18.0534 23.2502 18.4444 23.1101 18.7501 22.8488C19.0897 22.5589 19.3032 22.1483 19.3452 21.7037C19.3872 21.2592 19.2545 20.8158 18.9751 20.4675L15.4951 16.2225L18.3751 16.125C18.4855 16.126 18.5936 16.1573 18.6875 16.2155C18.7814 16.2737 18.8575 16.3565 18.9076 16.455ZM15.4163 15.4725C15.2821 15.4786 15.1521 15.5218 15.0409 15.5973C14.9297 15.6727 14.8416 15.7775 14.7863 15.9C14.7352 16.0228 14.7176 16.1569 14.7354 16.2887C14.7532 16.4205 14.8057 16.5452 14.8876 16.65L18.3751 20.9438C18.5309 21.1397 18.6043 21.3887 18.5798 21.6378C18.5553 21.887 18.4348 22.1169 18.2438 22.2788C18.1514 22.3581 18.0442 22.4182 17.9282 22.4556C17.8123 22.4929 17.6901 22.5067 17.5688 22.4963C17.45 22.4869 17.3343 22.453 17.2292 22.3969C17.124 22.3408 17.0315 22.2635 16.9576 22.17L9.42007 12.93C8.98359 12.391 8.77396 11.7034 8.83556 11.0125C8.89715 10.3217 9.22513 9.68201 9.75007 9.22875L11.0251 8.14875C11.5295 7.71424 11.8445 7.10019 11.9033 6.43706C11.9622 5.77393 11.7601 5.114 11.3401 4.5975L9.84007 2.745C9.71275 2.58646 9.65102 2.38516 9.66757 2.1825C9.6773 2.07325 9.71006 1.96731 9.76371 1.87164C9.81736 1.77598 9.89067 1.69277 9.97882 1.6275C10.1427 1.52187 10.3404 1.48211 10.5324 1.51619C10.7244 1.55027 10.8963 1.65567 11.0138 1.81125L12.8888 4.095C13.4113 4.74187 13.6846 5.55459 13.6592 6.38572C13.6337 7.21685 13.3112 8.01132 12.7501 8.625C12.6023 8.78752 12.5152 8.99613 12.5035 9.21551C12.4919 9.43488 12.5565 9.65153 12.6863 9.82875C12.2932 9.92927 11.8772 9.88673 11.5126 9.70875C11.4235 9.66454 11.3206 9.65748 11.2264 9.68912C11.1322 9.72077 11.0544 9.78852 11.0101 9.8775C10.9883 9.9218 10.9755 9.96997 10.9724 10.0192C10.9693 10.0685 10.976 10.1179 10.992 10.1646C11.008 10.2113 11.0331 10.2543 11.0658 10.2913C11.0985 10.3283 11.1382 10.3584 11.1826 10.38C11.6895 10.6334 12.2691 10.7016 12.821 10.5729C13.373 10.4442 13.8626 10.1265 14.2051 9.675L15.6713 7.8C15.733 7.71843 15.8112 7.65077 15.9008 7.60145C15.9903 7.55213 16.0893 7.52225 16.1912 7.51375C16.2931 7.50526 16.3957 7.51835 16.4922 7.55217C16.5887 7.58598 16.677 7.63976 16.7513 7.71C16.8883 7.85746 16.9675 8.04937 16.9744 8.2505C16.9813 8.45164 16.9154 8.64852 16.7888 8.805L15.0001 11.1112C14.729 11.4621 14.3901 11.7548 14.0036 11.9719C13.617 12.189 13.1907 12.3261 12.7501 12.375C12.5231 12.3975 12.2945 12.3975 12.0676 12.375C11.9681 12.3651 11.8688 12.395 11.7914 12.4583C11.7141 12.5216 11.665 12.613 11.6551 12.7125C11.6451 12.812 11.6751 12.9113 11.7384 12.9886C11.8017 13.066 11.8931 13.1151 11.9926 13.125H12.3863C12.5367 13.1256 12.687 13.1168 12.8363 13.0988C13.5359 13.0226 14.2032 12.764 14.7713 12.3488L15.7276 13.5225C15.767 13.5706 15.8179 13.6082 15.8755 13.6317C15.9331 13.6553 15.9957 13.6642 16.0576 13.6575L17.3063 13.5225C18.1859 13.4254 19.0761 13.5306 19.9088 13.83C20.1653 13.9234 20.392 14.084 20.5651 14.295C20.6341 14.38 20.6944 14.4717 20.7451 14.5688L22.3988 17.7938C22.4934 17.9786 22.5233 18.1898 22.4839 18.3937C22.4445 18.5976 22.338 18.7824 22.1813 18.9188C22.0938 18.9943 21.9918 19.0512 21.8815 19.086C21.7713 19.1208 21.6551 19.1328 21.5401 19.1213C21.4238 19.1111 21.3107 19.0776 21.2077 19.0229C21.1046 18.9681 21.0136 18.8932 20.9401 18.8025C20.8958 18.7491 20.8592 18.6897 20.8313 18.6263L19.5788 16.125C19.4665 15.8943 19.29 15.7008 19.0705 15.5678C18.851 15.4348 18.5979 15.3678 18.3413 15.375L15.4163 15.4725Z" fill="#946800"/>
        <path d="M1.125 14.25H4.125V16.875C4.125 16.9745 4.16451 17.0698 4.23484 17.1402C4.30516 17.2105 4.40054 17.25 4.5 17.25H7.5V19.875C7.5 19.9745 7.53951 20.0698 7.60983 20.1402C7.68016 20.2105 7.77554 20.25 7.875 20.25H10.875V22.875C10.875 22.9745 10.9145 23.0698 10.9848 23.1402C11.0552 23.2105 11.1505 23.25 11.25 23.25H14.625C14.7245 23.25 14.8198 23.2105 14.8902 23.1402C14.9605 23.0698 15 22.9745 15 22.875C15 22.7755 14.9605 22.6802 14.8902 22.6098C14.8198 22.5395 14.7245 22.5 14.625 22.5H11.625V19.875C11.625 19.7755 11.5855 19.6802 11.5152 19.6098C11.4448 19.5395 11.3495 19.5 11.25 19.5H8.25V16.875C8.25 16.7755 8.21049 16.6802 8.14017 16.6098C8.06984 16.5395 7.97446 16.5 7.875 16.5H4.875V13.875C4.875 13.7755 4.83549 13.6802 4.76516 13.6098C4.69484 13.5395 4.59946 13.5 4.5 13.5H1.125C1.02554 13.5 0.930161 13.5395 0.859835 13.6098C0.789509 13.6802 0.75 13.7755 0.75 13.875C0.75 13.9745 0.789509 14.0698 0.859835 14.1402C0.930161 14.2105 1.02554 14.25 1.125 14.25Z" fill="#946800"/>
        <path d="M20.7487 11.4825C20.8329 11.4856 20.9157 11.4603 20.9837 11.4106C21.0517 11.361 21.101 11.2899 21.1237 11.2087L21.4162 10.125C21.4298 10.0775 21.4338 10.0278 21.4281 9.97867C21.4225 9.92958 21.4072 9.88209 21.3832 9.83891C21.3591 9.79573 21.3268 9.75771 21.2881 9.72701C21.2494 9.69631 21.205 9.67354 21.1575 9.66C21.11 9.64646 21.0602 9.64241 21.0111 9.64808C20.9621 9.65375 20.9146 9.66904 20.8714 9.69307C20.8282 9.7171 20.7902 9.74939 20.7595 9.78812C20.7288 9.82684 20.706 9.87123 20.6925 9.91875L20.3887 11.0025C20.3622 11.098 20.3745 11.2001 20.4229 11.2865C20.4714 11.3729 20.5522 11.4367 20.6475 11.4637C20.68 11.4755 20.7142 11.4818 20.7487 11.4825Z" fill="#946800"/>
        <path d="M19.061 11.9325C19.1251 11.9335 19.1884 11.918 19.2448 11.8875C19.2884 11.8636 19.3268 11.8313 19.3578 11.7925C19.3888 11.7537 19.4118 11.709 19.4254 11.6612C19.439 11.6134 19.443 11.5634 19.4371 11.514C19.4312 11.4647 19.4155 11.417 19.391 11.3738L18.8735 10.4513C18.8489 10.4082 18.816 10.3703 18.7768 10.34C18.7376 10.3096 18.6927 10.2872 18.6448 10.2742C18.5481 10.2478 18.4449 10.2609 18.3579 10.3106C18.3148 10.3353 18.277 10.3681 18.2466 10.4074C18.2162 10.4466 18.1939 10.4914 18.1808 10.5393C18.1544 10.636 18.1675 10.7392 18.2173 10.8263L18.7498 11.7413C18.781 11.797 18.8261 11.8439 18.8805 11.8773C18.935 11.9108 18.9971 11.9298 19.061 11.9325Z" fill="#946800"/>
        <path d="M21.6226 12.5588C21.6551 12.6167 21.7025 12.6649 21.7598 12.6985C21.8172 12.7321 21.8824 12.7499 21.9488 12.75C22.0132 12.7498 22.0765 12.733 22.1326 12.7013L23.0588 12.1838C23.1454 12.134 23.2086 12.052 23.2346 11.9556C23.2606 11.8593 23.2473 11.7565 23.1976 11.67C23.1478 11.5835 23.0658 11.5202 22.9694 11.4942C22.8731 11.4682 22.7704 11.4815 22.6838 11.5313L21.7501 12.0488C21.6662 12.1001 21.6058 12.1823 21.582 12.2777C21.5582 12.3731 21.5727 12.474 21.6226 12.5588Z" fill="#946800"/>
        <path d="M4.125 10.125H3C2.90054 10.125 2.80516 10.1645 2.73484 10.2348C2.66451 10.3052 2.625 10.4005 2.625 10.5C2.625 10.5995 2.66451 10.6948 2.73484 10.7652C2.80516 10.8355 2.90054 10.875 3 10.875H4.125C4.72174 10.875 5.29403 11.1121 5.71599 11.534C6.13795 11.956 6.375 12.5283 6.375 13.125C6.375 13.2245 6.41451 13.3198 6.48483 13.3902C6.55516 13.4605 6.65054 13.5 6.75 13.5C6.84946 13.5 6.94484 13.4605 7.01517 13.3902C7.08549 13.3198 7.125 13.2245 7.125 13.125C7.125 12.3294 6.80893 11.5663 6.24632 11.0037C5.68371 10.4411 4.92065 10.125 4.125 10.125Z" fill="#946800"/>
    </g>
    <defs>
        <clipPath id="clip0_815_731">
            <rect width="24" height="24" fill="white"/>
        </clipPath>
    </defs>
</svg>
