<svg width="24" height="24" viewBox="0 0 24 24" fill="none" xmlns="http://www.w3.org/2000/svg">
    <g clip-path="url(#clip0_769_594)">
        <path d="M22.6011 15.7999C22.4272 15.6859 22.2304 15.6114 22.0246 15.5815C21.8188 15.5517 21.6089 15.5673 21.4098 15.6271C21.3874 15.5998 21.3751 15.5656 21.375 15.5303V10.2426C21.375 9.22501 21.1162 8.2241 20.6229 7.33403C20.1295 6.44396 19.4179 5.69399 18.555 5.15465L18.375 5.04218V3.86353L18.6841 3.39986C18.9721 2.96886 19.1255 2.46207 19.125 1.94376V1.875C19.1247 1.57673 19.006 1.29078 18.7951 1.07988C18.5842 0.868971 18.2983 0.750337 18 0.749999H15C14.7017 0.750337 14.4158 0.868971 14.2049 1.07988C13.994 1.29078 13.8753 1.57673 13.875 1.875V1.94376C13.8745 2.46207 14.028 2.96886 14.3159 3.39986L14.625 3.86353V5.04218L14.445 5.15465C13.582 5.694 12.8705 6.44397 12.3771 7.33404C11.8838 8.2241 11.625 9.22502 11.625 10.2426V11.3145C11.4473 11.3777 11.2882 11.4845 11.1624 11.625H10.442C10.4513 11.6162 10.4607 11.6074 10.4699 11.5982C10.6184 11.4496 10.7221 11.2621 10.7689 11.0572C10.8158 10.8524 10.804 10.6385 10.7349 10.44L10.3239 9.24541C10.3051 9.19169 10.2989 9.13438 10.3059 9.0779C10.3128 9.02143 10.3326 8.9673 10.3638 8.91971C10.9468 8.05088 11.2556 7.02699 11.25 5.98068C11.2397 3.12094 8.90497 0.774536 6.04559 0.750182C5.3485 0.744135 4.65719 0.876977 4.01199 1.14096C3.36678 1.40494 2.78062 1.79477 2.28768 2.28771C1.79475 2.78065 1.40493 3.36682 1.14095 4.01203C0.876982 4.65723 0.744149 5.34855 0.750206 6.04564C0.774628 8.91733 3.12875 11.25 6.00011 11.25H6.00929C6.34453 11.2495 6.67896 11.2171 7.00806 11.1532C7.07199 11.1406 7.13809 11.1447 7.19998 11.1651L8.69782 11.6666C8.46134 11.7328 8.25297 11.8745 8.10444 12.0701C7.95591 12.2657 7.87534 12.5044 7.875 12.75V13.125C7.87481 13.4019 7.97719 13.6691 8.16238 13.875C7.97719 14.0809 7.87481 14.3481 7.875 14.625V15C7.87492 15.1296 7.89734 15.2582 7.94126 15.3802H7.68198C7.33712 15.3792 6.99549 15.4467 6.67687 15.5787C6.35825 15.7107 6.06897 15.9045 5.82578 16.149L5.64386 16.331C5.47015 16.5056 5.26352 16.6441 5.03594 16.7384C4.80836 16.8326 4.56435 16.8808 4.31802 16.8802H0.75V17.6302H4.31802C4.66288 17.6311 5.00451 17.5636 5.32313 17.4317C5.64174 17.2997 5.93102 17.1058 6.17423 16.8613L6.35614 16.6794C6.52984 16.5047 6.73647 16.3662 6.96405 16.2719C7.19163 16.1777 7.43565 16.1295 7.68198 16.1302H12.1875C12.3367 16.1302 12.4798 16.1894 12.5852 16.2949C12.6907 16.4004 12.75 16.5435 12.75 16.6927C12.75 16.8419 12.6907 16.9849 12.5852 17.0904C12.4798 17.1959 12.3367 17.2552 12.1875 17.2552H7.5V18.0052H8.55536L12.7885 19.6333C13.0171 19.7219 13.2609 19.7645 13.506 19.7587C13.7511 19.7529 13.9926 19.6988 14.2167 19.5995L21.5451 16.375C21.6487 16.3294 21.7621 16.3104 21.8749 16.3196C21.9877 16.3289 22.0965 16.3661 22.1913 16.428C22.2861 16.4899 22.364 16.5744 22.4179 16.6739C22.4718 16.7735 22.5 16.8849 22.5 16.9981C22.5001 17.1213 22.4667 17.2422 22.4035 17.3479C22.3402 17.4536 22.2494 17.5401 22.1407 17.5981L14.0948 21.9084C12.9631 22.5173 11.6395 22.664 10.4019 22.3179L5.82394 21.0462C5.72587 21.019 5.62455 21.0052 5.52276 21.0052H0.75V21.7552H5.52276C5.55669 21.7552 5.59046 21.7598 5.62315 21.7689L10.2012 23.0405C11.6248 23.4384 13.1471 23.2696 14.449 22.5695L22.4949 18.2592C22.7138 18.1419 22.8985 17.9697 23.0306 17.7594C23.1628 17.5491 23.2379 17.308 23.2487 17.0598C23.2594 16.8117 23.2053 16.565 23.0918 16.3441C22.9782 16.1232 22.8092 15.9356 22.6011 15.7999H22.6011ZM14.625 1.875C14.6251 1.77558 14.6647 1.68026 14.735 1.60996C14.8053 1.53966 14.9006 1.50011 15 1.5H18C18.0994 1.50011 18.1947 1.53966 18.265 1.60996C18.3353 1.68026 18.3749 1.77558 18.375 1.875V1.94376C18.3753 2.31398 18.2657 2.67598 18.0601 2.98384L17.7993 3.375H15.2007L14.9399 2.98384C14.7343 2.67598 14.6247 2.31398 14.625 1.94376V1.875ZM17.625 4.875H15.375V4.125H17.625V4.875ZM17.3224 7.35274L17.9545 7.98486C18.0247 8.05524 18.0642 8.15059 18.0642 8.25C18.0642 8.34941 18.0247 8.44477 17.9545 8.51514L17.8902 8.5795C17.8198 8.64972 17.7244 8.68916 17.625 8.68916C17.5256 8.68916 17.4302 8.64972 17.3598 8.5795L16.8405 8.06017C17.0342 7.84865 17.1965 7.61041 17.3224 7.35274ZM16.875 6.03767C16.8758 6.33327 16.818 6.62609 16.7049 6.89919C16.5918 7.17229 16.4256 7.42023 16.216 7.62868L15.2652 8.5795C15.1948 8.64972 15.0994 8.68916 15 8.68916C14.9006 8.68916 14.8052 8.64972 14.7348 8.5795L14.6705 8.51514C14.6003 8.44477 14.5608 8.34941 14.5608 8.25C14.5608 8.15059 14.6003 8.05524 14.6705 7.98486L15.2463 7.40904C15.728 6.92985 16.0312 6.30032 16.1057 5.625H16.875V6.03767ZM14.8425 5.79067L15.1075 5.625H15.35C15.279 6.10022 15.0567 6.53988 14.716 6.87868L14.1402 7.4545C13.9295 7.66565 13.8112 7.95174 13.8112 8.25C13.8112 8.54827 13.9295 8.83436 14.1402 9.0455L14.2045 9.10987C14.309 9.21433 14.433 9.29719 14.5695 9.35373C14.706 9.41026 14.8523 9.43936 15 9.43936C15.1477 9.43936 15.294 9.41026 15.4305 9.35373C15.567 9.29719 15.691 9.21433 15.7955 9.10987L16.3125 8.59284L16.8295 9.10987C17.0407 9.32052 17.3267 9.43882 17.625 9.43882C17.9233 9.43882 18.2093 9.32052 18.4205 9.10987L18.4848 9.0455C18.6955 8.83436 18.8138 8.54827 18.8138 8.25C18.8138 7.95174 18.6955 7.66565 18.4848 7.4545L17.5807 6.55038C17.61 6.38104 17.6248 6.20952 17.625 6.03767V5.625H17.8925L18.1575 5.79067C18.9145 6.26047 19.5387 6.91624 19.9707 7.69552C20.4026 8.47481 20.6278 9.35168 20.625 10.2426V15.5303C20.6251 15.6657 20.6556 15.7992 20.7144 15.9212L16.8146 17.6371C16.7657 17.4941 16.6885 17.3625 16.5876 17.25C16.7728 17.0441 16.8752 16.7769 16.875 16.5V16.125C16.8752 15.8481 16.7728 15.5809 16.5876 15.375C16.7728 15.1691 16.8752 14.9019 16.875 14.625V14.25C16.8752 13.9731 16.7728 13.7059 16.5876 13.5C16.7728 13.2941 16.8752 13.0269 16.875 12.75V12.375C16.8747 12.0767 16.756 11.7908 16.5451 11.5799C16.3342 11.369 16.0483 11.2503 15.75 11.25H12.375V10.2426C12.3722 9.35168 12.5974 8.47481 13.0293 7.69553C13.4613 6.91624 14.0854 6.26048 14.8425 5.79067ZM13.0994 15.75H15.75C15.8494 15.7501 15.9447 15.7897 16.015 15.86C16.0853 15.9303 16.1249 16.0256 16.125 16.125V16.5C16.1249 16.5994 16.0853 16.6947 16.015 16.765C15.9447 16.8353 15.8494 16.8749 15.75 16.875H13.4871C13.5161 16.6702 13.4961 16.4614 13.4287 16.2658C13.3613 16.0702 13.2484 15.8934 13.0994 15.75ZM8.625 14.625C8.62511 14.5256 8.66466 14.4303 8.73496 14.36C8.80526 14.2897 8.90058 14.2501 9 14.25H10.875V14.625C10.8748 14.9018 10.9771 15.169 11.1622 15.3748L11.162 15.375H9C8.90058 15.3749 8.80526 15.3353 8.73496 15.265C8.66466 15.1947 8.62511 15.0994 8.625 15V14.625ZM12 12H15.75C15.8494 12.0001 15.9447 12.0397 16.015 12.11C16.0853 12.1803 16.1249 12.2756 16.125 12.375V12.75C16.1249 12.8494 16.0853 12.9447 16.015 13.015C15.9447 13.0853 15.8494 13.1249 15.75 13.125H12C11.9006 13.1249 11.8053 13.0853 11.735 13.015C11.6647 12.9447 11.6251 12.8494 11.625 12.75V12.375C11.6251 12.2756 11.6647 12.1803 11.735 12.11C11.8053 12.0397 11.9006 12.0001 12 12ZM12 13.875H15.75C15.8494 13.8751 15.9447 13.9147 16.015 13.985C16.0853 14.0553 16.1249 14.1506 16.125 14.25V14.625C16.1249 14.7244 16.0853 14.8197 16.015 14.89C15.9447 14.9603 15.8494 14.9999 15.75 15H12C11.9006 14.9999 11.8053 14.9603 11.735 14.89C11.6647 14.8197 11.6251 14.7244 11.625 14.625V14.25C11.6251 14.1506 11.6647 14.0553 11.735 13.985C11.8053 13.9147 11.9006 13.8751 12 13.875ZM7.08176 10.3961C7.00896 10.3961 6.93632 10.4031 6.86485 10.4171H6.86478C6.58247 10.4718 6.29559 10.4996 6.00801 10.5H6.00011C3.53913 10.4999 1.5211 8.50049 1.50016 6.03923C1.49498 5.44503 1.60754 4.85569 1.83133 4.30522C2.05513 3.75475 2.38573 3.25406 2.80405 2.83204C3.22238 2.41002 3.72015 2.07503 4.26863 1.8464C4.81711 1.61778 5.40544 1.50004 5.99966 1.5C6.01279 1.5 6.02607 1.50005 6.03921 1.50018C8.49005 1.52106 10.4911 3.5322 10.5 5.98338C10.5049 6.88005 10.2404 7.75752 9.74082 8.50214C9.64547 8.646 9.58449 8.80988 9.56262 8.98108C9.54075 9.15229 9.55856 9.32623 9.61469 9.48944L10.0257 10.684C10.0484 10.7502 10.0522 10.8214 10.0366 10.8897C10.021 10.9579 9.98663 11.0204 9.93735 11.0701C9.88807 11.1198 9.82586 11.1547 9.75777 11.1709C9.68968 11.1871 9.61841 11.1839 9.55204 11.1617L7.43802 10.4539C7.32315 10.4156 7.20285 10.3961 7.08176 10.3961ZM8.625 12.75C8.62511 12.6506 8.66466 12.5553 8.73496 12.485C8.80526 12.4147 8.90058 12.3751 9 12.375H10.875V12.75C10.8748 13.0269 10.9772 13.2941 11.1624 13.5H9C8.90058 13.4999 8.80526 13.4603 8.73496 13.39C8.66466 13.3197 8.62511 13.2244 8.625 13.125V12.75ZM13.9147 18.913C13.7802 18.9726 13.6353 19.0051 13.4883 19.0085C13.3412 19.012 13.1949 18.9864 13.0578 18.9333L10.6447 18.0052H12.1875C12.3622 18.0052 12.5352 17.9703 12.6962 17.9024C12.8573 17.8346 13.003 17.7351 13.125 17.61V17.625H15.75C15.8394 17.6252 15.9258 17.6572 15.9937 17.7155C16.0616 17.7737 16.1064 17.8543 16.1201 17.9426L13.9147 18.913Z" fill="#946800"/>
        <path d="M8.55264 3.97769L8.89016 3.64018L8.35984 3.10982L7.71966 3.75H7.125V3.375C7.125 3.07663 7.00647 2.79048 6.7955 2.5795C6.58452 2.36853 6.29837 2.25 6 2.25C5.70163 2.25 5.41548 2.36853 5.2045 2.5795C4.99353 2.79048 4.875 3.07663 4.875 3.375V3.75H4.125C3.82674 3.75034 3.54079 3.86898 3.32988 4.07988C3.11898 4.29079 3.00034 4.57674 3 4.875V7.125C3.00002 7.29899 3.04044 7.4706 3.11807 7.62631C3.1957 7.78202 3.30842 7.91758 3.44736 8.02231L3.10984 8.35982L3.64016 8.89018L4.28034 8.25H7.875C8.17326 8.24966 8.45921 8.13102 8.67012 7.92012C8.88102 7.70921 8.99966 7.42326 9 7.125V4.875C8.99998 4.70101 8.95956 4.5294 8.88193 4.37369C8.8043 4.21798 8.69158 4.08242 8.55264 3.97769ZM8.25 4.875V5.00272L8.21581 5.01736C7.88397 5.15933 7.53915 5.26878 7.18618 5.34416L8.00619 4.52415C8.07769 4.55089 8.13934 4.5988 8.1829 4.66149C8.22646 4.72418 8.24987 4.79866 8.25 4.875ZM5.625 3.375C5.625 3.27554 5.66451 3.18016 5.73484 3.10984C5.80516 3.03951 5.90054 3 6 3C6.09946 3 6.19484 3.03951 6.26517 3.10984C6.33549 3.18016 6.375 3.27554 6.375 3.375V3.75H5.625V3.375ZM4.125 4.5H6.96966L5.99959 5.47007C5.2381 5.4706 4.48443 5.31659 3.78419 5.01736L3.75 5.00272V4.875C3.75011 4.77558 3.78966 4.68026 3.85996 4.60996C3.93026 4.53966 4.02558 4.50011 4.125 4.5ZM3.75 7.125V5.81141C4.2459 5.99787 4.76315 6.12166 5.28973 6.17992L3.99381 7.47585C3.92231 7.44911 3.86066 7.4012 3.8171 7.33851C3.77354 7.27582 3.75013 7.20134 3.75 7.125ZM7.875 7.5H5.03034L6.31854 6.21181C6.97922 6.17927 7.63083 6.04419 8.25 5.81141V7.125C8.24989 7.22442 8.21034 7.31974 8.14004 7.39004C8.06974 7.46034 7.97442 7.49989 7.875 7.5Z" fill="#946800"/>
        <path d="M5.28691 12.7148C3.99466 12.5862 2.76244 12.1056 1.72441 11.3252L1.27393 11.9248C2.42161 12.7876 3.78402 13.319 5.2128 13.4611L5.28691 12.7148Z" fill="#946800"/>
        <path d="M6 12.75V13.5C6.39521 13.5 6.78988 13.4706 7.18073 13.412L7.06927 12.6703C6.71531 12.7234 6.3579 12.75 6 12.75Z" fill="#946800"/>
    </g>
    <defs>
        <clipPath id="clip0_769_594">
            <rect width="24" height="24" fill="white"/>
        </clipPath>
    </defs>
</svg>
