<svg width="19" height="21" viewBox="0 0 19 21" fill="none" xmlns="http://www.w3.org/2000/svg">
    <path d="M4.67011 20.8867H16.8128C17.5543 20.8867 18.1554 20.2857 18.1554 19.5487V3.44867C18.1554 2.70705 17.5544 2.106 16.8128 2.106H7.02677C6.87316 2.106 6.75277 2.22638 6.75277 2.38C6.75277 2.53361 6.87316 2.654 7.02677 2.654H16.8128C17.2518 2.654 17.6074 3.00961 17.6074 3.44867V19.5487C17.6074 19.9877 17.2518 20.3433 16.8128 20.3433H4.67011C4.23106 20.3433 3.87544 19.9877 3.87544 19.5487V6.496C3.87544 6.34238 3.75506 6.222 3.60144 6.222C3.44783 6.222 3.32744 6.34238 3.32744 6.496V19.544C3.32744 20.2856 3.92849 20.8867 4.67011 20.8867Z" fill="#2D452E" stroke="#2D452E" stroke-width="0.1"/>
    <path d="M6.96264 3.49985V3.5C6.96264 5.03105 5.72035 6.27333 4.1893 6.27333C2.65825 6.27333 1.41597 5.03105 1.41597 3.5C1.41597 1.96895 2.65825 0.726668 4.1893 0.726668C5.72044 0.726668 6.96722 1.97367 6.96264 3.49985ZM0.867969 3.50467C0.867969 5.33357 2.35564 6.826 4.1893 6.826L7.46064 3.5H7.51064C7.51064 3.49996 7.51064 3.49992 7.51064 3.49987C7.51057 1.67098 6.01821 0.178668 4.1893 0.178668C2.36026 0.178668 0.867969 1.67581 0.867969 3.50467Z" fill="#2D452E" stroke="#2D452E" stroke-width="0.1"/>
    <path d="M16.4195 10.8846L16.4195 10.8846V10.8827C16.4195 10.7291 16.2991 10.6087 16.1455 10.6087H5.34216C5.18855 10.6087 5.06816 10.7291 5.06816 10.8827C5.06816 11.0363 5.18855 11.1567 5.34216 11.1567H16.1455C16.2961 11.1567 16.4139 11.0303 16.4195 10.8846Z" fill="#2D452E" stroke="#2D452E" stroke-width="0.1"/>
    <path d="M7.49473 10.8827C7.49473 11.0363 7.61512 11.1567 7.76873 11.1567C7.91835 11.1567 8.04273 11.0309 8.04273 10.878V7.05134C8.04273 6.79469 7.83331 6.59067 7.58206 6.59067H6.64407C6.38742 6.59067 6.1834 6.80009 6.1834 7.05134V10.878C6.1834 11.0316 6.30378 11.152 6.4574 11.152C6.61101 11.152 6.7314 11.0316 6.7314 10.878V7.14334H7.49473V10.8827Z" fill="#2D452E" stroke="#2D452E" stroke-width="0.1"/>
    <path d="M9.91221 10.8827C9.91221 11.0363 10.0326 11.1567 10.1862 11.1567C10.3405 11.1567 10.4602 11.0309 10.4602 10.8827V6.23C10.4602 5.97335 10.2508 5.76934 9.99955 5.76934H9.06155C8.8049 5.76934 8.60088 5.97876 8.60088 6.23V10.8827C8.60088 11.0363 8.72126 11.1567 8.87488 11.1567C9.02849 11.1567 9.14888 11.0363 9.14888 10.8827V6.31734H9.91221V10.8827Z" fill="#2D452E" stroke="#2D452E" stroke-width="0.1"/>
    <path d="M12.3341 10.8827C12.3341 11.0363 12.4545 11.1567 12.6081 11.1567C12.757 11.1567 12.8821 11.0316 12.8821 10.8827V5.22667C12.8821 4.97002 12.6727 4.766 12.4214 4.766H11.4834C11.2268 4.766 11.0228 4.97543 11.0228 5.22667V10.8827C11.0228 11.0363 11.1431 11.1567 11.2968 11.1567C11.4504 11.1567 11.5708 11.0363 11.5708 10.8827V5.31867H12.3341V10.8827Z" fill="#2D452E" stroke="#2D452E" stroke-width="0.1"/>
    <path d="M14.7511 10.8827C14.7511 11.0363 14.8715 11.1567 15.0251 11.1567C15.1794 11.1567 15.2991 11.0309 15.2991 10.8827V4.02267C15.2991 3.76602 15.0897 3.562 14.8384 3.562H13.9004C13.6438 3.562 13.4397 3.77142 13.4397 4.02267V10.8827C13.4397 11.0363 13.5601 11.1567 13.7137 11.1567C13.8674 11.1567 13.9877 11.0363 13.9877 10.8827V4.11H14.7511V10.8827Z" fill="#2D452E" stroke="#2D452E" stroke-width="0.1"/>
    <path d="M14.1151 12.9487H16.1451C16.2934 12.9487 16.4191 12.829 16.4191 12.6747C16.4191 12.5211 16.2987 12.4007 16.1451 12.4007H14.1151C13.9615 12.4007 13.8411 12.5211 13.8411 12.6747C13.8411 12.8283 13.9615 12.9487 14.1151 12.9487Z" fill="#2D452E" stroke="#2D452E" stroke-width="0.1"/>
    <path d="M5.34216 12.9487H12.3468C12.4951 12.9487 12.6208 12.829 12.6208 12.6747C12.6208 12.5211 12.5004 12.4007 12.3468 12.4007H5.34216C5.18855 12.4007 5.06816 12.5211 5.06816 12.6747C5.06816 12.8283 5.18855 12.9487 5.34216 12.9487Z" fill="#2D452E" stroke="#2D452E" stroke-width="0.1"/>
    <path d="M14.1151 14.9787H16.1451C16.2934 14.9787 16.4191 14.859 16.4191 14.7047C16.4191 14.5511 16.2987 14.4307 16.1451 14.4307H14.1151C13.9615 14.4307 13.8411 14.5511 13.8411 14.7047C13.8411 14.8583 13.9615 14.9787 14.1151 14.9787Z" fill="#2D452E" stroke="#2D452E" stroke-width="0.1"/>
    <path d="M5.34216 14.9787H12.3468C12.4951 14.9787 12.6208 14.859 12.6208 14.7047C12.6208 14.5511 12.5004 14.4307 12.3468 14.4307H5.34216C5.18855 14.4307 5.06816 14.5511 5.06816 14.7047C5.06816 14.8583 5.18855 14.9787 5.34216 14.9787Z" fill="#2D452E" stroke="#2D452E" stroke-width="0.1"/>
    <path d="M14.1151 17.0133H16.1451C16.2934 17.0133 16.4191 16.8936 16.4191 16.7393C16.4191 16.5857 16.2987 16.4653 16.1451 16.4653H14.1151C13.9615 16.4653 13.8411 16.5857 13.8411 16.7393C13.8411 16.893 13.9615 17.0133 14.1151 17.0133Z" fill="#2D452E" stroke="#2D452E" stroke-width="0.1"/>
    <path d="M5.34216 17.0133H12.3468C12.4951 17.0133 12.6208 16.8936 12.6208 16.7393C12.6208 16.5857 12.5004 16.4653 12.3468 16.4653H5.34216C5.18855 16.4653 5.06816 16.5857 5.06816 16.7393C5.06816 16.893 5.18855 17.0133 5.34216 17.0133Z" fill="#2D452E" stroke="#2D452E" stroke-width="0.1"/>
    <path d="M14.1151 19.0433H16.1451C16.2934 19.0433 16.4191 18.9236 16.4191 18.7693C16.4191 18.6157 16.2987 18.4953 16.1451 18.4953H14.1151C13.9615 18.4953 13.8411 18.6157 13.8411 18.7693C13.8411 18.9229 13.9615 19.0433 14.1151 19.0433Z" fill="#2D452E" stroke="#2D452E" stroke-width="0.1"/>
    <path d="M5.34216 19.0433H12.3468C12.4951 19.0433 12.6208 18.9236 12.6208 18.7693C12.6208 18.6157 12.5004 18.4953 12.3468 18.4953H5.34216C5.18855 18.4953 5.06816 18.6157 5.06816 18.7693C5.06816 18.9229 5.18855 19.0433 5.34216 19.0433Z" fill="#2D452E" stroke="#2D452E" stroke-width="0.1"/>
    <path d="M4.26132 4.95921L4.26133 4.95922L4.26195 4.95859L5.92764 3.28357C6.09629 3.11971 6.18516 2.89668 6.18516 2.66467C6.18516 2.43199 6.09118 2.20945 5.92812 2.04625C5.76425 1.87756 5.5412 1.78867 5.30916 1.78867C5.07636 1.78867 4.8537 1.88275 4.69048 2.04598L3.63647 3.09998C3.47845 2.96702 3.27996 2.89467 3.06916 2.89467C2.83649 2.89467 2.61395 2.98865 2.45074 3.15171C2.28206 3.31558 2.19316 3.53864 2.19316 3.77067C2.19316 4.00347 2.28725 4.22613 2.45048 4.38936L3.01955 4.95843C3.18342 5.12711 3.40647 5.216 3.6385 5.216C3.87624 5.216 4.09387 5.12174 4.26132 4.95921ZM2.84319 4.00131L2.8432 4.0013L2.84203 4.00019C2.77845 3.94059 2.74583 3.8563 2.74583 3.77067C2.74583 3.68733 2.78156 3.6058 2.84431 3.53887C2.90412 3.47506 2.98388 3.44267 3.07383 3.44267C3.15894 3.44267 3.24347 3.47494 3.30809 3.5436L3.30807 3.54362L3.30914 3.54469L3.44914 3.68469C3.50057 3.73612 3.56931 3.76467 3.64316 3.76467C3.71702 3.76467 3.78576 3.73612 3.83719 3.68469L5.08319 2.43869L5.0832 2.43871L5.08431 2.43753C5.14391 2.37396 5.2282 2.34134 5.31383 2.34134C5.39717 2.34134 5.4787 2.37706 5.54563 2.43981C5.60921 2.49941 5.64183 2.58371 5.64183 2.66934C5.64183 2.75354 5.60549 2.83897 5.54448 2.89998L3.87381 4.57065L3.87379 4.57063L3.87269 4.57181C3.81309 4.63538 3.72879 4.668 3.64316 4.668C3.55896 4.668 3.47353 4.63166 3.41252 4.57065L2.84319 4.00131Z" fill="#2D452E" stroke="#2D452E" stroke-width="0.1"/>
</svg>
