<svg width="36" height="36" viewBox="0 0 36 36" fill="none" xmlns="http://www.w3.org/2000/svg">
    <g clip-path="url(#clip0_347_3103)">
        <path opacity="0.107968" d="M28.8 0H7.2C3.22355 0 0 3.22355 0 7.2V28.8C0 32.7765 3.22355 36 7.2 36H28.8C32.7765 36 36 32.7765 36 28.8V7.2C36 3.22355 32.7765 0 28.8 0Z" fill="#5D6470"/>
        <path d="M15.3274 25C15.6733 25.001 16.0011 24.8649 16.219 24.63L21.74 18.6305C22.0867 18.2616 22.0867 17.7296 21.74 17.3607L16.0247 11.3612C15.6206 10.936 14.8991 10.8778 14.413 11.2313C13.9269 11.5847 13.8603 12.2159 14.2644 12.6411L19.3738 18.0006L14.4358 23.3601C14.1504 23.6598 14.0903 24.0773 14.2818 24.4296C14.4733 24.7818 14.8815 25.0045 15.3274 25Z" fill="#3E3E3E"/>
    </g>
    <defs>
        <clipPath id="clip0_347_3103">
            <rect width="36" height="36" fill="white"/>
        </clipPath>
    </defs>
</svg>
