<svg width="30" height="30" viewBox="0 0 30 30" fill="none" xmlns="http://www.w3.org/2000/svg">
    <circle cx="15" cy="15" r="15" fill="#445740"/>
    <path d="M7.41667 12.0208H21.5833C21.6593 12.0208 21.7333 11.9964 21.7944 11.9511C21.8554 11.9058 21.9002 11.8421 21.9223 11.7693C21.9443 11.6966 21.9423 11.6187 21.9167 11.5471C21.891 11.4756 21.843 11.4142 21.7798 11.372L19.733 10.0072L18.75 8.04132C18.6038 7.74642 18.3779 7.4984 18.0979 7.32539C17.8179 7.15238 17.4951 7.06131 17.1659 7.06251H11.8341C11.5049 7.06131 11.1821 7.15238 10.9021 7.32539C10.6221 7.4984 10.3962 7.74642 10.25 8.04132L9.26705 10.0072L7.22022 11.372C7.15698 11.4142 7.10898 11.4756 7.08333 11.5471C7.05767 11.6187 7.0557 11.6966 7.07773 11.7693C7.09976 11.8421 7.1446 11.9058 7.20564 11.9511C7.26667 11.9964 7.34066 12.0208 7.41667 12.0208ZM9.73812 10.5447C9.78947 10.5106 9.83098 10.4636 9.85848 10.4084L10.8836 8.35812C10.9713 8.18117 11.1068 8.03234 11.2748 7.92853C11.4428 7.82473 11.6366 7.7701 11.8341 7.77085H17.1659C17.3634 7.7701 17.5572 7.82473 17.7252 7.92853C17.8932 8.03234 18.0287 8.18117 18.1164 8.35812L19.1415 10.4084C19.169 10.4636 19.2105 10.5106 19.2619 10.5447L20.4136 11.3125H8.58639L9.73812 10.5447ZM21.5833 21.2292H21.2292V20.1667C21.2287 19.7586 21.0875 19.3632 20.8295 19.0472C20.5714 18.7311 20.2122 18.5137 19.8125 18.4316V13.0833H19.1042V18.3958H16.9792V13.0833H16.2708V18.3958H12.7292V13.0833H12.0208V18.3958H9.89583V13.0833H9.1875V18.4316C8.78779 18.5137 8.42861 18.7311 8.17054 19.0472C7.91247 19.3632 7.7713 19.7586 7.77083 20.1667V21.2292H7.41667C7.32274 21.2292 7.23265 21.2665 7.16623 21.3329C7.09981 21.3993 7.0625 21.4894 7.0625 21.5833C7.0625 21.6773 7.09981 21.7674 7.16623 21.8338C7.23265 21.9002 7.32274 21.9375 7.41667 21.9375H21.5833C21.6773 21.9375 21.7673 21.9002 21.8338 21.8338C21.9002 21.7674 21.9375 21.6773 21.9375 21.5833C21.9375 21.4894 21.9002 21.3993 21.8338 21.3329C21.7673 21.2665 21.6773 21.2292 21.5833 21.2292ZM20.5208 21.2292H8.47917V20.1667C8.47947 19.885 8.59151 19.6149 8.79071 19.4157C8.9899 19.2165 9.25997 19.1045 9.54167 19.1042H19.4583C19.74 19.1045 20.0101 19.2165 20.2093 19.4157C20.4085 19.6149 20.5205 19.885 20.5208 20.1667V21.2292ZM16.2708 9.54168C16.2709 9.5882 16.2617 9.63426 16.2439 9.67724C16.2261 9.72023 16.2001 9.75928 16.1672 9.79217C16.1343 9.82507 16.0952 9.85115 16.0522 9.86894C16.0093 9.88673 15.9632 9.89587 15.9167 9.89585H13.0833C12.9894 9.89585 12.8993 9.85853 12.8329 9.79211C12.7665 9.72569 12.7292 9.63561 12.7292 9.54168C12.7292 9.44775 12.7665 9.35766 12.8329 9.29124C12.8993 9.22483 12.9894 9.18751 13.0833 9.18751H15.9167C15.9632 9.18748 16.0093 9.19663 16.0522 9.21442C16.0952 9.2322 16.1343 9.25829 16.1672 9.29118C16.2001 9.32408 16.2261 9.36313 16.2439 9.40611C16.2617 9.44909 16.2709 9.49516 16.2708 9.54168Z" fill="white"/>
</svg>
