<svg width="32" height="32" viewBox="0 0 32 32" fill="none" xmlns="http://www.w3.org/2000/svg">
    <circle cx="16" cy="16" r="15" stroke="#C9C9C9"/>
    <path d="M9.35417 13.0208H23.5208C23.5968 13.0208 23.6708 12.9964 23.7319 12.9511C23.7929 12.9058 23.8377 12.8421 23.8598 12.7693C23.8818 12.6966 23.8798 12.6187 23.8542 12.5471C23.8285 12.4756 23.7805 12.4142 23.7173 12.372L21.6705 11.0072L20.6875 9.04132C20.5413 8.74642 20.3154 8.4984 20.0354 8.32539C19.7554 8.15238 19.4326 8.06131 19.1034 8.06251H13.7716C13.4424 8.06131 13.1196 8.15238 12.8396 8.32539C12.5596 8.4984 12.3337 8.74642 12.1875 9.04132L11.2045 11.0072L9.15772 12.372C9.09448 12.4142 9.04648 12.4756 9.02083 12.5471C8.99517 12.6187 8.9932 12.6966 9.01523 12.7693C9.03726 12.8421 9.0821 12.9058 9.14314 12.9511C9.20417 12.9964 9.27816 13.0208 9.35417 13.0208ZM11.6756 11.5447C11.727 11.5106 11.7685 11.4636 11.796 11.4084L12.8211 9.35812C12.9088 9.18117 13.0443 9.03234 13.2123 8.92853C13.3803 8.82473 13.5741 8.7701 13.7716 8.77085H19.1034C19.3009 8.7701 19.4947 8.82473 19.6627 8.92853C19.8307 9.03234 19.9662 9.18117 20.0539 9.35812L21.079 11.4084C21.1065 11.4636 21.148 11.5106 21.1994 11.5447L22.3511 12.3125H10.5239L11.6756 11.5447ZM23.5208 22.2292H23.1667V21.1667C23.1662 20.7586 23.025 20.3632 22.767 20.0472C22.5089 19.7311 22.1497 19.5137 21.75 19.4316V14.0833H21.0417V19.3958H18.9167V14.0833H18.2083V19.3958H14.6667V14.0833H13.9583V19.3958H11.8333V14.0833H11.125V19.4316C10.7253 19.5137 10.3661 19.7311 10.108 20.0472C9.84997 20.3632 9.7088 20.7586 9.70833 21.1667V22.2292H9.35417C9.26024 22.2292 9.17015 22.2665 9.10373 22.3329C9.03731 22.3993 9 22.4894 9 22.5833C9 22.6773 9.03731 22.7674 9.10373 22.8338C9.17015 22.9002 9.26024 22.9375 9.35417 22.9375H23.5208C23.6148 22.9375 23.7048 22.9002 23.7713 22.8338C23.8377 22.7674 23.875 22.6773 23.875 22.5833C23.875 22.4894 23.8377 22.3993 23.7713 22.3329C23.7048 22.2665 23.6148 22.2292 23.5208 22.2292ZM22.4583 22.2292H10.4167V21.1667C10.417 20.885 10.529 20.6149 10.7282 20.4157C10.9274 20.2165 11.1975 20.1045 11.4792 20.1042H21.3958C21.6775 20.1045 21.9476 20.2165 22.1468 20.4157C22.346 20.6149 22.458 20.885 22.4583 21.1667V22.2292ZM18.2083 10.5417C18.2084 10.5882 18.1992 10.6343 18.1814 10.6772C18.1636 10.7202 18.1376 10.7593 18.1047 10.7922C18.0718 10.8251 18.0327 10.8512 17.9897 10.8689C17.9468 10.8867 17.9007 10.8959 17.8542 10.8958H15.0208C14.9269 10.8958 14.8368 10.8585 14.7704 10.7921C14.704 10.7257 14.6667 10.6356 14.6667 10.5417C14.6667 10.4477 14.704 10.3577 14.7704 10.2912C14.8368 10.2248 14.9269 10.1875 15.0208 10.1875H17.8542C17.9007 10.1875 17.9468 10.1966 17.9897 10.2144C18.0327 10.2322 18.0718 10.2583 18.1047 10.2912C18.1376 10.3241 18.1636 10.3631 18.1814 10.4061C18.1992 10.4491 18.2084 10.4952 18.2083 10.5417Z" fill="#C9C9C9"/>
</svg>
