<svg width="36" height="36" viewBox="0 0 36 36" fill="none" xmlns="http://www.w3.org/2000/svg">
    <path opacity="0.178" d="M28.8 0H7.2C3.22355 0 0 3.22355 0 7.2V28.8C0 32.7765 3.22355 36 7.2 36H28.8C32.7765 36 36 32.7765 36 28.8V7.2C36 3.22355 32.7765 0 28.8 0Z" fill="#445740"/>
    <g clip-path="url(#clip0_2681_4729)">
        <path d="M13.2533 15.6506C13.2533 15.4714 13.108 15.3262 12.9289 15.3262H10.5959C10.4167 15.3262 10.2715 15.4714 10.2715 15.6506V17.9835C10.2715 18.1627 10.4167 18.3079 10.5959 18.3079H12.9289C13.108 18.3079 13.2533 18.1627 13.2533 17.9835V15.6506ZM12.6045 17.6591H10.9203V15.975H12.6045V17.6591Z" fill="#2D452E"/>
        <path d="M17.4115 15.6506C17.4115 15.4714 17.2662 15.3262 17.0871 15.3262H14.7541C14.5749 15.3262 14.4297 15.4714 14.4297 15.6506V17.9835C14.4297 18.1627 14.5749 18.3079 14.7541 18.3079H17.0871C17.2662 18.3079 17.4115 18.1627 17.4115 17.9835V15.6506ZM16.7627 17.6591H15.0785V15.975H16.7627V17.6591Z" fill="#2D452E"/>
        <path d="M21.5707 15.6506C21.5707 15.4714 21.4254 15.3262 21.2463 15.3262H18.9133C18.7341 15.3262 18.5889 15.4714 18.5889 15.6506V17.9835C18.5889 18.1627 18.7341 18.3079 18.9133 18.3079H21.2463C21.4254 18.3079 21.5707 18.1627 21.5707 17.9835V15.6506ZM20.9219 17.6591H19.2376V15.975H20.9219V17.6591Z" fill="#2D452E"/>
        <path d="M23.0724 18.3079H25.4054C25.5846 18.3079 25.7298 18.1627 25.7298 17.9835V15.6506C25.7298 15.4714 25.5846 15.3262 25.4054 15.3262H23.0724C22.8932 15.3262 22.748 15.4714 22.748 15.6506V17.9835C22.748 18.1627 22.8932 18.3079 23.0724 18.3079ZM23.3968 15.975H25.0811V17.6591H23.3968V15.975Z" fill="#2D452E"/>
        <path d="M13.2533 19.8732C13.2533 19.694 13.108 19.5488 12.9289 19.5488H10.5959C10.4167 19.5488 10.2715 19.694 10.2715 19.8732V22.2062C10.2715 22.3854 10.4167 22.5306 10.5959 22.5306H12.9289C13.108 22.5306 13.2533 22.3854 13.2533 22.2062V19.8732ZM12.6045 21.8818H10.9203V20.1976H12.6045V21.8818Z" fill="#2D452E"/>
        <path d="M17.4115 19.8732C17.4115 19.694 17.2662 19.5488 17.0871 19.5488H14.7541C14.5749 19.5488 14.4297 19.694 14.4297 19.8732V22.2062C14.4297 22.3854 14.5749 22.5306 14.7541 22.5306H17.0871C17.2662 22.5306 17.4115 22.3854 17.4115 22.2062V19.8732ZM16.7627 21.8818H15.0785V20.1976H16.7627V21.8818Z" fill="#2D452E"/>
        <path d="M21.5707 19.8732C21.5707 19.694 21.4254 19.5488 21.2463 19.5488H18.9133C18.7341 19.5488 18.5889 19.694 18.5889 19.8732V22.2062C18.5889 22.3854 18.7341 22.5306 18.9133 22.5306H21.2463C21.4254 22.5306 21.5707 22.3854 21.5707 22.2062V19.8732ZM20.9219 21.8818H19.2376V20.1976H20.9219V21.8818Z" fill="#2D452E"/>
        <path d="M22.748 22.2062C22.748 22.3854 22.8932 22.5306 23.0724 22.5306H25.4054C25.5846 22.5306 25.7298 22.3854 25.7298 22.2062V19.8732C25.7298 19.694 25.5846 19.5488 25.4054 19.5488H23.0724C22.8932 19.5488 22.748 19.694 22.748 19.8732V22.2062ZM23.3968 20.1976H25.0811V21.8818H23.3968V20.1976Z" fill="#2D452E"/>
        <path d="M12.9289 23.7715H10.5959C10.4167 23.7715 10.2715 23.9167 10.2715 24.0959V26.4288C10.2715 26.608 10.4167 26.7532 10.5959 26.7532H12.9289C13.108 26.7532 13.2533 26.608 13.2533 26.4288V24.0959C13.2533 23.9167 13.108 23.7715 12.9289 23.7715ZM12.6045 26.1044H10.9203V24.4203H12.6045V26.1044Z" fill="#2D452E"/>
        <path d="M17.0871 23.7715H14.7541C14.5749 23.7715 14.4297 23.9167 14.4297 24.0959V26.4288C14.4297 26.608 14.5749 26.7532 14.7541 26.7532H17.0871C17.2662 26.7532 17.4115 26.608 17.4115 26.4288V24.0959C17.4115 23.9167 17.2662 23.7715 17.0871 23.7715ZM16.7627 26.1044H15.0785V24.4203H16.7627V26.1044Z" fill="#2D452E"/>
        <path d="M21.2463 23.7715H18.9133C18.7341 23.7715 18.5889 23.9167 18.5889 24.0959V26.4288C18.5889 26.608 18.7341 26.7532 18.9133 26.7532H21.2463C21.4254 26.7532 21.5707 26.608 21.5707 26.4288V24.0959C21.5707 23.9167 21.4255 23.7715 21.2463 23.7715ZM20.9219 26.1044H19.2376V24.4203H20.9219V26.1044Z" fill="#2D452E"/>
        <path d="M22.748 26.4288C22.748 26.608 22.8932 26.7532 23.0724 26.7532H25.4054C25.5846 26.7532 25.7298 26.608 25.7298 26.4288V24.0959C25.7298 23.9167 25.5846 23.7715 25.4054 23.7715H23.0724C22.8932 23.7715 22.748 23.9167 22.748 24.0959V26.4288ZM23.3968 24.4203H25.0811V26.1044H23.3968V24.4203Z" fill="#2D452E"/>
        <path d="M27.1106 9.40783H26.7105V8.16681C26.7105 7.52343 26.187 7 25.5437 7C24.9003 7 24.3769 7.52343 24.3769 8.16681V9.40783H22.9387V8.16681C22.9387 7.52343 22.4153 7 21.7719 7C21.1286 7 20.6051 7.52343 20.6051 8.16681V9.40783H19.167V8.16681C19.167 7.52343 18.6436 7 18.0002 7C17.3569 7 16.8334 7.52343 16.8334 8.16681V9.40783H15.3953V8.16681C15.3953 7.52343 14.8719 7 14.2285 7C13.5851 7 13.0617 7.52343 13.0617 8.16681V9.40783H11.6235V8.16681C11.6236 7.52343 11.1002 7 10.4568 7C9.81343 7 9.29 7.52343 9.29 8.16681V9.40783H8.88987C8.15368 9.40783 7.55469 10.0068 7.55469 10.743V27.6648C7.55469 28.401 8.15364 29 8.88987 29H21.3168C21.496 29 21.6412 28.8548 21.6412 28.6756C21.6412 28.4964 21.496 28.3512 21.3168 28.3512H8.88987C8.51142 28.3512 8.20347 28.0433 8.20347 27.6648V13.7885H12.3445C12.5236 13.7885 12.6689 13.6433 12.6689 13.4641C12.6689 13.2849 12.5236 13.1397 12.3445 13.1397H8.20347V10.743C8.20347 10.3645 8.51138 10.0566 8.88987 10.0566H9.29V10.535C9.29 11.1784 9.81343 11.7018 10.4568 11.7018C11.1002 11.7018 11.6236 11.1784 11.6236 10.535V10.0566H13.0618V10.535C13.0618 11.1784 13.5852 11.7018 14.2286 11.7018C14.872 11.7018 15.3954 11.1784 15.3954 10.535V10.0566H16.8336V10.535C16.8336 11.1784 17.357 11.7018 18.0004 11.7018C18.6437 11.7018 19.1672 11.1784 19.1672 10.535V10.0566H20.6053V10.535C20.6053 11.1784 21.1287 11.7018 21.7721 11.7018C22.4155 11.7018 22.9389 11.1784 22.9389 10.535V10.0566H24.3771V10.535C24.3771 11.1784 24.9005 11.7018 25.5439 11.7018C26.1873 11.7018 26.7107 11.1784 26.7107 10.535V10.0566H27.1108C27.4893 10.0566 27.7972 10.3645 27.7972 10.743V13.1397H13.6421C13.4629 13.1397 13.3177 13.2849 13.3177 13.4641C13.3177 13.6433 13.4629 13.7885 13.6421 13.7885H27.7971V27.6648C27.7971 28.0433 27.4891 28.3512 27.1107 28.3512H22.6144C22.4352 28.3512 22.29 28.4964 22.29 28.6756C22.29 28.8548 22.4352 29 22.6144 29H27.1106C27.8468 29 28.4458 28.401 28.4458 27.6648V10.743C28.4458 10.0068 27.8468 9.40783 27.1106 9.40783ZM10.9748 10.535C10.9748 10.8206 10.7424 11.053 10.4568 11.053C10.1711 11.053 9.93873 10.8206 9.93873 10.535V8.16681C9.93878 7.88117 10.1712 7.64878 10.4568 7.64878C10.7424 7.64878 10.9748 7.88117 10.9748 8.16681L10.9748 10.535ZM14.7465 10.535C14.7465 10.8206 14.5141 11.053 14.2285 11.053C13.9429 11.053 13.7105 10.8206 13.7105 10.535V8.16681C13.7105 7.88117 13.9429 7.64878 14.2285 7.64878C14.5141 7.64878 14.7465 7.88117 14.7465 8.16681V10.535ZM18.5183 10.535C18.5183 10.8206 18.2859 11.053 18.0002 11.053C17.7146 11.053 17.4822 10.8206 17.4822 10.535V8.16681C17.4822 7.88117 17.7146 7.64878 18.0002 7.64878C18.2859 7.64878 18.5183 7.88117 18.5183 8.16681V10.535ZM22.29 10.535C22.29 10.8206 22.0576 11.053 21.7719 11.053C21.4863 11.053 21.2539 10.8206 21.2539 10.535V8.16681C21.2539 7.88117 21.4863 7.64878 21.7719 7.64878C22.0576 7.64878 22.29 7.88117 22.29 8.16681V10.535ZM26.0617 10.535C26.0617 10.8206 25.8293 11.053 25.5437 11.053C25.2581 11.053 25.0256 10.8206 25.0256 10.535V8.16681C25.0256 7.88117 25.258 7.64878 25.5437 7.64878C25.8293 7.64878 26.0617 7.88117 26.0617 8.16681V10.535Z" fill="#2D452E"/>
    </g>
    <defs>
        <clipPath id="clip0_2681_4729">
            <rect width="22" height="22" fill="white" transform="translate(7 7)"/>
        </clipPath>
    </defs>
</svg>
