<svg width="21" height="21" viewBox="0 0 21 21" fill="none" xmlns="http://www.w3.org/2000/svg">
    <g clip-path="url(#clip0_1784_2171)">
        <path d="M5.96832 8.25789C5.96832 8.08684 5.82968 7.94824 5.65868 7.94824H3.43171C3.26071 7.94824 3.12207 8.08684 3.12207 8.25789V10.4848C3.12207 10.6559 3.26071 10.7945 3.43171 10.7945H5.65868C5.82968 10.7945 5.96832 10.6559 5.96832 10.4848V8.25789ZM5.34903 10.1752H3.74136V8.56753H5.34903V10.1752Z" fill="#363636"/>
        <path d="M9.93805 8.25789C9.93805 8.08684 9.79941 7.94824 9.6284 7.94824H7.40144C7.23043 7.94824 7.0918 8.08684 7.0918 8.25789V10.4848C7.0918 10.6559 7.23043 10.7945 7.40144 10.7945H9.6284C9.79941 10.7945 9.93805 10.6559 9.93805 10.4848V8.25789ZM9.31876 10.1752H7.71109V8.56753H9.31876V10.1752Z" fill="#363636"/>
        <path d="M13.9078 8.25789C13.9078 8.08684 13.7691 7.94824 13.5981 7.94824H11.3712C11.2001 7.94824 11.0615 8.08684 11.0615 8.25789V10.4848C11.0615 10.6559 11.2001 10.7945 11.3712 10.7945H13.5981C13.7691 10.7945 13.9078 10.6559 13.9078 10.4848V8.25789ZM13.2885 10.1752H11.6808V8.56753H13.2885V10.1752Z" fill="#363636"/>
        <path d="M15.3409 10.7945H17.5679C17.7389 10.7945 17.8775 10.6559 17.8775 10.4848V8.25789C17.8775 8.08684 17.7389 7.94824 17.5679 7.94824H15.3409C15.1698 7.94824 15.0312 8.08684 15.0312 8.25789V10.4848C15.0312 10.6559 15.1698 10.7945 15.3409 10.7945ZM15.6505 8.56753H17.2582V10.1752H15.6505V8.56753Z" fill="#363636"/>
        <path d="M5.96832 12.2882C5.96832 12.1171 5.82968 11.9785 5.65868 11.9785H3.43171C3.26071 11.9785 3.12207 12.1171 3.12207 12.2882V14.5151C3.12207 14.6861 3.26071 14.8247 3.43171 14.8247H5.65868C5.82968 14.8247 5.96832 14.6861 5.96832 14.5151V12.2882ZM5.34903 14.2054H3.74136V12.5978H5.34903V14.2054Z" fill="#363636"/>
        <path d="M9.93805 12.2882C9.93805 12.1171 9.79941 11.9785 9.6284 11.9785H7.40144C7.23043 11.9785 7.0918 12.1171 7.0918 12.2882V14.5151C7.0918 14.6861 7.23043 14.8247 7.40144 14.8247H9.6284C9.79941 14.8247 9.93805 14.6861 9.93805 14.5151V12.2882ZM9.31876 14.2054H7.71109V12.5978H9.31876V14.2054Z" fill="#363636"/>
        <path d="M13.9078 12.2882C13.9078 12.1171 13.7691 11.9785 13.5981 11.9785H11.3712C11.2001 11.9785 11.0615 12.1171 11.0615 12.2882V14.5151C11.0615 14.6861 11.2001 14.8247 11.3712 14.8247H13.5981C13.7691 14.8247 13.9078 14.6861 13.9078 14.5151V12.2882ZM13.2885 14.2054H11.6808V12.5978H13.2885V14.2054Z" fill="#363636"/>
        <path d="M15.0312 14.5151C15.0312 14.6861 15.1698 14.8247 15.3409 14.8247H17.5679C17.7389 14.8247 17.8775 14.6861 17.8775 14.5151V12.2882C17.8775 12.1171 17.7389 11.9785 17.5679 11.9785H15.3409C15.1698 11.9785 15.0312 12.1171 15.0312 12.2882V14.5151ZM15.6505 12.5978H17.2582V14.2054H15.6505V12.5978Z" fill="#363636"/>
        <path d="M5.65868 16.0088H3.43171C3.26071 16.0088 3.12207 16.1474 3.12207 16.3184V18.5454C3.12207 18.7164 3.26071 18.855 3.43171 18.855H5.65868C5.82968 18.855 5.96832 18.7164 5.96832 18.5454V16.3184C5.96832 16.1474 5.82968 16.0088 5.65868 16.0088ZM5.34903 18.2357H3.74136V16.6281H5.34903V18.2357Z" fill="#363636"/>
        <path d="M9.6284 16.0088H7.40144C7.23043 16.0088 7.0918 16.1474 7.0918 16.3184V18.5454C7.0918 18.7164 7.23043 18.855 7.40144 18.855H9.6284C9.79941 18.855 9.93805 18.7164 9.93805 18.5454V16.3184C9.93805 16.1474 9.79941 16.0088 9.6284 16.0088ZM9.31876 18.2357H7.71109V16.6281H9.31876V18.2357Z" fill="#363636"/>
        <path d="M13.5981 16.0088H11.3712C11.2001 16.0088 11.0615 16.1474 11.0615 16.3184V18.5454C11.0615 18.7164 11.2001 18.855 11.3712 18.855H13.5981C13.7691 18.855 13.9078 18.7164 13.9078 18.5454V16.3184C13.9078 16.1474 13.7692 16.0088 13.5981 16.0088ZM13.2885 18.2357H11.6808V16.6281H13.2885V18.2357Z" fill="#363636"/>
        <path d="M15.0312 18.5454C15.0312 18.7164 15.1698 18.855 15.3409 18.855H17.5679C17.7389 18.855 17.8775 18.7164 17.8775 18.5454V16.3184C17.8775 16.1474 17.7389 16.0088 17.5679 16.0088H15.3409C15.1698 16.0088 15.0312 16.1474 15.0312 16.3184V18.5454ZM15.6505 16.6281H17.2582V18.2357H15.6505V16.6281Z" fill="#363636"/>
        <path d="M19.1963 2.29839H18.8144V1.11377C18.8144 0.499642 18.3147 0 17.7006 0C17.0865 0 16.5868 0.499642 16.5868 1.11377V2.29839H15.214V1.11377C15.2141 0.499642 14.7144 0 14.1003 0C13.4862 0 12.9865 0.499642 12.9865 1.11377V2.29839H11.6138V1.11377C11.6138 0.499642 11.1142 0 10.5001 0C9.88593 0 9.38628 0.499642 9.38628 1.11377V2.29839H8.01348V1.11377C8.01353 0.499642 7.51388 0 6.89976 0C6.28563 0 5.78599 0.499642 5.78599 1.11377V2.29839H4.41319V1.11377C4.41323 0.499642 3.91363 0 3.2995 0C2.68537 0 2.18573 0.499642 2.18573 1.11377V2.29839H1.80379C1.10107 2.29839 0.529297 2.87016 0.529297 3.57288V19.7255C0.529297 20.4283 1.10102 21 1.80379 21H13.6659C13.8369 21 13.9755 20.8614 13.9755 20.6904C13.9755 20.5193 13.8369 20.3807 13.6659 20.3807H1.80379C1.44254 20.3807 1.14859 20.0868 1.14859 19.7255V6.47995H5.10138C5.27239 6.47995 5.41103 6.34135 5.41103 6.1703C5.41103 5.99926 5.27239 5.86066 5.10138 5.86066H1.14859V3.57288C1.14859 3.21159 1.4425 2.91768 1.80379 2.91768H2.18573V3.3743C2.18573 3.98843 2.68537 4.48807 3.2995 4.48807C3.91363 4.48807 4.41327 3.98843 4.41327 3.3743V2.91768H5.78607V3.3743C5.78607 3.98843 6.28571 4.48807 6.89984 4.48807C7.51397 4.48807 8.01361 3.98843 8.01361 3.3743V2.91768H9.38641V3.3743C9.38641 3.98843 9.88605 4.48807 10.5002 4.48807C11.1143 4.48807 11.6139 3.98843 11.6139 3.3743V2.91768H12.9867V3.3743C12.9867 3.98843 13.4863 4.48807 14.1005 4.48807C14.7146 4.48807 15.2142 3.98843 15.2142 3.3743V2.91768H16.587V3.3743C16.587 3.98843 17.0867 4.48807 17.7008 4.48807C18.3149 4.48807 18.8146 3.98843 18.8146 3.3743V2.91768H19.1965C19.5578 2.91768 19.8517 3.21159 19.8517 3.57288V5.86066H6.34C6.16899 5.86066 6.03036 5.99926 6.03036 6.1703C6.03036 6.34135 6.16899 6.47995 6.34 6.47995H19.8516V19.7255C19.8516 20.0868 19.5576 20.3807 19.1964 20.3807H14.9044C14.7334 20.3807 14.5948 20.5193 14.5948 20.6904C14.5948 20.8614 14.7334 21 14.9044 21H19.1963C19.899 21 20.4708 20.4282 20.4708 19.7255V3.57288C20.4708 2.87016 19.899 2.29839 19.1963 2.29839ZM3.79394 3.3743C3.79394 3.64695 3.57215 3.86878 3.29946 3.86878C3.02681 3.86878 2.80498 3.64695 2.80498 3.3743V1.11377C2.80502 0.841118 3.02685 0.619289 3.2995 0.619289C3.57215 0.619289 3.79398 0.841118 3.79398 1.11377V3.3743H3.79394ZM7.39424 3.3743C7.39424 3.64695 7.17241 3.86878 6.89976 3.86878C6.6271 3.86878 6.40527 3.64695 6.40527 3.3743V1.11377C6.40527 0.841118 6.6271 0.619289 6.89976 0.619289C7.17241 0.619289 7.39424 0.841118 7.39424 1.11377V3.3743ZM10.9945 3.3743C10.9945 3.64695 10.7727 3.86878 10.5001 3.86878C10.2274 3.86878 10.0056 3.64695 10.0056 3.3743V1.11377C10.0056 0.841118 10.2274 0.619289 10.5001 0.619289C10.7727 0.619289 10.9945 0.841118 10.9945 1.11377V3.3743ZM14.5948 3.3743C14.5948 3.64695 14.373 3.86878 14.1003 3.86878C13.8277 3.86878 13.6058 3.64695 13.6058 3.3743V1.11377C13.6058 0.841118 13.8277 0.619289 14.1003 0.619289C14.373 0.619289 14.5948 0.841118 14.5948 1.11377V3.3743ZM18.1951 3.3743C18.1951 3.64695 17.9733 3.86878 17.7006 3.86878C17.428 3.86878 17.2061 3.64695 17.2061 3.3743V1.11377C17.2061 0.841118 17.428 0.619289 17.7006 0.619289C17.9733 0.619289 18.1951 0.841118 18.1951 1.11377V3.3743Z" fill="#363636"/>
    </g>
    <defs>
        <clipPath id="clip0_1784_2171">
            <rect width="21" height="21" fill="white"/>
        </clipPath>
    </defs>
</svg>
