<svg width="24" height="24" viewBox="0 0 24 24" fill="none" xmlns="http://www.w3.org/2000/svg">
    <path d="M3.62657 24H20.3732C22.1288 24 23.5555 22.5733 23.5555 20.8178V4.95998C23.5555 3.20442 22.1288 1.77774 20.3732 1.77774H19.111V0.888872C19.111 0.399978 18.711 0 18.2221 0C17.7332 0 17.3332 0.399978 17.3332 0.888872V1.77774H6.66659V0.888872C6.66659 0.399978 6.26654 0 5.77765 0C5.28875 0 4.88877 0.399978 4.88877 0.888872V1.77774H3.62657C1.87101 1.77774 0.444336 3.20442 0.444336 4.95998V20.8178C0.444336 22.5733 1.87101 24 3.62657 24ZM2.22216 4.95998C2.22216 4.18667 2.85326 3.55556 3.62657 3.55556H4.88877V4.44444C4.88877 4.93333 5.28875 5.33331 5.77765 5.33331C6.26654 5.33331 6.66652 4.93333 6.66652 4.44444V3.55556H17.3332V4.44444C17.3332 4.93333 17.7332 5.33331 18.2221 5.33331C18.711 5.33331 19.111 4.93333 19.111 4.44444V3.55556H20.3732C21.1465 3.55556 21.7776 4.18667 21.7776 4.95998V7.55556H2.22216V4.95998ZM2.22216 9.33331H21.7777V20.8178C21.7777 21.5911 21.1466 22.2222 20.3733 22.2222H3.62657C2.85326 22.2222 2.22216 21.5911 2.22216 20.8178V9.33331Z" fill="#979797"/>
</svg>
