<svg width="16" height="16" viewBox="0 0 16 16" fill="none" xmlns="http://www.w3.org/2000/svg">
    <g clip-path="url(#clip0_1853_2715)">
        <path d="M5.79326 5.79688C6.00023 5.79688 6.16797 5.96461 6.16797 6.17158V13.2535C6.16797 13.4603 6.00023 13.6282 5.79326 13.6282C5.5863 13.6282 5.41856 13.4603 5.41856 13.2535V6.17158C5.41856 5.96461 5.5863 5.79688 5.79326 5.79688Z" fill="#ED3124"/>
        <path d="M10.2142 5.79688C10.4211 5.79688 10.5889 5.96461 10.5889 6.17158V13.2535C10.5889 13.4603 10.4211 13.6282 10.2142 13.6282C10.0072 13.6282 9.83945 13.4603 9.83945 13.2535V6.17158C9.83945 5.96461 10.0072 5.79688 10.2142 5.79688Z" fill="#ED3124"/>
        <path d="M13.4368 4.76335V13.9953C13.4368 14.541 13.2367 15.0534 12.8871 15.4211C12.5392 15.7898 12.055 15.9991 11.5483 16H4.45873C3.95186 15.9991 3.46767 15.7898 3.11989 15.4211C2.77036 15.0534 2.57027 14.541 2.57027 13.9953V4.76335C1.87546 4.57893 1.42523 3.90768 1.51817 3.19471C1.61126 2.48189 2.21855 1.94867 2.93752 1.94852H4.85598V1.48014C4.85379 1.08626 5.00952 0.708039 5.28836 0.42979C5.56719 0.151688 5.946 -0.0031709 6.33988 4.92333e-05H9.66715C10.061 -0.0031709 10.4398 0.151688 10.7187 0.42979C10.9975 0.708039 11.1532 1.08626 11.151 1.48014V1.94852H13.0695C13.7885 1.94867 14.3958 2.48189 14.4889 3.19471C14.5818 3.90768 14.1316 4.57893 13.4368 4.76335ZM4.45873 15.2506H11.5483C12.1889 15.2506 12.6873 14.7002 12.6873 13.9953V4.79629H3.31969V13.9953C3.31969 14.7002 3.81808 15.2506 4.45873 15.2506ZM10.4016 1.48014C10.4041 1.28503 10.3274 1.09724 10.189 0.959502C10.0506 0.821768 9.86241 0.746095 9.66715 0.749461H6.33988C6.14462 0.746095 5.95639 0.821768 5.81807 0.959502C5.6796 1.09709 5.60291 1.28503 5.60539 1.48014V1.94852H10.4016V1.48014ZM13.0695 2.69793H2.93752C2.56501 2.69793 2.26304 2.99989 2.26304 3.3724C2.26304 3.74492 2.56501 4.04688 2.93752 4.04688H13.0695C13.442 4.04688 13.744 3.74492 13.744 3.3724C13.744 2.99989 13.442 2.69793 13.0695 2.69793Z" fill="#ED3124"/>
        <path d="M8.0042 5.79688C8.21117 5.79688 8.37891 5.96461 8.37891 6.17158V13.2535C8.37891 13.4603 8.21117 13.6282 8.0042 13.6282C7.79723 13.6282 7.62949 13.4603 7.62949 13.2535V6.17158C7.62949 5.96461 7.79723 5.79688 8.0042 5.79688Z" fill="#ED3124"/>
    </g>
    <defs>
        <clipPath id="clip0_1853_2715">
            <rect width="16" height="16" fill="white" transform="matrix(-1 0 0 1 16 0)"/>
        </clipPath>
    </defs>
</svg>
