<svg width="77" height="77" viewBox="0 0 77 77" fill="none" xmlns="http://www.w3.org/2000/svg">
    <path d="M38.5 76C59.2107 76 76 59.2107 76 38.5C76 17.7893 59.2107 1 38.5 1C17.7893 1 1 17.7893 1 38.5C1 59.2107 17.7893 76 38.5 76Z" fill="#F7F8F9" stroke="#BFBFBF" stroke-opacity="0.264913"/>
    <g clip-path="url(#clip0_1856_3270)">
        <path d="M33.7585 32.7676C34.2501 32.7676 34.6484 33.166 34.6484 33.6575V50.4771C34.6484 50.9683 34.2501 51.3671 33.7585 51.3671C33.267 51.3671 32.8686 50.9683 32.8686 50.4771V33.6575C32.8686 33.166 33.267 32.7676 33.7585 32.7676Z" fill="#ED3124"/>
        <path d="M44.2595 32.7676C44.751 32.7676 45.1494 33.166 45.1494 33.6575V50.4771C45.1494 50.9683 44.751 51.3671 44.2595 51.3671C43.7679 51.3671 43.3696 50.9683 43.3696 50.4771V33.6575C43.3696 33.166 43.7679 32.7676 44.2595 32.7676Z" fill="#ED3124"/>
        <path d="M51.9129 30.313V52.2389C51.9129 53.5348 51.4377 54.7519 50.6076 55.6251C49.7812 56.5008 48.6313 56.9979 47.4278 57H30.5901C29.3863 56.9979 28.2363 56.5008 27.4104 55.6251C26.5802 54.7519 26.105 53.5348 26.105 52.2389V30.313C24.4548 29.875 23.3855 28.2807 23.6063 26.5874C23.8274 24.8945 25.2697 23.6281 26.9772 23.6277H31.5336V22.5153C31.5284 21.5799 31.8982 20.6816 32.5605 20.0208C33.2227 19.3603 34.1223 18.9925 35.0578 19.0001H42.9601C43.8956 18.9925 44.7952 19.3603 45.4574 20.0208C46.1197 20.6816 46.4896 21.5799 46.4843 22.5153V23.6277H51.0407C52.7482 23.6281 54.1905 24.8945 54.4116 26.5874C54.6324 28.2807 53.5631 29.875 51.9129 30.313ZM30.5901 55.2201H47.4278C48.9494 55.2201 50.133 53.9131 50.133 52.2389V30.3912H27.8849V52.2389C27.8849 53.9131 29.0685 55.2201 30.5901 55.2201ZM44.7045 22.5153C44.7104 22.0519 44.5282 21.6059 44.1994 21.2788C43.8709 20.9517 43.4238 20.772 42.9601 20.78H35.0578C34.5941 20.772 34.147 20.9517 33.8185 21.2788C33.4897 21.6056 33.3075 22.0519 33.3134 22.5153V23.6277H44.7045V22.5153ZM51.0407 25.4076H26.9772C26.0925 25.4076 25.3753 26.1247 25.3753 27.0095C25.3753 27.8942 26.0925 28.6113 26.9772 28.6113H51.0407C51.9254 28.6113 52.6426 27.8942 52.6426 27.0095C52.6426 26.1247 51.9254 25.4076 51.0407 25.4076Z" fill="#ED3124"/>
        <path d="M39.0095 32.7676C39.501 32.7676 39.8994 33.166 39.8994 33.6575V50.4771C39.8994 50.9683 39.501 51.3671 39.0095 51.3671C38.5179 51.3671 38.1196 50.9683 38.1196 50.4771V33.6575C38.1196 33.166 38.5179 32.7676 39.0095 32.7676Z" fill="#ED3124"/>
    </g>
    <defs>
        <clipPath id="clip0_1856_3270">
            <rect width="38" height="38" fill="white" transform="matrix(-1 0 0 1 58 19)"/>
        </clipPath>
    </defs>
</svg>
