<svg width="13" height="13" viewBox="0 0 13 13" fill="none" xmlns="http://www.w3.org/2000/svg">
    <path d="M11.8967 0.584091C11.1179 -0.194697 9.85514 -0.194697 9.07629 0.584091L1.16966 8.49002C1.11547 8.5442 1.07634 8.61137 1.05592 8.68511L0.0161721 12.4385C-0.026588 12.5924 0.0168645 12.7572 0.129737 12.8702C0.242783 12.9831 0.407591 13.0265 0.561493 12.9839L4.3152 11.9441C4.38895 11.9237 4.45612 11.8846 4.51031 11.8304L12.4168 3.92427C13.1944 3.14497 13.1944 1.8834 12.4168 1.10409L11.8967 0.584091ZM2.13531 8.77806L8.60627 2.3075L10.6932 4.39425L4.22207 10.8648L2.13531 8.77806ZM1.71844 9.61449L3.38574 11.2818L1.07946 11.9207L1.71844 9.61449ZM11.7901 3.29764L11.3201 3.76762L9.23296 1.68069L9.70315 1.21072C10.1358 0.778138 10.8372 0.778138 11.2699 1.21072L11.7901 1.73072C12.222 2.16382 12.222 2.86471 11.7901 3.29764Z" fill="#363636"/>
</svg>
