<svg width="32" height="32" viewBox="0 0 32 32" fill="none" xmlns="http://www.w3.org/2000/svg">
    <circle cx="16" cy="16" r="15" stroke="#C9C9C9"/>
    <path d="M19.9118 6H11.3216C10.9711 6 10.6349 6.13924 10.3871 6.38708C10.1392 6.63492 10 6.97107 10 7.32157V24.502C10 24.8525 10.1392 25.1886 10.3871 25.4365C10.6349 25.6843 10.9711 25.8235 11.3216 25.8235H19.9118C20.2623 25.8235 20.5984 25.6843 20.8463 25.4365C21.0941 25.1886 21.2333 24.8525 21.2333 24.502V7.32157C21.2333 6.97107 21.0941 6.63492 20.8463 6.38708C20.5984 6.13924 20.2623 6 19.9118 6ZM20.5725 24.502C20.5725 24.6772 20.5029 24.8453 20.379 24.9692C20.2551 25.0931 20.087 25.1627 19.9118 25.1627H11.3216C11.1463 25.1627 10.9782 25.0931 10.8543 24.9692C10.7304 24.8453 10.6608 24.6772 10.6608 24.502V23.8412H20.5725V24.502ZM20.5725 23.1804H10.6608V8.64314H20.5725V23.1804ZM20.5725 7.98235H10.6608V7.32157C10.6608 7.14632 10.7304 6.97824 10.8543 6.85432C10.9782 6.7304 11.1463 6.66078 11.3216 6.66078H19.9118C20.087 6.66078 20.2551 6.7304 20.379 6.85432C20.5029 6.97824 20.5725 7.14632 20.5725 7.32157V7.98235Z" fill="#C9C9C9"/>
    <path d="M15.2861 6.99023H17.2685V7.65102H15.2861V6.99023Z" fill="#C9C9C9"/>
    <path d="M13.9648 6.99023H14.6256V7.65102H13.9648V6.99023Z" fill="#C9C9C9"/>
    <path d="M14.626 24.1719H16.6083V24.8327H14.626V24.1719Z" fill="#C9C9C9"/>
    <path d="M11.9827 20.538H12.3131V21.8596C12.3131 21.9472 12.3479 22.0312 12.4099 22.0932C12.4719 22.1552 12.5559 22.19 12.6435 22.19H19.2514C19.339 22.19 19.423 22.1552 19.485 22.0932C19.5469 22.0312 19.5818 21.9472 19.5818 21.8596V16.9037C19.581 16.8346 19.5586 16.7675 19.5177 16.7117C19.4768 16.656 19.4195 16.6145 19.3538 16.5931L14.3979 14.9412C14.3535 14.9262 14.3063 14.9208 14.2596 14.9254C14.213 14.9301 14.1678 14.9446 14.1272 14.968C14.0865 14.9915 14.0514 15.0233 14.024 15.0614C13.9966 15.0995 13.9777 15.143 13.9684 15.189L13.6942 16.5733H12.6435C12.5559 16.5733 12.4719 16.6081 12.4099 16.6701C12.3479 16.732 12.3131 16.8161 12.3131 16.9037V18.2253H11.9827C11.8951 18.2253 11.8111 18.2601 11.7491 18.322C11.6872 18.384 11.6523 18.468 11.6523 18.5557V20.2076C11.6523 20.2952 11.6872 20.3793 11.7491 20.4412C11.8111 20.5032 11.8951 20.538 11.9827 20.538ZM14.5466 15.6845L17.2161 16.5733H14.3682L14.5466 15.6845ZM12.9739 17.2341H18.921V21.5292H12.9739V20.538H14.6259C14.7135 20.538 14.7975 20.5032 14.8595 20.4412C14.9215 20.3793 14.9563 20.2952 14.9563 20.2076V18.5557C14.9563 18.468 14.9215 18.384 14.8595 18.322C14.7975 18.2601 14.7135 18.2253 14.6259 18.2253H12.9739V17.2341ZM12.3131 18.886H14.2955V19.8772H12.3131V18.886Z" fill="#C9C9C9"/>
    <path d="M17.5996 20.207H18.2604V20.8678H17.5996V20.207Z" fill="#C9C9C9"/>
    <path d="M14.457 12.6866L14.8865 13.1888C15.0681 13.0396 15.2958 12.9579 15.5308 12.9579C15.7658 12.9579 15.9935 13.0396 16.1751 13.1888L16.6079 12.6866C16.305 12.4372 15.9248 12.3008 15.5325 12.3008C15.1401 12.3008 14.7599 12.4372 14.457 12.6866Z" fill="#C9C9C9"/>
    <path d="M17.5491 11.7629C16.9996 11.2548 16.2788 10.9727 15.5304 10.9727C14.782 10.9727 14.0612 11.2548 13.5117 11.7629L13.9644 12.2453C14.3916 11.8505 14.952 11.6313 15.5337 11.6313C16.1154 11.6313 16.6758 11.8505 17.1031 12.2453L17.5491 11.7629Z" fill="#C9C9C9"/>
    <path d="M15.5303 10.2954C16.4607 10.2903 17.357 10.6455 18.0313 11.2866L18.4873 10.8108C17.6891 10.0532 16.6307 9.63086 15.5303 9.63086C14.4298 9.63086 13.3714 10.0532 12.5732 10.8108L13.0292 11.2866C13.7035 10.6455 14.5998 10.2903 15.5303 10.2954Z" fill="#C9C9C9"/>
</svg>
