<svg width="125" height="77" viewBox="0 0 125 77" fill="none" xmlns="http://www.w3.org/2000/svg">
    <path d="M38.5 76C59.2107 76 76 59.2107 76 38.5C76 17.7893 59.2107 1 38.5 1C17.7893 1 1 17.7893 1 38.5C1 59.2107 17.7893 76 38.5 76Z" fill="#F7F8F9" stroke="#BFBFBF" stroke-opacity="0.264913"/>
    <path d="M72.9309 10.1794L64.2947 18.6028C64.1775 18.7176 64.0181 18.7822 63.8519 18.7822C63.6858 18.7822 63.5264 18.7176 63.4092 18.6028L60.0695 15.3421C59.9522 15.2272 59.7929 15.1627 59.6267 15.1627C59.4605 15.1627 59.3012 15.2272 59.1839 15.3421C59.0662 15.4564 59 15.6119 59 15.774C59 15.936 59.0662 16.0915 59.1839 16.2059L62.5249 19.4641C63.2587 20.1786 64.4471 20.1786 65.1809 19.4641L73.8164 11.0426C73.9339 10.9282 74 10.7729 74 10.611C74 10.449 73.9339 10.2938 73.8164 10.1794C73.6991 10.0646 73.5398 10 73.3736 10C73.2075 10 73.0481 10.0646 72.9309 10.1794Z" fill="white" stroke="white" stroke-width="1.86583"/>
    <g clip-path="url(#clip0_0_1)">
        <path d="M58.9298 28.011C58.799 27.5246 58.4799 27.11 58.0433 26.8586C57.6064 26.606 57.087 26.5377 56.5997 26.6685C56.113 26.7996 55.6984 27.1184 55.447 27.5549L55.1304 28.1059C54.8296 27.9331 54.4453 28.0348 54.2693 28.3341L52.6609 31.0757L52.1099 30.7591C51.964 30.6747 51.7902 30.6518 51.6276 30.6957C51.4646 30.7399 51.3261 30.8469 51.2423 30.9935C51.0707 31.2962 51.1752 31.6808 51.4767 31.8546L52.0277 32.1712L46.6453 41.4986L45.3154 45.0512L44.6822 46.2351C44.3115 46.8801 44.3511 47.6818 44.7836 48.2869L43.3589 50.0344L42.96 49.0342C42.7801 48.5883 42.3636 48.2829 41.8846 48.2455C41.4054 48.2077 40.9462 48.4446 40.6992 48.8567L40.4713 49.2429L40.2561 46.71C40.2067 46.1108 39.7426 45.6291 39.1458 45.5567C38.5488 45.4847 37.9836 45.8424 37.7928 46.4126L36.2351 51.0857C36.1262 51.4162 36.3043 51.7724 36.6339 51.8837C36.6958 51.9125 36.7623 51.9298 36.8303 51.9341C37.1024 51.935 37.3448 51.7616 37.432 51.5037L38.9832 46.8306L39.2049 49.4012C39.2506 49.9497 39.6448 50.4058 40.181 50.5301C40.7171 50.6544 41.2718 50.4181 41.5541 49.946L41.7885 49.5595L42.1812 50.5539C42.3478 50.9728 42.7247 51.2718 43.1709 51.3383C43.617 51.4048 44.0648 51.2288 44.3467 50.8767L45.8222 49.0088C45.9855 49.0515 46.1537 49.0729 46.3225 49.0722C47.0011 49.0775 47.6313 48.7201 47.9751 48.1348L48.6083 47.0773L51.021 44.1456L56.4603 34.7041L57.0112 35.0207C57.1581 35.1048 57.2651 35.2436 57.3087 35.4072C57.3526 35.5695 57.3297 35.7427 57.2456 35.8883L54.7127 40.2766C54.6172 40.4207 54.5847 40.5976 54.623 40.7664C54.6614 40.9349 54.7668 41.0805 54.9152 41.1693C55.0612 41.254 55.2349 41.2769 55.3976 41.233C55.5605 41.1888 55.699 41.0818 55.7828 40.9352L58.3157 36.5469C58.5683 36.11 58.6367 35.5905 58.5056 35.1032C58.3745 34.6166 58.0557 34.2019 57.6191 33.9506L57.0681 33.634L58.6512 30.892C58.824 30.5912 58.7223 30.2072 58.4233 30.0309L58.7399 29.48C58.9993 29.0363 59.068 28.5063 58.9298 28.011ZM56.5425 28.1882C56.6263 28.0416 56.7654 27.9343 56.929 27.8907C57.0916 27.8505 57.2635 27.8731 57.4101 27.9541C57.557 28.0379 57.6639 28.177 57.7079 28.3403C57.748 28.5029 57.7255 28.6748 57.6445 28.8214L57.3279 29.3724L56.2259 28.7391L56.5425 28.1882ZM47.9117 45.8681L47.5951 45.6844L46.6579 45.1396L47.5571 42.7335L49.5517 43.8858L47.9117 45.8681ZM46.012 47.6979C45.7446 47.5114 45.6623 47.1528 45.8222 46.8683L46.1388 46.3176L47.2405 46.9509L46.9239 47.4954C46.8351 47.6493 46.6861 47.7588 46.5126 47.7974C46.3392 47.8358 46.1577 47.7999 46.012 47.6979ZM50.2736 42.8476L48.0827 41.5811L53.1485 32.8044L55.3394 34.0708L50.2736 42.8476ZM55.9727 32.9754L53.7817 31.7089L55.0482 29.518L57.2391 30.7844L55.9727 32.9754Z" fill="#818181"/>
        <path d="M30.9923 47.3808L28.751 49.6162L27.4084 48.2737C27.1614 48.0282 26.7625 48.0282 26.5155 48.2737C26.3955 48.3928 26.3281 48.5545 26.3281 48.7233C26.3281 48.8921 26.3955 49.0541 26.5155 49.1728L27.858 50.5154C28.0955 50.751 28.4164 50.883 28.751 50.8827C29.0874 50.8845 29.4111 50.7525 29.6501 50.5154L31.8852 48.2737C32.1004 48.0223 32.0859 47.6479 31.8522 47.4142C31.6181 47.1801 31.2437 47.1656 30.9923 47.3808Z" fill="#818181"/>
        <path d="M23.5332 49.0844C23.5332 52.0573 25.943 54.4668 28.9156 54.4668C31.8882 54.4668 34.298 52.0573 34.298 49.0844C34.298 48.7347 34.0145 48.4512 33.6648 48.4512C33.3151 48.4512 33.0316 48.7347 33.0316 49.0844C33.0316 51.3576 31.1888 53.2004 28.9156 53.2004C26.6424 53.2004 24.7997 51.3576 24.7997 49.0844C24.7997 46.8112 26.6424 44.9684 28.9156 44.9684C29.8067 44.966 30.674 45.255 31.3851 45.7918C31.665 46.0017 32.062 45.9449 32.2716 45.665C32.4815 45.3852 32.425 44.9885 32.1451 44.7786C30.5141 43.5554 28.3319 43.3588 26.5086 44.2703C24.6849 45.1821 23.5332 47.0459 23.5332 49.0844Z" fill="#818181"/>
        <path d="M43.7963 24.0721C44.146 24.0721 44.4295 23.7889 44.4295 23.4389C44.4295 23.0892 44.146 22.8057 43.7963 22.8057H27.3324C26.9827 22.8057 26.6992 23.0892 26.6992 23.4389V25.9718C26.6992 26.3218 26.9827 26.605 27.3324 26.605H43.7963C44.146 26.605 44.4295 26.3218 44.4295 25.9718C44.4295 25.6221 44.146 25.3386 43.7963 25.3386H27.9657V24.0721H43.7963Z" fill="#818181"/>
        <path d="M29.2319 27.8711C28.8822 27.8711 28.5986 28.1546 28.5986 28.5043C28.5986 28.8543 28.8822 29.1375 29.2319 29.1375H41.8964C42.2461 29.1375 42.5296 28.8543 42.5296 28.5043C42.5296 28.1546 42.2461 27.8711 41.8964 27.8711H29.2319Z" fill="#818181"/>
        <path d="M45.696 32.3037H31.7651C31.4154 32.3037 31.1318 32.5872 31.1318 32.9369C31.1318 33.2869 31.4154 33.5702 31.7651 33.5702H45.696C46.0457 33.5702 46.3292 33.2869 46.3292 32.9369C46.3292 32.5872 46.0457 32.3037 45.696 32.3037Z" fill="#818181"/>
        <path d="M39.3636 36.7367C39.3636 36.387 39.08 36.1035 38.7304 36.1035H26.0658C25.7161 36.1035 25.4326 36.387 25.4326 36.7367C25.4326 37.0867 25.7161 37.37 26.0658 37.37H38.7304C39.08 37.37 39.3636 37.0867 39.3636 36.7367Z" fill="#818181"/>
        <path d="M45.6957 36.1035H41.2631C40.9134 36.1035 40.6299 36.387 40.6299 36.7367C40.6299 37.0867 40.9134 37.37 41.2631 37.37H45.6957C46.0454 37.37 46.3289 37.0867 46.3289 36.7367C46.3289 36.387 46.0454 36.1035 45.6957 36.1035Z" fill="#818181"/>
        <path d="M32.3981 40.536C32.7478 40.536 33.0313 40.2528 33.0313 39.9028C33.0313 39.5531 32.7478 39.2695 32.3981 39.2695H26.0658C25.7161 39.2695 25.4326 39.5531 25.4326 39.9028C25.4326 40.2528 25.7161 40.536 26.0658 40.536H32.3981Z" fill="#818181"/>
        <path d="M34.9311 40.536H39.3637C39.7134 40.536 39.9969 40.2528 39.9969 39.9028C39.9969 39.5531 39.7134 39.2695 39.3637 39.2695H34.9311C34.5814 39.2695 34.2979 39.5531 34.2979 39.9028C34.2979 40.2528 34.5814 40.536 34.9311 40.536Z" fill="#818181"/>
        <path d="M49.4951 48.1342C49.1455 48.1342 48.8619 48.4178 48.8619 48.7675V55.0997C48.8619 55.4497 48.5784 55.7329 48.2287 55.7329H22.8997C22.55 55.7329 22.2665 55.4497 22.2665 55.0997V20.9055C22.2665 20.5558 22.55 20.2723 22.8997 20.2723H48.2287C48.5784 20.2723 48.8619 20.5558 48.8619 20.9055V32.7977C48.8619 33.1474 49.1455 33.4309 49.4951 33.4309C49.8448 33.4309 50.1284 33.1474 50.1284 32.7977V20.9055C50.1284 19.8564 49.2778 19.0059 48.2287 19.0059H22.8997C21.8506 19.0059 21 19.8564 21 20.9055V55.0997C21 56.1491 21.8506 56.9994 22.8997 56.9994H48.2287C49.2778 56.9994 50.1284 56.1491 50.1284 55.0997V48.7675C50.1284 48.4178 49.8448 48.1342 49.4951 48.1342Z" fill="#818181"/>
    </g>
    <path d="M121.163 22H104.837C104.138 21.9904 103.454 21.7945 102.858 21.4329C102.262 21.0713 101.775 20.5574 101.449 19.9451C101.123 19.3329 100.969 18.645 101.005 17.9538C101.041 17.2627 101.264 16.5938 101.651 16.0175L109.813 3.71374C110.158 3.18775 110.63 2.75542 111.187 2.45611C111.743 2.15679 112.367 2 113 2C113.633 2 114.257 2.15679 114.813 2.45611C115.37 2.75542 115.842 3.18775 116.187 3.71374L124.349 16.0175C124.736 16.5938 124.959 17.2627 124.995 17.9538C125.031 18.645 124.877 19.3329 124.551 19.9451C124.225 20.5574 123.738 21.0713 123.142 21.4329C122.546 21.7945 121.862 21.9904 121.163 22Z" fill="#F0C419"/>
    <path d="M114 6.33333C114 5.59695 113.552 5 113 5C112.448 5 112 5.59695 112 6.33333V13.6667C112 14.403 112.448 15 113 15C113.552 15 114 14.403 114 13.6667V6.33333Z" fill="#35495E"/>
    <path d="M113 19C113.552 19 114 18.5523 114 18C114 17.4477 113.552 17 113 17C112.448 17 112 17.4477 112 18C112 18.5523 112.448 19 113 19Z" fill="#35495E"/>
    <defs>
        <clipPath id="clip0_0_1">
            <rect width="38" height="38" fill="white" transform="translate(21 19)"/>
        </clipPath>
    </defs>
</svg>
