<svg width="79" height="78" viewBox="0 0 79 78" fill="none" xmlns="http://www.w3.org/2000/svg">
    <circle cx="38" cy="40" r="38" fill="#F7F8F9"/>
    <circle cx="38" cy="40" r="37.5" stroke="#BFBFBF" stroke-opacity="0.264913"/>
    <path fill-rule="evenodd" clip-rule="evenodd" d="M48.9309 27.338C45.5169 25.556 42.5652 24.8 39.0267 24.8C35.506 24.8 32.163 25.646 29.1224 27.338C28.6957 27.572 28.1622 27.41 27.9133 26.978C27.6821 26.546 27.8422 25.988 28.2689 25.754C31.5763 23.936 35.2037 23 39.0267 23C42.8141 23 46.1215 23.846 49.7489 25.736C50.1934 25.97 50.3534 26.51 50.1223 26.942C49.9622 27.266 49.66 27.446 49.3399 27.446C49.1976 27.446 49.0554 27.41 48.9309 27.338ZM23.379 36.734C22.9701 36.446 22.8811 35.888 23.1656 35.474C24.926 32.954 27.1665 30.974 29.8337 29.588C35.417 26.672 42.5652 26.654 48.1663 29.57C50.8335 30.956 53.074 32.918 54.8344 35.42C55.1189 35.816 55.0299 36.392 54.621 36.68C54.212 36.968 53.6608 36.878 53.3763 36.464C51.7759 34.196 49.7489 32.414 47.3484 31.172C42.2451 28.526 35.7193 28.526 30.6338 31.19C28.2156 32.45 26.1885 34.25 24.5882 36.518C24.4459 36.77 24.1792 36.896 23.8947 36.896C23.7169 36.896 23.5391 36.842 23.379 36.734ZM34.3857 58.352C34.5458 58.532 34.7769 58.622 35.0081 58.622C35.2392 58.622 35.4704 58.532 35.666 58.352C36.0038 57.992 36.0038 57.434 35.666 57.074C34.2968 55.67 33.5144 54.788 32.3764 52.718C31.2918 50.774 30.7228 48.38 30.7228 45.788C30.7228 41.432 34.4391 37.886 39.0089 37.886C43.5787 37.886 47.295 41.432 47.295 45.788C47.295 46.292 47.6862 46.688 48.1841 46.688C48.682 46.688 49.0732 46.292 49.0732 45.788C49.0732 40.442 44.5567 36.086 39.0089 36.086C33.4611 36.086 28.9446 40.442 28.9446 45.788C28.9446 48.686 29.5847 51.386 30.8117 53.6C32.003 55.778 32.8387 56.786 34.3857 58.352ZM42.2451 53.69C39.5957 51.872 38.0131 48.92 38.0131 45.788C38.0131 45.284 38.4043 44.888 38.9022 44.888C39.4001 44.888 39.7913 45.284 39.7913 45.788C39.7913 48.326 41.0715 50.72 43.2409 52.196C44.5033 53.06 45.9792 53.474 47.7573 53.474C48.1841 53.474 48.8954 53.42 49.6066 53.294C50.0867 53.204 50.549 53.528 50.6379 54.032C50.7268 54.518 50.4068 54.986 49.9089 55.076C48.8954 55.274 48.0063 55.292 47.7573 55.292C45.6414 55.292 43.7743 54.752 42.2451 53.69ZM37.3374 55.184C39.2756 57.11 41.1249 58.172 43.9521 58.964C44.0233 58.982 44.1122 59 44.1833 59C44.5567 59 44.9301 58.73 45.019 58.316C45.1435 57.848 44.8768 57.344 44.3967 57.218C41.8895 56.516 40.2714 55.58 38.5821 53.888C36.4306 51.728 35.257 48.848 35.257 45.77C35.257 43.844 36.9107 42.278 38.9555 42.278C41.0004 42.278 42.6541 43.844 42.6541 45.77C42.6541 48.686 45.1079 51.062 48.1308 51.062C51.1536 51.062 53.6074 48.686 53.6074 45.77C53.6074 37.994 47.0283 31.676 38.9378 31.676C33.1944 31.676 27.9489 34.934 25.5839 39.956C24.7838 41.666 24.3748 43.628 24.3748 45.788C24.3748 48.218 24.8015 50.558 25.6728 52.916C25.8329 53.366 26.3485 53.618 26.8108 53.438C27.2732 53.276 27.5043 52.754 27.3265 52.286C26.2596 49.406 26.1351 47.192 26.1351 45.788C26.1351 43.916 26.4908 42.206 27.1842 40.748C29.2647 36.338 33.8878 33.494 38.9378 33.494C46.0503 33.494 51.8293 39.002 51.8293 45.788C51.8293 47.714 50.1756 49.28 48.1308 49.28C46.0859 49.28 44.4322 47.714 44.4322 45.788C44.4322 42.872 41.9784 40.496 38.9555 40.496C35.9327 40.496 33.4789 42.872 33.4789 45.788C33.4789 49.352 34.848 52.682 37.3374 55.184Z" fill="#5F5F5F"/>
    <circle cx="65" cy="14" r="13" fill="#038908" stroke="white" stroke-width="2"/>
    <path d="M71.9309 9.1794L63.2947 17.6028C63.1775 17.7176 63.0181 17.7822 62.8519 17.7822C62.6858 17.7822 62.5264 17.7176 62.4092 17.6028L59.0695 14.3421C58.9522 14.2272 58.7929 14.1627 58.6267 14.1627C58.4605 14.1627 58.3012 14.2272 58.1839 14.3421C58.0662 14.4564 58 14.6119 58 14.774C58 14.936 58.0662 15.0915 58.1839 15.2059L61.5249 18.4641C62.2587 19.1786 63.4471 19.1786 64.1809 18.4641L72.8164 10.0426C72.9339 9.92822 73 9.77293 73 9.61099C73 9.44905 72.9339 9.29376 72.8164 9.1794C72.6991 9.06456 72.5398 9 72.3736 9C72.2075 9 72.0481 9.06456 71.9309 9.1794Z" fill="white" stroke="white" stroke-width="1.86583"/>
</svg>
