<svg width="32" height="36" viewBox="0 0 32 36" fill="none" xmlns="http://www.w3.org/2000/svg">
    <path fill-rule="evenodd" clip-rule="evenodd" d="M25.9309 4.338C22.5169 2.556 19.5652 1.8 16.0267 1.8C12.506 1.8 9.16305 2.646 6.12242 4.338C5.69567 4.572 5.16223 4.41 4.91329 3.978C4.68213 3.546 4.84216 2.988 5.26892 2.754C8.57626 0.936 12.2037 0 16.0267 0C19.8141 0 23.1215 0.846 26.7489 2.736C27.1934 2.97 27.3534 3.51 27.1223 3.942C26.9622 4.266 26.66 4.446 26.3399 4.446C26.1976 4.446 26.0554 4.41 25.9309 4.338ZM0.379026 13.734C-0.0299461 13.446 -0.118853 12.888 0.165649 12.474C1.92601 9.954 4.16647 7.974 6.83368 6.588C12.417 3.672 19.5652 3.654 25.1663 6.57C27.8335 7.956 30.074 9.918 31.8344 12.42C32.1189 12.816 32.0299 13.392 31.621 13.68C31.212 13.968 30.6608 13.878 30.3763 13.464C28.7759 11.196 26.7489 9.414 24.3484 8.172C19.2451 5.526 12.7193 5.526 7.63384 8.19C5.21557 9.45 3.18849 11.25 1.58816 13.518C1.44591 13.77 1.17919 13.896 0.894688 13.896C0.716873 13.896 0.539059 13.842 0.379026 13.734ZM11.3857 35.352C11.5458 35.532 11.7769 35.622 12.0081 35.622C12.2392 35.622 12.4704 35.532 12.666 35.352C13.0038 34.992 13.0038 34.434 12.666 34.074C11.2968 32.67 10.5144 31.788 9.37642 29.718C8.29176 27.774 7.72275 25.38 7.72275 22.788C7.72275 18.432 11.4391 14.886 16.0089 14.886C20.5787 14.886 24.295 18.432 24.295 22.788C24.295 23.292 24.6862 23.688 25.1841 23.688C25.682 23.688 26.0732 23.292 26.0732 22.788C26.0732 17.442 21.5567 13.086 16.0089 13.086C10.4611 13.086 5.94461 17.442 5.94461 22.788C5.94461 25.686 6.58474 28.386 7.81166 30.6C9.00301 32.778 9.83874 33.786 11.3857 35.352ZM19.2451 30.69C16.5957 28.872 15.0131 25.92 15.0131 22.788C15.0131 22.284 15.4043 21.888 15.9022 21.888C16.4001 21.888 16.7913 22.284 16.7913 22.788C16.7913 25.326 18.0715 27.72 20.2409 29.196C21.5033 30.06 22.9792 30.474 24.7573 30.474C25.1841 30.474 25.8954 30.42 26.6066 30.294C27.0867 30.204 27.549 30.528 27.6379 31.032C27.7268 31.518 27.4068 31.986 26.9089 32.076C25.8954 32.274 25.0063 32.292 24.7573 32.292C22.6414 32.292 20.7743 31.752 19.2451 30.69ZM14.3374 32.184C16.2756 34.11 18.1249 35.172 20.9521 35.964C21.0233 35.982 21.1122 36 21.1833 36C21.5567 36 21.9301 35.73 22.019 35.316C22.1435 34.848 21.8768 34.344 21.3967 34.218C18.8895 33.516 17.2714 32.58 15.5821 30.888C13.4306 28.728 12.257 25.848 12.257 22.77C12.257 20.844 13.9107 19.278 15.9555 19.278C18.0004 19.278 19.6541 20.844 19.6541 22.77C19.6541 25.686 22.1079 28.062 25.1308 28.062C28.1536 28.062 30.6074 25.686 30.6074 22.77C30.6074 14.994 24.0283 8.676 15.9378 8.676C10.1944 8.676 4.94885 11.934 2.58392 16.956C1.78376 18.666 1.37479 20.628 1.37479 22.788C1.37479 25.218 1.80154 27.558 2.67283 29.916C2.83286 30.366 3.34852 30.618 3.81084 30.438C4.27316 30.276 4.50431 29.754 4.3265 29.286C3.25962 26.406 3.13515 24.192 3.13515 22.788C3.13515 20.916 3.49077 19.206 4.18425 17.748C6.26468 13.338 10.8878 10.494 15.9378 10.494C23.0503 10.494 28.8293 16.002 28.8293 22.788C28.8293 24.714 27.1756 26.28 25.1308 26.28C23.0859 26.28 21.4322 24.714 21.4322 22.788C21.4322 19.872 18.9784 17.496 15.9555 17.496C12.9327 17.496 10.4789 19.872 10.4789 22.788C10.4789 26.352 11.848 29.682 14.3374 32.184Z" fill="#5F5F5F"/>
</svg>
