<svg width="19" height="19" viewBox="0 0 19 19" fill="none" xmlns="http://www.w3.org/2000/svg">
    <path d="M9.5 0.222656C4.3752 0.222656 0.222656 4.3752 0.222656 9.5C0.222656 14.6248 4.3752 18.7773 9.5 18.7773C14.6248 18.7773 18.7773 14.6248 18.7773 9.5C18.7773 4.3752 14.6248 0.222656 9.5 0.222656ZM8.30137 1.28027C7.39961 2.40098 6.69824 3.65156 6.21582 4.98008C5.25098 4.72031 4.3084 4.3418 3.41406 3.84453C4.67578 2.49004 6.38281 1.55488 8.30137 1.28027ZM2.99844 4.33066C3.95957 4.87617 4.97266 5.2918 6.01543 5.57383C5.65547 6.73164 5.45508 7.94512 5.42539 9.18457H1.19863C1.26543 7.35508 1.92969 5.67402 2.99844 4.33066ZM1.19863 9.81172H5.42539C5.45508 11.0549 5.65547 12.2646 6.01543 13.4225C4.97266 13.7082 3.95957 14.1201 2.99844 14.6656C1.92969 13.326 1.26543 11.6449 1.19863 9.81172ZM3.41406 15.1518C4.3084 14.6582 5.24727 14.2797 6.21582 14.0162C6.70195 15.3484 7.40332 16.5953 8.30137 17.716C6.38281 17.4414 4.67578 16.51 3.41406 15.1518ZM9.18828 17.7977C8.15664 16.6287 7.3625 15.3002 6.82812 13.8678C7.60371 13.7008 8.39414 13.6043 9.18828 13.5857V17.7977ZM9.18828 12.9623C8.32734 12.9809 7.47012 13.0885 6.62402 13.274C6.2752 12.1645 6.08223 11.0029 6.05254 9.81172H9.18828V12.9623ZM9.18828 9.18828H6.05254C6.08223 7.99707 6.2752 6.83555 6.62402 5.72598C7.46641 5.91523 8.32734 6.01914 9.18828 6.0377V9.18828ZM9.18828 5.41055C8.39785 5.39199 7.60742 5.29551 6.82812 5.12852C7.35879 3.69609 8.15293 2.36758 9.18828 1.19863V5.41055ZM17.8014 9.18828H13.5709C13.5412 7.96738 13.3445 6.75391 12.9809 5.57754C14.0273 5.2918 15.0441 4.87617 16.0053 4.33066C17.0703 5.67402 17.7346 7.35508 17.8014 9.18828ZM15.5859 3.84824C14.6916 4.34551 13.7453 4.72402 12.7768 4.98379C12.298 3.67012 11.6041 2.41582 10.6949 1.28027C12.6172 1.55488 14.3242 2.49004 15.5859 3.84824ZM9.81543 1.20234C10.8619 2.38613 11.6449 3.72207 12.1682 5.13223C11.3926 5.29922 10.6059 5.39199 9.81543 5.41426V1.20234ZM9.81543 6.0377C10.6727 6.01914 11.5299 5.91523 12.3723 5.72598C12.7248 6.85039 12.9178 8.01562 12.9437 9.18457H9.81543V6.0377ZM9.81543 9.81172H12.9437C12.9141 10.9807 12.7248 12.1459 12.3723 13.2703C11.5299 13.0848 10.6764 12.9809 9.81543 12.9586V9.81172ZM9.81543 13.5895C10.6059 13.608 11.3926 13.7008 12.1682 13.8715C11.6449 15.2816 10.8619 16.6176 9.81543 17.8014V13.5895ZM10.6986 17.7197C11.6078 16.5842 12.3018 15.3299 12.7805 14.0162C13.749 14.276 14.6916 14.6545 15.5896 15.1518C14.3242 16.51 12.6172 17.4451 10.6986 17.7197ZM16.0016 14.6693C15.0404 14.1238 14.0236 13.7082 12.9771 13.4225C13.3408 12.2498 13.5375 11.0326 13.5672 9.81172H17.7977C17.7346 11.6449 17.0703 13.326 16.0016 14.6693Z" fill="#2D452E"/>
</svg>
