<svg width="13" height="13" viewBox="0 0 13 13" fill="none" xmlns="http://www.w3.org/2000/svg">
    <path d="M8.72957 5.36816H7.93457V2.86816C7.93457 2.59316 7.70957 2.36816 7.43457 2.36816H5.43457C5.15957 2.36816 4.93457 2.59316 4.93457 2.86816V5.36816H4.13957C3.69457 5.36816 3.46957 5.90816 3.78457 6.22316L6.07957 8.51816C6.27457 8.71316 6.58957 8.71316 6.78457 8.51816L9.07957 6.22316C9.39457 5.90816 9.17457 5.36816 8.72957 5.36816ZM2.93457 10.3682C2.93457 10.6432 3.15957 10.8682 3.43457 10.8682H9.43457C9.70957 10.8682 9.93457 10.6432 9.93457 10.3682C9.93457 10.0932 9.70957 9.86816 9.43457 9.86816H3.43457C3.15957 9.86816 2.93457 10.0932 2.93457 10.3682Z" fill="white"/>
</svg>
