<svg width="16" height="22" viewBox="0 0 16 22" fill="none" xmlns="http://www.w3.org/2000/svg">
    <path d="M7.81395 22L7.39535 21.4884C7.11628 21.1163 0 12.7907 0 7.81396C0 3.48838 3.53488 0 7.81395 0C12.093 0 15.6279 3.53489 15.6279 7.81396C15.6279 12.7907 8.51162 21.1628 8.23255 21.4884L7.81395 22ZM7.81395 1.06978C4.09302 1.06978 1.11628 4.09303 1.11628 7.76744C1.11628 11.6744 6.27907 18.3256 7.81395 20.2326C9.34884 18.3256 14.5116 11.7209 14.5116 7.76744C14.5116 4.09303 11.5349 1.06978 7.81395 1.06978Z" fill="white"/>
    <path d="M7.44158 10.9767C5.81368 10.9767 4.46484 9.62788 4.46484 7.99998C4.46484 6.37207 5.81368 5.02322 7.44158 5.02322C9.06949 5.02322 10.4183 6.37207 10.4183 7.99998C10.4183 9.62788 9.06949 10.9767 7.44158 10.9767ZM7.44158 6.13951C6.41833 6.13951 5.58112 6.97672 5.58112 7.99998C5.58112 9.02323 6.41833 9.86044 7.44158 9.86044C8.46484 9.86044 9.30205 9.02323 9.30205 7.99998C9.30205 6.97672 8.46484 6.13951 7.44158 6.13951Z" fill="white"/>
</svg>
