<svg width="80" height="78" viewBox="0 0 80 78" fill="none" xmlns="http://www.w3.org/2000/svg">
    <path d="M38.5 77.5C59.2107 77.5 76 60.7107 76 40C76 19.2893 59.2107 2.5 38.5 2.5C17.7893 2.5 1 19.2893 1 40C1 60.7107 17.7893 77.5 38.5 77.5Z" fill="#F7F8F9" stroke="#BFBFBF" stroke-opacity="0.264913"/>
    <path d="M44.2557 30.2128C44.2557 30.5528 44.2325 30.8929 44.19 31.2291C44.2093 31.0938 44.2287 30.9547 44.2441 30.8195C44.1514 31.4919 43.9736 32.145 43.7147 32.771C43.7649 32.6473 43.819 32.5237 43.8693 32.4C43.6104 33.0106 43.278 33.5825 42.8723 34.1081C42.9534 34.0037 43.0346 33.8994 43.1157 33.7951C42.7138 34.3129 42.2462 34.7805 41.7284 35.1824C41.8327 35.1012 41.9371 35.0201 42.0414 34.9389C41.5158 35.3408 40.9439 35.677 40.3333 35.9359C40.457 35.8857 40.5807 35.8316 40.7043 35.7814C40.0783 36.0403 39.4252 36.218 38.7528 36.3108C38.8881 36.2915 39.0272 36.2721 39.1624 36.2567C38.4862 36.3456 37.806 36.3456 37.1297 36.2567C37.265 36.276 37.4041 36.2953 37.5394 36.3108C36.867 36.218 36.2139 36.0403 35.5878 35.7814C35.7115 35.8316 35.8352 35.8857 35.9588 35.9359C35.3483 35.677 34.7763 35.3447 34.2508 34.9389C34.3551 35.0201 34.4594 35.1012 34.5638 35.1824C34.0459 34.7805 33.5784 34.3129 33.1765 33.7951C33.2576 33.8994 33.3388 34.0037 33.4199 34.1081C33.018 33.5825 32.6818 33.0106 32.4229 32.4C32.4731 32.5237 32.5272 32.6473 32.5775 32.771C32.3186 32.145 32.1408 31.4919 32.0481 30.8195C32.0674 30.9547 32.0867 31.0938 32.1022 31.2291C32.0133 30.5528 32.0133 29.8727 32.1022 29.1964C32.0828 29.3317 32.0635 29.4708 32.0481 29.606C32.1408 28.9336 32.3186 28.2805 32.5775 27.6545C32.5272 27.7782 32.4731 27.9018 32.4229 28.0255C32.6818 27.4149 33.0142 26.843 33.4199 26.3174C33.3388 26.4218 33.2576 26.5261 33.1765 26.6304C33.5784 26.1126 34.0459 25.645 34.5638 25.2431C34.4594 25.3243 34.3551 25.4054 34.2508 25.4866C34.7763 25.0847 35.3483 24.7485 35.9588 24.4896C35.8352 24.5398 35.7115 24.5939 35.5878 24.6441C36.2139 24.3852 36.867 24.2075 37.5394 24.1147C37.4041 24.134 37.265 24.1534 37.1297 24.1688C37.806 24.0799 38.4862 24.0799 39.1624 24.1688C39.0272 24.1495 38.8881 24.1302 38.7528 24.1147C39.4252 24.2075 40.0783 24.3852 40.7043 24.6441C40.5807 24.5939 40.457 24.5398 40.3333 24.4896C40.9439 24.7485 41.5158 25.0808 42.0414 25.4866C41.9371 25.4054 41.8327 25.3243 41.7284 25.2431C42.2462 25.645 42.7138 26.1126 43.1157 26.6304C43.0346 26.5261 42.9534 26.4218 42.8723 26.3174C43.2742 26.843 43.6104 27.4149 43.8693 28.0255C43.819 27.9018 43.7649 27.7782 43.7147 27.6545C43.9736 28.2805 44.1514 28.9336 44.2441 29.606C44.2248 29.4708 44.2055 29.3317 44.19 29.1964C44.2325 29.5326 44.2518 29.8727 44.2557 30.2128C44.2596 31.0204 44.9629 31.7972 45.8015 31.7585C46.6362 31.7199 47.3511 31.0784 47.3473 30.2128C47.3395 28.3617 46.783 26.4681 45.6933 24.961C45.3996 24.5553 45.0866 24.1572 44.7388 23.7978C44.3871 23.4346 44.0007 23.1216 43.5988 22.8163C42.8684 22.2598 42.053 21.8502 41.1874 21.5333C37.6978 20.2542 33.4895 21.3942 31.1283 24.2693C30.8037 24.6635 30.4946 25.0731 30.2318 25.5136C29.969 25.9503 29.7642 26.414 29.5748 26.8855C29.2193 27.7589 29.0377 28.6863 28.9643 29.6254C28.8213 31.4648 29.3005 33.3854 30.2588 34.9621C31.1824 36.4847 32.5775 37.7909 34.2083 38.529C34.6874 38.7454 35.1782 38.9463 35.6883 39.0893C36.1946 39.2284 36.7085 39.3057 37.2302 39.3675C38.1809 39.4796 39.1508 39.4023 40.0899 39.213C43.6567 38.4864 46.6439 35.4142 47.1965 31.8088C47.2777 31.2832 47.3395 30.7576 47.3395 30.2243C47.3434 29.4167 46.6246 28.6399 45.7937 28.6786C44.959 28.7056 44.2557 29.3471 44.2557 30.2128ZM49.3838 54.3769C48.6264 54.3769 47.8689 54.3769 47.1115 54.3769C45.3068 54.3769 43.506 54.3769 41.7013 54.3769C39.5295 54.3769 37.3577 54.3769 35.1821 54.3769C33.3078 54.3769 31.4336 54.3769 29.5555 54.3769C28.6783 54.3769 27.8011 54.3846 26.9238 54.3769C26.8272 54.3769 26.7306 54.3692 26.6379 54.3576C26.7731 54.3769 26.9123 54.3962 27.0475 54.4117C26.8929 54.3885 26.7461 54.346 26.6031 54.288C26.7268 54.3382 26.8504 54.3923 26.9741 54.4426C26.8195 54.3769 26.6765 54.2919 26.5413 54.1875C26.6456 54.2687 26.7499 54.3498 26.8543 54.431C26.7384 54.3344 26.6302 54.23 26.5374 54.1141C26.6186 54.2184 26.6997 54.3228 26.7809 54.4271C26.6765 54.2919 26.5954 54.1489 26.5258 53.9943C26.5761 54.118 26.6302 54.2416 26.6804 54.3653C26.6224 54.2223 26.5838 54.0716 26.5567 53.9209C26.5761 54.0561 26.5954 54.1953 26.6108 54.3305C26.549 53.8629 26.5915 53.3683 26.5915 52.8968C26.5915 52.3442 26.5915 51.7955 26.5915 51.2429C26.5915 50.8294 26.6147 50.4197 26.6688 50.0101C26.6495 50.1454 26.6302 50.2845 26.6147 50.4197C26.7229 49.6275 26.9316 48.8508 27.2446 48.1127C27.1944 48.2363 27.1403 48.36 27.09 48.4837C27.3914 47.7803 27.7779 47.1195 28.2455 46.5128C28.1643 46.6172 28.0832 46.7215 28.002 46.8258C28.4696 46.2269 29.0068 45.6858 29.6096 45.2182C29.5053 45.2994 29.4009 45.3806 29.2966 45.4617C29.9033 44.9941 30.5641 44.6077 31.2674 44.3062C31.1438 44.3565 31.0201 44.4106 30.8965 44.4608C31.6346 44.1517 32.4074 43.9391 33.2035 43.8309C33.0683 43.8502 32.9291 43.8696 32.7939 43.885C33.3658 43.8116 33.9339 43.8077 34.5097 43.8077C35.2169 43.8077 35.9241 43.8077 36.6312 43.8077C38.2813 43.8077 39.9314 43.8077 41.5815 43.8077C42.2192 43.8077 42.8529 43.8039 43.4906 43.885C43.3553 43.8657 43.2162 43.8464 43.0809 43.8309C43.8731 43.9391 44.6499 44.1478 45.388 44.4608C45.2643 44.4106 45.1407 44.3565 45.017 44.3062C45.7203 44.6077 46.3811 44.9941 46.9878 45.4617C46.8835 45.3806 46.7792 45.2994 46.6748 45.2182C47.2738 45.6858 47.8148 46.223 48.2824 46.8258C48.2013 46.7215 48.1201 46.6172 48.039 46.5128C48.5066 47.1195 48.893 47.7803 49.1944 48.4837C49.1442 48.36 49.0901 48.2363 49.0398 48.1127C49.349 48.8508 49.5615 49.6237 49.6697 50.4197C49.6504 50.2845 49.6311 50.1454 49.6156 50.0101C49.6891 50.5936 49.6929 51.1733 49.6929 51.7607C49.6929 52.3983 49.6929 53.0359 49.6929 53.6736C49.6929 53.8938 49.7007 54.1141 49.6736 54.3305C49.6929 54.1953 49.7123 54.0561 49.7277 53.9209C49.7045 54.0755 49.662 54.2223 49.6041 54.3653C49.6543 54.2416 49.7084 54.118 49.7586 53.9943C49.6929 54.1489 49.6079 54.2919 49.5036 54.4271C49.5847 54.3228 49.6659 54.2184 49.747 54.1141C49.6504 54.23 49.5461 54.3382 49.4302 54.431C49.5345 54.3498 49.6388 54.2687 49.7432 54.1875C49.6079 54.2919 49.4649 54.373 49.3104 54.4426C49.434 54.3923 49.5577 54.3382 49.6813 54.288C49.5384 54.346 49.3876 54.3846 49.2369 54.4117C49.3722 54.3923 49.5113 54.373 49.6466 54.3576C49.5615 54.3692 49.4727 54.373 49.3838 54.3769C48.9857 54.3808 48.5761 54.5469 48.2902 54.829C48.0235 55.0957 47.8187 55.5362 47.838 55.9227C47.8767 56.7496 48.5182 57.48 49.3838 57.4684C50.887 57.4452 52.2087 56.4637 52.6492 55.0222C52.8231 54.4503 52.7845 53.8359 52.7845 53.2485C52.7845 51.9037 52.827 50.5704 52.5951 49.2372C52.255 47.2857 51.2735 45.4501 49.9287 44.0087C48.5838 42.5673 46.7753 41.5084 44.8624 41.037C43.7649 40.7664 42.6597 40.7239 41.539 40.7239C40.3874 40.7239 39.2397 40.7239 38.0881 40.7239C36.952 40.7239 35.8197 40.7239 34.6836 40.7239C33.5358 40.7239 32.3958 40.778 31.279 41.0756C29.3816 41.578 27.5963 42.6484 26.2785 44.1014C24.9491 45.566 23.9869 47.4055 23.6739 49.3686C23.4652 50.6864 23.5077 52.008 23.5077 53.3374C23.5077 53.9479 23.4729 54.5856 23.6932 55.1691C23.9792 55.9188 24.4352 56.51 25.1037 56.9544C25.6254 57.2984 26.2862 57.4646 26.9045 57.4723C27.206 57.4761 27.5074 57.4723 27.8088 57.4723C28.5817 57.4723 29.3507 57.4723 30.1236 57.4723C31.2211 57.4723 32.3147 57.4723 33.4122 57.4723C34.6874 57.4723 35.9627 57.4723 37.2379 57.4723C38.548 57.4723 39.8542 57.4723 41.1642 57.4723C42.3622 57.4723 43.5563 57.4723 44.7542 57.4723C45.6933 57.4723 46.6323 57.4723 47.5675 57.4723C48.1047 57.4723 48.6418 57.4723 49.179 57.4723C49.2485 57.4723 49.3181 57.4723 49.3876 57.4723C50.1953 57.4723 50.972 56.7612 50.9334 55.9265C50.8948 55.0841 50.2533 54.3769 49.3838 54.3769Z" fill="#5F5F5F"/>
    <path d="M65.5 27C72.6797 27 78.5 21.1797 78.5 14C78.5 6.8203 72.6797 1 65.5 1C58.3203 1 52.5 6.8203 52.5 14C52.5 21.1797 58.3203 27 65.5 27Z" fill="#ED3124" stroke="white" stroke-width="2"/>
    <path d="M60.5 9L70.0867 18.5861" stroke="white" stroke-width="2.5" stroke-linecap="round" stroke-linejoin="round"/>
    <path d="M70.0867 9L60.5 18.5861" stroke="white" stroke-width="2.5" stroke-linecap="round" stroke-linejoin="round"/>
</svg>
