<svg width="32" height="32" viewBox="0 0 32 32" fill="none" xmlns="http://www.w3.org/2000/svg">
    <circle cx="16" cy="16" r="15" stroke="#C9C9C9"/>
    <path d="M22.9144 19.2082C22.3825 19.1904 21.9482 18.9157 21.9482 18.6321C21.9482 18.4814 22.0812 18.2598 22.2496 18.2598C22.4358 18.2598 22.5865 18.5213 22.9144 18.5789V17.861C22.5067 17.7059 22.028 17.5154 22.028 16.9481C22.028 16.3853 22.4447 16.1149 22.9144 16.0484V15.9244C22.9144 15.8623 22.9853 15.8047 23.0827 15.8047C23.167 15.8047 23.2512 15.8623 23.2512 15.9244V16.0351C23.5259 16.044 24.0444 16.1149 24.0444 16.4207C24.0444 16.5404 23.9647 16.7841 23.7697 16.7841C23.6235 16.7841 23.5393 16.6423 23.2512 16.6201V17.2671C23.6544 17.4178 24.1242 17.6261 24.1242 18.2243C24.1242 18.7739 23.7696 19.1062 23.2512 19.1904V19.3189C23.2512 19.381 23.167 19.4385 23.0827 19.4385C22.9853 19.4385 22.9144 19.3809 22.9144 19.3189V19.2082H22.9144ZM22.9587 17.1608V16.6334C22.7593 16.6733 22.675 16.7752 22.675 16.8816C22.675 17.0101 22.7903 17.0899 22.9587 17.1608ZM23.2068 17.9806V18.5744C23.3575 18.539 23.4771 18.4548 23.4771 18.2953C23.4771 18.149 23.3663 18.0559 23.2068 17.9806Z" fill="#C9C9C9"/>
    <path d="M26.1653 10H12.9522C12.7742 10 12.6299 10.1443 12.6299 10.3223C12.6299 10.5002 12.7742 10.6445 12.9522 10.6445H26.1653C26.2701 10.6445 26.3554 10.7298 26.3554 10.8346V12.0562H5.64453V10.8346C5.64453 10.7298 5.72982 10.6445 5.83467 10.6445H11.6632C11.8411 10.6445 11.9854 10.5002 11.9854 10.3223C11.9854 10.1443 11.8411 10 11.6632 10H5.83467C5.37443 10 5 10.3744 5 10.8346V20.5424C5 21.0027 5.37443 21.3771 5.83467 21.3771H26.1653C26.6256 21.3771 27 21.0026 27 20.5424V10.8346C27 10.3744 26.6256 10 26.1653 10ZM26.1653 20.7326H5.83467C5.72982 20.7326 5.64453 20.6473 5.64453 20.5425V12.7007H26.3554V20.5424C26.3554 20.6473 26.2701 20.7326 26.1653 20.7326Z" fill="#C9C9C9"/>
    <path d="M18.5238 13.6836H7.5675C7.21039 13.6836 6.91992 13.9741 6.91992 14.3312V15.3385C6.91992 15.6956 7.21043 15.9861 7.5675 15.9861H9.74056C9.91853 15.9861 10.0628 15.8418 10.0628 15.6638C10.0628 15.4859 9.91853 15.3416 9.74056 15.3416H7.5675C7.56583 15.3416 7.56445 15.3402 7.56445 15.3385V14.3312C7.56445 14.3295 7.56583 14.3281 7.5675 14.3281H18.5238C18.5255 14.3281 18.5268 14.3295 18.5268 14.3312V15.3385C18.5268 15.3402 18.5255 15.3416 18.5238 15.3416H11.0296C10.8516 15.3416 10.7074 15.4859 10.7074 15.6638C10.7074 15.8418 10.8516 15.9861 11.0296 15.9861H18.5238C18.8809 15.9861 19.1714 15.6956 19.1714 15.3385V14.3312C19.1714 13.9741 18.8809 13.6836 18.5238 13.6836Z" fill="#C9C9C9"/>
    <path d="M24.9599 14.1699H21.2207C21.0427 14.1699 20.8984 14.3142 20.8984 14.4922C20.8984 14.6702 21.0427 14.8145 21.2207 14.8145H24.9599C25.1379 14.8145 25.2821 14.6702 25.2821 14.4922C25.2821 14.3142 25.1379 14.1699 24.9599 14.1699Z" fill="#C9C9C9"/>
    <path d="M18.8491 16.9961H7.24219C7.06421 16.9961 6.91992 17.1404 6.91992 17.3184C6.91992 17.4963 7.06421 17.6406 7.24219 17.6406H18.8491C19.0271 17.6406 19.1714 17.4963 19.1714 17.3184C19.1714 17.1404 19.0271 16.9961 18.8491 16.9961Z" fill="#C9C9C9"/>
    <path d="M11.6628 18.5723H7.24219C7.06421 18.5723 6.91992 18.7166 6.91992 18.8945C6.91992 19.0725 7.06421 19.2168 7.24219 19.2168H11.6628C11.8408 19.2168 11.9851 19.0725 11.9851 18.8945C11.9851 18.7166 11.8408 18.5723 11.6628 18.5723Z" fill="#C9C9C9"/>
</svg>
