<svg width="13" height="13" viewBox="0 0 13 13" fill="none" xmlns="http://www.w3.org/2000/svg">
    <path fill-rule="evenodd" clip-rule="evenodd" d="M6.43457 2.36816C6.98686 2.36816 7.43457 2.81588 7.43457 3.36816C7.43457 3.92045 6.98686 4.36816 6.43457 4.36816C5.88229 4.36816 5.43457 3.92045 5.43457 3.36816C5.43457 2.81588 5.88229 2.36816 6.43457 2.36816ZM6.43457 5.86816C6.98685 5.86816 7.43457 6.31588 7.43457 6.86816C7.43457 7.42045 6.98685 7.86816 6.43457 7.86816C5.88229 7.86816 5.43457 7.42045 5.43457 6.86816C5.43457 6.31588 5.88229 5.86816 6.43457 5.86816ZM6.43457 9.36816C6.98685 9.36816 7.43457 9.81588 7.43457 10.3682C7.43457 10.9204 6.98685 11.3682 6.43457 11.3682C5.88229 11.3682 5.43457 10.9204 5.43457 10.3682C5.43457 9.81588 5.88229 9.36816 6.43457 9.36816Z" fill="white"/>
</svg>
