<svg width="20" height="22" viewBox="0 0 20 22" fill="none" xmlns="http://www.w3.org/2000/svg">
<path fill-rule="evenodd" clip-rule="evenodd" d="M11.9905 19.9735C11.991 19.983 11.9935 19.9915 11.9935 20.0015C11.9935 21.105 11.101 22 10 22C8.899 22 8.0065 21.105 8.0065 20.0015C8.0065 19.992 8.009 19.9835 8.009 19.9735C1.6335 19.7985 0 18.76 0 17.5015C0 17.1075 0.172 16.7365 0.5905 16.4045C3.6045 13.047 4.5 13.9765 4.5 9.00301C4.5 5.68701 4.6355 2.64701 8.629 2.0995C8.55 1.9165 8.505 1.7155 8.505 1.504C8.505 0.676005 9.1745 0.00500488 10 0.00500488C10.8255 0.00500488 11.495 0.676005 11.495 1.504C11.495 1.7155 11.45 1.9165 11.371 2.0995C15.3645 2.64701 15.5 5.68701 15.5 9.00301C15.5 13.9915 16.4 13.0395 19.436 16.433C19.833 16.758 20 17.1185 20 17.5015C20 18.759 18.3235 19.7975 11.9905 19.9735ZM10 21.0015C10.551 21.0015 10.997 20.554 10.997 20.0025C10.997 19.9995 10.996 19.9965 10.996 19.9935C10.6705 19.998 10.348 20.003 10 20.003C9.652 20.003 9.33 19.998 9.004 19.9935C9.004 19.9965 9.003 19.9995 9.003 20.0025C9.003 20.554 9.449 21.0015 10 21.0015ZM10 1.0035C9.7245 1.0035 9.502 1.227 9.502 1.503C9.502 1.779 9.7245 2.003 10 2.003C10.2755 2.003 10.4985 1.779 10.4985 1.503C10.4985 1.227 10.2755 1.0035 10 1.0035ZM18.8025 17.207C18.8025 17.207 18.0415 16.35 16.7935 15.215C15.0895 13.6625 14.5 12.9265 14.5 9.00301C14.5 5.17101 14.291 3.003 10 3.003C5.709 3.003 5.5 5.17101 5.5 9.00301C5.5 12.927 4.91 13.6635 3.205 15.2165C1.9815 16.331 1.212 17.1875 1.212 17.1875C1 17.356 1 17.454 1 17.5015C1 17.563 1.1025 19.003 10 19.003C18.8975 19.003 19 17.563 19 17.5015C19 17.4615 19 17.368 18.8025 17.207Z" fill="white"/>
</svg>
