<svg width="21" height="21" viewBox="0 0 21 21" fill="none" xmlns="http://www.w3.org/2000/svg">
    <path d="M10.7741 11.4609C10.7352 11.4525 10.6953 11.451 10.656 11.4569C10.2616 11.4109 9.96404 11.0772 9.96337 10.6803C9.96337 10.4901 9.80914 10.3358 9.61891 10.3358C9.42868 10.3358 9.27445 10.4901 9.27445 10.6803C9.27546 11.3432 9.71882 11.9238 10.358 12.0992V12.4436C10.358 12.6339 10.5122 12.7881 10.7024 12.7881C10.8926 12.7881 11.0469 12.6339 11.0469 12.4436V12.12C11.7846 11.9656 12.286 11.2786 12.2084 10.5289C12.1307 9.77929 11.4991 9.20962 10.7455 9.20945C10.3136 9.20945 9.96337 8.85927 9.96337 8.42735C9.96337 7.99543 10.3136 7.64525 10.7455 7.64525C11.1774 7.64525 11.5276 7.99543 11.5276 8.42735C11.5276 8.61757 11.6818 8.77181 11.872 8.77181C12.0623 8.77181 12.2165 8.61757 12.2165 8.42735C12.2155 7.73136 11.7279 7.13108 11.0469 6.98744V6.67393C11.0469 6.4837 10.8926 6.32947 10.7024 6.32947C10.5122 6.32947 10.358 6.4837 10.358 6.67393V7.00847C9.64717 7.20256 9.18968 7.89266 9.28757 8.62296C9.38546 9.35325 10.0086 9.89837 10.7455 9.8982C11.1717 9.8982 11.5193 10.2395 11.5271 10.6655C11.535 11.0915 11.1999 11.4454 10.7741 11.4609V11.4609Z" fill="#2D452E"/>
    <path d="M5.75049 9.58031C5.75049 12.339 7.98679 14.5753 10.7455 14.5753C13.5042 14.5753 15.7405 12.339 15.7405 9.58031C15.7405 6.8216 13.5042 4.5853 10.7455 4.5853C7.98814 4.58832 5.75368 6.82295 5.75049 9.58031ZM10.7455 5.27422C13.1238 5.27422 15.0516 7.20205 15.0516 9.58031C15.0516 11.9586 13.1238 13.8864 10.7455 13.8864C8.36725 13.8864 6.43941 11.9586 6.43941 9.58031C6.4421 7.20323 8.36842 5.27691 10.7455 5.27422Z" fill="#2D452E"/>
    <path d="M17.4388 15.4245L14.7405 16.6994C14.3679 16.0065 13.6533 15.5655 12.8668 15.5433L10.3758 15.4748C9.98142 15.4636 9.5944 15.3637 9.24372 15.1825L8.99025 15.0512C7.69247 14.3747 6.14559 14.3764 4.84916 15.0555L4.86497 14.4813C4.87018 14.2911 4.72032 14.1326 4.53009 14.1274L1.79863 14.0522C1.6084 14.047 1.45013 14.1969 1.44492 14.3871L1.27992 20.3812C1.2747 20.5714 1.42456 20.7299 1.61479 20.7351L4.34626 20.8103H4.35567C4.54237 20.8103 4.69509 20.6618 4.70014 20.4752L4.70804 20.1885L5.41765 19.8085C5.69618 19.6586 6.0218 19.623 6.32606 19.7091L10.5635 20.8984C10.5709 20.9006 10.5783 20.9023 10.5859 20.904C10.8922 20.968 11.2044 21.0002 11.5172 21C12.1799 21.0003 12.8348 20.8575 13.4371 20.581C13.4519 20.5743 13.4662 20.5664 13.4798 20.5575L19.6238 16.5834C19.7768 16.4843 19.8263 16.2833 19.7366 16.1246C19.2805 15.3152 18.2688 15.0069 17.4388 15.4245V15.4245ZM1.97809 20.0559L2.12408 14.7504L4.16679 14.8066L4.0208 20.1123L1.97809 20.0559ZM13.1268 19.9658C12.3785 20.3035 11.5428 20.3967 10.7385 20.2324L6.51242 19.0461C6.03677 18.9117 5.52765 18.9674 5.09253 19.2013L4.72991 19.3956L4.82695 15.8681C5.97605 15.1038 7.44977 15.0252 8.67354 15.6629L8.92701 15.7942C9.37003 16.023 9.85864 16.1491 10.357 16.1636L12.8481 16.232C13.5478 16.2522 14.142 16.7504 14.284 17.436L10.5735 17.3335C10.3832 17.3283 10.225 17.4784 10.2196 17.6684C10.2144 17.8586 10.3644 18.0171 10.5545 18.0223L14.6493 18.135H14.6589C14.8454 18.1348 14.998 17.9863 15.003 17.7999C15.0072 17.6502 14.9961 17.5004 14.9697 17.353L17.7373 16.0453C17.74 16.0442 17.7427 16.0428 17.7454 16.0415C18.138 15.8428 18.6126 15.9093 18.9355 16.2082L13.1268 19.9658Z" fill="#2D452E"/>
    <path d="M11.0898 3.61684V0.344461C11.0898 0.154234 10.9356 0 10.7453 0C10.5551 0 10.4009 0.154234 10.4009 0.344461V3.61684C10.4009 3.80706 10.5551 3.9613 10.7453 3.9613C10.9356 3.9613 11.0898 3.80706 11.0898 3.61684Z" fill="#2D452E"/>
    <path d="M13.6733 3.61684V2.06677C13.6733 1.87654 13.5191 1.72231 13.3288 1.72231C13.1386 1.72231 12.9844 1.87654 12.9844 2.06677V3.61684C12.9844 3.80707 13.1386 3.9613 13.3288 3.9613C13.5191 3.9613 13.6733 3.80707 13.6733 3.61684Z" fill="#2D452E"/>
    <path d="M8.50679 3.61684V2.06677C8.50679 1.87654 8.35256 1.72231 8.16233 1.72231C7.9721 1.72231 7.81787 1.87654 7.81787 2.06677V3.61684C7.81787 3.80707 7.9721 3.9613 8.16233 3.9613C8.35256 3.9613 8.50679 3.80707 8.50679 3.61684Z" fill="#2D452E"/>
</svg>
