<svg width="20" height="18" viewBox="0 0 20 18" fill="none" xmlns="http://www.w3.org/2000/svg">
    <path d="M9.13633 11.375C9.16979 11.3815 9.2038 11.3848 9.23789 11.3847C9.36412 11.3846 9.48635 11.3404 9.58343 11.2597C9.68052 11.179 9.74636 11.067 9.76957 10.9429C9.8054 10.7588 9.82377 10.5718 9.82441 10.3843C9.82441 9.10257 9.02055 7.98995 7.85207 7.44862C8.10803 7.22443 8.31319 6.94819 8.45383 6.63836C8.59447 6.32853 8.66736 5.99224 8.66762 5.65198C8.66762 4.32355 7.5743 3.24292 6.23012 3.24292C4.88594 3.24292 3.79262 4.32355 3.79262 5.65198C3.7931 5.99504 3.86735 6.33398 4.01034 6.64581C4.15334 6.95764 4.36172 7.23507 4.62137 7.45929C3.46508 8.00417 2.67188 9.11019 2.67188 10.3838C2.67297 10.5704 2.69116 10.7565 2.72621 10.9398C2.73915 11.0099 2.76575 11.0766 2.8045 11.1364C2.84325 11.1961 2.89338 11.2476 2.95204 11.288C3.0107 11.3284 3.07674 11.3568 3.14638 11.3716C3.21602 11.3865 3.28791 11.3875 3.35793 11.3745C3.42795 11.3616 3.49474 11.335 3.55448 11.2962C3.61422 11.2575 3.66574 11.2074 3.70611 11.1487C3.74647 11.09 3.77489 11.024 3.78973 10.9544C3.80457 10.8847 3.80555 10.8128 3.79262 10.7428C3.76959 10.6245 3.75735 10.5043 3.75606 10.3838C3.75606 9.16909 4.87324 8.1814 6.24992 8.1814C7.6266 8.1814 8.74277 9.16909 8.74277 10.3838C8.74183 10.5031 8.72976 10.6221 8.70672 10.7392C8.69301 10.8092 8.69326 10.8812 8.70745 10.9511C8.72164 11.0209 8.7495 11.0873 8.78942 11.1464C8.82934 11.2055 8.88053 11.2561 8.94007 11.2953C8.9996 11.3346 9.0663 11.3616 9.13633 11.375V11.375ZM6.2291 4.32558C6.97609 4.32558 7.58344 4.92073 7.58344 5.65147C7.58344 6.38222 6.97406 6.97788 6.2291 6.97788C5.48414 6.97788 4.87527 6.38272 4.87527 5.65147C4.87527 4.92022 5.48465 4.32558 6.2291 4.32558V4.32558Z" fill="#2D452E" stroke="white" stroke-width="0.4"/>
    <path d="M6.33888 14.525H6.33852H2.16642C1.61853 14.5245 1.09323 14.3066 0.705808 13.9192C0.318389 13.5318 0.100513 13.0065 0.1 12.4586L0.1 2.16688C0.100525 1.61896 0.318387 1.09362 0.705785 0.706127C1.09319 0.318628 1.6185 0.100641 2.16645 0.0999999L17.3331 0.1C17.8811 0.100656 18.4064 0.318628 18.7939 0.706104C19.1814 1.09359 19.3994 1.61896 19.4 2.16695V3.79184C19.4 3.90902 19.3534 4.0214 19.2706 4.10426C19.1877 4.18712 19.0753 4.23367 18.9582 4.23367C18.841 4.23367 18.7286 4.18712 18.6457 4.10426C18.5629 4.0214 18.5163 3.90902 18.5163 3.79184V2.16684V2.1667C18.5159 1.85307 18.3911 1.55242 18.1693 1.33066C17.9476 1.10889 17.6469 0.984112 17.3333 0.983672H17.3332L2.16633 0.983671L2.16619 0.983672C1.85257 0.984112 1.55191 1.10889 1.33015 1.33066C1.10839 1.55242 0.983604 1.85307 0.983164 2.1667V2.16684L0.983164 12.4566L0.983164 12.4568C0.983604 12.7704 1.10839 13.0711 1.33015 13.2928C1.55191 13.5146 1.85257 13.6394 2.16619 13.6398H2.16633H6.33852H6.33877C6.53897 13.6393 6.73727 13.6785 6.92223 13.7551C7.10718 13.8317 7.27511 13.9442 7.41629 14.0861L7.41645 14.0863L9.67926 16.3511L9.75 16.422L9.82074 16.3511L12.0836 14.0863L12.0836 14.0863C12.2249 13.9447 12.3929 13.8325 12.5779 13.7562C12.7628 13.6799 12.961 13.6411 13.1611 13.6418H13.1615L17.3332 13.6418L17.3333 13.6418C17.6469 13.6414 17.9476 13.5166 18.1693 13.2948C18.3911 13.0731 18.5159 12.7724 18.5163 12.4588V12.4587V6.5C18.5163 6.38282 18.5629 6.27043 18.6457 6.18757C18.7286 6.10471 18.841 6.05816 18.9582 6.05816C19.0753 6.05816 19.1877 6.10471 19.2706 6.18757C19.3534 6.27043 19.4 6.38282 19.4 6.5V12.4586C19.3994 13.0067 19.1812 13.5321 18.7935 13.9196C18.4058 14.307 17.8802 14.5247 17.3321 14.525C17.3321 14.525 17.3321 14.525 17.3321 14.525H13.1605L13.1601 14.525C12.9902 14.5256 12.8274 14.5932 12.707 14.7131L12.7069 14.7132L10.4441 16.9755L10.4438 16.9758C10.353 17.0673 10.2449 17.1399 10.1259 17.1893C10.0068 17.2387 9.87915 17.264 9.75025 17.2636L9.74972 17.2636C9.62058 17.264 9.49265 17.2387 9.37333 17.1893C9.25401 17.1399 9.14569 17.0673 9.05461 16.9757L9.05442 16.9755L6.79212 14.7132L6.79197 14.7131C6.67159 14.5932 6.50878 14.5256 6.33888 14.525Z" fill="#2D452E" stroke="white" stroke-width="0.2"/>
    <path d="M13.5412 9.75C13.6123 9.75006 13.6827 9.73611 13.7485 9.70894C13.8142 9.68176 13.874 9.6419 13.9243 9.59162C13.9746 9.54135 14.0145 9.48165 14.0418 9.41594C14.069 9.35023 14.083 9.2798 14.083 9.20867V7.58367H15.708C15.8517 7.58367 15.9895 7.52658 16.0911 7.42497C16.1928 7.32335 16.2498 7.18554 16.2498 7.04183C16.2498 6.89813 16.1928 6.76031 16.0911 6.6587C15.9895 6.55708 15.8517 6.5 15.708 6.5H14.083V4.875C14.0787 4.73423 14.0197 4.60067 13.9187 4.50263C13.8176 4.40458 13.6823 4.34975 13.5414 4.34975C13.4006 4.34975 13.2653 4.40458 13.1642 4.50263C13.0631 4.60067 13.0042 4.73423 12.9998 4.875V6.5H11.3748C11.2311 6.5 11.0933 6.55708 10.9917 6.6587C10.8901 6.76031 10.833 6.89813 10.833 7.04183C10.833 7.18554 10.8901 7.32335 10.9917 7.42497C11.0933 7.52658 11.2311 7.58367 11.3748 7.58367H12.9998V9.20867C12.9998 9.35224 13.0569 9.48993 13.1584 9.59145C13.2599 9.69296 13.3976 9.75 13.5412 9.75V9.75Z" fill="#2D452E" stroke="white" stroke-width="0.4"/>
</svg>
