<svg width="19" height="19" viewBox="0 0 19 19" fill="none" xmlns="http://www.w3.org/2000/svg">
    <g clip-path="url(#clip0_1787_2301)">
        <path fill-rule="evenodd" clip-rule="evenodd" d="M4.75835 0H10.9669L16.2289 5.4847V16.1525C16.2289 17.4888 15.1477 18.57 13.816 18.57H4.75835C3.42198 18.57 2.34082 17.4888 2.34082 16.1525V2.41753C2.3408 1.08116 3.42195 0 4.75835 0V0Z" fill="#E5252A"/>
        <path opacity="0.302" fill-rule="evenodd" clip-rule="evenodd" d="M10.9619 0V5.44293H16.2285L10.9619 0Z" fill="white"/>
        <path d="M5.02734 13.8554V10.4634H6.47044C6.82774 10.4634 7.1108 10.5608 7.32424 10.7604C7.53769 10.9552 7.64442 11.2197 7.64442 11.5492C7.64442 11.8786 7.53769 12.1431 7.32424 12.338C7.1108 12.5375 6.82774 12.635 6.47044 12.635H5.89506V13.8554H5.02734ZM5.89506 11.8972H6.373C6.50292 11.8972 6.60501 11.8694 6.67462 11.8044C6.74421 11.7441 6.78135 11.6606 6.78135 11.5492C6.78135 11.4378 6.74424 11.3543 6.67462 11.294C6.60503 11.229 6.50294 11.2012 6.373 11.2012H5.89506V11.8972ZM8.0017 13.8554V10.4634H9.2035C9.44015 10.4634 9.66289 10.4959 9.87169 10.5655C10.0805 10.6351 10.2707 10.7325 10.4378 10.8671C10.6048 10.997 10.7394 11.1733 10.8368 11.3961C10.9296 11.6188 10.9807 11.874 10.9807 12.1617C10.9807 12.4447 10.9297 12.7 10.8368 12.9227C10.7394 13.1454 10.6048 13.3217 10.4378 13.4516C10.2707 13.5862 10.0805 13.6836 9.87169 13.7533C9.66289 13.8229 9.44015 13.8554 9.2035 13.8554H8.0017ZM8.85085 13.1176H9.10141C9.23598 13.1176 9.36127 13.1037 9.47727 13.0712C9.58863 13.0387 9.69536 12.9876 9.79745 12.918C9.89489 12.8485 9.97377 12.751 10.0295 12.6211C10.0851 12.4912 10.113 12.338 10.113 12.1617C10.113 11.9807 10.0851 11.8276 10.0295 11.6977C9.97377 11.5678 9.89489 11.4703 9.79745 11.4007C9.69536 11.3311 9.58865 11.2801 9.47727 11.2476C9.36127 11.2151 9.23598 11.2012 9.10141 11.2012H8.85085V13.1176ZM11.4169 13.8554V10.4634H13.8298V11.2012H12.2846V11.7441H13.5189V12.4772H12.2846V13.8554H11.4169Z" fill="white"/>
    </g>
    <defs>
        <clipPath id="clip0_1787_2301">
            <rect width="18.57" height="18.57" fill="white"/>
        </clipPath>
    </defs>
</svg>
