<svg width="25" height="25" viewBox="0 0 25 25" fill="none" xmlns="http://www.w3.org/2000/svg">
    <path d="M19.4346 8.86816H5.43457C3.77457 8.86816 2.43457 10.2082 2.43457 11.8682V15.8682C2.43457 16.9682 3.33457 17.8682 4.43457 17.8682H6.43457V19.8682C6.43457 20.9682 7.33457 21.8682 8.43457 21.8682H16.4346C17.5346 21.8682 18.4346 20.9682 18.4346 19.8682V17.8682H20.4346C21.5346 17.8682 22.4346 16.9682 22.4346 15.8682V11.8682C22.4346 10.2082 21.0946 8.86816 19.4346 8.86816ZM15.4346 19.8682H9.43457C8.88457 19.8682 8.43457 19.4182 8.43457 18.8682V14.8682H16.4346V18.8682C16.4346 19.4182 15.9846 19.8682 15.4346 19.8682ZM19.4346 12.8682C18.8846 12.8682 18.4346 12.4182 18.4346 11.8682C18.4346 11.3182 18.8846 10.8682 19.4346 10.8682C19.9846 10.8682 20.4346 11.3182 20.4346 11.8682C20.4346 12.4182 19.9846 12.8682 19.4346 12.8682ZM17.4346 3.86816H7.43457C6.88457 3.86816 6.43457 4.31816 6.43457 4.86816V6.86816C6.43457 7.41816 6.88457 7.86816 7.43457 7.86816H17.4346C17.9846 7.86816 18.4346 7.41816 18.4346 6.86816V4.86816C18.4346 4.31816 17.9846 3.86816 17.4346 3.86816Z" fill="white"/>
</svg>
