<svg width="21" height="21" viewBox="0 0 21 21" fill="none" xmlns="http://www.w3.org/2000/svg">
    <g clip-path="url(#clip0_815_731)">
        <path d="M7.97331 4.23282C7.78415 3.99856 7.54991 3.80464 7.28446 3.66253C7.01901 3.52042 6.72775 3.43301 6.42792 3.40547C6.12808 3.37794 5.82577 3.41084 5.53888 3.50222C5.25199 3.59361 4.98635 3.74162 4.75768 3.9375C4.28943 4.33736 3.99633 4.90465 3.94113 5.51793C3.88594 6.1312 4.07304 6.74171 4.46237 7.21875C4.65234 7.45368 4.88765 7.64797 5.1543 7.79003C5.42094 7.93209 5.71345 8.01901 6.0144 8.04563C6.0844 8.04563 6.15331 8.04563 6.22112 8.04563C6.75712 8.04667 7.27553 7.85446 7.68128 7.50422C8.1462 7.10422 8.4368 6.53868 8.49133 5.9278C8.54586 5.31691 8.36002 4.70884 7.97331 4.23282ZM6.07347 7.37625C5.85956 7.35645 5.65179 7.29398 5.46243 7.19254C5.27307 7.0911 5.10596 6.95274 4.97097 6.78563C4.69337 6.44308 4.56005 6.00591 4.59925 5.56675C4.63845 5.12759 4.84709 4.72094 5.18097 4.43297C5.47403 4.18174 5.84826 4.04534 6.23425 4.04907H6.37862C6.59262 4.0685 6.80051 4.13081 6.98992 4.23228C7.17933 4.33375 7.34638 4.47231 7.48112 4.63969C7.75952 4.98191 7.89335 5.41928 7.85413 5.85869C7.81491 6.2981 7.60573 6.70484 7.27112 6.99235C7.10836 7.13484 6.9181 7.24243 6.7121 7.30847C6.5061 7.3745 6.28874 7.39757 6.07347 7.37625Z" fill="#2D452E"/>
        <path d="M16.5443 14.3981L17.6337 16.6031C17.6834 16.7025 17.7439 16.796 17.8141 16.882C17.9331 17.0287 18.0802 17.1501 18.2469 17.239C18.4135 17.3279 18.5963 17.3826 18.7844 17.3997C18.9725 17.4168 19.1621 17.3961 19.342 17.3387C19.522 17.2814 19.6886 17.1886 19.8321 17.0658C20.0822 16.8499 20.2525 16.5562 20.3156 16.2318C20.3786 15.9075 20.3309 15.5714 20.1799 15.2775L18.7329 12.4688C18.6693 12.342 18.5911 12.223 18.4999 12.1144C18.275 11.8284 17.9751 11.6103 17.6337 11.4844C16.8121 11.1916 15.9349 11.0884 15.0677 11.1825L14.1523 11.2809L13.4107 10.3753C13.4884 10.2939 13.5618 10.2085 13.6306 10.1194L15.2121 8.08172C15.4281 7.81635 15.5373 7.47999 15.5185 7.13838C15.4997 6.79676 15.3542 6.47444 15.1104 6.23438C14.9728 6.10715 14.8088 6.0118 14.6302 5.95509C14.4515 5.89838 14.2626 5.88171 14.0768 5.90625C13.9056 5.92672 13.7401 5.98073 13.5898 6.06518C13.4395 6.14963 13.3073 6.26287 13.2007 6.39844L11.9177 8.03906C11.8521 8.1216 11.7785 8.19744 11.6979 8.26547L11.6388 8.20313C11.6109 8.17138 11.5955 8.13056 11.5955 8.08828C11.5955 8.04601 11.6109 8.00518 11.6388 7.97344C12.2277 7.31751 12.5632 6.47294 12.5848 5.59172C12.6065 4.71049 12.3129 3.85047 11.757 3.16641L10.1163 1.16485C9.95439 0.958281 9.73423 0.805017 9.48429 0.724852C9.23435 0.644687 8.96612 0.641302 8.71424 0.715136C8.46236 0.788969 8.2384 0.936629 8.07129 1.13904C7.90419 1.34145 7.80161 1.58932 7.77681 1.85063C7.74638 2.19832 7.85227 2.54423 8.07212 2.81531L9.38462 4.43297C9.64402 4.75164 9.76892 5.1589 9.73277 5.56821C9.69662 5.97751 9.50227 6.35658 9.19102 6.62485L8.10493 7.57641C7.51573 8.08437 7.1475 8.8018 7.07828 9.57665C7.00907 10.3515 7.24431 11.1228 7.73415 11.7272L14.3295 19.8155C14.4504 19.9637 14.5999 20.0862 14.7689 20.1758C14.938 20.2654 15.1232 20.3203 15.3138 20.3372H15.4451C15.7969 20.3439 16.139 20.2213 16.4065 19.9927C16.7037 19.7391 16.8905 19.3797 16.9272 18.9908C16.964 18.6018 16.8478 18.2138 16.6034 17.9091L13.5584 14.1947L16.0784 14.1094C16.175 14.1103 16.2696 14.1377 16.3517 14.1886C16.4339 14.2395 16.5005 14.312 16.5443 14.3981ZM13.4895 13.5384C13.372 13.5438 13.2583 13.5816 13.161 13.6476C13.0637 13.7136 12.9866 13.8053 12.9382 13.9125C12.8935 14.0199 12.8781 14.1373 12.8937 14.2526C12.9092 14.3679 12.9552 14.477 13.0268 14.5688L16.0784 18.3258C16.2147 18.4973 16.279 18.7151 16.2575 18.9331C16.2361 19.1511 16.1307 19.3523 15.9635 19.4939C15.8827 19.5633 15.7888 19.6159 15.6874 19.6486C15.586 19.6813 15.4791 19.6934 15.3729 19.6842C15.2689 19.676 15.1677 19.6464 15.0757 19.5973C14.9837 19.5482 14.9028 19.4806 14.8381 19.3988L8.24274 11.3138C7.86083 10.8421 7.6774 10.2404 7.7313 9.63598C7.78519 9.03153 8.07217 8.47176 8.53149 8.07516L9.64712 7.13016C10.0885 6.74996 10.3641 6.21267 10.4156 5.63243C10.4671 5.05219 10.2903 4.47475 9.92274 4.02281L8.61024 2.40188C8.49884 2.26315 8.44482 2.08702 8.45931 1.90969C8.46782 1.8141 8.49649 1.72139 8.54343 1.63769C8.59037 1.55398 8.65452 1.48118 8.73165 1.42406C8.87503 1.33164 9.04806 1.29685 9.21603 1.32667C9.38399 1.35649 9.53447 1.44871 9.63727 1.58485L11.2779 3.58313C11.7351 4.14913 11.9742 4.86027 11.9519 5.58751C11.9297 6.31474 11.6474 7.00991 11.1565 7.54688C11.0272 7.68908 10.951 7.87162 10.9408 8.06357C10.9306 8.25552 10.9871 8.44509 11.1007 8.60016C10.7568 8.68811 10.3927 8.65089 10.0737 8.49516C9.99579 8.45647 9.90572 8.4503 9.82328 8.47798C9.74083 8.50567 9.67275 8.56496 9.63399 8.64281C9.61495 8.68158 9.60376 8.72372 9.60104 8.76683C9.59832 8.80993 9.60414 8.85315 9.61817 8.894C9.63219 8.93485 9.65414 8.97253 9.68276 9.00487C9.71137 9.03722 9.7461 9.0636 9.78493 9.0825C10.2285 9.30423 10.7356 9.36393 11.2186 9.25128C11.7015 9.13864 12.1299 8.86072 12.4296 8.46563L13.7126 6.825C13.7666 6.75362 13.835 6.69443 13.9133 6.65127C13.9917 6.60811 14.0783 6.58197 14.1675 6.57454C14.2567 6.56711 14.3464 6.57856 14.4308 6.60815C14.5153 6.63773 14.5926 6.68479 14.6576 6.74625C14.7774 6.87528 14.8467 7.0432 14.8528 7.21919C14.8588 7.39519 14.8011 7.56745 14.6904 7.70438L13.1252 9.72234C12.8881 10.0293 12.5915 10.2854 12.2533 10.4754C11.9151 10.6654 11.5421 10.7853 11.1565 10.8281C10.9579 10.8478 10.7579 10.8478 10.5593 10.8281C10.4723 10.8194 10.3854 10.8456 10.3177 10.901C10.25 10.9564 10.2071 11.0364 10.1984 11.1234C10.1897 11.2105 10.2159 11.2974 10.2713 11.3651C10.3267 11.4328 10.4067 11.4757 10.4937 11.4844H10.8382C10.9698 11.4849 11.1013 11.4772 11.232 11.4614C11.8441 11.3948 12.428 11.1685 12.9251 10.8052L13.7618 11.8322C13.7964 11.8743 13.8408 11.9071 13.8912 11.9278C13.9417 11.9484 13.9964 11.9561 14.0506 11.9503L15.1432 11.8322C15.9129 11.7472 16.6917 11.8393 17.4204 12.1013C17.6448 12.183 17.8431 12.3235 17.9946 12.5081C18.055 12.5825 18.1078 12.6627 18.1521 12.7477L19.5991 15.5695C19.6819 15.7313 19.7081 15.9161 19.6736 16.0945C19.6391 16.2729 19.5459 16.4346 19.4088 16.5539C19.3322 16.62 19.243 16.6698 19.1465 16.7003C19.0501 16.7307 18.9484 16.7412 18.8477 16.7311C18.746 16.7222 18.6471 16.6929 18.5569 16.645C18.4667 16.5971 18.3871 16.5315 18.3227 16.4522C18.284 16.4054 18.252 16.3535 18.2276 16.298L17.1316 14.1094C17.0333 13.9075 16.8789 13.7382 16.6869 13.6218C16.4948 13.5054 16.2733 13.4469 16.0488 13.4531L13.4895 13.5384Z" fill="#2D452E"/>
        <path d="M0.984375 12.4688H3.60938V14.7656C3.60938 14.8526 3.64395 14.9361 3.70548 14.9976C3.76702 15.0592 3.85048 15.0938 3.9375 15.0938H6.5625V17.3906C6.5625 17.4776 6.59707 17.5611 6.65861 17.6226C6.72014 17.6842 6.8036 17.7188 6.89062 17.7188H9.51562V20.0156C9.51562 20.1026 9.55019 20.1861 9.61173 20.2476C9.67327 20.3092 9.75673 20.3438 9.84375 20.3438H12.7969C12.8839 20.3438 12.9674 20.3092 13.0289 20.2476C13.0904 20.1861 13.125 20.1026 13.125 20.0156C13.125 19.9286 13.0904 19.8451 13.0289 19.7836C12.9674 19.7221 12.8839 19.6875 12.7969 19.6875H10.1719V17.3906C10.1719 17.3036 10.1373 17.2201 10.0758 17.1586C10.0142 17.0971 9.93077 17.0625 9.84375 17.0625H7.21875V14.7656C7.21875 14.6786 7.18418 14.5951 7.12264 14.5336C7.06111 14.4721 6.97765 14.4375 6.89062 14.4375H4.26562V12.1406C4.26562 12.0536 4.23105 11.9701 4.16952 11.9086C4.10798 11.8471 4.02452 11.8125 3.9375 11.8125H0.984375C0.897351 11.8125 0.813891 11.8471 0.752356 11.9086C0.69082 11.9701 0.65625 12.0536 0.65625 12.1406C0.65625 12.2276 0.69082 12.3111 0.752356 12.3726C0.813891 12.4342 0.897351 12.4688 0.984375 12.4688Z" fill="#2D452E"/>
        <path d="M18.1551 10.0472C18.2288 10.0499 18.3012 10.0278 18.3607 9.98431C18.4203 9.94086 18.4634 9.87863 18.4833 9.80766L18.7392 8.85938C18.7511 8.8178 18.7546 8.77429 18.7496 8.73134C18.7447 8.68838 18.7313 8.64683 18.7103 8.60905C18.6892 8.57127 18.661 8.538 18.6271 8.51114C18.5932 8.48428 18.5544 8.46435 18.5128 8.4525C18.4712 8.44065 18.4277 8.43711 18.3848 8.44207C18.3418 8.44704 18.3002 8.46042 18.2625 8.48144C18.2247 8.50246 18.1914 8.53072 18.1646 8.5646C18.1377 8.59849 18.1178 8.63733 18.1059 8.67891L17.8401 9.62719C17.8169 9.71073 17.8277 9.80007 17.8701 9.87569C17.9125 9.95132 17.9831 10.0071 18.0665 10.0308C18.095 10.0411 18.1249 10.0466 18.1551 10.0472Z" fill="#2D452E"/>
        <path d="M16.6788 10.4409C16.7349 10.4418 16.7903 10.4282 16.8396 10.4016C16.8778 10.3807 16.9114 10.3524 16.9385 10.3184C16.9656 10.2844 16.9857 10.2454 16.9976 10.2036C17.0096 10.1617 17.013 10.118 17.0079 10.0748C17.0027 10.0316 16.989 9.98987 16.9676 9.95203L16.5148 9.14484C16.4932 9.10714 16.4645 9.07405 16.4301 9.04746C16.3958 9.02087 16.3566 9.0013 16.3147 8.98988C16.23 8.9668 16.1397 8.97828 16.0636 9.0218C16.0259 9.04334 15.9928 9.0721 15.9662 9.10643C15.9396 9.14077 15.9201 9.18 15.9086 9.2219C15.8855 9.30651 15.897 9.39682 15.9405 9.47297L16.4065 10.2736C16.4338 10.3224 16.4732 10.3634 16.5209 10.3927C16.5686 10.422 16.6229 10.4386 16.6788 10.4409Z" fill="#2D452E"/>
        <path d="M18.9198 10.9889C18.9483 11.0396 18.9898 11.0818 19.0399 11.1112C19.0901 11.1406 19.1471 11.1562 19.2053 11.1563C19.2617 11.1561 19.317 11.1414 19.3661 11.1136L20.1765 10.6608C20.2522 10.6173 20.3076 10.5455 20.3303 10.4612C20.3531 10.3769 20.3415 10.287 20.2979 10.2113C20.2544 10.1355 20.1826 10.0802 20.0983 10.0574C20.014 10.0347 19.9241 10.0463 19.8484 10.0898L19.0314 10.5427C18.958 10.5876 18.9052 10.6595 18.8843 10.743C18.8634 10.8264 18.8762 10.9148 18.9198 10.9889Z" fill="#2D452E"/>
        <path d="M3.60938 8.85938H2.625C2.53798 8.85938 2.45452 8.89394 2.39298 8.95548C2.33145 9.01702 2.29688 9.10048 2.29688 9.1875C2.29688 9.27452 2.33145 9.35798 2.39298 9.41952C2.45452 9.48106 2.53798 9.51562 2.625 9.51562H3.60938C4.13152 9.51562 4.63228 9.72305 5.00149 10.0923C5.3707 10.4615 5.57812 10.9622 5.57812 11.4844C5.57812 11.5714 5.61269 11.6549 5.67423 11.7164C5.73577 11.7779 5.81923 11.8125 5.90625 11.8125C5.99327 11.8125 6.07673 11.7779 6.13827 11.7164C6.19981 11.6549 6.23438 11.5714 6.23438 11.4844C6.23438 10.7882 5.95781 10.1205 5.46553 9.62822C4.97325 9.13594 4.30557 8.85938 3.60938 8.85938Z" fill="#2D452E"/>
    </g>
    <defs>
        <clipPath id="clip0_815_731">
            <rect width="21" height="21" fill="white"/>
        </clipPath>
    </defs>
</svg>
