<svg width="18" height="18" viewBox="0 0 18 18" fill="none" xmlns="http://www.w3.org/2000/svg">
    <path d="M7.38745 14.6625C3.37495 14.6625 0.0749512 11.4 0.0749512 7.35001C0.0749512 3.33751 3.33745 0.0375061 7.38745 0.0375061C11.4375 0.0375061 14.7 3.30001 14.7 7.35001C14.6625 11.4 11.4 14.6625 7.38745 14.6625ZM7.38745 1.125C3.93745 1.125 1.12495 3.9375 1.12495 7.3875C1.12495 10.8375 3.93745 13.65 7.38745 13.65C10.8375 13.65 13.65 10.8375 13.65 7.3875C13.6124 3.9375 10.8 1.125 7.38745 1.125Z" fill="white"/>
    <path d="M17.1374 17.925L12.0374 12.8625L12.8624 12.0375L17.9249 17.1375L17.1374 17.925Z" fill="white"/>
</svg>
