<svg width="79" height="78" viewBox="0 0 79 78" fill="none" xmlns="http://www.w3.org/2000/svg">
    <circle cx="38" cy="40" r="38" fill="#F7F8F9"/>
    <circle cx="38" cy="40" r="37.5" stroke="#BFBFBF" stroke-opacity="0.264913"/>
    <circle cx="65" cy="14" r="13" fill="#038908" stroke="white" stroke-width="2"/>
    <path d="M71.9309 9.1794L63.2947 17.6028C63.1775 17.7176 63.0181 17.7822 62.8519 17.7822C62.6858 17.7822 62.5264 17.7176 62.4092 17.6028L59.0695 14.3421C58.9522 14.2272 58.7929 14.1627 58.6267 14.1627C58.4605 14.1627 58.3012 14.2272 58.1839 14.3421V14.3421C58.0662 14.4564 58 14.6119 58 14.774C58 14.936 58.0662 15.0915 58.1839 15.2059L61.5249 18.4641C62.2587 19.1786 63.4471 19.1786 64.1809 18.4641L72.8164 10.0426C72.9339 9.92822 73 9.77293 73 9.61099C73 9.44905 72.9339 9.29376 72.8164 9.1794V9.1794C72.6991 9.06456 72.5398 9 72.3736 9C72.2075 9 72.0481 9.06456 71.9309 9.1794Z" fill="white" stroke="white" stroke-width="1.86583"/>
    <path d="M43.7991 21.6018L43.7897 21.5927C43.6172 21.4148 43.3793 21.3152 43.131 21.3181C43.1004 21.3167 43.0696 21.3195 43.0395 21.3275H28.9859C26.4597 21.3281 24.4123 23.3758 24.4111 25.9023V55.1805C24.4123 57.7066 26.4597 59.7543 28.9859 59.7552H49.362C51.8881 59.7543 53.9358 57.7066 53.9367 55.1805V32.1052C53.935 31.8629 53.84 31.6304 53.6713 31.456L43.7991 21.6018ZM44.0459 24.4383L50.8348 31.2089H46.7909C45.2768 31.2043 44.0502 29.978 44.0459 28.4642V24.4383ZM49.3711 57.9163H28.9859C27.4718 57.912 26.2458 56.6853 26.2409 55.1713V25.8928C26.2458 24.3791 27.4718 23.1525 28.9859 23.1482H42.2162V28.4642C42.217 30.9901 44.2647 33.0378 46.7909 33.0389H52.1069V55.1713C52.1098 56.6848 50.8846 57.9142 49.3711 57.9163Z" fill="#5F5F5F"/>
    <path d="M30.2762 38.9768H40.167C40.672 38.9768 41.0822 38.5672 41.0822 38.0619C41.0822 37.5565 40.672 37.147 40.167 37.147H30.2762C29.7709 37.147 29.3613 37.5565 29.3613 38.0619C29.3613 38.5672 29.7709 38.9768 30.2762 38.9768Z" fill="#5F5F5F"/>
    <path d="M48.0812 44.064H30.2762C29.7709 44.064 29.3613 44.4735 29.3613 44.9789C29.3613 45.4839 29.7709 45.8937 30.2762 45.8937H48.0812C48.5863 45.8937 48.9964 45.4839 48.9964 44.9789C48.9964 44.4735 48.5863 44.064 48.0812 44.064Z" fill="#5F5F5F"/>
    <path d="M48.0812 50.9901H30.2762C29.7709 50.9901 29.3613 51.3997 29.3613 51.905C29.3613 52.4104 29.7709 52.8199 30.2762 52.8199H48.0812C48.5863 52.8199 48.9964 52.4104 48.9964 51.905C48.9964 51.3997 48.5863 50.9901 48.0812 50.9901Z" fill="#5F5F5F"/>
</svg>
