<svg width="21" height="21" viewBox="0 0 21 21" fill="none" xmlns="http://www.w3.org/2000/svg">
    <g clip-path="url(#clip0_769_594)">
        <path d="M19.776 13.8249C19.6238 13.7252 19.4516 13.66 19.2715 13.6338C19.0914 13.6077 18.9078 13.6214 18.7335 13.6737C18.714 13.6498 18.7032 13.6199 18.7031 13.589V8.96231C18.7031 8.07188 18.4767 7.19608 18.045 6.41727C17.6133 5.63847 16.9907 4.98224 16.2356 4.51031L16.0781 4.4119V3.38058L16.3486 2.97487C16.6005 2.59775 16.7348 2.15431 16.7344 1.70078V1.64062C16.7341 1.37964 16.6303 1.12943 16.4457 0.94489C16.2612 0.760348 16.011 0.656543 15.75 0.656248H13.125C12.864 0.656543 12.6138 0.760348 12.4293 0.94489C12.2447 1.12943 12.1409 1.37964 12.1406 1.64062V1.70078C12.1402 2.15431 12.2745 2.59775 12.5264 2.97487L12.7969 3.38058V4.4119L12.6394 4.51031C11.8843 4.98225 11.2616 5.63847 10.83 6.41728C10.3983 7.19609 10.1719 8.07189 10.1719 8.96231V9.9002C10.0164 9.9555 9.87719 10.0489 9.76709 10.1719H9.13671C9.1449 10.1641 9.15314 10.1565 9.16112 10.1484C9.29111 10.0184 9.38181 9.85433 9.42283 9.67509C9.46384 9.49584 9.45351 9.30867 9.39302 9.13503L9.03339 8.08973C9.01697 8.04273 9.01158 7.99258 9.01764 7.94316C9.0237 7.89375 9.04105 7.84638 9.06834 7.80474C9.57849 7.04451 9.84861 6.14862 9.84373 5.2331C9.8347 2.73082 7.79185 0.677717 5.28989 0.656408C4.67994 0.651116 4.07504 0.767353 3.51049 0.998336C2.94594 1.22932 2.43304 1.57042 2.00172 2.00174C1.57041 2.43307 1.22931 2.94597 0.998334 3.51052C0.767359 4.07508 0.65113 4.67998 0.65643 5.28993C0.677799 7.80266 2.73765 9.84375 5.2501 9.84375H5.25813C5.55146 9.84329 5.84409 9.81493 6.13206 9.75907C6.18799 9.74806 6.24583 9.75163 6.29998 9.76945L7.61059 10.2082C7.40367 10.2662 7.22135 10.3902 7.09139 10.5613C6.96142 10.7325 6.89092 10.9414 6.89062 11.1562V11.4844C6.89046 11.7267 6.98004 11.9605 7.14208 12.1406C6.98004 12.3208 6.89046 12.5546 6.89062 12.7969V13.125C6.89055 13.2384 6.91017 13.351 6.9486 13.4576H6.72174C6.41998 13.4568 6.12105 13.5159 5.84226 13.6313C5.56347 13.7468 5.31035 13.9164 5.09755 14.1304L4.93838 14.2896C4.78638 14.4424 4.60558 14.5636 4.40645 14.6461C4.20732 14.7286 3.9938 14.7707 3.77826 14.7701H0.65625V15.4264H3.77826C4.08002 15.4272 4.37895 15.3682 4.65774 15.2527C4.93653 15.1372 5.18964 14.9676 5.40245 14.7536L5.56162 14.5944C5.71361 14.4416 5.89441 14.3204 6.09354 14.238C6.29268 14.1555 6.5062 14.1133 6.72174 14.1139H10.6641C10.7946 14.1139 10.9198 14.1658 11.0121 14.2581C11.1044 14.3504 11.1562 14.4756 11.1562 14.6061C11.1562 14.7366 11.1044 14.8618 11.0121 14.9541C10.9198 15.0464 10.7946 15.0983 10.6641 15.0983H6.5625V15.7545H7.48594L11.19 17.1791C11.39 17.2567 11.6033 17.294 11.8178 17.2889C12.0322 17.2838 12.2435 17.2365 12.4397 17.1495L18.852 14.3281C18.9427 14.2882 19.0418 14.2716 19.1406 14.2797C19.2393 14.2878 19.3344 14.3204 19.4174 14.3745C19.5003 14.4286 19.5685 14.5026 19.6156 14.5897C19.6628 14.6768 19.6875 14.7743 19.6875 14.8733C19.6876 14.9811 19.6584 15.0869 19.603 15.1794C19.5477 15.2719 19.4682 15.3476 19.3731 15.3984L12.333 19.1699C11.3427 19.7026 10.1846 19.831 9.10168 19.5282L5.09595 18.4155C5.01014 18.3916 4.92148 18.3795 4.83241 18.3795H0.65625V19.0358H4.83241C4.8621 19.0358 4.89165 19.0398 4.92025 19.0478L8.92604 20.1605C10.1717 20.5086 11.5037 20.3609 12.6429 19.7483L19.683 15.9768C19.8746 15.8742 20.0362 15.7235 20.1518 15.5394C20.2675 15.3554 20.3332 15.1445 20.3426 14.9274C20.352 14.7102 20.3047 14.4944 20.2053 14.3011C20.106 14.1078 19.958 13.9437 19.776 13.8249H19.776ZM12.7969 1.64062C12.797 1.55363 12.8316 1.47023 12.8931 1.40871C12.9546 1.3472 13.038 1.3126 13.125 1.3125H15.75C15.837 1.3126 15.9204 1.3472 15.9819 1.40871C16.0434 1.47023 16.078 1.55363 16.0781 1.64062V1.70078C16.0784 2.02473 15.9825 2.34148 15.8026 2.61086L15.5744 2.95312H13.3006L13.0724 2.61086C12.8925 2.34148 12.7966 2.02473 12.7969 1.70078V1.64062ZM15.4219 4.26562H13.4531V3.60937H15.4219V4.26562ZM15.1571 6.43364L15.7102 6.98675C15.7716 7.04833 15.8062 7.13176 15.8062 7.21875C15.8062 7.30573 15.7716 7.38917 15.7102 7.45074L15.6539 7.50706C15.5923 7.5685 15.5089 7.60301 15.4219 7.60301C15.3349 7.60301 15.2514 7.5685 15.1899 7.50706L14.7354 7.05264C14.9049 6.86756 15.0469 6.6591 15.1571 6.43364V6.43364ZM14.7656 5.28296C14.7663 5.54161 14.7157 5.79783 14.6168 6.03679C14.5178 6.27575 14.3724 6.4927 14.189 6.67509L13.357 7.50706C13.2954 7.5685 13.212 7.60301 13.125 7.60301C13.038 7.60301 12.9546 7.5685 12.893 7.50706L12.8367 7.45074C12.7752 7.38917 12.7407 7.30573 12.7407 7.21875C12.7407 7.13176 12.7752 7.04833 12.8367 6.98675L13.3405 6.48291C13.762 6.06362 14.0273 5.51278 14.0924 4.92187H14.7656V5.28296ZM12.9872 5.06683L13.2191 4.92187H13.4312C13.3691 5.33769 13.1746 5.72239 12.8765 6.01884L12.3726 6.52268C12.1883 6.70744 12.0848 6.95777 12.0848 7.21875C12.0848 7.47973 12.1883 7.73006 12.3726 7.91481L12.429 7.97113C12.5204 8.06253 12.6289 8.13504 12.7483 8.18451C12.8677 8.23398 12.9957 8.25944 13.125 8.25944C13.2543 8.25944 13.3823 8.23398 13.5017 8.18451C13.6211 8.13504 13.7296 8.06253 13.821 7.97113L14.2734 7.51874L14.7258 7.97113C14.9106 8.15545 15.1609 8.25896 15.4219 8.25896C15.6828 8.25896 15.9332 8.15545 16.1179 7.97113L16.1742 7.91481C16.3586 7.73006 16.4621 7.47973 16.4621 7.21875C16.4621 6.95777 16.3586 6.70744 16.1742 6.52269L15.3831 5.73158C15.4087 5.58341 15.4217 5.43333 15.4219 5.28296V4.92187H15.6559L15.8878 5.06683C16.5502 5.47791 17.0964 6.0517 17.4743 6.73358C17.8522 7.41545 18.0494 8.18271 18.0469 8.96231V13.589C18.0469 13.7074 18.0736 13.8243 18.1251 13.931L14.7128 15.4324C14.67 15.3074 14.6024 15.1922 14.5142 15.0937C14.6762 14.9136 14.7658 14.6798 14.7656 14.4375V14.1094C14.7658 13.8671 14.6762 13.6333 14.5142 13.4531C14.6762 13.273 14.7658 13.0392 14.7656 12.7969V12.4687C14.7658 12.2264 14.6762 11.9927 14.5142 11.8125C14.6762 11.6323 14.7658 11.3986 14.7656 11.1562V10.8281C14.7653 10.5671 14.6615 10.3169 14.477 10.1324C14.2924 9.94785 14.0422 9.84405 13.7812 9.84375H10.8281V8.96231C10.8256 8.18272 11.0227 7.41546 11.4007 6.73358C11.7786 6.05171 12.3248 5.47792 12.9872 5.06683V5.06683ZM11.462 13.7812H13.7812C13.8682 13.7813 13.9516 13.816 14.0132 13.8775C14.0747 13.939 14.1093 14.0224 14.1094 14.1094V14.4375C14.1093 14.5245 14.0747 14.6079 14.0132 14.6694C13.9516 14.7309 13.8682 14.7655 13.7812 14.7656H11.8012C11.8266 14.5864 11.8091 14.4037 11.7501 14.2326C11.6912 14.0614 11.5924 13.9068 11.462 13.7812V13.7812ZM7.54688 12.7969C7.54697 12.7099 7.58158 12.6265 7.64309 12.565C7.7046 12.5035 7.78801 12.4688 7.875 12.4687H9.51562V12.7969C9.51546 13.0391 9.60499 13.2728 9.76694 13.453L9.76679 13.4531H7.875C7.78801 13.453 7.7046 13.4184 7.64309 13.3569C7.58158 13.2954 7.54697 13.212 7.54688 13.125V12.7969ZM10.5 10.5H13.7812C13.8682 10.5001 13.9516 10.5347 14.0132 10.5962C14.0747 10.6577 14.1093 10.7411 14.1094 10.8281V11.1562C14.1093 11.2432 14.0747 11.3266 14.0132 11.3882C13.9516 11.4497 13.8682 11.4843 13.7812 11.4844H10.5C10.413 11.4843 10.3296 11.4497 10.2681 11.3882C10.2066 11.3266 10.172 11.2432 10.1719 11.1562V10.8281C10.172 10.7411 10.2066 10.6577 10.2681 10.5962C10.3296 10.5347 10.413 10.5001 10.5 10.5V10.5ZM10.5 12.1406H13.7812C13.8682 12.1407 13.9516 12.1753 14.0132 12.2368C14.0747 12.2984 14.1093 12.3818 14.1094 12.4687V12.7969C14.1093 12.8839 14.0747 12.9673 14.0132 13.0288C13.9516 13.0903 13.8682 13.1249 13.7812 13.125H10.5C10.413 13.1249 10.3296 13.0903 10.2681 13.0288C10.2066 12.9673 10.172 12.8839 10.1719 12.7969V12.4687C10.172 12.3818 10.2066 12.2984 10.2681 12.2368C10.3296 12.1753 10.413 12.1407 10.5 12.1406V12.1406ZM6.19654 9.09662C6.13284 9.09662 6.06928 9.10275 6.00675 9.11492H6.00669C5.75966 9.16281 5.50864 9.18711 5.25701 9.1875H5.2501C3.09674 9.18738 1.33097 7.43793 1.31264 5.28432C1.30811 4.7644 1.4066 4.24873 1.60242 3.76707C1.79824 3.28541 2.08751 2.8473 2.45355 2.47803C2.81958 2.10876 3.25513 1.81565 3.73505 1.6156C4.21497 1.41555 4.72976 1.31254 5.2497 1.3125C5.2612 1.3125 5.27281 1.31254 5.28431 1.31266C7.42879 1.33092 9.17973 3.09067 9.18748 5.23546C9.19175 6.02004 8.96034 6.78782 8.52322 7.43937C8.43978 7.56525 8.38643 7.70864 8.36729 7.85844C8.34815 8.00825 8.36374 8.16045 8.41285 8.30326L8.77246 9.34852C8.79238 9.40643 8.79571 9.46876 8.78205 9.52845C8.76839 9.58815 8.7383 9.64284 8.69518 9.68633C8.65206 9.72981 8.59763 9.76036 8.53805 9.77452C8.47847 9.78868 8.41611 9.78588 8.35804 9.76644L6.50827 9.14712C6.40776 9.11361 6.30249 9.09655 6.19654 9.09662ZM7.54688 11.1562C7.54697 11.0693 7.58158 10.9859 7.64309 10.9243C7.7046 10.8628 7.78801 10.8282 7.875 10.8281H9.51562V11.1562C9.51546 11.3986 9.60504 11.6323 9.76709 11.8125H7.875C7.78801 11.8124 7.7046 11.7778 7.64309 11.7163C7.58158 11.6548 7.54697 11.5714 7.54688 11.4844V11.1562ZM12.1754 16.5489C12.0577 16.601 11.9309 16.6294 11.8022 16.6325C11.6736 16.6355 11.5456 16.6131 11.4256 16.5666L9.31408 15.7545H10.6641C10.817 15.7546 10.9683 15.724 11.1092 15.6646C11.2501 15.6052 11.3777 15.5182 11.4844 15.4087V15.4219H13.7812C13.8595 15.422 13.9351 15.4501 13.9945 15.501C14.0539 15.552 14.0931 15.6225 14.1051 15.6998L12.1754 16.5489Z" fill="#2D452E"/>
        <path d="M7.48356 3.48048L7.77889 3.18516L7.31486 2.72109L6.7547 3.28125H6.23438V2.95312C6.23437 2.69205 6.13066 2.44167 5.94606 2.25707C5.76145 2.07246 5.51107 1.96875 5.25 1.96875C4.98893 1.96875 4.73855 2.07246 4.55394 2.25707C4.36934 2.44167 4.26562 2.69205 4.26562 2.95312V3.28125H3.60938C3.34839 3.28155 3.09819 3.38536 2.91365 3.5699C2.72911 3.75444 2.6253 4.00464 2.625 4.26562V6.23438C2.62502 6.38662 2.66038 6.53677 2.72831 6.67302C2.79623 6.80927 2.89487 6.92788 3.01644 7.01952L2.72111 7.31484L3.18514 7.77891L3.7453 7.21875H6.89062C7.15161 7.21845 7.40181 7.11464 7.58635 6.9301C7.77089 6.74556 7.8747 6.49536 7.875 6.23438V4.26562C7.87498 4.11338 7.83962 3.96323 7.77169 3.82698C7.70377 3.69073 7.60513 3.57212 7.48356 3.48048V3.48048ZM7.21875 4.26562V4.37738L7.18883 4.39019C6.89848 4.51442 6.59676 4.61018 6.28791 4.67614L7.00542 3.95863C7.06798 3.98203 7.12192 4.02395 7.16004 4.07881C7.19815 4.13366 7.21863 4.19883 7.21875 4.26562ZM4.92188 2.95312C4.92188 2.8661 4.95645 2.78264 5.01798 2.72111C5.07952 2.65957 5.16298 2.625 5.25 2.625C5.33702 2.625 5.42048 2.65957 5.48202 2.72111C5.54356 2.78264 5.57812 2.8661 5.57812 2.95312V3.28125H4.92188V2.95312ZM3.60938 3.9375H6.09845L5.24964 4.78631C4.58334 4.78677 3.92387 4.65202 3.31117 4.39019L3.28125 4.37738V4.26562C3.28135 4.17863 3.31595 4.09523 3.37747 4.03372C3.43898 3.9722 3.52238 3.9376 3.60938 3.9375V3.9375ZM3.28125 6.23438V5.08499C3.71516 5.24813 4.16776 5.35646 4.62852 5.40743L3.49458 6.54137C3.43202 6.51797 3.37808 6.47605 3.33996 6.42119C3.30185 6.36634 3.28137 6.30117 3.28125 6.23438V6.23438ZM6.89062 6.5625H4.40155L5.52872 5.43533C6.10682 5.40686 6.67697 5.28866 7.21875 5.08499V6.23438C7.21865 6.32137 7.18405 6.40477 7.12253 6.46628C7.06102 6.5278 6.97762 6.5624 6.89062 6.5625V6.5625Z" fill="#2D452E"/>
        <path d="M4.62611 11.1254C3.49539 11.0129 2.4172 10.5924 1.50892 9.90955L1.11475 10.4342C2.11897 11.1891 3.31108 11.6541 4.56126 11.7784L4.62611 11.1254Z" fill="#2D452E"/>
        <path d="M5.25 11.1562V11.8125C5.59581 11.8125 5.94115 11.7868 6.28314 11.7355L6.18561 11.0866C5.8759 11.1329 5.56316 11.1562 5.25 11.1562V11.1562Z" fill="#2D452E"/>
    </g>
    <defs>
        <clipPath id="clip0_769_594">
            <rect width="21" height="21" fill="white"/>
        </clipPath>
    </defs>
</svg>
