<svg width="79" height="78" viewBox="0 0 79 78" fill="none" xmlns="http://www.w3.org/2000/svg">
    <circle cx="38" cy="40" r="38" fill="#F7F8F9"/>
    <circle cx="38" cy="40" r="37.5" stroke="#BFBFBF" stroke-opacity="0.264913"/>
    <g clip-path="url(#clip0_1559_1171)">
        <path d="M30.2651 35.353H26.1475V37.4119H28.2063V43.5883H26.1475V45.6471H32.3239V43.5883H30.2651V35.353Z" fill="#2D452E"/>
        <path d="M34.3828 37.4119H37.471V39.4707H34.3828V45.6471H39.5299V43.5883H36.4416V41.5295H39.5299V35.353H34.3828V37.4119Z" fill="#2D452E"/>
        <path d="M41.5879 35.353V37.4119H44.6761V39.4707H42.6173V41.5295H44.6761L44.6761 43.5883H41.5879V45.6471H46.7349V35.353H41.5879Z" fill="#2D452E"/>
        <path d="M56 49.7647V31.2353H50.8529V29.1765H52.9118V27.1177H46.7353V29.1765H48.7941V31.2353H21V49.7647H48.7941V51.8236H46.7353V53.8824H52.9118V51.8236H50.8529V49.7647H56ZM53.9412 33.2941V47.7059H50.8529V33.2941H53.9412ZM23.0588 47.7059V33.2941H48.7941V47.7059H23.0588Z" fill="#2D452E"/>
    </g>
    <circle cx="65" cy="14" r="13" fill="#038908" stroke="white" stroke-width="2"/>
    <path d="M71.9309 9.1794L63.2947 17.6028C63.1775 17.7176 63.0181 17.7822 62.8519 17.7822C62.6858 17.7822 62.5264 17.7176 62.4092 17.6028L59.0695 14.3421C58.9522 14.2272 58.7929 14.1627 58.6267 14.1627C58.4605 14.1627 58.3012 14.2272 58.1839 14.3421C58.0662 14.4564 58 14.6119 58 14.774C58 14.936 58.0662 15.0915 58.1839 15.2059L61.5249 18.4641C62.2587 19.1786 63.4471 19.1786 64.1809 18.4641L72.8164 10.0426C72.9339 9.92822 73 9.77293 73 9.61099C73 9.44905 72.9339 9.29376 72.8164 9.1794C72.6991 9.06456 72.5398 9 72.3736 9C72.2075 9 72.0481 9.06456 71.9309 9.1794Z" fill="white" stroke="white" stroke-width="1.86583"/>
    <defs>
        <clipPath id="clip0_1559_1171">
            <rect width="35" height="35" fill="white" transform="translate(21 23)"/>
        </clipPath>
    </defs>
</svg>
